M48
;GenerationSoftware,Autodesk,EAGLE,9.6.2*%
;CreationDate,2022-11-17T01:26:43Z*%
FMAT,2
ICI,OFF
METRIC,TZ,000.000
T7C0.350
T6C0.400
T5C0.500
T4C0.600
T3C1.016
T2C1.100
T1C3.175
%
G90
M71
T1
X10970Y54710
X43990Y2640
X59230Y53440
T2
X5890Y25500
X3350Y22960
X5890Y22960
X3350Y20420
X5890Y20420
X3350Y17880
X5890Y17880
X3350Y15340
X5890Y15340
X3350Y12800
X5890Y12800
X3350Y10260
X5890Y10260
X3350Y7720
X5890Y7720
X3350Y5180
X5890Y5180
X59230Y27024
X59230Y29564
X59230Y32104
X59230Y34644
X59230Y37184
X59230Y39724
X59230Y42264
X59230Y44804
X3350Y35660
X59230Y47344
X59230Y49884
X59230Y10260
X59230Y12800
X59230Y15340
X59230Y17880
X59230Y20420
X59230Y22960
X59230Y5180
X59230Y7720
X64310Y50875
X66850Y50875
X64310Y48335
X66850Y48335
X64310Y45795
X66850Y45795
X64310Y43255
X66850Y43255
X64310Y40715
X66850Y40715
X64310Y38175
X66850Y38175
X64310Y35635
X66850Y35635
X64310Y33095
X66850Y33095
X64310Y30555
X66850Y30555
X64310Y28015
X66850Y28015
X64310Y25475
X66850Y25475
X64310Y22935
X66850Y22935
X64310Y20395
X66850Y20395
X64310Y17855
X66850Y17855
X64310Y15315
X66850Y15315
X64310Y12775
X66850Y12775
X66850Y10235
X64310Y7695
X66850Y7695
X64310Y5155
X66850Y5155
X10970Y17880
X10970Y15340
X10970Y12800
X10970Y10260
X10970Y7720
X10970Y5180
X10970Y40740
X10970Y38200
X10970Y35660
X10970Y33120
X10970Y30580
X10970Y28040
X10970Y25500
X10970Y22960
X3350Y50900
X5890Y50900
X3350Y48360
X5890Y48360
X3350Y45820
X5890Y45820
X3350Y43280
X5890Y43280
X3350Y40740
X5890Y40740
X3350Y38200
X5890Y38200
X64310Y10235
X5890Y35660
X3350Y33120
X5890Y33120
X3350Y30580
X5890Y30580
X3350Y28040
X5890Y28040
X3350Y25500
T3
X12070Y45900
X9530Y45900
T4
X23425Y57035
X32075Y53655
X23425Y53655
X32075Y57035
T5
X33750Y2600
X35750Y2600
X19000Y2600
X21000Y2600
X48500Y2600
X50500Y2600
T6
X30725Y52675
X29875Y52675
X29025Y52675
X28175Y52675
X27325Y52675
X26475Y52675
X25625Y52675
X24775Y52675
X29875Y54025
X29025Y54025
X28175Y54025
X27325Y54025
X26475Y54025
X25625Y54025
X24775Y54025
X30725Y54025
T7
X22000Y51500
X27500Y38000
X13500Y38000
X27750Y30250
X29900Y51700
X27600Y51700
X28000Y55700
X25250Y31500
X21750Y43500
X33250Y42000
X39000Y40500
X57250Y38250
X21500Y45750
X21750Y28500
X33500Y26500
X34250Y29000
X25500Y39250
X22000Y36000
X33000Y19750
X43000Y37000
X16250Y12000
X16000Y26750
X27500Y12000
X42250Y12000
X20250Y8750
X37250Y13500
X52000Y10250
X28750Y13750
X22000Y13500
X31250Y10250
X39000Y21250
X35250Y30500
X37250Y26000
X37000Y30500
X36250Y35000
X36250Y38250
X16500Y39750
X16500Y32250
X16500Y24750
X43750Y41500
X43750Y33750
X43750Y26000
X49500Y39750
X49500Y32250
X47750Y19750
X49500Y24750
X52250Y19750
X37500Y19750
X22750Y19750
X18250Y19750
X13750Y19750
X18500Y57500
X20500Y49750
X33500Y34500
X32500Y49750
X33750Y45750
X33750Y38000
X33500Y30250
X32000Y34000
X32000Y26250
X32000Y41500
X43250Y19750
X28500Y19750
X22114Y55636
X25661Y55661
M30