G04 EAGLE Gerber RS-274X export*
G75*
%MOMM*%
%FSLAX34Y34*%
%LPD*%
%INSoldermask Top*%
%IPPOS*%
%AMOC8*
5,1,8,0,0,1.08239X$1,22.5*%
G01*
%ADD10R,1.503200X1.703200*%
%ADD11C,0.963200*%
%ADD12R,1.703200X1.503200*%
%ADD13C,1.479200*%
%ADD14R,1.803200X2.006200*%
%ADD15R,2.053200X2.053200*%
%ADD16C,2.053200*%
%ADD17C,3.378200*%
%ADD18C,0.863200*%
%ADD19C,1.403200*%
%ADD20C,1.063200*%
%ADD21R,1.753200X1.503200*%
%ADD22R,0.863900X0.523200*%
%ADD23R,0.853200X1.853200*%


D10*
X300500Y380000D03*
X319500Y380000D03*
D11*
X337500Y26000D03*
X357500Y26000D03*
D12*
X205000Y555500D03*
X205000Y574500D03*
D10*
X300500Y457500D03*
X319500Y457500D03*
X300500Y302500D03*
X319500Y302500D03*
D12*
X420000Y279500D03*
X420000Y260500D03*
X420000Y357000D03*
X420000Y338000D03*
X420000Y434500D03*
X420000Y415500D03*
D11*
X190000Y26000D03*
X210000Y26000D03*
X485000Y26000D03*
X505000Y26000D03*
D13*
X120700Y452620D02*
X120700Y465380D01*
X95300Y465380D02*
X95300Y452620D01*
D14*
X140780Y155000D03*
X169220Y155000D03*
X288280Y155000D03*
X316720Y155000D03*
X435780Y155000D03*
X464220Y155000D03*
X229220Y155000D03*
X200780Y155000D03*
X376720Y155000D03*
X348280Y155000D03*
X524220Y155000D03*
X495780Y155000D03*
D15*
X109700Y178800D03*
D16*
X109700Y153400D03*
X109700Y128000D03*
X109700Y102600D03*
X109700Y77200D03*
X109700Y51800D03*
D15*
X109700Y407400D03*
D16*
X109700Y382000D03*
X109700Y356600D03*
X109700Y331200D03*
X109700Y305800D03*
X109700Y280400D03*
X109700Y255000D03*
X109700Y229600D03*
D15*
X33500Y509000D03*
D16*
X58900Y509000D03*
X33500Y483600D03*
X58900Y483600D03*
X33500Y458200D03*
X58900Y458200D03*
X33500Y432800D03*
X58900Y432800D03*
X33500Y407400D03*
X58900Y407400D03*
X33500Y382000D03*
X58900Y382000D03*
X33500Y356600D03*
X58900Y356600D03*
X33500Y331200D03*
X58900Y331200D03*
X33500Y305800D03*
X58900Y305800D03*
X33500Y280400D03*
X58900Y280400D03*
X33500Y255000D03*
X58900Y255000D03*
X33500Y229600D03*
X58900Y229600D03*
X33500Y204200D03*
X58900Y204200D03*
X33500Y178800D03*
X58900Y178800D03*
X33500Y153400D03*
X58900Y153400D03*
X33500Y128000D03*
X58900Y128000D03*
X33500Y102600D03*
X58900Y102600D03*
X33500Y77200D03*
X58900Y77200D03*
X33500Y51800D03*
X58900Y51800D03*
D15*
X592300Y270240D03*
D16*
X592300Y295640D03*
X592300Y321040D03*
X592300Y346440D03*
X592300Y371840D03*
X592300Y397240D03*
X592300Y422640D03*
X592300Y448040D03*
X592300Y473440D03*
X592300Y498840D03*
X592300Y102600D03*
X592300Y128000D03*
X592300Y153400D03*
X592300Y178800D03*
X592300Y204200D03*
X592300Y229600D03*
D15*
X592300Y51800D03*
D16*
X592300Y77200D03*
D15*
X643100Y508750D03*
D16*
X668500Y508750D03*
X643100Y483350D03*
X668500Y483350D03*
X643100Y457950D03*
X668500Y457950D03*
X643100Y432550D03*
X668500Y432550D03*
X643100Y407150D03*
X668500Y407150D03*
X643100Y381750D03*
X668500Y381750D03*
X643100Y356350D03*
X668500Y356350D03*
X643100Y330950D03*
X668500Y330950D03*
X643100Y305550D03*
X668500Y305550D03*
X643100Y280150D03*
X668500Y280150D03*
X643100Y254750D03*
X668500Y254750D03*
X643100Y229350D03*
X668500Y229350D03*
X643100Y203950D03*
X668500Y203950D03*
X643100Y178550D03*
X668500Y178550D03*
X643100Y153150D03*
X668500Y153150D03*
X643100Y127750D03*
X668500Y127750D03*
X643100Y102350D03*
X668500Y102350D03*
X643100Y76950D03*
X668500Y76950D03*
X643100Y51550D03*
X668500Y51550D03*
D17*
X592300Y534400D03*
X109700Y547100D03*
X439900Y26400D03*
D12*
X205000Y513000D03*
X205000Y532000D03*
D10*
X510500Y247500D03*
X529500Y247500D03*
X510500Y360000D03*
X529500Y360000D03*
X510500Y322500D03*
X529500Y322500D03*
X510500Y435000D03*
X529500Y435000D03*
X510500Y397500D03*
X529500Y397500D03*
X349500Y182500D03*
X330500Y182500D03*
X452000Y182500D03*
X433000Y182500D03*
X497000Y183000D03*
X478000Y183000D03*
X228000Y182500D03*
X247000Y182500D03*
X375500Y182500D03*
X394500Y182500D03*
X309500Y497500D03*
X290500Y497500D03*
X523000Y182500D03*
X542000Y182500D03*
X199500Y285000D03*
X180500Y285000D03*
X199500Y360000D03*
X180500Y360000D03*
X199500Y435000D03*
X180500Y435000D03*
X180500Y247500D03*
X199500Y247500D03*
X180500Y322500D03*
X199500Y322500D03*
X180500Y397500D03*
X199500Y397500D03*
X157000Y182500D03*
X138000Y182500D03*
X202000Y182500D03*
X183000Y182500D03*
X304500Y182500D03*
X285500Y182500D03*
X510500Y285000D03*
X529500Y285000D03*
D18*
X307250Y526750D03*
X298750Y526750D03*
X290250Y526750D03*
X281750Y526750D03*
X273250Y526750D03*
X264750Y526750D03*
X256250Y526750D03*
X247750Y526750D03*
X307250Y540250D03*
X298750Y540250D03*
X290250Y540250D03*
X281750Y540250D03*
X273250Y540250D03*
X264750Y540250D03*
X256250Y540250D03*
X247750Y540250D03*
D19*
X320750Y542550D02*
X320750Y530550D01*
X234250Y530550D02*
X234250Y542550D01*
D20*
X320750Y566050D02*
X320750Y574650D01*
X234250Y574650D02*
X234250Y566050D01*
D21*
X145250Y120000D03*
X145250Y75000D03*
X224750Y120000D03*
X224750Y75000D03*
X292750Y120000D03*
X292750Y75000D03*
X372250Y120000D03*
X372250Y75000D03*
X440250Y120000D03*
X440250Y75000D03*
X519750Y120000D03*
X519750Y75000D03*
D22*
X320256Y270000D03*
X320256Y275000D03*
X320256Y280000D03*
X299744Y280000D03*
X299744Y275000D03*
X299744Y270000D03*
D23*
X310000Y275000D03*
D22*
X320256Y347500D03*
X320256Y352500D03*
X320256Y357500D03*
X299744Y357500D03*
X299744Y352500D03*
X299744Y347500D03*
D23*
X310000Y352500D03*
D22*
X320256Y425000D03*
X320256Y430000D03*
X320256Y435000D03*
X299744Y435000D03*
X299744Y430000D03*
X299744Y425000D03*
D23*
X310000Y430000D03*
M02*
