G04 EAGLE Gerber RS-274X export*
G75*
%MOMM*%
%FSLAX34Y34*%
%LPD*%
%INBottom Copper*%
%IPPOS*%
%AMOC8*
5,1,8,0,0,1.08239X$1,22.5*%
G01*
%ADD10C,0.760000*%
%ADD11C,1.276000*%
%ADD12R,1.850000X1.850000*%
%ADD13C,1.850000*%
%ADD14C,0.660000*%
%ADD15C,1.200000*%
%ADD16C,0.860000*%
%ADD17C,0.502400*%
%ADD18C,0.152400*%

G36*
X700258Y2004D02*
X700258Y2004D01*
X700277Y2002D01*
X700379Y2024D01*
X700481Y2040D01*
X700498Y2050D01*
X700518Y2054D01*
X700607Y2107D01*
X700698Y2156D01*
X700712Y2170D01*
X700729Y2180D01*
X700796Y2259D01*
X700868Y2334D01*
X700876Y2352D01*
X700889Y2367D01*
X700928Y2463D01*
X700971Y2557D01*
X700973Y2577D01*
X700981Y2595D01*
X700999Y2762D01*
X700999Y590238D01*
X700996Y590258D01*
X700998Y590277D01*
X700976Y590379D01*
X700960Y590481D01*
X700950Y590498D01*
X700946Y590518D01*
X700893Y590607D01*
X700844Y590698D01*
X700830Y590712D01*
X700820Y590729D01*
X700741Y590796D01*
X700666Y590868D01*
X700648Y590876D01*
X700633Y590889D01*
X700537Y590928D01*
X700443Y590971D01*
X700423Y590973D01*
X700405Y590981D01*
X700238Y590999D01*
X2762Y590999D01*
X2742Y590996D01*
X2723Y590998D01*
X2621Y590976D01*
X2519Y590960D01*
X2502Y590950D01*
X2482Y590946D01*
X2393Y590893D01*
X2302Y590844D01*
X2288Y590830D01*
X2271Y590820D01*
X2204Y590741D01*
X2132Y590666D01*
X2124Y590648D01*
X2111Y590633D01*
X2072Y590537D01*
X2029Y590443D01*
X2027Y590423D01*
X2019Y590405D01*
X2001Y590238D01*
X2001Y2762D01*
X2004Y2742D01*
X2002Y2723D01*
X2024Y2621D01*
X2040Y2519D01*
X2050Y2502D01*
X2054Y2482D01*
X2107Y2393D01*
X2156Y2302D01*
X2170Y2288D01*
X2180Y2271D01*
X2259Y2204D01*
X2334Y2132D01*
X2352Y2124D01*
X2367Y2111D01*
X2463Y2072D01*
X2557Y2029D01*
X2577Y2027D01*
X2595Y2019D01*
X2762Y2001D01*
X700238Y2001D01*
X700258Y2004D01*
G37*
%LPC*%
G36*
X250933Y311217D02*
X250933Y311217D01*
X248717Y313433D01*
X248717Y316567D01*
X250933Y318783D01*
X254067Y318783D01*
X255594Y317256D01*
X255668Y317203D01*
X255737Y317143D01*
X255767Y317131D01*
X255794Y317112D01*
X255881Y317085D01*
X255965Y317051D01*
X256006Y317047D01*
X256029Y317040D01*
X256061Y317041D01*
X256132Y317033D01*
X494565Y317033D01*
X494655Y317047D01*
X494746Y317055D01*
X494776Y317067D01*
X494808Y317072D01*
X494888Y317115D01*
X494972Y317151D01*
X495004Y317177D01*
X495025Y317188D01*
X495047Y317211D01*
X495103Y317256D01*
X578762Y400915D01*
X578815Y400989D01*
X578875Y401058D01*
X578887Y401088D01*
X578906Y401115D01*
X578933Y401201D01*
X578967Y401286D01*
X578971Y401327D01*
X578978Y401350D01*
X578977Y401382D01*
X578985Y401453D01*
X578985Y402755D01*
X587145Y410915D01*
X587154Y410928D01*
X587167Y410938D01*
X587226Y411028D01*
X587289Y411115D01*
X587293Y411130D01*
X587302Y411143D01*
X587330Y411247D01*
X587361Y411350D01*
X587361Y411366D01*
X587365Y411381D01*
X587357Y411488D01*
X587355Y411596D01*
X587349Y411611D01*
X587348Y411627D01*
X587307Y411726D01*
X587270Y411827D01*
X587260Y411839D01*
X587254Y411854D01*
X587184Y411935D01*
X587117Y412019D01*
X587103Y412027D01*
X587093Y412039D01*
X586952Y412132D01*
X586120Y412556D01*
X584619Y413647D01*
X583307Y414959D01*
X582216Y416460D01*
X581373Y418114D01*
X580800Y419879D01*
X580604Y421117D01*
X591538Y421117D01*
X591558Y421120D01*
X591577Y421118D01*
X591679Y421140D01*
X591781Y421157D01*
X591798Y421166D01*
X591818Y421170D01*
X591907Y421223D01*
X591998Y421272D01*
X592012Y421286D01*
X592029Y421296D01*
X592096Y421375D01*
X592167Y421450D01*
X592176Y421468D01*
X592189Y421483D01*
X592227Y421579D01*
X592271Y421673D01*
X592273Y421693D01*
X592281Y421711D01*
X592299Y421878D01*
X592299Y423402D01*
X592296Y423422D01*
X592298Y423441D01*
X592276Y423543D01*
X592259Y423645D01*
X592250Y423662D01*
X592246Y423682D01*
X592193Y423771D01*
X592144Y423862D01*
X592130Y423876D01*
X592120Y423893D01*
X592041Y423960D01*
X591966Y424031D01*
X591948Y424040D01*
X591933Y424053D01*
X591837Y424092D01*
X591743Y424135D01*
X591723Y424137D01*
X591705Y424145D01*
X591538Y424163D01*
X581058Y424163D01*
X580968Y424148D01*
X580877Y424141D01*
X580847Y424129D01*
X580815Y424123D01*
X580735Y424081D01*
X580651Y424045D01*
X580619Y424019D01*
X580598Y424008D01*
X580576Y423985D01*
X580520Y423940D01*
X546233Y389653D01*
X491750Y389653D01*
X491159Y390244D01*
X491085Y390297D01*
X491015Y390357D01*
X490985Y390369D01*
X490959Y390388D01*
X490872Y390415D01*
X490787Y390449D01*
X490746Y390453D01*
X490724Y390460D01*
X490692Y390459D01*
X490620Y390467D01*
X258632Y390467D01*
X258542Y390453D01*
X258451Y390445D01*
X258421Y390433D01*
X258389Y390428D01*
X258309Y390385D01*
X258225Y390349D01*
X258193Y390323D01*
X258172Y390312D01*
X258150Y390289D01*
X258094Y390244D01*
X256567Y388717D01*
X253433Y388717D01*
X251217Y390933D01*
X251217Y394067D01*
X253433Y396283D01*
X256567Y396283D01*
X258094Y394756D01*
X258168Y394703D01*
X258237Y394643D01*
X258267Y394631D01*
X258294Y394612D01*
X258381Y394585D01*
X258465Y394551D01*
X258506Y394547D01*
X258529Y394540D01*
X258561Y394541D01*
X258632Y394533D01*
X492620Y394533D01*
X493211Y393942D01*
X493285Y393889D01*
X493354Y393829D01*
X493384Y393817D01*
X493411Y393798D01*
X493497Y393771D01*
X493582Y393737D01*
X493623Y393733D01*
X493646Y393726D01*
X493678Y393727D01*
X493749Y393719D01*
X544233Y393719D01*
X544324Y393733D01*
X544414Y393741D01*
X544444Y393753D01*
X544476Y393758D01*
X544557Y393801D01*
X544641Y393837D01*
X544673Y393863D01*
X544694Y393874D01*
X544716Y393897D01*
X544772Y393942D01*
X588088Y437258D01*
X588115Y437295D01*
X588149Y437326D01*
X588186Y437395D01*
X588231Y437458D01*
X588245Y437501D01*
X588267Y437542D01*
X588281Y437618D01*
X588304Y437693D01*
X588303Y437739D01*
X588311Y437784D01*
X588299Y437861D01*
X588297Y437939D01*
X588282Y437982D01*
X588275Y438027D01*
X588240Y438096D01*
X588213Y438170D01*
X588184Y438205D01*
X588164Y438246D01*
X588108Y438301D01*
X588059Y438362D01*
X588021Y438386D01*
X587988Y438419D01*
X587868Y438485D01*
X587852Y438495D01*
X587848Y438496D01*
X587841Y438499D01*
X586340Y439121D01*
X583381Y442080D01*
X581779Y445947D01*
X581779Y450133D01*
X583381Y454000D01*
X586340Y456959D01*
X590207Y458561D01*
X594393Y458561D01*
X598260Y456959D01*
X601219Y454000D01*
X602821Y450133D01*
X602821Y447318D01*
X602823Y447304D01*
X602822Y447293D01*
X602832Y447244D01*
X602834Y447176D01*
X602852Y447127D01*
X602860Y447075D01*
X602894Y447012D01*
X602919Y446945D01*
X602951Y446904D01*
X602976Y446858D01*
X603027Y446809D01*
X603072Y446753D01*
X603116Y446724D01*
X603154Y446689D01*
X603219Y446658D01*
X603279Y446620D01*
X603330Y446607D01*
X603377Y446585D01*
X603448Y446577D01*
X603518Y446560D01*
X603570Y446564D01*
X603621Y446558D01*
X603692Y446573D01*
X603763Y446579D01*
X603811Y446599D01*
X603862Y446610D01*
X603923Y446647D01*
X603989Y446675D01*
X604045Y446720D01*
X604047Y446721D01*
X604056Y446726D01*
X604057Y446727D01*
X604073Y446736D01*
X604088Y446754D01*
X604120Y446780D01*
X629562Y472222D01*
X629615Y472296D01*
X629675Y472365D01*
X629687Y472395D01*
X629706Y472422D01*
X629733Y472509D01*
X629767Y472593D01*
X629771Y472634D01*
X629778Y472657D01*
X629777Y472689D01*
X629785Y472760D01*
X629785Y488865D01*
X637585Y496665D01*
X653225Y496665D01*
X653315Y496680D01*
X653406Y496687D01*
X653435Y496699D01*
X653467Y496705D01*
X653548Y496747D01*
X653632Y496783D01*
X653664Y496809D01*
X653685Y496820D01*
X653707Y496843D01*
X653763Y496888D01*
X659246Y502371D01*
X659289Y502430D01*
X659331Y502475D01*
X659348Y502511D01*
X659384Y502560D01*
X659386Y502566D01*
X659390Y502571D01*
X659417Y502660D01*
X659435Y502698D01*
X659438Y502725D01*
X659460Y502793D01*
X659460Y502800D01*
X659462Y502806D01*
X659459Y502916D01*
X659462Y502943D01*
X659459Y502959D01*
X659458Y503039D01*
X659456Y503047D01*
X659456Y503052D01*
X659449Y503069D01*
X659411Y503201D01*
X657979Y506657D01*
X657979Y510843D01*
X659581Y514710D01*
X662540Y517669D01*
X666407Y519271D01*
X670593Y519271D01*
X674460Y517669D01*
X677419Y514710D01*
X679021Y510843D01*
X679021Y506657D01*
X677419Y502791D01*
X674460Y499831D01*
X670593Y498229D01*
X666407Y498229D01*
X662950Y499661D01*
X662837Y499688D01*
X662723Y499716D01*
X662717Y499716D01*
X662711Y499717D01*
X662594Y499706D01*
X662478Y499697D01*
X662472Y499695D01*
X662466Y499694D01*
X662359Y499646D01*
X662252Y499601D01*
X662246Y499596D01*
X662241Y499594D01*
X662228Y499582D01*
X662121Y499496D01*
X655224Y492599D01*
X650567Y492599D01*
X650496Y492588D01*
X650425Y492586D01*
X650376Y492568D01*
X650324Y492560D01*
X650261Y492526D01*
X650194Y492501D01*
X650153Y492469D01*
X650107Y492445D01*
X650058Y492393D01*
X650002Y492348D01*
X649973Y492304D01*
X649938Y492266D01*
X649907Y492201D01*
X649869Y492141D01*
X649856Y492090D01*
X649834Y492043D01*
X649826Y491972D01*
X649809Y491902D01*
X649813Y491850D01*
X649807Y491799D01*
X649822Y491728D01*
X649828Y491657D01*
X649848Y491609D01*
X649859Y491558D01*
X649896Y491497D01*
X649924Y491431D01*
X649969Y491375D01*
X649985Y491347D01*
X650003Y491332D01*
X650029Y491300D01*
X652019Y489310D01*
X653621Y485443D01*
X653621Y481257D01*
X652019Y477391D01*
X649060Y474431D01*
X645193Y472829D01*
X641007Y472829D01*
X637140Y474431D01*
X635150Y476421D01*
X635092Y476463D01*
X635040Y476512D01*
X634993Y476534D01*
X634951Y476565D01*
X634882Y476586D01*
X634817Y476616D01*
X634765Y476622D01*
X634715Y476637D01*
X634644Y476635D01*
X634573Y476643D01*
X634522Y476632D01*
X634470Y476631D01*
X634402Y476606D01*
X634332Y476591D01*
X634287Y476564D01*
X634239Y476546D01*
X634183Y476501D01*
X634121Y476465D01*
X634087Y476425D01*
X634047Y476393D01*
X634008Y476332D01*
X633961Y476278D01*
X633942Y476229D01*
X633914Y476186D01*
X633896Y476116D01*
X633869Y476050D01*
X633861Y475978D01*
X633853Y475947D01*
X633855Y475924D01*
X633851Y475883D01*
X633851Y470761D01*
X632437Y469347D01*
X599229Y436139D01*
X597815Y434725D01*
X597723Y434725D01*
X597657Y434714D01*
X597589Y434713D01*
X597536Y434695D01*
X597481Y434686D01*
X597421Y434654D01*
X597357Y434631D01*
X597313Y434597D01*
X597263Y434570D01*
X597217Y434521D01*
X597163Y434480D01*
X597133Y434433D01*
X597094Y434392D01*
X597065Y434331D01*
X597028Y434274D01*
X597014Y434220D01*
X596990Y434169D01*
X596983Y434102D01*
X596966Y434036D01*
X596969Y433980D01*
X596963Y433925D01*
X596978Y433858D01*
X596982Y433791D01*
X597004Y433739D01*
X597015Y433684D01*
X597050Y433626D01*
X597076Y433563D01*
X597113Y433521D01*
X597142Y433473D01*
X597193Y433429D01*
X597238Y433378D01*
X597303Y433335D01*
X597329Y433313D01*
X597348Y433305D01*
X597378Y433286D01*
X598480Y432724D01*
X599981Y431633D01*
X601293Y430321D01*
X602384Y428820D01*
X603227Y427166D01*
X603800Y425401D01*
X603996Y424163D01*
X593062Y424163D01*
X593042Y424160D01*
X593023Y424162D01*
X592921Y424140D01*
X592819Y424123D01*
X592802Y424114D01*
X592782Y424110D01*
X592693Y424057D01*
X592602Y424008D01*
X592588Y423994D01*
X592571Y423984D01*
X592504Y423905D01*
X592433Y423830D01*
X592424Y423812D01*
X592411Y423797D01*
X592373Y423701D01*
X592329Y423607D01*
X592327Y423587D01*
X592319Y423569D01*
X592301Y423402D01*
X592301Y421878D01*
X592304Y421858D01*
X592302Y421839D01*
X592324Y421737D01*
X592341Y421635D01*
X592350Y421618D01*
X592354Y421598D01*
X592407Y421509D01*
X592456Y421418D01*
X592470Y421404D01*
X592480Y421387D01*
X592559Y421320D01*
X592634Y421249D01*
X592652Y421240D01*
X592667Y421227D01*
X592763Y421188D01*
X592857Y421145D01*
X592877Y421143D01*
X592895Y421135D01*
X593062Y421117D01*
X603542Y421117D01*
X603632Y421132D01*
X603723Y421139D01*
X603753Y421151D01*
X603785Y421157D01*
X603865Y421199D01*
X603949Y421235D01*
X603981Y421261D01*
X604002Y421272D01*
X604024Y421295D01*
X604080Y421340D01*
X629562Y446822D01*
X629609Y446886D01*
X629625Y446904D01*
X629629Y446912D01*
X629675Y446965D01*
X629687Y446995D01*
X629706Y447022D01*
X629733Y447109D01*
X629767Y447193D01*
X629771Y447234D01*
X629778Y447257D01*
X629777Y447289D01*
X629785Y447360D01*
X629785Y463465D01*
X637585Y471265D01*
X653225Y471265D01*
X653315Y471280D01*
X653406Y471287D01*
X653435Y471299D01*
X653467Y471305D01*
X653548Y471347D01*
X653632Y471383D01*
X653664Y471409D01*
X653685Y471420D01*
X653707Y471443D01*
X653763Y471488D01*
X659246Y476971D01*
X659314Y477065D01*
X659384Y477160D01*
X659386Y477166D01*
X659390Y477171D01*
X659424Y477281D01*
X659460Y477393D01*
X659460Y477400D01*
X659462Y477406D01*
X659459Y477523D01*
X659458Y477639D01*
X659456Y477647D01*
X659456Y477652D01*
X659449Y477669D01*
X659411Y477801D01*
X657979Y481257D01*
X657979Y485443D01*
X659581Y489310D01*
X662540Y492269D01*
X666407Y493871D01*
X670593Y493871D01*
X674460Y492269D01*
X677419Y489310D01*
X679021Y485443D01*
X679021Y481257D01*
X677419Y477391D01*
X674460Y474431D01*
X670593Y472829D01*
X666407Y472829D01*
X662950Y474261D01*
X662837Y474288D01*
X662723Y474316D01*
X662717Y474316D01*
X662711Y474317D01*
X662594Y474306D01*
X662478Y474297D01*
X662472Y474295D01*
X662466Y474294D01*
X662359Y474246D01*
X662252Y474201D01*
X662246Y474196D01*
X662241Y474194D01*
X662228Y474182D01*
X662121Y474096D01*
X655224Y467199D01*
X650567Y467199D01*
X650496Y467188D01*
X650425Y467186D01*
X650376Y467168D01*
X650324Y467160D01*
X650261Y467126D01*
X650194Y467101D01*
X650153Y467069D01*
X650107Y467045D01*
X650058Y466993D01*
X650002Y466948D01*
X649973Y466904D01*
X649938Y466866D01*
X649907Y466801D01*
X649869Y466741D01*
X649856Y466690D01*
X649834Y466643D01*
X649826Y466572D01*
X649809Y466502D01*
X649813Y466450D01*
X649807Y466399D01*
X649822Y466328D01*
X649828Y466257D01*
X649848Y466209D01*
X649859Y466158D01*
X649896Y466097D01*
X649924Y466031D01*
X649969Y465975D01*
X649985Y465947D01*
X650003Y465932D01*
X650029Y465900D01*
X652019Y463910D01*
X653621Y460043D01*
X653621Y455857D01*
X652019Y451991D01*
X649060Y449031D01*
X645193Y447429D01*
X641007Y447429D01*
X637140Y449031D01*
X635150Y451021D01*
X635092Y451063D01*
X635040Y451112D01*
X634993Y451134D01*
X634951Y451165D01*
X634882Y451186D01*
X634817Y451216D01*
X634765Y451222D01*
X634715Y451237D01*
X634644Y451235D01*
X634573Y451243D01*
X634522Y451232D01*
X634470Y451231D01*
X634402Y451206D01*
X634332Y451191D01*
X634287Y451164D01*
X634239Y451146D01*
X634183Y451101D01*
X634121Y451065D01*
X634087Y451025D01*
X634047Y450993D01*
X634008Y450932D01*
X633961Y450878D01*
X633942Y450829D01*
X633914Y450786D01*
X633896Y450716D01*
X633869Y450650D01*
X633861Y450578D01*
X633853Y450547D01*
X633855Y450524D01*
X633851Y450483D01*
X633851Y445361D01*
X597815Y409325D01*
X591620Y409325D01*
X591530Y409311D01*
X591439Y409304D01*
X591409Y409291D01*
X591377Y409286D01*
X591297Y409243D01*
X591213Y409207D01*
X591181Y409181D01*
X591160Y409170D01*
X591138Y409147D01*
X591082Y409103D01*
X591040Y409060D01*
X590998Y409002D01*
X590949Y408950D01*
X590927Y408903D01*
X590896Y408861D01*
X590875Y408792D01*
X590845Y408727D01*
X590839Y408675D01*
X590824Y408626D01*
X590826Y408554D01*
X590818Y408483D01*
X590829Y408432D01*
X590830Y408380D01*
X590855Y408312D01*
X590870Y408242D01*
X590897Y408198D01*
X590915Y408149D01*
X590959Y408093D01*
X590996Y408031D01*
X591036Y407997D01*
X591068Y407957D01*
X591129Y407918D01*
X591183Y407871D01*
X591231Y407852D01*
X591275Y407824D01*
X591345Y407806D01*
X591411Y407779D01*
X591483Y407771D01*
X591514Y407763D01*
X591537Y407765D01*
X591578Y407761D01*
X594393Y407761D01*
X598260Y406159D01*
X601219Y403200D01*
X602821Y399333D01*
X602821Y395147D01*
X601219Y391280D01*
X598260Y388321D01*
X594393Y386719D01*
X590207Y386719D01*
X586340Y388321D01*
X583381Y391280D01*
X581779Y395147D01*
X581779Y396344D01*
X581777Y396358D01*
X581778Y396368D01*
X581768Y396416D01*
X581766Y396487D01*
X581748Y396536D01*
X581740Y396587D01*
X581706Y396650D01*
X581681Y396718D01*
X581649Y396759D01*
X581624Y396805D01*
X581573Y396854D01*
X581528Y396910D01*
X581484Y396938D01*
X581446Y396974D01*
X581381Y397004D01*
X581321Y397043D01*
X581270Y397056D01*
X581223Y397078D01*
X581152Y397086D01*
X581082Y397103D01*
X581030Y397099D01*
X580979Y397105D01*
X580908Y397089D01*
X580837Y397084D01*
X580789Y397064D01*
X580738Y397052D01*
X580677Y397016D01*
X580611Y396988D01*
X580555Y396943D01*
X580527Y396926D01*
X580512Y396908D01*
X580480Y396883D01*
X571179Y387582D01*
X571137Y387524D01*
X571088Y387472D01*
X571066Y387425D01*
X571036Y387383D01*
X571015Y387314D01*
X570984Y387249D01*
X570979Y387197D01*
X570963Y387147D01*
X570965Y387076D01*
X570957Y387005D01*
X570968Y386954D01*
X570970Y386902D01*
X570994Y386834D01*
X571010Y386764D01*
X571036Y386720D01*
X571054Y386671D01*
X571099Y386615D01*
X571136Y386553D01*
X571175Y386519D01*
X571208Y386479D01*
X571268Y386440D01*
X571323Y386393D01*
X571371Y386374D01*
X571415Y386346D01*
X571484Y386328D01*
X571551Y386301D01*
X571622Y386293D01*
X571653Y386285D01*
X571677Y386287D01*
X571718Y386283D01*
X574067Y386283D01*
X574972Y385378D01*
X575046Y385325D01*
X575115Y385265D01*
X575145Y385253D01*
X575172Y385234D01*
X575259Y385207D01*
X575343Y385173D01*
X575384Y385169D01*
X575407Y385162D01*
X575439Y385163D01*
X575510Y385155D01*
X601215Y385155D01*
X631280Y355090D01*
X631338Y355048D01*
X631390Y354999D01*
X631437Y354977D01*
X631479Y354946D01*
X631548Y354925D01*
X631613Y354895D01*
X631665Y354889D01*
X631715Y354874D01*
X631786Y354876D01*
X631857Y354868D01*
X631908Y354879D01*
X631960Y354880D01*
X632028Y354905D01*
X632098Y354920D01*
X632143Y354947D01*
X632191Y354965D01*
X632247Y355010D01*
X632309Y355046D01*
X632343Y355086D01*
X632383Y355118D01*
X632422Y355179D01*
X632469Y355233D01*
X632488Y355282D01*
X632516Y355325D01*
X632534Y355395D01*
X632561Y355461D01*
X632569Y355533D01*
X632577Y355564D01*
X632575Y355587D01*
X632579Y355628D01*
X632579Y358443D01*
X634181Y362310D01*
X637140Y365269D01*
X641007Y366871D01*
X645193Y366871D01*
X649060Y365269D01*
X652019Y362310D01*
X653621Y358443D01*
X653621Y354257D01*
X652019Y350391D01*
X649040Y347411D01*
X649028Y347395D01*
X649013Y347383D01*
X648957Y347296D01*
X648896Y347212D01*
X648891Y347193D01*
X648880Y347176D01*
X648854Y347075D01*
X648824Y346977D01*
X648825Y346957D01*
X648820Y346937D01*
X648828Y346834D01*
X648830Y346731D01*
X648837Y346712D01*
X648839Y346692D01*
X648879Y346597D01*
X648915Y346500D01*
X648927Y346484D01*
X648935Y346466D01*
X649021Y346358D01*
X649023Y346356D01*
X649024Y346355D01*
X649040Y346335D01*
X658485Y336890D01*
X658501Y336878D01*
X658513Y336863D01*
X658601Y336807D01*
X658685Y336746D01*
X658703Y336741D01*
X658720Y336730D01*
X658821Y336704D01*
X658920Y336674D01*
X658940Y336675D01*
X658959Y336670D01*
X659062Y336678D01*
X659165Y336680D01*
X659184Y336687D01*
X659204Y336689D01*
X659299Y336729D01*
X659396Y336765D01*
X659412Y336777D01*
X659430Y336785D01*
X659561Y336890D01*
X662540Y339869D01*
X666407Y341471D01*
X670593Y341471D01*
X674460Y339869D01*
X677419Y336910D01*
X679021Y333043D01*
X679021Y328857D01*
X677419Y324991D01*
X674460Y322031D01*
X670593Y320429D01*
X666407Y320429D01*
X662540Y322031D01*
X659581Y324991D01*
X657979Y328857D01*
X657979Y331331D01*
X657965Y331421D01*
X657957Y331512D01*
X657945Y331541D01*
X657940Y331573D01*
X657897Y331654D01*
X657861Y331738D01*
X657835Y331770D01*
X657824Y331791D01*
X657801Y331813D01*
X657756Y331869D01*
X654233Y335393D01*
X654154Y335449D01*
X654078Y335512D01*
X654054Y335521D01*
X654033Y335536D01*
X653940Y335565D01*
X653849Y335600D01*
X653823Y335601D01*
X653798Y335609D01*
X653700Y335606D01*
X653603Y335610D01*
X653578Y335603D01*
X653552Y335602D01*
X653460Y335569D01*
X653367Y335542D01*
X653346Y335527D01*
X653321Y335518D01*
X653245Y335457D01*
X653165Y335401D01*
X653149Y335380D01*
X653129Y335364D01*
X653076Y335282D01*
X653018Y335204D01*
X653010Y335179D01*
X652996Y335157D01*
X652972Y335063D01*
X652942Y334970D01*
X652942Y334944D01*
X652936Y334919D01*
X652943Y334822D01*
X652944Y334724D01*
X652953Y334693D01*
X652955Y334673D01*
X652968Y334643D01*
X652991Y334563D01*
X653621Y333043D01*
X653621Y328857D01*
X652019Y324991D01*
X649060Y322031D01*
X645193Y320429D01*
X641007Y320429D01*
X637140Y322031D01*
X634181Y324991D01*
X632579Y328857D01*
X632579Y333043D01*
X634181Y336910D01*
X637140Y339869D01*
X641007Y341471D01*
X645193Y341471D01*
X646713Y340841D01*
X646808Y340819D01*
X646901Y340790D01*
X646927Y340791D01*
X646953Y340785D01*
X647049Y340794D01*
X647147Y340797D01*
X647171Y340806D01*
X647197Y340808D01*
X647286Y340848D01*
X647378Y340881D01*
X647398Y340897D01*
X647422Y340908D01*
X647494Y340974D01*
X647570Y341035D01*
X647584Y341057D01*
X647603Y341074D01*
X647650Y341160D01*
X647703Y341242D01*
X647709Y341267D01*
X647722Y341290D01*
X647739Y341386D01*
X647763Y341480D01*
X647761Y341506D01*
X647766Y341532D01*
X647751Y341628D01*
X647744Y341725D01*
X647734Y341749D01*
X647730Y341775D01*
X647686Y341862D01*
X647647Y341952D01*
X647627Y341977D01*
X647618Y341995D01*
X647595Y342018D01*
X647543Y342083D01*
X646813Y342812D01*
X646739Y342866D01*
X646669Y342925D01*
X646639Y342937D01*
X646613Y342956D01*
X646526Y342983D01*
X646441Y343017D01*
X646400Y343021D01*
X646378Y343028D01*
X646346Y343027D01*
X646275Y343035D01*
X637585Y343035D01*
X602793Y377827D01*
X602714Y377884D01*
X602639Y377946D01*
X602614Y377956D01*
X602593Y377971D01*
X602500Y378000D01*
X602409Y378035D01*
X602383Y378036D01*
X602358Y378043D01*
X602261Y378041D01*
X602163Y378045D01*
X602138Y378038D01*
X602112Y378037D01*
X602020Y378004D01*
X601927Y377976D01*
X601906Y377962D01*
X601881Y377953D01*
X601805Y377892D01*
X601725Y377836D01*
X601709Y377815D01*
X601689Y377799D01*
X601636Y377717D01*
X601578Y377639D01*
X601570Y377614D01*
X601556Y377592D01*
X601532Y377498D01*
X601502Y377405D01*
X601502Y377379D01*
X601496Y377353D01*
X601503Y377256D01*
X601504Y377159D01*
X601514Y377128D01*
X601515Y377108D01*
X601528Y377078D01*
X601551Y376998D01*
X602821Y373933D01*
X602821Y369747D01*
X601219Y365880D01*
X598260Y362921D01*
X594393Y361319D01*
X590207Y361319D01*
X586340Y362921D01*
X583381Y365880D01*
X581779Y369747D01*
X581779Y373933D01*
X583381Y377800D01*
X585371Y379790D01*
X585413Y379848D01*
X585462Y379900D01*
X585484Y379947D01*
X585515Y379989D01*
X585536Y380058D01*
X585566Y380123D01*
X585572Y380175D01*
X585587Y380225D01*
X585585Y380296D01*
X585593Y380367D01*
X585582Y380418D01*
X585581Y380470D01*
X585556Y380538D01*
X585541Y380608D01*
X585514Y380653D01*
X585496Y380701D01*
X585451Y380757D01*
X585415Y380819D01*
X585375Y380853D01*
X585343Y380893D01*
X585282Y380932D01*
X585228Y380979D01*
X585179Y380998D01*
X585136Y381026D01*
X585066Y381044D01*
X585000Y381071D01*
X584928Y381079D01*
X584897Y381087D01*
X584874Y381085D01*
X584833Y381089D01*
X576754Y381089D01*
X576664Y381075D01*
X576573Y381067D01*
X576543Y381055D01*
X576511Y381050D01*
X576431Y381007D01*
X576347Y380971D01*
X576315Y380945D01*
X576294Y380934D01*
X576272Y380911D01*
X576216Y380866D01*
X574067Y378717D01*
X570933Y378717D01*
X568717Y380933D01*
X568717Y383282D01*
X568706Y383353D01*
X568704Y383425D01*
X568686Y383474D01*
X568678Y383525D01*
X568644Y383589D01*
X568619Y383656D01*
X568587Y383697D01*
X568562Y383743D01*
X568510Y383792D01*
X568466Y383848D01*
X568422Y383876D01*
X568384Y383912D01*
X568319Y383942D01*
X568259Y383981D01*
X568208Y383994D01*
X568161Y384016D01*
X568090Y384024D01*
X568020Y384041D01*
X567968Y384037D01*
X567917Y384043D01*
X567846Y384027D01*
X567775Y384022D01*
X567727Y384002D01*
X567676Y383990D01*
X567615Y383954D01*
X567549Y383926D01*
X567493Y383881D01*
X567465Y383864D01*
X567450Y383846D01*
X567418Y383821D01*
X496564Y312967D01*
X256132Y312967D01*
X256042Y312953D01*
X255951Y312945D01*
X255921Y312933D01*
X255889Y312928D01*
X255809Y312885D01*
X255725Y312849D01*
X255693Y312823D01*
X255672Y312812D01*
X255650Y312789D01*
X255594Y312744D01*
X254067Y311217D01*
X250933Y311217D01*
G37*
%LPD*%
%LPC*%
G36*
X200933Y83717D02*
X200933Y83717D01*
X198717Y85933D01*
X198717Y89067D01*
X200933Y91283D01*
X203093Y91283D01*
X203183Y91297D01*
X203274Y91305D01*
X203303Y91317D01*
X203335Y91322D01*
X203416Y91365D01*
X203500Y91401D01*
X203532Y91427D01*
X203553Y91438D01*
X203575Y91461D01*
X203631Y91506D01*
X209158Y97033D01*
X481943Y97033D01*
X482033Y97047D01*
X482124Y97055D01*
X482153Y97067D01*
X482185Y97072D01*
X482266Y97115D01*
X482350Y97151D01*
X482382Y97177D01*
X482403Y97188D01*
X482425Y97211D01*
X482481Y97256D01*
X583046Y197821D01*
X583114Y197915D01*
X583184Y198010D01*
X583186Y198016D01*
X583190Y198021D01*
X583224Y198131D01*
X583260Y198243D01*
X583260Y198250D01*
X583262Y198256D01*
X583259Y198372D01*
X583258Y198489D01*
X583256Y198497D01*
X583256Y198502D01*
X583249Y198519D01*
X583211Y198650D01*
X581779Y202107D01*
X581779Y206293D01*
X583381Y210160D01*
X586340Y213119D01*
X590207Y214721D01*
X594393Y214721D01*
X598260Y213119D01*
X601219Y210160D01*
X602821Y206293D01*
X602821Y202107D01*
X601219Y198240D01*
X598260Y195281D01*
X594393Y193679D01*
X590207Y193679D01*
X586750Y195111D01*
X586637Y195138D01*
X586523Y195166D01*
X586517Y195166D01*
X586511Y195167D01*
X586394Y195156D01*
X586278Y195147D01*
X586272Y195145D01*
X586266Y195144D01*
X586159Y195096D01*
X586052Y195051D01*
X586046Y195046D01*
X586041Y195044D01*
X586028Y195032D01*
X585921Y194946D01*
X483942Y92967D01*
X211157Y92967D01*
X211067Y92953D01*
X210976Y92945D01*
X210947Y92933D01*
X210915Y92928D01*
X210834Y92885D01*
X210750Y92849D01*
X210718Y92823D01*
X210697Y92812D01*
X210675Y92789D01*
X210619Y92744D01*
X206506Y88631D01*
X206453Y88557D01*
X206393Y88488D01*
X206381Y88457D01*
X206362Y88431D01*
X206335Y88344D01*
X206301Y88259D01*
X206297Y88218D01*
X206290Y88196D01*
X206291Y88164D01*
X206283Y88093D01*
X206283Y85933D01*
X204067Y83717D01*
X200933Y83717D01*
G37*
%LPD*%
%LPC*%
G36*
X160933Y116217D02*
X160933Y116217D01*
X158717Y118433D01*
X158717Y121567D01*
X160244Y123094D01*
X160297Y123168D01*
X160357Y123237D01*
X160369Y123267D01*
X160388Y123294D01*
X160415Y123381D01*
X160449Y123465D01*
X160453Y123506D01*
X160460Y123529D01*
X160459Y123561D01*
X160467Y123632D01*
X160467Y240620D01*
X160453Y240711D01*
X160445Y240801D01*
X160433Y240831D01*
X160428Y240863D01*
X160385Y240944D01*
X160349Y241028D01*
X160323Y241060D01*
X160312Y241081D01*
X160289Y241103D01*
X160244Y241159D01*
X157153Y244250D01*
X157153Y250750D01*
X157744Y251341D01*
X157797Y251415D01*
X157857Y251485D01*
X157869Y251515D01*
X157888Y251541D01*
X157915Y251628D01*
X157949Y251713D01*
X157953Y251754D01*
X157960Y251776D01*
X157959Y251808D01*
X157967Y251880D01*
X157967Y263868D01*
X157962Y263899D01*
X157963Y263910D01*
X157952Y263961D01*
X157945Y264049D01*
X157933Y264079D01*
X157928Y264111D01*
X157914Y264136D01*
X157911Y264151D01*
X157880Y264202D01*
X157849Y264275D01*
X157823Y264307D01*
X157812Y264328D01*
X157795Y264344D01*
X157785Y264362D01*
X157769Y264375D01*
X157744Y264406D01*
X156217Y265933D01*
X156217Y269067D01*
X158433Y271283D01*
X161567Y271283D01*
X163783Y269067D01*
X163783Y265933D01*
X162256Y264406D01*
X162213Y264347D01*
X162167Y264299D01*
X162160Y264282D01*
X162143Y264263D01*
X162131Y264233D01*
X162112Y264206D01*
X162088Y264128D01*
X162064Y264076D01*
X162062Y264062D01*
X162051Y264035D01*
X162047Y263994D01*
X162040Y263971D01*
X162041Y263939D01*
X162033Y263868D01*
X162033Y249880D01*
X161442Y249289D01*
X161389Y249215D01*
X161329Y249146D01*
X161317Y249116D01*
X161298Y249089D01*
X161271Y249003D01*
X161237Y248918D01*
X161233Y248877D01*
X161226Y248854D01*
X161227Y248822D01*
X161219Y248751D01*
X161219Y246249D01*
X161233Y246159D01*
X161241Y246068D01*
X161253Y246038D01*
X161258Y246006D01*
X161301Y245926D01*
X161337Y245842D01*
X161363Y245810D01*
X161374Y245789D01*
X161397Y245767D01*
X161442Y245711D01*
X164533Y242620D01*
X164533Y123632D01*
X164547Y123542D01*
X164555Y123451D01*
X164567Y123421D01*
X164572Y123389D01*
X164615Y123309D01*
X164651Y123225D01*
X164677Y123193D01*
X164688Y123172D01*
X164711Y123150D01*
X164756Y123094D01*
X165594Y122256D01*
X165668Y122203D01*
X165737Y122143D01*
X165767Y122131D01*
X165794Y122112D01*
X165881Y122085D01*
X165965Y122051D01*
X166006Y122047D01*
X166029Y122040D01*
X166061Y122041D01*
X166132Y122033D01*
X271368Y122033D01*
X271458Y122047D01*
X271549Y122055D01*
X271579Y122067D01*
X271611Y122072D01*
X271691Y122115D01*
X271775Y122151D01*
X271807Y122177D01*
X271828Y122188D01*
X271850Y122211D01*
X271906Y122256D01*
X273433Y123783D01*
X276567Y123783D01*
X278094Y122256D01*
X278168Y122203D01*
X278237Y122143D01*
X278267Y122131D01*
X278294Y122112D01*
X278381Y122085D01*
X278465Y122051D01*
X278506Y122047D01*
X278529Y122040D01*
X278561Y122041D01*
X278632Y122033D01*
X418868Y122033D01*
X418958Y122047D01*
X419049Y122055D01*
X419079Y122067D01*
X419111Y122072D01*
X419191Y122115D01*
X419275Y122151D01*
X419307Y122177D01*
X419328Y122188D01*
X419350Y122211D01*
X419406Y122256D01*
X420933Y123783D01*
X424067Y123783D01*
X426283Y121567D01*
X426283Y118433D01*
X424067Y116217D01*
X420933Y116217D01*
X419406Y117744D01*
X419332Y117797D01*
X419263Y117857D01*
X419233Y117869D01*
X419206Y117888D01*
X419119Y117915D01*
X419035Y117949D01*
X418994Y117953D01*
X418971Y117960D01*
X418939Y117959D01*
X418868Y117967D01*
X278632Y117967D01*
X278542Y117953D01*
X278451Y117945D01*
X278421Y117933D01*
X278389Y117928D01*
X278309Y117885D01*
X278225Y117849D01*
X278193Y117823D01*
X278172Y117812D01*
X278150Y117789D01*
X278094Y117744D01*
X276567Y116217D01*
X273433Y116217D01*
X271906Y117744D01*
X271832Y117797D01*
X271763Y117857D01*
X271733Y117869D01*
X271706Y117888D01*
X271619Y117915D01*
X271535Y117949D01*
X271494Y117953D01*
X271471Y117960D01*
X271439Y117959D01*
X271368Y117967D01*
X166132Y117967D01*
X166042Y117953D01*
X165951Y117945D01*
X165921Y117933D01*
X165889Y117928D01*
X165809Y117885D01*
X165725Y117849D01*
X165693Y117823D01*
X165672Y117812D01*
X165650Y117789D01*
X165594Y117744D01*
X164067Y116217D01*
X160933Y116217D01*
G37*
%LPD*%
%LPC*%
G36*
X370933Y131217D02*
X370933Y131217D01*
X368717Y133433D01*
X368717Y136567D01*
X370933Y138783D01*
X373093Y138783D01*
X373183Y138797D01*
X373274Y138805D01*
X373303Y138817D01*
X373335Y138822D01*
X373416Y138865D01*
X373500Y138901D01*
X373532Y138927D01*
X373553Y138938D01*
X373575Y138961D01*
X373631Y139006D01*
X415244Y180619D01*
X415297Y180693D01*
X415357Y180762D01*
X415369Y180793D01*
X415388Y180819D01*
X415415Y180906D01*
X415449Y180991D01*
X415453Y181032D01*
X415460Y181054D01*
X415459Y181086D01*
X415467Y181157D01*
X415467Y228342D01*
X418758Y231633D01*
X581246Y231633D01*
X581361Y231652D01*
X581477Y231669D01*
X581482Y231671D01*
X581489Y231672D01*
X581591Y231727D01*
X581696Y231780D01*
X581700Y231785D01*
X581706Y231788D01*
X581786Y231872D01*
X581868Y231956D01*
X581872Y231962D01*
X581875Y231966D01*
X581883Y231983D01*
X581949Y232103D01*
X583381Y235560D01*
X586340Y238519D01*
X590207Y240121D01*
X594393Y240121D01*
X598260Y238519D01*
X601219Y235560D01*
X602821Y231693D01*
X602821Y227507D01*
X601219Y223640D01*
X598260Y220681D01*
X594393Y219079D01*
X590207Y219079D01*
X586340Y220681D01*
X583381Y223640D01*
X581949Y227097D01*
X581887Y227197D01*
X581828Y227297D01*
X581823Y227301D01*
X581820Y227306D01*
X581729Y227381D01*
X581641Y227457D01*
X581635Y227459D01*
X581630Y227463D01*
X581522Y227505D01*
X581413Y227549D01*
X581405Y227550D01*
X581400Y227551D01*
X581382Y227552D01*
X581246Y227567D01*
X420757Y227567D01*
X420667Y227553D01*
X420576Y227545D01*
X420547Y227533D01*
X420515Y227528D01*
X420434Y227485D01*
X420350Y227449D01*
X420318Y227423D01*
X420297Y227412D01*
X420275Y227389D01*
X420219Y227344D01*
X419756Y226881D01*
X419703Y226807D01*
X419643Y226738D01*
X419631Y226707D01*
X419612Y226681D01*
X419585Y226594D01*
X419551Y226509D01*
X419547Y226468D01*
X419540Y226446D01*
X419541Y226414D01*
X419533Y226343D01*
X419533Y179158D01*
X376506Y136131D01*
X376453Y136057D01*
X376393Y135988D01*
X376381Y135957D01*
X376362Y135931D01*
X376335Y135844D01*
X376301Y135759D01*
X376297Y135718D01*
X376290Y135696D01*
X376291Y135664D01*
X376283Y135593D01*
X376283Y133433D01*
X374067Y131217D01*
X370933Y131217D01*
G37*
%LPD*%
%LPC*%
G36*
X275933Y298717D02*
X275933Y298717D01*
X274406Y300244D01*
X274332Y300297D01*
X274263Y300357D01*
X274233Y300369D01*
X274206Y300388D01*
X274119Y300415D01*
X274035Y300449D01*
X273994Y300453D01*
X273971Y300460D01*
X273939Y300459D01*
X273868Y300467D01*
X211658Y300467D01*
X136131Y375994D01*
X136057Y376047D01*
X135988Y376107D01*
X135957Y376119D01*
X135931Y376138D01*
X135844Y376165D01*
X135759Y376199D01*
X135718Y376203D01*
X135696Y376210D01*
X135664Y376209D01*
X135593Y376217D01*
X133433Y376217D01*
X131217Y378433D01*
X131217Y381567D01*
X133433Y383783D01*
X136567Y383783D01*
X138094Y382256D01*
X138168Y382203D01*
X138237Y382143D01*
X138267Y382131D01*
X138294Y382112D01*
X138381Y382085D01*
X138465Y382051D01*
X138506Y382047D01*
X138529Y382040D01*
X138561Y382041D01*
X138632Y382033D01*
X271368Y382033D01*
X271458Y382047D01*
X271549Y382055D01*
X271579Y382067D01*
X271611Y382072D01*
X271691Y382115D01*
X271775Y382151D01*
X271807Y382177D01*
X271828Y382188D01*
X271850Y382211D01*
X271906Y382256D01*
X273433Y383783D01*
X276567Y383783D01*
X278783Y381567D01*
X278783Y378433D01*
X276567Y376217D01*
X273433Y376217D01*
X271906Y377744D01*
X271832Y377797D01*
X271763Y377857D01*
X271733Y377869D01*
X271706Y377888D01*
X271619Y377915D01*
X271535Y377949D01*
X271494Y377953D01*
X271471Y377960D01*
X271439Y377959D01*
X271368Y377967D01*
X141745Y377967D01*
X141675Y377956D01*
X141603Y377954D01*
X141554Y377936D01*
X141503Y377928D01*
X141439Y377894D01*
X141372Y377869D01*
X141331Y377837D01*
X141285Y377812D01*
X141236Y377760D01*
X141180Y377716D01*
X141152Y377672D01*
X141116Y377634D01*
X141086Y377569D01*
X141047Y377509D01*
X141034Y377458D01*
X141012Y377411D01*
X141004Y377340D01*
X140987Y377270D01*
X140991Y377218D01*
X140985Y377167D01*
X141000Y377096D01*
X141006Y377025D01*
X141026Y376977D01*
X141037Y376926D01*
X141074Y376865D01*
X141102Y376799D01*
X141147Y376743D01*
X141163Y376715D01*
X141181Y376700D01*
X141207Y376668D01*
X213119Y304756D01*
X213193Y304703D01*
X213262Y304643D01*
X213293Y304631D01*
X213319Y304612D01*
X213406Y304585D01*
X213491Y304551D01*
X213532Y304547D01*
X213554Y304540D01*
X213586Y304541D01*
X213657Y304533D01*
X273868Y304533D01*
X273958Y304547D01*
X274049Y304555D01*
X274079Y304567D01*
X274111Y304572D01*
X274191Y304615D01*
X274275Y304651D01*
X274307Y304677D01*
X274328Y304688D01*
X274350Y304711D01*
X274406Y304756D01*
X275933Y306283D01*
X279067Y306283D01*
X281283Y304067D01*
X281283Y300933D01*
X279067Y298717D01*
X275933Y298717D01*
G37*
%LPD*%
%LPC*%
G36*
X107607Y92079D02*
X107607Y92079D01*
X103740Y93681D01*
X100781Y96640D01*
X99179Y100507D01*
X99179Y104693D01*
X100781Y108560D01*
X103740Y111519D01*
X107607Y113121D01*
X111793Y113121D01*
X115660Y111519D01*
X118619Y108560D01*
X120092Y105003D01*
X120154Y104903D01*
X120214Y104803D01*
X120219Y104799D01*
X120222Y104794D01*
X120312Y104719D01*
X120401Y104643D01*
X120407Y104641D01*
X120411Y104637D01*
X120520Y104595D01*
X120629Y104551D01*
X120636Y104550D01*
X120641Y104549D01*
X120659Y104548D01*
X120796Y104533D01*
X308868Y104533D01*
X308958Y104547D01*
X309049Y104555D01*
X309079Y104567D01*
X309111Y104572D01*
X309191Y104615D01*
X309275Y104651D01*
X309307Y104677D01*
X309328Y104688D01*
X309350Y104711D01*
X309406Y104756D01*
X310933Y106283D01*
X314067Y106283D01*
X316283Y104067D01*
X316283Y100933D01*
X314067Y98717D01*
X310933Y98717D01*
X309406Y100244D01*
X309332Y100297D01*
X309263Y100357D01*
X309233Y100369D01*
X309206Y100388D01*
X309119Y100415D01*
X309035Y100449D01*
X308994Y100453D01*
X308971Y100460D01*
X308939Y100459D01*
X308868Y100467D01*
X120713Y100467D01*
X120598Y100448D01*
X120482Y100431D01*
X120476Y100429D01*
X120470Y100428D01*
X120367Y100373D01*
X120263Y100320D01*
X120258Y100315D01*
X120253Y100312D01*
X120173Y100228D01*
X120090Y100144D01*
X120087Y100138D01*
X120083Y100134D01*
X120075Y100117D01*
X120009Y99997D01*
X118619Y96640D01*
X115660Y93681D01*
X111793Y92079D01*
X107607Y92079D01*
G37*
%LPD*%
%LPC*%
G36*
X213433Y453717D02*
X213433Y453717D01*
X211906Y455244D01*
X211832Y455297D01*
X211763Y455357D01*
X211733Y455369D01*
X211706Y455388D01*
X211619Y455415D01*
X211535Y455449D01*
X211494Y455453D01*
X211471Y455460D01*
X211439Y455459D01*
X211368Y455467D01*
X164158Y455467D01*
X112881Y506744D01*
X112807Y506797D01*
X112738Y506857D01*
X112707Y506869D01*
X112681Y506888D01*
X112594Y506915D01*
X112509Y506949D01*
X112468Y506953D01*
X112446Y506960D01*
X112414Y506959D01*
X112343Y506967D01*
X69954Y506967D01*
X69839Y506948D01*
X69723Y506931D01*
X69718Y506929D01*
X69711Y506928D01*
X69609Y506873D01*
X69504Y506820D01*
X69500Y506815D01*
X69494Y506812D01*
X69414Y506728D01*
X69332Y506644D01*
X69328Y506638D01*
X69325Y506634D01*
X69317Y506617D01*
X69251Y506497D01*
X67819Y503040D01*
X64860Y500081D01*
X60993Y498479D01*
X56807Y498479D01*
X52940Y500081D01*
X49981Y503040D01*
X48379Y506907D01*
X48379Y511093D01*
X49981Y514960D01*
X52940Y517919D01*
X56807Y519521D01*
X60993Y519521D01*
X64860Y517919D01*
X67819Y514960D01*
X69251Y511503D01*
X69312Y511403D01*
X69372Y511303D01*
X69377Y511299D01*
X69381Y511294D01*
X69471Y511219D01*
X69559Y511143D01*
X69565Y511141D01*
X69570Y511137D01*
X69678Y511095D01*
X69788Y511051D01*
X69795Y511050D01*
X69800Y511049D01*
X69818Y511048D01*
X69954Y511033D01*
X114342Y511033D01*
X165619Y459756D01*
X165693Y459703D01*
X165762Y459643D01*
X165793Y459631D01*
X165819Y459612D01*
X165906Y459585D01*
X165991Y459551D01*
X166032Y459547D01*
X166054Y459540D01*
X166086Y459541D01*
X166157Y459533D01*
X211368Y459533D01*
X211458Y459547D01*
X211549Y459555D01*
X211579Y459567D01*
X211611Y459572D01*
X211691Y459615D01*
X211775Y459651D01*
X211807Y459677D01*
X211828Y459688D01*
X211850Y459711D01*
X211906Y459756D01*
X213433Y461283D01*
X216567Y461283D01*
X218783Y459067D01*
X218783Y455933D01*
X216567Y453717D01*
X213433Y453717D01*
G37*
%LPD*%
%LPC*%
G36*
X339158Y337967D02*
X339158Y337967D01*
X336131Y340994D01*
X336057Y341047D01*
X335988Y341107D01*
X335957Y341119D01*
X335931Y341138D01*
X335844Y341165D01*
X335759Y341199D01*
X335718Y341203D01*
X335696Y341210D01*
X335664Y341209D01*
X335593Y341217D01*
X333433Y341217D01*
X331217Y343433D01*
X331217Y345593D01*
X331203Y345683D01*
X331195Y345774D01*
X331183Y345803D01*
X331178Y345835D01*
X331135Y345916D01*
X331099Y346000D01*
X331073Y346032D01*
X331062Y346053D01*
X331039Y346075D01*
X330994Y346131D01*
X319381Y357744D01*
X319307Y357797D01*
X319238Y357857D01*
X319207Y357869D01*
X319181Y357888D01*
X319094Y357915D01*
X319009Y357949D01*
X318968Y357953D01*
X318946Y357960D01*
X318914Y357959D01*
X318843Y357967D01*
X223632Y357967D01*
X223542Y357953D01*
X223451Y357945D01*
X223421Y357933D01*
X223389Y357928D01*
X223309Y357885D01*
X223225Y357849D01*
X223193Y357823D01*
X223172Y357812D01*
X223150Y357789D01*
X223094Y357744D01*
X221567Y356217D01*
X218433Y356217D01*
X216217Y358433D01*
X216217Y361567D01*
X218433Y363783D01*
X221567Y363783D01*
X223094Y362256D01*
X223168Y362203D01*
X223237Y362143D01*
X223267Y362131D01*
X223294Y362112D01*
X223381Y362085D01*
X223465Y362051D01*
X223506Y362047D01*
X223529Y362040D01*
X223561Y362041D01*
X223632Y362033D01*
X320842Y362033D01*
X333869Y349006D01*
X333943Y348953D01*
X334012Y348893D01*
X334043Y348881D01*
X334069Y348862D01*
X334156Y348835D01*
X334241Y348801D01*
X334282Y348797D01*
X334304Y348790D01*
X334336Y348791D01*
X334407Y348783D01*
X336567Y348783D01*
X338783Y346567D01*
X338783Y344407D01*
X338797Y344317D01*
X338805Y344226D01*
X338817Y344197D01*
X338822Y344165D01*
X338865Y344084D01*
X338901Y344000D01*
X338927Y343968D01*
X338938Y343947D01*
X338961Y343925D01*
X339006Y343869D01*
X340619Y342256D01*
X340693Y342203D01*
X340762Y342143D01*
X340793Y342131D01*
X340819Y342112D01*
X340906Y342085D01*
X340991Y342051D01*
X341032Y342047D01*
X341054Y342040D01*
X341086Y342041D01*
X341157Y342033D01*
X398843Y342033D01*
X398933Y342047D01*
X399024Y342055D01*
X399053Y342067D01*
X399085Y342072D01*
X399166Y342115D01*
X399250Y342151D01*
X399282Y342177D01*
X399303Y342188D01*
X399325Y342211D01*
X399381Y342256D01*
X425994Y368869D01*
X426047Y368943D01*
X426107Y369012D01*
X426119Y369043D01*
X426138Y369069D01*
X426165Y369156D01*
X426199Y369241D01*
X426203Y369282D01*
X426210Y369304D01*
X426209Y369336D01*
X426217Y369407D01*
X426217Y371567D01*
X428433Y373783D01*
X431567Y373783D01*
X433783Y371567D01*
X433783Y368433D01*
X431567Y366217D01*
X429407Y366217D01*
X429317Y366203D01*
X429226Y366195D01*
X429197Y366183D01*
X429165Y366178D01*
X429084Y366135D01*
X429000Y366099D01*
X428968Y366073D01*
X428947Y366062D01*
X428925Y366039D01*
X428869Y365994D01*
X400842Y337967D01*
X339158Y337967D01*
G37*
%LPD*%
%LPC*%
G36*
X106144Y529224D02*
X106144Y529224D01*
X99574Y531946D01*
X94546Y536974D01*
X91824Y543544D01*
X91824Y550656D01*
X94546Y557226D01*
X99574Y562254D01*
X106144Y564976D01*
X113256Y564976D01*
X119826Y562254D01*
X124854Y557226D01*
X127576Y550656D01*
X127576Y543544D01*
X124854Y536974D01*
X119826Y531946D01*
X113256Y529224D01*
X106144Y529224D01*
G37*
%LPD*%
%LPC*%
G36*
X588744Y516524D02*
X588744Y516524D01*
X582174Y519246D01*
X577146Y524274D01*
X574424Y530844D01*
X574424Y537956D01*
X577146Y544526D01*
X582174Y549554D01*
X588744Y552276D01*
X595856Y552276D01*
X602426Y549554D01*
X607454Y544526D01*
X610176Y537956D01*
X610176Y530844D01*
X607454Y524274D01*
X602426Y519246D01*
X595856Y516524D01*
X588744Y516524D01*
G37*
%LPD*%
%LPC*%
G36*
X436344Y8524D02*
X436344Y8524D01*
X429774Y11246D01*
X424746Y16274D01*
X422024Y22844D01*
X422024Y29956D01*
X424746Y36526D01*
X429774Y41554D01*
X436344Y44276D01*
X443456Y44276D01*
X450026Y41554D01*
X455054Y36526D01*
X457776Y29956D01*
X457776Y22844D01*
X455054Y16274D01*
X450026Y11246D01*
X443456Y8524D01*
X436344Y8524D01*
G37*
%LPD*%
%LPC*%
G36*
X388433Y401217D02*
X388433Y401217D01*
X386217Y403433D01*
X386217Y405593D01*
X386203Y405683D01*
X386195Y405774D01*
X386183Y405803D01*
X386178Y405835D01*
X386135Y405916D01*
X386099Y406000D01*
X386073Y406032D01*
X386062Y406053D01*
X386039Y406075D01*
X385994Y406131D01*
X374381Y417744D01*
X374307Y417797D01*
X374238Y417857D01*
X374207Y417869D01*
X374181Y417888D01*
X374094Y417915D01*
X374009Y417949D01*
X373968Y417953D01*
X373946Y417960D01*
X373914Y417959D01*
X373843Y417967D01*
X336132Y417967D01*
X336042Y417953D01*
X335951Y417945D01*
X335921Y417933D01*
X335889Y417928D01*
X335809Y417885D01*
X335725Y417849D01*
X335693Y417823D01*
X335672Y417812D01*
X335650Y417789D01*
X335594Y417744D01*
X334067Y416217D01*
X330933Y416217D01*
X328717Y418433D01*
X328717Y420593D01*
X328703Y420683D01*
X328695Y420774D01*
X328683Y420803D01*
X328678Y420835D01*
X328635Y420916D01*
X328599Y421000D01*
X328573Y421032D01*
X328562Y421053D01*
X328539Y421075D01*
X328494Y421131D01*
X316881Y432744D01*
X316807Y432797D01*
X316738Y432857D01*
X316707Y432869D01*
X316681Y432888D01*
X316594Y432915D01*
X316509Y432949D01*
X316468Y432953D01*
X316446Y432960D01*
X316414Y432959D01*
X316343Y432967D01*
X221132Y432967D01*
X221042Y432953D01*
X220951Y432945D01*
X220921Y432933D01*
X220889Y432928D01*
X220809Y432885D01*
X220725Y432849D01*
X220693Y432823D01*
X220672Y432812D01*
X220650Y432789D01*
X220594Y432744D01*
X219067Y431217D01*
X215933Y431217D01*
X213717Y433433D01*
X213717Y436567D01*
X215933Y438783D01*
X219067Y438783D01*
X220594Y437256D01*
X220668Y437203D01*
X220737Y437143D01*
X220767Y437131D01*
X220794Y437112D01*
X220881Y437085D01*
X220965Y437051D01*
X221006Y437047D01*
X221029Y437040D01*
X221061Y437041D01*
X221132Y437033D01*
X318342Y437033D01*
X331369Y424006D01*
X331443Y423953D01*
X331512Y423893D01*
X331543Y423881D01*
X331569Y423862D01*
X331656Y423835D01*
X331741Y423801D01*
X331782Y423797D01*
X331804Y423790D01*
X331836Y423791D01*
X331907Y423783D01*
X334067Y423783D01*
X335594Y422256D01*
X335668Y422203D01*
X335737Y422143D01*
X335767Y422131D01*
X335794Y422112D01*
X335881Y422085D01*
X335965Y422051D01*
X336006Y422047D01*
X336029Y422040D01*
X336061Y422041D01*
X336132Y422033D01*
X375842Y422033D01*
X388869Y409006D01*
X388943Y408953D01*
X389012Y408893D01*
X389043Y408881D01*
X389069Y408862D01*
X389156Y408835D01*
X389241Y408801D01*
X389282Y408797D01*
X389304Y408790D01*
X389336Y408791D01*
X389407Y408783D01*
X391567Y408783D01*
X393783Y406567D01*
X393783Y403433D01*
X391567Y401217D01*
X388433Y401217D01*
G37*
%LPD*%
%LPC*%
G36*
X518433Y98717D02*
X518433Y98717D01*
X516217Y100933D01*
X516217Y104067D01*
X518433Y106283D01*
X520593Y106283D01*
X520683Y106297D01*
X520774Y106305D01*
X520803Y106317D01*
X520835Y106322D01*
X520916Y106365D01*
X521000Y106401D01*
X521032Y106427D01*
X521053Y106438D01*
X521061Y106446D01*
X521062Y106447D01*
X521077Y106463D01*
X521131Y106506D01*
X584885Y170260D01*
X584897Y170276D01*
X584912Y170288D01*
X584968Y170376D01*
X585029Y170460D01*
X585034Y170478D01*
X585045Y170495D01*
X585071Y170596D01*
X585101Y170695D01*
X585100Y170715D01*
X585105Y170734D01*
X585097Y170837D01*
X585095Y170940D01*
X585088Y170959D01*
X585086Y170979D01*
X585046Y171074D01*
X585010Y171172D01*
X584998Y171187D01*
X584990Y171205D01*
X584885Y171336D01*
X583381Y172840D01*
X581779Y176707D01*
X581779Y180893D01*
X583381Y184760D01*
X586340Y187719D01*
X590207Y189321D01*
X594393Y189321D01*
X598260Y187719D01*
X601219Y184760D01*
X602821Y180893D01*
X602821Y176707D01*
X601219Y172840D01*
X598260Y169881D01*
X594393Y168279D01*
X590207Y168279D01*
X589579Y168540D01*
X589465Y168566D01*
X589352Y168595D01*
X589346Y168594D01*
X589339Y168596D01*
X589223Y168585D01*
X589107Y168576D01*
X589101Y168573D01*
X589095Y168573D01*
X588987Y168525D01*
X588880Y168479D01*
X588874Y168475D01*
X588870Y168473D01*
X588856Y168460D01*
X588749Y168375D01*
X524006Y103631D01*
X523953Y103557D01*
X523893Y103488D01*
X523881Y103457D01*
X523862Y103431D01*
X523835Y103344D01*
X523801Y103259D01*
X523797Y103218D01*
X523790Y103196D01*
X523791Y103164D01*
X523783Y103093D01*
X523783Y100933D01*
X521567Y98717D01*
X518433Y98717D01*
G37*
%LPD*%
%LPC*%
G36*
X274433Y513217D02*
X274433Y513217D01*
X272217Y515433D01*
X272217Y518567D01*
X274530Y520880D01*
X274572Y520938D01*
X274621Y520990D01*
X274643Y521037D01*
X274674Y521079D01*
X274695Y521148D01*
X274725Y521213D01*
X274731Y521265D01*
X274746Y521315D01*
X274744Y521386D01*
X274752Y521457D01*
X274741Y521508D01*
X274740Y521560D01*
X274715Y521628D01*
X274700Y521698D01*
X274673Y521743D01*
X274655Y521791D01*
X274610Y521847D01*
X274574Y521909D01*
X274534Y521943D01*
X274502Y521983D01*
X274441Y522022D01*
X274387Y522069D01*
X274338Y522088D01*
X274295Y522116D01*
X274225Y522134D01*
X274159Y522161D01*
X274087Y522169D01*
X274056Y522177D01*
X274033Y522175D01*
X273992Y522179D01*
X271357Y522179D01*
X269538Y523998D01*
X269522Y524009D01*
X269510Y524025D01*
X269448Y524065D01*
X269397Y524108D01*
X269370Y524119D01*
X269339Y524141D01*
X269320Y524147D01*
X269303Y524158D01*
X269223Y524178D01*
X269169Y524200D01*
X269137Y524203D01*
X269103Y524214D01*
X269084Y524213D01*
X269064Y524218D01*
X269029Y524215D01*
X269002Y524218D01*
X268998Y524218D01*
X268944Y524210D01*
X268858Y524207D01*
X268839Y524200D01*
X268819Y524199D01*
X268781Y524183D01*
X268755Y524178D01*
X268701Y524150D01*
X268627Y524123D01*
X268611Y524110D01*
X268593Y524103D01*
X268556Y524073D01*
X268537Y524063D01*
X268517Y524042D01*
X268462Y523998D01*
X266643Y522179D01*
X262857Y522179D01*
X261038Y523998D01*
X261022Y524009D01*
X261010Y524025D01*
X260948Y524065D01*
X260897Y524108D01*
X260869Y524119D01*
X260839Y524141D01*
X260820Y524147D01*
X260803Y524158D01*
X260724Y524178D01*
X260669Y524200D01*
X260637Y524203D01*
X260603Y524214D01*
X260584Y524213D01*
X260564Y524218D01*
X260529Y524215D01*
X260502Y524218D01*
X260498Y524218D01*
X260444Y524210D01*
X260358Y524207D01*
X260339Y524200D01*
X260319Y524199D01*
X260281Y524183D01*
X260255Y524178D01*
X260201Y524150D01*
X260127Y524123D01*
X260111Y524110D01*
X260093Y524103D01*
X260056Y524073D01*
X260037Y524063D01*
X260017Y524042D01*
X259962Y523998D01*
X258143Y522179D01*
X254357Y522179D01*
X253432Y523104D01*
X253356Y523159D01*
X253284Y523219D01*
X253256Y523230D01*
X253233Y523247D01*
X253143Y523275D01*
X253055Y523310D01*
X253025Y523311D01*
X252998Y523320D01*
X252903Y523317D01*
X252809Y523322D01*
X252781Y523314D01*
X252752Y523313D01*
X252663Y523281D01*
X252572Y523255D01*
X252548Y523239D01*
X252521Y523229D01*
X252447Y523170D01*
X252369Y523117D01*
X252345Y523088D01*
X252329Y523075D01*
X252317Y523057D01*
X251473Y522213D01*
X250517Y521574D01*
X249454Y521134D01*
X248749Y520994D01*
X248749Y526512D01*
X248747Y526528D01*
X248748Y526541D01*
X248748Y526545D01*
X248748Y526551D01*
X248726Y526653D01*
X248710Y526755D01*
X248709Y526756D01*
X248721Y526783D01*
X248723Y526803D01*
X248731Y526821D01*
X248749Y526988D01*
X248749Y532506D01*
X249454Y532366D01*
X250517Y531926D01*
X251473Y531287D01*
X252340Y530420D01*
X252349Y530414D01*
X252384Y530369D01*
X252409Y530353D01*
X252429Y530332D01*
X252512Y530287D01*
X252591Y530236D01*
X252620Y530229D01*
X252645Y530215D01*
X252738Y530199D01*
X252830Y530176D01*
X252859Y530178D01*
X252888Y530173D01*
X252981Y530188D01*
X253075Y530195D01*
X253102Y530207D01*
X253131Y530211D01*
X253215Y530255D01*
X253301Y530292D01*
X253330Y530314D01*
X253349Y530324D01*
X253372Y530348D01*
X253432Y530396D01*
X254357Y531321D01*
X258143Y531321D01*
X259962Y529502D01*
X259978Y529491D01*
X259990Y529475D01*
X260078Y529419D01*
X260161Y529359D01*
X260180Y529353D01*
X260197Y529342D01*
X260298Y529317D01*
X260397Y529286D01*
X260416Y529287D01*
X260436Y529282D01*
X260539Y529290D01*
X260642Y529293D01*
X260661Y529300D01*
X260681Y529301D01*
X260776Y529342D01*
X260873Y529377D01*
X260889Y529390D01*
X260907Y529397D01*
X261038Y529502D01*
X262857Y531321D01*
X266643Y531321D01*
X268462Y529502D01*
X268478Y529491D01*
X268490Y529475D01*
X268578Y529419D01*
X268661Y529359D01*
X268680Y529353D01*
X268697Y529342D01*
X268798Y529317D01*
X268897Y529286D01*
X268916Y529287D01*
X268936Y529282D01*
X269039Y529290D01*
X269142Y529293D01*
X269161Y529300D01*
X269181Y529301D01*
X269276Y529342D01*
X269373Y529377D01*
X269389Y529390D01*
X269407Y529397D01*
X269538Y529502D01*
X271357Y531321D01*
X275143Y531321D01*
X276962Y529502D01*
X276978Y529491D01*
X276990Y529475D01*
X277078Y529419D01*
X277161Y529359D01*
X277180Y529353D01*
X277197Y529342D01*
X277298Y529317D01*
X277397Y529286D01*
X277416Y529287D01*
X277436Y529282D01*
X277539Y529290D01*
X277642Y529293D01*
X277661Y529300D01*
X277681Y529301D01*
X277776Y529342D01*
X277873Y529377D01*
X277889Y529390D01*
X277907Y529397D01*
X278038Y529502D01*
X279857Y531321D01*
X283643Y531321D01*
X285462Y529502D01*
X285478Y529491D01*
X285490Y529475D01*
X285578Y529419D01*
X285661Y529359D01*
X285680Y529353D01*
X285697Y529342D01*
X285798Y529317D01*
X285897Y529286D01*
X285916Y529287D01*
X285936Y529282D01*
X286039Y529290D01*
X286142Y529293D01*
X286161Y529300D01*
X286181Y529301D01*
X286276Y529342D01*
X286373Y529377D01*
X286389Y529390D01*
X286407Y529397D01*
X286538Y529502D01*
X288357Y531321D01*
X292143Y531321D01*
X293962Y529502D01*
X293978Y529491D01*
X293990Y529475D01*
X294078Y529419D01*
X294161Y529359D01*
X294180Y529353D01*
X294197Y529342D01*
X294298Y529317D01*
X294397Y529286D01*
X294416Y529287D01*
X294436Y529282D01*
X294539Y529290D01*
X294642Y529293D01*
X294661Y529300D01*
X294681Y529301D01*
X294776Y529342D01*
X294873Y529377D01*
X294889Y529390D01*
X294907Y529397D01*
X295038Y529502D01*
X296857Y531321D01*
X300643Y531321D01*
X301568Y530396D01*
X301644Y530341D01*
X301716Y530281D01*
X301744Y530270D01*
X301767Y530253D01*
X301857Y530225D01*
X301945Y530190D01*
X301975Y530189D01*
X302002Y530180D01*
X302097Y530183D01*
X302191Y530178D01*
X302219Y530186D01*
X302248Y530187D01*
X302337Y530219D01*
X302428Y530245D01*
X302452Y530261D01*
X302479Y530271D01*
X302553Y530330D01*
X302631Y530383D01*
X302655Y530412D01*
X302671Y530425D01*
X302683Y530443D01*
X303527Y531287D01*
X304483Y531926D01*
X305546Y532366D01*
X306251Y532506D01*
X306251Y526988D01*
X306254Y526969D01*
X306252Y526949D01*
X306274Y526847D01*
X306290Y526745D01*
X306291Y526744D01*
X306279Y526717D01*
X306277Y526697D01*
X306269Y526679D01*
X306251Y526512D01*
X306251Y520994D01*
X305546Y521134D01*
X304483Y521574D01*
X303527Y522213D01*
X302660Y523080D01*
X302651Y523086D01*
X302616Y523131D01*
X302591Y523147D01*
X302571Y523168D01*
X302488Y523213D01*
X302409Y523264D01*
X302380Y523271D01*
X302355Y523285D01*
X302262Y523301D01*
X302170Y523324D01*
X302141Y523322D01*
X302112Y523327D01*
X302019Y523312D01*
X301925Y523305D01*
X301898Y523293D01*
X301869Y523289D01*
X301785Y523245D01*
X301699Y523208D01*
X301670Y523186D01*
X301651Y523176D01*
X301628Y523152D01*
X301568Y523104D01*
X300445Y521981D01*
X300433Y521965D01*
X300418Y521952D01*
X300362Y521865D01*
X300302Y521781D01*
X300296Y521762D01*
X300285Y521746D01*
X300260Y521645D01*
X300229Y521546D01*
X300230Y521526D01*
X300225Y521507D01*
X300233Y521404D01*
X300236Y521300D01*
X300242Y521282D01*
X300244Y521262D01*
X300284Y521167D01*
X300320Y521069D01*
X300332Y521054D01*
X300340Y521035D01*
X300445Y520905D01*
X302783Y518567D01*
X302783Y515433D01*
X300567Y513217D01*
X297433Y513217D01*
X295906Y514744D01*
X295832Y514797D01*
X295763Y514857D01*
X295733Y514869D01*
X295706Y514888D01*
X295619Y514915D01*
X295535Y514949D01*
X295494Y514953D01*
X295471Y514960D01*
X295439Y514959D01*
X295368Y514967D01*
X279632Y514967D01*
X279542Y514953D01*
X279451Y514945D01*
X279421Y514933D01*
X279389Y514928D01*
X279309Y514885D01*
X279225Y514849D01*
X279193Y514823D01*
X279172Y514812D01*
X279150Y514789D01*
X279094Y514744D01*
X277567Y513217D01*
X274433Y513217D01*
G37*
%LPD*%
%LPC*%
G36*
X333433Y261217D02*
X333433Y261217D01*
X331217Y263433D01*
X331217Y265593D01*
X331203Y265683D01*
X331195Y265774D01*
X331183Y265803D01*
X331178Y265835D01*
X331135Y265916D01*
X331099Y266000D01*
X331073Y266032D01*
X331062Y266053D01*
X331039Y266075D01*
X330994Y266131D01*
X314381Y282744D01*
X314307Y282797D01*
X314238Y282857D01*
X314207Y282869D01*
X314181Y282888D01*
X314094Y282915D01*
X314009Y282949D01*
X313968Y282953D01*
X313946Y282960D01*
X313914Y282959D01*
X313843Y282967D01*
X221132Y282967D01*
X221042Y282953D01*
X220951Y282945D01*
X220921Y282933D01*
X220889Y282928D01*
X220809Y282885D01*
X220725Y282849D01*
X220693Y282823D01*
X220672Y282812D01*
X220650Y282789D01*
X220594Y282744D01*
X219067Y281217D01*
X215933Y281217D01*
X213717Y283433D01*
X213717Y286567D01*
X215933Y288783D01*
X219067Y288783D01*
X220594Y287256D01*
X220668Y287203D01*
X220737Y287143D01*
X220767Y287131D01*
X220794Y287112D01*
X220881Y287085D01*
X220965Y287051D01*
X221006Y287047D01*
X221029Y287040D01*
X221061Y287041D01*
X221132Y287033D01*
X315842Y287033D01*
X331668Y271207D01*
X331726Y271165D01*
X331778Y271116D01*
X331825Y271094D01*
X331867Y271063D01*
X331936Y271042D01*
X332001Y271012D01*
X332053Y271006D01*
X332103Y270991D01*
X332174Y270993D01*
X332245Y270985D01*
X332296Y270996D01*
X332348Y270997D01*
X332416Y271022D01*
X332486Y271037D01*
X332531Y271064D01*
X332579Y271082D01*
X332635Y271127D01*
X332697Y271163D01*
X332731Y271203D01*
X332771Y271236D01*
X332810Y271296D01*
X332857Y271350D01*
X332876Y271399D01*
X332904Y271443D01*
X332922Y271512D01*
X332949Y271579D01*
X332957Y271650D01*
X332965Y271681D01*
X332963Y271704D01*
X332967Y271745D01*
X332967Y283342D01*
X338494Y288869D01*
X338547Y288943D01*
X338607Y289012D01*
X338619Y289043D01*
X338638Y289069D01*
X338665Y289156D01*
X338699Y289241D01*
X338703Y289282D01*
X338710Y289304D01*
X338709Y289336D01*
X338717Y289407D01*
X338717Y291567D01*
X340933Y293783D01*
X344067Y293783D01*
X346283Y291567D01*
X346283Y288433D01*
X344067Y286217D01*
X341907Y286217D01*
X341817Y286203D01*
X341726Y286195D01*
X341697Y286183D01*
X341665Y286178D01*
X341584Y286135D01*
X341500Y286099D01*
X341468Y286073D01*
X341447Y286062D01*
X341425Y286039D01*
X341369Y285994D01*
X337256Y281881D01*
X337208Y281815D01*
X337201Y281808D01*
X337199Y281803D01*
X337143Y281738D01*
X337131Y281707D01*
X337112Y281681D01*
X337085Y281594D01*
X337051Y281509D01*
X337047Y281468D01*
X337040Y281446D01*
X337041Y281414D01*
X337033Y281343D01*
X337033Y268632D01*
X337047Y268542D01*
X337055Y268451D01*
X337067Y268421D01*
X337072Y268389D01*
X337115Y268309D01*
X337151Y268225D01*
X337177Y268193D01*
X337188Y268172D01*
X337211Y268150D01*
X337256Y268094D01*
X338783Y266567D01*
X338783Y263433D01*
X336567Y261217D01*
X333433Y261217D01*
G37*
%LPD*%
%LPC*%
G36*
X218433Y511217D02*
X218433Y511217D01*
X216217Y513433D01*
X216217Y516567D01*
X217744Y518094D01*
X217797Y518168D01*
X217857Y518237D01*
X217869Y518267D01*
X217888Y518294D01*
X217915Y518381D01*
X217949Y518465D01*
X217953Y518506D01*
X217960Y518529D01*
X217959Y518561D01*
X217967Y518632D01*
X217967Y553868D01*
X217953Y553958D01*
X217945Y554049D01*
X217933Y554079D01*
X217928Y554111D01*
X217885Y554191D01*
X217849Y554275D01*
X217823Y554307D01*
X217812Y554328D01*
X217789Y554350D01*
X217744Y554406D01*
X217356Y554794D01*
X217356Y557928D01*
X219572Y560144D01*
X222706Y560144D01*
X224233Y558617D01*
X224307Y558564D01*
X224376Y558504D01*
X224406Y558492D01*
X224433Y558473D01*
X224519Y558447D01*
X224604Y558412D01*
X224645Y558408D01*
X224668Y558401D01*
X224700Y558402D01*
X224771Y558394D01*
X231031Y558394D01*
X231127Y558410D01*
X231224Y558419D01*
X231248Y558429D01*
X231274Y558434D01*
X231360Y558479D01*
X231449Y558519D01*
X231468Y558536D01*
X231491Y558549D01*
X231558Y558619D01*
X231630Y558685D01*
X231642Y558708D01*
X231660Y558727D01*
X231701Y558815D01*
X231748Y558901D01*
X231753Y558926D01*
X231764Y558950D01*
X231775Y559047D01*
X231792Y559143D01*
X231788Y559169D01*
X231791Y559195D01*
X231770Y559290D01*
X231756Y559386D01*
X231744Y559409D01*
X231739Y559435D01*
X231689Y559519D01*
X231645Y559605D01*
X231626Y559624D01*
X231613Y559646D01*
X231539Y559709D01*
X231469Y559778D01*
X231441Y559793D01*
X231426Y559806D01*
X231395Y559818D01*
X231322Y559858D01*
X231010Y559988D01*
X229889Y560737D01*
X228937Y561689D01*
X228188Y562810D01*
X227672Y564055D01*
X227409Y565376D01*
X227409Y568851D01*
X233512Y568851D01*
X233531Y568854D01*
X233551Y568852D01*
X233653Y568874D01*
X233755Y568890D01*
X233772Y568900D01*
X233792Y568904D01*
X233881Y568957D01*
X233972Y569006D01*
X233986Y569020D01*
X234003Y569030D01*
X234070Y569109D01*
X234141Y569184D01*
X234150Y569202D01*
X234163Y569217D01*
X234201Y569313D01*
X234245Y569407D01*
X234247Y569427D01*
X234254Y569445D01*
X234267Y569369D01*
X234276Y569352D01*
X234280Y569332D01*
X234333Y569243D01*
X234382Y569152D01*
X234396Y569138D01*
X234406Y569121D01*
X234485Y569054D01*
X234560Y568982D01*
X234578Y568974D01*
X234593Y568961D01*
X234690Y568922D01*
X234783Y568879D01*
X234803Y568877D01*
X234821Y568869D01*
X234988Y568851D01*
X241091Y568851D01*
X241091Y565376D01*
X240828Y564055D01*
X240312Y562810D01*
X239563Y561689D01*
X238611Y560737D01*
X237490Y559988D01*
X237178Y559858D01*
X237095Y559807D01*
X237009Y559762D01*
X236991Y559743D01*
X236969Y559729D01*
X236907Y559654D01*
X236840Y559583D01*
X236829Y559559D01*
X236812Y559539D01*
X236777Y559448D01*
X236736Y559360D01*
X236733Y559334D01*
X236724Y559310D01*
X236720Y559212D01*
X236709Y559116D01*
X236714Y559090D01*
X236713Y559064D01*
X236740Y558970D01*
X236761Y558875D01*
X236775Y558853D01*
X236782Y558828D01*
X236837Y558748D01*
X236887Y558664D01*
X236907Y558647D01*
X236922Y558626D01*
X237000Y558568D01*
X237074Y558504D01*
X237099Y558494D01*
X237119Y558479D01*
X237212Y558449D01*
X237302Y558412D01*
X237335Y558409D01*
X237353Y558403D01*
X237386Y558403D01*
X237469Y558394D01*
X252729Y558394D01*
X252819Y558409D01*
X252910Y558416D01*
X252940Y558428D01*
X252972Y558434D01*
X253052Y558476D01*
X253136Y558512D01*
X253168Y558538D01*
X253189Y558549D01*
X253211Y558572D01*
X253267Y558617D01*
X255044Y560394D01*
X258178Y560394D01*
X259705Y558867D01*
X259779Y558814D01*
X259848Y558754D01*
X259879Y558742D01*
X259905Y558723D01*
X259992Y558697D01*
X260077Y558662D01*
X260118Y558658D01*
X260140Y558651D01*
X260172Y558652D01*
X260243Y558644D01*
X275979Y558644D01*
X276069Y558659D01*
X276160Y558666D01*
X276190Y558678D01*
X276222Y558684D01*
X276302Y558726D01*
X276386Y558762D01*
X276418Y558788D01*
X276439Y558799D01*
X276461Y558822D01*
X276517Y558867D01*
X278433Y560783D01*
X281567Y560783D01*
X283783Y558567D01*
X283783Y555433D01*
X281567Y553217D01*
X278433Y553217D01*
X277295Y554355D01*
X277221Y554409D01*
X277152Y554468D01*
X277121Y554480D01*
X277095Y554499D01*
X277008Y554526D01*
X276923Y554560D01*
X276882Y554564D01*
X276860Y554571D01*
X276828Y554570D01*
X276757Y554578D01*
X260243Y554578D01*
X260153Y554564D01*
X260062Y554557D01*
X260033Y554544D01*
X260001Y554539D01*
X259920Y554496D01*
X259836Y554460D01*
X259804Y554434D01*
X259783Y554424D01*
X259761Y554400D01*
X259705Y554355D01*
X258178Y552828D01*
X255044Y552828D01*
X253767Y554105D01*
X253693Y554159D01*
X253624Y554218D01*
X253594Y554230D01*
X253567Y554249D01*
X253481Y554276D01*
X253396Y554310D01*
X253355Y554314D01*
X253332Y554321D01*
X253300Y554320D01*
X253229Y554328D01*
X224771Y554328D01*
X224681Y554314D01*
X224590Y554307D01*
X224560Y554294D01*
X224528Y554289D01*
X224448Y554246D01*
X224364Y554210D01*
X224332Y554185D01*
X224311Y554174D01*
X224289Y554150D01*
X224233Y554105D01*
X222691Y552564D01*
X222653Y552555D01*
X222551Y552539D01*
X222534Y552529D01*
X222514Y552525D01*
X222425Y552472D01*
X222334Y552424D01*
X222320Y552409D01*
X222303Y552399D01*
X222236Y552320D01*
X222164Y552245D01*
X222156Y552227D01*
X222143Y552212D01*
X222104Y552116D01*
X222061Y552022D01*
X222059Y552002D01*
X222051Y551984D01*
X222033Y551817D01*
X222033Y518632D01*
X222047Y518542D01*
X222055Y518451D01*
X222067Y518421D01*
X222072Y518389D01*
X222115Y518309D01*
X222151Y518225D01*
X222177Y518193D01*
X222188Y518172D01*
X222211Y518150D01*
X222256Y518094D01*
X223783Y516567D01*
X223783Y513433D01*
X221567Y511217D01*
X218433Y511217D01*
G37*
%LPD*%
%LPC*%
G36*
X388433Y208717D02*
X388433Y208717D01*
X386217Y210933D01*
X386217Y213093D01*
X386203Y213183D01*
X386195Y213274D01*
X386183Y213303D01*
X386178Y213335D01*
X386135Y213416D01*
X386099Y213500D01*
X386073Y213532D01*
X386062Y213553D01*
X386039Y213575D01*
X385994Y213631D01*
X350467Y249158D01*
X350467Y301368D01*
X350453Y301458D01*
X350445Y301549D01*
X350433Y301579D01*
X350428Y301611D01*
X350385Y301691D01*
X350349Y301775D01*
X350323Y301807D01*
X350312Y301828D01*
X350289Y301850D01*
X350244Y301906D01*
X348717Y303433D01*
X348717Y306567D01*
X350933Y308783D01*
X354067Y308783D01*
X356283Y306567D01*
X356283Y303433D01*
X354756Y301906D01*
X354703Y301832D01*
X354643Y301763D01*
X354631Y301733D01*
X354612Y301706D01*
X354585Y301619D01*
X354551Y301535D01*
X354547Y301494D01*
X354540Y301471D01*
X354541Y301439D01*
X354533Y301368D01*
X354533Y251157D01*
X354547Y251067D01*
X354555Y250976D01*
X354567Y250947D01*
X354572Y250915D01*
X354615Y250834D01*
X354651Y250750D01*
X354677Y250718D01*
X354688Y250697D01*
X354711Y250675D01*
X354756Y250619D01*
X388869Y216506D01*
X388943Y216453D01*
X389012Y216393D01*
X389043Y216381D01*
X389069Y216362D01*
X389156Y216335D01*
X389241Y216301D01*
X389282Y216297D01*
X389304Y216290D01*
X389336Y216291D01*
X389407Y216283D01*
X391567Y216283D01*
X393783Y214067D01*
X393783Y210933D01*
X391567Y208717D01*
X388433Y208717D01*
G37*
%LPD*%
%LPC*%
G36*
X305546Y534634D02*
X305546Y534634D01*
X304483Y535074D01*
X303527Y535713D01*
X302660Y536580D01*
X302651Y536586D01*
X302616Y536631D01*
X302591Y536647D01*
X302571Y536668D01*
X302488Y536713D01*
X302409Y536764D01*
X302380Y536771D01*
X302355Y536785D01*
X302262Y536801D01*
X302170Y536824D01*
X302141Y536822D01*
X302112Y536827D01*
X302019Y536812D01*
X301925Y536805D01*
X301898Y536793D01*
X301869Y536789D01*
X301785Y536745D01*
X301699Y536708D01*
X301670Y536686D01*
X301651Y536676D01*
X301628Y536652D01*
X301568Y536604D01*
X300643Y535679D01*
X296857Y535679D01*
X295038Y537498D01*
X295022Y537509D01*
X295010Y537525D01*
X294922Y537581D01*
X294839Y537641D01*
X294820Y537647D01*
X294803Y537658D01*
X294702Y537683D01*
X294603Y537714D01*
X294584Y537713D01*
X294564Y537718D01*
X294461Y537710D01*
X294358Y537707D01*
X294339Y537700D01*
X294319Y537699D01*
X294224Y537658D01*
X294127Y537623D01*
X294111Y537610D01*
X294093Y537603D01*
X293962Y537498D01*
X292143Y535679D01*
X288357Y535679D01*
X286538Y537498D01*
X286522Y537509D01*
X286510Y537525D01*
X286422Y537581D01*
X286339Y537641D01*
X286320Y537647D01*
X286303Y537658D01*
X286202Y537683D01*
X286103Y537714D01*
X286084Y537713D01*
X286064Y537718D01*
X285961Y537710D01*
X285858Y537707D01*
X285839Y537700D01*
X285819Y537699D01*
X285724Y537658D01*
X285627Y537623D01*
X285611Y537610D01*
X285593Y537603D01*
X285462Y537498D01*
X283643Y535679D01*
X279857Y535679D01*
X278038Y537498D01*
X278022Y537509D01*
X278010Y537525D01*
X277922Y537581D01*
X277839Y537641D01*
X277820Y537647D01*
X277803Y537658D01*
X277702Y537683D01*
X277603Y537714D01*
X277584Y537713D01*
X277564Y537718D01*
X277461Y537710D01*
X277358Y537707D01*
X277339Y537700D01*
X277319Y537699D01*
X277224Y537658D01*
X277127Y537623D01*
X277111Y537610D01*
X277093Y537603D01*
X276962Y537498D01*
X275143Y535679D01*
X271357Y535679D01*
X269538Y537498D01*
X269522Y537509D01*
X269510Y537525D01*
X269422Y537581D01*
X269339Y537641D01*
X269320Y537647D01*
X269303Y537658D01*
X269202Y537683D01*
X269103Y537714D01*
X269084Y537713D01*
X269064Y537718D01*
X268961Y537710D01*
X268858Y537707D01*
X268839Y537700D01*
X268819Y537699D01*
X268724Y537658D01*
X268627Y537623D01*
X268611Y537610D01*
X268593Y537603D01*
X268462Y537498D01*
X266643Y535679D01*
X262857Y535679D01*
X261038Y537498D01*
X261022Y537509D01*
X261010Y537525D01*
X260922Y537581D01*
X260839Y537641D01*
X260820Y537647D01*
X260803Y537658D01*
X260702Y537683D01*
X260603Y537714D01*
X260584Y537713D01*
X260564Y537718D01*
X260461Y537710D01*
X260358Y537707D01*
X260339Y537700D01*
X260319Y537699D01*
X260224Y537658D01*
X260127Y537623D01*
X260111Y537610D01*
X260093Y537603D01*
X259962Y537498D01*
X258143Y535679D01*
X254357Y535679D01*
X253432Y536604D01*
X253356Y536659D01*
X253284Y536719D01*
X253256Y536730D01*
X253233Y536747D01*
X253143Y536775D01*
X253055Y536810D01*
X253025Y536811D01*
X252998Y536820D01*
X252903Y536817D01*
X252809Y536822D01*
X252781Y536814D01*
X252752Y536813D01*
X252663Y536781D01*
X252572Y536755D01*
X252548Y536739D01*
X252521Y536729D01*
X252447Y536670D01*
X252369Y536617D01*
X252345Y536588D01*
X252329Y536575D01*
X252317Y536557D01*
X251473Y535713D01*
X250517Y535074D01*
X249454Y534634D01*
X248749Y534494D01*
X248749Y540012D01*
X248746Y540031D01*
X248748Y540051D01*
X248726Y540153D01*
X248710Y540255D01*
X248709Y540256D01*
X248721Y540283D01*
X248723Y540303D01*
X248731Y540321D01*
X248749Y540488D01*
X248749Y546006D01*
X249454Y545866D01*
X250517Y545426D01*
X251473Y544787D01*
X252340Y543920D01*
X252349Y543914D01*
X252384Y543869D01*
X252409Y543853D01*
X252429Y543832D01*
X252512Y543787D01*
X252591Y543736D01*
X252620Y543729D01*
X252645Y543715D01*
X252738Y543699D01*
X252830Y543676D01*
X252859Y543678D01*
X252888Y543673D01*
X252981Y543688D01*
X253075Y543695D01*
X253102Y543707D01*
X253131Y543711D01*
X253215Y543755D01*
X253301Y543792D01*
X253330Y543814D01*
X253349Y543824D01*
X253372Y543848D01*
X253432Y543896D01*
X254357Y544821D01*
X258143Y544821D01*
X259962Y543002D01*
X259978Y542991D01*
X259990Y542975D01*
X260078Y542919D01*
X260161Y542859D01*
X260180Y542853D01*
X260197Y542842D01*
X260298Y542817D01*
X260397Y542786D01*
X260416Y542787D01*
X260436Y542782D01*
X260539Y542790D01*
X260642Y542793D01*
X260661Y542800D01*
X260681Y542801D01*
X260776Y542842D01*
X260873Y542877D01*
X260889Y542890D01*
X260907Y542897D01*
X261038Y543002D01*
X262857Y544821D01*
X266643Y544821D01*
X268462Y543002D01*
X268478Y542991D01*
X268490Y542975D01*
X268578Y542919D01*
X268661Y542859D01*
X268680Y542853D01*
X268697Y542842D01*
X268798Y542817D01*
X268897Y542786D01*
X268916Y542787D01*
X268936Y542782D01*
X269039Y542790D01*
X269142Y542793D01*
X269161Y542800D01*
X269181Y542801D01*
X269276Y542842D01*
X269373Y542877D01*
X269389Y542890D01*
X269407Y542897D01*
X269538Y543002D01*
X271357Y544821D01*
X275143Y544821D01*
X276962Y543002D01*
X276978Y542991D01*
X276990Y542975D01*
X277078Y542919D01*
X277161Y542859D01*
X277180Y542853D01*
X277197Y542842D01*
X277298Y542817D01*
X277397Y542786D01*
X277416Y542787D01*
X277436Y542782D01*
X277539Y542790D01*
X277642Y542793D01*
X277661Y542800D01*
X277681Y542801D01*
X277776Y542842D01*
X277873Y542877D01*
X277889Y542890D01*
X277907Y542897D01*
X278038Y543002D01*
X279857Y544821D01*
X283643Y544821D01*
X285462Y543002D01*
X285478Y542991D01*
X285490Y542975D01*
X285578Y542919D01*
X285661Y542859D01*
X285680Y542853D01*
X285697Y542842D01*
X285798Y542817D01*
X285897Y542786D01*
X285916Y542787D01*
X285936Y542782D01*
X286039Y542790D01*
X286142Y542793D01*
X286161Y542800D01*
X286181Y542801D01*
X286276Y542842D01*
X286373Y542877D01*
X286389Y542890D01*
X286407Y542897D01*
X286538Y543002D01*
X288357Y544821D01*
X292143Y544821D01*
X293962Y543002D01*
X293978Y542991D01*
X293990Y542975D01*
X294078Y542919D01*
X294161Y542859D01*
X294180Y542853D01*
X294197Y542842D01*
X294298Y542817D01*
X294397Y542786D01*
X294416Y542787D01*
X294436Y542782D01*
X294539Y542790D01*
X294642Y542793D01*
X294661Y542800D01*
X294681Y542801D01*
X294776Y542842D01*
X294873Y542877D01*
X294889Y542890D01*
X294907Y542897D01*
X295038Y543002D01*
X296857Y544821D01*
X300643Y544821D01*
X301568Y543896D01*
X301644Y543841D01*
X301716Y543781D01*
X301744Y543770D01*
X301767Y543753D01*
X301857Y543725D01*
X301945Y543690D01*
X301975Y543689D01*
X302002Y543680D01*
X302097Y543683D01*
X302191Y543678D01*
X302219Y543686D01*
X302248Y543687D01*
X302337Y543719D01*
X302428Y543745D01*
X302452Y543761D01*
X302479Y543771D01*
X302553Y543830D01*
X302631Y543883D01*
X302655Y543912D01*
X302671Y543925D01*
X302683Y543943D01*
X303527Y544787D01*
X304483Y545426D01*
X305546Y545866D01*
X306251Y546006D01*
X306251Y540488D01*
X306254Y540469D01*
X306252Y540449D01*
X306274Y540347D01*
X306290Y540245D01*
X306291Y540244D01*
X306279Y540217D01*
X306277Y540197D01*
X306269Y540179D01*
X306251Y540012D01*
X306251Y534494D01*
X305546Y534634D01*
G37*
%LPD*%
%LPC*%
G36*
X99924Y168279D02*
X99924Y168279D01*
X99179Y169024D01*
X99179Y188576D01*
X99924Y189321D01*
X119476Y189321D01*
X120221Y188576D01*
X120221Y169024D01*
X119476Y168279D01*
X99924Y168279D01*
G37*
%LPD*%
%LPC*%
G36*
X582524Y259719D02*
X582524Y259719D01*
X581779Y260464D01*
X581779Y280016D01*
X582524Y280761D01*
X602076Y280761D01*
X602821Y280016D01*
X602821Y260464D01*
X602076Y259719D01*
X582524Y259719D01*
G37*
%LPD*%
%LPC*%
G36*
X23724Y498479D02*
X23724Y498479D01*
X22979Y499224D01*
X22979Y518776D01*
X23724Y519521D01*
X43276Y519521D01*
X44021Y518776D01*
X44021Y499224D01*
X43276Y498479D01*
X23724Y498479D01*
G37*
%LPD*%
%LPC*%
G36*
X633324Y498229D02*
X633324Y498229D01*
X632579Y498974D01*
X632579Y518526D01*
X633324Y519271D01*
X652876Y519271D01*
X653621Y518526D01*
X653621Y498974D01*
X652876Y498229D01*
X633324Y498229D01*
G37*
%LPD*%
%LPC*%
G36*
X582524Y41279D02*
X582524Y41279D01*
X581779Y42024D01*
X581779Y61576D01*
X582524Y62321D01*
X602076Y62321D01*
X602821Y61576D01*
X602821Y42024D01*
X602076Y41279D01*
X582524Y41279D01*
G37*
%LPD*%
%LPC*%
G36*
X99924Y396879D02*
X99924Y396879D01*
X99179Y397624D01*
X99179Y417176D01*
X99924Y417921D01*
X119476Y417921D01*
X120221Y417176D01*
X120221Y397624D01*
X119476Y396879D01*
X99924Y396879D01*
G37*
%LPD*%
%LPC*%
G36*
X119178Y444969D02*
X119178Y444969D01*
X116366Y446134D01*
X114214Y448286D01*
X113049Y451098D01*
X113049Y466902D01*
X114214Y469714D01*
X116366Y471866D01*
X119178Y473031D01*
X122222Y473031D01*
X125034Y471866D01*
X127186Y469714D01*
X128351Y466902D01*
X128351Y451098D01*
X127186Y448286D01*
X125034Y446134D01*
X122222Y444969D01*
X119178Y444969D01*
G37*
%LPD*%
%LPC*%
G36*
X93778Y444969D02*
X93778Y444969D01*
X90966Y446134D01*
X88814Y448286D01*
X87649Y451098D01*
X87649Y466902D01*
X88814Y469714D01*
X90966Y471866D01*
X93778Y473031D01*
X96822Y473031D01*
X99634Y471866D01*
X101786Y469714D01*
X102951Y466902D01*
X102951Y451098D01*
X101786Y448286D01*
X99634Y446134D01*
X96822Y444969D01*
X93778Y444969D01*
G37*
%LPD*%
%LPC*%
G36*
X107607Y142879D02*
X107607Y142879D01*
X103740Y144481D01*
X100781Y147440D01*
X99179Y151307D01*
X99179Y155493D01*
X100781Y159360D01*
X103740Y162319D01*
X107607Y163921D01*
X111793Y163921D01*
X115660Y162319D01*
X118619Y159360D01*
X120221Y155493D01*
X120221Y151307D01*
X118619Y147440D01*
X115660Y144481D01*
X111793Y142879D01*
X107607Y142879D01*
G37*
%LPD*%
%LPC*%
G36*
X56807Y142879D02*
X56807Y142879D01*
X52940Y144481D01*
X49981Y147440D01*
X48379Y151307D01*
X48379Y155493D01*
X49981Y159360D01*
X52940Y162319D01*
X56807Y163921D01*
X60993Y163921D01*
X64860Y162319D01*
X67819Y159360D01*
X69421Y155493D01*
X69421Y151307D01*
X67819Y147440D01*
X64860Y144481D01*
X60993Y142879D01*
X56807Y142879D01*
G37*
%LPD*%
%LPC*%
G36*
X31407Y142879D02*
X31407Y142879D01*
X27540Y144481D01*
X24581Y147440D01*
X22979Y151307D01*
X22979Y155493D01*
X24581Y159360D01*
X27540Y162319D01*
X31407Y163921D01*
X35593Y163921D01*
X39460Y162319D01*
X42419Y159360D01*
X44021Y155493D01*
X44021Y151307D01*
X42419Y147440D01*
X39460Y144481D01*
X35593Y142879D01*
X31407Y142879D01*
G37*
%LPD*%
%LPC*%
G36*
X641007Y142629D02*
X641007Y142629D01*
X637140Y144231D01*
X634181Y147191D01*
X632579Y151057D01*
X632579Y155243D01*
X634181Y159110D01*
X637140Y162069D01*
X641007Y163671D01*
X645193Y163671D01*
X649060Y162069D01*
X652019Y159110D01*
X653621Y155243D01*
X653621Y151057D01*
X652019Y147191D01*
X649060Y144231D01*
X645193Y142629D01*
X641007Y142629D01*
G37*
%LPD*%
%LPC*%
G36*
X666407Y142629D02*
X666407Y142629D01*
X662540Y144231D01*
X659581Y147191D01*
X657979Y151057D01*
X657979Y155243D01*
X659581Y159110D01*
X662540Y162069D01*
X666407Y163671D01*
X670593Y163671D01*
X674460Y162069D01*
X677419Y159110D01*
X679021Y155243D01*
X679021Y151057D01*
X677419Y147191D01*
X674460Y144231D01*
X670593Y142629D01*
X666407Y142629D01*
G37*
%LPD*%
%LPC*%
G36*
X56807Y117479D02*
X56807Y117479D01*
X52940Y119081D01*
X49981Y122040D01*
X48379Y125907D01*
X48379Y130093D01*
X49981Y133960D01*
X52940Y136919D01*
X56807Y138521D01*
X60993Y138521D01*
X64860Y136919D01*
X67819Y133960D01*
X69421Y130093D01*
X69421Y125907D01*
X67819Y122040D01*
X64860Y119081D01*
X60993Y117479D01*
X56807Y117479D01*
G37*
%LPD*%
%LPC*%
G36*
X31407Y117479D02*
X31407Y117479D01*
X27540Y119081D01*
X24581Y122040D01*
X22979Y125907D01*
X22979Y130093D01*
X24581Y133960D01*
X27540Y136919D01*
X31407Y138521D01*
X35593Y138521D01*
X39460Y136919D01*
X42419Y133960D01*
X44021Y130093D01*
X44021Y125907D01*
X42419Y122040D01*
X39460Y119081D01*
X35593Y117479D01*
X31407Y117479D01*
G37*
%LPD*%
%LPC*%
G36*
X107607Y117479D02*
X107607Y117479D01*
X103740Y119081D01*
X100781Y122040D01*
X99179Y125907D01*
X99179Y130093D01*
X100781Y133960D01*
X103740Y136919D01*
X107607Y138521D01*
X111793Y138521D01*
X115660Y136919D01*
X118619Y133960D01*
X120221Y130093D01*
X120221Y125907D01*
X118619Y122040D01*
X115660Y119081D01*
X111793Y117479D01*
X107607Y117479D01*
G37*
%LPD*%
%LPC*%
G36*
X590207Y117479D02*
X590207Y117479D01*
X586340Y119081D01*
X583381Y122040D01*
X581779Y125907D01*
X581779Y130093D01*
X583381Y133960D01*
X586340Y136919D01*
X590207Y138521D01*
X594393Y138521D01*
X598260Y136919D01*
X601219Y133960D01*
X602821Y130093D01*
X602821Y125907D01*
X601219Y122040D01*
X598260Y119081D01*
X594393Y117479D01*
X590207Y117479D01*
G37*
%LPD*%
%LPC*%
G36*
X666407Y117229D02*
X666407Y117229D01*
X662540Y118831D01*
X659581Y121791D01*
X657979Y125657D01*
X657979Y129843D01*
X659581Y133710D01*
X662540Y136669D01*
X666407Y138271D01*
X670593Y138271D01*
X674460Y136669D01*
X677419Y133710D01*
X679021Y129843D01*
X679021Y125657D01*
X677419Y121791D01*
X674460Y118831D01*
X670593Y117229D01*
X666407Y117229D01*
G37*
%LPD*%
%LPC*%
G36*
X641007Y117229D02*
X641007Y117229D01*
X637140Y118831D01*
X634181Y121791D01*
X632579Y125657D01*
X632579Y129843D01*
X634181Y133710D01*
X637140Y136669D01*
X641007Y138271D01*
X645193Y138271D01*
X649060Y136669D01*
X652019Y133710D01*
X653621Y129843D01*
X653621Y125657D01*
X652019Y121791D01*
X649060Y118831D01*
X645193Y117229D01*
X641007Y117229D01*
G37*
%LPD*%
%LPC*%
G36*
X56807Y92079D02*
X56807Y92079D01*
X52940Y93681D01*
X49981Y96640D01*
X48379Y100507D01*
X48379Y104693D01*
X49981Y108560D01*
X52940Y111519D01*
X56807Y113121D01*
X60993Y113121D01*
X64860Y111519D01*
X67819Y108560D01*
X69421Y104693D01*
X69421Y100507D01*
X67819Y96640D01*
X64860Y93681D01*
X60993Y92079D01*
X56807Y92079D01*
G37*
%LPD*%
%LPC*%
G36*
X590207Y488319D02*
X590207Y488319D01*
X586340Y489921D01*
X583381Y492880D01*
X581779Y496747D01*
X581779Y500933D01*
X583381Y504800D01*
X586340Y507759D01*
X590207Y509361D01*
X594393Y509361D01*
X598260Y507759D01*
X601219Y504800D01*
X602821Y500933D01*
X602821Y496747D01*
X601219Y492880D01*
X598260Y489921D01*
X594393Y488319D01*
X590207Y488319D01*
G37*
%LPD*%
%LPC*%
G36*
X56807Y473079D02*
X56807Y473079D01*
X52940Y474681D01*
X49981Y477640D01*
X48379Y481507D01*
X48379Y485693D01*
X49981Y489560D01*
X52940Y492519D01*
X56807Y494121D01*
X60993Y494121D01*
X64860Y492519D01*
X67819Y489560D01*
X69421Y485693D01*
X69421Y481507D01*
X67819Y477640D01*
X64860Y474681D01*
X60993Y473079D01*
X56807Y473079D01*
G37*
%LPD*%
%LPC*%
G36*
X31407Y473079D02*
X31407Y473079D01*
X27540Y474681D01*
X24581Y477640D01*
X22979Y481507D01*
X22979Y485693D01*
X24581Y489560D01*
X27540Y492519D01*
X31407Y494121D01*
X35593Y494121D01*
X39460Y492519D01*
X42419Y489560D01*
X44021Y485693D01*
X44021Y481507D01*
X42419Y477640D01*
X39460Y474681D01*
X35593Y473079D01*
X31407Y473079D01*
G37*
%LPD*%
%LPC*%
G36*
X590207Y462919D02*
X590207Y462919D01*
X586340Y464521D01*
X583381Y467480D01*
X581779Y471347D01*
X581779Y475533D01*
X583381Y479400D01*
X586340Y482359D01*
X590207Y483961D01*
X594393Y483961D01*
X598260Y482359D01*
X601219Y479400D01*
X602821Y475533D01*
X602821Y471347D01*
X601219Y467480D01*
X598260Y464521D01*
X594393Y462919D01*
X590207Y462919D01*
G37*
%LPD*%
%LPC*%
G36*
X31407Y447679D02*
X31407Y447679D01*
X27540Y449281D01*
X24581Y452240D01*
X22979Y456107D01*
X22979Y460293D01*
X24581Y464160D01*
X27540Y467119D01*
X31407Y468721D01*
X35593Y468721D01*
X39460Y467119D01*
X42419Y464160D01*
X44021Y460293D01*
X44021Y456107D01*
X42419Y452240D01*
X39460Y449281D01*
X35593Y447679D01*
X31407Y447679D01*
G37*
%LPD*%
%LPC*%
G36*
X56807Y447679D02*
X56807Y447679D01*
X52940Y449281D01*
X49981Y452240D01*
X48379Y456107D01*
X48379Y460293D01*
X49981Y464160D01*
X52940Y467119D01*
X56807Y468721D01*
X60993Y468721D01*
X64860Y467119D01*
X67819Y464160D01*
X69421Y460293D01*
X69421Y456107D01*
X67819Y452240D01*
X64860Y449281D01*
X60993Y447679D01*
X56807Y447679D01*
G37*
%LPD*%
%LPC*%
G36*
X666407Y447429D02*
X666407Y447429D01*
X662540Y449031D01*
X659581Y451991D01*
X657979Y455857D01*
X657979Y460043D01*
X659581Y463910D01*
X662540Y466869D01*
X666407Y468471D01*
X670593Y468471D01*
X674460Y466869D01*
X677419Y463910D01*
X679021Y460043D01*
X679021Y455857D01*
X677419Y451991D01*
X674460Y449031D01*
X670593Y447429D01*
X666407Y447429D01*
G37*
%LPD*%
%LPC*%
G36*
X590207Y92079D02*
X590207Y92079D01*
X586340Y93681D01*
X583381Y96640D01*
X581779Y100507D01*
X581779Y104693D01*
X583381Y108560D01*
X586340Y111519D01*
X590207Y113121D01*
X594393Y113121D01*
X598260Y111519D01*
X601219Y108560D01*
X602821Y104693D01*
X602821Y100507D01*
X601219Y96640D01*
X598260Y93681D01*
X594393Y92079D01*
X590207Y92079D01*
G37*
%LPD*%
%LPC*%
G36*
X31407Y92079D02*
X31407Y92079D01*
X27540Y93681D01*
X24581Y96640D01*
X22979Y100507D01*
X22979Y104693D01*
X24581Y108560D01*
X27540Y111519D01*
X31407Y113121D01*
X35593Y113121D01*
X39460Y111519D01*
X42419Y108560D01*
X44021Y104693D01*
X44021Y100507D01*
X42419Y96640D01*
X39460Y93681D01*
X35593Y92079D01*
X31407Y92079D01*
G37*
%LPD*%
%LPC*%
G36*
X31407Y422279D02*
X31407Y422279D01*
X27540Y423881D01*
X24581Y426840D01*
X22979Y430707D01*
X22979Y434893D01*
X24581Y438760D01*
X27540Y441719D01*
X31407Y443321D01*
X35593Y443321D01*
X39460Y441719D01*
X42419Y438760D01*
X44021Y434893D01*
X44021Y430707D01*
X42419Y426840D01*
X39460Y423881D01*
X35593Y422279D01*
X31407Y422279D01*
G37*
%LPD*%
%LPC*%
G36*
X666407Y422029D02*
X666407Y422029D01*
X662540Y423631D01*
X659581Y426591D01*
X657979Y430457D01*
X657979Y434643D01*
X659581Y438510D01*
X662540Y441469D01*
X666407Y443071D01*
X670593Y443071D01*
X674460Y441469D01*
X677419Y438510D01*
X679021Y434643D01*
X679021Y430457D01*
X677419Y426591D01*
X674460Y423631D01*
X670593Y422029D01*
X666407Y422029D01*
G37*
%LPD*%
%LPC*%
G36*
X641007Y422029D02*
X641007Y422029D01*
X637140Y423631D01*
X634181Y426591D01*
X632579Y430457D01*
X632579Y434643D01*
X634181Y438510D01*
X637140Y441469D01*
X641007Y443071D01*
X645193Y443071D01*
X649060Y441469D01*
X652019Y438510D01*
X653621Y434643D01*
X653621Y430457D01*
X652019Y426591D01*
X649060Y423631D01*
X645193Y422029D01*
X641007Y422029D01*
G37*
%LPD*%
%LPC*%
G36*
X666407Y91829D02*
X666407Y91829D01*
X662540Y93431D01*
X659581Y96391D01*
X657979Y100257D01*
X657979Y104443D01*
X659581Y108310D01*
X662540Y111269D01*
X666407Y112871D01*
X670593Y112871D01*
X674460Y111269D01*
X677419Y108310D01*
X679021Y104443D01*
X679021Y100257D01*
X677419Y96391D01*
X674460Y93431D01*
X670593Y91829D01*
X666407Y91829D01*
G37*
%LPD*%
%LPC*%
G36*
X641007Y91829D02*
X641007Y91829D01*
X637140Y93431D01*
X634181Y96391D01*
X632579Y100257D01*
X632579Y104443D01*
X634181Y108310D01*
X637140Y111269D01*
X641007Y112871D01*
X645193Y112871D01*
X649060Y111269D01*
X652019Y108310D01*
X653621Y104443D01*
X653621Y100257D01*
X652019Y96391D01*
X649060Y93431D01*
X645193Y91829D01*
X641007Y91829D01*
G37*
%LPD*%
%LPC*%
G36*
X590207Y66679D02*
X590207Y66679D01*
X586340Y68281D01*
X583381Y71240D01*
X581779Y75107D01*
X581779Y79293D01*
X583381Y83160D01*
X586340Y86119D01*
X590207Y87721D01*
X594393Y87721D01*
X598260Y86119D01*
X601219Y83160D01*
X602821Y79293D01*
X602821Y75107D01*
X601219Y71240D01*
X598260Y68281D01*
X594393Y66679D01*
X590207Y66679D01*
G37*
%LPD*%
%LPC*%
G36*
X107607Y66679D02*
X107607Y66679D01*
X103740Y68281D01*
X100781Y71240D01*
X99179Y75107D01*
X99179Y79293D01*
X100781Y83160D01*
X103740Y86119D01*
X107607Y87721D01*
X111793Y87721D01*
X115660Y86119D01*
X118619Y83160D01*
X120221Y79293D01*
X120221Y75107D01*
X118619Y71240D01*
X115660Y68281D01*
X111793Y66679D01*
X107607Y66679D01*
G37*
%LPD*%
%LPC*%
G36*
X56807Y66679D02*
X56807Y66679D01*
X52940Y68281D01*
X49981Y71240D01*
X48379Y75107D01*
X48379Y79293D01*
X49981Y83160D01*
X52940Y86119D01*
X56807Y87721D01*
X60993Y87721D01*
X64860Y86119D01*
X67819Y83160D01*
X69421Y79293D01*
X69421Y75107D01*
X67819Y71240D01*
X64860Y68281D01*
X60993Y66679D01*
X56807Y66679D01*
G37*
%LPD*%
%LPC*%
G36*
X56807Y396879D02*
X56807Y396879D01*
X52940Y398481D01*
X49981Y401440D01*
X48379Y405307D01*
X48379Y409493D01*
X49981Y413360D01*
X52940Y416319D01*
X56807Y417921D01*
X60993Y417921D01*
X64860Y416319D01*
X67819Y413360D01*
X69421Y409493D01*
X69421Y405307D01*
X67819Y401440D01*
X64860Y398481D01*
X60993Y396879D01*
X56807Y396879D01*
G37*
%LPD*%
%LPC*%
G36*
X31407Y396879D02*
X31407Y396879D01*
X27540Y398481D01*
X24581Y401440D01*
X22979Y405307D01*
X22979Y409493D01*
X24581Y413360D01*
X27540Y416319D01*
X31407Y417921D01*
X35593Y417921D01*
X39460Y416319D01*
X42419Y413360D01*
X44021Y409493D01*
X44021Y405307D01*
X42419Y401440D01*
X39460Y398481D01*
X35593Y396879D01*
X31407Y396879D01*
G37*
%LPD*%
%LPC*%
G36*
X666407Y396629D02*
X666407Y396629D01*
X662540Y398231D01*
X659581Y401191D01*
X657979Y405057D01*
X657979Y409243D01*
X659581Y413110D01*
X662540Y416069D01*
X666407Y417671D01*
X670593Y417671D01*
X674460Y416069D01*
X677419Y413110D01*
X679021Y409243D01*
X679021Y405057D01*
X677419Y401191D01*
X674460Y398231D01*
X670593Y396629D01*
X666407Y396629D01*
G37*
%LPD*%
%LPC*%
G36*
X31407Y66679D02*
X31407Y66679D01*
X27540Y68281D01*
X24581Y71240D01*
X22979Y75107D01*
X22979Y79293D01*
X24581Y83160D01*
X27540Y86119D01*
X31407Y87721D01*
X35593Y87721D01*
X39460Y86119D01*
X42419Y83160D01*
X44021Y79293D01*
X44021Y75107D01*
X42419Y71240D01*
X39460Y68281D01*
X35593Y66679D01*
X31407Y66679D01*
G37*
%LPD*%
%LPC*%
G36*
X641007Y66429D02*
X641007Y66429D01*
X637140Y68031D01*
X634181Y70991D01*
X632579Y74857D01*
X632579Y79043D01*
X634181Y82910D01*
X637140Y85869D01*
X641007Y87471D01*
X645193Y87471D01*
X649060Y85869D01*
X652019Y82910D01*
X653621Y79043D01*
X653621Y74857D01*
X652019Y70991D01*
X649060Y68031D01*
X645193Y66429D01*
X641007Y66429D01*
G37*
%LPD*%
%LPC*%
G36*
X666407Y66429D02*
X666407Y66429D01*
X662540Y68031D01*
X659581Y70991D01*
X657979Y74857D01*
X657979Y79043D01*
X659581Y82910D01*
X662540Y85869D01*
X666407Y87471D01*
X670593Y87471D01*
X674460Y85869D01*
X677419Y82910D01*
X679021Y79043D01*
X679021Y74857D01*
X677419Y70991D01*
X674460Y68031D01*
X670593Y66429D01*
X666407Y66429D01*
G37*
%LPD*%
%LPC*%
G36*
X56807Y371479D02*
X56807Y371479D01*
X52940Y373081D01*
X49981Y376040D01*
X48379Y379907D01*
X48379Y384093D01*
X49981Y387960D01*
X52940Y390919D01*
X56807Y392521D01*
X60993Y392521D01*
X64860Y390919D01*
X67819Y387960D01*
X69421Y384093D01*
X69421Y379907D01*
X67819Y376040D01*
X64860Y373081D01*
X60993Y371479D01*
X56807Y371479D01*
G37*
%LPD*%
%LPC*%
G36*
X31407Y371479D02*
X31407Y371479D01*
X27540Y373081D01*
X24581Y376040D01*
X22979Y379907D01*
X22979Y384093D01*
X24581Y387960D01*
X27540Y390919D01*
X31407Y392521D01*
X35593Y392521D01*
X39460Y390919D01*
X42419Y387960D01*
X44021Y384093D01*
X44021Y379907D01*
X42419Y376040D01*
X39460Y373081D01*
X35593Y371479D01*
X31407Y371479D01*
G37*
%LPD*%
%LPC*%
G36*
X107607Y371479D02*
X107607Y371479D01*
X103740Y373081D01*
X100781Y376040D01*
X99179Y379907D01*
X99179Y384093D01*
X100781Y387960D01*
X103740Y390919D01*
X107607Y392521D01*
X111793Y392521D01*
X115660Y390919D01*
X118619Y387960D01*
X120221Y384093D01*
X120221Y379907D01*
X118619Y376040D01*
X115660Y373081D01*
X111793Y371479D01*
X107607Y371479D01*
G37*
%LPD*%
%LPC*%
G36*
X666407Y371229D02*
X666407Y371229D01*
X662540Y372831D01*
X659581Y375791D01*
X657979Y379657D01*
X657979Y383843D01*
X659581Y387710D01*
X662540Y390669D01*
X666407Y392271D01*
X670593Y392271D01*
X674460Y390669D01*
X677419Y387710D01*
X679021Y383843D01*
X679021Y379657D01*
X677419Y375791D01*
X674460Y372831D01*
X670593Y371229D01*
X666407Y371229D01*
G37*
%LPD*%
%LPC*%
G36*
X641007Y371229D02*
X641007Y371229D01*
X637140Y372831D01*
X634181Y375791D01*
X632579Y379657D01*
X632579Y383843D01*
X634181Y387710D01*
X637140Y390669D01*
X641007Y392271D01*
X645193Y392271D01*
X649060Y390669D01*
X652019Y387710D01*
X653621Y383843D01*
X653621Y379657D01*
X652019Y375791D01*
X649060Y372831D01*
X645193Y371229D01*
X641007Y371229D01*
G37*
%LPD*%
%LPC*%
G36*
X107607Y41279D02*
X107607Y41279D01*
X103740Y42881D01*
X100781Y45840D01*
X99179Y49707D01*
X99179Y53893D01*
X100781Y57760D01*
X103740Y60719D01*
X107607Y62321D01*
X111793Y62321D01*
X115660Y60719D01*
X118619Y57760D01*
X120221Y53893D01*
X120221Y49707D01*
X118619Y45840D01*
X115660Y42881D01*
X111793Y41279D01*
X107607Y41279D01*
G37*
%LPD*%
%LPC*%
G36*
X31407Y346079D02*
X31407Y346079D01*
X27540Y347681D01*
X24581Y350640D01*
X22979Y354507D01*
X22979Y358693D01*
X24581Y362560D01*
X27540Y365519D01*
X31407Y367121D01*
X35593Y367121D01*
X39460Y365519D01*
X42419Y362560D01*
X44021Y358693D01*
X44021Y354507D01*
X42419Y350640D01*
X39460Y347681D01*
X35593Y346079D01*
X31407Y346079D01*
G37*
%LPD*%
%LPC*%
G36*
X56807Y346079D02*
X56807Y346079D01*
X52940Y347681D01*
X49981Y350640D01*
X48379Y354507D01*
X48379Y358693D01*
X49981Y362560D01*
X52940Y365519D01*
X56807Y367121D01*
X60993Y367121D01*
X64860Y365519D01*
X67819Y362560D01*
X69421Y358693D01*
X69421Y354507D01*
X67819Y350640D01*
X64860Y347681D01*
X60993Y346079D01*
X56807Y346079D01*
G37*
%LPD*%
%LPC*%
G36*
X107607Y346079D02*
X107607Y346079D01*
X103740Y347681D01*
X100781Y350640D01*
X99179Y354507D01*
X99179Y358693D01*
X100781Y362560D01*
X103740Y365519D01*
X107607Y367121D01*
X111793Y367121D01*
X115660Y365519D01*
X118619Y362560D01*
X120221Y358693D01*
X120221Y354507D01*
X118619Y350640D01*
X115660Y347681D01*
X111793Y346079D01*
X107607Y346079D01*
G37*
%LPD*%
%LPC*%
G36*
X666407Y345829D02*
X666407Y345829D01*
X662540Y347431D01*
X659581Y350391D01*
X657979Y354257D01*
X657979Y358443D01*
X659581Y362310D01*
X662540Y365269D01*
X666407Y366871D01*
X670593Y366871D01*
X674460Y365269D01*
X677419Y362310D01*
X679021Y358443D01*
X679021Y354257D01*
X677419Y350391D01*
X674460Y347431D01*
X670593Y345829D01*
X666407Y345829D01*
G37*
%LPD*%
%LPC*%
G36*
X590207Y335919D02*
X590207Y335919D01*
X586340Y337521D01*
X583381Y340480D01*
X581779Y344347D01*
X581779Y348533D01*
X583381Y352400D01*
X586340Y355359D01*
X590207Y356961D01*
X594393Y356961D01*
X598260Y355359D01*
X601219Y352400D01*
X602821Y348533D01*
X602821Y344347D01*
X601219Y340480D01*
X598260Y337521D01*
X594393Y335919D01*
X590207Y335919D01*
G37*
%LPD*%
%LPC*%
G36*
X56807Y320679D02*
X56807Y320679D01*
X52940Y322281D01*
X49981Y325240D01*
X48379Y329107D01*
X48379Y333293D01*
X49981Y337160D01*
X52940Y340119D01*
X56807Y341721D01*
X60993Y341721D01*
X64860Y340119D01*
X67819Y337160D01*
X69421Y333293D01*
X69421Y329107D01*
X67819Y325240D01*
X64860Y322281D01*
X60993Y320679D01*
X56807Y320679D01*
G37*
%LPD*%
%LPC*%
G36*
X107607Y320679D02*
X107607Y320679D01*
X103740Y322281D01*
X100781Y325240D01*
X99179Y329107D01*
X99179Y333293D01*
X100781Y337160D01*
X103740Y340119D01*
X107607Y341721D01*
X111793Y341721D01*
X115660Y340119D01*
X118619Y337160D01*
X120221Y333293D01*
X120221Y329107D01*
X118619Y325240D01*
X115660Y322281D01*
X111793Y320679D01*
X107607Y320679D01*
G37*
%LPD*%
%LPC*%
G36*
X31407Y320679D02*
X31407Y320679D01*
X27540Y322281D01*
X24581Y325240D01*
X22979Y329107D01*
X22979Y333293D01*
X24581Y337160D01*
X27540Y340119D01*
X31407Y341721D01*
X35593Y341721D01*
X39460Y340119D01*
X42419Y337160D01*
X44021Y333293D01*
X44021Y329107D01*
X42419Y325240D01*
X39460Y322281D01*
X35593Y320679D01*
X31407Y320679D01*
G37*
%LPD*%
%LPC*%
G36*
X590207Y310519D02*
X590207Y310519D01*
X586340Y312121D01*
X583381Y315080D01*
X581779Y318947D01*
X581779Y323133D01*
X583381Y327000D01*
X586340Y329959D01*
X590207Y331561D01*
X594393Y331561D01*
X598260Y329959D01*
X601219Y327000D01*
X602821Y323133D01*
X602821Y318947D01*
X601219Y315080D01*
X598260Y312121D01*
X594393Y310519D01*
X590207Y310519D01*
G37*
%LPD*%
%LPC*%
G36*
X107607Y295279D02*
X107607Y295279D01*
X103740Y296881D01*
X100781Y299840D01*
X99179Y303707D01*
X99179Y307893D01*
X100781Y311760D01*
X103740Y314719D01*
X107607Y316321D01*
X111793Y316321D01*
X115660Y314719D01*
X118619Y311760D01*
X120221Y307893D01*
X120221Y303707D01*
X118619Y299840D01*
X115660Y296881D01*
X111793Y295279D01*
X107607Y295279D01*
G37*
%LPD*%
%LPC*%
G36*
X56807Y295279D02*
X56807Y295279D01*
X52940Y296881D01*
X49981Y299840D01*
X48379Y303707D01*
X48379Y307893D01*
X49981Y311760D01*
X52940Y314719D01*
X56807Y316321D01*
X60993Y316321D01*
X64860Y314719D01*
X67819Y311760D01*
X69421Y307893D01*
X69421Y303707D01*
X67819Y299840D01*
X64860Y296881D01*
X60993Y295279D01*
X56807Y295279D01*
G37*
%LPD*%
%LPC*%
G36*
X31407Y295279D02*
X31407Y295279D01*
X27540Y296881D01*
X24581Y299840D01*
X22979Y303707D01*
X22979Y307893D01*
X24581Y311760D01*
X27540Y314719D01*
X31407Y316321D01*
X35593Y316321D01*
X39460Y314719D01*
X42419Y311760D01*
X44021Y307893D01*
X44021Y303707D01*
X42419Y299840D01*
X39460Y296881D01*
X35593Y295279D01*
X31407Y295279D01*
G37*
%LPD*%
%LPC*%
G36*
X666407Y295029D02*
X666407Y295029D01*
X662540Y296631D01*
X659581Y299591D01*
X657979Y303457D01*
X657979Y307643D01*
X659581Y311510D01*
X662540Y314469D01*
X666407Y316071D01*
X670593Y316071D01*
X674460Y314469D01*
X677419Y311510D01*
X679021Y307643D01*
X679021Y303457D01*
X677419Y299591D01*
X674460Y296631D01*
X670593Y295029D01*
X666407Y295029D01*
G37*
%LPD*%
%LPC*%
G36*
X641007Y295029D02*
X641007Y295029D01*
X637140Y296631D01*
X634181Y299591D01*
X632579Y303457D01*
X632579Y307643D01*
X634181Y311510D01*
X637140Y314469D01*
X641007Y316071D01*
X645193Y316071D01*
X649060Y314469D01*
X652019Y311510D01*
X653621Y307643D01*
X653621Y303457D01*
X652019Y299591D01*
X649060Y296631D01*
X645193Y295029D01*
X641007Y295029D01*
G37*
%LPD*%
%LPC*%
G36*
X56807Y41279D02*
X56807Y41279D01*
X52940Y42881D01*
X49981Y45840D01*
X48379Y49707D01*
X48379Y53893D01*
X49981Y57760D01*
X52940Y60719D01*
X56807Y62321D01*
X60993Y62321D01*
X64860Y60719D01*
X67819Y57760D01*
X69421Y53893D01*
X69421Y49707D01*
X67819Y45840D01*
X64860Y42881D01*
X60993Y41279D01*
X56807Y41279D01*
G37*
%LPD*%
%LPC*%
G36*
X590207Y285119D02*
X590207Y285119D01*
X586340Y286721D01*
X583381Y289680D01*
X581779Y293547D01*
X581779Y297733D01*
X583381Y301600D01*
X586340Y304559D01*
X590207Y306161D01*
X594393Y306161D01*
X598260Y304559D01*
X601219Y301600D01*
X602821Y297733D01*
X602821Y293547D01*
X601219Y289680D01*
X598260Y286721D01*
X594393Y285119D01*
X590207Y285119D01*
G37*
%LPD*%
%LPC*%
G36*
X641007Y41029D02*
X641007Y41029D01*
X637140Y42631D01*
X634181Y45591D01*
X632579Y49457D01*
X632579Y53643D01*
X634181Y57510D01*
X637140Y60469D01*
X641007Y62071D01*
X645193Y62071D01*
X649060Y60469D01*
X652019Y57510D01*
X653621Y53643D01*
X653621Y49457D01*
X652019Y45591D01*
X649060Y42631D01*
X645193Y41029D01*
X641007Y41029D01*
G37*
%LPD*%
%LPC*%
G36*
X666407Y41029D02*
X666407Y41029D01*
X662540Y42631D01*
X659581Y45591D01*
X657979Y49457D01*
X657979Y53643D01*
X659581Y57510D01*
X662540Y60469D01*
X666407Y62071D01*
X670593Y62071D01*
X674460Y60469D01*
X677419Y57510D01*
X679021Y53643D01*
X679021Y49457D01*
X677419Y45591D01*
X674460Y42631D01*
X670593Y41029D01*
X666407Y41029D01*
G37*
%LPD*%
%LPC*%
G36*
X641007Y269629D02*
X641007Y269629D01*
X637140Y271231D01*
X634181Y274191D01*
X632579Y278057D01*
X632579Y282243D01*
X634181Y286110D01*
X637140Y289069D01*
X641007Y290671D01*
X645193Y290671D01*
X649060Y289069D01*
X652019Y286110D01*
X653621Y282243D01*
X653621Y278057D01*
X652019Y274191D01*
X649060Y271231D01*
X645193Y269629D01*
X641007Y269629D01*
G37*
%LPD*%
%LPC*%
G36*
X31407Y41279D02*
X31407Y41279D01*
X27540Y42881D01*
X24581Y45840D01*
X22979Y49707D01*
X22979Y53893D01*
X24581Y57760D01*
X27540Y60719D01*
X31407Y62321D01*
X35593Y62321D01*
X39460Y60719D01*
X42419Y57760D01*
X44021Y53893D01*
X44021Y49707D01*
X42419Y45840D01*
X39460Y42881D01*
X35593Y41279D01*
X31407Y41279D01*
G37*
%LPD*%
%LPC*%
G36*
X31407Y244479D02*
X31407Y244479D01*
X27540Y246081D01*
X24581Y249040D01*
X22979Y252907D01*
X22979Y257093D01*
X24581Y260960D01*
X27540Y263919D01*
X31407Y265521D01*
X35593Y265521D01*
X39460Y263919D01*
X42419Y260960D01*
X44021Y257093D01*
X44021Y252907D01*
X42419Y249040D01*
X39460Y246081D01*
X35593Y244479D01*
X31407Y244479D01*
G37*
%LPD*%
%LPC*%
G36*
X641007Y244229D02*
X641007Y244229D01*
X637140Y245831D01*
X634181Y248791D01*
X632579Y252657D01*
X632579Y256843D01*
X634181Y260710D01*
X637140Y263669D01*
X641007Y265271D01*
X645193Y265271D01*
X649060Y263669D01*
X652019Y260710D01*
X653621Y256843D01*
X653621Y252657D01*
X652019Y248791D01*
X649060Y245831D01*
X645193Y244229D01*
X641007Y244229D01*
G37*
%LPD*%
%LPC*%
G36*
X666407Y244229D02*
X666407Y244229D01*
X662540Y245831D01*
X659581Y248791D01*
X657979Y252657D01*
X657979Y256843D01*
X659581Y260710D01*
X662540Y263669D01*
X666407Y265271D01*
X670593Y265271D01*
X674460Y263669D01*
X677419Y260710D01*
X679021Y256843D01*
X679021Y252657D01*
X677419Y248791D01*
X674460Y245831D01*
X670593Y244229D01*
X666407Y244229D01*
G37*
%LPD*%
%LPC*%
G36*
X56807Y219079D02*
X56807Y219079D01*
X52940Y220681D01*
X49981Y223640D01*
X48379Y227507D01*
X48379Y231693D01*
X49981Y235560D01*
X52940Y238519D01*
X56807Y240121D01*
X60993Y240121D01*
X64860Y238519D01*
X67819Y235560D01*
X69421Y231693D01*
X69421Y227507D01*
X67819Y223640D01*
X64860Y220681D01*
X60993Y219079D01*
X56807Y219079D01*
G37*
%LPD*%
%LPC*%
G36*
X31407Y219079D02*
X31407Y219079D01*
X27540Y220681D01*
X24581Y223640D01*
X22979Y227507D01*
X22979Y231693D01*
X24581Y235560D01*
X27540Y238519D01*
X31407Y240121D01*
X35593Y240121D01*
X39460Y238519D01*
X42419Y235560D01*
X44021Y231693D01*
X44021Y227507D01*
X42419Y223640D01*
X39460Y220681D01*
X35593Y219079D01*
X31407Y219079D01*
G37*
%LPD*%
%LPC*%
G36*
X107607Y219079D02*
X107607Y219079D01*
X103740Y220681D01*
X100781Y223640D01*
X99179Y227507D01*
X99179Y231693D01*
X100781Y235560D01*
X103740Y238519D01*
X107607Y240121D01*
X111793Y240121D01*
X115660Y238519D01*
X118619Y235560D01*
X120221Y231693D01*
X120221Y227507D01*
X118619Y223640D01*
X115660Y220681D01*
X111793Y219079D01*
X107607Y219079D01*
G37*
%LPD*%
%LPC*%
G36*
X641007Y218829D02*
X641007Y218829D01*
X637140Y220431D01*
X634181Y223391D01*
X632579Y227257D01*
X632579Y231443D01*
X634181Y235310D01*
X637140Y238269D01*
X641007Y239871D01*
X645193Y239871D01*
X649060Y238269D01*
X652019Y235310D01*
X653621Y231443D01*
X653621Y227257D01*
X652019Y223391D01*
X649060Y220431D01*
X645193Y218829D01*
X641007Y218829D01*
G37*
%LPD*%
%LPC*%
G36*
X666407Y218829D02*
X666407Y218829D01*
X662540Y220431D01*
X659581Y223391D01*
X657979Y227257D01*
X657979Y231443D01*
X659581Y235310D01*
X662540Y238269D01*
X666407Y239871D01*
X670593Y239871D01*
X674460Y238269D01*
X677419Y235310D01*
X679021Y231443D01*
X679021Y227257D01*
X677419Y223391D01*
X674460Y220431D01*
X670593Y218829D01*
X666407Y218829D01*
G37*
%LPD*%
%LPC*%
G36*
X56807Y193679D02*
X56807Y193679D01*
X52940Y195281D01*
X49981Y198240D01*
X48379Y202107D01*
X48379Y206293D01*
X49981Y210160D01*
X52940Y213119D01*
X56807Y214721D01*
X60993Y214721D01*
X64860Y213119D01*
X67819Y210160D01*
X69421Y206293D01*
X69421Y202107D01*
X67819Y198240D01*
X64860Y195281D01*
X60993Y193679D01*
X56807Y193679D01*
G37*
%LPD*%
%LPC*%
G36*
X31407Y193679D02*
X31407Y193679D01*
X27540Y195281D01*
X24581Y198240D01*
X22979Y202107D01*
X22979Y206293D01*
X24581Y210160D01*
X27540Y213119D01*
X31407Y214721D01*
X35593Y214721D01*
X39460Y213119D01*
X42419Y210160D01*
X44021Y206293D01*
X44021Y202107D01*
X42419Y198240D01*
X39460Y195281D01*
X35593Y193679D01*
X31407Y193679D01*
G37*
%LPD*%
%LPC*%
G36*
X641007Y193429D02*
X641007Y193429D01*
X637140Y195031D01*
X634181Y197991D01*
X632579Y201857D01*
X632579Y206043D01*
X634181Y209910D01*
X637140Y212869D01*
X641007Y214471D01*
X645193Y214471D01*
X649060Y212869D01*
X652019Y209910D01*
X653621Y206043D01*
X653621Y201857D01*
X652019Y197991D01*
X649060Y195031D01*
X645193Y193429D01*
X641007Y193429D01*
G37*
%LPD*%
%LPC*%
G36*
X666407Y193429D02*
X666407Y193429D01*
X662540Y195031D01*
X659581Y197991D01*
X657979Y201857D01*
X657979Y206043D01*
X659581Y209910D01*
X662540Y212869D01*
X666407Y214471D01*
X670593Y214471D01*
X674460Y212869D01*
X677419Y209910D01*
X679021Y206043D01*
X679021Y201857D01*
X677419Y197991D01*
X674460Y195031D01*
X670593Y193429D01*
X666407Y193429D01*
G37*
%LPD*%
%LPC*%
G36*
X56807Y168279D02*
X56807Y168279D01*
X52940Y169881D01*
X49981Y172840D01*
X48379Y176707D01*
X48379Y180893D01*
X49981Y184760D01*
X52940Y187719D01*
X56807Y189321D01*
X60993Y189321D01*
X64860Y187719D01*
X67819Y184760D01*
X69421Y180893D01*
X69421Y176707D01*
X67819Y172840D01*
X64860Y169881D01*
X60993Y168279D01*
X56807Y168279D01*
G37*
%LPD*%
%LPC*%
G36*
X31407Y168279D02*
X31407Y168279D01*
X27540Y169881D01*
X24581Y172840D01*
X22979Y176707D01*
X22979Y180893D01*
X24581Y184760D01*
X27540Y187719D01*
X31407Y189321D01*
X35593Y189321D01*
X39460Y187719D01*
X42419Y184760D01*
X44021Y180893D01*
X44021Y176707D01*
X42419Y172840D01*
X39460Y169881D01*
X35593Y168279D01*
X31407Y168279D01*
G37*
%LPD*%
%LPC*%
G36*
X641007Y168029D02*
X641007Y168029D01*
X637140Y169631D01*
X634181Y172591D01*
X632579Y176457D01*
X632579Y180643D01*
X634181Y184510D01*
X637140Y187469D01*
X641007Y189071D01*
X645193Y189071D01*
X649060Y187469D01*
X652019Y184510D01*
X653621Y180643D01*
X653621Y176457D01*
X652019Y172591D01*
X649060Y169631D01*
X645193Y168029D01*
X641007Y168029D01*
G37*
%LPD*%
%LPC*%
G36*
X666407Y168029D02*
X666407Y168029D01*
X662540Y169631D01*
X659581Y172591D01*
X657979Y176457D01*
X657979Y180643D01*
X659581Y184510D01*
X662540Y187469D01*
X666407Y189071D01*
X670593Y189071D01*
X674460Y187469D01*
X677419Y184510D01*
X679021Y180643D01*
X679021Y176457D01*
X677419Y172591D01*
X674460Y169631D01*
X670593Y168029D01*
X666407Y168029D01*
G37*
%LPD*%
%LPC*%
G36*
X590207Y142879D02*
X590207Y142879D01*
X586340Y144481D01*
X583381Y147440D01*
X581779Y151307D01*
X581779Y155493D01*
X583381Y159360D01*
X586340Y162319D01*
X590207Y163921D01*
X594393Y163921D01*
X598260Y162319D01*
X601219Y159360D01*
X602821Y155493D01*
X602821Y151307D01*
X601219Y147440D01*
X598260Y144481D01*
X594393Y142879D01*
X590207Y142879D01*
G37*
%LPD*%
%LPC*%
G36*
X218433Y131217D02*
X218433Y131217D01*
X216217Y133433D01*
X216217Y136567D01*
X218433Y138783D01*
X221567Y138783D01*
X223094Y137256D01*
X223168Y137203D01*
X223237Y137143D01*
X223267Y137131D01*
X223294Y137112D01*
X223381Y137085D01*
X223465Y137051D01*
X223506Y137047D01*
X223529Y137040D01*
X223561Y137041D01*
X223632Y137033D01*
X282956Y137033D01*
X282976Y137036D01*
X282995Y137034D01*
X283097Y137056D01*
X283199Y137072D01*
X283216Y137082D01*
X283236Y137086D01*
X283325Y137139D01*
X283416Y137188D01*
X283430Y137202D01*
X283447Y137212D01*
X283514Y137291D01*
X283586Y137366D01*
X283594Y137384D01*
X283607Y137399D01*
X283646Y137495D01*
X283689Y137589D01*
X283691Y137609D01*
X283699Y137627D01*
X283717Y137794D01*
X283717Y139067D01*
X285933Y141283D01*
X289067Y141283D01*
X291283Y139067D01*
X291283Y135933D01*
X289067Y133717D01*
X286907Y133717D01*
X286817Y133703D01*
X286726Y133695D01*
X286697Y133683D01*
X286665Y133678D01*
X286584Y133635D01*
X286500Y133599D01*
X286468Y133573D01*
X286447Y133562D01*
X286429Y133543D01*
X286427Y133542D01*
X286421Y133536D01*
X286369Y133494D01*
X285842Y132967D01*
X223632Y132967D01*
X223542Y132953D01*
X223451Y132945D01*
X223421Y132933D01*
X223389Y132928D01*
X223309Y132885D01*
X223225Y132849D01*
X223193Y132823D01*
X223172Y132812D01*
X223150Y132789D01*
X223094Y132744D01*
X221567Y131217D01*
X218433Y131217D01*
G37*
%LPD*%
%LPC*%
G36*
X246046Y521134D02*
X246046Y521134D01*
X244983Y521574D01*
X244027Y522213D01*
X243213Y523027D01*
X242574Y523983D01*
X242185Y524922D01*
X242122Y525024D01*
X242059Y525127D01*
X242057Y525129D01*
X242056Y525131D01*
X241964Y525207D01*
X241870Y525285D01*
X241868Y525286D01*
X241866Y525288D01*
X241755Y525330D01*
X241641Y525375D01*
X241639Y525375D01*
X241637Y525376D01*
X241516Y525381D01*
X241396Y525387D01*
X241393Y525386D01*
X241391Y525386D01*
X241302Y525360D01*
X241294Y525360D01*
X241283Y525355D01*
X241275Y525352D01*
X241159Y525320D01*
X241157Y525318D01*
X241155Y525318D01*
X241090Y525273D01*
X241068Y525263D01*
X241016Y525222D01*
X240956Y525181D01*
X240954Y525178D01*
X240953Y525177D01*
X240948Y525171D01*
X240938Y525160D01*
X240937Y525159D01*
X239694Y523916D01*
X238296Y522981D01*
X236741Y522337D01*
X235749Y522140D01*
X235749Y535812D01*
X235746Y535831D01*
X235748Y535851D01*
X235726Y535953D01*
X235710Y536055D01*
X235700Y536072D01*
X235696Y536092D01*
X235643Y536181D01*
X235594Y536272D01*
X235580Y536286D01*
X235570Y536303D01*
X235491Y536370D01*
X235416Y536441D01*
X235398Y536450D01*
X235383Y536463D01*
X235287Y536501D01*
X235193Y536545D01*
X235173Y536547D01*
X235155Y536554D01*
X235231Y536567D01*
X235248Y536576D01*
X235268Y536580D01*
X235357Y536633D01*
X235448Y536682D01*
X235462Y536696D01*
X235479Y536706D01*
X235546Y536785D01*
X235618Y536860D01*
X235626Y536878D01*
X235639Y536893D01*
X235678Y536990D01*
X235721Y537083D01*
X235723Y537103D01*
X235731Y537121D01*
X235749Y537288D01*
X235749Y550960D01*
X236741Y550763D01*
X238296Y550119D01*
X239694Y549184D01*
X240884Y547994D01*
X241819Y546596D01*
X242463Y545041D01*
X242486Y544921D01*
X242528Y544809D01*
X242570Y544696D01*
X242572Y544694D01*
X242573Y544691D01*
X242648Y544598D01*
X242723Y544504D01*
X242726Y544503D01*
X242728Y544500D01*
X242830Y544436D01*
X242930Y544371D01*
X242933Y544370D01*
X242936Y544369D01*
X243053Y544340D01*
X243169Y544311D01*
X243172Y544311D01*
X243175Y544311D01*
X243296Y544321D01*
X243414Y544330D01*
X243417Y544331D01*
X243420Y544332D01*
X243532Y544380D01*
X243640Y544427D01*
X243643Y544429D01*
X243646Y544430D01*
X243654Y544437D01*
X243771Y544531D01*
X244027Y544787D01*
X244983Y545426D01*
X246046Y545866D01*
X246751Y546006D01*
X246751Y540488D01*
X246754Y540469D01*
X246752Y540449D01*
X246774Y540347D01*
X246790Y540245D01*
X246791Y540244D01*
X246779Y540217D01*
X246777Y540197D01*
X246769Y540179D01*
X246751Y540012D01*
X246751Y534494D01*
X246046Y534634D01*
X244983Y535074D01*
X243975Y535748D01*
X243866Y535797D01*
X243757Y535848D01*
X243754Y535848D01*
X243751Y535850D01*
X243631Y535862D01*
X243513Y535875D01*
X243509Y535874D01*
X243506Y535875D01*
X243390Y535848D01*
X243272Y535823D01*
X243269Y535821D01*
X243266Y535821D01*
X243164Y535758D01*
X243061Y535697D01*
X243059Y535694D01*
X243056Y535693D01*
X242979Y535601D01*
X242901Y535510D01*
X242900Y535507D01*
X242898Y535504D01*
X242854Y535394D01*
X242809Y535282D01*
X242809Y535278D01*
X242808Y535276D01*
X242807Y535265D01*
X242791Y535115D01*
X242791Y531885D01*
X242810Y531768D01*
X242829Y531648D01*
X242830Y531645D01*
X242830Y531642D01*
X242886Y531537D01*
X242942Y531430D01*
X242944Y531428D01*
X242946Y531425D01*
X243032Y531343D01*
X243119Y531259D01*
X243122Y531258D01*
X243124Y531256D01*
X243232Y531206D01*
X243341Y531154D01*
X243344Y531153D01*
X243347Y531152D01*
X243465Y531139D01*
X243585Y531125D01*
X243588Y531125D01*
X243591Y531125D01*
X243708Y531150D01*
X243826Y531175D01*
X243829Y531177D01*
X243832Y531177D01*
X243841Y531183D01*
X243975Y531252D01*
X244983Y531926D01*
X246046Y532366D01*
X246751Y532506D01*
X246751Y526988D01*
X246754Y526969D01*
X246752Y526949D01*
X246774Y526847D01*
X246790Y526745D01*
X246791Y526744D01*
X246779Y526717D01*
X246777Y526697D01*
X246769Y526679D01*
X246751Y526512D01*
X246751Y520994D01*
X246046Y521134D01*
G37*
%LPD*%
%LPC*%
G36*
X308249Y526512D02*
X308249Y526512D01*
X308247Y526528D01*
X308248Y526541D01*
X308248Y526545D01*
X308248Y526551D01*
X308226Y526653D01*
X308210Y526755D01*
X308209Y526756D01*
X308221Y526783D01*
X308223Y526803D01*
X308231Y526821D01*
X308249Y526988D01*
X308249Y532506D01*
X308954Y532366D01*
X310017Y531926D01*
X311025Y531252D01*
X311134Y531203D01*
X311243Y531152D01*
X311246Y531152D01*
X311249Y531150D01*
X311369Y531138D01*
X311487Y531125D01*
X311491Y531126D01*
X311494Y531125D01*
X311610Y531152D01*
X311728Y531177D01*
X311731Y531179D01*
X311734Y531179D01*
X311836Y531242D01*
X311939Y531303D01*
X311941Y531306D01*
X311944Y531307D01*
X312021Y531399D01*
X312099Y531490D01*
X312100Y531493D01*
X312102Y531496D01*
X312146Y531606D01*
X312191Y531718D01*
X312191Y531722D01*
X312192Y531724D01*
X312193Y531735D01*
X312209Y531885D01*
X312209Y535115D01*
X312190Y535232D01*
X312171Y535352D01*
X312170Y535355D01*
X312170Y535358D01*
X312114Y535463D01*
X312058Y535570D01*
X312056Y535572D01*
X312054Y535575D01*
X311970Y535655D01*
X311881Y535741D01*
X311878Y535742D01*
X311876Y535744D01*
X311768Y535794D01*
X311659Y535846D01*
X311656Y535847D01*
X311653Y535848D01*
X311535Y535861D01*
X311415Y535875D01*
X311412Y535875D01*
X311409Y535875D01*
X311292Y535850D01*
X311174Y535825D01*
X311171Y535823D01*
X311168Y535823D01*
X311159Y535817D01*
X311025Y535748D01*
X310017Y535074D01*
X308954Y534634D01*
X308249Y534494D01*
X308249Y540012D01*
X308246Y540031D01*
X308248Y540051D01*
X308226Y540153D01*
X308210Y540255D01*
X308209Y540256D01*
X308221Y540283D01*
X308223Y540303D01*
X308231Y540321D01*
X308249Y540488D01*
X308249Y546006D01*
X308954Y545866D01*
X310017Y545426D01*
X310973Y544787D01*
X311229Y544531D01*
X311324Y544463D01*
X311423Y544391D01*
X311426Y544390D01*
X311428Y544388D01*
X311540Y544353D01*
X311657Y544316D01*
X311661Y544316D01*
X311664Y544315D01*
X311782Y544319D01*
X311903Y544321D01*
X311906Y544322D01*
X311909Y544322D01*
X312023Y544363D01*
X312135Y544403D01*
X312137Y544405D01*
X312140Y544406D01*
X312235Y544482D01*
X312328Y544555D01*
X312330Y544558D01*
X312332Y544560D01*
X312398Y544662D01*
X312463Y544761D01*
X312464Y544765D01*
X312465Y544767D01*
X312468Y544778D01*
X312514Y544921D01*
X312537Y545041D01*
X313181Y546596D01*
X314116Y547994D01*
X315306Y549184D01*
X316704Y550119D01*
X318259Y550763D01*
X319251Y550960D01*
X319251Y537288D01*
X319254Y537269D01*
X319252Y537249D01*
X319274Y537147D01*
X319290Y537045D01*
X319300Y537028D01*
X319304Y537008D01*
X319357Y536919D01*
X319406Y536828D01*
X319420Y536814D01*
X319430Y536797D01*
X319509Y536730D01*
X319584Y536659D01*
X319602Y536650D01*
X319617Y536637D01*
X319713Y536599D01*
X319807Y536555D01*
X319827Y536553D01*
X319845Y536546D01*
X319769Y536533D01*
X319752Y536524D01*
X319732Y536520D01*
X319643Y536467D01*
X319552Y536418D01*
X319538Y536404D01*
X319521Y536394D01*
X319454Y536315D01*
X319382Y536240D01*
X319374Y536222D01*
X319361Y536207D01*
X319322Y536110D01*
X319279Y536017D01*
X319277Y535997D01*
X319269Y535979D01*
X319251Y535812D01*
X319251Y522140D01*
X318259Y522337D01*
X316704Y522981D01*
X315306Y523916D01*
X314063Y525159D01*
X314033Y525180D01*
X313988Y525229D01*
X313985Y525231D01*
X313983Y525233D01*
X313888Y525284D01*
X313863Y525302D01*
X313846Y525308D01*
X313772Y525348D01*
X313769Y525348D01*
X313767Y525350D01*
X313649Y525370D01*
X313633Y525373D01*
X313628Y525375D01*
X313625Y525374D01*
X313530Y525392D01*
X313527Y525391D01*
X313524Y525392D01*
X313408Y525374D01*
X313287Y525356D01*
X313284Y525354D01*
X313281Y525354D01*
X313175Y525299D01*
X313068Y525244D01*
X313066Y525242D01*
X313063Y525241D01*
X312977Y525152D01*
X312896Y525069D01*
X312894Y525066D01*
X312892Y525064D01*
X312887Y525054D01*
X312815Y524922D01*
X312426Y523983D01*
X311787Y523027D01*
X310973Y522213D01*
X310017Y521574D01*
X308954Y521134D01*
X308249Y520994D01*
X308249Y526512D01*
G37*
%LPD*%
%LPC*%
G36*
X370933Y256217D02*
X370933Y256217D01*
X368717Y258433D01*
X368717Y261567D01*
X370244Y263094D01*
X370297Y263168D01*
X370357Y263237D01*
X370369Y263267D01*
X370388Y263294D01*
X370415Y263381D01*
X370449Y263465D01*
X370453Y263506D01*
X370460Y263529D01*
X370459Y263561D01*
X370467Y263632D01*
X370467Y300456D01*
X370464Y300476D01*
X370466Y300495D01*
X370444Y300597D01*
X370428Y300699D01*
X370418Y300716D01*
X370414Y300736D01*
X370361Y300825D01*
X370312Y300916D01*
X370298Y300930D01*
X370288Y300947D01*
X370209Y301014D01*
X370134Y301086D01*
X370116Y301094D01*
X370101Y301107D01*
X370005Y301146D01*
X369911Y301189D01*
X369891Y301191D01*
X369873Y301199D01*
X369706Y301217D01*
X368433Y301217D01*
X366217Y303433D01*
X366217Y306567D01*
X368433Y308783D01*
X371567Y308783D01*
X373783Y306567D01*
X373783Y304407D01*
X373798Y304317D01*
X373805Y304226D01*
X373817Y304197D01*
X373822Y304165D01*
X373865Y304084D01*
X373901Y304000D01*
X373927Y303968D01*
X373938Y303947D01*
X373961Y303925D01*
X374006Y303869D01*
X374533Y303342D01*
X374533Y263632D01*
X374547Y263542D01*
X374555Y263451D01*
X374567Y263421D01*
X374572Y263389D01*
X374615Y263309D01*
X374651Y263225D01*
X374677Y263193D01*
X374688Y263172D01*
X374711Y263150D01*
X374756Y263094D01*
X376283Y261567D01*
X376283Y258433D01*
X374067Y256217D01*
X370933Y256217D01*
G37*
%LPD*%
%LPC*%
G36*
X360933Y346217D02*
X360933Y346217D01*
X358717Y348433D01*
X358717Y351567D01*
X360244Y353094D01*
X360297Y353168D01*
X360357Y353237D01*
X360369Y353267D01*
X360388Y353294D01*
X360415Y353381D01*
X360449Y353465D01*
X360453Y353506D01*
X360460Y353529D01*
X360459Y353561D01*
X360467Y353632D01*
X360467Y378868D01*
X360453Y378958D01*
X360445Y379049D01*
X360433Y379079D01*
X360428Y379111D01*
X360385Y379191D01*
X360349Y379275D01*
X360323Y379307D01*
X360312Y379328D01*
X360289Y379350D01*
X360244Y379406D01*
X358717Y380933D01*
X358717Y384067D01*
X360933Y386283D01*
X364067Y386283D01*
X366283Y384067D01*
X366283Y380933D01*
X364756Y379406D01*
X364703Y379332D01*
X364643Y379263D01*
X364631Y379233D01*
X364612Y379206D01*
X364585Y379119D01*
X364551Y379035D01*
X364547Y378994D01*
X364540Y378971D01*
X364541Y378939D01*
X364533Y378868D01*
X364533Y353632D01*
X364547Y353542D01*
X364555Y353451D01*
X364567Y353421D01*
X364572Y353389D01*
X364615Y353309D01*
X364651Y353225D01*
X364677Y353193D01*
X364688Y353172D01*
X364711Y353150D01*
X364756Y353094D01*
X366283Y351567D01*
X366283Y348433D01*
X364067Y346217D01*
X360933Y346217D01*
G37*
%LPD*%
%LPC*%
G36*
X187900Y20929D02*
X187900Y20929D01*
X184929Y23900D01*
X184929Y28100D01*
X187900Y31071D01*
X192100Y31071D01*
X195071Y28100D01*
X195071Y23900D01*
X192100Y20929D01*
X187900Y20929D01*
G37*
%LPD*%
%LPC*%
G36*
X335400Y20929D02*
X335400Y20929D01*
X332429Y23900D01*
X332429Y28100D01*
X335400Y31071D01*
X339600Y31071D01*
X342571Y28100D01*
X342571Y23900D01*
X339600Y20929D01*
X335400Y20929D01*
G37*
%LPD*%
%LPC*%
G36*
X482900Y20929D02*
X482900Y20929D01*
X479929Y23900D01*
X479929Y28100D01*
X482900Y31071D01*
X487100Y31071D01*
X490071Y28100D01*
X490071Y23900D01*
X487100Y20929D01*
X482900Y20929D01*
G37*
%LPD*%
%LPC*%
G36*
X322249Y538049D02*
X322249Y538049D01*
X322249Y550960D01*
X323241Y550763D01*
X324796Y550119D01*
X326194Y549184D01*
X327384Y547994D01*
X328319Y546596D01*
X328963Y545041D01*
X329291Y543391D01*
X329291Y538049D01*
X322249Y538049D01*
G37*
%LPD*%
%LPC*%
G36*
X322249Y535051D02*
X322249Y535051D01*
X329291Y535051D01*
X329291Y529709D01*
X328963Y528059D01*
X328319Y526504D01*
X327384Y525106D01*
X326194Y523916D01*
X324796Y522981D01*
X323241Y522337D01*
X322249Y522140D01*
X322249Y535051D01*
G37*
%LPD*%
%LPC*%
G36*
X225709Y538049D02*
X225709Y538049D01*
X225709Y543391D01*
X226037Y545041D01*
X226681Y546596D01*
X227616Y547994D01*
X228806Y549184D01*
X230204Y550119D01*
X231759Y550763D01*
X232751Y550960D01*
X232751Y538049D01*
X225709Y538049D01*
G37*
%LPD*%
%LPC*%
G36*
X231759Y522337D02*
X231759Y522337D01*
X230204Y522981D01*
X228806Y523916D01*
X227616Y525106D01*
X226681Y526504D01*
X226037Y528059D01*
X225709Y529709D01*
X225709Y535051D01*
X232751Y535051D01*
X232751Y522140D01*
X231759Y522337D01*
G37*
%LPD*%
%LPC*%
G36*
X111223Y256523D02*
X111223Y256523D01*
X111223Y266696D01*
X112461Y266500D01*
X114226Y265927D01*
X115880Y265084D01*
X117381Y263993D01*
X118693Y262681D01*
X119784Y261180D01*
X120627Y259526D01*
X121200Y257761D01*
X121396Y256523D01*
X111223Y256523D01*
G37*
%LPD*%
%LPC*%
G36*
X60423Y281923D02*
X60423Y281923D01*
X60423Y292096D01*
X61661Y291900D01*
X63426Y291327D01*
X65080Y290484D01*
X66581Y289393D01*
X67893Y288081D01*
X68984Y286580D01*
X69827Y284926D01*
X70400Y283161D01*
X70596Y281923D01*
X60423Y281923D01*
G37*
%LPD*%
%LPC*%
G36*
X60423Y256523D02*
X60423Y256523D01*
X60423Y266696D01*
X61661Y266500D01*
X63426Y265927D01*
X65080Y265084D01*
X66581Y263993D01*
X67893Y262681D01*
X68984Y261180D01*
X69827Y259526D01*
X70400Y257761D01*
X70596Y256523D01*
X60423Y256523D01*
G37*
%LPD*%
%LPC*%
G36*
X60423Y434323D02*
X60423Y434323D01*
X60423Y444496D01*
X61661Y444300D01*
X63426Y443727D01*
X65080Y442884D01*
X66581Y441793D01*
X67893Y440481D01*
X68984Y438980D01*
X69827Y437326D01*
X70400Y435561D01*
X70596Y434323D01*
X60423Y434323D01*
G37*
%LPD*%
%LPC*%
G36*
X111223Y281923D02*
X111223Y281923D01*
X111223Y292096D01*
X112461Y291900D01*
X114226Y291327D01*
X115880Y290484D01*
X117381Y289393D01*
X118693Y288081D01*
X119784Y286580D01*
X120627Y284926D01*
X121200Y283161D01*
X121396Y281923D01*
X111223Y281923D01*
G37*
%LPD*%
%LPC*%
G36*
X670023Y281673D02*
X670023Y281673D01*
X670023Y291847D01*
X671261Y291650D01*
X673026Y291077D01*
X674680Y290234D01*
X676181Y289144D01*
X677493Y287831D01*
X678584Y286330D01*
X679427Y284676D01*
X680000Y282911D01*
X680196Y281673D01*
X670023Y281673D01*
G37*
%LPD*%
%LPC*%
G36*
X644623Y408673D02*
X644623Y408673D01*
X644623Y418847D01*
X645861Y418650D01*
X647626Y418077D01*
X649280Y417234D01*
X650781Y416144D01*
X652093Y414831D01*
X653184Y413330D01*
X654027Y411676D01*
X654600Y409911D01*
X654796Y408673D01*
X644623Y408673D01*
G37*
%LPD*%
%LPC*%
G36*
X35023Y281923D02*
X35023Y281923D01*
X35023Y292096D01*
X36261Y291900D01*
X38026Y291327D01*
X39680Y290484D01*
X41181Y289393D01*
X42493Y288081D01*
X43584Y286580D01*
X44427Y284926D01*
X45000Y283161D01*
X45196Y281923D01*
X35023Y281923D01*
G37*
%LPD*%
%LPC*%
G36*
X670023Y278627D02*
X670023Y278627D01*
X680196Y278627D01*
X680000Y277389D01*
X679427Y275624D01*
X678584Y273970D01*
X677493Y272469D01*
X676181Y271157D01*
X674680Y270066D01*
X673026Y269223D01*
X671261Y268650D01*
X670023Y268454D01*
X670023Y278627D01*
G37*
%LPD*%
%LPC*%
G36*
X98004Y256523D02*
X98004Y256523D01*
X98200Y257761D01*
X98773Y259526D01*
X99616Y261180D01*
X100707Y262681D01*
X102019Y263993D01*
X103520Y265084D01*
X105174Y265927D01*
X106939Y266500D01*
X108177Y266696D01*
X108177Y256523D01*
X98004Y256523D01*
G37*
%LPD*%
%LPC*%
G36*
X47204Y256523D02*
X47204Y256523D01*
X47400Y257761D01*
X47973Y259526D01*
X48816Y261180D01*
X49907Y262681D01*
X51219Y263993D01*
X52720Y265084D01*
X54374Y265927D01*
X56139Y266500D01*
X57377Y266696D01*
X57377Y256523D01*
X47204Y256523D01*
G37*
%LPD*%
%LPC*%
G36*
X35023Y278877D02*
X35023Y278877D01*
X45196Y278877D01*
X45000Y277639D01*
X44427Y275874D01*
X43584Y274220D01*
X42493Y272719D01*
X41181Y271407D01*
X39680Y270316D01*
X38026Y269473D01*
X36261Y268900D01*
X35023Y268704D01*
X35023Y278877D01*
G37*
%LPD*%
%LPC*%
G36*
X98004Y281923D02*
X98004Y281923D01*
X98200Y283161D01*
X98773Y284926D01*
X99616Y286580D01*
X100707Y288081D01*
X102019Y289393D01*
X103520Y290484D01*
X105174Y291327D01*
X106939Y291900D01*
X108177Y292096D01*
X108177Y281923D01*
X98004Y281923D01*
G37*
%LPD*%
%LPC*%
G36*
X60423Y431277D02*
X60423Y431277D01*
X70596Y431277D01*
X70400Y430039D01*
X69827Y428274D01*
X68984Y426620D01*
X67893Y425119D01*
X66581Y423807D01*
X65080Y422716D01*
X63426Y421873D01*
X61661Y421300D01*
X60423Y421104D01*
X60423Y431277D01*
G37*
%LPD*%
%LPC*%
G36*
X47204Y434323D02*
X47204Y434323D01*
X47400Y435561D01*
X47973Y437326D01*
X48816Y438980D01*
X49907Y440481D01*
X51219Y441793D01*
X52720Y442884D01*
X54374Y443727D01*
X56139Y444300D01*
X57377Y444496D01*
X57377Y434323D01*
X47204Y434323D01*
G37*
%LPD*%
%LPC*%
G36*
X631404Y408673D02*
X631404Y408673D01*
X631600Y409911D01*
X632173Y411676D01*
X633016Y413330D01*
X634107Y414831D01*
X635419Y416144D01*
X636920Y417234D01*
X638574Y418077D01*
X640339Y418650D01*
X641577Y418847D01*
X641577Y408673D01*
X631404Y408673D01*
G37*
%LPD*%
%LPC*%
G36*
X644623Y405627D02*
X644623Y405627D01*
X654796Y405627D01*
X654600Y404389D01*
X654027Y402624D01*
X653184Y400970D01*
X652093Y399469D01*
X650781Y398157D01*
X649280Y397066D01*
X647626Y396223D01*
X645861Y395650D01*
X644623Y395454D01*
X644623Y405627D01*
G37*
%LPD*%
%LPC*%
G36*
X21804Y281923D02*
X21804Y281923D01*
X22000Y283161D01*
X22573Y284926D01*
X23416Y286580D01*
X24507Y288081D01*
X25819Y289393D01*
X27320Y290484D01*
X28974Y291327D01*
X30739Y291900D01*
X31977Y292096D01*
X31977Y281923D01*
X21804Y281923D01*
G37*
%LPD*%
%LPC*%
G36*
X47204Y281923D02*
X47204Y281923D01*
X47400Y283161D01*
X47973Y284926D01*
X48816Y286580D01*
X49907Y288081D01*
X51219Y289393D01*
X52720Y290484D01*
X54374Y291327D01*
X56139Y291900D01*
X57377Y292096D01*
X57377Y281923D01*
X47204Y281923D01*
G37*
%LPD*%
%LPC*%
G36*
X111223Y253477D02*
X111223Y253477D01*
X121396Y253477D01*
X121200Y252239D01*
X120627Y250474D01*
X119784Y248820D01*
X118693Y247319D01*
X117381Y246007D01*
X115880Y244916D01*
X114226Y244073D01*
X112461Y243500D01*
X111223Y243304D01*
X111223Y253477D01*
G37*
%LPD*%
%LPC*%
G36*
X60423Y278877D02*
X60423Y278877D01*
X70596Y278877D01*
X70400Y277639D01*
X69827Y275874D01*
X68984Y274220D01*
X67893Y272719D01*
X66581Y271407D01*
X65080Y270316D01*
X63426Y269473D01*
X61661Y268900D01*
X60423Y268704D01*
X60423Y278877D01*
G37*
%LPD*%
%LPC*%
G36*
X60423Y253477D02*
X60423Y253477D01*
X70596Y253477D01*
X70400Y252239D01*
X69827Y250474D01*
X68984Y248820D01*
X67893Y247319D01*
X66581Y246007D01*
X65080Y244916D01*
X63426Y244073D01*
X61661Y243500D01*
X60423Y243304D01*
X60423Y253477D01*
G37*
%LPD*%
%LPC*%
G36*
X111223Y278877D02*
X111223Y278877D01*
X121396Y278877D01*
X121200Y277639D01*
X120627Y275874D01*
X119784Y274220D01*
X118693Y272719D01*
X117381Y271407D01*
X115880Y270316D01*
X114226Y269473D01*
X112461Y268900D01*
X111223Y268704D01*
X111223Y278877D01*
G37*
%LPD*%
%LPC*%
G36*
X656804Y281673D02*
X656804Y281673D01*
X657000Y282911D01*
X657573Y284676D01*
X658416Y286330D01*
X659507Y287831D01*
X660819Y289144D01*
X662320Y290234D01*
X663974Y291077D01*
X665739Y291650D01*
X666977Y291847D01*
X666977Y281673D01*
X656804Y281673D01*
G37*
%LPD*%
%LPC*%
G36*
X30739Y268900D02*
X30739Y268900D01*
X28974Y269473D01*
X27320Y270316D01*
X25819Y271407D01*
X24507Y272719D01*
X23416Y274220D01*
X22573Y275874D01*
X22000Y277639D01*
X21804Y278877D01*
X31977Y278877D01*
X31977Y268704D01*
X30739Y268900D01*
G37*
%LPD*%
%LPC*%
G36*
X106939Y243500D02*
X106939Y243500D01*
X105174Y244073D01*
X103520Y244916D01*
X102019Y246007D01*
X100707Y247319D01*
X99616Y248820D01*
X98773Y250474D01*
X98200Y252239D01*
X98004Y253477D01*
X108177Y253477D01*
X108177Y243304D01*
X106939Y243500D01*
G37*
%LPD*%
%LPC*%
G36*
X665739Y268650D02*
X665739Y268650D01*
X663974Y269223D01*
X662320Y270066D01*
X660819Y271157D01*
X659507Y272469D01*
X658416Y273970D01*
X657573Y275624D01*
X657000Y277389D01*
X656804Y278627D01*
X666977Y278627D01*
X666977Y268454D01*
X665739Y268650D01*
G37*
%LPD*%
%LPC*%
G36*
X106939Y268900D02*
X106939Y268900D01*
X105174Y269473D01*
X103520Y270316D01*
X102019Y271407D01*
X100707Y272719D01*
X99616Y274220D01*
X98773Y275874D01*
X98200Y277639D01*
X98004Y278877D01*
X108177Y278877D01*
X108177Y268704D01*
X106939Y268900D01*
G37*
%LPD*%
%LPC*%
G36*
X56139Y421300D02*
X56139Y421300D01*
X54374Y421873D01*
X52720Y422716D01*
X51219Y423807D01*
X49907Y425119D01*
X48816Y426620D01*
X47973Y428274D01*
X47400Y430039D01*
X47204Y431277D01*
X57377Y431277D01*
X57377Y421104D01*
X56139Y421300D01*
G37*
%LPD*%
%LPC*%
G36*
X56139Y268900D02*
X56139Y268900D01*
X54374Y269473D01*
X52720Y270316D01*
X51219Y271407D01*
X49907Y272719D01*
X48816Y274220D01*
X47973Y275874D01*
X47400Y277639D01*
X47204Y278877D01*
X57377Y278877D01*
X57377Y268704D01*
X56139Y268900D01*
G37*
%LPD*%
%LPC*%
G36*
X56139Y243500D02*
X56139Y243500D01*
X54374Y244073D01*
X52720Y244916D01*
X51219Y246007D01*
X49907Y247319D01*
X48816Y248820D01*
X47973Y250474D01*
X47400Y252239D01*
X47204Y253477D01*
X57377Y253477D01*
X57377Y243304D01*
X56139Y243500D01*
G37*
%LPD*%
%LPC*%
G36*
X640339Y395650D02*
X640339Y395650D01*
X638574Y396223D01*
X636920Y397066D01*
X635419Y398157D01*
X634107Y399469D01*
X633016Y400970D01*
X632173Y402624D01*
X631600Y404389D01*
X631404Y405627D01*
X641577Y405627D01*
X641577Y395454D01*
X640339Y395650D01*
G37*
%LPD*%
%LPC*%
G36*
X322249Y571849D02*
X322249Y571849D01*
X322249Y581327D01*
X322745Y581228D01*
X323990Y580712D01*
X325111Y579963D01*
X326063Y579011D01*
X326812Y577890D01*
X327328Y576645D01*
X327591Y575324D01*
X327591Y571849D01*
X322249Y571849D01*
G37*
%LPD*%
%LPC*%
G36*
X235749Y571849D02*
X235749Y571849D01*
X235749Y581327D01*
X236245Y581228D01*
X237490Y580712D01*
X238611Y579963D01*
X239563Y579011D01*
X240312Y577890D01*
X240828Y576645D01*
X241091Y575324D01*
X241091Y571849D01*
X235749Y571849D01*
G37*
%LPD*%
%LPC*%
G36*
X322249Y568851D02*
X322249Y568851D01*
X327591Y568851D01*
X327591Y565376D01*
X327328Y564055D01*
X326812Y562810D01*
X326063Y561689D01*
X325111Y560737D01*
X323990Y559988D01*
X322745Y559472D01*
X322249Y559373D01*
X322249Y568851D01*
G37*
%LPD*%
%LPC*%
G36*
X313909Y571849D02*
X313909Y571849D01*
X313909Y575324D01*
X314172Y576645D01*
X314688Y577890D01*
X315437Y579011D01*
X316389Y579963D01*
X317510Y580712D01*
X318755Y581228D01*
X319251Y581327D01*
X319251Y571849D01*
X313909Y571849D01*
G37*
%LPD*%
%LPC*%
G36*
X227409Y571849D02*
X227409Y571849D01*
X227409Y575324D01*
X227672Y576645D01*
X228188Y577890D01*
X228937Y579011D01*
X229889Y579963D01*
X231010Y580712D01*
X232255Y581228D01*
X232751Y581327D01*
X232751Y571849D01*
X227409Y571849D01*
G37*
%LPD*%
%LPC*%
G36*
X318755Y559472D02*
X318755Y559472D01*
X317510Y559988D01*
X316389Y560737D01*
X315437Y561689D01*
X314688Y562810D01*
X314172Y564055D01*
X313909Y565376D01*
X313909Y568851D01*
X319251Y568851D01*
X319251Y559373D01*
X318755Y559472D01*
G37*
%LPD*%
%LPC*%
G36*
X211249Y27249D02*
X211249Y27249D01*
X211249Y32216D01*
X211850Y32097D01*
X213004Y31619D01*
X214042Y30925D01*
X214925Y30042D01*
X215619Y29004D01*
X216097Y27850D01*
X216216Y27249D01*
X211249Y27249D01*
G37*
%LPD*%
%LPC*%
G36*
X358749Y27249D02*
X358749Y27249D01*
X358749Y32216D01*
X359350Y32097D01*
X360504Y31619D01*
X361542Y30925D01*
X362425Y30042D01*
X363119Y29004D01*
X363597Y27850D01*
X363716Y27249D01*
X358749Y27249D01*
G37*
%LPD*%
%LPC*%
G36*
X506249Y27249D02*
X506249Y27249D01*
X506249Y32216D01*
X506850Y32097D01*
X508004Y31619D01*
X509042Y30925D01*
X509925Y30042D01*
X510619Y29004D01*
X511097Y27850D01*
X511216Y27249D01*
X506249Y27249D01*
G37*
%LPD*%
%LPC*%
G36*
X203784Y27249D02*
X203784Y27249D01*
X203903Y27850D01*
X204381Y29004D01*
X205075Y30042D01*
X205958Y30925D01*
X206996Y31619D01*
X208150Y32097D01*
X208751Y32216D01*
X208751Y27249D01*
X203784Y27249D01*
G37*
%LPD*%
%LPC*%
G36*
X351284Y27249D02*
X351284Y27249D01*
X351403Y27850D01*
X351881Y29004D01*
X352575Y30042D01*
X353458Y30925D01*
X354496Y31619D01*
X355650Y32097D01*
X356251Y32216D01*
X356251Y27249D01*
X351284Y27249D01*
G37*
%LPD*%
%LPC*%
G36*
X498784Y27249D02*
X498784Y27249D01*
X498903Y27850D01*
X499381Y29004D01*
X500075Y30042D01*
X500958Y30925D01*
X501996Y31619D01*
X503150Y32097D01*
X503751Y32216D01*
X503751Y27249D01*
X498784Y27249D01*
G37*
%LPD*%
%LPC*%
G36*
X211249Y24751D02*
X211249Y24751D01*
X216216Y24751D01*
X216097Y24150D01*
X215619Y22996D01*
X214925Y21958D01*
X214042Y21075D01*
X213004Y20381D01*
X211850Y19903D01*
X211249Y19784D01*
X211249Y24751D01*
G37*
%LPD*%
%LPC*%
G36*
X506249Y24751D02*
X506249Y24751D01*
X511216Y24751D01*
X511097Y24150D01*
X510619Y22996D01*
X509925Y21958D01*
X509042Y21075D01*
X508004Y20381D01*
X506850Y19903D01*
X506249Y19784D01*
X506249Y24751D01*
G37*
%LPD*%
%LPC*%
G36*
X358749Y24751D02*
X358749Y24751D01*
X363716Y24751D01*
X363597Y24150D01*
X363119Y22996D01*
X362425Y21958D01*
X361542Y21075D01*
X360504Y20381D01*
X359350Y19903D01*
X358749Y19784D01*
X358749Y24751D01*
G37*
%LPD*%
%LPC*%
G36*
X208150Y19903D02*
X208150Y19903D01*
X206996Y20381D01*
X205958Y21075D01*
X205075Y21958D01*
X204381Y22996D01*
X203903Y24150D01*
X203784Y24751D01*
X208751Y24751D01*
X208751Y19784D01*
X208150Y19903D01*
G37*
%LPD*%
%LPC*%
G36*
X503150Y19903D02*
X503150Y19903D01*
X501996Y20381D01*
X500958Y21075D01*
X500075Y21958D01*
X499381Y22996D01*
X498903Y24150D01*
X498784Y24751D01*
X503751Y24751D01*
X503751Y19784D01*
X503150Y19903D01*
G37*
%LPD*%
%LPC*%
G36*
X355650Y19903D02*
X355650Y19903D01*
X354496Y20381D01*
X353458Y21075D01*
X352575Y21958D01*
X351881Y22996D01*
X351403Y24150D01*
X351284Y24751D01*
X356251Y24751D01*
X356251Y19784D01*
X355650Y19903D01*
G37*
%LPD*%
%LPC*%
G36*
X109699Y280399D02*
X109699Y280399D01*
X109699Y280401D01*
X109701Y280401D01*
X109701Y280399D01*
X109699Y280399D01*
G37*
%LPD*%
%LPC*%
G36*
X58899Y280399D02*
X58899Y280399D01*
X58899Y280401D01*
X58901Y280401D01*
X58901Y280399D01*
X58899Y280399D01*
G37*
%LPD*%
%LPC*%
G36*
X668499Y280149D02*
X668499Y280149D01*
X668499Y280151D01*
X668501Y280151D01*
X668501Y280149D01*
X668499Y280149D01*
G37*
%LPD*%
%LPC*%
G36*
X643099Y407149D02*
X643099Y407149D01*
X643099Y407151D01*
X643101Y407151D01*
X643101Y407149D01*
X643099Y407149D01*
G37*
%LPD*%
%LPC*%
G36*
X33499Y280399D02*
X33499Y280399D01*
X33499Y280401D01*
X33501Y280401D01*
X33501Y280399D01*
X33499Y280399D01*
G37*
%LPD*%
%LPC*%
G36*
X109699Y254999D02*
X109699Y254999D01*
X109699Y255001D01*
X109701Y255001D01*
X109701Y254999D01*
X109699Y254999D01*
G37*
%LPD*%
%LPC*%
G36*
X58899Y432799D02*
X58899Y432799D01*
X58899Y432801D01*
X58901Y432801D01*
X58901Y432799D01*
X58899Y432799D01*
G37*
%LPD*%
%LPC*%
G36*
X58899Y254999D02*
X58899Y254999D01*
X58899Y255001D01*
X58901Y255001D01*
X58901Y254999D01*
X58899Y254999D01*
G37*
%LPD*%
D10*
X337500Y26000D03*
X357500Y26000D03*
X190000Y26000D03*
X210000Y26000D03*
X485000Y26000D03*
X505000Y26000D03*
D11*
X120700Y452620D02*
X120700Y465380D01*
X95300Y465380D02*
X95300Y452620D01*
D12*
X109700Y178800D03*
D13*
X109700Y153400D03*
X109700Y128000D03*
X109700Y102600D03*
X109700Y77200D03*
X109700Y51800D03*
D12*
X109700Y407400D03*
D13*
X109700Y382000D03*
X109700Y356600D03*
X109700Y331200D03*
X109700Y305800D03*
X109700Y280400D03*
X109700Y255000D03*
X109700Y229600D03*
D12*
X33500Y509000D03*
D13*
X58900Y509000D03*
X33500Y483600D03*
X58900Y483600D03*
X33500Y458200D03*
X58900Y458200D03*
X33500Y432800D03*
X58900Y432800D03*
X33500Y407400D03*
X58900Y407400D03*
X33500Y382000D03*
X58900Y382000D03*
X33500Y356600D03*
X58900Y356600D03*
X33500Y331200D03*
X58900Y331200D03*
X33500Y305800D03*
X58900Y305800D03*
X33500Y280400D03*
X58900Y280400D03*
X33500Y255000D03*
X58900Y255000D03*
X33500Y229600D03*
X58900Y229600D03*
X33500Y204200D03*
X58900Y204200D03*
X33500Y178800D03*
X58900Y178800D03*
X33500Y153400D03*
X58900Y153400D03*
X33500Y128000D03*
X58900Y128000D03*
X33500Y102600D03*
X58900Y102600D03*
X33500Y77200D03*
X58900Y77200D03*
X33500Y51800D03*
X58900Y51800D03*
D12*
X592300Y270240D03*
D13*
X592300Y295640D03*
X592300Y321040D03*
X592300Y346440D03*
X592300Y371840D03*
X592300Y397240D03*
X592300Y422640D03*
X592300Y448040D03*
X592300Y473440D03*
X592300Y498840D03*
X592300Y102600D03*
X592300Y128000D03*
X592300Y153400D03*
X592300Y178800D03*
X592300Y204200D03*
X592300Y229600D03*
D12*
X592300Y51800D03*
D13*
X592300Y77200D03*
D12*
X643100Y508750D03*
D13*
X668500Y508750D03*
X643100Y483350D03*
X668500Y483350D03*
X643100Y457950D03*
X668500Y457950D03*
X643100Y432550D03*
X668500Y432550D03*
X643100Y407150D03*
X668500Y407150D03*
X643100Y381750D03*
X668500Y381750D03*
X643100Y356350D03*
X668500Y356350D03*
X643100Y330950D03*
X668500Y330950D03*
X643100Y305550D03*
X668500Y305550D03*
X643100Y280150D03*
X668500Y280150D03*
X643100Y254750D03*
X668500Y254750D03*
X643100Y229350D03*
X668500Y229350D03*
X643100Y203950D03*
X668500Y203950D03*
X643100Y178550D03*
X668500Y178550D03*
X643100Y153150D03*
X668500Y153150D03*
X643100Y127750D03*
X668500Y127750D03*
X643100Y102350D03*
X668500Y102350D03*
X643100Y76950D03*
X668500Y76950D03*
X643100Y51550D03*
X668500Y51550D03*
D14*
X307250Y526750D03*
X298750Y526750D03*
X290250Y526750D03*
X281750Y526750D03*
X273250Y526750D03*
X264750Y526750D03*
X256250Y526750D03*
X247750Y526750D03*
X307250Y540250D03*
X298750Y540250D03*
X290250Y540250D03*
X281750Y540250D03*
X273250Y540250D03*
X264750Y540250D03*
X256250Y540250D03*
X247750Y540250D03*
D15*
X320750Y542550D02*
X320750Y530550D01*
X234250Y530550D02*
X234250Y542550D01*
D16*
X320750Y566050D02*
X320750Y574650D01*
X234250Y574650D02*
X234250Y566050D01*
D17*
X165000Y397500D03*
X165000Y322500D03*
X165000Y247500D03*
X437500Y415000D03*
X437500Y337500D03*
X437500Y260000D03*
X495000Y397500D03*
X495000Y322500D03*
X495000Y247500D03*
X522500Y197500D03*
X375000Y197500D03*
X330000Y197500D03*
X227500Y197500D03*
X182500Y197500D03*
X137500Y197500D03*
X185000Y575000D03*
X205000Y497500D03*
X325000Y497500D03*
X337500Y457500D03*
X337500Y380000D03*
X335000Y302500D03*
X320000Y340000D03*
X320000Y262500D03*
X320000Y415000D03*
X432500Y197500D03*
X477500Y197500D03*
X285000Y197500D03*
X221139Y556361D03*
D18*
X222500Y556361D01*
X256361Y556361D01*
X256611Y556611D01*
D17*
X256611Y556611D03*
X220000Y515000D03*
D18*
X220000Y553861D01*
X222500Y556361D01*
D17*
X275000Y380000D03*
D18*
X135000Y380000D01*
D17*
X135000Y380000D03*
X277500Y302500D03*
D18*
X212500Y302500D01*
X135000Y380000D01*
D17*
X299000Y517000D03*
D18*
X276000Y517000D01*
D17*
X276000Y517000D03*
X280000Y557000D03*
D18*
X279611Y556611D02*
X256611Y556611D01*
X279611Y556611D02*
X280000Y557000D01*
D17*
X252500Y315000D03*
D18*
X631818Y462623D02*
X638427Y469232D01*
X654382Y469232D02*
X668500Y483350D01*
X654382Y469232D02*
X638427Y469232D01*
X495722Y315000D02*
X252500Y315000D01*
X495722Y315000D02*
X581018Y400296D01*
X581018Y401913D01*
X590463Y411358D01*
X596973Y411358D01*
X631818Y446203D01*
X631818Y462623D01*
D17*
X217500Y435000D03*
D18*
X317500Y435000D01*
D17*
X332500Y420000D03*
D18*
X317500Y435000D01*
X332500Y420000D02*
X375000Y420000D01*
X390000Y405000D01*
D17*
X390000Y405000D03*
X572500Y382500D03*
D18*
X573122Y383122D01*
X600373Y383122D01*
X638427Y345068D02*
X647432Y345068D01*
X662500Y330000D01*
X638427Y345068D02*
X600373Y383122D01*
X662500Y330000D02*
X667550Y330000D01*
X668500Y330950D01*
D17*
X215000Y457500D03*
D18*
X165000Y457500D01*
X113500Y509000D02*
X58900Y509000D01*
X113500Y509000D02*
X165000Y457500D01*
D17*
X217500Y285000D03*
D18*
X315000Y285000D01*
X335000Y265000D01*
D17*
X335000Y265000D03*
D18*
X335000Y282500D01*
X342500Y290000D01*
D17*
X342500Y290000D03*
X255000Y392500D03*
D18*
X491778Y392500D01*
X492592Y391686D01*
X631818Y488023D02*
X638427Y494632D01*
X654382Y494632D02*
X668500Y508750D01*
X654382Y494632D02*
X638427Y494632D01*
X545391Y391686D02*
X492592Y391686D01*
X545391Y391686D02*
X590463Y436758D01*
X596973Y436758D01*
X631818Y471603D01*
X631818Y488023D01*
D17*
X220000Y360000D03*
D18*
X320000Y360000D01*
X335000Y345000D01*
D17*
X335000Y345000D03*
D18*
X340000Y340000D01*
X400000Y340000D01*
X430000Y370000D01*
D17*
X430000Y370000D03*
X162500Y120000D03*
X160000Y267500D03*
D18*
X162500Y241778D02*
X162500Y120000D01*
X162500Y241778D02*
X159186Y245092D01*
X159186Y249908D01*
X160000Y250722D01*
X160000Y267500D01*
D17*
X275000Y120000D03*
D18*
X162500Y120000D01*
D17*
X422500Y120000D03*
D18*
X275000Y120000D01*
D17*
X202500Y87500D03*
D18*
X210000Y95000D01*
X483100Y95000D02*
X592300Y204200D01*
X483100Y95000D02*
X210000Y95000D01*
D17*
X372500Y135000D03*
D18*
X417500Y180000D01*
X417500Y227500D02*
X419600Y229600D01*
X592300Y229600D01*
X417500Y227500D02*
X417500Y180000D01*
D17*
X520000Y102500D03*
D18*
X592300Y174800D01*
X592300Y178800D01*
D17*
X287500Y137500D03*
D18*
X285000Y135000D01*
X220000Y135000D01*
D17*
X220000Y135000D03*
X312500Y102500D03*
D18*
X109800Y102500D01*
X109700Y102600D01*
D17*
X390000Y212500D03*
D18*
X352500Y250000D01*
X352500Y305000D01*
D17*
X352500Y305000D03*
X372500Y260000D03*
D18*
X372500Y302500D02*
X370000Y305000D01*
X372500Y302500D02*
X372500Y260000D01*
D17*
X370000Y305000D03*
X362500Y350000D03*
D18*
X362500Y382500D01*
D17*
X362500Y382500D03*
M02*
