G04 EAGLE Gerber RS-274X export*
G75*
%MOMM*%
%FSLAX34Y34*%
%LPD*%
%INTop Copper*%
%IPPOS*%
%AMOC8*
5,1,8,0,0,1.08239X$1,22.5*%
G01*
%ADD10R,1.300000X1.500000*%
%ADD11C,0.760000*%
%ADD12R,1.500000X1.300000*%
%ADD13C,1.276000*%
%ADD14R,1.600000X1.803000*%
%ADD15R,1.850000X1.850000*%
%ADD16C,1.850000*%
%ADD17C,0.660000*%
%ADD18C,1.200000*%
%ADD19C,0.860000*%
%ADD20R,1.550000X1.300000*%
%ADD21R,0.660700X0.320000*%
%ADD22R,0.650000X1.650000*%
%ADD23C,0.152400*%
%ADD24C,0.502400*%

G36*
X271020Y486242D02*
X271020Y486242D01*
X271039Y486240D01*
X271141Y486262D01*
X271243Y486279D01*
X271260Y486288D01*
X271280Y486292D01*
X271369Y486345D01*
X271460Y486394D01*
X271474Y486408D01*
X271491Y486418D01*
X271558Y486497D01*
X271630Y486572D01*
X271638Y486590D01*
X271651Y486605D01*
X271690Y486701D01*
X271733Y486795D01*
X271735Y486815D01*
X271743Y486833D01*
X271761Y487000D01*
X271761Y517000D01*
X271747Y517090D01*
X271739Y517181D01*
X271727Y517211D01*
X271722Y517243D01*
X271679Y517323D01*
X271643Y517407D01*
X271617Y517439D01*
X271606Y517460D01*
X271583Y517482D01*
X271538Y517538D01*
X267120Y521956D01*
X267046Y522009D01*
X266977Y522069D01*
X266947Y522081D01*
X266921Y522100D01*
X266833Y522127D01*
X266749Y522161D01*
X266708Y522165D01*
X266685Y522172D01*
X266653Y522171D01*
X266582Y522179D01*
X262857Y522179D01*
X262498Y522538D01*
X262424Y522592D01*
X262354Y522651D01*
X262324Y522663D01*
X262298Y522682D01*
X262211Y522709D01*
X262126Y522743D01*
X262085Y522747D01*
X262063Y522754D01*
X262031Y522753D01*
X261959Y522761D01*
X260837Y522761D01*
X260747Y522747D01*
X260656Y522739D01*
X260626Y522727D01*
X260594Y522722D01*
X260513Y522679D01*
X260429Y522643D01*
X260397Y522617D01*
X260376Y522606D01*
X260354Y522583D01*
X260298Y522538D01*
X259973Y522213D01*
X259017Y521574D01*
X257954Y521134D01*
X257249Y520994D01*
X257249Y522000D01*
X257246Y522020D01*
X257248Y522039D01*
X257226Y522141D01*
X257210Y522243D01*
X257200Y522260D01*
X257196Y522280D01*
X257143Y522369D01*
X257094Y522460D01*
X257080Y522474D01*
X257070Y522491D01*
X256991Y522558D01*
X256916Y522630D01*
X256898Y522638D01*
X256883Y522651D01*
X256787Y522690D01*
X256693Y522733D01*
X256673Y522735D01*
X256655Y522743D01*
X256488Y522761D01*
X256012Y522761D01*
X255992Y522758D01*
X255972Y522760D01*
X255871Y522738D01*
X255769Y522722D01*
X255752Y522712D01*
X255732Y522708D01*
X255643Y522655D01*
X255552Y522606D01*
X255538Y522592D01*
X255521Y522582D01*
X255454Y522503D01*
X255382Y522428D01*
X255374Y522410D01*
X255361Y522395D01*
X255322Y522299D01*
X255279Y522205D01*
X255277Y522185D01*
X255269Y522167D01*
X255251Y522000D01*
X255251Y520994D01*
X254546Y521134D01*
X253483Y521574D01*
X252527Y522213D01*
X252202Y522538D01*
X252128Y522591D01*
X252058Y522651D01*
X252028Y522663D01*
X252002Y522682D01*
X251915Y522709D01*
X251830Y522743D01*
X251789Y522747D01*
X251767Y522754D01*
X251735Y522753D01*
X251663Y522761D01*
X251000Y522761D01*
X250910Y522747D01*
X250819Y522739D01*
X250789Y522727D01*
X250757Y522722D01*
X250677Y522679D01*
X250593Y522643D01*
X250561Y522617D01*
X250540Y522606D01*
X250518Y522583D01*
X250462Y522538D01*
X243685Y515761D01*
X227000Y515761D01*
X226910Y515747D01*
X226819Y515739D01*
X226789Y515727D01*
X226757Y515722D01*
X226677Y515679D01*
X226593Y515643D01*
X226561Y515617D01*
X226540Y515606D01*
X226518Y515583D01*
X226462Y515538D01*
X219462Y508538D01*
X219409Y508464D01*
X219349Y508395D01*
X219337Y508365D01*
X219318Y508339D01*
X219291Y508252D01*
X219257Y508167D01*
X219253Y508126D01*
X219246Y508103D01*
X219247Y508071D01*
X219239Y508000D01*
X219239Y488000D01*
X219254Y487910D01*
X219261Y487819D01*
X219273Y487789D01*
X219279Y487757D01*
X219321Y487677D01*
X219357Y487593D01*
X219383Y487561D01*
X219394Y487540D01*
X219417Y487518D01*
X219462Y487462D01*
X220462Y486462D01*
X220536Y486409D01*
X220605Y486349D01*
X220635Y486337D01*
X220661Y486318D01*
X220748Y486291D01*
X220833Y486257D01*
X220874Y486253D01*
X220897Y486246D01*
X220929Y486247D01*
X221000Y486239D01*
X271000Y486239D01*
X271020Y486242D01*
G37*
G36*
X341039Y266250D02*
X341039Y266250D01*
X341142Y266252D01*
X341161Y266259D01*
X341181Y266261D01*
X341276Y266301D01*
X341373Y266337D01*
X341389Y266349D01*
X341407Y266357D01*
X341538Y266462D01*
X352538Y277462D01*
X352591Y277536D01*
X352651Y277605D01*
X352663Y277635D01*
X352682Y277661D01*
X352709Y277748D01*
X352743Y277833D01*
X352747Y277874D01*
X352754Y277897D01*
X352753Y277929D01*
X352761Y278000D01*
X352761Y279000D01*
X352758Y279020D01*
X352760Y279039D01*
X352738Y279141D01*
X352722Y279243D01*
X352712Y279260D01*
X352708Y279280D01*
X352655Y279369D01*
X352606Y279460D01*
X352592Y279474D01*
X352582Y279491D01*
X352503Y279558D01*
X352428Y279630D01*
X352410Y279638D01*
X352395Y279651D01*
X352299Y279690D01*
X352205Y279733D01*
X352185Y279735D01*
X352167Y279743D01*
X352000Y279761D01*
X330000Y279761D01*
X329980Y279758D01*
X329961Y279760D01*
X329859Y279738D01*
X329757Y279722D01*
X329740Y279712D01*
X329720Y279708D01*
X329631Y279655D01*
X329540Y279606D01*
X329526Y279592D01*
X329509Y279582D01*
X329442Y279503D01*
X329371Y279428D01*
X329362Y279410D01*
X329349Y279395D01*
X329310Y279299D01*
X329267Y279205D01*
X329265Y279185D01*
X329257Y279167D01*
X329239Y279000D01*
X329239Y278000D01*
X329254Y277910D01*
X329261Y277819D01*
X329273Y277789D01*
X329279Y277757D01*
X329321Y277677D01*
X329357Y277593D01*
X329383Y277561D01*
X329394Y277540D01*
X329417Y277518D01*
X329462Y277462D01*
X340462Y266462D01*
X340478Y266450D01*
X340490Y266435D01*
X340578Y266378D01*
X340661Y266318D01*
X340680Y266312D01*
X340697Y266302D01*
X340798Y266276D01*
X340897Y266246D01*
X340916Y266246D01*
X340936Y266241D01*
X341039Y266250D01*
G37*
G36*
X338039Y421250D02*
X338039Y421250D01*
X338142Y421252D01*
X338161Y421259D01*
X338181Y421261D01*
X338276Y421301D01*
X338373Y421337D01*
X338389Y421349D01*
X338407Y421357D01*
X338538Y421462D01*
X350538Y433462D01*
X350580Y433520D01*
X350630Y433572D01*
X350652Y433619D01*
X350682Y433661D01*
X350703Y433730D01*
X350733Y433795D01*
X350739Y433847D01*
X350754Y433897D01*
X350752Y433968D01*
X350760Y434039D01*
X350749Y434090D01*
X350748Y434142D01*
X350723Y434210D01*
X350708Y434280D01*
X350681Y434324D01*
X350663Y434373D01*
X350619Y434429D01*
X350582Y434491D01*
X350542Y434525D01*
X350510Y434565D01*
X350449Y434604D01*
X350395Y434651D01*
X350347Y434670D01*
X350303Y434698D01*
X350233Y434716D01*
X350167Y434743D01*
X350095Y434751D01*
X350064Y434759D01*
X350041Y434757D01*
X350000Y434761D01*
X328000Y434761D01*
X327980Y434758D01*
X327961Y434760D01*
X327859Y434738D01*
X327757Y434722D01*
X327740Y434712D01*
X327720Y434708D01*
X327631Y434655D01*
X327540Y434606D01*
X327526Y434592D01*
X327509Y434582D01*
X327442Y434503D01*
X327371Y434428D01*
X327362Y434410D01*
X327349Y434395D01*
X327310Y434299D01*
X327267Y434205D01*
X327265Y434185D01*
X327257Y434167D01*
X327239Y434000D01*
X327239Y432000D01*
X327254Y431910D01*
X327261Y431819D01*
X327273Y431789D01*
X327279Y431757D01*
X327321Y431677D01*
X327357Y431593D01*
X327383Y431561D01*
X327394Y431540D01*
X327417Y431518D01*
X327462Y431462D01*
X337462Y421462D01*
X337478Y421450D01*
X337490Y421435D01*
X337578Y421378D01*
X337661Y421318D01*
X337680Y421312D01*
X337697Y421302D01*
X337798Y421276D01*
X337897Y421246D01*
X337916Y421246D01*
X337936Y421241D01*
X338039Y421250D01*
G37*
G36*
X342090Y347254D02*
X342090Y347254D01*
X342181Y347261D01*
X342211Y347273D01*
X342243Y347279D01*
X342323Y347321D01*
X342407Y347357D01*
X342439Y347383D01*
X342460Y347394D01*
X342482Y347417D01*
X342538Y347462D01*
X351538Y356462D01*
X351580Y356520D01*
X351630Y356572D01*
X351652Y356619D01*
X351682Y356661D01*
X351703Y356730D01*
X351733Y356795D01*
X351739Y356847D01*
X351754Y356897D01*
X351752Y356968D01*
X351760Y357039D01*
X351749Y357090D01*
X351748Y357142D01*
X351723Y357210D01*
X351708Y357280D01*
X351681Y357324D01*
X351663Y357373D01*
X351619Y357429D01*
X351582Y357491D01*
X351542Y357525D01*
X351510Y357565D01*
X351449Y357604D01*
X351395Y357651D01*
X351347Y357670D01*
X351303Y357698D01*
X351233Y357716D01*
X351167Y357743D01*
X351095Y357751D01*
X351064Y357759D01*
X351041Y357757D01*
X351000Y357761D01*
X331000Y357761D01*
X330929Y357750D01*
X330858Y357748D01*
X330809Y357730D01*
X330757Y357722D01*
X330694Y357688D01*
X330627Y357663D01*
X330586Y357631D01*
X330540Y357606D01*
X330491Y357555D01*
X330435Y357510D01*
X330406Y357466D01*
X330371Y357428D01*
X330340Y357363D01*
X330302Y357303D01*
X330289Y357252D01*
X330267Y357205D01*
X330259Y357134D01*
X330241Y357064D01*
X330246Y357012D01*
X330240Y356961D01*
X330255Y356890D01*
X330261Y356819D01*
X330281Y356771D01*
X330292Y356720D01*
X330329Y356659D01*
X330357Y356593D01*
X330402Y356537D01*
X330418Y356509D01*
X330436Y356494D01*
X330462Y356462D01*
X339462Y347462D01*
X339536Y347409D01*
X339605Y347349D01*
X339635Y347337D01*
X339661Y347318D01*
X339748Y347291D01*
X339833Y347257D01*
X339874Y347253D01*
X339897Y347246D01*
X339929Y347247D01*
X340000Y347239D01*
X342000Y347239D01*
X342090Y347254D01*
G37*
G36*
X316020Y334242D02*
X316020Y334242D01*
X316039Y334240D01*
X316141Y334262D01*
X316243Y334279D01*
X316260Y334288D01*
X316280Y334292D01*
X316369Y334345D01*
X316460Y334394D01*
X316474Y334408D01*
X316491Y334418D01*
X316558Y334497D01*
X316630Y334572D01*
X316638Y334590D01*
X316651Y334605D01*
X316690Y334701D01*
X316733Y334795D01*
X316735Y334815D01*
X316743Y334833D01*
X316761Y335000D01*
X316761Y341000D01*
X316758Y341020D01*
X316760Y341039D01*
X316738Y341141D01*
X316722Y341243D01*
X316712Y341260D01*
X316708Y341280D01*
X316655Y341369D01*
X316606Y341460D01*
X316592Y341474D01*
X316582Y341491D01*
X316503Y341558D01*
X316428Y341630D01*
X316410Y341638D01*
X316395Y341651D01*
X316299Y341690D01*
X316205Y341733D01*
X316185Y341735D01*
X316167Y341743D01*
X316000Y341761D01*
X313761Y341761D01*
X313761Y345000D01*
X313758Y345020D01*
X313760Y345039D01*
X313738Y345141D01*
X313722Y345243D01*
X313712Y345260D01*
X313708Y345280D01*
X313655Y345369D01*
X313606Y345460D01*
X313592Y345474D01*
X313582Y345491D01*
X313503Y345558D01*
X313428Y345630D01*
X313410Y345638D01*
X313395Y345651D01*
X313299Y345690D01*
X313205Y345733D01*
X313185Y345735D01*
X313167Y345743D01*
X313000Y345761D01*
X307000Y345761D01*
X306980Y345758D01*
X306961Y345760D01*
X306859Y345738D01*
X306757Y345722D01*
X306740Y345712D01*
X306720Y345708D01*
X306631Y345655D01*
X306540Y345606D01*
X306526Y345592D01*
X306509Y345582D01*
X306442Y345503D01*
X306371Y345428D01*
X306362Y345410D01*
X306349Y345395D01*
X306310Y345299D01*
X306267Y345205D01*
X306265Y345185D01*
X306257Y345167D01*
X306239Y345000D01*
X306239Y341761D01*
X304000Y341761D01*
X303980Y341758D01*
X303961Y341760D01*
X303859Y341738D01*
X303757Y341722D01*
X303740Y341712D01*
X303720Y341708D01*
X303631Y341655D01*
X303540Y341606D01*
X303526Y341592D01*
X303509Y341582D01*
X303442Y341503D01*
X303371Y341428D01*
X303362Y341410D01*
X303349Y341395D01*
X303310Y341299D01*
X303267Y341205D01*
X303265Y341185D01*
X303257Y341167D01*
X303239Y341000D01*
X303239Y335000D01*
X303242Y334980D01*
X303240Y334961D01*
X303262Y334859D01*
X303279Y334757D01*
X303288Y334740D01*
X303292Y334720D01*
X303345Y334631D01*
X303394Y334540D01*
X303408Y334526D01*
X303418Y334509D01*
X303497Y334442D01*
X303572Y334371D01*
X303590Y334362D01*
X303605Y334349D01*
X303701Y334310D01*
X303795Y334267D01*
X303815Y334265D01*
X303833Y334257D01*
X304000Y334239D01*
X316000Y334239D01*
X316020Y334242D01*
G37*
G36*
X316020Y412242D02*
X316020Y412242D01*
X316039Y412240D01*
X316141Y412262D01*
X316243Y412279D01*
X316260Y412288D01*
X316280Y412292D01*
X316369Y412345D01*
X316460Y412394D01*
X316474Y412408D01*
X316491Y412418D01*
X316558Y412497D01*
X316630Y412572D01*
X316638Y412590D01*
X316651Y412605D01*
X316690Y412701D01*
X316733Y412795D01*
X316735Y412815D01*
X316743Y412833D01*
X316761Y413000D01*
X316761Y418000D01*
X316758Y418020D01*
X316760Y418039D01*
X316738Y418141D01*
X316722Y418243D01*
X316712Y418260D01*
X316708Y418280D01*
X316655Y418369D01*
X316606Y418460D01*
X316592Y418474D01*
X316582Y418491D01*
X316503Y418558D01*
X316428Y418630D01*
X316410Y418638D01*
X316395Y418651D01*
X316299Y418690D01*
X316205Y418733D01*
X316185Y418735D01*
X316167Y418743D01*
X316000Y418761D01*
X313761Y418761D01*
X313761Y423000D01*
X313758Y423020D01*
X313760Y423039D01*
X313738Y423141D01*
X313722Y423243D01*
X313712Y423260D01*
X313708Y423280D01*
X313655Y423369D01*
X313606Y423460D01*
X313592Y423474D01*
X313582Y423491D01*
X313503Y423558D01*
X313428Y423630D01*
X313410Y423638D01*
X313395Y423651D01*
X313299Y423690D01*
X313205Y423733D01*
X313185Y423735D01*
X313167Y423743D01*
X313000Y423761D01*
X307000Y423761D01*
X306980Y423758D01*
X306961Y423760D01*
X306859Y423738D01*
X306757Y423722D01*
X306740Y423712D01*
X306720Y423708D01*
X306631Y423655D01*
X306540Y423606D01*
X306526Y423592D01*
X306509Y423582D01*
X306442Y423503D01*
X306371Y423428D01*
X306362Y423410D01*
X306349Y423395D01*
X306310Y423299D01*
X306267Y423205D01*
X306265Y423185D01*
X306257Y423167D01*
X306239Y423000D01*
X306239Y419761D01*
X304000Y419761D01*
X303980Y419758D01*
X303961Y419760D01*
X303859Y419738D01*
X303757Y419722D01*
X303740Y419712D01*
X303720Y419708D01*
X303631Y419655D01*
X303540Y419606D01*
X303526Y419592D01*
X303509Y419582D01*
X303442Y419503D01*
X303371Y419428D01*
X303362Y419410D01*
X303349Y419395D01*
X303310Y419299D01*
X303267Y419205D01*
X303265Y419185D01*
X303257Y419167D01*
X303239Y419000D01*
X303239Y413000D01*
X303242Y412980D01*
X303240Y412961D01*
X303262Y412859D01*
X303279Y412757D01*
X303288Y412740D01*
X303292Y412720D01*
X303345Y412631D01*
X303394Y412540D01*
X303408Y412526D01*
X303418Y412509D01*
X303497Y412442D01*
X303572Y412371D01*
X303590Y412362D01*
X303605Y412349D01*
X303701Y412310D01*
X303795Y412267D01*
X303815Y412265D01*
X303833Y412257D01*
X304000Y412239D01*
X316000Y412239D01*
X316020Y412242D01*
G37*
G36*
X316020Y257242D02*
X316020Y257242D01*
X316039Y257240D01*
X316141Y257262D01*
X316243Y257279D01*
X316260Y257288D01*
X316280Y257292D01*
X316369Y257345D01*
X316460Y257394D01*
X316474Y257408D01*
X316491Y257418D01*
X316558Y257497D01*
X316630Y257572D01*
X316638Y257590D01*
X316651Y257605D01*
X316690Y257701D01*
X316733Y257795D01*
X316735Y257815D01*
X316743Y257833D01*
X316761Y258000D01*
X316761Y263000D01*
X316758Y263020D01*
X316760Y263039D01*
X316738Y263141D01*
X316722Y263243D01*
X316712Y263260D01*
X316708Y263280D01*
X316655Y263369D01*
X316606Y263460D01*
X316592Y263474D01*
X316582Y263491D01*
X316503Y263558D01*
X316428Y263630D01*
X316410Y263638D01*
X316395Y263651D01*
X316299Y263690D01*
X316205Y263733D01*
X316185Y263735D01*
X316167Y263743D01*
X316000Y263761D01*
X313761Y263761D01*
X313761Y267000D01*
X313758Y267020D01*
X313760Y267039D01*
X313738Y267141D01*
X313722Y267243D01*
X313712Y267260D01*
X313708Y267280D01*
X313655Y267369D01*
X313606Y267460D01*
X313592Y267474D01*
X313582Y267491D01*
X313503Y267558D01*
X313428Y267630D01*
X313410Y267638D01*
X313395Y267651D01*
X313299Y267690D01*
X313205Y267733D01*
X313185Y267735D01*
X313167Y267743D01*
X313000Y267761D01*
X307000Y267761D01*
X306980Y267758D01*
X306961Y267760D01*
X306859Y267738D01*
X306757Y267722D01*
X306740Y267712D01*
X306720Y267708D01*
X306631Y267655D01*
X306540Y267606D01*
X306526Y267592D01*
X306509Y267582D01*
X306442Y267503D01*
X306371Y267428D01*
X306362Y267410D01*
X306349Y267395D01*
X306310Y267299D01*
X306267Y267205D01*
X306265Y267185D01*
X306257Y267167D01*
X306239Y267000D01*
X306239Y263761D01*
X304000Y263761D01*
X303980Y263758D01*
X303961Y263760D01*
X303859Y263738D01*
X303757Y263722D01*
X303740Y263712D01*
X303720Y263708D01*
X303631Y263655D01*
X303540Y263606D01*
X303526Y263592D01*
X303509Y263582D01*
X303442Y263503D01*
X303371Y263428D01*
X303362Y263410D01*
X303349Y263395D01*
X303310Y263299D01*
X303267Y263205D01*
X303265Y263185D01*
X303257Y263167D01*
X303239Y263000D01*
X303239Y258000D01*
X303242Y257980D01*
X303240Y257961D01*
X303262Y257859D01*
X303279Y257757D01*
X303288Y257740D01*
X303292Y257720D01*
X303345Y257631D01*
X303394Y257540D01*
X303408Y257526D01*
X303418Y257509D01*
X303497Y257442D01*
X303572Y257371D01*
X303590Y257362D01*
X303605Y257349D01*
X303701Y257310D01*
X303795Y257267D01*
X303815Y257265D01*
X303833Y257257D01*
X304000Y257239D01*
X316000Y257239D01*
X316020Y257242D01*
G37*
G36*
X313020Y359242D02*
X313020Y359242D01*
X313039Y359240D01*
X313141Y359262D01*
X313243Y359279D01*
X313260Y359288D01*
X313280Y359292D01*
X313369Y359345D01*
X313460Y359394D01*
X313474Y359408D01*
X313491Y359418D01*
X313558Y359497D01*
X313630Y359572D01*
X313638Y359590D01*
X313651Y359605D01*
X313690Y359701D01*
X313733Y359795D01*
X313735Y359815D01*
X313743Y359833D01*
X313761Y360000D01*
X313761Y364239D01*
X317000Y364239D01*
X317020Y364242D01*
X317039Y364240D01*
X317141Y364262D01*
X317243Y364279D01*
X317260Y364288D01*
X317280Y364292D01*
X317369Y364345D01*
X317460Y364394D01*
X317474Y364408D01*
X317491Y364418D01*
X317558Y364497D01*
X317630Y364572D01*
X317638Y364590D01*
X317651Y364605D01*
X317690Y364701D01*
X317733Y364795D01*
X317735Y364815D01*
X317743Y364833D01*
X317761Y365000D01*
X317761Y369000D01*
X317758Y369020D01*
X317760Y369039D01*
X317738Y369141D01*
X317722Y369243D01*
X317712Y369260D01*
X317708Y369280D01*
X317655Y369369D01*
X317606Y369460D01*
X317592Y369474D01*
X317582Y369491D01*
X317503Y369558D01*
X317428Y369630D01*
X317410Y369638D01*
X317395Y369651D01*
X317299Y369690D01*
X317205Y369733D01*
X317185Y369735D01*
X317167Y369743D01*
X317000Y369761D01*
X304000Y369761D01*
X303980Y369758D01*
X303961Y369760D01*
X303859Y369738D01*
X303757Y369722D01*
X303740Y369712D01*
X303720Y369708D01*
X303631Y369655D01*
X303540Y369606D01*
X303526Y369592D01*
X303509Y369582D01*
X303442Y369503D01*
X303371Y369428D01*
X303362Y369410D01*
X303349Y369395D01*
X303310Y369299D01*
X303267Y369205D01*
X303265Y369185D01*
X303257Y369167D01*
X303239Y369000D01*
X303239Y366000D01*
X303242Y365980D01*
X303240Y365961D01*
X303262Y365859D01*
X303279Y365757D01*
X303288Y365740D01*
X303292Y365720D01*
X303345Y365631D01*
X303394Y365540D01*
X303408Y365526D01*
X303418Y365509D01*
X303497Y365442D01*
X303572Y365371D01*
X303590Y365362D01*
X303605Y365349D01*
X303701Y365310D01*
X303795Y365267D01*
X303815Y365265D01*
X303833Y365257D01*
X304000Y365239D01*
X306239Y365239D01*
X306239Y360000D01*
X306242Y359980D01*
X306240Y359961D01*
X306262Y359859D01*
X306279Y359757D01*
X306288Y359740D01*
X306292Y359720D01*
X306345Y359631D01*
X306394Y359540D01*
X306408Y359526D01*
X306418Y359509D01*
X306497Y359442D01*
X306572Y359371D01*
X306590Y359362D01*
X306605Y359349D01*
X306701Y359310D01*
X306795Y359267D01*
X306815Y359265D01*
X306833Y359257D01*
X307000Y359239D01*
X313000Y359239D01*
X313020Y359242D01*
G37*
G36*
X313020Y437242D02*
X313020Y437242D01*
X313039Y437240D01*
X313141Y437262D01*
X313243Y437279D01*
X313260Y437288D01*
X313280Y437292D01*
X313369Y437345D01*
X313460Y437394D01*
X313474Y437408D01*
X313491Y437418D01*
X313558Y437497D01*
X313630Y437572D01*
X313638Y437590D01*
X313651Y437605D01*
X313690Y437701D01*
X313733Y437795D01*
X313735Y437815D01*
X313743Y437833D01*
X313761Y438000D01*
X313761Y441239D01*
X316000Y441239D01*
X316020Y441242D01*
X316039Y441240D01*
X316141Y441262D01*
X316243Y441279D01*
X316260Y441288D01*
X316280Y441292D01*
X316369Y441345D01*
X316460Y441394D01*
X316474Y441408D01*
X316491Y441418D01*
X316558Y441497D01*
X316630Y441572D01*
X316638Y441590D01*
X316651Y441605D01*
X316690Y441701D01*
X316733Y441795D01*
X316735Y441815D01*
X316743Y441833D01*
X316761Y442000D01*
X316761Y446000D01*
X316758Y446020D01*
X316760Y446039D01*
X316738Y446141D01*
X316722Y446243D01*
X316712Y446260D01*
X316708Y446280D01*
X316655Y446369D01*
X316606Y446460D01*
X316592Y446474D01*
X316582Y446491D01*
X316503Y446558D01*
X316428Y446630D01*
X316410Y446638D01*
X316395Y446651D01*
X316299Y446690D01*
X316205Y446733D01*
X316185Y446735D01*
X316167Y446743D01*
X316000Y446761D01*
X304000Y446761D01*
X303980Y446758D01*
X303961Y446760D01*
X303859Y446738D01*
X303757Y446722D01*
X303740Y446712D01*
X303720Y446708D01*
X303631Y446655D01*
X303540Y446606D01*
X303526Y446592D01*
X303509Y446582D01*
X303442Y446503D01*
X303371Y446428D01*
X303362Y446410D01*
X303349Y446395D01*
X303310Y446299D01*
X303267Y446205D01*
X303265Y446185D01*
X303257Y446167D01*
X303239Y446000D01*
X303239Y443000D01*
X303242Y442980D01*
X303240Y442961D01*
X303262Y442859D01*
X303279Y442757D01*
X303288Y442740D01*
X303292Y442720D01*
X303345Y442631D01*
X303394Y442540D01*
X303408Y442526D01*
X303418Y442509D01*
X303497Y442442D01*
X303572Y442371D01*
X303590Y442362D01*
X303605Y442349D01*
X303701Y442310D01*
X303795Y442267D01*
X303815Y442265D01*
X303833Y442257D01*
X304000Y442239D01*
X305685Y442239D01*
X306239Y441685D01*
X306239Y438000D01*
X306242Y437980D01*
X306240Y437961D01*
X306262Y437859D01*
X306279Y437757D01*
X306288Y437740D01*
X306292Y437720D01*
X306345Y437631D01*
X306394Y437540D01*
X306408Y437526D01*
X306418Y437509D01*
X306497Y437442D01*
X306572Y437371D01*
X306590Y437362D01*
X306605Y437349D01*
X306701Y437310D01*
X306795Y437267D01*
X306815Y437265D01*
X306833Y437257D01*
X307000Y437239D01*
X313000Y437239D01*
X313020Y437242D01*
G37*
G36*
X313020Y282242D02*
X313020Y282242D01*
X313039Y282240D01*
X313141Y282262D01*
X313243Y282279D01*
X313260Y282288D01*
X313280Y282292D01*
X313369Y282345D01*
X313460Y282394D01*
X313474Y282408D01*
X313491Y282418D01*
X313558Y282497D01*
X313630Y282572D01*
X313638Y282590D01*
X313651Y282605D01*
X313690Y282701D01*
X313733Y282795D01*
X313735Y282815D01*
X313743Y282833D01*
X313761Y283000D01*
X313761Y285239D01*
X317000Y285239D01*
X317020Y285242D01*
X317039Y285240D01*
X317141Y285262D01*
X317243Y285279D01*
X317260Y285288D01*
X317280Y285292D01*
X317369Y285345D01*
X317460Y285394D01*
X317474Y285408D01*
X317491Y285418D01*
X317558Y285497D01*
X317630Y285572D01*
X317638Y285590D01*
X317651Y285605D01*
X317690Y285701D01*
X317733Y285795D01*
X317735Y285815D01*
X317743Y285833D01*
X317761Y286000D01*
X317761Y290000D01*
X317758Y290020D01*
X317760Y290039D01*
X317738Y290141D01*
X317722Y290243D01*
X317712Y290260D01*
X317708Y290280D01*
X317655Y290369D01*
X317606Y290460D01*
X317592Y290474D01*
X317582Y290491D01*
X317503Y290558D01*
X317428Y290630D01*
X317410Y290638D01*
X317395Y290651D01*
X317299Y290690D01*
X317205Y290733D01*
X317185Y290735D01*
X317167Y290743D01*
X317000Y290761D01*
X304000Y290761D01*
X303980Y290758D01*
X303961Y290760D01*
X303859Y290738D01*
X303757Y290722D01*
X303740Y290712D01*
X303720Y290708D01*
X303631Y290655D01*
X303540Y290606D01*
X303526Y290592D01*
X303509Y290582D01*
X303442Y290503D01*
X303371Y290428D01*
X303362Y290410D01*
X303349Y290395D01*
X303310Y290299D01*
X303267Y290205D01*
X303265Y290185D01*
X303257Y290167D01*
X303239Y290000D01*
X303239Y287000D01*
X303254Y286910D01*
X303261Y286819D01*
X303273Y286789D01*
X303279Y286757D01*
X303321Y286677D01*
X303357Y286593D01*
X303383Y286561D01*
X303394Y286540D01*
X303417Y286518D01*
X303462Y286462D01*
X304462Y285462D01*
X304536Y285409D01*
X304605Y285349D01*
X304635Y285337D01*
X304661Y285318D01*
X304748Y285291D01*
X304833Y285257D01*
X304874Y285253D01*
X304897Y285246D01*
X304929Y285247D01*
X305000Y285239D01*
X306239Y285239D01*
X306239Y283000D01*
X306242Y282980D01*
X306240Y282961D01*
X306262Y282859D01*
X306279Y282757D01*
X306288Y282740D01*
X306292Y282720D01*
X306345Y282631D01*
X306394Y282540D01*
X306408Y282526D01*
X306418Y282509D01*
X306497Y282442D01*
X306572Y282371D01*
X306590Y282362D01*
X306605Y282349D01*
X306701Y282310D01*
X306795Y282267D01*
X306815Y282265D01*
X306833Y282257D01*
X307000Y282239D01*
X313000Y282239D01*
X313020Y282242D01*
G37*
D10*
X300500Y380000D03*
X319500Y380000D03*
D11*
X337500Y26000D03*
X357500Y26000D03*
D12*
X205000Y555500D03*
X205000Y574500D03*
D10*
X300500Y457500D03*
X319500Y457500D03*
X300500Y302500D03*
X319500Y302500D03*
D12*
X420000Y279500D03*
X420000Y260500D03*
X420000Y357000D03*
X420000Y338000D03*
X420000Y434500D03*
X420000Y415500D03*
D11*
X190000Y26000D03*
X210000Y26000D03*
X485000Y26000D03*
X505000Y26000D03*
D13*
X120700Y452620D02*
X120700Y465380D01*
X95300Y465380D02*
X95300Y452620D01*
D14*
X140780Y155000D03*
X169220Y155000D03*
X288280Y155000D03*
X316720Y155000D03*
X435780Y155000D03*
X464220Y155000D03*
X229220Y155000D03*
X200780Y155000D03*
X376720Y155000D03*
X348280Y155000D03*
X524220Y155000D03*
X495780Y155000D03*
D15*
X109700Y178800D03*
D16*
X109700Y153400D03*
X109700Y128000D03*
X109700Y102600D03*
X109700Y77200D03*
X109700Y51800D03*
D15*
X109700Y407400D03*
D16*
X109700Y382000D03*
X109700Y356600D03*
X109700Y331200D03*
X109700Y305800D03*
X109700Y280400D03*
X109700Y255000D03*
X109700Y229600D03*
D15*
X33500Y509000D03*
D16*
X58900Y509000D03*
X33500Y483600D03*
X58900Y483600D03*
X33500Y458200D03*
X58900Y458200D03*
X33500Y432800D03*
X58900Y432800D03*
X33500Y407400D03*
X58900Y407400D03*
X33500Y382000D03*
X58900Y382000D03*
X33500Y356600D03*
X58900Y356600D03*
X33500Y331200D03*
X58900Y331200D03*
X33500Y305800D03*
X58900Y305800D03*
X33500Y280400D03*
X58900Y280400D03*
X33500Y255000D03*
X58900Y255000D03*
X33500Y229600D03*
X58900Y229600D03*
X33500Y204200D03*
X58900Y204200D03*
X33500Y178800D03*
X58900Y178800D03*
X33500Y153400D03*
X58900Y153400D03*
X33500Y128000D03*
X58900Y128000D03*
X33500Y102600D03*
X58900Y102600D03*
X33500Y77200D03*
X58900Y77200D03*
X33500Y51800D03*
X58900Y51800D03*
D15*
X592300Y270240D03*
D16*
X592300Y295640D03*
X592300Y321040D03*
X592300Y346440D03*
X592300Y371840D03*
X592300Y397240D03*
X592300Y422640D03*
X592300Y448040D03*
X592300Y473440D03*
X592300Y498840D03*
X592300Y102600D03*
X592300Y128000D03*
X592300Y153400D03*
X592300Y178800D03*
X592300Y204200D03*
X592300Y229600D03*
D15*
X592300Y51800D03*
D16*
X592300Y77200D03*
D15*
X643100Y508750D03*
D16*
X668500Y508750D03*
X643100Y483350D03*
X668500Y483350D03*
X643100Y457950D03*
X668500Y457950D03*
X643100Y432550D03*
X668500Y432550D03*
X643100Y407150D03*
X668500Y407150D03*
X643100Y381750D03*
X668500Y381750D03*
X643100Y356350D03*
X668500Y356350D03*
X643100Y330950D03*
X668500Y330950D03*
X643100Y305550D03*
X668500Y305550D03*
X643100Y280150D03*
X668500Y280150D03*
X643100Y254750D03*
X668500Y254750D03*
X643100Y229350D03*
X668500Y229350D03*
X643100Y203950D03*
X668500Y203950D03*
X643100Y178550D03*
X668500Y178550D03*
X643100Y153150D03*
X668500Y153150D03*
X643100Y127750D03*
X668500Y127750D03*
X643100Y102350D03*
X668500Y102350D03*
X643100Y76950D03*
X668500Y76950D03*
X643100Y51550D03*
X668500Y51550D03*
D12*
X205000Y513000D03*
X205000Y532000D03*
D10*
X510500Y247500D03*
X529500Y247500D03*
X510500Y360000D03*
X529500Y360000D03*
X510500Y322500D03*
X529500Y322500D03*
X510500Y435000D03*
X529500Y435000D03*
X510500Y397500D03*
X529500Y397500D03*
X349500Y182500D03*
X330500Y182500D03*
X452000Y182500D03*
X433000Y182500D03*
X497000Y183000D03*
X478000Y183000D03*
X228000Y182500D03*
X247000Y182500D03*
X375500Y182500D03*
X394500Y182500D03*
X309500Y497500D03*
X290500Y497500D03*
X523000Y182500D03*
X542000Y182500D03*
X199500Y285000D03*
X180500Y285000D03*
X199500Y360000D03*
X180500Y360000D03*
X199500Y435000D03*
X180500Y435000D03*
X180500Y247500D03*
X199500Y247500D03*
X180500Y322500D03*
X199500Y322500D03*
X180500Y397500D03*
X199500Y397500D03*
X157000Y182500D03*
X138000Y182500D03*
X202000Y182500D03*
X183000Y182500D03*
X304500Y182500D03*
X285500Y182500D03*
X510500Y285000D03*
X529500Y285000D03*
D17*
X307250Y526750D03*
X298750Y526750D03*
X290250Y526750D03*
X281750Y526750D03*
X273250Y526750D03*
X264750Y526750D03*
X256250Y526750D03*
X247750Y526750D03*
X307250Y540250D03*
X298750Y540250D03*
X290250Y540250D03*
X281750Y540250D03*
X273250Y540250D03*
X264750Y540250D03*
X256250Y540250D03*
X247750Y540250D03*
D18*
X320750Y542550D02*
X320750Y530550D01*
X234250Y530550D02*
X234250Y542550D01*
D19*
X320750Y566050D02*
X320750Y574650D01*
X234250Y574650D02*
X234250Y566050D01*
D20*
X145250Y120000D03*
X145250Y75000D03*
X224750Y120000D03*
X224750Y75000D03*
X292750Y120000D03*
X292750Y75000D03*
X372250Y120000D03*
X372250Y75000D03*
X440250Y120000D03*
X440250Y75000D03*
X519750Y120000D03*
X519750Y75000D03*
D21*
X320256Y270000D03*
X320256Y275000D03*
X320256Y280000D03*
X299744Y280000D03*
X299744Y275000D03*
X299744Y270000D03*
D22*
X310000Y275000D03*
D21*
X320256Y347500D03*
X320256Y352500D03*
X320256Y357500D03*
X299744Y357500D03*
X299744Y352500D03*
X299744Y347500D03*
D22*
X310000Y352500D03*
D21*
X320256Y425000D03*
X320256Y430000D03*
X320256Y435000D03*
X299744Y435000D03*
X299744Y430000D03*
X299744Y425000D03*
D22*
X310000Y430000D03*
D23*
X109700Y305800D02*
X58900Y305800D01*
X165000Y397500D02*
X180500Y397500D01*
D24*
X165000Y397500D03*
D23*
X165000Y322500D02*
X180500Y322500D01*
D24*
X165000Y322500D03*
D23*
X165000Y247500D02*
X180500Y247500D01*
D24*
X165000Y247500D03*
D23*
X420000Y415500D02*
X437000Y415500D01*
X437500Y415000D01*
D24*
X437500Y415000D03*
D23*
X420000Y338000D02*
X420500Y337500D01*
X437500Y337500D01*
D24*
X437500Y337500D03*
D23*
X420000Y260500D02*
X420500Y260000D01*
X437500Y260000D01*
D24*
X437500Y260000D03*
D23*
X495000Y397500D02*
X510500Y397500D01*
D24*
X495000Y397500D03*
D23*
X495000Y322500D02*
X510500Y322500D01*
D24*
X495000Y322500D03*
D23*
X495000Y247500D02*
X510500Y247500D01*
D24*
X495000Y247500D03*
D23*
X523000Y197000D02*
X523000Y182500D01*
X523000Y197000D02*
X522500Y197500D01*
D24*
X522500Y197500D03*
D23*
X375500Y182500D02*
X375000Y183000D01*
X375000Y197500D01*
D24*
X375000Y197500D03*
D23*
X330500Y197000D02*
X330500Y182500D01*
X330500Y197000D02*
X330000Y197500D01*
D24*
X330000Y197500D03*
D23*
X228000Y197000D02*
X228000Y182500D01*
X228000Y197000D02*
X227500Y197500D01*
D24*
X227500Y197500D03*
D23*
X183000Y197000D02*
X183000Y182500D01*
X183000Y197000D02*
X182500Y197500D01*
D24*
X182500Y197500D03*
D23*
X138000Y182500D02*
X137500Y183000D01*
X137500Y197500D01*
D24*
X137500Y197500D03*
D23*
X247750Y556850D02*
X234250Y570350D01*
X247750Y556850D02*
X247750Y540250D01*
X234250Y536550D02*
X234250Y570350D01*
X320750Y570350D02*
X320750Y536550D01*
X307250Y556850D02*
X320750Y570350D01*
X307250Y556850D02*
X307250Y540250D01*
X247750Y540250D02*
X247750Y526750D01*
X307250Y526750D02*
X307250Y540250D01*
X205000Y574500D02*
X185500Y574500D01*
X185000Y575000D01*
D24*
X185000Y575000D03*
D23*
X205000Y513000D02*
X205000Y497500D01*
D24*
X205000Y497500D03*
D23*
X309500Y497500D02*
X310000Y497500D01*
D24*
X325000Y497500D03*
D23*
X310000Y497500D01*
X310000Y524000D02*
X307250Y526750D01*
X310000Y524000D02*
X310000Y497500D01*
X319500Y457500D02*
X337500Y457500D01*
D24*
X337500Y457500D03*
D23*
X337500Y380000D02*
X319500Y380000D01*
D24*
X337500Y380000D03*
D23*
X335000Y302500D02*
X319500Y302500D01*
D24*
X335000Y302500D03*
D23*
X320256Y340256D02*
X320256Y347500D01*
X320256Y340256D02*
X320000Y340000D01*
D24*
X320000Y340000D03*
D23*
X320256Y270000D02*
X320256Y262756D01*
X320000Y262500D01*
D24*
X320000Y262500D03*
D23*
X320256Y415256D02*
X320256Y425000D01*
X320256Y415256D02*
X320000Y415000D01*
D24*
X320000Y415000D03*
D23*
X433000Y197000D02*
X433000Y182500D01*
X433000Y197000D02*
X432500Y197500D01*
D24*
X432500Y197500D03*
D23*
X478000Y197000D02*
X478000Y183000D01*
X478000Y197000D02*
X477500Y197500D01*
D24*
X477500Y197500D03*
X285000Y197500D03*
D23*
X285000Y183000D02*
X285500Y182500D01*
X285000Y183000D02*
X285000Y197500D01*
X310000Y260000D02*
X310000Y275000D01*
X310000Y260000D02*
X317500Y260000D01*
X320000Y262500D01*
X310000Y339000D02*
X310000Y352500D01*
X310000Y339000D02*
X319000Y339000D01*
X320000Y340000D01*
X310000Y416000D02*
X310000Y430000D01*
X310000Y416000D02*
X310744Y415256D01*
X320256Y415256D01*
X109700Y229600D02*
X58900Y229600D01*
X592300Y448040D02*
X627610Y448040D01*
X643100Y432550D01*
X231544Y581382D02*
X227718Y577556D01*
X231544Y581382D02*
X236956Y581382D01*
X227718Y554718D02*
X205000Y532000D01*
X227718Y554718D02*
X227718Y577556D01*
X255913Y562425D02*
X259019Y562425D01*
X264750Y556695D01*
X264750Y540250D01*
X255913Y562425D02*
X236956Y581382D01*
X290250Y497750D02*
X290500Y497500D01*
X290250Y497750D02*
X290250Y526750D01*
X529500Y360000D02*
X529500Y322500D01*
X529500Y360000D02*
X612500Y360000D01*
X614050Y360000D01*
X639450Y360000D01*
X643100Y356350D01*
X638427Y469232D02*
X647773Y469232D01*
X659055Y457950D02*
X668500Y457950D01*
X659055Y457950D02*
X647773Y469232D01*
X638427Y469232D02*
X628517Y459322D01*
X553822Y459322D02*
X529500Y435000D01*
X553822Y459322D02*
X628517Y459322D01*
X529500Y435000D02*
X529500Y397500D01*
X222000Y270000D02*
X199500Y247500D01*
X222000Y270000D02*
X299744Y270000D01*
X207000Y397500D02*
X199500Y397500D01*
X207000Y397500D02*
X227000Y417500D01*
X292244Y417500D02*
X299744Y425000D01*
X292244Y417500D02*
X227000Y417500D01*
X224500Y347500D02*
X199500Y322500D01*
X224500Y347500D02*
X299744Y347500D01*
X220278Y555500D02*
X205000Y555500D01*
X220278Y555500D02*
X221139Y556361D01*
D24*
X221139Y556361D03*
X256611Y556611D03*
D23*
X256611Y540611D01*
X256250Y540250D01*
X256250Y526750D02*
X246500Y517000D01*
D24*
X220000Y515000D03*
D23*
X244500Y515000D01*
X300500Y302500D02*
X300500Y280756D01*
X299744Y280000D01*
X300500Y358256D02*
X300500Y380000D01*
X300500Y358256D02*
X299744Y357500D01*
X300500Y435756D02*
X300500Y457500D01*
X300500Y435756D02*
X299744Y435000D01*
X220000Y515000D02*
X219874Y515000D01*
X120850Y459150D02*
X120700Y459000D01*
X244500Y513500D02*
X300500Y457500D01*
X244500Y513500D02*
X244500Y515000D01*
X275000Y380000D02*
X300500Y380000D01*
D24*
X275000Y380000D03*
X135000Y380000D03*
D23*
X135000Y445000D01*
X120850Y459150D01*
X277500Y302500D02*
X300500Y302500D01*
D24*
X277500Y302500D03*
D23*
X299000Y526500D02*
X298750Y526750D01*
X299000Y526500D02*
X299000Y517000D01*
D24*
X299000Y517000D03*
X276000Y517000D03*
D23*
X246500Y517000D01*
X244500Y515000D01*
X282000Y557000D02*
X298750Y540250D01*
X282000Y557000D02*
X280000Y557000D01*
D24*
X280000Y557000D03*
D23*
X192000Y459000D02*
X120700Y459000D01*
X192000Y459000D02*
X220000Y487000D01*
X220000Y514874D01*
X219874Y515000D01*
X529500Y285000D02*
X529500Y247500D01*
X529500Y285000D02*
X552000Y307500D01*
X619650Y307500D02*
X643100Y330950D01*
X619650Y307500D02*
X552000Y307500D01*
X299744Y275000D02*
X292500Y275000D01*
X252500Y315000D01*
D24*
X252500Y315000D03*
D23*
X217500Y435000D02*
X199500Y435000D01*
D24*
X217500Y435000D03*
X332500Y420000D03*
D23*
X325592Y426909D01*
X325592Y427442D01*
X323033Y430000D01*
X320256Y430000D01*
D24*
X390000Y405000D03*
D23*
X462500Y405000D01*
X485000Y382500D01*
X572500Y382500D01*
D24*
X572500Y382500D03*
D23*
X299744Y430000D02*
X242500Y430000D01*
X215000Y457500D01*
D24*
X215000Y457500D03*
D23*
X217500Y285000D02*
X199500Y285000D01*
D24*
X217500Y285000D03*
X335000Y265000D03*
D23*
X324401Y273632D02*
X321624Y273632D01*
X320256Y275000D01*
X333033Y265000D02*
X335000Y265000D01*
X333033Y265000D02*
X324401Y273632D01*
D24*
X342500Y290000D03*
D23*
X350000Y297500D01*
X673173Y345068D02*
X679782Y351677D01*
X679782Y361023D01*
X668500Y372305D01*
X668500Y381750D01*
X673173Y345068D02*
X606883Y345068D01*
X596973Y335158D02*
X572658Y335158D01*
X596973Y335158D02*
X606883Y345068D01*
X535000Y297500D02*
X350000Y297500D01*
X535000Y297500D02*
X572658Y335158D01*
D24*
X255000Y392500D03*
D23*
X298376Y353868D02*
X299744Y352500D01*
X269186Y377592D02*
X269186Y378314D01*
X255000Y392500D01*
X292910Y353868D02*
X298376Y353868D01*
X292910Y353868D02*
X269186Y377592D01*
X220000Y360000D02*
X199500Y360000D01*
D24*
X220000Y360000D03*
X335000Y345000D03*
D23*
X327500Y352500D01*
X320256Y352500D01*
D24*
X430000Y370000D03*
D23*
X432500Y372500D01*
X577005Y372500D02*
X587627Y383122D01*
X654382Y370468D02*
X668500Y356350D01*
X654382Y370468D02*
X638427Y370468D01*
X625773Y383122D02*
X587627Y383122D01*
X625773Y383122D02*
X638427Y370468D01*
X577005Y372500D02*
X432500Y372500D01*
X180500Y435000D02*
X152500Y435000D01*
X152500Y360000D01*
X180500Y360000D01*
X152500Y360000D02*
X123700Y331200D01*
X109700Y331200D01*
X169900Y285000D02*
X180500Y285000D01*
X169900Y285000D02*
X123700Y331200D01*
X145250Y120000D02*
X162500Y120000D01*
D24*
X162500Y120000D03*
X160000Y267500D03*
D23*
X177500Y285000D01*
X180500Y285000D01*
X275000Y120000D02*
X292750Y120000D01*
D24*
X275000Y120000D03*
D23*
X422500Y120000D02*
X440250Y120000D01*
D24*
X422500Y120000D03*
D23*
X224750Y120000D02*
X224750Y109750D01*
X202500Y87500D01*
D24*
X202500Y87500D03*
D23*
X372250Y120000D02*
X372500Y120250D01*
X372500Y135000D01*
D24*
X372500Y135000D03*
D23*
X519750Y120000D02*
X519750Y102750D01*
X520000Y102500D01*
D24*
X520000Y102500D03*
D23*
X169220Y170280D02*
X157000Y182500D01*
X169220Y170280D02*
X169220Y155000D01*
X200780Y155000D02*
X200780Y181280D01*
X202000Y182500D01*
X304500Y182500D02*
X316720Y170280D01*
X316720Y155000D01*
X349500Y156220D02*
X349500Y182500D01*
X349500Y156220D02*
X348280Y155000D01*
X450780Y181280D02*
X452000Y182500D01*
X450780Y181280D02*
X450780Y168440D01*
X464220Y155000D01*
X497000Y156220D02*
X497000Y183000D01*
X497000Y156220D02*
X495780Y155000D01*
X140780Y155000D02*
X133500Y155000D01*
X109700Y178800D01*
X206720Y132500D02*
X229220Y155000D01*
X127500Y132500D02*
X109700Y150300D01*
X109700Y153400D01*
X127500Y132500D02*
X206720Y132500D01*
X288280Y138280D02*
X288280Y155000D01*
X288280Y138280D02*
X287500Y137500D01*
D24*
X287500Y137500D03*
X220000Y135000D03*
D23*
X195000Y110000D01*
X127700Y110000D02*
X109700Y128000D01*
X127700Y110000D02*
X195000Y110000D01*
X324220Y102500D02*
X376720Y155000D01*
X324220Y102500D02*
X312500Y102500D01*
D24*
X312500Y102500D03*
D23*
X407500Y126720D02*
X435780Y155000D01*
X407500Y126720D02*
X407500Y67500D01*
X397500Y57500D01*
X129400Y57500D02*
X109700Y77200D01*
X129400Y57500D02*
X397500Y57500D01*
X461720Y92500D02*
X524220Y155000D01*
X461720Y92500D02*
X420000Y92500D01*
X415000Y87500D01*
X415000Y52500D01*
X405000Y42500D01*
X119000Y42500D02*
X109700Y51800D01*
X119000Y42500D02*
X405000Y42500D01*
X247000Y97250D02*
X247000Y182500D01*
X247000Y97250D02*
X224750Y75000D01*
X394500Y97250D02*
X394500Y182500D01*
X394500Y97250D02*
X372250Y75000D01*
X542000Y97250D02*
X542000Y182500D01*
X542000Y97250D02*
X519750Y75000D01*
X419500Y357500D02*
X320256Y357500D01*
X419500Y357500D02*
X420000Y357000D01*
X423000Y360000D01*
X510500Y360000D01*
X491000Y26000D02*
X485000Y26000D01*
X491000Y26000D02*
X557500Y92500D01*
X557500Y205000D01*
X550000Y212500D02*
X390000Y212500D01*
X550000Y212500D02*
X557500Y205000D01*
D24*
X390000Y212500D03*
X352500Y305000D03*
D23*
X321624Y356132D02*
X320256Y357500D01*
X340814Y316686D02*
X352500Y305000D01*
X340814Y316686D02*
X340814Y347408D01*
X332090Y356132D01*
X321624Y356132D01*
X322500Y434500D02*
X420000Y434500D01*
X322500Y434500D02*
X320756Y434500D01*
X320256Y435000D01*
X420000Y434500D02*
X420500Y435000D01*
X510500Y435000D01*
X337500Y26000D02*
X229000Y26000D01*
X220000Y35000D02*
X97500Y35000D01*
X90000Y42500D01*
X90000Y197500D01*
X100000Y207500D01*
X332500Y207500D01*
X372500Y247500D01*
X372500Y260000D01*
X220000Y35000D02*
X229000Y26000D01*
D24*
X372500Y260000D03*
X370000Y305000D03*
D23*
X370000Y342500D02*
X362500Y350000D01*
X370000Y342500D02*
X370000Y305000D01*
D24*
X362500Y350000D03*
X362500Y382500D03*
D23*
X338314Y406686D01*
X323368Y433632D02*
X322500Y434500D01*
X338314Y422408D02*
X338314Y406686D01*
X338314Y422408D02*
X327090Y433632D01*
X323368Y433632D01*
X320756Y279500D02*
X420000Y279500D01*
X320756Y279500D02*
X320256Y280000D01*
X420000Y279500D02*
X425500Y285000D01*
X510500Y285000D01*
X190000Y26000D02*
X91500Y26000D01*
X77500Y40000D01*
X340814Y250092D02*
X340814Y267408D01*
X321624Y278632D02*
X320256Y280000D01*
X329590Y278632D02*
X340814Y267408D01*
X329590Y278632D02*
X321624Y278632D01*
X340814Y250092D02*
X308222Y217500D01*
X77500Y202500D02*
X77500Y40000D01*
X77500Y202500D02*
X92500Y217500D01*
X308222Y217500D01*
X94500Y458200D02*
X58900Y458200D01*
X94500Y458200D02*
X95300Y459000D01*
M02*
