G04 EAGLE Gerber RS-274X export*
G75*
%MOMM*%
%FSLAX34Y34*%
%LPD*%
%INBottom Copper*%
%IPPOS*%
%AMOC8*
5,1,8,0,0,1.08239X$1,22.5*%
G01*
%ADD10C,1.620000*%
%ADD11R,5.580000X5.580000*%
%ADD12C,1.800000*%
%ADD13R,1.980000X1.980000*%
%ADD14C,1.980000*%
%ADD15C,3.600000*%
%ADD16C,0.452400*%
%ADD17C,0.152400*%

G36*
X990620Y11942D02*
X990620Y11942D01*
X990639Y11940D01*
X990741Y11962D01*
X990843Y11979D01*
X990860Y11988D01*
X990880Y11992D01*
X990969Y12045D01*
X991060Y12094D01*
X991074Y12108D01*
X991091Y12118D01*
X991158Y12197D01*
X991230Y12272D01*
X991238Y12290D01*
X991251Y12305D01*
X991290Y12401D01*
X991333Y12495D01*
X991335Y12515D01*
X991343Y12533D01*
X991361Y12700D01*
X991361Y787400D01*
X991358Y787420D01*
X991360Y787439D01*
X991338Y787541D01*
X991322Y787643D01*
X991312Y787660D01*
X991308Y787680D01*
X991255Y787769D01*
X991206Y787860D01*
X991192Y787874D01*
X991182Y787891D01*
X991103Y787958D01*
X991028Y788030D01*
X991010Y788038D01*
X990995Y788051D01*
X990899Y788090D01*
X990805Y788133D01*
X990785Y788135D01*
X990767Y788143D01*
X990600Y788161D01*
X12700Y788161D01*
X12680Y788158D01*
X12661Y788160D01*
X12559Y788138D01*
X12457Y788122D01*
X12440Y788112D01*
X12420Y788108D01*
X12331Y788055D01*
X12240Y788006D01*
X12226Y787992D01*
X12209Y787982D01*
X12142Y787903D01*
X12071Y787828D01*
X12062Y787810D01*
X12049Y787795D01*
X12010Y787699D01*
X11967Y787605D01*
X11965Y787585D01*
X11957Y787567D01*
X11939Y787400D01*
X11939Y12700D01*
X11942Y12680D01*
X11940Y12661D01*
X11962Y12559D01*
X11979Y12457D01*
X11988Y12440D01*
X11992Y12420D01*
X12045Y12331D01*
X12094Y12240D01*
X12108Y12226D01*
X12118Y12209D01*
X12197Y12142D01*
X12272Y12071D01*
X12290Y12062D01*
X12305Y12049D01*
X12401Y12010D01*
X12495Y11967D01*
X12515Y11965D01*
X12533Y11957D01*
X12700Y11939D01*
X990600Y11939D01*
X990620Y11942D01*
G37*
%LPC*%
G36*
X531937Y339367D02*
X531937Y339367D01*
X530660Y340644D01*
X530586Y340697D01*
X530516Y340757D01*
X530486Y340769D01*
X530460Y340788D01*
X530373Y340815D01*
X530288Y340849D01*
X530247Y340853D01*
X530225Y340860D01*
X530193Y340859D01*
X530121Y340867D01*
X519858Y340867D01*
X424549Y436176D01*
X424475Y436229D01*
X424406Y436289D01*
X424375Y436301D01*
X424349Y436320D01*
X424262Y436347D01*
X424177Y436381D01*
X424136Y436385D01*
X424114Y436392D01*
X424082Y436391D01*
X424011Y436399D01*
X403044Y436399D01*
X341835Y497608D01*
X341762Y497661D01*
X341692Y497721D01*
X341662Y497733D01*
X341636Y497752D01*
X341549Y497779D01*
X341464Y497813D01*
X341423Y497817D01*
X341401Y497824D01*
X341368Y497823D01*
X341297Y497831D01*
X281204Y497831D01*
X281134Y497820D01*
X281062Y497818D01*
X281013Y497800D01*
X280962Y497792D01*
X280898Y497758D01*
X280831Y497733D01*
X280790Y497701D01*
X280744Y497676D01*
X280695Y497624D01*
X280639Y497580D01*
X280611Y497536D01*
X280575Y497498D01*
X280545Y497433D01*
X280506Y497373D01*
X280493Y497322D01*
X280471Y497275D01*
X280463Y497204D01*
X280446Y497134D01*
X280450Y497082D01*
X280444Y497031D01*
X280459Y496960D01*
X280465Y496889D01*
X280485Y496841D01*
X280496Y496790D01*
X280533Y496729D01*
X280561Y496663D01*
X280606Y496607D01*
X280623Y496579D01*
X280640Y496564D01*
X280666Y496532D01*
X283270Y493928D01*
X284971Y489822D01*
X284971Y485378D01*
X283270Y481272D01*
X280128Y478130D01*
X276022Y476429D01*
X271578Y476429D01*
X267472Y478130D01*
X264330Y481272D01*
X262629Y485378D01*
X262629Y489822D01*
X264330Y493928D01*
X266934Y496532D01*
X266976Y496590D01*
X267025Y496642D01*
X267047Y496689D01*
X267077Y496731D01*
X267099Y496800D01*
X267129Y496865D01*
X267135Y496917D01*
X267150Y496967D01*
X267148Y497038D01*
X267156Y497109D01*
X267145Y497160D01*
X267143Y497212D01*
X267119Y497280D01*
X267104Y497350D01*
X267077Y497395D01*
X267059Y497443D01*
X267014Y497499D01*
X266977Y497561D01*
X266938Y497595D01*
X266905Y497635D01*
X266845Y497674D01*
X266791Y497721D01*
X266742Y497740D01*
X266698Y497768D01*
X266629Y497786D01*
X266562Y497813D01*
X266491Y497821D01*
X266460Y497829D01*
X266437Y497827D01*
X266396Y497831D01*
X230404Y497831D01*
X230334Y497820D01*
X230262Y497818D01*
X230213Y497800D01*
X230162Y497792D01*
X230098Y497758D01*
X230031Y497733D01*
X229990Y497701D01*
X229944Y497676D01*
X229895Y497624D01*
X229839Y497580D01*
X229811Y497536D01*
X229775Y497498D01*
X229745Y497433D01*
X229706Y497373D01*
X229693Y497322D01*
X229671Y497275D01*
X229663Y497204D01*
X229646Y497134D01*
X229650Y497082D01*
X229644Y497031D01*
X229659Y496960D01*
X229665Y496889D01*
X229685Y496841D01*
X229696Y496790D01*
X229733Y496729D01*
X229761Y496663D01*
X229806Y496607D01*
X229823Y496579D01*
X229840Y496564D01*
X229866Y496532D01*
X232470Y493928D01*
X234171Y489822D01*
X234171Y485378D01*
X232470Y481272D01*
X229328Y478130D01*
X225222Y476429D01*
X220778Y476429D01*
X216672Y478130D01*
X213530Y481272D01*
X211829Y485378D01*
X211829Y489822D01*
X213530Y493928D01*
X216134Y496532D01*
X216176Y496590D01*
X216225Y496642D01*
X216247Y496689D01*
X216277Y496731D01*
X216299Y496800D01*
X216329Y496865D01*
X216335Y496917D01*
X216350Y496967D01*
X216348Y497038D01*
X216356Y497109D01*
X216345Y497160D01*
X216343Y497212D01*
X216319Y497280D01*
X216304Y497350D01*
X216277Y497395D01*
X216259Y497443D01*
X216214Y497499D01*
X216177Y497561D01*
X216138Y497595D01*
X216105Y497635D01*
X216045Y497674D01*
X215991Y497721D01*
X215942Y497740D01*
X215898Y497768D01*
X215829Y497786D01*
X215762Y497813D01*
X215691Y497821D01*
X215660Y497829D01*
X215637Y497827D01*
X215596Y497831D01*
X205004Y497831D01*
X204934Y497820D01*
X204862Y497818D01*
X204813Y497800D01*
X204762Y497792D01*
X204698Y497758D01*
X204631Y497733D01*
X204590Y497701D01*
X204544Y497676D01*
X204495Y497624D01*
X204439Y497580D01*
X204411Y497536D01*
X204375Y497498D01*
X204345Y497433D01*
X204306Y497373D01*
X204293Y497322D01*
X204271Y497275D01*
X204263Y497204D01*
X204246Y497134D01*
X204250Y497082D01*
X204244Y497031D01*
X204259Y496960D01*
X204265Y496889D01*
X204285Y496841D01*
X204296Y496790D01*
X204333Y496729D01*
X204361Y496663D01*
X204406Y496607D01*
X204423Y496579D01*
X204440Y496564D01*
X204466Y496532D01*
X207070Y493928D01*
X208771Y489822D01*
X208771Y485378D01*
X207070Y481272D01*
X203928Y478130D01*
X199822Y476429D01*
X195378Y476429D01*
X191272Y478130D01*
X188130Y481272D01*
X186429Y485378D01*
X186429Y489822D01*
X188130Y493928D01*
X191068Y496866D01*
X191080Y496882D01*
X191095Y496895D01*
X191152Y496982D01*
X191212Y497066D01*
X191218Y497085D01*
X191228Y497102D01*
X191254Y497202D01*
X191284Y497301D01*
X191284Y497321D01*
X191289Y497340D01*
X191280Y497443D01*
X191278Y497547D01*
X191271Y497566D01*
X191269Y497585D01*
X191229Y497680D01*
X191193Y497778D01*
X191181Y497793D01*
X191173Y497812D01*
X191068Y497943D01*
X183267Y505744D01*
X183193Y505797D01*
X183123Y505857D01*
X183093Y505869D01*
X183067Y505888D01*
X182980Y505915D01*
X182895Y505949D01*
X182854Y505953D01*
X182832Y505960D01*
X182800Y505959D01*
X182728Y505967D01*
X155679Y505967D01*
X155589Y505953D01*
X155498Y505945D01*
X155468Y505933D01*
X155436Y505928D01*
X155355Y505885D01*
X155271Y505849D01*
X155239Y505823D01*
X155219Y505812D01*
X155196Y505789D01*
X155140Y505744D01*
X153863Y504467D01*
X150937Y504467D01*
X148867Y506537D01*
X148867Y509463D01*
X150937Y511533D01*
X153863Y511533D01*
X155140Y510256D01*
X155214Y510203D01*
X155284Y510143D01*
X155314Y510131D01*
X155340Y510112D01*
X155427Y510085D01*
X155512Y510051D01*
X155553Y510047D01*
X155575Y510040D01*
X155607Y510041D01*
X155679Y510033D01*
X184728Y510033D01*
X185453Y509307D01*
X185532Y509250D01*
X185607Y509188D01*
X185632Y509179D01*
X185653Y509163D01*
X185746Y509135D01*
X185837Y509100D01*
X185863Y509099D01*
X185888Y509091D01*
X185986Y509094D01*
X186083Y509089D01*
X186108Y509097D01*
X186134Y509097D01*
X186226Y509131D01*
X186319Y509158D01*
X186341Y509173D01*
X186365Y509182D01*
X186441Y509243D01*
X186521Y509298D01*
X186537Y509319D01*
X186557Y509336D01*
X186610Y509418D01*
X186668Y509496D01*
X186676Y509520D01*
X186690Y509542D01*
X186714Y509637D01*
X186744Y509730D01*
X186744Y509756D01*
X186750Y509781D01*
X186743Y509878D01*
X186742Y509975D01*
X186733Y510007D01*
X186731Y510026D01*
X186718Y510057D01*
X186695Y510137D01*
X186429Y510778D01*
X186429Y515222D01*
X188130Y519328D01*
X191272Y522470D01*
X195378Y524171D01*
X199822Y524171D01*
X203928Y522470D01*
X207070Y519328D01*
X208771Y515222D01*
X208771Y510778D01*
X207070Y506672D01*
X203928Y503530D01*
X203521Y503361D01*
X203438Y503310D01*
X203352Y503264D01*
X203334Y503245D01*
X203312Y503232D01*
X203249Y503157D01*
X203182Y503086D01*
X203171Y503062D01*
X203155Y503042D01*
X203120Y502951D01*
X203079Y502863D01*
X203076Y502837D01*
X203067Y502813D01*
X203062Y502715D01*
X203052Y502619D01*
X203057Y502593D01*
X203056Y502567D01*
X203083Y502473D01*
X203104Y502378D01*
X203117Y502356D01*
X203125Y502331D01*
X203180Y502251D01*
X203230Y502167D01*
X203250Y502150D01*
X203265Y502129D01*
X203343Y502071D01*
X203417Y502007D01*
X203441Y501997D01*
X203462Y501982D01*
X203555Y501952D01*
X203645Y501915D01*
X203678Y501912D01*
X203696Y501906D01*
X203729Y501906D01*
X203812Y501897D01*
X216788Y501897D01*
X216884Y501912D01*
X216981Y501922D01*
X217005Y501932D01*
X217031Y501936D01*
X217117Y501982D01*
X217206Y502022D01*
X217225Y502039D01*
X217248Y502052D01*
X217315Y502122D01*
X217387Y502188D01*
X217400Y502211D01*
X217418Y502230D01*
X217459Y502318D01*
X217506Y502404D01*
X217510Y502429D01*
X217521Y502453D01*
X217532Y502550D01*
X217549Y502646D01*
X217545Y502672D01*
X217548Y502697D01*
X217528Y502792D01*
X217513Y502889D01*
X217502Y502912D01*
X217496Y502938D01*
X217446Y503021D01*
X217402Y503108D01*
X217383Y503127D01*
X217370Y503149D01*
X217296Y503212D01*
X217226Y503280D01*
X217198Y503296D01*
X217183Y503309D01*
X217152Y503321D01*
X217079Y503361D01*
X216672Y503530D01*
X213530Y506672D01*
X211829Y510778D01*
X211829Y515222D01*
X213530Y519328D01*
X216672Y522470D01*
X220778Y524171D01*
X225222Y524171D01*
X229328Y522470D01*
X232470Y519328D01*
X234171Y515222D01*
X234171Y510778D01*
X232470Y506672D01*
X229328Y503530D01*
X228921Y503361D01*
X228838Y503310D01*
X228752Y503264D01*
X228734Y503245D01*
X228712Y503232D01*
X228649Y503157D01*
X228582Y503086D01*
X228571Y503062D01*
X228555Y503042D01*
X228520Y502951D01*
X228479Y502863D01*
X228476Y502837D01*
X228467Y502813D01*
X228462Y502715D01*
X228452Y502619D01*
X228457Y502593D01*
X228456Y502567D01*
X228483Y502473D01*
X228504Y502378D01*
X228517Y502356D01*
X228525Y502331D01*
X228580Y502251D01*
X228630Y502167D01*
X228650Y502150D01*
X228665Y502129D01*
X228743Y502071D01*
X228817Y502007D01*
X228841Y501997D01*
X228862Y501982D01*
X228955Y501952D01*
X229045Y501915D01*
X229078Y501912D01*
X229096Y501906D01*
X229129Y501906D01*
X229212Y501897D01*
X261868Y501897D01*
X261888Y501900D01*
X261907Y501898D01*
X262009Y501920D01*
X262111Y501936D01*
X262128Y501946D01*
X262148Y501950D01*
X262237Y502003D01*
X262328Y502052D01*
X262342Y502066D01*
X262359Y502076D01*
X262426Y502155D01*
X262498Y502230D01*
X262506Y502248D01*
X262519Y502263D01*
X262558Y502359D01*
X262601Y502453D01*
X262603Y502473D01*
X262611Y502491D01*
X262629Y502658D01*
X262629Y523426D01*
X263374Y524171D01*
X284226Y524171D01*
X284971Y523426D01*
X284971Y502658D01*
X284974Y502638D01*
X284972Y502619D01*
X284994Y502517D01*
X285010Y502415D01*
X285020Y502398D01*
X285024Y502378D01*
X285077Y502289D01*
X285126Y502198D01*
X285140Y502184D01*
X285150Y502167D01*
X285229Y502100D01*
X285304Y502028D01*
X285322Y502020D01*
X285337Y502007D01*
X285433Y501968D01*
X285527Y501925D01*
X285547Y501923D01*
X285565Y501915D01*
X285732Y501897D01*
X343297Y501897D01*
X404506Y440688D01*
X404579Y440635D01*
X404649Y440575D01*
X404679Y440563D01*
X404705Y440544D01*
X404792Y440517D01*
X404877Y440483D01*
X404918Y440479D01*
X404940Y440472D01*
X404973Y440473D01*
X405044Y440465D01*
X426010Y440465D01*
X521319Y345156D01*
X521393Y345103D01*
X521462Y345043D01*
X521493Y345031D01*
X521519Y345012D01*
X521606Y344985D01*
X521691Y344951D01*
X521732Y344947D01*
X521754Y344940D01*
X521786Y344941D01*
X521857Y344933D01*
X530121Y344933D01*
X530211Y344947D01*
X530302Y344955D01*
X530332Y344967D01*
X530364Y344972D01*
X530445Y345015D01*
X530529Y345051D01*
X530561Y345077D01*
X530581Y345088D01*
X530604Y345111D01*
X530660Y345156D01*
X531937Y346433D01*
X534863Y346433D01*
X536933Y344363D01*
X536933Y341437D01*
X534863Y339367D01*
X531937Y339367D01*
G37*
%LPD*%
%LPC*%
G36*
X271578Y324029D02*
X271578Y324029D01*
X267472Y325730D01*
X264330Y328872D01*
X262629Y332978D01*
X262629Y337422D01*
X264330Y341528D01*
X267472Y344670D01*
X267529Y344693D01*
X267568Y344718D01*
X267611Y344733D01*
X267672Y344782D01*
X267738Y344823D01*
X267767Y344858D01*
X267803Y344887D01*
X267845Y344953D01*
X267895Y345013D01*
X267911Y345055D01*
X267936Y345094D01*
X267955Y345170D01*
X267983Y345242D01*
X267985Y345288D01*
X267996Y345333D01*
X267990Y345410D01*
X267993Y345488D01*
X267980Y345532D01*
X267977Y345578D01*
X267946Y345649D01*
X267925Y345724D01*
X267899Y345762D01*
X267881Y345804D01*
X267795Y345911D01*
X267785Y345926D01*
X267781Y345929D01*
X267776Y345935D01*
X258331Y355380D01*
X258331Y366793D01*
X258317Y366883D01*
X258309Y366974D01*
X258297Y367004D01*
X258292Y367036D01*
X258249Y367116D01*
X258213Y367200D01*
X258187Y367232D01*
X258176Y367253D01*
X258153Y367275D01*
X258108Y367331D01*
X236529Y388911D01*
X236523Y388915D01*
X236518Y388922D01*
X236422Y388987D01*
X236329Y389054D01*
X236322Y389056D01*
X236315Y389061D01*
X236205Y389093D01*
X236094Y389126D01*
X236086Y389126D01*
X236079Y389128D01*
X235964Y389123D01*
X235848Y389120D01*
X235841Y389117D01*
X235833Y389117D01*
X235726Y389075D01*
X235617Y389036D01*
X235611Y389031D01*
X235604Y389028D01*
X235516Y388954D01*
X235425Y388882D01*
X235421Y388875D01*
X235415Y388870D01*
X235355Y388772D01*
X235292Y388675D01*
X235290Y388667D01*
X235286Y388660D01*
X235260Y388547D01*
X235232Y388436D01*
X235233Y388429D01*
X235231Y388421D01*
X235239Y388253D01*
X235355Y387523D01*
X223762Y387523D01*
X223742Y387520D01*
X223723Y387522D01*
X223621Y387500D01*
X223519Y387483D01*
X223502Y387474D01*
X223482Y387470D01*
X223393Y387417D01*
X223302Y387368D01*
X223288Y387354D01*
X223271Y387344D01*
X223204Y387265D01*
X223133Y387190D01*
X223124Y387172D01*
X223111Y387157D01*
X223073Y387061D01*
X223029Y386967D01*
X223027Y386947D01*
X223019Y386929D01*
X223001Y386762D01*
X223001Y385999D01*
X222999Y385999D01*
X222999Y386762D01*
X222996Y386782D01*
X222998Y386801D01*
X222976Y386903D01*
X222959Y387005D01*
X222950Y387022D01*
X222946Y387042D01*
X222893Y387131D01*
X222844Y387222D01*
X222830Y387236D01*
X222820Y387253D01*
X222741Y387320D01*
X222666Y387391D01*
X222648Y387400D01*
X222633Y387413D01*
X222537Y387452D01*
X222443Y387495D01*
X222423Y387497D01*
X222405Y387505D01*
X222238Y387523D01*
X199123Y387523D01*
X199123Y398355D01*
X200513Y398134D01*
X202376Y397529D01*
X204120Y396640D01*
X205705Y395489D01*
X207089Y394105D01*
X208240Y392520D01*
X209129Y390776D01*
X209576Y389401D01*
X209580Y389394D01*
X209581Y389386D01*
X209636Y389284D01*
X209689Y389182D01*
X209694Y389177D01*
X209698Y389170D01*
X209783Y389091D01*
X209865Y389011D01*
X209873Y389008D01*
X209878Y389002D01*
X209984Y388954D01*
X210087Y388905D01*
X210095Y388904D01*
X210103Y388901D01*
X210217Y388889D01*
X210332Y388875D01*
X210339Y388877D01*
X210347Y388876D01*
X210460Y388902D01*
X210572Y388925D01*
X210579Y388929D01*
X210587Y388931D01*
X210686Y388991D01*
X210785Y389049D01*
X210790Y389055D01*
X210797Y389059D01*
X210872Y389148D01*
X210947Y389234D01*
X210950Y389242D01*
X210955Y389248D01*
X211024Y389401D01*
X211471Y390776D01*
X212360Y392520D01*
X213511Y394105D01*
X214895Y395489D01*
X216217Y396449D01*
X216273Y396506D01*
X216335Y396555D01*
X216359Y396593D01*
X216390Y396624D01*
X216425Y396695D01*
X216468Y396762D01*
X216479Y396805D01*
X216498Y396845D01*
X216508Y396924D01*
X216528Y397001D01*
X216524Y397045D01*
X216530Y397089D01*
X216515Y397167D01*
X216509Y397246D01*
X216491Y397287D01*
X216483Y397330D01*
X216443Y397399D01*
X216412Y397472D01*
X216376Y397518D01*
X216361Y397544D01*
X216340Y397562D01*
X216308Y397603D01*
X208394Y405517D01*
X208356Y405544D01*
X208325Y405578D01*
X208257Y405615D01*
X208194Y405661D01*
X208150Y405674D01*
X208110Y405696D01*
X208033Y405710D01*
X207959Y405733D01*
X207913Y405732D01*
X207868Y405740D01*
X207791Y405729D01*
X207713Y405727D01*
X207670Y405711D01*
X207624Y405704D01*
X207555Y405669D01*
X207482Y405642D01*
X207446Y405614D01*
X207405Y405593D01*
X207351Y405537D01*
X207290Y405489D01*
X207265Y405450D01*
X207233Y405417D01*
X207167Y405298D01*
X207157Y405282D01*
X207156Y405277D01*
X207152Y405270D01*
X207070Y405072D01*
X203928Y401930D01*
X199822Y400229D01*
X195378Y400229D01*
X191272Y401930D01*
X188130Y405072D01*
X186429Y409178D01*
X186429Y413622D01*
X188130Y417728D01*
X191272Y420870D01*
X191400Y420923D01*
X191439Y420947D01*
X191482Y420963D01*
X191542Y421011D01*
X191609Y421052D01*
X191638Y421088D01*
X191674Y421116D01*
X191716Y421182D01*
X191765Y421242D01*
X191782Y421285D01*
X191807Y421323D01*
X191826Y421399D01*
X191854Y421472D01*
X191856Y421517D01*
X191867Y421562D01*
X191861Y421639D01*
X191864Y421717D01*
X191851Y421761D01*
X191848Y421807D01*
X191817Y421879D01*
X191795Y421953D01*
X191769Y421991D01*
X191751Y422033D01*
X191666Y422140D01*
X191655Y422156D01*
X191651Y422159D01*
X191647Y422164D01*
X190294Y423517D01*
X181431Y432380D01*
X181431Y437679D01*
X181417Y437769D01*
X181409Y437860D01*
X181397Y437889D01*
X181392Y437921D01*
X181349Y438002D01*
X181313Y438086D01*
X181287Y438118D01*
X181276Y438139D01*
X181253Y438161D01*
X181208Y438217D01*
X153281Y466144D01*
X153207Y466197D01*
X153138Y466257D01*
X153107Y466269D01*
X153081Y466288D01*
X152994Y466315D01*
X152909Y466349D01*
X152868Y466353D01*
X152846Y466360D01*
X152814Y466359D01*
X152743Y466367D01*
X150937Y466367D01*
X148867Y468437D01*
X148867Y471363D01*
X150937Y473433D01*
X153863Y473433D01*
X155933Y471363D01*
X155933Y469557D01*
X155947Y469467D01*
X155955Y469376D01*
X155967Y469347D01*
X155972Y469315D01*
X156015Y469234D01*
X156051Y469150D01*
X156077Y469118D01*
X156088Y469097D01*
X156111Y469075D01*
X156156Y469019D01*
X184083Y441092D01*
X185543Y439632D01*
X185580Y439605D01*
X185611Y439571D01*
X185679Y439534D01*
X185742Y439489D01*
X185786Y439475D01*
X185826Y439453D01*
X185903Y439439D01*
X185977Y439416D01*
X186023Y439417D01*
X186069Y439409D01*
X186146Y439420D01*
X186223Y439423D01*
X186266Y439438D01*
X186312Y439445D01*
X186381Y439480D01*
X186454Y439507D01*
X186490Y439536D01*
X186531Y439556D01*
X186586Y439612D01*
X186646Y439661D01*
X186671Y439699D01*
X186703Y439732D01*
X186769Y439852D01*
X186779Y439868D01*
X186781Y439872D01*
X186784Y439879D01*
X188130Y443128D01*
X191272Y446270D01*
X195378Y447971D01*
X199822Y447971D01*
X203928Y446270D01*
X207070Y443128D01*
X208771Y439022D01*
X208771Y434578D01*
X207070Y430472D01*
X203928Y427330D01*
X203447Y427131D01*
X203408Y427107D01*
X203365Y427091D01*
X203304Y427042D01*
X203238Y427001D01*
X203209Y426966D01*
X203173Y426937D01*
X203131Y426872D01*
X203081Y426812D01*
X203065Y426769D01*
X203040Y426730D01*
X203021Y426655D01*
X202993Y426582D01*
X202991Y426536D01*
X202980Y426492D01*
X202986Y426414D01*
X202982Y426336D01*
X202995Y426292D01*
X202999Y426246D01*
X203029Y426175D01*
X203051Y426100D01*
X203077Y426062D01*
X203095Y426020D01*
X203180Y425913D01*
X203191Y425898D01*
X203195Y425895D01*
X203200Y425889D01*
X210983Y418106D01*
X212089Y417000D01*
X212126Y416973D01*
X212158Y416939D01*
X212226Y416902D01*
X212289Y416856D01*
X212333Y416843D01*
X212373Y416821D01*
X212450Y416807D01*
X212524Y416784D01*
X212570Y416785D01*
X212615Y416777D01*
X212692Y416788D01*
X212770Y416790D01*
X212813Y416806D01*
X212858Y416813D01*
X212928Y416848D01*
X213001Y416875D01*
X213037Y416904D01*
X213078Y416924D01*
X213132Y416980D01*
X213193Y417029D01*
X213218Y417067D01*
X213250Y417100D01*
X213316Y417220D01*
X213326Y417235D01*
X213327Y417240D01*
X213331Y417247D01*
X213530Y417728D01*
X216672Y420870D01*
X220778Y422571D01*
X225222Y422571D01*
X229328Y420870D01*
X232470Y417728D01*
X234171Y413622D01*
X234171Y409178D01*
X232470Y405072D01*
X229328Y401930D01*
X228370Y401533D01*
X228287Y401482D01*
X228201Y401436D01*
X228183Y401418D01*
X228161Y401404D01*
X228099Y401328D01*
X228032Y401258D01*
X228021Y401234D01*
X228004Y401214D01*
X227969Y401123D01*
X227928Y401035D01*
X227925Y401009D01*
X227916Y400985D01*
X227912Y400887D01*
X227901Y400791D01*
X227907Y400765D01*
X227906Y400739D01*
X227933Y400645D01*
X227953Y400550D01*
X227967Y400528D01*
X227974Y400503D01*
X228030Y400423D01*
X228080Y400339D01*
X228100Y400322D01*
X228114Y400301D01*
X228193Y400242D01*
X228267Y400179D01*
X228291Y400169D01*
X228312Y400154D01*
X228404Y400124D01*
X228495Y400087D01*
X228527Y400084D01*
X228546Y400078D01*
X228579Y400078D01*
X228661Y400069D01*
X231120Y400069D01*
X262397Y368792D01*
X262397Y368413D01*
X262398Y368405D01*
X262397Y368397D01*
X262418Y368284D01*
X262436Y368170D01*
X262440Y368163D01*
X262442Y368155D01*
X262498Y368054D01*
X262552Y367953D01*
X262557Y367947D01*
X262561Y367940D01*
X262646Y367863D01*
X262730Y367784D01*
X262737Y367780D01*
X262743Y367775D01*
X262848Y367729D01*
X262953Y367680D01*
X262961Y367679D01*
X262968Y367676D01*
X263083Y367665D01*
X263197Y367653D01*
X263205Y367655D01*
X263213Y367654D01*
X263326Y367681D01*
X263438Y367705D01*
X263445Y367709D01*
X263452Y367711D01*
X263551Y367772D01*
X263649Y367831D01*
X263654Y367837D01*
X263661Y367842D01*
X263774Y367966D01*
X264311Y368705D01*
X265695Y370089D01*
X267280Y371240D01*
X269024Y372129D01*
X270399Y372576D01*
X270406Y372580D01*
X270414Y372581D01*
X270515Y372636D01*
X270618Y372689D01*
X270623Y372695D01*
X270630Y372698D01*
X270709Y372783D01*
X270789Y372865D01*
X270792Y372873D01*
X270798Y372879D01*
X270846Y372984D01*
X270895Y373087D01*
X270896Y373095D01*
X270899Y373103D01*
X270911Y373217D01*
X270925Y373332D01*
X270923Y373339D01*
X270924Y373347D01*
X270898Y373460D01*
X270875Y373572D01*
X270871Y373579D01*
X270869Y373587D01*
X270809Y373685D01*
X270751Y373785D01*
X270745Y373790D01*
X270741Y373797D01*
X270653Y373871D01*
X270566Y373947D01*
X270558Y373950D01*
X270552Y373955D01*
X270399Y374024D01*
X269024Y374471D01*
X267280Y375360D01*
X265695Y376511D01*
X264311Y377895D01*
X263160Y379480D01*
X262271Y381224D01*
X261666Y383087D01*
X261445Y384477D01*
X272277Y384477D01*
X272277Y361362D01*
X272280Y361342D01*
X272278Y361323D01*
X272300Y361221D01*
X272317Y361119D01*
X272326Y361102D01*
X272330Y361082D01*
X272383Y360993D01*
X272432Y360902D01*
X272446Y360888D01*
X272456Y360871D01*
X272535Y360804D01*
X272610Y360733D01*
X272628Y360724D01*
X272643Y360711D01*
X272739Y360673D01*
X272833Y360629D01*
X272853Y360627D01*
X272871Y360619D01*
X273038Y360601D01*
X273801Y360601D01*
X273801Y359838D01*
X273804Y359818D01*
X273802Y359799D01*
X273824Y359697D01*
X273841Y359595D01*
X273850Y359578D01*
X273854Y359558D01*
X273907Y359469D01*
X273956Y359378D01*
X273970Y359364D01*
X273980Y359347D01*
X274059Y359280D01*
X274134Y359209D01*
X274152Y359200D01*
X274167Y359187D01*
X274263Y359148D01*
X274357Y359105D01*
X274377Y359103D01*
X274395Y359095D01*
X274562Y359077D01*
X286155Y359077D01*
X285934Y357687D01*
X285329Y355824D01*
X284440Y354080D01*
X283289Y352495D01*
X281905Y351111D01*
X280873Y350361D01*
X280817Y350305D01*
X280755Y350255D01*
X280731Y350218D01*
X280700Y350186D01*
X280665Y350115D01*
X280622Y350048D01*
X280611Y350005D01*
X280592Y349965D01*
X280581Y349887D01*
X280562Y349810D01*
X280565Y349765D01*
X280559Y349722D01*
X280575Y349643D01*
X280581Y349564D01*
X280598Y349524D01*
X280607Y349480D01*
X280646Y349411D01*
X280677Y349338D01*
X280714Y349292D01*
X280729Y349267D01*
X280749Y349248D01*
X280782Y349207D01*
X281934Y348055D01*
X284233Y345756D01*
X284307Y345703D01*
X284377Y345643D01*
X284407Y345631D01*
X284433Y345612D01*
X284520Y345585D01*
X284605Y345551D01*
X284646Y345547D01*
X284668Y345540D01*
X284700Y345541D01*
X284772Y345533D01*
X429121Y345533D01*
X429211Y345547D01*
X429302Y345555D01*
X429332Y345567D01*
X429364Y345572D01*
X429445Y345615D01*
X429529Y345651D01*
X429561Y345677D01*
X429581Y345688D01*
X429604Y345711D01*
X429660Y345756D01*
X430337Y346433D01*
X433263Y346433D01*
X435333Y344363D01*
X435333Y341437D01*
X433263Y339367D01*
X430337Y339367D01*
X428460Y341244D01*
X428386Y341297D01*
X428316Y341357D01*
X428286Y341369D01*
X428260Y341388D01*
X428173Y341415D01*
X428088Y341449D01*
X428047Y341453D01*
X428025Y341460D01*
X427993Y341459D01*
X427921Y341467D01*
X284434Y341467D01*
X284389Y341460D01*
X284343Y341462D01*
X284268Y341440D01*
X284192Y341428D01*
X284151Y341406D01*
X284107Y341393D01*
X284043Y341349D01*
X283974Y341312D01*
X283943Y341279D01*
X283905Y341253D01*
X283859Y341191D01*
X283805Y341134D01*
X283786Y341092D01*
X283758Y341056D01*
X283734Y340982D01*
X283701Y340911D01*
X283696Y340865D01*
X283682Y340822D01*
X283683Y340744D01*
X283674Y340667D01*
X283684Y340622D01*
X283684Y340576D01*
X283722Y340444D01*
X283726Y340426D01*
X283729Y340422D01*
X283731Y340415D01*
X284971Y337422D01*
X284971Y332978D01*
X283270Y328872D01*
X280128Y325730D01*
X276022Y324029D01*
X271578Y324029D01*
G37*
%LPD*%
%LPC*%
G36*
X60474Y61779D02*
X60474Y61779D01*
X59729Y62524D01*
X59729Y119376D01*
X60474Y120121D01*
X117326Y120121D01*
X118071Y119376D01*
X118071Y62524D01*
X117326Y61779D01*
X60474Y61779D01*
G37*
%LPD*%
%LPC*%
G36*
X60474Y311679D02*
X60474Y311679D01*
X59729Y312424D01*
X59729Y369276D01*
X60474Y370021D01*
X117326Y370021D01*
X118071Y369276D01*
X118071Y312424D01*
X117326Y311679D01*
X60474Y311679D01*
G37*
%LPD*%
%LPC*%
G36*
X544637Y237767D02*
X544637Y237767D01*
X543360Y239044D01*
X543286Y239097D01*
X543216Y239157D01*
X543186Y239169D01*
X543160Y239188D01*
X543073Y239215D01*
X542988Y239249D01*
X542947Y239253D01*
X542925Y239260D01*
X542893Y239259D01*
X542821Y239267D01*
X426839Y239267D01*
X420994Y245112D01*
X420921Y245165D01*
X420851Y245225D01*
X420821Y245237D01*
X420795Y245256D01*
X420708Y245283D01*
X420623Y245317D01*
X420582Y245321D01*
X420560Y245328D01*
X420527Y245327D01*
X420456Y245335D01*
X374090Y245335D01*
X292981Y326444D01*
X292907Y326497D01*
X292838Y326557D01*
X292807Y326569D01*
X292781Y326588D01*
X292694Y326615D01*
X292609Y326649D01*
X292568Y326653D01*
X292546Y326660D01*
X292514Y326659D01*
X292443Y326667D01*
X290637Y326667D01*
X288567Y328737D01*
X288567Y331663D01*
X290637Y333733D01*
X293563Y333733D01*
X295633Y331663D01*
X295633Y329857D01*
X295647Y329767D01*
X295655Y329676D01*
X295667Y329647D01*
X295672Y329615D01*
X295715Y329534D01*
X295751Y329450D01*
X295777Y329418D01*
X295788Y329397D01*
X295811Y329375D01*
X295856Y329319D01*
X375551Y249624D01*
X375625Y249571D01*
X375694Y249511D01*
X375725Y249499D01*
X375751Y249480D01*
X375838Y249453D01*
X375923Y249419D01*
X375964Y249415D01*
X375986Y249408D01*
X376018Y249409D01*
X376089Y249401D01*
X422456Y249401D01*
X428301Y243556D01*
X428374Y243503D01*
X428444Y243443D01*
X428474Y243431D01*
X428500Y243412D01*
X428587Y243385D01*
X428672Y243351D01*
X428713Y243347D01*
X428735Y243340D01*
X428768Y243341D01*
X428839Y243333D01*
X542821Y243333D01*
X542911Y243347D01*
X543002Y243355D01*
X543032Y243367D01*
X543064Y243372D01*
X543145Y243415D01*
X543229Y243451D01*
X543261Y243477D01*
X543281Y243488D01*
X543304Y243511D01*
X543306Y243513D01*
X543308Y243514D01*
X543309Y243515D01*
X543360Y243556D01*
X544637Y244833D01*
X547563Y244833D01*
X549633Y242763D01*
X549633Y239837D01*
X547563Y237767D01*
X544637Y237767D01*
G37*
%LPD*%
%LPC*%
G36*
X605767Y488729D02*
X605767Y488729D01*
X598684Y491663D01*
X593263Y497084D01*
X590329Y504167D01*
X590329Y511833D01*
X593263Y518916D01*
X598684Y524337D01*
X605767Y527271D01*
X613433Y527271D01*
X620516Y524337D01*
X625937Y518916D01*
X628871Y511833D01*
X628871Y504167D01*
X625937Y497084D01*
X620516Y491663D01*
X613433Y488729D01*
X605767Y488729D01*
G37*
%LPD*%
%LPC*%
G36*
X567667Y412529D02*
X567667Y412529D01*
X560584Y415463D01*
X555163Y420884D01*
X552229Y427967D01*
X552229Y435633D01*
X555163Y442716D01*
X560584Y448137D01*
X567667Y451071D01*
X575333Y451071D01*
X582416Y448137D01*
X587837Y442716D01*
X590771Y435633D01*
X590771Y427967D01*
X587837Y420884D01*
X582416Y415463D01*
X575333Y412529D01*
X567667Y412529D01*
G37*
%LPD*%
%LPC*%
G36*
X326367Y577629D02*
X326367Y577629D01*
X319284Y580563D01*
X313863Y585984D01*
X310929Y593067D01*
X310929Y600733D01*
X313863Y607816D01*
X319284Y613237D01*
X326367Y616171D01*
X334033Y616171D01*
X341116Y613237D01*
X346537Y607816D01*
X349471Y600733D01*
X349471Y593067D01*
X346537Y585984D01*
X341116Y580563D01*
X334033Y577629D01*
X326367Y577629D01*
G37*
%LPD*%
%LPC*%
G36*
X691267Y389829D02*
X691267Y389829D01*
X684184Y392763D01*
X678763Y398184D01*
X675829Y405267D01*
X675829Y412933D01*
X678763Y420016D01*
X684184Y425437D01*
X691267Y428371D01*
X698933Y428371D01*
X706016Y425437D01*
X711437Y420016D01*
X714371Y412933D01*
X714371Y405267D01*
X711437Y398184D01*
X706016Y392763D01*
X698933Y389829D01*
X691267Y389829D01*
G37*
%LPD*%
%LPC*%
G36*
X270244Y634824D02*
X270244Y634824D01*
X263674Y637546D01*
X258646Y642574D01*
X255924Y649144D01*
X255924Y656256D01*
X258646Y662826D01*
X263674Y667854D01*
X270244Y670576D01*
X277356Y670576D01*
X283926Y667854D01*
X288954Y662826D01*
X291676Y656256D01*
X291676Y649144D01*
X288954Y642574D01*
X283926Y637546D01*
X277356Y634824D01*
X270244Y634824D01*
G37*
%LPD*%
%LPC*%
G36*
X752844Y622124D02*
X752844Y622124D01*
X746274Y624846D01*
X741246Y629874D01*
X738524Y636444D01*
X738524Y643556D01*
X741246Y650126D01*
X746274Y655154D01*
X752844Y657876D01*
X759956Y657876D01*
X766526Y655154D01*
X771554Y650126D01*
X774276Y643556D01*
X774276Y636444D01*
X771554Y629874D01*
X766526Y624846D01*
X759956Y622124D01*
X752844Y622124D01*
G37*
%LPD*%
%LPC*%
G36*
X600444Y114124D02*
X600444Y114124D01*
X593874Y116846D01*
X588846Y121874D01*
X586124Y128444D01*
X586124Y135556D01*
X588846Y142126D01*
X593874Y147154D01*
X600444Y149876D01*
X607556Y149876D01*
X614126Y147154D01*
X619154Y142126D01*
X621876Y135556D01*
X621876Y128444D01*
X619154Y121874D01*
X614126Y116846D01*
X607556Y114124D01*
X600444Y114124D01*
G37*
%LPD*%
%LPC*%
G36*
X658937Y288567D02*
X658937Y288567D01*
X656867Y290637D01*
X656867Y293563D01*
X658144Y294840D01*
X658197Y294914D01*
X658257Y294984D01*
X658269Y295014D01*
X658288Y295040D01*
X658315Y295127D01*
X658349Y295212D01*
X658353Y295253D01*
X658360Y295275D01*
X658359Y295307D01*
X658367Y295379D01*
X658367Y479321D01*
X658353Y479411D01*
X658345Y479502D01*
X658333Y479532D01*
X658328Y479564D01*
X658285Y479645D01*
X658249Y479729D01*
X658223Y479761D01*
X658212Y479781D01*
X658189Y479804D01*
X658165Y479834D01*
X658163Y479837D01*
X658161Y479839D01*
X658144Y479860D01*
X656867Y481137D01*
X656867Y484063D01*
X658937Y486133D01*
X661863Y486133D01*
X663933Y484063D01*
X663933Y481137D01*
X662656Y479860D01*
X662610Y479796D01*
X662589Y479774D01*
X662585Y479766D01*
X662543Y479716D01*
X662531Y479686D01*
X662512Y479660D01*
X662485Y479573D01*
X662451Y479488D01*
X662447Y479447D01*
X662440Y479425D01*
X662441Y479393D01*
X662433Y479321D01*
X662433Y295379D01*
X662447Y295289D01*
X662455Y295198D01*
X662467Y295168D01*
X662472Y295136D01*
X662515Y295055D01*
X662551Y294971D01*
X662577Y294939D01*
X662588Y294919D01*
X662611Y294896D01*
X662656Y294840D01*
X663933Y293563D01*
X663933Y290637D01*
X661863Y288567D01*
X658937Y288567D01*
G37*
%LPD*%
%LPC*%
G36*
X519237Y263167D02*
X519237Y263167D01*
X517167Y265237D01*
X517167Y268163D01*
X518444Y269440D01*
X518497Y269514D01*
X518557Y269584D01*
X518569Y269614D01*
X518588Y269640D01*
X518615Y269727D01*
X518649Y269812D01*
X518653Y269853D01*
X518660Y269875D01*
X518659Y269907D01*
X518667Y269979D01*
X518667Y276124D01*
X580844Y338301D01*
X589111Y338301D01*
X589201Y338315D01*
X589292Y338323D01*
X589321Y338335D01*
X589353Y338340D01*
X589434Y338383D01*
X589518Y338419D01*
X589550Y338445D01*
X589571Y338456D01*
X589593Y338479D01*
X589649Y338524D01*
X596058Y344933D01*
X631721Y344933D01*
X631811Y344947D01*
X631902Y344955D01*
X631932Y344967D01*
X631964Y344972D01*
X632045Y345015D01*
X632129Y345051D01*
X632161Y345077D01*
X632181Y345088D01*
X632204Y345111D01*
X632260Y345156D01*
X633537Y346433D01*
X636463Y346433D01*
X638533Y344363D01*
X638533Y341437D01*
X636463Y339367D01*
X633537Y339367D01*
X632260Y340644D01*
X632186Y340697D01*
X632116Y340757D01*
X632086Y340769D01*
X632060Y340788D01*
X631973Y340815D01*
X631888Y340849D01*
X631847Y340853D01*
X631825Y340860D01*
X631793Y340859D01*
X631721Y340867D01*
X598057Y340867D01*
X597967Y340853D01*
X597876Y340845D01*
X597847Y340833D01*
X597815Y340828D01*
X597734Y340785D01*
X597650Y340749D01*
X597618Y340723D01*
X597597Y340712D01*
X597575Y340689D01*
X597519Y340644D01*
X591110Y334235D01*
X582844Y334235D01*
X582754Y334221D01*
X582663Y334213D01*
X582633Y334201D01*
X582601Y334196D01*
X582520Y334153D01*
X582437Y334117D01*
X582404Y334091D01*
X582384Y334080D01*
X582362Y334057D01*
X582306Y334012D01*
X522956Y274662D01*
X522903Y274588D01*
X522843Y274519D01*
X522831Y274489D01*
X522812Y274463D01*
X522785Y274376D01*
X522751Y274291D01*
X522747Y274250D01*
X522740Y274228D01*
X522741Y274195D01*
X522733Y274124D01*
X522733Y269979D01*
X522734Y269969D01*
X522734Y269963D01*
X522740Y269935D01*
X522747Y269889D01*
X522755Y269798D01*
X522767Y269768D01*
X522772Y269736D01*
X522815Y269655D01*
X522851Y269571D01*
X522877Y269539D01*
X522888Y269519D01*
X522911Y269496D01*
X522956Y269440D01*
X524233Y268163D01*
X524233Y265237D01*
X522163Y263167D01*
X519237Y263167D01*
G37*
%LPD*%
%LPC*%
G36*
X887537Y237767D02*
X887537Y237767D01*
X885467Y239837D01*
X885467Y242763D01*
X886744Y244040D01*
X886797Y244114D01*
X886857Y244184D01*
X886869Y244214D01*
X886888Y244240D01*
X886915Y244327D01*
X886949Y244412D01*
X886953Y244453D01*
X886960Y244475D01*
X886959Y244507D01*
X886967Y244579D01*
X886967Y354443D01*
X886953Y354533D01*
X886945Y354624D01*
X886933Y354653D01*
X886928Y354685D01*
X886885Y354766D01*
X886849Y354850D01*
X886823Y354882D01*
X886812Y354903D01*
X886789Y354925D01*
X886744Y354981D01*
X877181Y364544D01*
X877107Y364597D01*
X877038Y364657D01*
X877007Y364669D01*
X876981Y364688D01*
X876894Y364715D01*
X876809Y364749D01*
X876768Y364753D01*
X876746Y364760D01*
X876714Y364759D01*
X876643Y364767D01*
X874837Y364767D01*
X872767Y366837D01*
X872767Y369763D01*
X874837Y371833D01*
X877763Y371833D01*
X879833Y369763D01*
X879833Y367957D01*
X879847Y367867D01*
X879855Y367776D01*
X879867Y367747D01*
X879872Y367715D01*
X879915Y367634D01*
X879951Y367550D01*
X879977Y367518D01*
X879988Y367497D01*
X880011Y367475D01*
X880056Y367419D01*
X891033Y356442D01*
X891033Y244579D01*
X891047Y244489D01*
X891055Y244398D01*
X891067Y244368D01*
X891072Y244336D01*
X891115Y244255D01*
X891151Y244171D01*
X891177Y244139D01*
X891188Y244119D01*
X891211Y244096D01*
X891256Y244040D01*
X892533Y242763D01*
X892533Y239837D01*
X890463Y237767D01*
X887537Y237767D01*
G37*
%LPD*%
%LPC*%
G36*
X290637Y47267D02*
X290637Y47267D01*
X288567Y49337D01*
X288567Y52263D01*
X289844Y53540D01*
X289897Y53614D01*
X289957Y53684D01*
X289969Y53714D01*
X289988Y53740D01*
X290015Y53827D01*
X290049Y53912D01*
X290053Y53953D01*
X290060Y53975D01*
X290059Y54007D01*
X290067Y54079D01*
X290067Y161821D01*
X290053Y161911D01*
X290045Y162002D01*
X290033Y162032D01*
X290028Y162064D01*
X289985Y162145D01*
X289949Y162229D01*
X289923Y162261D01*
X289912Y162281D01*
X289889Y162304D01*
X289844Y162360D01*
X288567Y163637D01*
X288567Y166563D01*
X290637Y168633D01*
X293563Y168633D01*
X295633Y166563D01*
X295633Y163637D01*
X294356Y162360D01*
X294303Y162286D01*
X294243Y162216D01*
X294231Y162186D01*
X294212Y162160D01*
X294185Y162073D01*
X294151Y161988D01*
X294147Y161947D01*
X294140Y161925D01*
X294141Y161893D01*
X294133Y161821D01*
X294133Y54079D01*
X294147Y53989D01*
X294155Y53898D01*
X294167Y53868D01*
X294172Y53836D01*
X294215Y53755D01*
X294251Y53671D01*
X294277Y53639D01*
X294288Y53619D01*
X294311Y53596D01*
X294356Y53540D01*
X295633Y52263D01*
X295633Y49337D01*
X293563Y47267D01*
X290637Y47267D01*
G37*
%LPD*%
%LPC*%
G36*
X187174Y603429D02*
X187174Y603429D01*
X186429Y604174D01*
X186429Y625026D01*
X187174Y625771D01*
X208026Y625771D01*
X208771Y625026D01*
X208771Y604174D01*
X208026Y603429D01*
X187174Y603429D01*
G37*
%LPD*%
%LPC*%
G36*
X263374Y273229D02*
X263374Y273229D01*
X262629Y273974D01*
X262629Y294826D01*
X263374Y295571D01*
X284226Y295571D01*
X284971Y294826D01*
X284971Y273974D01*
X284226Y273229D01*
X263374Y273229D01*
G37*
%LPD*%
%LPC*%
G36*
X796774Y603179D02*
X796774Y603179D01*
X796029Y603924D01*
X796029Y624776D01*
X796774Y625521D01*
X817626Y625521D01*
X818371Y624776D01*
X818371Y603924D01*
X817626Y603179D01*
X796774Y603179D01*
G37*
%LPD*%
%LPC*%
G36*
X745974Y146229D02*
X745974Y146229D01*
X745229Y146974D01*
X745229Y167826D01*
X745974Y168571D01*
X766826Y168571D01*
X767571Y167826D01*
X767571Y146974D01*
X766826Y146229D01*
X745974Y146229D01*
G37*
%LPD*%
%LPC*%
G36*
X745974Y364669D02*
X745974Y364669D01*
X745229Y365414D01*
X745229Y386266D01*
X745974Y387011D01*
X766826Y387011D01*
X767571Y386266D01*
X767571Y365414D01*
X766826Y364669D01*
X745974Y364669D01*
G37*
%LPD*%
%LPC*%
G36*
X804978Y323779D02*
X804978Y323779D01*
X800872Y325480D01*
X797730Y328622D01*
X796029Y332728D01*
X796029Y337172D01*
X797730Y341278D01*
X800872Y344420D01*
X804978Y346121D01*
X809422Y346121D01*
X813528Y344420D01*
X816670Y341278D01*
X818371Y337172D01*
X818371Y332728D01*
X816670Y328622D01*
X813528Y325480D01*
X809422Y323779D01*
X804978Y323779D01*
G37*
%LPD*%
%LPC*%
G36*
X754178Y298629D02*
X754178Y298629D01*
X750072Y300330D01*
X746930Y303472D01*
X745229Y307578D01*
X745229Y312022D01*
X746930Y316128D01*
X750072Y319270D01*
X754178Y320971D01*
X758622Y320971D01*
X762728Y319270D01*
X765870Y316128D01*
X767571Y312022D01*
X767571Y307578D01*
X765870Y303472D01*
X762728Y300330D01*
X758622Y298629D01*
X754178Y298629D01*
G37*
%LPD*%
%LPC*%
G36*
X220778Y298629D02*
X220778Y298629D01*
X216672Y300330D01*
X213530Y303472D01*
X211829Y307578D01*
X211829Y312022D01*
X213530Y316128D01*
X216672Y319270D01*
X220778Y320971D01*
X225222Y320971D01*
X229328Y319270D01*
X232470Y316128D01*
X234171Y312022D01*
X234171Y307578D01*
X232470Y303472D01*
X229328Y300330D01*
X225222Y298629D01*
X220778Y298629D01*
G37*
%LPD*%
%LPC*%
G36*
X195378Y298629D02*
X195378Y298629D01*
X191272Y300330D01*
X188130Y303472D01*
X186429Y307578D01*
X186429Y312022D01*
X188130Y316128D01*
X191272Y319270D01*
X195378Y320971D01*
X199822Y320971D01*
X203928Y319270D01*
X207070Y316128D01*
X208771Y312022D01*
X208771Y307578D01*
X207070Y303472D01*
X203928Y300330D01*
X199822Y298629D01*
X195378Y298629D01*
G37*
%LPD*%
%LPC*%
G36*
X830378Y298379D02*
X830378Y298379D01*
X826272Y300080D01*
X823130Y303222D01*
X821429Y307328D01*
X821429Y311772D01*
X823130Y315878D01*
X826272Y319020D01*
X830378Y320721D01*
X834822Y320721D01*
X838928Y319020D01*
X842070Y315878D01*
X843771Y311772D01*
X843771Y307328D01*
X842070Y303222D01*
X838928Y300080D01*
X834822Y298379D01*
X830378Y298379D01*
G37*
%LPD*%
%LPC*%
G36*
X220778Y273229D02*
X220778Y273229D01*
X216672Y274930D01*
X213530Y278072D01*
X211829Y282178D01*
X211829Y286622D01*
X213530Y290728D01*
X216672Y293870D01*
X220778Y295571D01*
X225222Y295571D01*
X229328Y293870D01*
X232470Y290728D01*
X234171Y286622D01*
X234171Y282178D01*
X232470Y278072D01*
X229328Y274930D01*
X225222Y273229D01*
X220778Y273229D01*
G37*
%LPD*%
%LPC*%
G36*
X220778Y603429D02*
X220778Y603429D01*
X216672Y605130D01*
X213530Y608272D01*
X211829Y612378D01*
X211829Y616822D01*
X213530Y620928D01*
X216672Y624070D01*
X220778Y625771D01*
X225222Y625771D01*
X229328Y624070D01*
X232470Y620928D01*
X234171Y616822D01*
X234171Y612378D01*
X232470Y608272D01*
X229328Y605130D01*
X225222Y603429D01*
X220778Y603429D01*
G37*
%LPD*%
%LPC*%
G36*
X830378Y603179D02*
X830378Y603179D01*
X826272Y604880D01*
X823130Y608022D01*
X821429Y612128D01*
X821429Y616572D01*
X823130Y620678D01*
X826272Y623820D01*
X830378Y625521D01*
X834822Y625521D01*
X838928Y623820D01*
X842070Y620678D01*
X843771Y616572D01*
X843771Y612128D01*
X842070Y608022D01*
X838928Y604880D01*
X834822Y603179D01*
X830378Y603179D01*
G37*
%LPD*%
%LPC*%
G36*
X754178Y593269D02*
X754178Y593269D01*
X750072Y594970D01*
X746930Y598112D01*
X745229Y602218D01*
X745229Y606662D01*
X746930Y610768D01*
X750072Y613910D01*
X754178Y615611D01*
X758622Y615611D01*
X762728Y613910D01*
X765870Y610768D01*
X767571Y606662D01*
X767571Y602218D01*
X765870Y598112D01*
X762728Y594970D01*
X758622Y593269D01*
X754178Y593269D01*
G37*
%LPD*%
%LPC*%
G36*
X220778Y578029D02*
X220778Y578029D01*
X216672Y579730D01*
X213530Y582872D01*
X211829Y586978D01*
X211829Y591422D01*
X213530Y595528D01*
X216672Y598670D01*
X220778Y600371D01*
X225222Y600371D01*
X229328Y598670D01*
X232470Y595528D01*
X234171Y591422D01*
X234171Y586978D01*
X232470Y582872D01*
X229328Y579730D01*
X225222Y578029D01*
X220778Y578029D01*
G37*
%LPD*%
%LPC*%
G36*
X195378Y578029D02*
X195378Y578029D01*
X191272Y579730D01*
X188130Y582872D01*
X186429Y586978D01*
X186429Y591422D01*
X188130Y595528D01*
X191272Y598670D01*
X195378Y600371D01*
X199822Y600371D01*
X203928Y598670D01*
X207070Y595528D01*
X208771Y591422D01*
X208771Y586978D01*
X207070Y582872D01*
X203928Y579730D01*
X199822Y578029D01*
X195378Y578029D01*
G37*
%LPD*%
%LPC*%
G36*
X804978Y577779D02*
X804978Y577779D01*
X800872Y579480D01*
X797730Y582622D01*
X796029Y586728D01*
X796029Y591172D01*
X797730Y595278D01*
X800872Y598420D01*
X804978Y600121D01*
X809422Y600121D01*
X813528Y598420D01*
X816670Y595278D01*
X818371Y591172D01*
X818371Y586728D01*
X816670Y582622D01*
X813528Y579480D01*
X809422Y577779D01*
X804978Y577779D01*
G37*
%LPD*%
%LPC*%
G36*
X830378Y577779D02*
X830378Y577779D01*
X826272Y579480D01*
X823130Y582622D01*
X821429Y586728D01*
X821429Y591172D01*
X823130Y595278D01*
X826272Y598420D01*
X830378Y600121D01*
X834822Y600121D01*
X838928Y598420D01*
X842070Y595278D01*
X843771Y591172D01*
X843771Y586728D01*
X842070Y582622D01*
X838928Y579480D01*
X834822Y577779D01*
X830378Y577779D01*
G37*
%LPD*%
%LPC*%
G36*
X754178Y567869D02*
X754178Y567869D01*
X750072Y569570D01*
X746930Y572712D01*
X745229Y576818D01*
X745229Y581262D01*
X746930Y585368D01*
X750072Y588510D01*
X754178Y590211D01*
X758622Y590211D01*
X762728Y588510D01*
X765870Y585368D01*
X767571Y581262D01*
X767571Y576818D01*
X765870Y572712D01*
X762728Y569570D01*
X758622Y567869D01*
X754178Y567869D01*
G37*
%LPD*%
%LPC*%
G36*
X195378Y273229D02*
X195378Y273229D01*
X191272Y274930D01*
X188130Y278072D01*
X186429Y282178D01*
X186429Y286622D01*
X188130Y290728D01*
X191272Y293870D01*
X195378Y295571D01*
X199822Y295571D01*
X203928Y293870D01*
X207070Y290728D01*
X208771Y286622D01*
X208771Y282178D01*
X207070Y278072D01*
X203928Y274930D01*
X199822Y273229D01*
X195378Y273229D01*
G37*
%LPD*%
%LPC*%
G36*
X220778Y552629D02*
X220778Y552629D01*
X216672Y554330D01*
X213530Y557472D01*
X211829Y561578D01*
X211829Y566022D01*
X213530Y570128D01*
X216672Y573270D01*
X220778Y574971D01*
X225222Y574971D01*
X229328Y573270D01*
X232470Y570128D01*
X234171Y566022D01*
X234171Y561578D01*
X232470Y557472D01*
X229328Y554330D01*
X225222Y552629D01*
X220778Y552629D01*
G37*
%LPD*%
%LPC*%
G36*
X195378Y552629D02*
X195378Y552629D01*
X191272Y554330D01*
X188130Y557472D01*
X186429Y561578D01*
X186429Y566022D01*
X188130Y570128D01*
X191272Y573270D01*
X195378Y574971D01*
X199822Y574971D01*
X203928Y573270D01*
X207070Y570128D01*
X208771Y566022D01*
X208771Y561578D01*
X207070Y557472D01*
X203928Y554330D01*
X199822Y552629D01*
X195378Y552629D01*
G37*
%LPD*%
%LPC*%
G36*
X830378Y552379D02*
X830378Y552379D01*
X826272Y554080D01*
X823130Y557222D01*
X821429Y561328D01*
X821429Y565772D01*
X823130Y569878D01*
X826272Y573020D01*
X830378Y574721D01*
X834822Y574721D01*
X838928Y573020D01*
X842070Y569878D01*
X843771Y565772D01*
X843771Y561328D01*
X842070Y557222D01*
X838928Y554080D01*
X834822Y552379D01*
X830378Y552379D01*
G37*
%LPD*%
%LPC*%
G36*
X804978Y552379D02*
X804978Y552379D01*
X800872Y554080D01*
X797730Y557222D01*
X796029Y561328D01*
X796029Y565772D01*
X797730Y569878D01*
X800872Y573020D01*
X804978Y574721D01*
X809422Y574721D01*
X813528Y573020D01*
X816670Y569878D01*
X818371Y565772D01*
X818371Y561328D01*
X816670Y557222D01*
X813528Y554080D01*
X809422Y552379D01*
X804978Y552379D01*
G37*
%LPD*%
%LPC*%
G36*
X754178Y273229D02*
X754178Y273229D01*
X750072Y274930D01*
X746930Y278072D01*
X745229Y282178D01*
X745229Y286622D01*
X746930Y290728D01*
X750072Y293870D01*
X754178Y295571D01*
X758622Y295571D01*
X762728Y293870D01*
X765870Y290728D01*
X767571Y286622D01*
X767571Y282178D01*
X765870Y278072D01*
X762728Y274930D01*
X758622Y273229D01*
X754178Y273229D01*
G37*
%LPD*%
%LPC*%
G36*
X754178Y542469D02*
X754178Y542469D01*
X750072Y544170D01*
X746930Y547312D01*
X745229Y551418D01*
X745229Y555862D01*
X746930Y559968D01*
X750072Y563110D01*
X754178Y564811D01*
X758622Y564811D01*
X762728Y563110D01*
X765870Y559968D01*
X767571Y555862D01*
X767571Y551418D01*
X765870Y547312D01*
X762728Y544170D01*
X758622Y542469D01*
X754178Y542469D01*
G37*
%LPD*%
%LPC*%
G36*
X804978Y272979D02*
X804978Y272979D01*
X800872Y274680D01*
X797730Y277822D01*
X796029Y281928D01*
X796029Y286372D01*
X797730Y290478D01*
X800872Y293620D01*
X804978Y295321D01*
X809422Y295321D01*
X813528Y293620D01*
X816670Y290478D01*
X818371Y286372D01*
X818371Y281928D01*
X816670Y277822D01*
X813528Y274680D01*
X809422Y272979D01*
X804978Y272979D01*
G37*
%LPD*%
%LPC*%
G36*
X830378Y272979D02*
X830378Y272979D01*
X826272Y274680D01*
X823130Y277822D01*
X821429Y281928D01*
X821429Y286372D01*
X823130Y290478D01*
X826272Y293620D01*
X830378Y295321D01*
X834822Y295321D01*
X838928Y293620D01*
X842070Y290478D01*
X843771Y286372D01*
X843771Y281928D01*
X842070Y277822D01*
X838928Y274680D01*
X834822Y272979D01*
X830378Y272979D01*
G37*
%LPD*%
%LPC*%
G36*
X195378Y527229D02*
X195378Y527229D01*
X191272Y528930D01*
X188130Y532072D01*
X186429Y536178D01*
X186429Y540622D01*
X188130Y544728D01*
X191272Y547870D01*
X195378Y549571D01*
X199822Y549571D01*
X203928Y547870D01*
X207070Y544728D01*
X208771Y540622D01*
X208771Y536178D01*
X207070Y532072D01*
X203928Y528930D01*
X199822Y527229D01*
X195378Y527229D01*
G37*
%LPD*%
%LPC*%
G36*
X830378Y526979D02*
X830378Y526979D01*
X826272Y528680D01*
X823130Y531822D01*
X821429Y535928D01*
X821429Y540372D01*
X823130Y544478D01*
X826272Y547620D01*
X830378Y549321D01*
X834822Y549321D01*
X838928Y547620D01*
X842070Y544478D01*
X843771Y540372D01*
X843771Y535928D01*
X842070Y531822D01*
X838928Y528680D01*
X834822Y526979D01*
X830378Y526979D01*
G37*
%LPD*%
%LPC*%
G36*
X804978Y526979D02*
X804978Y526979D01*
X800872Y528680D01*
X797730Y531822D01*
X796029Y535928D01*
X796029Y540372D01*
X797730Y544478D01*
X800872Y547620D01*
X804978Y549321D01*
X809422Y549321D01*
X813528Y547620D01*
X816670Y544478D01*
X818371Y540372D01*
X818371Y535928D01*
X816670Y531822D01*
X813528Y528680D01*
X809422Y526979D01*
X804978Y526979D01*
G37*
%LPD*%
%LPC*%
G36*
X220778Y247829D02*
X220778Y247829D01*
X216672Y249530D01*
X213530Y252672D01*
X211829Y256778D01*
X211829Y261222D01*
X213530Y265328D01*
X216672Y268470D01*
X220778Y270171D01*
X225222Y270171D01*
X229328Y268470D01*
X232470Y265328D01*
X234171Y261222D01*
X234171Y256778D01*
X232470Y252672D01*
X229328Y249530D01*
X225222Y247829D01*
X220778Y247829D01*
G37*
%LPD*%
%LPC*%
G36*
X195378Y247829D02*
X195378Y247829D01*
X191272Y249530D01*
X188130Y252672D01*
X186429Y256778D01*
X186429Y261222D01*
X188130Y265328D01*
X191272Y268470D01*
X195378Y270171D01*
X199822Y270171D01*
X203928Y268470D01*
X207070Y265328D01*
X208771Y261222D01*
X208771Y256778D01*
X207070Y252672D01*
X203928Y249530D01*
X199822Y247829D01*
X195378Y247829D01*
G37*
%LPD*%
%LPC*%
G36*
X754178Y247829D02*
X754178Y247829D01*
X750072Y249530D01*
X746930Y252672D01*
X745229Y256778D01*
X745229Y261222D01*
X746930Y265328D01*
X750072Y268470D01*
X754178Y270171D01*
X758622Y270171D01*
X762728Y268470D01*
X765870Y265328D01*
X767571Y261222D01*
X767571Y256778D01*
X765870Y252672D01*
X762728Y249530D01*
X758622Y247829D01*
X754178Y247829D01*
G37*
%LPD*%
%LPC*%
G36*
X271578Y247829D02*
X271578Y247829D01*
X267472Y249530D01*
X264330Y252672D01*
X262629Y256778D01*
X262629Y261222D01*
X264330Y265328D01*
X267472Y268470D01*
X271578Y270171D01*
X276022Y270171D01*
X280128Y268470D01*
X283270Y265328D01*
X284971Y261222D01*
X284971Y256778D01*
X283270Y252672D01*
X280128Y249530D01*
X276022Y247829D01*
X271578Y247829D01*
G37*
%LPD*%
%LPC*%
G36*
X830378Y247579D02*
X830378Y247579D01*
X826272Y249280D01*
X823130Y252422D01*
X821429Y256528D01*
X821429Y260972D01*
X823130Y265078D01*
X826272Y268220D01*
X830378Y269921D01*
X834822Y269921D01*
X838928Y268220D01*
X842070Y265078D01*
X843771Y260972D01*
X843771Y256528D01*
X842070Y252422D01*
X838928Y249280D01*
X834822Y247579D01*
X830378Y247579D01*
G37*
%LPD*%
%LPC*%
G36*
X804978Y247579D02*
X804978Y247579D01*
X800872Y249280D01*
X797730Y252422D01*
X796029Y256528D01*
X796029Y260972D01*
X797730Y265078D01*
X800872Y268220D01*
X804978Y269921D01*
X809422Y269921D01*
X813528Y268220D01*
X816670Y265078D01*
X818371Y260972D01*
X818371Y256528D01*
X816670Y252422D01*
X813528Y249280D01*
X809422Y247579D01*
X804978Y247579D01*
G37*
%LPD*%
%LPC*%
G36*
X754178Y222429D02*
X754178Y222429D01*
X750072Y224130D01*
X746930Y227272D01*
X745229Y231378D01*
X745229Y235822D01*
X746930Y239928D01*
X750072Y243070D01*
X754178Y244771D01*
X758622Y244771D01*
X762728Y243070D01*
X765870Y239928D01*
X767571Y235822D01*
X767571Y231378D01*
X765870Y227272D01*
X762728Y224130D01*
X758622Y222429D01*
X754178Y222429D01*
G37*
%LPD*%
%LPC*%
G36*
X271578Y222429D02*
X271578Y222429D01*
X267472Y224130D01*
X264330Y227272D01*
X262629Y231378D01*
X262629Y235822D01*
X264330Y239928D01*
X267472Y243070D01*
X271578Y244771D01*
X276022Y244771D01*
X280128Y243070D01*
X283270Y239928D01*
X284971Y235822D01*
X284971Y231378D01*
X283270Y227272D01*
X280128Y224130D01*
X276022Y222429D01*
X271578Y222429D01*
G37*
%LPD*%
%LPC*%
G36*
X220778Y222429D02*
X220778Y222429D01*
X216672Y224130D01*
X213530Y227272D01*
X211829Y231378D01*
X211829Y235822D01*
X213530Y239928D01*
X216672Y243070D01*
X220778Y244771D01*
X225222Y244771D01*
X229328Y243070D01*
X232470Y239928D01*
X234171Y235822D01*
X234171Y231378D01*
X232470Y227272D01*
X229328Y224130D01*
X225222Y222429D01*
X220778Y222429D01*
G37*
%LPD*%
%LPC*%
G36*
X195378Y222429D02*
X195378Y222429D01*
X191272Y224130D01*
X188130Y227272D01*
X186429Y231378D01*
X186429Y235822D01*
X188130Y239928D01*
X191272Y243070D01*
X195378Y244771D01*
X199822Y244771D01*
X203928Y243070D01*
X207070Y239928D01*
X208771Y235822D01*
X208771Y231378D01*
X207070Y227272D01*
X203928Y224130D01*
X199822Y222429D01*
X195378Y222429D01*
G37*
%LPD*%
%LPC*%
G36*
X804978Y222179D02*
X804978Y222179D01*
X800872Y223880D01*
X797730Y227022D01*
X796029Y231128D01*
X796029Y235572D01*
X797730Y239678D01*
X800872Y242820D01*
X804978Y244521D01*
X809422Y244521D01*
X813528Y242820D01*
X816670Y239678D01*
X818371Y235572D01*
X818371Y231128D01*
X816670Y227022D01*
X813528Y223880D01*
X809422Y222179D01*
X804978Y222179D01*
G37*
%LPD*%
%LPC*%
G36*
X830378Y501579D02*
X830378Y501579D01*
X826272Y503280D01*
X823130Y506422D01*
X821429Y510528D01*
X821429Y514972D01*
X823130Y519078D01*
X826272Y522220D01*
X830378Y523921D01*
X834822Y523921D01*
X838928Y522220D01*
X842070Y519078D01*
X843771Y514972D01*
X843771Y510528D01*
X842070Y506422D01*
X838928Y503280D01*
X834822Y501579D01*
X830378Y501579D01*
G37*
%LPD*%
%LPC*%
G36*
X754178Y197029D02*
X754178Y197029D01*
X750072Y198730D01*
X746930Y201872D01*
X745229Y205978D01*
X745229Y210422D01*
X746930Y214528D01*
X750072Y217670D01*
X754178Y219371D01*
X758622Y219371D01*
X762728Y217670D01*
X765870Y214528D01*
X767571Y210422D01*
X767571Y205978D01*
X765870Y201872D01*
X762728Y198730D01*
X758622Y197029D01*
X754178Y197029D01*
G37*
%LPD*%
%LPC*%
G36*
X754178Y491669D02*
X754178Y491669D01*
X750072Y493370D01*
X746930Y496512D01*
X745229Y500618D01*
X745229Y505062D01*
X746930Y509168D01*
X750072Y512310D01*
X754178Y514011D01*
X758622Y514011D01*
X762728Y512310D01*
X765870Y509168D01*
X767571Y505062D01*
X767571Y500618D01*
X765870Y496512D01*
X762728Y493370D01*
X758622Y491669D01*
X754178Y491669D01*
G37*
%LPD*%
%LPC*%
G36*
X271578Y197029D02*
X271578Y197029D01*
X267472Y198730D01*
X264330Y201872D01*
X262629Y205978D01*
X262629Y210422D01*
X264330Y214528D01*
X267472Y217670D01*
X271578Y219371D01*
X276022Y219371D01*
X280128Y217670D01*
X283270Y214528D01*
X284971Y210422D01*
X284971Y205978D01*
X283270Y201872D01*
X280128Y198730D01*
X276022Y197029D01*
X271578Y197029D01*
G37*
%LPD*%
%LPC*%
G36*
X220778Y197029D02*
X220778Y197029D01*
X216672Y198730D01*
X213530Y201872D01*
X211829Y205978D01*
X211829Y210422D01*
X213530Y214528D01*
X216672Y217670D01*
X220778Y219371D01*
X225222Y219371D01*
X229328Y217670D01*
X232470Y214528D01*
X234171Y210422D01*
X234171Y205978D01*
X232470Y201872D01*
X229328Y198730D01*
X225222Y197029D01*
X220778Y197029D01*
G37*
%LPD*%
%LPC*%
G36*
X195378Y197029D02*
X195378Y197029D01*
X191272Y198730D01*
X188130Y201872D01*
X186429Y205978D01*
X186429Y210422D01*
X188130Y214528D01*
X191272Y217670D01*
X195378Y219371D01*
X199822Y219371D01*
X203928Y217670D01*
X207070Y214528D01*
X208771Y210422D01*
X208771Y205978D01*
X207070Y201872D01*
X203928Y198730D01*
X199822Y197029D01*
X195378Y197029D01*
G37*
%LPD*%
%LPC*%
G36*
X804978Y476179D02*
X804978Y476179D01*
X800872Y477880D01*
X797730Y481022D01*
X796029Y485128D01*
X796029Y489572D01*
X797730Y493678D01*
X800872Y496820D01*
X804978Y498521D01*
X809422Y498521D01*
X813528Y496820D01*
X816670Y493678D01*
X818371Y489572D01*
X818371Y485128D01*
X816670Y481022D01*
X813528Y477880D01*
X809422Y476179D01*
X804978Y476179D01*
G37*
%LPD*%
%LPC*%
G36*
X830378Y476179D02*
X830378Y476179D01*
X826272Y477880D01*
X823130Y481022D01*
X821429Y485128D01*
X821429Y489572D01*
X823130Y493678D01*
X826272Y496820D01*
X830378Y498521D01*
X834822Y498521D01*
X838928Y496820D01*
X842070Y493678D01*
X843771Y489572D01*
X843771Y485128D01*
X842070Y481022D01*
X838928Y477880D01*
X834822Y476179D01*
X830378Y476179D01*
G37*
%LPD*%
%LPC*%
G36*
X830378Y196779D02*
X830378Y196779D01*
X826272Y198480D01*
X823130Y201622D01*
X821429Y205728D01*
X821429Y210172D01*
X823130Y214278D01*
X826272Y217420D01*
X830378Y219121D01*
X834822Y219121D01*
X838928Y217420D01*
X842070Y214278D01*
X843771Y210172D01*
X843771Y205728D01*
X842070Y201622D01*
X838928Y198480D01*
X834822Y196779D01*
X830378Y196779D01*
G37*
%LPD*%
%LPC*%
G36*
X754178Y466269D02*
X754178Y466269D01*
X750072Y467970D01*
X746930Y471112D01*
X745229Y475218D01*
X745229Y479662D01*
X746930Y483768D01*
X750072Y486910D01*
X754178Y488611D01*
X758622Y488611D01*
X762728Y486910D01*
X765870Y483768D01*
X767571Y479662D01*
X767571Y475218D01*
X765870Y471112D01*
X762728Y467970D01*
X758622Y466269D01*
X754178Y466269D01*
G37*
%LPD*%
%LPC*%
G36*
X804978Y196779D02*
X804978Y196779D01*
X800872Y198480D01*
X797730Y201622D01*
X796029Y205728D01*
X796029Y210172D01*
X797730Y214278D01*
X800872Y217420D01*
X804978Y219121D01*
X809422Y219121D01*
X813528Y217420D01*
X816670Y214278D01*
X818371Y210172D01*
X818371Y205728D01*
X816670Y201622D01*
X813528Y198480D01*
X809422Y196779D01*
X804978Y196779D01*
G37*
%LPD*%
%LPC*%
G36*
X220778Y451029D02*
X220778Y451029D01*
X216672Y452730D01*
X213530Y455872D01*
X211829Y459978D01*
X211829Y464422D01*
X213530Y468528D01*
X216672Y471670D01*
X220778Y473371D01*
X225222Y473371D01*
X229328Y471670D01*
X232470Y468528D01*
X234171Y464422D01*
X234171Y459978D01*
X232470Y455872D01*
X229328Y452730D01*
X225222Y451029D01*
X220778Y451029D01*
G37*
%LPD*%
%LPC*%
G36*
X195378Y451029D02*
X195378Y451029D01*
X191272Y452730D01*
X188130Y455872D01*
X186429Y459978D01*
X186429Y464422D01*
X188130Y468528D01*
X191272Y471670D01*
X195378Y473371D01*
X199822Y473371D01*
X203928Y471670D01*
X207070Y468528D01*
X208771Y464422D01*
X208771Y459978D01*
X207070Y455872D01*
X203928Y452730D01*
X199822Y451029D01*
X195378Y451029D01*
G37*
%LPD*%
%LPC*%
G36*
X271578Y451029D02*
X271578Y451029D01*
X267472Y452730D01*
X264330Y455872D01*
X262629Y459978D01*
X262629Y464422D01*
X264330Y468528D01*
X267472Y471670D01*
X271578Y473371D01*
X276022Y473371D01*
X280128Y471670D01*
X283270Y468528D01*
X284971Y464422D01*
X284971Y459978D01*
X283270Y455872D01*
X280128Y452730D01*
X276022Y451029D01*
X271578Y451029D01*
G37*
%LPD*%
%LPC*%
G36*
X804978Y450779D02*
X804978Y450779D01*
X800872Y452480D01*
X797730Y455622D01*
X796029Y459728D01*
X796029Y464172D01*
X797730Y468278D01*
X800872Y471420D01*
X804978Y473121D01*
X809422Y473121D01*
X813528Y471420D01*
X816670Y468278D01*
X818371Y464172D01*
X818371Y459728D01*
X816670Y455622D01*
X813528Y452480D01*
X809422Y450779D01*
X804978Y450779D01*
G37*
%LPD*%
%LPC*%
G36*
X830378Y450779D02*
X830378Y450779D01*
X826272Y452480D01*
X823130Y455622D01*
X821429Y459728D01*
X821429Y464172D01*
X823130Y468278D01*
X826272Y471420D01*
X830378Y473121D01*
X834822Y473121D01*
X838928Y471420D01*
X842070Y468278D01*
X843771Y464172D01*
X843771Y459728D01*
X842070Y455622D01*
X838928Y452480D01*
X834822Y450779D01*
X830378Y450779D01*
G37*
%LPD*%
%LPC*%
G36*
X754178Y171629D02*
X754178Y171629D01*
X750072Y173330D01*
X746930Y176472D01*
X745229Y180578D01*
X745229Y185022D01*
X746930Y189128D01*
X750072Y192270D01*
X754178Y193971D01*
X758622Y193971D01*
X762728Y192270D01*
X765870Y189128D01*
X767571Y185022D01*
X767571Y180578D01*
X765870Y176472D01*
X762728Y173330D01*
X758622Y171629D01*
X754178Y171629D01*
G37*
%LPD*%
%LPC*%
G36*
X271578Y171629D02*
X271578Y171629D01*
X267472Y173330D01*
X264330Y176472D01*
X262629Y180578D01*
X262629Y185022D01*
X264330Y189128D01*
X267472Y192270D01*
X271578Y193971D01*
X276022Y193971D01*
X280128Y192270D01*
X283270Y189128D01*
X284971Y185022D01*
X284971Y180578D01*
X283270Y176472D01*
X280128Y173330D01*
X276022Y171629D01*
X271578Y171629D01*
G37*
%LPD*%
%LPC*%
G36*
X754178Y440869D02*
X754178Y440869D01*
X750072Y442570D01*
X746930Y445712D01*
X745229Y449818D01*
X745229Y454262D01*
X746930Y458368D01*
X750072Y461510D01*
X754178Y463211D01*
X758622Y463211D01*
X762728Y461510D01*
X765870Y458368D01*
X767571Y454262D01*
X767571Y449818D01*
X765870Y445712D01*
X762728Y442570D01*
X758622Y440869D01*
X754178Y440869D01*
G37*
%LPD*%
%LPC*%
G36*
X220778Y171629D02*
X220778Y171629D01*
X216672Y173330D01*
X213530Y176472D01*
X211829Y180578D01*
X211829Y185022D01*
X213530Y189128D01*
X216672Y192270D01*
X220778Y193971D01*
X225222Y193971D01*
X229328Y192270D01*
X232470Y189128D01*
X234171Y185022D01*
X234171Y180578D01*
X232470Y176472D01*
X229328Y173330D01*
X225222Y171629D01*
X220778Y171629D01*
G37*
%LPD*%
%LPC*%
G36*
X195378Y171629D02*
X195378Y171629D01*
X191272Y173330D01*
X188130Y176472D01*
X186429Y180578D01*
X186429Y185022D01*
X188130Y189128D01*
X191272Y192270D01*
X195378Y193971D01*
X199822Y193971D01*
X203928Y192270D01*
X207070Y189128D01*
X208771Y185022D01*
X208771Y180578D01*
X207070Y176472D01*
X203928Y173330D01*
X199822Y171629D01*
X195378Y171629D01*
G37*
%LPD*%
%LPC*%
G36*
X830378Y171379D02*
X830378Y171379D01*
X826272Y173080D01*
X823130Y176222D01*
X821429Y180328D01*
X821429Y184772D01*
X823130Y188878D01*
X826272Y192020D01*
X830378Y193721D01*
X834822Y193721D01*
X838928Y192020D01*
X842070Y188878D01*
X843771Y184772D01*
X843771Y180328D01*
X842070Y176222D01*
X838928Y173080D01*
X834822Y171379D01*
X830378Y171379D01*
G37*
%LPD*%
%LPC*%
G36*
X220778Y425629D02*
X220778Y425629D01*
X216672Y427330D01*
X213530Y430472D01*
X211829Y434578D01*
X211829Y439022D01*
X213530Y443128D01*
X216672Y446270D01*
X220778Y447971D01*
X225222Y447971D01*
X229328Y446270D01*
X232470Y443128D01*
X234171Y439022D01*
X234171Y434578D01*
X232470Y430472D01*
X229328Y427330D01*
X225222Y425629D01*
X220778Y425629D01*
G37*
%LPD*%
%LPC*%
G36*
X271578Y425629D02*
X271578Y425629D01*
X267472Y427330D01*
X264330Y430472D01*
X262629Y434578D01*
X262629Y439022D01*
X264330Y443128D01*
X267472Y446270D01*
X271578Y447971D01*
X276022Y447971D01*
X280128Y446270D01*
X283270Y443128D01*
X284971Y439022D01*
X284971Y434578D01*
X283270Y430472D01*
X280128Y427330D01*
X276022Y425629D01*
X271578Y425629D01*
G37*
%LPD*%
%LPC*%
G36*
X804978Y425379D02*
X804978Y425379D01*
X800872Y427080D01*
X797730Y430222D01*
X796029Y434328D01*
X796029Y438772D01*
X797730Y442878D01*
X800872Y446020D01*
X804978Y447721D01*
X809422Y447721D01*
X813528Y446020D01*
X816670Y442878D01*
X818371Y438772D01*
X818371Y434328D01*
X816670Y430222D01*
X813528Y427080D01*
X809422Y425379D01*
X804978Y425379D01*
G37*
%LPD*%
%LPC*%
G36*
X830378Y425379D02*
X830378Y425379D01*
X826272Y427080D01*
X823130Y430222D01*
X821429Y434328D01*
X821429Y438772D01*
X823130Y442878D01*
X826272Y446020D01*
X830378Y447721D01*
X834822Y447721D01*
X838928Y446020D01*
X842070Y442878D01*
X843771Y438772D01*
X843771Y434328D01*
X842070Y430222D01*
X838928Y427080D01*
X834822Y425379D01*
X830378Y425379D01*
G37*
%LPD*%
%LPC*%
G36*
X754178Y415469D02*
X754178Y415469D01*
X750072Y417170D01*
X746930Y420312D01*
X745229Y424418D01*
X745229Y428862D01*
X746930Y432968D01*
X750072Y436110D01*
X754178Y437811D01*
X758622Y437811D01*
X762728Y436110D01*
X765870Y432968D01*
X767571Y428862D01*
X767571Y424418D01*
X765870Y420312D01*
X762728Y417170D01*
X758622Y415469D01*
X754178Y415469D01*
G37*
%LPD*%
%LPC*%
G36*
X271578Y400229D02*
X271578Y400229D01*
X267472Y401930D01*
X264330Y405072D01*
X262629Y409178D01*
X262629Y413622D01*
X264330Y417728D01*
X267472Y420870D01*
X271578Y422571D01*
X276022Y422571D01*
X280128Y420870D01*
X283270Y417728D01*
X284971Y413622D01*
X284971Y409178D01*
X283270Y405072D01*
X280128Y401930D01*
X276022Y400229D01*
X271578Y400229D01*
G37*
%LPD*%
%LPC*%
G36*
X804978Y399979D02*
X804978Y399979D01*
X800872Y401680D01*
X797730Y404822D01*
X796029Y408928D01*
X796029Y413372D01*
X797730Y417478D01*
X800872Y420620D01*
X804978Y422321D01*
X809422Y422321D01*
X813528Y420620D01*
X816670Y417478D01*
X818371Y413372D01*
X818371Y408928D01*
X816670Y404822D01*
X813528Y401680D01*
X809422Y399979D01*
X804978Y399979D01*
G37*
%LPD*%
%LPC*%
G36*
X830378Y399979D02*
X830378Y399979D01*
X826272Y401680D01*
X823130Y404822D01*
X821429Y408928D01*
X821429Y413372D01*
X823130Y417478D01*
X826272Y420620D01*
X830378Y422321D01*
X834822Y422321D01*
X838928Y420620D01*
X842070Y417478D01*
X843771Y413372D01*
X843771Y408928D01*
X842070Y404822D01*
X838928Y401680D01*
X834822Y399979D01*
X830378Y399979D01*
G37*
%LPD*%
%LPC*%
G36*
X804978Y171379D02*
X804978Y171379D01*
X800872Y173080D01*
X797730Y176222D01*
X796029Y180328D01*
X796029Y184772D01*
X797730Y188878D01*
X800872Y192020D01*
X804978Y193721D01*
X809422Y193721D01*
X813528Y192020D01*
X816670Y188878D01*
X818371Y184772D01*
X818371Y180328D01*
X816670Y176222D01*
X813528Y173080D01*
X809422Y171379D01*
X804978Y171379D01*
G37*
%LPD*%
%LPC*%
G36*
X754178Y390069D02*
X754178Y390069D01*
X750072Y391770D01*
X746930Y394912D01*
X745229Y399018D01*
X745229Y403462D01*
X746930Y407568D01*
X750072Y410710D01*
X754178Y412411D01*
X758622Y412411D01*
X762728Y410710D01*
X765870Y407568D01*
X767571Y403462D01*
X767571Y399018D01*
X765870Y394912D01*
X762728Y391770D01*
X758622Y390069D01*
X754178Y390069D01*
G37*
%LPD*%
%LPC*%
G36*
X271578Y146229D02*
X271578Y146229D01*
X267472Y147930D01*
X264330Y151072D01*
X262629Y155178D01*
X262629Y159622D01*
X264330Y163728D01*
X267472Y166870D01*
X271578Y168571D01*
X276022Y168571D01*
X280128Y166870D01*
X283270Y163728D01*
X284971Y159622D01*
X284971Y155178D01*
X283270Y151072D01*
X280128Y147930D01*
X276022Y146229D01*
X271578Y146229D01*
G37*
%LPD*%
%LPC*%
G36*
X220778Y146229D02*
X220778Y146229D01*
X216672Y147930D01*
X213530Y151072D01*
X211829Y155178D01*
X211829Y159622D01*
X213530Y163728D01*
X216672Y166870D01*
X220778Y168571D01*
X225222Y168571D01*
X229328Y166870D01*
X232470Y163728D01*
X234171Y159622D01*
X234171Y155178D01*
X232470Y151072D01*
X229328Y147930D01*
X225222Y146229D01*
X220778Y146229D01*
G37*
%LPD*%
%LPC*%
G36*
X195378Y146229D02*
X195378Y146229D01*
X191272Y147930D01*
X188130Y151072D01*
X186429Y155178D01*
X186429Y159622D01*
X188130Y163728D01*
X191272Y166870D01*
X195378Y168571D01*
X199822Y168571D01*
X203928Y166870D01*
X207070Y163728D01*
X208771Y159622D01*
X208771Y155178D01*
X207070Y151072D01*
X203928Y147930D01*
X199822Y146229D01*
X195378Y146229D01*
G37*
%LPD*%
%LPC*%
G36*
X830378Y145979D02*
X830378Y145979D01*
X826272Y147680D01*
X823130Y150822D01*
X821429Y154928D01*
X821429Y159372D01*
X823130Y163478D01*
X826272Y166620D01*
X830378Y168321D01*
X834822Y168321D01*
X838928Y166620D01*
X842070Y163478D01*
X843771Y159372D01*
X843771Y154928D01*
X842070Y150822D01*
X838928Y147680D01*
X834822Y145979D01*
X830378Y145979D01*
G37*
%LPD*%
%LPC*%
G36*
X804978Y145979D02*
X804978Y145979D01*
X800872Y147680D01*
X797730Y150822D01*
X796029Y154928D01*
X796029Y159372D01*
X797730Y163478D01*
X800872Y166620D01*
X804978Y168321D01*
X809422Y168321D01*
X813528Y166620D01*
X816670Y163478D01*
X818371Y159372D01*
X818371Y154928D01*
X816670Y150822D01*
X813528Y147680D01*
X809422Y145979D01*
X804978Y145979D01*
G37*
%LPD*%
%LPC*%
G36*
X804978Y374579D02*
X804978Y374579D01*
X800872Y376280D01*
X797730Y379422D01*
X796029Y383528D01*
X796029Y387972D01*
X797730Y392078D01*
X800872Y395220D01*
X804978Y396921D01*
X809422Y396921D01*
X813528Y395220D01*
X816670Y392078D01*
X818371Y387972D01*
X818371Y383528D01*
X816670Y379422D01*
X813528Y376280D01*
X809422Y374579D01*
X804978Y374579D01*
G37*
%LPD*%
%LPC*%
G36*
X804978Y298379D02*
X804978Y298379D01*
X800872Y300080D01*
X797730Y303222D01*
X796029Y307328D01*
X796029Y311772D01*
X797730Y315878D01*
X800872Y319020D01*
X804978Y320721D01*
X809422Y320721D01*
X813528Y319020D01*
X816670Y315878D01*
X818371Y311772D01*
X818371Y307328D01*
X816670Y303222D01*
X813528Y300080D01*
X809422Y298379D01*
X804978Y298379D01*
G37*
%LPD*%
%LPC*%
G36*
X195378Y349429D02*
X195378Y349429D01*
X191272Y351130D01*
X188130Y354272D01*
X186429Y358378D01*
X186429Y362822D01*
X188130Y366928D01*
X191272Y370070D01*
X195378Y371771D01*
X199822Y371771D01*
X203928Y370070D01*
X207070Y366928D01*
X208771Y362822D01*
X208771Y358378D01*
X207070Y354272D01*
X203928Y351130D01*
X199822Y349429D01*
X195378Y349429D01*
G37*
%LPD*%
%LPC*%
G36*
X830378Y349179D02*
X830378Y349179D01*
X826272Y350880D01*
X823130Y354022D01*
X821429Y358128D01*
X821429Y362572D01*
X823130Y366678D01*
X826272Y369820D01*
X830378Y371521D01*
X834822Y371521D01*
X838928Y369820D01*
X842070Y366678D01*
X843771Y362572D01*
X843771Y358128D01*
X842070Y354022D01*
X838928Y350880D01*
X834822Y349179D01*
X830378Y349179D01*
G37*
%LPD*%
%LPC*%
G36*
X804978Y349179D02*
X804978Y349179D01*
X800872Y350880D01*
X797730Y354022D01*
X796029Y358128D01*
X796029Y362572D01*
X797730Y366678D01*
X800872Y369820D01*
X804978Y371521D01*
X809422Y371521D01*
X813528Y369820D01*
X816670Y366678D01*
X818371Y362572D01*
X818371Y358128D01*
X816670Y354022D01*
X813528Y350880D01*
X809422Y349179D01*
X804978Y349179D01*
G37*
%LPD*%
%LPC*%
G36*
X220778Y324029D02*
X220778Y324029D01*
X216672Y325730D01*
X213530Y328872D01*
X211829Y332978D01*
X211829Y337422D01*
X213530Y341528D01*
X216672Y344670D01*
X220778Y346371D01*
X225222Y346371D01*
X229328Y344670D01*
X232470Y341528D01*
X234171Y337422D01*
X234171Y332978D01*
X232470Y328872D01*
X229328Y325730D01*
X225222Y324029D01*
X220778Y324029D01*
G37*
%LPD*%
%LPC*%
G36*
X754178Y324029D02*
X754178Y324029D01*
X750072Y325730D01*
X746930Y328872D01*
X745229Y332978D01*
X745229Y337422D01*
X746930Y341528D01*
X750072Y344670D01*
X754178Y346371D01*
X758622Y346371D01*
X762728Y344670D01*
X765870Y341528D01*
X767571Y337422D01*
X767571Y332978D01*
X765870Y328872D01*
X762728Y325730D01*
X758622Y324029D01*
X754178Y324029D01*
G37*
%LPD*%
%LPC*%
G36*
X195378Y324029D02*
X195378Y324029D01*
X191272Y325730D01*
X188130Y328872D01*
X186429Y332978D01*
X186429Y337422D01*
X188130Y341528D01*
X191272Y344670D01*
X195378Y346371D01*
X199822Y346371D01*
X203928Y344670D01*
X207070Y341528D01*
X208771Y337422D01*
X208771Y332978D01*
X207070Y328872D01*
X203928Y325730D01*
X199822Y324029D01*
X195378Y324029D01*
G37*
%LPD*%
%LPC*%
G36*
X830378Y323779D02*
X830378Y323779D01*
X826272Y325480D01*
X823130Y328622D01*
X821429Y332728D01*
X821429Y337172D01*
X823130Y341278D01*
X826272Y344420D01*
X830378Y346121D01*
X834822Y346121D01*
X838928Y344420D01*
X842070Y341278D01*
X843771Y337172D01*
X843771Y332728D01*
X842070Y328622D01*
X838928Y325480D01*
X834822Y323779D01*
X830378Y323779D01*
G37*
%LPD*%
%LPC*%
G36*
X481557Y633429D02*
X481557Y633429D01*
X477782Y634993D01*
X474893Y637882D01*
X473329Y641657D01*
X473329Y645743D01*
X474893Y649518D01*
X477782Y652407D01*
X481557Y653971D01*
X485643Y653971D01*
X489418Y652407D01*
X492307Y649518D01*
X493871Y645743D01*
X493871Y641657D01*
X492307Y637882D01*
X489418Y634993D01*
X485643Y633429D01*
X481557Y633429D01*
G37*
%LPD*%
%LPC*%
G36*
X608137Y275867D02*
X608137Y275867D01*
X606067Y277937D01*
X606067Y280863D01*
X607344Y282140D01*
X607397Y282214D01*
X607457Y282284D01*
X607469Y282314D01*
X607488Y282340D01*
X607515Y282427D01*
X607549Y282512D01*
X607553Y282553D01*
X607560Y282575D01*
X607559Y282607D01*
X607567Y282679D01*
X607567Y314706D01*
X607564Y314726D01*
X607566Y314745D01*
X607544Y314847D01*
X607528Y314949D01*
X607518Y314966D01*
X607514Y314986D01*
X607461Y315075D01*
X607412Y315166D01*
X607398Y315180D01*
X607388Y315197D01*
X607309Y315264D01*
X607234Y315336D01*
X607216Y315344D01*
X607201Y315357D01*
X607105Y315396D01*
X607011Y315439D01*
X606991Y315441D01*
X606973Y315449D01*
X606806Y315467D01*
X587479Y315467D01*
X587389Y315453D01*
X587298Y315445D01*
X587268Y315433D01*
X587236Y315428D01*
X587155Y315385D01*
X587071Y315349D01*
X587039Y315323D01*
X587018Y315312D01*
X586996Y315289D01*
X586940Y315244D01*
X585663Y313967D01*
X582737Y313967D01*
X580667Y316037D01*
X580667Y318963D01*
X582737Y321033D01*
X585663Y321033D01*
X586940Y319756D01*
X587014Y319703D01*
X587084Y319643D01*
X587114Y319631D01*
X587140Y319612D01*
X587227Y319585D01*
X587312Y319551D01*
X587353Y319547D01*
X587375Y319540D01*
X587407Y319541D01*
X587479Y319533D01*
X610442Y319533D01*
X611633Y318342D01*
X611633Y282679D01*
X611647Y282589D01*
X611655Y282498D01*
X611667Y282468D01*
X611672Y282436D01*
X611715Y282355D01*
X611751Y282271D01*
X611777Y282239D01*
X611788Y282219D01*
X611811Y282196D01*
X611856Y282140D01*
X613133Y280863D01*
X613133Y277937D01*
X611063Y275867D01*
X608137Y275867D01*
G37*
%LPD*%
%LPC*%
G36*
X544637Y174267D02*
X544637Y174267D01*
X542567Y176337D01*
X542567Y179263D01*
X543844Y180540D01*
X543897Y180614D01*
X543957Y180684D01*
X543969Y180714D01*
X543988Y180740D01*
X544015Y180827D01*
X544049Y180912D01*
X544053Y180953D01*
X544060Y180975D01*
X544059Y181007D01*
X544067Y181079D01*
X544067Y216742D01*
X555044Y227719D01*
X555097Y227793D01*
X555157Y227862D01*
X555169Y227893D01*
X555188Y227919D01*
X555215Y228006D01*
X555249Y228091D01*
X555253Y228132D01*
X555260Y228154D01*
X555259Y228186D01*
X555267Y228257D01*
X555267Y230063D01*
X557337Y232133D01*
X560263Y232133D01*
X562333Y230063D01*
X562333Y227137D01*
X560263Y225067D01*
X558457Y225067D01*
X558367Y225053D01*
X558276Y225045D01*
X558247Y225033D01*
X558215Y225028D01*
X558134Y224985D01*
X558050Y224949D01*
X558018Y224923D01*
X557997Y224912D01*
X557975Y224889D01*
X557919Y224844D01*
X548356Y215281D01*
X548303Y215207D01*
X548243Y215138D01*
X548231Y215107D01*
X548212Y215081D01*
X548185Y214994D01*
X548151Y214909D01*
X548147Y214868D01*
X548140Y214846D01*
X548141Y214814D01*
X548133Y214743D01*
X548133Y181079D01*
X548147Y180989D01*
X548155Y180898D01*
X548167Y180868D01*
X548172Y180836D01*
X548215Y180755D01*
X548251Y180671D01*
X548277Y180639D01*
X548288Y180619D01*
X548311Y180596D01*
X548356Y180540D01*
X549633Y179263D01*
X549633Y176337D01*
X547563Y174267D01*
X544637Y174267D01*
G37*
%LPD*%
%LPC*%
G36*
X72836Y206529D02*
X72836Y206529D01*
X69392Y207956D01*
X66756Y210592D01*
X65329Y214036D01*
X65329Y217764D01*
X66756Y221208D01*
X69392Y223844D01*
X72836Y225271D01*
X76564Y225271D01*
X80008Y223844D01*
X82644Y221208D01*
X84071Y217764D01*
X84071Y214036D01*
X82644Y210592D01*
X80008Y207956D01*
X76564Y206529D01*
X72836Y206529D01*
G37*
%LPD*%
%LPC*%
G36*
X72836Y233929D02*
X72836Y233929D01*
X69392Y235356D01*
X66756Y237992D01*
X65329Y241436D01*
X65329Y245164D01*
X66756Y248608D01*
X69392Y251244D01*
X72836Y252671D01*
X76564Y252671D01*
X80008Y251244D01*
X82644Y248608D01*
X84071Y245164D01*
X84071Y241436D01*
X82644Y237992D01*
X80008Y235356D01*
X76564Y233929D01*
X72836Y233929D01*
G37*
%LPD*%
%LPC*%
G36*
X925236Y346229D02*
X925236Y346229D01*
X921792Y347656D01*
X919156Y350292D01*
X917729Y353736D01*
X917729Y357464D01*
X919156Y360908D01*
X921792Y363544D01*
X925236Y364971D01*
X928964Y364971D01*
X932408Y363544D01*
X935044Y360908D01*
X936471Y357464D01*
X936471Y353736D01*
X935044Y350292D01*
X932408Y347656D01*
X928964Y346229D01*
X925236Y346229D01*
G37*
%LPD*%
%LPC*%
G36*
X87036Y498629D02*
X87036Y498629D01*
X83592Y500056D01*
X80956Y502692D01*
X79529Y506136D01*
X79529Y509864D01*
X80956Y513308D01*
X83592Y515944D01*
X87036Y517371D01*
X90764Y517371D01*
X94208Y515944D01*
X96844Y513308D01*
X98271Y509864D01*
X98271Y506136D01*
X96844Y502692D01*
X94208Y500056D01*
X90764Y498629D01*
X87036Y498629D01*
G37*
%LPD*%
%LPC*%
G36*
X72836Y179129D02*
X72836Y179129D01*
X69392Y180556D01*
X66756Y183192D01*
X65329Y186636D01*
X65329Y190364D01*
X66756Y193808D01*
X69392Y196444D01*
X72836Y197871D01*
X76564Y197871D01*
X80008Y196444D01*
X82644Y193808D01*
X84071Y190364D01*
X84071Y186636D01*
X82644Y183192D01*
X80008Y180556D01*
X76564Y179129D01*
X72836Y179129D01*
G37*
%LPD*%
%LPC*%
G36*
X87036Y548629D02*
X87036Y548629D01*
X83592Y550056D01*
X80956Y552692D01*
X79529Y556136D01*
X79529Y559864D01*
X80956Y563308D01*
X83592Y565944D01*
X87036Y567371D01*
X90764Y567371D01*
X94208Y565944D01*
X96844Y563308D01*
X98271Y559864D01*
X98271Y556136D01*
X96844Y552692D01*
X94208Y550056D01*
X90764Y548629D01*
X87036Y548629D01*
G37*
%LPD*%
%LPC*%
G36*
X101236Y220229D02*
X101236Y220229D01*
X97792Y221656D01*
X95156Y224292D01*
X93729Y227736D01*
X93729Y231464D01*
X95156Y234908D01*
X97792Y237544D01*
X101236Y238971D01*
X104964Y238971D01*
X108408Y237544D01*
X111044Y234908D01*
X112471Y231464D01*
X112471Y227736D01*
X111044Y224292D01*
X108408Y221656D01*
X104964Y220229D01*
X101236Y220229D01*
G37*
%LPD*%
%LPC*%
G36*
X87036Y473629D02*
X87036Y473629D01*
X83592Y475056D01*
X80956Y477692D01*
X79529Y481136D01*
X79529Y484864D01*
X80956Y488308D01*
X83592Y490944D01*
X87036Y492371D01*
X90764Y492371D01*
X94208Y490944D01*
X96844Y488308D01*
X98271Y484864D01*
X98271Y481136D01*
X96844Y477692D01*
X94208Y475056D01*
X90764Y473629D01*
X87036Y473629D01*
G37*
%LPD*%
%LPC*%
G36*
X87036Y523629D02*
X87036Y523629D01*
X83592Y525056D01*
X80956Y527692D01*
X79529Y531136D01*
X79529Y534864D01*
X80956Y538308D01*
X83592Y540944D01*
X87036Y542371D01*
X90764Y542371D01*
X94208Y540944D01*
X96844Y538308D01*
X98271Y534864D01*
X98271Y531136D01*
X96844Y527692D01*
X94208Y525056D01*
X90764Y523629D01*
X87036Y523629D01*
G37*
%LPD*%
%LPC*%
G36*
X72836Y151729D02*
X72836Y151729D01*
X69392Y153156D01*
X66756Y155792D01*
X65329Y159236D01*
X65329Y162964D01*
X66756Y166408D01*
X69392Y169044D01*
X72836Y170471D01*
X76564Y170471D01*
X80008Y169044D01*
X82644Y166408D01*
X84071Y162964D01*
X84071Y159236D01*
X82644Y155792D01*
X80008Y153156D01*
X76564Y151729D01*
X72836Y151729D01*
G37*
%LPD*%
%LPC*%
G36*
X101236Y192829D02*
X101236Y192829D01*
X97792Y194256D01*
X95156Y196892D01*
X93729Y200336D01*
X93729Y204064D01*
X95156Y207508D01*
X97792Y210144D01*
X101236Y211571D01*
X104964Y211571D01*
X108408Y210144D01*
X111044Y207508D01*
X112471Y204064D01*
X112471Y200336D01*
X111044Y196892D01*
X108408Y194256D01*
X104964Y192829D01*
X101236Y192829D01*
G37*
%LPD*%
%LPC*%
G36*
X925236Y396229D02*
X925236Y396229D01*
X921792Y397656D01*
X919156Y400292D01*
X917729Y403736D01*
X917729Y407464D01*
X919156Y410908D01*
X921792Y413544D01*
X925236Y414971D01*
X928964Y414971D01*
X932408Y413544D01*
X935044Y410908D01*
X936471Y407464D01*
X936471Y403736D01*
X935044Y400292D01*
X932408Y397656D01*
X928964Y396229D01*
X925236Y396229D01*
G37*
%LPD*%
%LPC*%
G36*
X925236Y371229D02*
X925236Y371229D01*
X921792Y372656D01*
X919156Y375292D01*
X917729Y378736D01*
X917729Y382464D01*
X919156Y385908D01*
X921792Y388544D01*
X925236Y389971D01*
X928964Y389971D01*
X932408Y388544D01*
X935044Y385908D01*
X936471Y382464D01*
X936471Y378736D01*
X935044Y375292D01*
X932408Y372656D01*
X928964Y371229D01*
X925236Y371229D01*
G37*
%LPD*%
%LPC*%
G36*
X101236Y165429D02*
X101236Y165429D01*
X97792Y166856D01*
X95156Y169492D01*
X93729Y172936D01*
X93729Y176664D01*
X95156Y180108D01*
X97792Y182744D01*
X101236Y184171D01*
X104964Y184171D01*
X108408Y182744D01*
X111044Y180108D01*
X112471Y176664D01*
X112471Y172936D01*
X111044Y169492D01*
X108408Y166856D01*
X104964Y165429D01*
X101236Y165429D01*
G37*
%LPD*%
%LPC*%
G36*
X101236Y247629D02*
X101236Y247629D01*
X97792Y249056D01*
X95156Y251692D01*
X93729Y255136D01*
X93729Y258864D01*
X95156Y262308D01*
X97792Y264944D01*
X101236Y266371D01*
X104964Y266371D01*
X108408Y264944D01*
X111044Y262308D01*
X112471Y258864D01*
X112471Y255136D01*
X111044Y251692D01*
X108408Y249056D01*
X104964Y247629D01*
X101236Y247629D01*
G37*
%LPD*%
%LPC*%
G36*
X925236Y321229D02*
X925236Y321229D01*
X921792Y322656D01*
X919156Y325292D01*
X917729Y328736D01*
X917729Y332464D01*
X919156Y335908D01*
X921792Y338544D01*
X925236Y339971D01*
X928964Y339971D01*
X932408Y338544D01*
X935044Y335908D01*
X936471Y332464D01*
X936471Y328736D01*
X935044Y325292D01*
X932408Y322656D01*
X928964Y321229D01*
X925236Y321229D01*
G37*
%LPD*%
%LPC*%
G36*
X519237Y161567D02*
X519237Y161567D01*
X517167Y163637D01*
X517167Y166563D01*
X518444Y167840D01*
X518497Y167914D01*
X518557Y167984D01*
X518569Y168014D01*
X518588Y168040D01*
X518615Y168127D01*
X518649Y168212D01*
X518653Y168253D01*
X518660Y168275D01*
X518659Y168307D01*
X518667Y168379D01*
X518667Y215439D01*
X518653Y215529D01*
X518645Y215620D01*
X518633Y215650D01*
X518628Y215682D01*
X518585Y215763D01*
X518549Y215847D01*
X518523Y215879D01*
X518512Y215899D01*
X518489Y215922D01*
X518444Y215978D01*
X517167Y217255D01*
X517167Y220181D01*
X519237Y222251D01*
X522163Y222251D01*
X524233Y220181D01*
X524233Y217255D01*
X522956Y215978D01*
X522903Y215904D01*
X522843Y215834D01*
X522831Y215804D01*
X522812Y215778D01*
X522785Y215691D01*
X522751Y215606D01*
X522747Y215565D01*
X522740Y215543D01*
X522741Y215511D01*
X522733Y215439D01*
X522733Y168379D01*
X522747Y168289D01*
X522755Y168198D01*
X522767Y168168D01*
X522772Y168136D01*
X522815Y168055D01*
X522851Y167971D01*
X522877Y167939D01*
X522888Y167919D01*
X522911Y167896D01*
X522956Y167840D01*
X524233Y166563D01*
X524233Y163637D01*
X522163Y161567D01*
X519237Y161567D01*
G37*
%LPD*%
%LPC*%
G36*
X210645Y362123D02*
X210645Y362123D01*
X210866Y363513D01*
X211471Y365376D01*
X212360Y367120D01*
X213511Y368705D01*
X214895Y370089D01*
X216480Y371240D01*
X218224Y372129D01*
X219599Y372576D01*
X219606Y372580D01*
X219614Y372581D01*
X219715Y372636D01*
X219818Y372689D01*
X219823Y372695D01*
X219830Y372698D01*
X219909Y372783D01*
X219989Y372865D01*
X219992Y372873D01*
X219998Y372879D01*
X220046Y372984D01*
X220095Y373087D01*
X220096Y373095D01*
X220099Y373103D01*
X220111Y373217D01*
X220125Y373332D01*
X220123Y373339D01*
X220124Y373347D01*
X220098Y373460D01*
X220075Y373572D01*
X220071Y373579D01*
X220069Y373587D01*
X220009Y373685D01*
X219951Y373785D01*
X219945Y373790D01*
X219941Y373797D01*
X219853Y373871D01*
X219766Y373947D01*
X219758Y373950D01*
X219752Y373955D01*
X219599Y374024D01*
X218224Y374471D01*
X216480Y375360D01*
X214895Y376511D01*
X213511Y377895D01*
X212360Y379480D01*
X211471Y381224D01*
X211024Y382599D01*
X211020Y382606D01*
X211019Y382614D01*
X210964Y382715D01*
X210911Y382818D01*
X210905Y382823D01*
X210902Y382830D01*
X210817Y382909D01*
X210735Y382989D01*
X210727Y382992D01*
X210721Y382998D01*
X210616Y383046D01*
X210513Y383095D01*
X210505Y383096D01*
X210497Y383099D01*
X210383Y383111D01*
X210268Y383125D01*
X210261Y383123D01*
X210253Y383124D01*
X210140Y383098D01*
X210028Y383075D01*
X210021Y383071D01*
X210013Y383069D01*
X209915Y383009D01*
X209815Y382951D01*
X209810Y382945D01*
X209803Y382941D01*
X209729Y382853D01*
X209653Y382766D01*
X209650Y382758D01*
X209645Y382752D01*
X209576Y382599D01*
X209129Y381224D01*
X208240Y379480D01*
X207089Y377895D01*
X205705Y376511D01*
X204120Y375360D01*
X202376Y374471D01*
X200513Y373866D01*
X199123Y373645D01*
X199123Y384477D01*
X221477Y384477D01*
X221477Y362123D01*
X210645Y362123D01*
G37*
%LPD*%
%LPC*%
G36*
X341437Y301267D02*
X341437Y301267D01*
X339367Y303337D01*
X339367Y306263D01*
X341437Y308333D01*
X344363Y308333D01*
X345640Y307056D01*
X345714Y307003D01*
X345784Y306943D01*
X345814Y306931D01*
X345840Y306912D01*
X345927Y306885D01*
X346012Y306851D01*
X346053Y306847D01*
X346075Y306840D01*
X346107Y306841D01*
X346179Y306833D01*
X377721Y306833D01*
X377811Y306847D01*
X377902Y306855D01*
X377932Y306867D01*
X377964Y306872D01*
X378045Y306915D01*
X378129Y306951D01*
X378161Y306977D01*
X378181Y306988D01*
X378204Y307011D01*
X378260Y307056D01*
X379537Y308333D01*
X382463Y308333D01*
X384533Y306263D01*
X384533Y303337D01*
X382463Y301267D01*
X379537Y301267D01*
X378260Y302544D01*
X378186Y302597D01*
X378116Y302657D01*
X378086Y302669D01*
X378060Y302688D01*
X377973Y302715D01*
X377888Y302749D01*
X377847Y302753D01*
X377825Y302760D01*
X377793Y302759D01*
X377721Y302767D01*
X346179Y302767D01*
X346089Y302753D01*
X345998Y302745D01*
X345968Y302733D01*
X345936Y302728D01*
X345855Y302685D01*
X345771Y302649D01*
X345739Y302623D01*
X345719Y302612D01*
X345696Y302589D01*
X345640Y302544D01*
X344363Y301267D01*
X341437Y301267D01*
G37*
%LPD*%
%LPC*%
G36*
X443037Y110767D02*
X443037Y110767D01*
X440967Y112837D01*
X440967Y114643D01*
X440953Y114733D01*
X440945Y114824D01*
X440933Y114853D01*
X440928Y114885D01*
X440885Y114966D01*
X440849Y115050D01*
X440823Y115082D01*
X440812Y115103D01*
X440789Y115125D01*
X440744Y115181D01*
X429767Y126158D01*
X429767Y136421D01*
X429753Y136511D01*
X429745Y136602D01*
X429733Y136632D01*
X429728Y136664D01*
X429685Y136745D01*
X429649Y136829D01*
X429623Y136861D01*
X429612Y136881D01*
X429589Y136904D01*
X429544Y136960D01*
X428267Y138237D01*
X428267Y141163D01*
X430337Y143233D01*
X433263Y143233D01*
X435333Y141163D01*
X435333Y138237D01*
X434056Y136960D01*
X434003Y136886D01*
X433943Y136816D01*
X433931Y136786D01*
X433912Y136760D01*
X433885Y136673D01*
X433851Y136588D01*
X433847Y136547D01*
X433840Y136525D01*
X433841Y136493D01*
X433833Y136421D01*
X433833Y128157D01*
X433847Y128067D01*
X433855Y127976D01*
X433867Y127947D01*
X433872Y127915D01*
X433915Y127834D01*
X433951Y127750D01*
X433977Y127718D01*
X433988Y127697D01*
X434011Y127675D01*
X434056Y127619D01*
X443619Y118056D01*
X443693Y118003D01*
X443762Y117943D01*
X443793Y117931D01*
X443819Y117912D01*
X443906Y117885D01*
X443991Y117851D01*
X444032Y117847D01*
X444054Y117840D01*
X444086Y117841D01*
X444157Y117833D01*
X445963Y117833D01*
X448033Y115763D01*
X448033Y112837D01*
X445963Y110767D01*
X443037Y110767D01*
G37*
%LPD*%
%LPC*%
G36*
X582737Y263167D02*
X582737Y263167D01*
X580667Y265237D01*
X580667Y267043D01*
X580653Y267133D01*
X580645Y267224D01*
X580633Y267253D01*
X580628Y267285D01*
X580585Y267366D01*
X580549Y267450D01*
X580523Y267482D01*
X580512Y267503D01*
X580489Y267525D01*
X580444Y267581D01*
X570881Y277144D01*
X570807Y277197D01*
X570738Y277257D01*
X570707Y277269D01*
X570681Y277288D01*
X570594Y277315D01*
X570509Y277349D01*
X570468Y277353D01*
X570446Y277360D01*
X570414Y277359D01*
X570343Y277367D01*
X562079Y277367D01*
X561989Y277353D01*
X561898Y277345D01*
X561868Y277333D01*
X561836Y277328D01*
X561755Y277285D01*
X561671Y277249D01*
X561639Y277223D01*
X561619Y277212D01*
X561596Y277189D01*
X561540Y277144D01*
X560263Y275867D01*
X557337Y275867D01*
X555267Y277937D01*
X555267Y280863D01*
X557337Y282933D01*
X560263Y282933D01*
X561540Y281656D01*
X561614Y281603D01*
X561684Y281543D01*
X561714Y281531D01*
X561740Y281512D01*
X561827Y281485D01*
X561912Y281451D01*
X561953Y281447D01*
X561975Y281440D01*
X562007Y281441D01*
X562079Y281433D01*
X572342Y281433D01*
X583319Y270456D01*
X583393Y270403D01*
X583462Y270343D01*
X583493Y270331D01*
X583519Y270312D01*
X583606Y270285D01*
X583691Y270251D01*
X583732Y270247D01*
X583754Y270240D01*
X583786Y270241D01*
X583857Y270233D01*
X585663Y270233D01*
X587733Y268163D01*
X587733Y265237D01*
X585663Y263167D01*
X582737Y263167D01*
G37*
%LPD*%
%LPC*%
G36*
X275323Y362123D02*
X275323Y362123D01*
X275323Y384477D01*
X286155Y384477D01*
X285934Y383087D01*
X285329Y381224D01*
X284440Y379480D01*
X283289Y377895D01*
X281905Y376511D01*
X280320Y375360D01*
X278576Y374471D01*
X277201Y374024D01*
X277194Y374020D01*
X277186Y374019D01*
X277084Y373964D01*
X276982Y373911D01*
X276977Y373906D01*
X276970Y373902D01*
X276891Y373817D01*
X276811Y373735D01*
X276808Y373727D01*
X276802Y373722D01*
X276754Y373616D01*
X276705Y373513D01*
X276704Y373505D01*
X276701Y373497D01*
X276689Y373383D01*
X276675Y373268D01*
X276677Y373261D01*
X276676Y373253D01*
X276702Y373140D01*
X276725Y373028D01*
X276729Y373021D01*
X276731Y373013D01*
X276791Y372914D01*
X276849Y372815D01*
X276855Y372810D01*
X276859Y372803D01*
X276948Y372728D01*
X277034Y372653D01*
X277042Y372650D01*
X277048Y372645D01*
X277201Y372576D01*
X278576Y372129D01*
X280320Y371240D01*
X281905Y370089D01*
X283289Y368705D01*
X284440Y367120D01*
X285329Y365376D01*
X285934Y363513D01*
X286155Y362123D01*
X275323Y362123D01*
G37*
%LPD*%
%LPC*%
G36*
X224523Y362123D02*
X224523Y362123D01*
X224523Y384477D01*
X235355Y384477D01*
X235134Y383087D01*
X234529Y381224D01*
X233640Y379480D01*
X232489Y377895D01*
X231105Y376511D01*
X229520Y375360D01*
X227776Y374471D01*
X226401Y374024D01*
X226394Y374020D01*
X226386Y374019D01*
X226284Y373964D01*
X226182Y373911D01*
X226177Y373906D01*
X226170Y373902D01*
X226091Y373817D01*
X226011Y373735D01*
X226008Y373727D01*
X226002Y373722D01*
X225954Y373616D01*
X225905Y373513D01*
X225904Y373505D01*
X225901Y373497D01*
X225889Y373383D01*
X225875Y373268D01*
X225877Y373261D01*
X225876Y373253D01*
X225902Y373140D01*
X225925Y373028D01*
X225929Y373021D01*
X225931Y373013D01*
X225991Y372914D01*
X226049Y372815D01*
X226055Y372810D01*
X226059Y372803D01*
X226148Y372728D01*
X226234Y372653D01*
X226242Y372650D01*
X226248Y372645D01*
X226401Y372576D01*
X227776Y372129D01*
X229520Y371240D01*
X231105Y370089D01*
X232489Y368705D01*
X233640Y367120D01*
X234529Y365376D01*
X235134Y363513D01*
X235355Y362123D01*
X224523Y362123D01*
G37*
%LPD*%
%LPC*%
G36*
X392237Y187073D02*
X392237Y187073D01*
X391066Y188244D01*
X390992Y188297D01*
X390922Y188357D01*
X390892Y188369D01*
X390866Y188388D01*
X390779Y188415D01*
X390694Y188449D01*
X390653Y188453D01*
X390631Y188460D01*
X390599Y188459D01*
X390527Y188467D01*
X367458Y188467D01*
X366490Y189435D01*
X366416Y189488D01*
X366347Y189548D01*
X366317Y189560D01*
X366290Y189579D01*
X366204Y189605D01*
X366119Y189640D01*
X366078Y189644D01*
X366055Y189651D01*
X366023Y189650D01*
X365952Y189658D01*
X364146Y189658D01*
X362077Y191727D01*
X362077Y194654D01*
X364146Y196723D01*
X367073Y196723D01*
X369142Y194654D01*
X369142Y193294D01*
X369145Y193274D01*
X369143Y193255D01*
X369165Y193153D01*
X369182Y193051D01*
X369191Y193034D01*
X369195Y193014D01*
X369248Y192925D01*
X369297Y192834D01*
X369311Y192820D01*
X369321Y192803D01*
X369400Y192736D01*
X369475Y192664D01*
X369493Y192656D01*
X369508Y192643D01*
X369605Y192604D01*
X369698Y192561D01*
X369718Y192559D01*
X369737Y192551D01*
X369903Y192533D01*
X390315Y192533D01*
X390405Y192547D01*
X390496Y192555D01*
X390526Y192567D01*
X390558Y192572D01*
X390639Y192615D01*
X390723Y192651D01*
X390755Y192677D01*
X390775Y192688D01*
X390798Y192711D01*
X390854Y192756D01*
X392237Y194139D01*
X395163Y194139D01*
X397233Y192069D01*
X397233Y189143D01*
X395163Y187073D01*
X392237Y187073D01*
G37*
%LPD*%
%LPC*%
G36*
X366837Y567967D02*
X366837Y567967D01*
X364767Y570037D01*
X364767Y572963D01*
X366837Y575033D01*
X369763Y575033D01*
X371040Y573756D01*
X371114Y573703D01*
X371184Y573643D01*
X371214Y573631D01*
X371240Y573612D01*
X371327Y573585D01*
X371412Y573551D01*
X371453Y573547D01*
X371475Y573540D01*
X371507Y573541D01*
X371579Y573533D01*
X390421Y573533D01*
X390511Y573547D01*
X390602Y573555D01*
X390632Y573567D01*
X390664Y573572D01*
X390745Y573615D01*
X390829Y573651D01*
X390861Y573677D01*
X390881Y573688D01*
X390904Y573711D01*
X390960Y573756D01*
X392237Y575033D01*
X395163Y575033D01*
X397233Y572963D01*
X397233Y570037D01*
X395163Y567967D01*
X392237Y567967D01*
X390960Y569244D01*
X390886Y569297D01*
X390816Y569357D01*
X390786Y569369D01*
X390760Y569388D01*
X390673Y569415D01*
X390588Y569449D01*
X390547Y569453D01*
X390525Y569460D01*
X390493Y569459D01*
X390421Y569467D01*
X371579Y569467D01*
X371489Y569453D01*
X371398Y569445D01*
X371368Y569433D01*
X371336Y569428D01*
X371255Y569385D01*
X371171Y569349D01*
X371139Y569323D01*
X371119Y569312D01*
X371096Y569289D01*
X371040Y569244D01*
X369763Y567967D01*
X366837Y567967D01*
G37*
%LPD*%
%LPC*%
G36*
X570037Y174267D02*
X570037Y174267D01*
X567967Y176337D01*
X567967Y179263D01*
X569244Y180540D01*
X569297Y180614D01*
X569357Y180684D01*
X569369Y180714D01*
X569388Y180740D01*
X569415Y180827D01*
X569449Y180912D01*
X569453Y180953D01*
X569460Y180975D01*
X569459Y181007D01*
X569467Y181079D01*
X569467Y199921D01*
X569453Y200011D01*
X569445Y200102D01*
X569433Y200132D01*
X569428Y200164D01*
X569385Y200245D01*
X569349Y200329D01*
X569323Y200361D01*
X569312Y200381D01*
X569289Y200404D01*
X569244Y200460D01*
X567967Y201737D01*
X567967Y204663D01*
X570037Y206733D01*
X572963Y206733D01*
X575033Y204663D01*
X575033Y201737D01*
X573756Y200460D01*
X573703Y200386D01*
X573643Y200316D01*
X573631Y200286D01*
X573612Y200260D01*
X573585Y200173D01*
X573551Y200088D01*
X573547Y200047D01*
X573540Y200025D01*
X573541Y199993D01*
X573533Y199921D01*
X573533Y181079D01*
X573547Y180989D01*
X573555Y180898D01*
X573567Y180868D01*
X573572Y180836D01*
X573615Y180755D01*
X573651Y180671D01*
X573677Y180639D01*
X573688Y180619D01*
X573711Y180596D01*
X573756Y180540D01*
X575033Y179263D01*
X575033Y176337D01*
X572963Y174267D01*
X570037Y174267D01*
G37*
%LPD*%
%LPC*%
G36*
X570037Y288567D02*
X570037Y288567D01*
X567967Y290637D01*
X567967Y293563D01*
X570037Y295633D01*
X572963Y295633D01*
X574240Y294356D01*
X574314Y294303D01*
X574384Y294243D01*
X574414Y294231D01*
X574440Y294212D01*
X574527Y294185D01*
X574612Y294151D01*
X574653Y294147D01*
X574675Y294140D01*
X574707Y294141D01*
X574779Y294133D01*
X593621Y294133D01*
X593711Y294147D01*
X593802Y294155D01*
X593832Y294167D01*
X593864Y294172D01*
X593945Y294215D01*
X594029Y294251D01*
X594061Y294277D01*
X594081Y294288D01*
X594104Y294311D01*
X594160Y294356D01*
X595437Y295633D01*
X598363Y295633D01*
X600433Y293563D01*
X600433Y290637D01*
X598363Y288567D01*
X595437Y288567D01*
X594160Y289844D01*
X594086Y289897D01*
X594016Y289957D01*
X593986Y289969D01*
X593960Y289988D01*
X593873Y290015D01*
X593788Y290049D01*
X593747Y290053D01*
X593725Y290060D01*
X593693Y290059D01*
X593621Y290067D01*
X574779Y290067D01*
X574689Y290053D01*
X574598Y290045D01*
X574568Y290033D01*
X574536Y290028D01*
X574455Y289985D01*
X574371Y289949D01*
X574339Y289923D01*
X574319Y289912D01*
X574296Y289889D01*
X574240Y289844D01*
X572963Y288567D01*
X570037Y288567D01*
G37*
%LPD*%
%LPC*%
G36*
X290637Y402867D02*
X290637Y402867D01*
X288567Y404937D01*
X288567Y407863D01*
X290637Y409933D01*
X293563Y409933D01*
X294840Y408656D01*
X294914Y408603D01*
X294984Y408543D01*
X295014Y408531D01*
X295040Y408512D01*
X295127Y408485D01*
X295212Y408451D01*
X295253Y408447D01*
X295275Y408440D01*
X295307Y408441D01*
X295379Y408433D01*
X314221Y408433D01*
X314311Y408447D01*
X314402Y408455D01*
X314432Y408467D01*
X314464Y408472D01*
X314545Y408515D01*
X314629Y408551D01*
X314661Y408577D01*
X314681Y408588D01*
X314704Y408611D01*
X314760Y408656D01*
X316037Y409933D01*
X318963Y409933D01*
X321033Y407863D01*
X321033Y404937D01*
X318963Y402867D01*
X316037Y402867D01*
X314760Y404144D01*
X314686Y404197D01*
X314616Y404257D01*
X314586Y404269D01*
X314560Y404288D01*
X314473Y404315D01*
X314388Y404349D01*
X314347Y404353D01*
X314325Y404360D01*
X314293Y404359D01*
X314221Y404367D01*
X295379Y404367D01*
X295289Y404353D01*
X295198Y404345D01*
X295168Y404333D01*
X295136Y404328D01*
X295055Y404285D01*
X294971Y404249D01*
X294939Y404223D01*
X294919Y404212D01*
X294896Y404189D01*
X294840Y404144D01*
X293563Y402867D01*
X290637Y402867D01*
G37*
%LPD*%
%LPC*%
G36*
X531937Y110767D02*
X531937Y110767D01*
X529867Y112837D01*
X529867Y115763D01*
X531144Y117040D01*
X531197Y117114D01*
X531257Y117184D01*
X531269Y117214D01*
X531288Y117240D01*
X531315Y117327D01*
X531349Y117412D01*
X531353Y117453D01*
X531360Y117475D01*
X531359Y117507D01*
X531367Y117579D01*
X531367Y136421D01*
X531353Y136511D01*
X531345Y136602D01*
X531333Y136632D01*
X531328Y136664D01*
X531285Y136745D01*
X531249Y136829D01*
X531223Y136861D01*
X531212Y136881D01*
X531189Y136904D01*
X531144Y136960D01*
X529867Y138237D01*
X529867Y141163D01*
X531937Y143233D01*
X534863Y143233D01*
X536933Y141163D01*
X536933Y138237D01*
X535656Y136960D01*
X535603Y136886D01*
X535543Y136816D01*
X535531Y136786D01*
X535512Y136760D01*
X535485Y136673D01*
X535451Y136588D01*
X535447Y136547D01*
X535440Y136525D01*
X535441Y136493D01*
X535433Y136421D01*
X535433Y117579D01*
X535447Y117489D01*
X535455Y117398D01*
X535467Y117368D01*
X535472Y117336D01*
X535515Y117255D01*
X535551Y117171D01*
X535577Y117139D01*
X535588Y117118D01*
X535611Y117096D01*
X535656Y117040D01*
X536933Y115763D01*
X536933Y112837D01*
X534863Y110767D01*
X531937Y110767D01*
G37*
%LPD*%
%LPC*%
G36*
X379537Y199667D02*
X379537Y199667D01*
X377467Y201737D01*
X377467Y204663D01*
X379537Y206733D01*
X382463Y206733D01*
X383740Y205456D01*
X383814Y205403D01*
X383884Y205343D01*
X383914Y205331D01*
X383940Y205312D01*
X384027Y205285D01*
X384112Y205251D01*
X384153Y205247D01*
X384175Y205240D01*
X384207Y205241D01*
X384279Y205233D01*
X403121Y205233D01*
X403211Y205247D01*
X403302Y205255D01*
X403332Y205267D01*
X403364Y205272D01*
X403445Y205315D01*
X403529Y205351D01*
X403561Y205377D01*
X403582Y205388D01*
X403604Y205411D01*
X403660Y205456D01*
X404937Y206733D01*
X407863Y206733D01*
X409933Y204663D01*
X409933Y201737D01*
X407863Y199667D01*
X404937Y199667D01*
X403660Y200944D01*
X403586Y200997D01*
X403516Y201057D01*
X403486Y201069D01*
X403460Y201088D01*
X403373Y201115D01*
X403288Y201149D01*
X403247Y201153D01*
X403225Y201160D01*
X403193Y201159D01*
X403121Y201167D01*
X384279Y201167D01*
X384189Y201153D01*
X384098Y201145D01*
X384068Y201133D01*
X384036Y201128D01*
X383955Y201085D01*
X383871Y201049D01*
X383839Y201023D01*
X383819Y201012D01*
X383796Y200989D01*
X383740Y200944D01*
X382463Y199667D01*
X379537Y199667D01*
G37*
%LPD*%
%LPC*%
G36*
X417637Y212367D02*
X417637Y212367D01*
X415567Y214437D01*
X415567Y216243D01*
X415553Y216333D01*
X415545Y216424D01*
X415533Y216453D01*
X415528Y216485D01*
X415485Y216566D01*
X415449Y216650D01*
X415423Y216682D01*
X415412Y216703D01*
X415389Y216725D01*
X415344Y216781D01*
X407281Y224844D01*
X407207Y224897D01*
X407138Y224957D01*
X407107Y224969D01*
X407081Y224988D01*
X406994Y225015D01*
X406909Y225049D01*
X406868Y225053D01*
X406846Y225060D01*
X406814Y225059D01*
X406743Y225067D01*
X404937Y225067D01*
X402867Y227137D01*
X402867Y230063D01*
X404937Y232133D01*
X407863Y232133D01*
X409933Y230063D01*
X409933Y228257D01*
X409947Y228167D01*
X409955Y228076D01*
X409967Y228047D01*
X409972Y228015D01*
X410015Y227934D01*
X410051Y227850D01*
X410077Y227818D01*
X410088Y227797D01*
X410111Y227775D01*
X410156Y227719D01*
X418219Y219656D01*
X418293Y219603D01*
X418362Y219543D01*
X418393Y219531D01*
X418419Y219512D01*
X418506Y219485D01*
X418591Y219451D01*
X418632Y219447D01*
X418654Y219440D01*
X418686Y219441D01*
X418757Y219433D01*
X420563Y219433D01*
X422633Y217363D01*
X422633Y214437D01*
X420563Y212367D01*
X417637Y212367D01*
G37*
%LPD*%
%LPC*%
G36*
X417637Y453667D02*
X417637Y453667D01*
X415567Y455737D01*
X415567Y458663D01*
X417637Y460733D01*
X419443Y460733D01*
X419533Y460747D01*
X419624Y460755D01*
X419653Y460767D01*
X419685Y460772D01*
X419766Y460815D01*
X419850Y460851D01*
X419882Y460877D01*
X419903Y460888D01*
X419925Y460911D01*
X419981Y460956D01*
X428044Y469019D01*
X428097Y469093D01*
X428157Y469162D01*
X428169Y469193D01*
X428188Y469219D01*
X428215Y469306D01*
X428249Y469391D01*
X428253Y469432D01*
X428260Y469454D01*
X428259Y469486D01*
X428267Y469557D01*
X428267Y471363D01*
X430337Y473433D01*
X433263Y473433D01*
X435333Y471363D01*
X435333Y468437D01*
X433263Y466367D01*
X431457Y466367D01*
X431367Y466353D01*
X431276Y466345D01*
X431247Y466333D01*
X431215Y466328D01*
X431134Y466285D01*
X431050Y466249D01*
X431018Y466223D01*
X430997Y466212D01*
X430975Y466189D01*
X430919Y466144D01*
X422856Y458081D01*
X422803Y458007D01*
X422743Y457938D01*
X422731Y457907D01*
X422712Y457881D01*
X422685Y457794D01*
X422651Y457709D01*
X422647Y457668D01*
X422640Y457646D01*
X422641Y457614D01*
X422633Y457543D01*
X422633Y455737D01*
X420563Y453667D01*
X417637Y453667D01*
G37*
%LPD*%
%LPC*%
G36*
X757923Y529763D02*
X757923Y529763D01*
X757923Y540595D01*
X759313Y540374D01*
X761176Y539769D01*
X762920Y538880D01*
X764505Y537729D01*
X765889Y536345D01*
X767040Y534760D01*
X767929Y533016D01*
X768534Y531153D01*
X768755Y529763D01*
X757923Y529763D01*
G37*
%LPD*%
%LPC*%
G36*
X808723Y514273D02*
X808723Y514273D01*
X808723Y525105D01*
X810113Y524884D01*
X811976Y524279D01*
X813720Y523390D01*
X815305Y522239D01*
X816689Y520855D01*
X817840Y519270D01*
X818729Y517526D01*
X819334Y515663D01*
X819555Y514273D01*
X808723Y514273D01*
G37*
%LPD*%
%LPC*%
G36*
X275323Y387523D02*
X275323Y387523D01*
X275323Y398355D01*
X276713Y398134D01*
X278576Y397529D01*
X280320Y396640D01*
X281905Y395489D01*
X283289Y394105D01*
X284440Y392520D01*
X285329Y390776D01*
X285934Y388913D01*
X286155Y387523D01*
X275323Y387523D01*
G37*
%LPD*%
%LPC*%
G36*
X834123Y387273D02*
X834123Y387273D01*
X834123Y398105D01*
X835513Y397884D01*
X837376Y397279D01*
X839120Y396390D01*
X840705Y395239D01*
X842089Y393855D01*
X843240Y392270D01*
X844129Y390526D01*
X844734Y388663D01*
X844955Y387273D01*
X834123Y387273D01*
G37*
%LPD*%
%LPC*%
G36*
X834123Y234873D02*
X834123Y234873D01*
X834123Y245705D01*
X835513Y245484D01*
X837376Y244879D01*
X839120Y243990D01*
X840705Y242839D01*
X842089Y241455D01*
X843240Y239870D01*
X844129Y238126D01*
X844734Y236263D01*
X844955Y234873D01*
X834123Y234873D01*
G37*
%LPD*%
%LPC*%
G36*
X224523Y539923D02*
X224523Y539923D01*
X224523Y550755D01*
X225913Y550534D01*
X227776Y549929D01*
X229520Y549040D01*
X231105Y547889D01*
X232489Y546505D01*
X233640Y544920D01*
X234529Y543176D01*
X235134Y541313D01*
X235355Y539923D01*
X224523Y539923D01*
G37*
%LPD*%
%LPC*%
G36*
X820245Y234873D02*
X820245Y234873D01*
X820466Y236263D01*
X821071Y238126D01*
X821960Y239870D01*
X823111Y241455D01*
X824495Y242839D01*
X826080Y243990D01*
X827824Y244879D01*
X829687Y245484D01*
X831077Y245705D01*
X831077Y234873D01*
X820245Y234873D01*
G37*
%LPD*%
%LPC*%
G36*
X834123Y384227D02*
X834123Y384227D01*
X844955Y384227D01*
X844734Y382837D01*
X844129Y380974D01*
X843240Y379230D01*
X842089Y377645D01*
X840705Y376261D01*
X839120Y375110D01*
X837376Y374221D01*
X835513Y373616D01*
X834123Y373395D01*
X834123Y384227D01*
G37*
%LPD*%
%LPC*%
G36*
X757923Y526717D02*
X757923Y526717D01*
X768755Y526717D01*
X768534Y525327D01*
X767929Y523464D01*
X767040Y521720D01*
X765889Y520135D01*
X764505Y518751D01*
X762920Y517600D01*
X761176Y516711D01*
X759313Y516106D01*
X757923Y515885D01*
X757923Y526717D01*
G37*
%LPD*%
%LPC*%
G36*
X185245Y387523D02*
X185245Y387523D01*
X185466Y388913D01*
X186071Y390776D01*
X186960Y392520D01*
X188111Y394105D01*
X189495Y395489D01*
X191080Y396640D01*
X192824Y397529D01*
X194687Y398134D01*
X196077Y398355D01*
X196077Y387523D01*
X185245Y387523D01*
G37*
%LPD*%
%LPC*%
G36*
X834123Y231827D02*
X834123Y231827D01*
X844955Y231827D01*
X844734Y230437D01*
X844129Y228574D01*
X843240Y226830D01*
X842089Y225245D01*
X840705Y223861D01*
X839120Y222710D01*
X837376Y221821D01*
X835513Y221216D01*
X834123Y220995D01*
X834123Y231827D01*
G37*
%LPD*%
%LPC*%
G36*
X261445Y387523D02*
X261445Y387523D01*
X261666Y388913D01*
X262271Y390776D01*
X263160Y392520D01*
X264311Y394105D01*
X265695Y395489D01*
X267280Y396640D01*
X269024Y397529D01*
X270887Y398134D01*
X272277Y398355D01*
X272277Y387523D01*
X261445Y387523D01*
G37*
%LPD*%
%LPC*%
G36*
X794845Y514273D02*
X794845Y514273D01*
X795066Y515663D01*
X795671Y517526D01*
X796560Y519270D01*
X797711Y520855D01*
X799095Y522239D01*
X800680Y523390D01*
X802424Y524279D01*
X804287Y524884D01*
X805677Y525105D01*
X805677Y514273D01*
X794845Y514273D01*
G37*
%LPD*%
%LPC*%
G36*
X808723Y511227D02*
X808723Y511227D01*
X819555Y511227D01*
X819334Y509837D01*
X818729Y507974D01*
X817840Y506230D01*
X816689Y504645D01*
X815305Y503261D01*
X813720Y502110D01*
X811976Y501221D01*
X810113Y500616D01*
X808723Y500395D01*
X808723Y511227D01*
G37*
%LPD*%
%LPC*%
G36*
X224523Y536877D02*
X224523Y536877D01*
X235355Y536877D01*
X235134Y535487D01*
X234529Y533624D01*
X233640Y531880D01*
X232489Y530295D01*
X231105Y528911D01*
X229520Y527760D01*
X227776Y526871D01*
X225913Y526266D01*
X224523Y526045D01*
X224523Y536877D01*
G37*
%LPD*%
%LPC*%
G36*
X224523Y359077D02*
X224523Y359077D01*
X235355Y359077D01*
X235134Y357687D01*
X234529Y355824D01*
X233640Y354080D01*
X232489Y352495D01*
X231105Y351111D01*
X229520Y349960D01*
X227776Y349071D01*
X225913Y348466D01*
X224523Y348245D01*
X224523Y359077D01*
G37*
%LPD*%
%LPC*%
G36*
X820245Y387273D02*
X820245Y387273D01*
X820466Y388663D01*
X821071Y390526D01*
X821960Y392270D01*
X823111Y393855D01*
X824495Y395239D01*
X826080Y396390D01*
X827824Y397279D01*
X829687Y397884D01*
X831077Y398105D01*
X831077Y387273D01*
X820245Y387273D01*
G37*
%LPD*%
%LPC*%
G36*
X744045Y529763D02*
X744045Y529763D01*
X744266Y531153D01*
X744871Y533016D01*
X745760Y534760D01*
X746911Y536345D01*
X748295Y537729D01*
X749880Y538880D01*
X751624Y539769D01*
X753487Y540374D01*
X754877Y540595D01*
X754877Y529763D01*
X744045Y529763D01*
G37*
%LPD*%
%LPC*%
G36*
X210645Y539923D02*
X210645Y539923D01*
X210866Y541313D01*
X211471Y543176D01*
X212360Y544920D01*
X213511Y546505D01*
X214895Y547889D01*
X216480Y549040D01*
X218224Y549929D01*
X220087Y550534D01*
X221477Y550755D01*
X221477Y539923D01*
X210645Y539923D01*
G37*
%LPD*%
%LPC*%
G36*
X194687Y373866D02*
X194687Y373866D01*
X192824Y374471D01*
X191080Y375360D01*
X189495Y376511D01*
X188111Y377895D01*
X186960Y379480D01*
X186071Y381224D01*
X185466Y383087D01*
X185245Y384477D01*
X196077Y384477D01*
X196077Y373645D01*
X194687Y373866D01*
G37*
%LPD*%
%LPC*%
G36*
X220087Y526266D02*
X220087Y526266D01*
X218224Y526871D01*
X216480Y527760D01*
X214895Y528911D01*
X213511Y530295D01*
X212360Y531880D01*
X211471Y533624D01*
X210866Y535487D01*
X210645Y536877D01*
X221477Y536877D01*
X221477Y526045D01*
X220087Y526266D01*
G37*
%LPD*%
%LPC*%
G36*
X753487Y516106D02*
X753487Y516106D01*
X751624Y516711D01*
X749880Y517600D01*
X748295Y518751D01*
X746911Y520135D01*
X745760Y521720D01*
X744871Y523464D01*
X744266Y525327D01*
X744045Y526717D01*
X754877Y526717D01*
X754877Y515885D01*
X753487Y516106D01*
G37*
%LPD*%
%LPC*%
G36*
X829687Y221216D02*
X829687Y221216D01*
X827824Y221821D01*
X826080Y222710D01*
X824495Y223861D01*
X823111Y225245D01*
X821960Y226830D01*
X821071Y228574D01*
X820466Y230437D01*
X820245Y231827D01*
X831077Y231827D01*
X831077Y220996D01*
X829687Y221216D01*
G37*
%LPD*%
%LPC*%
G36*
X804287Y500616D02*
X804287Y500616D01*
X802424Y501221D01*
X800680Y502110D01*
X799095Y503261D01*
X797711Y504645D01*
X796560Y506230D01*
X795671Y507974D01*
X795066Y509837D01*
X794845Y511227D01*
X805677Y511227D01*
X805677Y500396D01*
X804287Y500616D01*
G37*
%LPD*%
%LPC*%
G36*
X829687Y373616D02*
X829687Y373616D01*
X827824Y374221D01*
X826080Y375110D01*
X824495Y376261D01*
X823111Y377645D01*
X821960Y379230D01*
X821071Y380974D01*
X820466Y382837D01*
X820245Y384227D01*
X831077Y384227D01*
X831077Y373396D01*
X829687Y373616D01*
G37*
%LPD*%
%LPC*%
G36*
X220087Y348466D02*
X220087Y348466D01*
X218224Y349071D01*
X216480Y349960D01*
X214895Y351111D01*
X213511Y352495D01*
X212360Y354080D01*
X211471Y355824D01*
X210866Y357687D01*
X210645Y359077D01*
X221477Y359077D01*
X221477Y348245D01*
X220087Y348466D01*
G37*
%LPD*%
%LPC*%
G36*
X460123Y645223D02*
X460123Y645223D01*
X460123Y655143D01*
X461302Y654957D01*
X463030Y654395D01*
X464649Y653571D01*
X466118Y652503D01*
X467403Y651218D01*
X468471Y649749D01*
X469295Y648130D01*
X469857Y646402D01*
X470043Y645223D01*
X460123Y645223D01*
G37*
%LPD*%
%LPC*%
G36*
X460123Y642177D02*
X460123Y642177D01*
X470043Y642177D01*
X469857Y640998D01*
X469295Y639270D01*
X468471Y637651D01*
X467403Y636182D01*
X466118Y634897D01*
X464649Y633829D01*
X463030Y633005D01*
X461302Y632443D01*
X460123Y632257D01*
X460123Y642177D01*
G37*
%LPD*%
%LPC*%
G36*
X447157Y645223D02*
X447157Y645223D01*
X447343Y646402D01*
X447905Y648130D01*
X448729Y649749D01*
X449797Y651218D01*
X451082Y652503D01*
X452551Y653571D01*
X454170Y654395D01*
X455898Y654957D01*
X457077Y655143D01*
X457077Y645223D01*
X447157Y645223D01*
G37*
%LPD*%
%LPC*%
G36*
X455898Y632443D02*
X455898Y632443D01*
X454170Y633005D01*
X452551Y633829D01*
X451082Y634897D01*
X449797Y636182D01*
X448729Y637651D01*
X447905Y639270D01*
X447343Y640998D01*
X447157Y642177D01*
X457077Y642177D01*
X457077Y632257D01*
X455898Y632443D01*
G37*
%LPD*%
%LPC*%
G36*
X90423Y459523D02*
X90423Y459523D01*
X90423Y468532D01*
X91392Y468379D01*
X92985Y467861D01*
X94477Y467101D01*
X95832Y466116D01*
X97016Y464932D01*
X98001Y463577D01*
X98761Y462085D01*
X99279Y460492D01*
X99432Y459523D01*
X90423Y459523D01*
G37*
%LPD*%
%LPC*%
G36*
X76223Y272223D02*
X76223Y272223D01*
X76223Y281232D01*
X77192Y281079D01*
X78785Y280561D01*
X80277Y279801D01*
X81632Y278816D01*
X82816Y277632D01*
X83801Y276277D01*
X84561Y274785D01*
X85079Y273192D01*
X85232Y272223D01*
X76223Y272223D01*
G37*
%LPD*%
%LPC*%
G36*
X928623Y307123D02*
X928623Y307123D01*
X928623Y316132D01*
X929592Y315979D01*
X931185Y315461D01*
X932677Y314701D01*
X934032Y313716D01*
X935216Y312532D01*
X936201Y311177D01*
X936961Y309685D01*
X937479Y308092D01*
X937632Y307123D01*
X928623Y307123D01*
G37*
%LPD*%
%LPC*%
G36*
X928623Y304077D02*
X928623Y304077D01*
X937632Y304077D01*
X937479Y303108D01*
X936961Y301515D01*
X936201Y300023D01*
X935216Y298668D01*
X934032Y297484D01*
X932677Y296499D01*
X931185Y295739D01*
X929592Y295221D01*
X928623Y295068D01*
X928623Y304077D01*
G37*
%LPD*%
%LPC*%
G36*
X90423Y456477D02*
X90423Y456477D01*
X99432Y456477D01*
X99279Y455508D01*
X98761Y453915D01*
X98001Y452423D01*
X97016Y451068D01*
X95832Y449884D01*
X94477Y448899D01*
X92985Y448139D01*
X91392Y447621D01*
X90423Y447468D01*
X90423Y456477D01*
G37*
%LPD*%
%LPC*%
G36*
X64168Y272223D02*
X64168Y272223D01*
X64321Y273192D01*
X64839Y274785D01*
X65599Y276277D01*
X66584Y277632D01*
X67768Y278816D01*
X69123Y279801D01*
X70615Y280561D01*
X72208Y281079D01*
X73177Y281232D01*
X73177Y272223D01*
X64168Y272223D01*
G37*
%LPD*%
%LPC*%
G36*
X76223Y269177D02*
X76223Y269177D01*
X85232Y269177D01*
X85079Y268208D01*
X84561Y266615D01*
X83801Y265123D01*
X82816Y263768D01*
X81632Y262584D01*
X80277Y261599D01*
X78785Y260839D01*
X77192Y260321D01*
X76223Y260168D01*
X76223Y269177D01*
G37*
%LPD*%
%LPC*%
G36*
X916568Y307123D02*
X916568Y307123D01*
X916721Y308092D01*
X917239Y309685D01*
X917999Y311177D01*
X918984Y312532D01*
X920168Y313716D01*
X921523Y314701D01*
X923015Y315461D01*
X924608Y315979D01*
X925577Y316132D01*
X925577Y307123D01*
X916568Y307123D01*
G37*
%LPD*%
%LPC*%
G36*
X78368Y459523D02*
X78368Y459523D01*
X78521Y460492D01*
X79039Y462085D01*
X79799Y463577D01*
X80784Y464932D01*
X81968Y466116D01*
X83323Y467101D01*
X84815Y467861D01*
X86408Y468379D01*
X87377Y468532D01*
X87377Y459523D01*
X78368Y459523D01*
G37*
%LPD*%
%LPC*%
G36*
X924608Y295221D02*
X924608Y295221D01*
X923015Y295739D01*
X921523Y296499D01*
X920168Y297484D01*
X918984Y298668D01*
X917999Y300023D01*
X917239Y301515D01*
X916721Y303108D01*
X916568Y304077D01*
X925577Y304077D01*
X925577Y295068D01*
X924608Y295221D01*
G37*
%LPD*%
%LPC*%
G36*
X86408Y447621D02*
X86408Y447621D01*
X84815Y448139D01*
X83323Y448899D01*
X81968Y449884D01*
X80784Y451068D01*
X79799Y452423D01*
X79039Y453915D01*
X78521Y455508D01*
X78368Y456477D01*
X87377Y456477D01*
X87377Y447468D01*
X86408Y447621D01*
G37*
%LPD*%
%LPC*%
G36*
X72208Y260321D02*
X72208Y260321D01*
X70615Y260839D01*
X69123Y261599D01*
X67768Y262584D01*
X66584Y263768D01*
X65599Y265123D01*
X64839Y266615D01*
X64321Y268208D01*
X64168Y269177D01*
X73177Y269177D01*
X73177Y260168D01*
X72208Y260321D01*
G37*
%LPD*%
%LPC*%
G36*
X927099Y305599D02*
X927099Y305599D01*
X927099Y305601D01*
X927101Y305601D01*
X927101Y305599D01*
X927099Y305599D01*
G37*
%LPD*%
%LPC*%
G36*
X88899Y457999D02*
X88899Y457999D01*
X88899Y458001D01*
X88901Y458001D01*
X88901Y457999D01*
X88899Y457999D01*
G37*
%LPD*%
%LPC*%
G36*
X832599Y385749D02*
X832599Y385749D01*
X832599Y385751D01*
X832601Y385751D01*
X832601Y385749D01*
X832599Y385749D01*
G37*
%LPD*%
%LPC*%
G36*
X273799Y385999D02*
X273799Y385999D01*
X273799Y386001D01*
X273801Y386001D01*
X273801Y385999D01*
X273799Y385999D01*
G37*
%LPD*%
%LPC*%
G36*
X458599Y643699D02*
X458599Y643699D01*
X458599Y643701D01*
X458601Y643701D01*
X458601Y643699D01*
X458599Y643699D01*
G37*
%LPD*%
%LPC*%
G36*
X74699Y270699D02*
X74699Y270699D01*
X74699Y270701D01*
X74701Y270701D01*
X74701Y270699D01*
X74699Y270699D01*
G37*
%LPD*%
%LPC*%
G36*
X756399Y528239D02*
X756399Y528239D01*
X756399Y528241D01*
X756401Y528241D01*
X756401Y528239D01*
X756399Y528239D01*
G37*
%LPD*%
%LPC*%
G36*
X807199Y512749D02*
X807199Y512749D01*
X807199Y512751D01*
X807201Y512751D01*
X807201Y512749D01*
X807199Y512749D01*
G37*
%LPD*%
%LPC*%
G36*
X222999Y360599D02*
X222999Y360599D01*
X222999Y360601D01*
X223001Y360601D01*
X223001Y360599D01*
X222999Y360599D01*
G37*
%LPD*%
%LPC*%
G36*
X832599Y233349D02*
X832599Y233349D01*
X832599Y233351D01*
X832601Y233351D01*
X832601Y233349D01*
X832599Y233349D01*
G37*
%LPD*%
%LPC*%
G36*
X197599Y385999D02*
X197599Y385999D01*
X197599Y386001D01*
X197601Y386001D01*
X197601Y385999D01*
X197599Y385999D01*
G37*
%LPD*%
%LPC*%
G36*
X222999Y538399D02*
X222999Y538399D01*
X222999Y538401D01*
X223001Y538401D01*
X223001Y538399D01*
X222999Y538399D01*
G37*
%LPD*%
D10*
X74700Y161100D03*
X74700Y188500D03*
X74700Y215900D03*
X74700Y270700D03*
X74700Y243300D03*
X103100Y174800D03*
X103100Y202200D03*
X103100Y229600D03*
X103100Y257000D03*
D11*
X88900Y340850D03*
X88900Y90950D03*
D12*
X458600Y643700D03*
X483600Y643700D03*
D10*
X88900Y508000D03*
X88900Y483000D03*
X88900Y458000D03*
X88900Y533000D03*
X88900Y558000D03*
X927100Y355600D03*
X927100Y330600D03*
X927100Y305600D03*
X927100Y380600D03*
X927100Y405600D03*
D13*
X273800Y284400D03*
D14*
X273800Y259000D03*
X273800Y233600D03*
X273800Y208200D03*
X273800Y182800D03*
X273800Y157400D03*
D13*
X273800Y513000D03*
D14*
X273800Y487600D03*
X273800Y462200D03*
X273800Y436800D03*
X273800Y411400D03*
X273800Y386000D03*
X273800Y360600D03*
X273800Y335200D03*
D13*
X197600Y614600D03*
D14*
X223000Y614600D03*
X197600Y589200D03*
X223000Y589200D03*
X197600Y563800D03*
X223000Y563800D03*
X197600Y538400D03*
X223000Y538400D03*
X197600Y513000D03*
X223000Y513000D03*
X197600Y487600D03*
X223000Y487600D03*
X197600Y462200D03*
X223000Y462200D03*
X197600Y436800D03*
X223000Y436800D03*
X197600Y411400D03*
X223000Y411400D03*
X197600Y386000D03*
X223000Y386000D03*
X197600Y360600D03*
X223000Y360600D03*
X197600Y335200D03*
X223000Y335200D03*
X197600Y309800D03*
X223000Y309800D03*
X197600Y284400D03*
X223000Y284400D03*
X197600Y259000D03*
X223000Y259000D03*
X197600Y233600D03*
X223000Y233600D03*
X197600Y208200D03*
X223000Y208200D03*
X197600Y182800D03*
X223000Y182800D03*
X197600Y157400D03*
X223000Y157400D03*
D13*
X756400Y375840D03*
D14*
X756400Y401240D03*
X756400Y426640D03*
X756400Y452040D03*
X756400Y477440D03*
X756400Y502840D03*
X756400Y528240D03*
X756400Y553640D03*
X756400Y579040D03*
X756400Y604440D03*
X756400Y208200D03*
X756400Y233600D03*
X756400Y259000D03*
X756400Y284400D03*
X756400Y309800D03*
X756400Y335200D03*
D13*
X756400Y157400D03*
D14*
X756400Y182800D03*
D13*
X807200Y614350D03*
D14*
X832600Y614350D03*
X807200Y588950D03*
X832600Y588950D03*
X807200Y563550D03*
X832600Y563550D03*
X807200Y538150D03*
X832600Y538150D03*
X807200Y512750D03*
X832600Y512750D03*
X807200Y487350D03*
X832600Y487350D03*
X807200Y461950D03*
X832600Y461950D03*
X807200Y436550D03*
X832600Y436550D03*
X807200Y411150D03*
X832600Y411150D03*
X807200Y385750D03*
X832600Y385750D03*
X807200Y360350D03*
X832600Y360350D03*
X807200Y334950D03*
X832600Y334950D03*
X807200Y309550D03*
X832600Y309550D03*
X807200Y284150D03*
X832600Y284150D03*
X807200Y258750D03*
X832600Y258750D03*
X807200Y233350D03*
X832600Y233350D03*
X807200Y207950D03*
X832600Y207950D03*
X807200Y182550D03*
X832600Y182550D03*
X807200Y157150D03*
X832600Y157150D03*
D15*
X330200Y596900D03*
X571500Y431800D03*
X695100Y409100D03*
X609600Y508000D03*
D16*
X406400Y228600D03*
D17*
X419100Y215900D01*
D16*
X419100Y215900D03*
X419100Y635000D03*
X444500Y558800D03*
X508000Y546100D03*
X635000Y635000D03*
X469900Y457200D03*
X355600Y457200D03*
X457200Y533400D03*
X368300Y431800D03*
X723900Y482600D03*
X609600Y406400D03*
X622300Y279400D03*
X698500Y177800D03*
X609600Y228600D03*
X520700Y228600D03*
X520700Y292100D03*
X419100Y241300D03*
X431800Y266700D03*
X381000Y266700D03*
X393700Y165100D03*
X495300Y165100D03*
X365609Y193191D03*
D17*
X368300Y190500D01*
X393700Y190500D01*
X393700Y190606D01*
D16*
X393700Y190606D03*
X571500Y177800D03*
D17*
X571500Y203200D01*
D16*
X571500Y203200D03*
X292100Y330200D03*
D17*
X427682Y241300D02*
X546100Y241300D01*
X427682Y241300D02*
X421614Y247368D01*
X374932Y247368D02*
X292100Y330200D01*
X374932Y247368D02*
X421614Y247368D01*
D16*
X546100Y241300D03*
X381000Y203200D03*
D17*
X406400Y203200D01*
D16*
X406400Y203200D03*
X533400Y114300D03*
D17*
X533400Y139700D01*
D16*
X533400Y139700D03*
X520700Y165100D03*
X520700Y218718D03*
D17*
X520700Y165100D01*
D16*
X431800Y469900D03*
D17*
X419100Y457200D01*
D16*
X419100Y457200D03*
X393700Y571500D03*
D17*
X368300Y571500D01*
D16*
X368300Y571500D03*
X152400Y508000D03*
D17*
X183886Y508000D01*
X192022Y499864D01*
X520700Y342900D02*
X533400Y342900D01*
X520700Y342900D02*
X425168Y438432D01*
X403887Y438432D01*
X342455Y499864D02*
X192022Y499864D01*
X342455Y499864D02*
X403887Y438432D01*
D16*
X533400Y342900D03*
X596900Y292100D03*
D17*
X571500Y292100D01*
D16*
X571500Y292100D03*
X342900Y304800D03*
D17*
X381000Y304800D01*
D16*
X381000Y304800D03*
X660400Y482600D03*
D17*
X660400Y292100D01*
D16*
X660400Y292100D03*
X584200Y266700D03*
D17*
X571500Y279400D01*
X558800Y279400D01*
D16*
X558800Y279400D03*
X152400Y469900D03*
D17*
X183464Y438836D01*
X183464Y433222D01*
X279678Y347436D02*
X283614Y343500D01*
X431200Y343500D02*
X431800Y342900D01*
X431200Y343500D02*
X283614Y343500D01*
X192550Y424136D02*
X183464Y433222D01*
X192550Y424136D02*
X202078Y424136D01*
X210364Y415850D01*
X210364Y406422D01*
X218750Y398036D01*
X230278Y398036D01*
X260364Y367950D01*
X260364Y356222D01*
X269150Y347436D01*
X279678Y347436D01*
D16*
X431800Y342900D03*
X635000Y342900D03*
D17*
X596900Y342900D01*
X590268Y336268D01*
X581687Y336268D01*
X520700Y275282D01*
X520700Y266700D01*
D16*
X520700Y266700D03*
X876300Y368300D03*
D17*
X889000Y355600D01*
X889000Y241300D01*
D16*
X889000Y241300D03*
X292100Y50800D03*
D17*
X292100Y165100D01*
D16*
X292100Y165100D03*
X317500Y406400D03*
D17*
X292100Y406400D01*
D16*
X292100Y406400D03*
X609600Y279400D03*
D17*
X609600Y317500D01*
X584200Y317500D01*
D16*
X584200Y317500D03*
X444500Y114300D03*
D17*
X431800Y127000D01*
X431800Y139700D01*
D16*
X431800Y139700D03*
X546100Y177800D03*
D17*
X546100Y215900D01*
X558800Y228600D01*
D16*
X558800Y228600D03*
M02*
