M48
;GenerationSoftware,Autodesk,EAGLE,9.6.2*%
;CreationDate,2022-11-17T00:12:20Z*%
FMAT,2
ICI,OFF
METRIC,TZ,000.000
T7C0.300
T6C0.900
T5C1.000
T4C1.100
T3C2.000
T2C3.100
T1C3.175
%
G90
M71
T1
X75640Y64000
X27380Y65270
X60400Y13200
T2
X8890Y34085
X8890Y9095
T3
X69510Y40910
X57150Y43180
X33020Y59690
X60960Y50800
T4
X22300Y46220
X19760Y43680
X22300Y43680
X19760Y41140
X22300Y41140
X19760Y38600
X22300Y38600
X19760Y36060
X22300Y36060
X19760Y33520
X22300Y33520
X19760Y30980
X22300Y30980
X19760Y28440
X22300Y28440
X19760Y25900
X22300Y25900
X19760Y23360
X22300Y23360
X19760Y20820
X22300Y20820
X19760Y18280
X22300Y18280
X19760Y15740
X22300Y15740
X27380Y38600
X75640Y37584
X75640Y40124
X75640Y42664
X75640Y45204
X75640Y47744
X75640Y50284
X75640Y52824
X75640Y55364
X75640Y57904
X75640Y20820
X75640Y23360
X75640Y25900
X75640Y28440
X75640Y30980
X75640Y33520
X75640Y15740
X75640Y18280
X80720Y61435
X83260Y61435
X80720Y58895
X83260Y58895
X80720Y56355
X83260Y56355
X80720Y53815
X83260Y53815
X80720Y51275
X83260Y51275
X80720Y48735
X83260Y48735
X80720Y46195
X83260Y46195
X80720Y43655
X83260Y43655
X83260Y41115
X80720Y38575
X83260Y38575
X80720Y36035
X83260Y36035
X80720Y33495
X83260Y33495
X80720Y30955
X83260Y30955
X80720Y28415
X83260Y28415
X80720Y25875
X83260Y25875
X80720Y23335
X83260Y23335
X80720Y20795
X83260Y20795
X80720Y18255
X83260Y18255
X80720Y15715
X83260Y15715
X80720Y41115
X27380Y28440
X27380Y25900
X27380Y23360
X27380Y20820
X27380Y18280
X27380Y15740
X27380Y51300
X27380Y48760
X27380Y46220
X27380Y43680
X27380Y41140
X75640Y60444
X27380Y36060
X27380Y33520
X19760Y61460
X22300Y61460
X19760Y58920
X22300Y58920
X19760Y56380
X22300Y56380
X19760Y53840
X22300Y53840
X19760Y51300
X22300Y51300
X19760Y48760
X22300Y48760
X19760Y46220
T5
X45860Y64370
X48360Y64370
T6
X8890Y50800
X7470Y16110
X7470Y18850
X7470Y21590
X7470Y27070
X7470Y24330
X10310Y17480
X10310Y20220
X10310Y22960
X10310Y25700
X8890Y48300
X8890Y45800
X8890Y53300
X8890Y55800
X92710Y35560
X92710Y40560
X92710Y38060
X92710Y30560
X92710Y33060
T7
X49530Y16510
X36561Y19319
X39370Y19061
X57150Y17780
X29210Y33020
X54610Y24130
X38100Y20320
X40640Y20320
X53340Y11430
X53340Y13970
X52070Y16510
X52070Y21872
X43180Y46990
X41910Y45720
X39370Y57150
X36830Y57150
X15240Y50800
X53340Y34290
X59690Y29210
X57150Y29210
X34290Y30480
X72390Y48260
X66040Y48260
X66040Y29210
X58420Y26670
X55880Y27940
X15240Y46990
X43180Y34290
X63500Y34290
X52070Y26670
X87630Y36830
X88900Y24130
X29210Y5080
X29210Y16510
X31750Y40640
X29210Y40640
X60960Y27940
X58420Y31750
X44450Y11430
X43180Y13970
X54610Y17780
X55880Y22860
X40640Y22860
X41910Y21590
X41910Y63500
X44450Y55880
X50800Y54610
X63500Y63500
X46990Y45720
X35560Y45720
X45720Y53340
X36830Y43180
X60960Y40640
X38100Y30480
X62230Y27940
X69850Y17780
X60960Y22860
X52070Y22860
X52070Y29210
X41910Y24130
X43180Y26670
X38100Y26670
X39370Y16510
X57150Y20320
M30