G04 EAGLE Gerber RS-274X export*
G75*
%MOMM*%
%FSLAX34Y34*%
%LPD*%
%INInner Copper Layer 1*%
%IPPOS*%
%AMOC8*
5,1,8,0,0,1.08239X$1,22.5*%
G01*
%ADD10C,1.408000*%
%ADD11C,3.608000*%
%ADD12C,1.508000*%
%ADD13C,1.608000*%
%ADD14C,2.508000*%
%ADD15C,0.706400*%


D10*
X74700Y161100D03*
X74700Y188500D03*
X74700Y215900D03*
X74700Y270700D03*
X74700Y243300D03*
X103100Y174800D03*
X103100Y202200D03*
X103100Y229600D03*
X103100Y257000D03*
D11*
X88900Y340850D03*
X88900Y90950D03*
D12*
X458600Y643700D03*
X483600Y643700D03*
D10*
X88900Y508000D03*
X88900Y483000D03*
X88900Y458000D03*
X88900Y533000D03*
X88900Y558000D03*
X927100Y355600D03*
X927100Y330600D03*
X927100Y305600D03*
X927100Y380600D03*
X927100Y405600D03*
D13*
X273800Y284400D03*
X273800Y259000D03*
X273800Y233600D03*
X273800Y208200D03*
X273800Y182800D03*
X273800Y157400D03*
X273800Y513000D03*
X273800Y487600D03*
X273800Y462200D03*
X273800Y436800D03*
X273800Y411400D03*
X273800Y386000D03*
X273800Y360600D03*
X273800Y335200D03*
X197600Y614600D03*
X223000Y614600D03*
X197600Y589200D03*
X223000Y589200D03*
X197600Y563800D03*
X223000Y563800D03*
X197600Y538400D03*
X223000Y538400D03*
X197600Y513000D03*
X223000Y513000D03*
X197600Y487600D03*
X223000Y487600D03*
X197600Y462200D03*
X223000Y462200D03*
X197600Y436800D03*
X223000Y436800D03*
X197600Y411400D03*
X223000Y411400D03*
X197600Y386000D03*
X223000Y386000D03*
X197600Y360600D03*
X223000Y360600D03*
X197600Y335200D03*
X223000Y335200D03*
X197600Y309800D03*
X223000Y309800D03*
X197600Y284400D03*
X223000Y284400D03*
X197600Y259000D03*
X223000Y259000D03*
X197600Y233600D03*
X223000Y233600D03*
X197600Y208200D03*
X223000Y208200D03*
X197600Y182800D03*
X223000Y182800D03*
X197600Y157400D03*
X223000Y157400D03*
X756400Y375840D03*
X756400Y401240D03*
X756400Y426640D03*
X756400Y452040D03*
X756400Y477440D03*
X756400Y502840D03*
X756400Y528240D03*
X756400Y553640D03*
X756400Y579040D03*
X756400Y604440D03*
X756400Y208200D03*
X756400Y233600D03*
X756400Y259000D03*
X756400Y284400D03*
X756400Y309800D03*
X756400Y335200D03*
X756400Y157400D03*
X756400Y182800D03*
X807200Y614350D03*
X832600Y614350D03*
X807200Y588950D03*
X832600Y588950D03*
X807200Y563550D03*
X832600Y563550D03*
X807200Y538150D03*
X832600Y538150D03*
X807200Y512750D03*
X832600Y512750D03*
X807200Y487350D03*
X832600Y487350D03*
X807200Y461950D03*
X832600Y461950D03*
X807200Y436550D03*
X832600Y436550D03*
X807200Y411150D03*
X832600Y411150D03*
X807200Y385750D03*
X832600Y385750D03*
X807200Y360350D03*
X832600Y360350D03*
X807200Y334950D03*
X832600Y334950D03*
X807200Y309550D03*
X832600Y309550D03*
X807200Y284150D03*
X832600Y284150D03*
X807200Y258750D03*
X832600Y258750D03*
X807200Y233350D03*
X832600Y233350D03*
X807200Y207950D03*
X832600Y207950D03*
X807200Y182550D03*
X832600Y182550D03*
X807200Y157150D03*
X832600Y157150D03*
D14*
X330200Y596900D03*
X571500Y431800D03*
X695100Y409100D03*
X609600Y508000D03*
D15*
X406400Y228600D03*
X419100Y215900D03*
X419100Y635000D03*
X444500Y558800D03*
X508000Y546100D03*
X635000Y635000D03*
X469900Y457200D03*
X355600Y457200D03*
X457200Y533400D03*
X368300Y431800D03*
X723900Y482600D03*
X609600Y406400D03*
X622300Y279400D03*
X698500Y177800D03*
X609600Y228600D03*
X520700Y228600D03*
X520700Y292100D03*
X419100Y241300D03*
X431800Y266700D03*
X381000Y266700D03*
X393700Y165100D03*
X495300Y165100D03*
X365609Y193191D03*
X393700Y190606D03*
X571500Y177800D03*
X571500Y203200D03*
X292100Y330200D03*
X546100Y241300D03*
X381000Y203200D03*
X406400Y203200D03*
X533400Y114300D03*
X533400Y139700D03*
X520700Y165100D03*
X520700Y218718D03*
X431800Y469900D03*
X419100Y457200D03*
X393700Y571500D03*
X368300Y571500D03*
X152400Y508000D03*
X533400Y342900D03*
X596900Y292100D03*
X571500Y292100D03*
X342900Y304800D03*
X381000Y304800D03*
X660400Y482600D03*
X660400Y292100D03*
X584200Y266700D03*
X558800Y279400D03*
X152400Y469900D03*
X431800Y342900D03*
X635000Y342900D03*
X520700Y266700D03*
X876300Y368300D03*
X889000Y241300D03*
X292100Y50800D03*
X292100Y165100D03*
X317500Y406400D03*
X292100Y406400D03*
X609600Y279400D03*
X584200Y317500D03*
X444500Y114300D03*
X431800Y139700D03*
X546100Y177800D03*
X558800Y228600D03*
M02*
