G04 EAGLE Gerber RS-274X export*
G75*
%MOMM*%
%FSLAX34Y34*%
%LPD*%
%INSolderpaste Top*%
%IPPOS*%
%AMOC8*
5,1,8,0,0,1.08239X$1,22.5*%
G01*
%ADD10R,1.500000X1.300000*%
%ADD11R,1.300000X1.500000*%
%ADD12C,1.079500*%
%ADD13C,0.850000*%
%ADD14C,0.500000*%
%ADD15C,0.150000*%
%ADD16C,0.210000*%
%ADD17C,0.400000*%
%ADD18C,0.225000*%
%ADD19C,0.255000*%
%ADD20C,0.304800*%


D10*
X381000Y219100D03*
X381000Y238100D03*
X520700Y504800D03*
X520700Y485800D03*
D11*
X663600Y177800D03*
X682600Y177800D03*
D10*
X330200Y219100D03*
X330200Y238100D03*
D11*
X358800Y165100D03*
X377800Y165100D03*
X479900Y155500D03*
X460900Y155500D03*
X574700Y228600D03*
X593700Y228600D03*
X542900Y546100D03*
X523900Y546100D03*
X479400Y558800D03*
X460400Y558800D03*
X403200Y508000D03*
X384200Y508000D03*
X384200Y635000D03*
X403200Y635000D03*
D12*
X555053Y629094D02*
X565849Y629094D01*
X555053Y629094D02*
X555053Y640906D01*
X565849Y640906D01*
X565849Y629094D01*
X565849Y639349D02*
X555053Y639349D01*
X602551Y629094D02*
X613347Y629094D01*
X602551Y629094D02*
X602551Y640906D01*
X613347Y640906D01*
X613347Y629094D01*
X613347Y639349D02*
X602551Y639349D01*
D13*
X595950Y588450D02*
X612450Y588450D01*
X612450Y579950D01*
X595950Y579950D01*
X595950Y588450D01*
X595950Y588025D02*
X612450Y588025D01*
X572450Y588450D02*
X555950Y588450D01*
X572450Y588450D02*
X572450Y579950D01*
X555950Y579950D01*
X555950Y588450D01*
X555950Y588025D02*
X572450Y588025D01*
X397950Y394650D02*
X397950Y378150D01*
X389450Y378150D01*
X389450Y394650D01*
X397950Y394650D01*
X397950Y386225D02*
X389450Y386225D01*
X389450Y394300D02*
X397950Y394300D01*
X397950Y418150D02*
X397950Y434650D01*
X397950Y418150D02*
X389450Y418150D01*
X389450Y434650D01*
X397950Y434650D01*
X397950Y426225D02*
X389450Y426225D01*
X389450Y434300D02*
X397950Y434300D01*
D14*
X704900Y463200D02*
X709900Y463200D01*
X704900Y463200D02*
X704900Y474200D01*
X709900Y474200D01*
X709900Y463200D01*
X709900Y467950D02*
X704900Y467950D01*
X704900Y472700D02*
X709900Y472700D01*
X689900Y463200D02*
X684900Y463200D01*
X684900Y474200D01*
X689900Y474200D01*
X689900Y463200D01*
X689900Y467950D02*
X684900Y467950D01*
X684900Y472700D02*
X689900Y472700D01*
D15*
X505250Y294350D02*
X505250Y289850D01*
X503750Y289850D01*
X503750Y294350D01*
X505250Y294350D01*
X505250Y291275D02*
X503750Y291275D01*
X503750Y292700D02*
X505250Y292700D01*
X505250Y294125D02*
X503750Y294125D01*
X512250Y294350D02*
X512250Y289850D01*
X510750Y289850D01*
X510750Y294350D01*
X512250Y294350D01*
X512250Y291275D02*
X510750Y291275D01*
X510750Y292700D02*
X512250Y292700D01*
X512250Y294125D02*
X510750Y294125D01*
D16*
X499850Y395350D02*
X439950Y395350D01*
X499850Y395350D02*
X499850Y376450D01*
X439950Y376450D01*
X439950Y395350D01*
X439950Y378445D02*
X499850Y378445D01*
X499850Y380440D02*
X439950Y380440D01*
X439950Y382435D02*
X499850Y382435D01*
X499850Y384430D02*
X439950Y384430D01*
X439950Y386425D02*
X499850Y386425D01*
X499850Y388420D02*
X439950Y388420D01*
X439950Y390415D02*
X499850Y390415D01*
X499850Y392410D02*
X439950Y392410D01*
X439950Y394405D02*
X499850Y394405D01*
X499850Y436350D02*
X439950Y436350D01*
X499850Y436350D02*
X499850Y417450D01*
X439950Y417450D01*
X439950Y436350D01*
X439950Y419445D02*
X499850Y419445D01*
X499850Y421440D02*
X439950Y421440D01*
X439950Y423435D02*
X499850Y423435D01*
X499850Y425430D02*
X439950Y425430D01*
X439950Y427425D02*
X499850Y427425D01*
X499850Y429420D02*
X439950Y429420D01*
X439950Y431415D02*
X499850Y431415D01*
X499850Y433410D02*
X439950Y433410D01*
X439950Y435405D02*
X499850Y435405D01*
D11*
X390500Y457200D03*
X371500Y457200D03*
X625500Y444500D03*
X644500Y444500D03*
X625500Y406400D03*
X644500Y406400D03*
X689000Y516900D03*
X708000Y516900D03*
X644500Y368300D03*
X625500Y368300D03*
X606400Y546100D03*
X587400Y546100D03*
X339700Y469900D03*
X320700Y469900D03*
X339700Y520700D03*
X320700Y520700D03*
X403200Y546100D03*
X384200Y546100D03*
X403200Y596900D03*
X384200Y596900D03*
X498500Y330200D03*
X517500Y330200D03*
X447700Y330200D03*
X466700Y330200D03*
X415900Y330200D03*
X396900Y330200D03*
X365100Y330200D03*
X346100Y330200D03*
D17*
X353600Y286900D02*
X357600Y286900D01*
X353600Y286900D02*
X353600Y291900D01*
X357600Y291900D01*
X357600Y286900D01*
X357600Y290700D02*
X353600Y290700D01*
X348100Y266900D02*
X344100Y266900D01*
X344100Y271900D01*
X348100Y271900D01*
X348100Y266900D01*
X348100Y270700D02*
X344100Y270700D01*
X363100Y271900D02*
X367100Y271900D01*
X367100Y266900D01*
X363100Y266900D01*
X363100Y271900D01*
X363100Y270700D02*
X367100Y270700D01*
X404400Y286900D02*
X408400Y286900D01*
X404400Y286900D02*
X404400Y291900D01*
X408400Y291900D01*
X408400Y286900D01*
X408400Y290700D02*
X404400Y290700D01*
X398900Y266900D02*
X394900Y266900D01*
X394900Y271900D01*
X398900Y271900D01*
X398900Y266900D01*
X398900Y270700D02*
X394900Y270700D01*
X413900Y271900D02*
X417900Y271900D01*
X417900Y266900D01*
X413900Y266900D01*
X413900Y271900D01*
X413900Y270700D02*
X417900Y270700D01*
D18*
X434525Y237525D02*
X447275Y237525D01*
X434525Y237525D02*
X434525Y239775D01*
X447275Y239775D01*
X447275Y237525D01*
X447275Y239662D02*
X434525Y239662D01*
X434525Y231025D02*
X447275Y231025D01*
X434525Y231025D02*
X434525Y233275D01*
X447275Y233275D01*
X447275Y231025D01*
X447275Y233162D02*
X434525Y233162D01*
X434525Y224525D02*
X447275Y224525D01*
X434525Y224525D02*
X434525Y226775D01*
X447275Y226775D01*
X447275Y224525D01*
X447275Y226662D02*
X434525Y226662D01*
X434525Y218025D02*
X447275Y218025D01*
X434525Y218025D02*
X434525Y220275D01*
X447275Y220275D01*
X447275Y218025D01*
X447275Y220162D02*
X434525Y220162D01*
X434525Y211525D02*
X447275Y211525D01*
X434525Y211525D02*
X434525Y213775D01*
X447275Y213775D01*
X447275Y211525D01*
X447275Y213662D02*
X434525Y213662D01*
X434525Y205025D02*
X447275Y205025D01*
X434525Y205025D02*
X434525Y207275D01*
X447275Y207275D01*
X447275Y205025D01*
X447275Y207162D02*
X434525Y207162D01*
X434525Y198525D02*
X447275Y198525D01*
X434525Y198525D02*
X434525Y200775D01*
X447275Y200775D01*
X447275Y198525D01*
X447275Y200662D02*
X434525Y200662D01*
X434525Y192025D02*
X447275Y192025D01*
X434525Y192025D02*
X434525Y194275D01*
X447275Y194275D01*
X447275Y192025D01*
X447275Y194162D02*
X434525Y194162D01*
X492525Y194275D02*
X505275Y194275D01*
X505275Y192025D01*
X492525Y192025D01*
X492525Y194275D01*
X492525Y194162D02*
X505275Y194162D01*
X505275Y200775D02*
X492525Y200775D01*
X505275Y200775D02*
X505275Y198525D01*
X492525Y198525D01*
X492525Y200775D01*
X492525Y200662D02*
X505275Y200662D01*
X505275Y207275D02*
X492525Y207275D01*
X505275Y207275D02*
X505275Y205025D01*
X492525Y205025D01*
X492525Y207275D01*
X492525Y207162D02*
X505275Y207162D01*
X505275Y213775D02*
X492525Y213775D01*
X505275Y213775D02*
X505275Y211525D01*
X492525Y211525D01*
X492525Y213775D01*
X492525Y213662D02*
X505275Y213662D01*
X505275Y220275D02*
X492525Y220275D01*
X505275Y220275D02*
X505275Y218025D01*
X492525Y218025D01*
X492525Y220275D01*
X492525Y220162D02*
X505275Y220162D01*
X505275Y226775D02*
X492525Y226775D01*
X505275Y226775D02*
X505275Y224525D01*
X492525Y224525D01*
X492525Y226775D01*
X492525Y226662D02*
X505275Y226662D01*
X505275Y233275D02*
X492525Y233275D01*
X505275Y233275D02*
X505275Y231025D01*
X492525Y231025D01*
X492525Y233275D01*
X492525Y233162D02*
X505275Y233162D01*
X505275Y239775D02*
X492525Y239775D01*
X505275Y239775D02*
X505275Y237525D01*
X492525Y237525D01*
X492525Y239775D01*
X492525Y239662D02*
X505275Y239662D01*
D19*
X487675Y519575D02*
X487675Y525025D01*
X490225Y525025D01*
X490225Y519575D01*
X487675Y519575D01*
X487675Y521997D02*
X490225Y521997D01*
X490225Y524419D02*
X487675Y524419D01*
X474975Y525025D02*
X474975Y519575D01*
X474975Y525025D02*
X477525Y525025D01*
X477525Y519575D01*
X474975Y519575D01*
X474975Y521997D02*
X477525Y521997D01*
X477525Y524419D02*
X474975Y524419D01*
X462275Y525025D02*
X462275Y519575D01*
X462275Y525025D02*
X464825Y525025D01*
X464825Y519575D01*
X462275Y519575D01*
X462275Y521997D02*
X464825Y521997D01*
X464825Y524419D02*
X462275Y524419D01*
X449575Y525025D02*
X449575Y519575D01*
X449575Y525025D02*
X452125Y525025D01*
X452125Y519575D01*
X449575Y519575D01*
X449575Y521997D02*
X452125Y521997D01*
X452125Y524419D02*
X449575Y524419D01*
X452125Y471025D02*
X452125Y465575D01*
X449575Y465575D01*
X449575Y471025D01*
X452125Y471025D01*
X452125Y467997D02*
X449575Y467997D01*
X449575Y470419D02*
X452125Y470419D01*
X464825Y471025D02*
X464825Y465575D01*
X462275Y465575D01*
X462275Y471025D01*
X464825Y471025D01*
X464825Y467997D02*
X462275Y467997D01*
X462275Y470419D02*
X464825Y470419D01*
X477525Y471025D02*
X477525Y465575D01*
X474975Y465575D01*
X474975Y471025D01*
X477525Y471025D01*
X477525Y467997D02*
X474975Y467997D01*
X474975Y470419D02*
X477525Y470419D01*
X490225Y471025D02*
X490225Y465575D01*
X487675Y465575D01*
X487675Y471025D01*
X490225Y471025D01*
X490225Y467997D02*
X487675Y467997D01*
X487675Y470419D02*
X490225Y470419D01*
D20*
X639826Y271526D02*
X652272Y271526D01*
X639826Y271526D02*
X639826Y274574D01*
X652272Y274574D01*
X652272Y271526D01*
X652272Y274422D02*
X639826Y274422D01*
X639826Y258826D02*
X652272Y258826D01*
X639826Y258826D02*
X639826Y261874D01*
X652272Y261874D01*
X652272Y258826D01*
X652272Y261722D02*
X639826Y261722D01*
X639826Y246126D02*
X652272Y246126D01*
X639826Y246126D02*
X639826Y249174D01*
X652272Y249174D01*
X652272Y246126D01*
X652272Y249022D02*
X639826Y249022D01*
X639826Y233426D02*
X652272Y233426D01*
X639826Y233426D02*
X639826Y236474D01*
X652272Y236474D01*
X652272Y233426D01*
X652272Y236322D02*
X639826Y236322D01*
X693928Y271526D02*
X706374Y271526D01*
X693928Y271526D02*
X693928Y274574D01*
X706374Y274574D01*
X706374Y271526D01*
X706374Y274422D02*
X693928Y274422D01*
X693928Y258826D02*
X706374Y258826D01*
X693928Y258826D02*
X693928Y261874D01*
X706374Y261874D01*
X706374Y258826D01*
X706374Y261722D02*
X693928Y261722D01*
X693928Y246126D02*
X706374Y246126D01*
X693928Y246126D02*
X693928Y249174D01*
X706374Y249174D01*
X706374Y246126D01*
X706374Y249022D02*
X693928Y249022D01*
X693928Y233426D02*
X706374Y233426D01*
X693928Y233426D02*
X693928Y236474D01*
X706374Y236474D01*
X706374Y233426D01*
X706374Y236322D02*
X693928Y236322D01*
M02*
