G04 EAGLE Gerber RS-274X export*
G75*
%MOMM*%
%FSLAX34Y34*%
%LPD*%
%INSoldermask Bottom*%
%IPPOS*%
%AMOC8*
5,1,8,0,0,1.08239X$1,22.5*%
G01*
%ADD10P,1.869504X8X292.500000*%
%ADD11R,2.053200X2.053200*%
%ADD12C,2.053200*%
%ADD13C,3.378200*%
%ADD14C,1.711200*%


D10*
X505460Y129540D03*
X530860Y129540D03*
X505460Y104140D03*
X530860Y104140D03*
X505460Y78740D03*
X530860Y78740D03*
X505460Y53340D03*
X530860Y53340D03*
D11*
X111240Y180260D03*
D12*
X111240Y154860D03*
X111240Y129460D03*
X111240Y104060D03*
X111240Y78660D03*
X111240Y53260D03*
D11*
X111240Y408860D03*
D12*
X111240Y383460D03*
X111240Y358060D03*
X111240Y332660D03*
X111240Y307260D03*
X111240Y281860D03*
X111240Y256460D03*
X111240Y231060D03*
D11*
X35040Y510460D03*
D12*
X60440Y510460D03*
X35040Y485060D03*
X60440Y485060D03*
X35040Y459660D03*
X60440Y459660D03*
X35040Y434260D03*
X60440Y434260D03*
X35040Y408860D03*
X60440Y408860D03*
X35040Y383460D03*
X60440Y383460D03*
X35040Y358060D03*
X60440Y358060D03*
X35040Y332660D03*
X60440Y332660D03*
X35040Y307260D03*
X60440Y307260D03*
X35040Y281860D03*
X60440Y281860D03*
X35040Y256460D03*
X60440Y256460D03*
X35040Y231060D03*
X60440Y231060D03*
X35040Y205660D03*
X60440Y205660D03*
X35040Y180260D03*
X60440Y180260D03*
X35040Y154860D03*
X60440Y154860D03*
X35040Y129460D03*
X60440Y129460D03*
X35040Y104060D03*
X60440Y104060D03*
X35040Y78660D03*
X60440Y78660D03*
X35040Y53260D03*
X60440Y53260D03*
D11*
X593840Y271700D03*
D12*
X593840Y297100D03*
X593840Y322500D03*
X593840Y347900D03*
X593840Y373300D03*
X593840Y398700D03*
X593840Y424100D03*
X593840Y449500D03*
X593840Y474900D03*
X593840Y500300D03*
X593840Y104060D03*
X593840Y129460D03*
X593840Y154860D03*
X593840Y180260D03*
X593840Y205660D03*
X593840Y231060D03*
D11*
X593840Y53260D03*
D12*
X593840Y78660D03*
D11*
X644640Y510210D03*
D12*
X670040Y510210D03*
X644640Y484810D03*
X670040Y484810D03*
X644640Y459410D03*
X670040Y459410D03*
X644640Y434010D03*
X670040Y434010D03*
X644640Y408610D03*
X670040Y408610D03*
X644640Y383210D03*
X670040Y383210D03*
X644640Y357810D03*
X670040Y357810D03*
X644640Y332410D03*
X670040Y332410D03*
X644640Y307010D03*
X670040Y307010D03*
X644640Y281610D03*
X670040Y281610D03*
X644640Y256210D03*
X670040Y256210D03*
X644640Y230810D03*
X670040Y230810D03*
X644640Y205410D03*
X670040Y205410D03*
X644640Y180010D03*
X670040Y180010D03*
X644640Y154610D03*
X670040Y154610D03*
X644640Y129210D03*
X670040Y129210D03*
X644640Y103810D03*
X670040Y103810D03*
X644640Y78410D03*
X670040Y78410D03*
X644640Y53010D03*
X670040Y53010D03*
D13*
X593840Y535860D03*
X111240Y548560D03*
X441440Y27860D03*
D14*
X304600Y61000D03*
X203000Y61000D03*
X253800Y61000D03*
M02*
