G04 EAGLE Gerber RS-274X export*
G75*
%MOMM*%
%FSLAX34Y34*%
%LPD*%
%INSilkscreen Top*%
%IPPOS*%
%AMOC8*
5,1,8,0,0,1.08239X$1,22.5*%
G01*
%ADD10C,0.076200*%
%ADD11C,0.101600*%
%ADD12C,0.152400*%
%ADD13C,0.127000*%


D10*
X214630Y459740D02*
X181610Y459740D01*
X181610Y474980D02*
X214630Y474980D01*
D11*
X150481Y465328D02*
X147884Y465328D01*
X147785Y465330D01*
X147685Y465336D01*
X147586Y465345D01*
X147488Y465358D01*
X147390Y465375D01*
X147292Y465396D01*
X147196Y465421D01*
X147101Y465449D01*
X147007Y465481D01*
X146914Y465516D01*
X146822Y465555D01*
X146732Y465598D01*
X146644Y465643D01*
X146557Y465693D01*
X146473Y465745D01*
X146390Y465801D01*
X146310Y465859D01*
X146232Y465921D01*
X146157Y465986D01*
X146084Y466054D01*
X146014Y466124D01*
X145946Y466197D01*
X145881Y466272D01*
X145819Y466350D01*
X145761Y466430D01*
X145705Y466513D01*
X145653Y466597D01*
X145603Y466684D01*
X145558Y466772D01*
X145515Y466862D01*
X145476Y466954D01*
X145441Y467047D01*
X145409Y467141D01*
X145381Y467236D01*
X145356Y467332D01*
X145335Y467430D01*
X145318Y467528D01*
X145305Y467626D01*
X145296Y467725D01*
X145290Y467825D01*
X145288Y467924D01*
X145288Y474416D01*
X145290Y474515D01*
X145296Y474615D01*
X145305Y474714D01*
X145318Y474812D01*
X145335Y474910D01*
X145356Y475008D01*
X145381Y475104D01*
X145409Y475199D01*
X145441Y475293D01*
X145476Y475386D01*
X145515Y475478D01*
X145558Y475568D01*
X145603Y475656D01*
X145653Y475743D01*
X145705Y475827D01*
X145761Y475910D01*
X145819Y475990D01*
X145881Y476068D01*
X145946Y476143D01*
X146014Y476216D01*
X146084Y476286D01*
X146157Y476354D01*
X146232Y476419D01*
X146310Y476481D01*
X146390Y476539D01*
X146473Y476595D01*
X146557Y476647D01*
X146644Y476697D01*
X146732Y476742D01*
X146822Y476785D01*
X146914Y476824D01*
X147006Y476859D01*
X147101Y476891D01*
X147196Y476919D01*
X147292Y476944D01*
X147390Y476965D01*
X147488Y476982D01*
X147586Y476995D01*
X147685Y477004D01*
X147785Y477010D01*
X147884Y477012D01*
X150481Y477012D01*
X154846Y474416D02*
X158092Y477012D01*
X158092Y465328D01*
X161337Y465328D02*
X154846Y465328D01*
D10*
X181610Y492760D02*
X214630Y492760D01*
X214630Y508000D02*
X181610Y508000D01*
D11*
X150481Y495808D02*
X147884Y495808D01*
X147785Y495810D01*
X147685Y495816D01*
X147586Y495825D01*
X147488Y495838D01*
X147390Y495855D01*
X147292Y495876D01*
X147196Y495901D01*
X147101Y495929D01*
X147007Y495961D01*
X146914Y495996D01*
X146822Y496035D01*
X146732Y496078D01*
X146644Y496123D01*
X146557Y496173D01*
X146473Y496225D01*
X146390Y496281D01*
X146310Y496339D01*
X146232Y496401D01*
X146157Y496466D01*
X146084Y496534D01*
X146014Y496604D01*
X145946Y496677D01*
X145881Y496752D01*
X145819Y496830D01*
X145761Y496910D01*
X145705Y496993D01*
X145653Y497077D01*
X145603Y497164D01*
X145558Y497252D01*
X145515Y497342D01*
X145476Y497434D01*
X145441Y497527D01*
X145409Y497621D01*
X145381Y497716D01*
X145356Y497812D01*
X145335Y497910D01*
X145318Y498008D01*
X145305Y498106D01*
X145296Y498205D01*
X145290Y498305D01*
X145288Y498404D01*
X145288Y504896D01*
X145290Y504995D01*
X145296Y505095D01*
X145305Y505194D01*
X145318Y505292D01*
X145335Y505390D01*
X145356Y505488D01*
X145381Y505584D01*
X145409Y505679D01*
X145441Y505773D01*
X145476Y505866D01*
X145515Y505958D01*
X145558Y506048D01*
X145603Y506136D01*
X145653Y506223D01*
X145705Y506307D01*
X145761Y506390D01*
X145819Y506470D01*
X145881Y506548D01*
X145946Y506623D01*
X146014Y506696D01*
X146084Y506766D01*
X146157Y506834D01*
X146232Y506899D01*
X146310Y506961D01*
X146390Y507019D01*
X146473Y507075D01*
X146557Y507127D01*
X146644Y507177D01*
X146732Y507222D01*
X146822Y507265D01*
X146914Y507304D01*
X147006Y507339D01*
X147101Y507371D01*
X147196Y507399D01*
X147292Y507424D01*
X147390Y507445D01*
X147488Y507462D01*
X147586Y507475D01*
X147685Y507484D01*
X147785Y507490D01*
X147884Y507492D01*
X150481Y507492D01*
X158416Y507492D02*
X158523Y507490D01*
X158629Y507484D01*
X158735Y507474D01*
X158841Y507461D01*
X158947Y507443D01*
X159051Y507422D01*
X159155Y507397D01*
X159258Y507368D01*
X159359Y507336D01*
X159459Y507299D01*
X159558Y507259D01*
X159656Y507216D01*
X159752Y507169D01*
X159846Y507118D01*
X159938Y507064D01*
X160028Y507007D01*
X160116Y506947D01*
X160201Y506883D01*
X160284Y506816D01*
X160365Y506746D01*
X160443Y506674D01*
X160519Y506598D01*
X160591Y506520D01*
X160661Y506439D01*
X160728Y506356D01*
X160792Y506271D01*
X160852Y506183D01*
X160909Y506093D01*
X160963Y506001D01*
X161014Y505907D01*
X161061Y505811D01*
X161104Y505713D01*
X161144Y505614D01*
X161181Y505514D01*
X161213Y505413D01*
X161242Y505310D01*
X161267Y505206D01*
X161288Y505102D01*
X161306Y504996D01*
X161319Y504890D01*
X161329Y504784D01*
X161335Y504678D01*
X161337Y504571D01*
X158416Y507492D02*
X158295Y507490D01*
X158174Y507484D01*
X158054Y507474D01*
X157933Y507461D01*
X157814Y507443D01*
X157694Y507422D01*
X157576Y507397D01*
X157459Y507368D01*
X157342Y507335D01*
X157227Y507299D01*
X157113Y507258D01*
X157000Y507215D01*
X156888Y507167D01*
X156779Y507116D01*
X156671Y507061D01*
X156564Y507003D01*
X156460Y506942D01*
X156358Y506877D01*
X156258Y506809D01*
X156160Y506738D01*
X156064Y506664D01*
X155971Y506587D01*
X155881Y506506D01*
X155793Y506423D01*
X155708Y506337D01*
X155625Y506248D01*
X155546Y506157D01*
X155469Y506063D01*
X155396Y505967D01*
X155326Y505869D01*
X155259Y505768D01*
X155195Y505665D01*
X155135Y505560D01*
X155078Y505453D01*
X155024Y505345D01*
X154974Y505235D01*
X154928Y505123D01*
X154885Y505010D01*
X154846Y504895D01*
X160364Y502299D02*
X160443Y502376D01*
X160519Y502457D01*
X160592Y502540D01*
X160662Y502625D01*
X160729Y502713D01*
X160793Y502803D01*
X160853Y502895D01*
X160910Y502990D01*
X160964Y503086D01*
X161015Y503184D01*
X161062Y503284D01*
X161106Y503386D01*
X161146Y503489D01*
X161182Y503593D01*
X161214Y503699D01*
X161243Y503805D01*
X161268Y503913D01*
X161290Y504021D01*
X161307Y504131D01*
X161321Y504240D01*
X161330Y504350D01*
X161336Y504461D01*
X161338Y504571D01*
X160364Y502299D02*
X154846Y495808D01*
X161337Y495808D01*
D10*
X166370Y375920D02*
X199390Y375920D01*
X199390Y391160D02*
X166370Y391160D01*
D11*
X135241Y378968D02*
X132644Y378968D01*
X132545Y378970D01*
X132445Y378976D01*
X132346Y378985D01*
X132248Y378998D01*
X132150Y379015D01*
X132052Y379036D01*
X131956Y379061D01*
X131861Y379089D01*
X131767Y379121D01*
X131674Y379156D01*
X131582Y379195D01*
X131492Y379238D01*
X131404Y379283D01*
X131317Y379333D01*
X131233Y379385D01*
X131150Y379441D01*
X131070Y379499D01*
X130992Y379561D01*
X130917Y379626D01*
X130844Y379694D01*
X130774Y379764D01*
X130706Y379837D01*
X130641Y379912D01*
X130579Y379990D01*
X130521Y380070D01*
X130465Y380153D01*
X130413Y380237D01*
X130363Y380324D01*
X130318Y380412D01*
X130275Y380502D01*
X130236Y380594D01*
X130201Y380687D01*
X130169Y380781D01*
X130141Y380876D01*
X130116Y380972D01*
X130095Y381070D01*
X130078Y381168D01*
X130065Y381266D01*
X130056Y381365D01*
X130050Y381465D01*
X130048Y381564D01*
X130048Y388056D01*
X130050Y388155D01*
X130056Y388255D01*
X130065Y388354D01*
X130078Y388452D01*
X130095Y388550D01*
X130116Y388648D01*
X130141Y388744D01*
X130169Y388839D01*
X130201Y388933D01*
X130236Y389026D01*
X130275Y389118D01*
X130318Y389208D01*
X130363Y389296D01*
X130413Y389383D01*
X130465Y389467D01*
X130521Y389550D01*
X130579Y389630D01*
X130641Y389708D01*
X130706Y389783D01*
X130774Y389856D01*
X130844Y389926D01*
X130917Y389994D01*
X130992Y390059D01*
X131070Y390121D01*
X131150Y390179D01*
X131233Y390235D01*
X131317Y390287D01*
X131404Y390337D01*
X131492Y390382D01*
X131582Y390425D01*
X131674Y390464D01*
X131766Y390499D01*
X131861Y390531D01*
X131956Y390559D01*
X132052Y390584D01*
X132150Y390605D01*
X132248Y390622D01*
X132346Y390635D01*
X132445Y390644D01*
X132545Y390650D01*
X132644Y390652D01*
X135241Y390652D01*
X139606Y378968D02*
X142852Y378968D01*
X142965Y378970D01*
X143078Y378976D01*
X143191Y378986D01*
X143304Y379000D01*
X143416Y379017D01*
X143527Y379039D01*
X143637Y379064D01*
X143747Y379094D01*
X143855Y379127D01*
X143962Y379164D01*
X144068Y379204D01*
X144172Y379249D01*
X144275Y379297D01*
X144376Y379348D01*
X144475Y379403D01*
X144572Y379461D01*
X144667Y379523D01*
X144760Y379588D01*
X144850Y379656D01*
X144938Y379727D01*
X145024Y379802D01*
X145107Y379879D01*
X145187Y379959D01*
X145264Y380042D01*
X145339Y380128D01*
X145410Y380216D01*
X145478Y380306D01*
X145543Y380399D01*
X145605Y380494D01*
X145663Y380591D01*
X145718Y380690D01*
X145769Y380791D01*
X145817Y380894D01*
X145862Y380998D01*
X145902Y381104D01*
X145939Y381211D01*
X145972Y381319D01*
X146002Y381429D01*
X146027Y381539D01*
X146049Y381650D01*
X146066Y381762D01*
X146080Y381875D01*
X146090Y381988D01*
X146096Y382101D01*
X146098Y382214D01*
X146096Y382327D01*
X146090Y382440D01*
X146080Y382553D01*
X146066Y382666D01*
X146049Y382778D01*
X146027Y382889D01*
X146002Y382999D01*
X145972Y383109D01*
X145939Y383217D01*
X145902Y383324D01*
X145862Y383430D01*
X145817Y383534D01*
X145769Y383637D01*
X145718Y383738D01*
X145663Y383837D01*
X145605Y383934D01*
X145543Y384029D01*
X145478Y384122D01*
X145410Y384212D01*
X145339Y384300D01*
X145264Y384386D01*
X145187Y384469D01*
X145107Y384549D01*
X145024Y384626D01*
X144938Y384701D01*
X144850Y384772D01*
X144760Y384840D01*
X144667Y384905D01*
X144572Y384967D01*
X144475Y385025D01*
X144376Y385080D01*
X144275Y385131D01*
X144172Y385179D01*
X144068Y385224D01*
X143962Y385264D01*
X143855Y385301D01*
X143747Y385334D01*
X143637Y385364D01*
X143527Y385389D01*
X143416Y385411D01*
X143304Y385428D01*
X143191Y385442D01*
X143078Y385452D01*
X142965Y385458D01*
X142852Y385460D01*
X143501Y390652D02*
X139606Y390652D01*
X143501Y390652D02*
X143602Y390650D01*
X143702Y390644D01*
X143802Y390634D01*
X143902Y390621D01*
X144001Y390603D01*
X144100Y390582D01*
X144197Y390557D01*
X144294Y390528D01*
X144389Y390495D01*
X144483Y390459D01*
X144575Y390419D01*
X144666Y390376D01*
X144755Y390329D01*
X144842Y390279D01*
X144928Y390225D01*
X145011Y390168D01*
X145091Y390108D01*
X145170Y390045D01*
X145246Y389978D01*
X145319Y389909D01*
X145389Y389837D01*
X145457Y389763D01*
X145522Y389686D01*
X145583Y389606D01*
X145642Y389524D01*
X145697Y389440D01*
X145749Y389354D01*
X145798Y389266D01*
X145843Y389176D01*
X145885Y389084D01*
X145923Y388991D01*
X145957Y388896D01*
X145988Y388801D01*
X146015Y388704D01*
X146038Y388606D01*
X146058Y388507D01*
X146073Y388407D01*
X146085Y388307D01*
X146093Y388207D01*
X146097Y388106D01*
X146097Y388006D01*
X146093Y387905D01*
X146085Y387805D01*
X146073Y387705D01*
X146058Y387605D01*
X146038Y387506D01*
X146015Y387408D01*
X145988Y387311D01*
X145957Y387216D01*
X145923Y387121D01*
X145885Y387028D01*
X145843Y386936D01*
X145798Y386846D01*
X145749Y386758D01*
X145697Y386672D01*
X145642Y386588D01*
X145583Y386506D01*
X145522Y386426D01*
X145457Y386349D01*
X145389Y386275D01*
X145319Y386203D01*
X145246Y386134D01*
X145170Y386067D01*
X145091Y386004D01*
X145011Y385944D01*
X144928Y385887D01*
X144842Y385833D01*
X144755Y385783D01*
X144666Y385736D01*
X144575Y385693D01*
X144483Y385653D01*
X144389Y385617D01*
X144294Y385584D01*
X144197Y385555D01*
X144100Y385530D01*
X144001Y385509D01*
X143902Y385491D01*
X143802Y385478D01*
X143702Y385468D01*
X143602Y385462D01*
X143501Y385460D01*
X143501Y385459D02*
X140904Y385459D01*
D10*
X247650Y170180D02*
X280670Y170180D01*
X280670Y154940D02*
X247650Y154940D01*
D11*
X221601Y157988D02*
X219004Y157988D01*
X218905Y157990D01*
X218805Y157996D01*
X218706Y158005D01*
X218608Y158018D01*
X218510Y158035D01*
X218412Y158056D01*
X218316Y158081D01*
X218221Y158109D01*
X218127Y158141D01*
X218034Y158176D01*
X217942Y158215D01*
X217852Y158258D01*
X217764Y158303D01*
X217677Y158353D01*
X217593Y158405D01*
X217510Y158461D01*
X217430Y158519D01*
X217352Y158581D01*
X217277Y158646D01*
X217204Y158714D01*
X217134Y158784D01*
X217066Y158857D01*
X217001Y158932D01*
X216939Y159010D01*
X216881Y159090D01*
X216825Y159173D01*
X216773Y159257D01*
X216723Y159344D01*
X216678Y159432D01*
X216635Y159522D01*
X216596Y159614D01*
X216561Y159707D01*
X216529Y159801D01*
X216501Y159896D01*
X216476Y159992D01*
X216455Y160090D01*
X216438Y160188D01*
X216425Y160286D01*
X216416Y160385D01*
X216410Y160485D01*
X216408Y160584D01*
X216408Y167076D01*
X216410Y167175D01*
X216416Y167275D01*
X216425Y167374D01*
X216438Y167472D01*
X216455Y167570D01*
X216476Y167668D01*
X216501Y167764D01*
X216529Y167859D01*
X216561Y167953D01*
X216596Y168046D01*
X216635Y168138D01*
X216678Y168228D01*
X216723Y168316D01*
X216773Y168403D01*
X216825Y168487D01*
X216881Y168570D01*
X216939Y168650D01*
X217001Y168728D01*
X217066Y168803D01*
X217134Y168876D01*
X217204Y168946D01*
X217277Y169014D01*
X217352Y169079D01*
X217430Y169141D01*
X217510Y169199D01*
X217593Y169255D01*
X217677Y169307D01*
X217764Y169357D01*
X217852Y169402D01*
X217942Y169445D01*
X218034Y169484D01*
X218126Y169519D01*
X218221Y169551D01*
X218316Y169579D01*
X218412Y169604D01*
X218510Y169625D01*
X218608Y169642D01*
X218706Y169655D01*
X218805Y169664D01*
X218905Y169670D01*
X219004Y169672D01*
X221601Y169672D01*
X228563Y169672D02*
X225966Y160584D01*
X232457Y160584D01*
X230510Y163181D02*
X230510Y157988D01*
D12*
X492760Y135890D02*
X499110Y142240D01*
X492760Y123190D02*
X499110Y116840D01*
X492760Y110490D01*
X492760Y97790D02*
X499110Y91440D01*
X492760Y85090D01*
X492760Y72390D02*
X499110Y66040D01*
X499110Y142240D02*
X537210Y142240D01*
X543560Y135890D01*
X543560Y123190D01*
X537210Y116840D01*
X543560Y110490D01*
X543560Y97790D01*
X537210Y91440D01*
X543560Y85090D01*
X543560Y72390D01*
X537210Y66040D01*
X537210Y116840D02*
X499110Y116840D01*
X499110Y91440D02*
X537210Y91440D01*
X537210Y66040D02*
X499110Y66040D01*
X492760Y72390D02*
X492760Y85090D01*
X492760Y97790D02*
X492760Y110490D01*
X492760Y123190D02*
X492760Y135890D01*
X499110Y66040D02*
X492760Y59690D01*
X492760Y46990D02*
X499110Y40640D01*
X537210Y66040D02*
X543560Y59690D01*
X543560Y46990D01*
X537210Y40640D01*
X499110Y40640D01*
X492760Y46990D02*
X492760Y59690D01*
D13*
X553085Y137795D02*
X561975Y137795D01*
X553085Y137795D02*
X552985Y137797D01*
X552886Y137803D01*
X552786Y137813D01*
X552688Y137826D01*
X552589Y137844D01*
X552492Y137865D01*
X552396Y137890D01*
X552300Y137919D01*
X552206Y137952D01*
X552113Y137988D01*
X552022Y138028D01*
X551932Y138072D01*
X551844Y138119D01*
X551758Y138169D01*
X551674Y138223D01*
X551592Y138280D01*
X551513Y138340D01*
X551435Y138404D01*
X551361Y138470D01*
X551289Y138539D01*
X551220Y138611D01*
X551154Y138685D01*
X551090Y138763D01*
X551030Y138842D01*
X550973Y138924D01*
X550919Y139008D01*
X550869Y139094D01*
X550822Y139182D01*
X550778Y139272D01*
X550738Y139363D01*
X550702Y139456D01*
X550669Y139550D01*
X550640Y139646D01*
X550615Y139742D01*
X550594Y139839D01*
X550576Y139938D01*
X550563Y140036D01*
X550553Y140136D01*
X550547Y140235D01*
X550545Y140335D01*
X550545Y141605D01*
X550545Y131815D02*
X561975Y131815D01*
X561975Y128640D01*
X561973Y128529D01*
X561967Y128419D01*
X561958Y128308D01*
X561944Y128198D01*
X561927Y128089D01*
X561906Y127980D01*
X561881Y127872D01*
X561852Y127765D01*
X561820Y127659D01*
X561784Y127554D01*
X561744Y127451D01*
X561701Y127349D01*
X561654Y127248D01*
X561603Y127149D01*
X561550Y127052D01*
X561493Y126958D01*
X561432Y126865D01*
X561369Y126774D01*
X561302Y126685D01*
X561232Y126599D01*
X561159Y126516D01*
X561084Y126434D01*
X561006Y126356D01*
X560924Y126281D01*
X560841Y126208D01*
X560755Y126138D01*
X560666Y126071D01*
X560575Y126008D01*
X560482Y125947D01*
X560388Y125890D01*
X560291Y125837D01*
X560192Y125786D01*
X560091Y125739D01*
X559989Y125696D01*
X559886Y125656D01*
X559781Y125620D01*
X559675Y125588D01*
X559568Y125559D01*
X559460Y125534D01*
X559351Y125513D01*
X559242Y125496D01*
X559132Y125482D01*
X559021Y125473D01*
X558911Y125467D01*
X558800Y125465D01*
X558689Y125467D01*
X558579Y125473D01*
X558468Y125482D01*
X558358Y125496D01*
X558249Y125513D01*
X558140Y125534D01*
X558032Y125559D01*
X557925Y125588D01*
X557819Y125620D01*
X557714Y125656D01*
X557611Y125696D01*
X557509Y125739D01*
X557408Y125786D01*
X557309Y125837D01*
X557213Y125890D01*
X557118Y125947D01*
X557025Y126008D01*
X556934Y126071D01*
X556845Y126138D01*
X556759Y126208D01*
X556676Y126281D01*
X556594Y126356D01*
X556516Y126434D01*
X556441Y126516D01*
X556368Y126599D01*
X556298Y126685D01*
X556231Y126774D01*
X556168Y126865D01*
X556107Y126958D01*
X556050Y127053D01*
X555997Y127149D01*
X555946Y127248D01*
X555899Y127349D01*
X555856Y127451D01*
X555816Y127554D01*
X555780Y127659D01*
X555748Y127765D01*
X555719Y127872D01*
X555694Y127980D01*
X555673Y128089D01*
X555656Y128198D01*
X555642Y128308D01*
X555633Y128419D01*
X555627Y128529D01*
X555625Y128640D01*
X555625Y131815D01*
X561976Y117464D02*
X561974Y117360D01*
X561968Y117255D01*
X561959Y117151D01*
X561946Y117048D01*
X561928Y116945D01*
X561908Y116843D01*
X561883Y116741D01*
X561855Y116641D01*
X561823Y116541D01*
X561787Y116443D01*
X561748Y116346D01*
X561706Y116251D01*
X561660Y116157D01*
X561610Y116065D01*
X561558Y115975D01*
X561502Y115887D01*
X561442Y115801D01*
X561380Y115717D01*
X561315Y115636D01*
X561247Y115557D01*
X561175Y115480D01*
X561102Y115407D01*
X561025Y115335D01*
X560946Y115267D01*
X560865Y115202D01*
X560781Y115140D01*
X560695Y115080D01*
X560607Y115024D01*
X560517Y114972D01*
X560425Y114922D01*
X560331Y114876D01*
X560236Y114834D01*
X560139Y114795D01*
X560041Y114759D01*
X559941Y114727D01*
X559841Y114699D01*
X559739Y114674D01*
X559637Y114654D01*
X559534Y114636D01*
X559431Y114623D01*
X559327Y114614D01*
X559222Y114608D01*
X559118Y114606D01*
X561975Y117464D02*
X561973Y117582D01*
X561967Y117701D01*
X561958Y117819D01*
X561945Y117936D01*
X561927Y118053D01*
X561907Y118170D01*
X561882Y118286D01*
X561854Y118401D01*
X561821Y118514D01*
X561786Y118627D01*
X561746Y118739D01*
X561704Y118849D01*
X561657Y118958D01*
X561607Y119066D01*
X561554Y119171D01*
X561497Y119275D01*
X561437Y119377D01*
X561374Y119477D01*
X561307Y119575D01*
X561238Y119671D01*
X561165Y119764D01*
X561089Y119855D01*
X561011Y119944D01*
X560929Y120030D01*
X560845Y120113D01*
X560759Y120194D01*
X560669Y120271D01*
X560578Y120346D01*
X560484Y120418D01*
X560387Y120487D01*
X560289Y120552D01*
X560188Y120615D01*
X560085Y120674D01*
X559981Y120730D01*
X559875Y120782D01*
X559767Y120831D01*
X559658Y120876D01*
X559547Y120918D01*
X559435Y120956D01*
X556896Y115558D02*
X556971Y115482D01*
X557050Y115407D01*
X557131Y115336D01*
X557215Y115267D01*
X557301Y115202D01*
X557389Y115140D01*
X557479Y115080D01*
X557571Y115024D01*
X557666Y114971D01*
X557762Y114922D01*
X557860Y114876D01*
X557959Y114833D01*
X558060Y114794D01*
X558162Y114759D01*
X558265Y114727D01*
X558369Y114699D01*
X558474Y114674D01*
X558581Y114653D01*
X558687Y114636D01*
X558794Y114623D01*
X558902Y114614D01*
X559010Y114608D01*
X559118Y114606D01*
X556895Y115559D02*
X550545Y120956D01*
X550545Y114606D01*
X431800Y218440D02*
X396240Y218440D01*
X396240Y238760D02*
X431800Y238760D01*
X434340Y228600D02*
X434342Y228700D01*
X434348Y228801D01*
X434358Y228900D01*
X434372Y229000D01*
X434389Y229099D01*
X434411Y229197D01*
X434437Y229294D01*
X434466Y229390D01*
X434499Y229484D01*
X434536Y229578D01*
X434576Y229670D01*
X434620Y229760D01*
X434668Y229848D01*
X434719Y229935D01*
X434773Y230019D01*
X434831Y230101D01*
X434892Y230181D01*
X434956Y230258D01*
X435023Y230333D01*
X435093Y230405D01*
X435166Y230474D01*
X435241Y230540D01*
X435319Y230604D01*
X435399Y230664D01*
X435482Y230721D01*
X435567Y230774D01*
X435654Y230824D01*
X435743Y230871D01*
X435833Y230914D01*
X435925Y230954D01*
X436019Y230990D01*
X436114Y231022D01*
X436210Y231050D01*
X436308Y231075D01*
X436406Y231095D01*
X436505Y231112D01*
X436605Y231125D01*
X436704Y231134D01*
X436805Y231139D01*
X436905Y231140D01*
X437005Y231137D01*
X437106Y231130D01*
X437205Y231119D01*
X437305Y231104D01*
X437403Y231086D01*
X437501Y231063D01*
X437598Y231036D01*
X437693Y231006D01*
X437788Y230972D01*
X437881Y230934D01*
X437972Y230893D01*
X438062Y230848D01*
X438150Y230800D01*
X438236Y230748D01*
X438320Y230693D01*
X438401Y230634D01*
X438480Y230572D01*
X438557Y230508D01*
X438631Y230440D01*
X438702Y230369D01*
X438771Y230296D01*
X438836Y230220D01*
X438899Y230141D01*
X438958Y230060D01*
X439014Y229977D01*
X439067Y229892D01*
X439116Y229804D01*
X439162Y229715D01*
X439204Y229624D01*
X439243Y229531D01*
X439278Y229437D01*
X439309Y229342D01*
X439337Y229245D01*
X439360Y229148D01*
X439380Y229049D01*
X439396Y228950D01*
X439408Y228851D01*
X439416Y228750D01*
X439420Y228650D01*
X439420Y228550D01*
X439416Y228450D01*
X439408Y228349D01*
X439396Y228250D01*
X439380Y228151D01*
X439360Y228052D01*
X439337Y227955D01*
X439309Y227858D01*
X439278Y227763D01*
X439243Y227669D01*
X439204Y227576D01*
X439162Y227485D01*
X439116Y227396D01*
X439067Y227308D01*
X439014Y227223D01*
X438958Y227140D01*
X438899Y227059D01*
X438836Y226980D01*
X438771Y226904D01*
X438702Y226831D01*
X438631Y226760D01*
X438557Y226692D01*
X438480Y226628D01*
X438401Y226566D01*
X438320Y226507D01*
X438236Y226452D01*
X438150Y226400D01*
X438062Y226352D01*
X437972Y226307D01*
X437881Y226266D01*
X437788Y226228D01*
X437693Y226194D01*
X437598Y226164D01*
X437501Y226137D01*
X437403Y226114D01*
X437305Y226096D01*
X437205Y226081D01*
X437106Y226070D01*
X437005Y226063D01*
X436905Y226060D01*
X436805Y226061D01*
X436704Y226066D01*
X436605Y226075D01*
X436505Y226088D01*
X436406Y226105D01*
X436308Y226125D01*
X436210Y226150D01*
X436114Y226178D01*
X436019Y226210D01*
X435925Y226246D01*
X435833Y226286D01*
X435743Y226329D01*
X435654Y226376D01*
X435567Y226426D01*
X435482Y226479D01*
X435399Y226536D01*
X435319Y226596D01*
X435241Y226660D01*
X435166Y226726D01*
X435093Y226795D01*
X435023Y226867D01*
X434956Y226942D01*
X434892Y227019D01*
X434831Y227099D01*
X434773Y227181D01*
X434719Y227265D01*
X434668Y227352D01*
X434620Y227440D01*
X434576Y227530D01*
X434536Y227622D01*
X434499Y227716D01*
X434466Y227810D01*
X434437Y227906D01*
X434411Y228003D01*
X434389Y228101D01*
X434372Y228200D01*
X434358Y228300D01*
X434348Y228399D01*
X434342Y228500D01*
X434340Y228600D01*
D11*
X345948Y224028D02*
X345948Y235712D01*
X345948Y224028D02*
X351141Y224028D01*
X355854Y224028D02*
X361047Y224028D01*
X355854Y224028D02*
X355854Y235712D01*
X361047Y235712D01*
X359749Y230519D02*
X355854Y230519D01*
X365737Y235712D02*
X365737Y224028D01*
X365737Y235712D02*
X368983Y235712D01*
X369096Y235710D01*
X369209Y235704D01*
X369322Y235694D01*
X369435Y235680D01*
X369547Y235663D01*
X369658Y235641D01*
X369768Y235616D01*
X369878Y235586D01*
X369986Y235553D01*
X370093Y235516D01*
X370199Y235476D01*
X370303Y235431D01*
X370406Y235383D01*
X370507Y235332D01*
X370606Y235277D01*
X370703Y235219D01*
X370798Y235157D01*
X370891Y235092D01*
X370981Y235024D01*
X371069Y234953D01*
X371155Y234878D01*
X371238Y234801D01*
X371318Y234721D01*
X371395Y234638D01*
X371470Y234552D01*
X371541Y234464D01*
X371609Y234374D01*
X371674Y234281D01*
X371736Y234186D01*
X371794Y234089D01*
X371849Y233990D01*
X371900Y233889D01*
X371948Y233786D01*
X371993Y233682D01*
X372033Y233576D01*
X372070Y233469D01*
X372103Y233361D01*
X372133Y233251D01*
X372158Y233141D01*
X372180Y233030D01*
X372197Y232918D01*
X372211Y232805D01*
X372221Y232692D01*
X372227Y232579D01*
X372229Y232466D01*
X372229Y227274D01*
X372227Y227161D01*
X372221Y227048D01*
X372211Y226935D01*
X372197Y226822D01*
X372180Y226710D01*
X372158Y226599D01*
X372133Y226489D01*
X372103Y226379D01*
X372070Y226271D01*
X372033Y226164D01*
X371993Y226058D01*
X371948Y225954D01*
X371900Y225851D01*
X371849Y225750D01*
X371794Y225651D01*
X371736Y225554D01*
X371674Y225459D01*
X371609Y225366D01*
X371541Y225276D01*
X371470Y225188D01*
X371395Y225102D01*
X371318Y225019D01*
X371238Y224939D01*
X371155Y224862D01*
X371069Y224787D01*
X370981Y224716D01*
X370891Y224648D01*
X370798Y224583D01*
X370703Y224521D01*
X370606Y224463D01*
X370507Y224408D01*
X370406Y224357D01*
X370303Y224309D01*
X370199Y224264D01*
X370093Y224224D01*
X369986Y224187D01*
X369878Y224154D01*
X369768Y224124D01*
X369658Y224099D01*
X369547Y224077D01*
X369435Y224060D01*
X369322Y224046D01*
X369209Y224036D01*
X369096Y224030D01*
X368983Y224028D01*
X365737Y224028D01*
X377548Y233116D02*
X380794Y235712D01*
X380794Y224028D01*
X384039Y224028D02*
X377548Y224028D01*
D10*
X444500Y191770D02*
X444500Y158750D01*
X459740Y158750D02*
X459740Y191770D01*
D11*
X456692Y121158D02*
X445008Y121158D01*
X445008Y124404D01*
X445010Y124517D01*
X445016Y124630D01*
X445026Y124743D01*
X445040Y124856D01*
X445057Y124968D01*
X445079Y125079D01*
X445104Y125189D01*
X445134Y125299D01*
X445167Y125407D01*
X445204Y125514D01*
X445244Y125620D01*
X445289Y125724D01*
X445337Y125827D01*
X445388Y125928D01*
X445443Y126027D01*
X445501Y126124D01*
X445563Y126219D01*
X445628Y126312D01*
X445696Y126402D01*
X445767Y126490D01*
X445842Y126576D01*
X445919Y126659D01*
X445999Y126739D01*
X446082Y126816D01*
X446168Y126891D01*
X446256Y126962D01*
X446346Y127030D01*
X446439Y127095D01*
X446534Y127157D01*
X446631Y127215D01*
X446730Y127270D01*
X446831Y127321D01*
X446934Y127369D01*
X447038Y127414D01*
X447144Y127454D01*
X447251Y127491D01*
X447359Y127524D01*
X447469Y127554D01*
X447579Y127579D01*
X447690Y127601D01*
X447802Y127618D01*
X447915Y127632D01*
X448028Y127642D01*
X448141Y127648D01*
X448254Y127650D01*
X448367Y127648D01*
X448480Y127642D01*
X448593Y127632D01*
X448706Y127618D01*
X448818Y127601D01*
X448929Y127579D01*
X449039Y127554D01*
X449149Y127524D01*
X449257Y127491D01*
X449364Y127454D01*
X449470Y127414D01*
X449574Y127369D01*
X449677Y127321D01*
X449778Y127270D01*
X449877Y127215D01*
X449974Y127157D01*
X450069Y127095D01*
X450162Y127030D01*
X450252Y126962D01*
X450340Y126891D01*
X450426Y126816D01*
X450509Y126739D01*
X450589Y126659D01*
X450666Y126576D01*
X450741Y126490D01*
X450812Y126402D01*
X450880Y126312D01*
X450945Y126219D01*
X451007Y126124D01*
X451065Y126027D01*
X451120Y125928D01*
X451171Y125827D01*
X451219Y125724D01*
X451264Y125620D01*
X451304Y125514D01*
X451341Y125407D01*
X451374Y125299D01*
X451404Y125189D01*
X451429Y125079D01*
X451451Y124968D01*
X451468Y124856D01*
X451482Y124743D01*
X451492Y124630D01*
X451498Y124517D01*
X451500Y124404D01*
X451499Y124404D02*
X451499Y121158D01*
X451499Y125053D02*
X456692Y127649D01*
X447604Y132514D02*
X445008Y135760D01*
X456692Y135760D01*
X456692Y139005D02*
X456692Y132514D01*
D10*
X210820Y377190D02*
X210820Y410210D01*
X226060Y410210D02*
X226060Y377190D01*
D11*
X225552Y344678D02*
X213868Y344678D01*
X213868Y347924D01*
X213870Y348037D01*
X213876Y348150D01*
X213886Y348263D01*
X213900Y348376D01*
X213917Y348488D01*
X213939Y348599D01*
X213964Y348709D01*
X213994Y348819D01*
X214027Y348927D01*
X214064Y349034D01*
X214104Y349140D01*
X214149Y349244D01*
X214197Y349347D01*
X214248Y349448D01*
X214303Y349547D01*
X214361Y349644D01*
X214423Y349739D01*
X214488Y349832D01*
X214556Y349922D01*
X214627Y350010D01*
X214702Y350096D01*
X214779Y350179D01*
X214859Y350259D01*
X214942Y350336D01*
X215028Y350411D01*
X215116Y350482D01*
X215206Y350550D01*
X215299Y350615D01*
X215394Y350677D01*
X215491Y350735D01*
X215590Y350790D01*
X215691Y350841D01*
X215794Y350889D01*
X215898Y350934D01*
X216004Y350974D01*
X216111Y351011D01*
X216219Y351044D01*
X216329Y351074D01*
X216439Y351099D01*
X216550Y351121D01*
X216662Y351138D01*
X216775Y351152D01*
X216888Y351162D01*
X217001Y351168D01*
X217114Y351170D01*
X217227Y351168D01*
X217340Y351162D01*
X217453Y351152D01*
X217566Y351138D01*
X217678Y351121D01*
X217789Y351099D01*
X217899Y351074D01*
X218009Y351044D01*
X218117Y351011D01*
X218224Y350974D01*
X218330Y350934D01*
X218434Y350889D01*
X218537Y350841D01*
X218638Y350790D01*
X218737Y350735D01*
X218834Y350677D01*
X218929Y350615D01*
X219022Y350550D01*
X219112Y350482D01*
X219200Y350411D01*
X219286Y350336D01*
X219369Y350259D01*
X219449Y350179D01*
X219526Y350096D01*
X219601Y350010D01*
X219672Y349922D01*
X219740Y349832D01*
X219805Y349739D01*
X219867Y349644D01*
X219925Y349547D01*
X219980Y349448D01*
X220031Y349347D01*
X220079Y349244D01*
X220124Y349140D01*
X220164Y349034D01*
X220201Y348927D01*
X220234Y348819D01*
X220264Y348709D01*
X220289Y348599D01*
X220311Y348488D01*
X220328Y348376D01*
X220342Y348263D01*
X220352Y348150D01*
X220358Y348037D01*
X220360Y347924D01*
X220359Y347924D02*
X220359Y344678D01*
X220359Y348573D02*
X225552Y351169D01*
X216789Y362525D02*
X216682Y362523D01*
X216576Y362517D01*
X216470Y362507D01*
X216364Y362494D01*
X216258Y362476D01*
X216154Y362455D01*
X216050Y362430D01*
X215947Y362401D01*
X215846Y362369D01*
X215746Y362332D01*
X215647Y362292D01*
X215549Y362249D01*
X215453Y362202D01*
X215359Y362151D01*
X215267Y362097D01*
X215177Y362040D01*
X215089Y361980D01*
X215004Y361916D01*
X214921Y361849D01*
X214840Y361779D01*
X214762Y361707D01*
X214686Y361631D01*
X214614Y361553D01*
X214544Y361472D01*
X214477Y361389D01*
X214413Y361304D01*
X214353Y361216D01*
X214296Y361126D01*
X214242Y361034D01*
X214191Y360940D01*
X214144Y360844D01*
X214101Y360746D01*
X214061Y360647D01*
X214024Y360547D01*
X213992Y360446D01*
X213963Y360343D01*
X213938Y360239D01*
X213917Y360135D01*
X213899Y360029D01*
X213886Y359923D01*
X213876Y359817D01*
X213870Y359711D01*
X213868Y359604D01*
X213870Y359483D01*
X213876Y359362D01*
X213886Y359242D01*
X213899Y359121D01*
X213917Y359002D01*
X213938Y358882D01*
X213963Y358764D01*
X213992Y358647D01*
X214025Y358530D01*
X214061Y358415D01*
X214102Y358301D01*
X214145Y358188D01*
X214193Y358076D01*
X214244Y357967D01*
X214299Y357859D01*
X214357Y357752D01*
X214418Y357648D01*
X214483Y357546D01*
X214551Y357446D01*
X214622Y357348D01*
X214696Y357252D01*
X214773Y357159D01*
X214854Y357069D01*
X214937Y356981D01*
X215023Y356896D01*
X215112Y356813D01*
X215203Y356734D01*
X215297Y356657D01*
X215393Y356584D01*
X215491Y356514D01*
X215592Y356447D01*
X215695Y356383D01*
X215800Y356323D01*
X215907Y356265D01*
X216015Y356212D01*
X216125Y356162D01*
X216237Y356116D01*
X216350Y356073D01*
X216465Y356034D01*
X219061Y361551D02*
X218983Y361630D01*
X218903Y361706D01*
X218820Y361779D01*
X218734Y361849D01*
X218647Y361916D01*
X218556Y361980D01*
X218464Y362040D01*
X218370Y362098D01*
X218273Y362152D01*
X218175Y362202D01*
X218075Y362249D01*
X217974Y362293D01*
X217871Y362333D01*
X217766Y362369D01*
X217661Y362401D01*
X217554Y362430D01*
X217447Y362455D01*
X217338Y362477D01*
X217229Y362494D01*
X217120Y362508D01*
X217010Y362517D01*
X216899Y362523D01*
X216789Y362525D01*
X219061Y361552D02*
X225552Y356034D01*
X225552Y362525D01*
D13*
X240294Y489720D02*
X240296Y489840D01*
X240302Y489960D01*
X240312Y490079D01*
X240326Y490198D01*
X240344Y490317D01*
X240365Y490435D01*
X240391Y490552D01*
X240421Y490668D01*
X240454Y490783D01*
X240491Y490897D01*
X240532Y491009D01*
X240577Y491121D01*
X240626Y491230D01*
X240678Y491338D01*
X240733Y491445D01*
X240792Y491549D01*
X240855Y491651D01*
X240921Y491751D01*
X240990Y491849D01*
X241062Y491945D01*
X241138Y492038D01*
X241216Y492128D01*
X241298Y492216D01*
X241382Y492301D01*
X241469Y492384D01*
X241559Y492463D01*
X241652Y492539D01*
X241747Y492612D01*
X241844Y492682D01*
X241944Y492749D01*
X242045Y492812D01*
X242149Y492872D01*
X242255Y492929D01*
X242362Y492982D01*
X242472Y493031D01*
X242583Y493077D01*
X242695Y493119D01*
X242809Y493157D01*
X242923Y493191D01*
X243039Y493222D01*
X243156Y493248D01*
X243274Y493271D01*
X243392Y493290D01*
X243511Y493305D01*
X243631Y493316D01*
X243750Y493323D01*
X243870Y493326D01*
X243990Y493325D01*
X244110Y493320D01*
X244229Y493311D01*
X244348Y493298D01*
X244467Y493281D01*
X244585Y493260D01*
X244702Y493236D01*
X244819Y493207D01*
X244934Y493175D01*
X245048Y493138D01*
X245161Y493098D01*
X245273Y493054D01*
X245383Y493007D01*
X245492Y492956D01*
X245598Y492901D01*
X245703Y492843D01*
X245806Y492781D01*
X245907Y492716D01*
X246005Y492648D01*
X246101Y492576D01*
X246195Y492502D01*
X246286Y492424D01*
X246375Y492343D01*
X246460Y492259D01*
X246543Y492173D01*
X246623Y492083D01*
X246701Y491992D01*
X246774Y491897D01*
X246845Y491801D01*
X246913Y491702D01*
X246977Y491600D01*
X247038Y491497D01*
X247095Y491392D01*
X247149Y491285D01*
X247199Y491176D01*
X247246Y491065D01*
X247289Y490953D01*
X247328Y490840D01*
X247363Y490725D01*
X247394Y490610D01*
X247422Y490493D01*
X247446Y490376D01*
X247466Y490257D01*
X247482Y490139D01*
X247494Y490019D01*
X247502Y489900D01*
X247506Y489780D01*
X247506Y489660D01*
X247502Y489540D01*
X247494Y489421D01*
X247482Y489301D01*
X247466Y489183D01*
X247446Y489064D01*
X247422Y488947D01*
X247394Y488830D01*
X247363Y488715D01*
X247328Y488600D01*
X247289Y488487D01*
X247246Y488375D01*
X247199Y488264D01*
X247149Y488155D01*
X247095Y488048D01*
X247038Y487943D01*
X246977Y487840D01*
X246913Y487738D01*
X246845Y487639D01*
X246774Y487543D01*
X246701Y487448D01*
X246623Y487357D01*
X246543Y487267D01*
X246460Y487181D01*
X246375Y487097D01*
X246286Y487016D01*
X246195Y486938D01*
X246101Y486864D01*
X246005Y486792D01*
X245907Y486724D01*
X245806Y486659D01*
X245703Y486597D01*
X245598Y486539D01*
X245492Y486484D01*
X245383Y486433D01*
X245273Y486386D01*
X245161Y486342D01*
X245048Y486302D01*
X244934Y486265D01*
X244819Y486233D01*
X244702Y486204D01*
X244585Y486180D01*
X244467Y486159D01*
X244348Y486142D01*
X244229Y486129D01*
X244110Y486120D01*
X243990Y486115D01*
X243870Y486114D01*
X243750Y486117D01*
X243631Y486124D01*
X243511Y486135D01*
X243392Y486150D01*
X243274Y486169D01*
X243156Y486192D01*
X243039Y486218D01*
X242923Y486249D01*
X242809Y486283D01*
X242695Y486321D01*
X242583Y486363D01*
X242472Y486409D01*
X242362Y486458D01*
X242255Y486511D01*
X242149Y486568D01*
X242045Y486628D01*
X241944Y486691D01*
X241844Y486758D01*
X241747Y486828D01*
X241652Y486901D01*
X241559Y486977D01*
X241469Y487056D01*
X241382Y487139D01*
X241298Y487224D01*
X241216Y487312D01*
X241138Y487402D01*
X241062Y487495D01*
X240990Y487591D01*
X240921Y487689D01*
X240855Y487789D01*
X240792Y487891D01*
X240733Y487995D01*
X240678Y488102D01*
X240626Y488210D01*
X240577Y488319D01*
X240532Y488431D01*
X240491Y488543D01*
X240454Y488657D01*
X240421Y488772D01*
X240391Y488888D01*
X240365Y489005D01*
X240344Y489123D01*
X240326Y489242D01*
X240312Y489361D01*
X240302Y489480D01*
X240296Y489600D01*
X240294Y489720D01*
X251460Y297180D02*
X266700Y297180D01*
X251460Y297180D02*
X251460Y304800D01*
X251460Y541020D02*
X251460Y556260D01*
X266700Y556260D01*
X419100Y556260D02*
X434340Y556260D01*
X434340Y541020D01*
X434340Y304800D02*
X434340Y297180D01*
X419100Y297180D01*
D11*
X468168Y519759D02*
X468168Y524952D01*
X479852Y524952D01*
X479852Y519759D01*
X474659Y521057D02*
X474659Y524952D01*
X468168Y511936D02*
X468170Y511837D01*
X468176Y511737D01*
X468185Y511638D01*
X468198Y511540D01*
X468215Y511442D01*
X468236Y511344D01*
X468261Y511248D01*
X468289Y511153D01*
X468321Y511059D01*
X468356Y510966D01*
X468395Y510874D01*
X468438Y510784D01*
X468483Y510696D01*
X468533Y510609D01*
X468585Y510525D01*
X468641Y510442D01*
X468699Y510362D01*
X468761Y510284D01*
X468826Y510209D01*
X468894Y510136D01*
X468964Y510066D01*
X469037Y509998D01*
X469112Y509933D01*
X469190Y509871D01*
X469270Y509813D01*
X469353Y509757D01*
X469437Y509705D01*
X469524Y509655D01*
X469612Y509610D01*
X469702Y509567D01*
X469794Y509528D01*
X469887Y509493D01*
X469981Y509461D01*
X470076Y509433D01*
X470172Y509408D01*
X470270Y509387D01*
X470368Y509370D01*
X470466Y509357D01*
X470565Y509348D01*
X470665Y509342D01*
X470764Y509340D01*
X468168Y511936D02*
X468170Y512080D01*
X468176Y512225D01*
X468185Y512369D01*
X468198Y512512D01*
X468215Y512656D01*
X468236Y512799D01*
X468261Y512941D01*
X468289Y513082D01*
X468321Y513223D01*
X468357Y513363D01*
X468396Y513502D01*
X468439Y513640D01*
X468486Y513776D01*
X468536Y513912D01*
X468590Y514046D01*
X468647Y514178D01*
X468708Y514309D01*
X468772Y514438D01*
X468840Y514566D01*
X468911Y514692D01*
X468985Y514816D01*
X469062Y514937D01*
X469143Y515057D01*
X469226Y515175D01*
X469313Y515290D01*
X469403Y515403D01*
X469496Y515514D01*
X469591Y515622D01*
X469690Y515728D01*
X469791Y515831D01*
X477256Y515506D02*
X477355Y515504D01*
X477455Y515498D01*
X477554Y515489D01*
X477652Y515476D01*
X477750Y515459D01*
X477848Y515438D01*
X477944Y515413D01*
X478039Y515385D01*
X478133Y515353D01*
X478226Y515318D01*
X478318Y515279D01*
X478408Y515236D01*
X478496Y515191D01*
X478583Y515141D01*
X478667Y515089D01*
X478750Y515033D01*
X478830Y514975D01*
X478908Y514913D01*
X478983Y514848D01*
X479056Y514780D01*
X479126Y514710D01*
X479194Y514637D01*
X479259Y514562D01*
X479321Y514484D01*
X479379Y514404D01*
X479435Y514321D01*
X479487Y514237D01*
X479537Y514150D01*
X479582Y514062D01*
X479625Y513972D01*
X479664Y513880D01*
X479699Y513787D01*
X479731Y513693D01*
X479759Y513598D01*
X479784Y513502D01*
X479805Y513404D01*
X479822Y513306D01*
X479835Y513208D01*
X479844Y513109D01*
X479850Y513009D01*
X479852Y512910D01*
X479850Y512774D01*
X479844Y512638D01*
X479835Y512502D01*
X479822Y512366D01*
X479804Y512231D01*
X479784Y512097D01*
X479759Y511963D01*
X479731Y511829D01*
X479698Y511697D01*
X479663Y511566D01*
X479623Y511435D01*
X479580Y511306D01*
X479534Y511178D01*
X479483Y511052D01*
X479430Y510926D01*
X479372Y510803D01*
X479312Y510681D01*
X479248Y510561D01*
X479180Y510442D01*
X479110Y510326D01*
X479036Y510212D01*
X478959Y510099D01*
X478878Y509989D01*
X474984Y514208D02*
X475037Y514294D01*
X475094Y514378D01*
X475153Y514460D01*
X475216Y514540D01*
X475282Y514617D01*
X475350Y514692D01*
X475422Y514764D01*
X475496Y514833D01*
X475573Y514899D01*
X475652Y514962D01*
X475734Y515022D01*
X475818Y515079D01*
X475904Y515133D01*
X475992Y515183D01*
X476082Y515230D01*
X476173Y515274D01*
X476267Y515313D01*
X476361Y515350D01*
X476457Y515382D01*
X476555Y515411D01*
X476653Y515436D01*
X476752Y515457D01*
X476852Y515475D01*
X476952Y515488D01*
X477053Y515498D01*
X477155Y515504D01*
X477256Y515506D01*
X473036Y510637D02*
X472983Y510551D01*
X472926Y510467D01*
X472867Y510385D01*
X472804Y510305D01*
X472738Y510228D01*
X472670Y510153D01*
X472598Y510081D01*
X472524Y510012D01*
X472447Y509946D01*
X472368Y509883D01*
X472286Y509823D01*
X472202Y509766D01*
X472116Y509712D01*
X472028Y509662D01*
X471938Y509615D01*
X471847Y509571D01*
X471753Y509532D01*
X471659Y509495D01*
X471563Y509463D01*
X471465Y509434D01*
X471367Y509409D01*
X471268Y509388D01*
X471168Y509370D01*
X471068Y509357D01*
X470967Y509347D01*
X470865Y509341D01*
X470764Y509339D01*
X473036Y510638D02*
X474984Y514208D01*
X479852Y504231D02*
X468168Y504231D01*
X479852Y504231D02*
X479852Y500986D01*
X479850Y500873D01*
X479844Y500760D01*
X479834Y500647D01*
X479820Y500534D01*
X479803Y500422D01*
X479781Y500311D01*
X479756Y500201D01*
X479726Y500091D01*
X479693Y499983D01*
X479656Y499876D01*
X479616Y499770D01*
X479571Y499666D01*
X479523Y499563D01*
X479472Y499462D01*
X479417Y499363D01*
X479359Y499266D01*
X479297Y499171D01*
X479232Y499078D01*
X479164Y498988D01*
X479093Y498900D01*
X479018Y498814D01*
X478941Y498731D01*
X478861Y498651D01*
X478778Y498574D01*
X478692Y498499D01*
X478604Y498428D01*
X478514Y498360D01*
X478421Y498295D01*
X478326Y498233D01*
X478229Y498175D01*
X478130Y498120D01*
X478029Y498069D01*
X477926Y498021D01*
X477822Y497976D01*
X477716Y497936D01*
X477609Y497899D01*
X477501Y497866D01*
X477391Y497836D01*
X477281Y497811D01*
X477170Y497789D01*
X477058Y497772D01*
X476945Y497758D01*
X476832Y497748D01*
X476719Y497742D01*
X476606Y497740D01*
X476493Y497742D01*
X476380Y497748D01*
X476267Y497758D01*
X476154Y497772D01*
X476042Y497789D01*
X475931Y497811D01*
X475821Y497836D01*
X475711Y497866D01*
X475603Y497899D01*
X475496Y497936D01*
X475390Y497976D01*
X475286Y498021D01*
X475183Y498069D01*
X475082Y498120D01*
X474983Y498175D01*
X474886Y498233D01*
X474791Y498295D01*
X474698Y498360D01*
X474608Y498428D01*
X474520Y498499D01*
X474434Y498574D01*
X474351Y498651D01*
X474271Y498731D01*
X474194Y498814D01*
X474119Y498900D01*
X474048Y498988D01*
X473980Y499078D01*
X473915Y499171D01*
X473853Y499266D01*
X473795Y499363D01*
X473740Y499462D01*
X473689Y499563D01*
X473641Y499666D01*
X473596Y499770D01*
X473556Y499876D01*
X473519Y499983D01*
X473486Y500091D01*
X473456Y500201D01*
X473431Y500311D01*
X473409Y500422D01*
X473392Y500534D01*
X473378Y500647D01*
X473368Y500760D01*
X473362Y500873D01*
X473360Y500986D01*
X473361Y500986D02*
X473361Y504231D01*
X472712Y493239D02*
X472712Y485449D01*
X479852Y480821D02*
X468168Y478225D01*
X475957Y475628D01*
X468168Y473032D01*
X479852Y470435D01*
X479852Y465465D02*
X468168Y465465D01*
X479852Y465465D02*
X479852Y462220D01*
X479850Y462107D01*
X479844Y461994D01*
X479834Y461881D01*
X479820Y461768D01*
X479803Y461656D01*
X479781Y461545D01*
X479756Y461435D01*
X479726Y461325D01*
X479693Y461217D01*
X479656Y461110D01*
X479616Y461004D01*
X479571Y460900D01*
X479523Y460797D01*
X479472Y460696D01*
X479417Y460597D01*
X479359Y460500D01*
X479297Y460405D01*
X479232Y460312D01*
X479164Y460222D01*
X479093Y460134D01*
X479018Y460048D01*
X478941Y459965D01*
X478861Y459885D01*
X478778Y459808D01*
X478692Y459733D01*
X478604Y459662D01*
X478514Y459594D01*
X478421Y459529D01*
X478326Y459467D01*
X478229Y459409D01*
X478130Y459354D01*
X478029Y459303D01*
X477926Y459255D01*
X477822Y459210D01*
X477716Y459170D01*
X477609Y459133D01*
X477501Y459100D01*
X477391Y459070D01*
X477281Y459045D01*
X477170Y459023D01*
X477058Y459006D01*
X476945Y458992D01*
X476832Y458982D01*
X476719Y458976D01*
X476606Y458974D01*
X476493Y458976D01*
X476380Y458982D01*
X476267Y458992D01*
X476154Y459006D01*
X476042Y459023D01*
X475931Y459045D01*
X475821Y459070D01*
X475711Y459100D01*
X475603Y459133D01*
X475496Y459170D01*
X475390Y459210D01*
X475286Y459255D01*
X475183Y459303D01*
X475082Y459354D01*
X474983Y459409D01*
X474886Y459467D01*
X474791Y459529D01*
X474698Y459594D01*
X474608Y459662D01*
X474520Y459733D01*
X474434Y459808D01*
X474351Y459885D01*
X474271Y459965D01*
X474194Y460048D01*
X474119Y460134D01*
X474048Y460222D01*
X473980Y460312D01*
X473915Y460405D01*
X473853Y460500D01*
X473795Y460597D01*
X473740Y460696D01*
X473689Y460797D01*
X473641Y460900D01*
X473596Y461004D01*
X473556Y461110D01*
X473519Y461217D01*
X473486Y461325D01*
X473456Y461435D01*
X473431Y461545D01*
X473409Y461656D01*
X473392Y461768D01*
X473378Y461881D01*
X473368Y461994D01*
X473362Y462107D01*
X473360Y462220D01*
X473361Y462220D02*
X473361Y465465D01*
X473361Y461570D02*
X468168Y458974D01*
X471414Y454109D02*
X476606Y454109D01*
X476719Y454107D01*
X476832Y454101D01*
X476945Y454091D01*
X477058Y454077D01*
X477170Y454060D01*
X477281Y454038D01*
X477391Y454013D01*
X477501Y453983D01*
X477609Y453950D01*
X477716Y453913D01*
X477822Y453873D01*
X477926Y453828D01*
X478029Y453780D01*
X478130Y453729D01*
X478229Y453674D01*
X478326Y453616D01*
X478421Y453554D01*
X478514Y453489D01*
X478604Y453421D01*
X478692Y453350D01*
X478778Y453275D01*
X478861Y453198D01*
X478941Y453118D01*
X479018Y453035D01*
X479093Y452949D01*
X479164Y452861D01*
X479232Y452771D01*
X479297Y452678D01*
X479359Y452583D01*
X479417Y452486D01*
X479472Y452387D01*
X479523Y452286D01*
X479571Y452183D01*
X479616Y452079D01*
X479656Y451973D01*
X479693Y451866D01*
X479726Y451758D01*
X479756Y451648D01*
X479781Y451538D01*
X479803Y451427D01*
X479820Y451315D01*
X479834Y451202D01*
X479844Y451089D01*
X479850Y450976D01*
X479852Y450863D01*
X479850Y450750D01*
X479844Y450637D01*
X479834Y450524D01*
X479820Y450411D01*
X479803Y450299D01*
X479781Y450188D01*
X479756Y450078D01*
X479726Y449968D01*
X479693Y449860D01*
X479656Y449753D01*
X479616Y449647D01*
X479571Y449543D01*
X479523Y449440D01*
X479472Y449339D01*
X479417Y449240D01*
X479359Y449143D01*
X479297Y449048D01*
X479232Y448955D01*
X479164Y448865D01*
X479093Y448777D01*
X479018Y448691D01*
X478941Y448608D01*
X478861Y448528D01*
X478778Y448451D01*
X478692Y448376D01*
X478604Y448305D01*
X478514Y448237D01*
X478421Y448172D01*
X478326Y448110D01*
X478229Y448052D01*
X478130Y447997D01*
X478029Y447946D01*
X477926Y447898D01*
X477822Y447853D01*
X477716Y447813D01*
X477609Y447776D01*
X477501Y447743D01*
X477391Y447713D01*
X477281Y447688D01*
X477170Y447666D01*
X477058Y447649D01*
X476945Y447635D01*
X476832Y447625D01*
X476719Y447619D01*
X476606Y447617D01*
X476606Y447618D02*
X471414Y447618D01*
X471414Y447617D02*
X471301Y447619D01*
X471188Y447625D01*
X471075Y447635D01*
X470962Y447649D01*
X470850Y447666D01*
X470739Y447688D01*
X470629Y447713D01*
X470519Y447743D01*
X470411Y447776D01*
X470304Y447813D01*
X470198Y447853D01*
X470094Y447898D01*
X469991Y447946D01*
X469890Y447997D01*
X469791Y448052D01*
X469694Y448110D01*
X469599Y448172D01*
X469506Y448237D01*
X469416Y448305D01*
X469328Y448376D01*
X469242Y448451D01*
X469159Y448528D01*
X469079Y448608D01*
X469002Y448691D01*
X468927Y448777D01*
X468856Y448865D01*
X468788Y448955D01*
X468723Y449048D01*
X468661Y449143D01*
X468603Y449240D01*
X468548Y449339D01*
X468497Y449440D01*
X468449Y449543D01*
X468404Y449647D01*
X468364Y449753D01*
X468327Y449860D01*
X468294Y449968D01*
X468264Y450078D01*
X468239Y450188D01*
X468217Y450299D01*
X468200Y450411D01*
X468186Y450524D01*
X468176Y450637D01*
X468170Y450750D01*
X468168Y450863D01*
X468170Y450976D01*
X468176Y451089D01*
X468186Y451202D01*
X468200Y451315D01*
X468217Y451427D01*
X468239Y451538D01*
X468264Y451648D01*
X468294Y451758D01*
X468327Y451866D01*
X468364Y451973D01*
X468404Y452079D01*
X468449Y452183D01*
X468497Y452286D01*
X468548Y452387D01*
X468603Y452486D01*
X468661Y452583D01*
X468723Y452678D01*
X468788Y452771D01*
X468856Y452861D01*
X468927Y452949D01*
X469002Y453035D01*
X469079Y453118D01*
X469159Y453198D01*
X469242Y453275D01*
X469328Y453350D01*
X469416Y453421D01*
X469506Y453489D01*
X469599Y453554D01*
X469694Y453616D01*
X469791Y453674D01*
X469890Y453729D01*
X469991Y453780D01*
X470094Y453828D01*
X470198Y453873D01*
X470304Y453913D01*
X470411Y453950D01*
X470519Y453983D01*
X470629Y454013D01*
X470739Y454038D01*
X470850Y454060D01*
X470962Y454077D01*
X471075Y454091D01*
X471188Y454101D01*
X471301Y454107D01*
X471414Y454109D01*
X471414Y442679D02*
X476606Y442679D01*
X476719Y442677D01*
X476832Y442671D01*
X476945Y442661D01*
X477058Y442647D01*
X477170Y442630D01*
X477281Y442608D01*
X477391Y442583D01*
X477501Y442553D01*
X477609Y442520D01*
X477716Y442483D01*
X477822Y442443D01*
X477926Y442398D01*
X478029Y442350D01*
X478130Y442299D01*
X478229Y442244D01*
X478326Y442186D01*
X478421Y442124D01*
X478514Y442059D01*
X478604Y441991D01*
X478692Y441920D01*
X478778Y441845D01*
X478861Y441768D01*
X478941Y441688D01*
X479018Y441605D01*
X479093Y441519D01*
X479164Y441431D01*
X479232Y441341D01*
X479297Y441248D01*
X479359Y441153D01*
X479417Y441056D01*
X479472Y440957D01*
X479523Y440856D01*
X479571Y440753D01*
X479616Y440649D01*
X479656Y440543D01*
X479693Y440436D01*
X479726Y440328D01*
X479756Y440218D01*
X479781Y440108D01*
X479803Y439997D01*
X479820Y439885D01*
X479834Y439772D01*
X479844Y439659D01*
X479850Y439546D01*
X479852Y439433D01*
X479850Y439320D01*
X479844Y439207D01*
X479834Y439094D01*
X479820Y438981D01*
X479803Y438869D01*
X479781Y438758D01*
X479756Y438648D01*
X479726Y438538D01*
X479693Y438430D01*
X479656Y438323D01*
X479616Y438217D01*
X479571Y438113D01*
X479523Y438010D01*
X479472Y437909D01*
X479417Y437810D01*
X479359Y437713D01*
X479297Y437618D01*
X479232Y437525D01*
X479164Y437435D01*
X479093Y437347D01*
X479018Y437261D01*
X478941Y437178D01*
X478861Y437098D01*
X478778Y437021D01*
X478692Y436946D01*
X478604Y436875D01*
X478514Y436807D01*
X478421Y436742D01*
X478326Y436680D01*
X478229Y436622D01*
X478130Y436567D01*
X478029Y436516D01*
X477926Y436468D01*
X477822Y436423D01*
X477716Y436383D01*
X477609Y436346D01*
X477501Y436313D01*
X477391Y436283D01*
X477281Y436258D01*
X477170Y436236D01*
X477058Y436219D01*
X476945Y436205D01*
X476832Y436195D01*
X476719Y436189D01*
X476606Y436187D01*
X476606Y436188D02*
X471414Y436188D01*
X471414Y436187D02*
X471301Y436189D01*
X471188Y436195D01*
X471075Y436205D01*
X470962Y436219D01*
X470850Y436236D01*
X470739Y436258D01*
X470629Y436283D01*
X470519Y436313D01*
X470411Y436346D01*
X470304Y436383D01*
X470198Y436423D01*
X470094Y436468D01*
X469991Y436516D01*
X469890Y436567D01*
X469791Y436622D01*
X469694Y436680D01*
X469599Y436742D01*
X469506Y436807D01*
X469416Y436875D01*
X469328Y436946D01*
X469242Y437021D01*
X469159Y437098D01*
X469079Y437178D01*
X469002Y437261D01*
X468927Y437347D01*
X468856Y437435D01*
X468788Y437525D01*
X468723Y437618D01*
X468661Y437713D01*
X468603Y437810D01*
X468548Y437909D01*
X468497Y438010D01*
X468449Y438113D01*
X468404Y438217D01*
X468364Y438323D01*
X468327Y438430D01*
X468294Y438538D01*
X468264Y438648D01*
X468239Y438758D01*
X468217Y438869D01*
X468200Y438981D01*
X468186Y439094D01*
X468176Y439207D01*
X468170Y439320D01*
X468168Y439433D01*
X468170Y439546D01*
X468176Y439659D01*
X468186Y439772D01*
X468200Y439885D01*
X468217Y439997D01*
X468239Y440108D01*
X468264Y440218D01*
X468294Y440328D01*
X468327Y440436D01*
X468364Y440543D01*
X468404Y440649D01*
X468449Y440753D01*
X468497Y440856D01*
X468548Y440957D01*
X468603Y441056D01*
X468661Y441153D01*
X468723Y441248D01*
X468788Y441341D01*
X468856Y441431D01*
X468927Y441519D01*
X469002Y441605D01*
X469079Y441688D01*
X469159Y441768D01*
X469242Y441845D01*
X469328Y441920D01*
X469416Y441991D01*
X469506Y442059D01*
X469599Y442124D01*
X469694Y442186D01*
X469791Y442244D01*
X469890Y442299D01*
X469991Y442350D01*
X470094Y442398D01*
X470198Y442443D01*
X470304Y442483D01*
X470411Y442520D01*
X470519Y442553D01*
X470629Y442583D01*
X470739Y442608D01*
X470850Y442630D01*
X470962Y442647D01*
X471075Y442661D01*
X471188Y442671D01*
X471301Y442677D01*
X471414Y442679D01*
X468168Y430755D02*
X479852Y430755D01*
X473361Y426860D01*
X479852Y422966D01*
X468168Y422966D01*
X472712Y417420D02*
X472712Y409631D01*
X468168Y404579D02*
X468168Y401333D01*
X468170Y401220D01*
X468176Y401107D01*
X468186Y400994D01*
X468200Y400881D01*
X468217Y400769D01*
X468239Y400658D01*
X468264Y400548D01*
X468294Y400438D01*
X468327Y400330D01*
X468364Y400223D01*
X468404Y400117D01*
X468449Y400013D01*
X468497Y399910D01*
X468548Y399809D01*
X468603Y399710D01*
X468661Y399613D01*
X468723Y399518D01*
X468788Y399425D01*
X468856Y399335D01*
X468927Y399247D01*
X469002Y399161D01*
X469079Y399078D01*
X469159Y398998D01*
X469242Y398921D01*
X469328Y398846D01*
X469416Y398775D01*
X469506Y398707D01*
X469599Y398642D01*
X469694Y398580D01*
X469791Y398522D01*
X469890Y398467D01*
X469991Y398416D01*
X470094Y398368D01*
X470198Y398323D01*
X470304Y398283D01*
X470411Y398246D01*
X470519Y398213D01*
X470629Y398183D01*
X470739Y398158D01*
X470850Y398136D01*
X470962Y398119D01*
X471075Y398105D01*
X471188Y398095D01*
X471301Y398089D01*
X471414Y398087D01*
X471527Y398089D01*
X471640Y398095D01*
X471753Y398105D01*
X471866Y398119D01*
X471978Y398136D01*
X472089Y398158D01*
X472199Y398183D01*
X472309Y398213D01*
X472417Y398246D01*
X472524Y398283D01*
X472630Y398323D01*
X472734Y398368D01*
X472837Y398416D01*
X472938Y398467D01*
X473037Y398522D01*
X473134Y398580D01*
X473229Y398642D01*
X473322Y398707D01*
X473412Y398775D01*
X473500Y398846D01*
X473586Y398921D01*
X473669Y398998D01*
X473749Y399078D01*
X473826Y399161D01*
X473901Y399247D01*
X473972Y399335D01*
X474040Y399425D01*
X474105Y399518D01*
X474167Y399613D01*
X474225Y399710D01*
X474280Y399809D01*
X474331Y399910D01*
X474379Y400013D01*
X474424Y400117D01*
X474464Y400223D01*
X474501Y400330D01*
X474534Y400438D01*
X474564Y400548D01*
X474589Y400658D01*
X474611Y400769D01*
X474628Y400881D01*
X474642Y400994D01*
X474652Y401107D01*
X474658Y401220D01*
X474660Y401333D01*
X479852Y400684D02*
X479852Y404579D01*
X479852Y400684D02*
X479850Y400583D01*
X479844Y400483D01*
X479834Y400383D01*
X479821Y400283D01*
X479803Y400184D01*
X479782Y400085D01*
X479757Y399988D01*
X479728Y399891D01*
X479695Y399796D01*
X479659Y399702D01*
X479619Y399610D01*
X479576Y399519D01*
X479529Y399430D01*
X479479Y399343D01*
X479425Y399257D01*
X479368Y399174D01*
X479308Y399094D01*
X479245Y399015D01*
X479178Y398939D01*
X479109Y398866D01*
X479037Y398796D01*
X478963Y398728D01*
X478886Y398663D01*
X478806Y398602D01*
X478724Y398543D01*
X478640Y398488D01*
X478554Y398436D01*
X478466Y398387D01*
X478376Y398342D01*
X478284Y398300D01*
X478191Y398262D01*
X478096Y398228D01*
X478001Y398197D01*
X477904Y398170D01*
X477806Y398147D01*
X477707Y398127D01*
X477607Y398112D01*
X477507Y398100D01*
X477407Y398092D01*
X477306Y398088D01*
X477206Y398088D01*
X477105Y398092D01*
X477005Y398100D01*
X476905Y398112D01*
X476805Y398127D01*
X476706Y398147D01*
X476608Y398170D01*
X476511Y398197D01*
X476416Y398228D01*
X476321Y398262D01*
X476228Y398300D01*
X476136Y398342D01*
X476046Y398387D01*
X475958Y398436D01*
X475872Y398488D01*
X475788Y398543D01*
X475706Y398602D01*
X475626Y398663D01*
X475549Y398728D01*
X475475Y398796D01*
X475403Y398866D01*
X475334Y398939D01*
X475267Y399015D01*
X475204Y399094D01*
X475144Y399174D01*
X475087Y399257D01*
X475033Y399343D01*
X474983Y399430D01*
X474936Y399519D01*
X474893Y399610D01*
X474853Y399702D01*
X474817Y399796D01*
X474784Y399891D01*
X474755Y399988D01*
X474730Y400085D01*
X474709Y400184D01*
X474691Y400283D01*
X474678Y400383D01*
X474668Y400483D01*
X474662Y400583D01*
X474660Y400684D01*
X474659Y400684D02*
X474659Y403281D01*
X479852Y389579D02*
X479850Y389472D01*
X479844Y389366D01*
X479834Y389260D01*
X479821Y389154D01*
X479803Y389048D01*
X479782Y388944D01*
X479757Y388840D01*
X479728Y388737D01*
X479696Y388636D01*
X479659Y388536D01*
X479619Y388437D01*
X479576Y388339D01*
X479529Y388243D01*
X479478Y388149D01*
X479424Y388057D01*
X479367Y387967D01*
X479307Y387879D01*
X479243Y387794D01*
X479176Y387711D01*
X479106Y387630D01*
X479034Y387552D01*
X478958Y387476D01*
X478880Y387404D01*
X478799Y387334D01*
X478716Y387267D01*
X478631Y387203D01*
X478543Y387143D01*
X478453Y387086D01*
X478361Y387032D01*
X478267Y386981D01*
X478171Y386934D01*
X478073Y386891D01*
X477974Y386851D01*
X477874Y386814D01*
X477773Y386782D01*
X477670Y386753D01*
X477566Y386728D01*
X477462Y386707D01*
X477356Y386689D01*
X477250Y386676D01*
X477144Y386666D01*
X477038Y386660D01*
X476931Y386658D01*
X479852Y389579D02*
X479850Y389700D01*
X479844Y389821D01*
X479834Y389941D01*
X479821Y390062D01*
X479803Y390181D01*
X479782Y390301D01*
X479757Y390419D01*
X479728Y390536D01*
X479695Y390653D01*
X479659Y390768D01*
X479618Y390882D01*
X479575Y390995D01*
X479527Y391107D01*
X479476Y391216D01*
X479421Y391324D01*
X479363Y391431D01*
X479302Y391535D01*
X479237Y391637D01*
X479169Y391737D01*
X479098Y391835D01*
X479024Y391931D01*
X478947Y392024D01*
X478866Y392114D01*
X478783Y392202D01*
X478697Y392287D01*
X478608Y392370D01*
X478517Y392449D01*
X478423Y392526D01*
X478327Y392599D01*
X478229Y392669D01*
X478128Y392736D01*
X478025Y392800D01*
X477920Y392861D01*
X477813Y392918D01*
X477705Y392971D01*
X477595Y393021D01*
X477483Y393067D01*
X477370Y393110D01*
X477255Y393149D01*
X474659Y387632D02*
X474737Y387553D01*
X474817Y387477D01*
X474900Y387404D01*
X474986Y387334D01*
X475073Y387267D01*
X475164Y387203D01*
X475256Y387143D01*
X475350Y387085D01*
X475447Y387031D01*
X475545Y386981D01*
X475645Y386934D01*
X475746Y386890D01*
X475849Y386850D01*
X475954Y386814D01*
X476059Y386782D01*
X476166Y386753D01*
X476273Y386728D01*
X476382Y386706D01*
X476491Y386689D01*
X476600Y386675D01*
X476710Y386666D01*
X476821Y386660D01*
X476931Y386658D01*
X474659Y387631D02*
X468168Y393149D01*
X468168Y386658D01*
X376074Y196912D02*
X376074Y185228D01*
X372828Y196912D02*
X379319Y196912D01*
X384046Y196912D02*
X384046Y185228D01*
X384046Y196912D02*
X387292Y196912D01*
X387405Y196910D01*
X387518Y196904D01*
X387631Y196894D01*
X387744Y196880D01*
X387856Y196863D01*
X387967Y196841D01*
X388077Y196816D01*
X388187Y196786D01*
X388295Y196753D01*
X388402Y196716D01*
X388508Y196676D01*
X388612Y196631D01*
X388715Y196583D01*
X388816Y196532D01*
X388915Y196477D01*
X389012Y196419D01*
X389107Y196357D01*
X389200Y196292D01*
X389290Y196224D01*
X389378Y196153D01*
X389464Y196078D01*
X389547Y196001D01*
X389627Y195921D01*
X389704Y195838D01*
X389779Y195752D01*
X389850Y195664D01*
X389918Y195574D01*
X389983Y195481D01*
X390045Y195386D01*
X390103Y195289D01*
X390158Y195190D01*
X390209Y195089D01*
X390257Y194986D01*
X390302Y194882D01*
X390342Y194776D01*
X390379Y194669D01*
X390412Y194561D01*
X390442Y194451D01*
X390467Y194341D01*
X390489Y194230D01*
X390506Y194118D01*
X390520Y194005D01*
X390530Y193892D01*
X390536Y193779D01*
X390538Y193666D01*
X390536Y193553D01*
X390530Y193440D01*
X390520Y193327D01*
X390506Y193214D01*
X390489Y193102D01*
X390467Y192991D01*
X390442Y192881D01*
X390412Y192771D01*
X390379Y192663D01*
X390342Y192556D01*
X390302Y192450D01*
X390257Y192346D01*
X390209Y192243D01*
X390158Y192142D01*
X390103Y192043D01*
X390045Y191946D01*
X389983Y191851D01*
X389918Y191758D01*
X389850Y191668D01*
X389779Y191580D01*
X389704Y191494D01*
X389627Y191411D01*
X389547Y191331D01*
X389464Y191254D01*
X389378Y191179D01*
X389290Y191108D01*
X389200Y191040D01*
X389107Y190975D01*
X389012Y190913D01*
X388915Y190855D01*
X388816Y190800D01*
X388715Y190749D01*
X388612Y190701D01*
X388508Y190656D01*
X388402Y190616D01*
X388295Y190579D01*
X388187Y190546D01*
X388077Y190516D01*
X387967Y190491D01*
X387856Y190469D01*
X387744Y190452D01*
X387631Y190438D01*
X387518Y190428D01*
X387405Y190422D01*
X387292Y190420D01*
X387292Y190421D02*
X384046Y190421D01*
X394432Y183930D02*
X399625Y183930D01*
X404474Y185228D02*
X404474Y196912D01*
X404474Y185228D02*
X409666Y185228D01*
X414380Y185228D02*
X419572Y185228D01*
X414380Y185228D02*
X414380Y196912D01*
X419572Y196912D01*
X418274Y191719D02*
X414380Y191719D01*
X424263Y196912D02*
X424263Y185228D01*
X424263Y196912D02*
X427508Y196912D01*
X427621Y196910D01*
X427734Y196904D01*
X427847Y196894D01*
X427960Y196880D01*
X428072Y196863D01*
X428183Y196841D01*
X428293Y196816D01*
X428403Y196786D01*
X428511Y196753D01*
X428618Y196716D01*
X428724Y196676D01*
X428828Y196631D01*
X428931Y196583D01*
X429032Y196532D01*
X429131Y196477D01*
X429228Y196419D01*
X429323Y196357D01*
X429416Y196292D01*
X429506Y196224D01*
X429594Y196153D01*
X429680Y196078D01*
X429763Y196001D01*
X429843Y195921D01*
X429920Y195838D01*
X429995Y195752D01*
X430066Y195664D01*
X430134Y195574D01*
X430199Y195481D01*
X430261Y195386D01*
X430319Y195289D01*
X430374Y195190D01*
X430425Y195089D01*
X430473Y194986D01*
X430518Y194882D01*
X430558Y194776D01*
X430595Y194669D01*
X430628Y194561D01*
X430658Y194451D01*
X430683Y194341D01*
X430705Y194230D01*
X430722Y194118D01*
X430736Y194005D01*
X430746Y193892D01*
X430752Y193779D01*
X430754Y193666D01*
X430754Y188474D01*
X430755Y188474D02*
X430753Y188361D01*
X430747Y188248D01*
X430737Y188135D01*
X430723Y188022D01*
X430706Y187910D01*
X430684Y187799D01*
X430659Y187689D01*
X430629Y187579D01*
X430596Y187471D01*
X430559Y187364D01*
X430519Y187258D01*
X430474Y187154D01*
X430426Y187051D01*
X430375Y186950D01*
X430320Y186851D01*
X430262Y186754D01*
X430200Y186659D01*
X430135Y186566D01*
X430067Y186476D01*
X429996Y186388D01*
X429921Y186302D01*
X429844Y186219D01*
X429764Y186139D01*
X429681Y186062D01*
X429595Y185987D01*
X429507Y185916D01*
X429417Y185848D01*
X429324Y185783D01*
X429229Y185721D01*
X429132Y185663D01*
X429033Y185608D01*
X428932Y185557D01*
X428829Y185509D01*
X428725Y185464D01*
X428619Y185424D01*
X428512Y185387D01*
X428404Y185354D01*
X428294Y185324D01*
X428184Y185299D01*
X428073Y185277D01*
X427961Y185260D01*
X427848Y185246D01*
X427735Y185236D01*
X427622Y185230D01*
X427509Y185228D01*
X427508Y185228D02*
X424263Y185228D01*
X144934Y180148D02*
X144934Y191832D01*
X148179Y191832D02*
X141688Y191832D01*
X152906Y191832D02*
X152906Y180148D01*
X152906Y191832D02*
X156152Y191832D01*
X156265Y191830D01*
X156378Y191824D01*
X156491Y191814D01*
X156604Y191800D01*
X156716Y191783D01*
X156827Y191761D01*
X156937Y191736D01*
X157047Y191706D01*
X157155Y191673D01*
X157262Y191636D01*
X157368Y191596D01*
X157472Y191551D01*
X157575Y191503D01*
X157676Y191452D01*
X157775Y191397D01*
X157872Y191339D01*
X157967Y191277D01*
X158060Y191212D01*
X158150Y191144D01*
X158238Y191073D01*
X158324Y190998D01*
X158407Y190921D01*
X158487Y190841D01*
X158564Y190758D01*
X158639Y190672D01*
X158710Y190584D01*
X158778Y190494D01*
X158843Y190401D01*
X158905Y190306D01*
X158963Y190209D01*
X159018Y190110D01*
X159069Y190009D01*
X159117Y189906D01*
X159162Y189802D01*
X159202Y189696D01*
X159239Y189589D01*
X159272Y189481D01*
X159302Y189371D01*
X159327Y189261D01*
X159349Y189150D01*
X159366Y189038D01*
X159380Y188925D01*
X159390Y188812D01*
X159396Y188699D01*
X159398Y188586D01*
X159396Y188473D01*
X159390Y188360D01*
X159380Y188247D01*
X159366Y188134D01*
X159349Y188022D01*
X159327Y187911D01*
X159302Y187801D01*
X159272Y187691D01*
X159239Y187583D01*
X159202Y187476D01*
X159162Y187370D01*
X159117Y187266D01*
X159069Y187163D01*
X159018Y187062D01*
X158963Y186963D01*
X158905Y186866D01*
X158843Y186771D01*
X158778Y186678D01*
X158710Y186588D01*
X158639Y186500D01*
X158564Y186414D01*
X158487Y186331D01*
X158407Y186251D01*
X158324Y186174D01*
X158238Y186099D01*
X158150Y186028D01*
X158060Y185960D01*
X157967Y185895D01*
X157872Y185833D01*
X157775Y185775D01*
X157676Y185720D01*
X157575Y185669D01*
X157472Y185621D01*
X157368Y185576D01*
X157262Y185536D01*
X157155Y185499D01*
X157047Y185466D01*
X156937Y185436D01*
X156827Y185411D01*
X156716Y185389D01*
X156604Y185372D01*
X156491Y185358D01*
X156378Y185348D01*
X156265Y185342D01*
X156152Y185340D01*
X156152Y185341D02*
X152906Y185341D01*
X163292Y178850D02*
X168485Y178850D01*
X173480Y180148D02*
X173480Y191832D01*
X176726Y191832D01*
X176839Y191830D01*
X176952Y191824D01*
X177065Y191814D01*
X177178Y191800D01*
X177290Y191783D01*
X177401Y191761D01*
X177511Y191736D01*
X177621Y191706D01*
X177729Y191673D01*
X177836Y191636D01*
X177942Y191596D01*
X178046Y191551D01*
X178149Y191503D01*
X178250Y191452D01*
X178349Y191397D01*
X178446Y191339D01*
X178541Y191277D01*
X178634Y191212D01*
X178724Y191144D01*
X178812Y191073D01*
X178898Y190998D01*
X178981Y190921D01*
X179061Y190841D01*
X179138Y190758D01*
X179213Y190672D01*
X179284Y190584D01*
X179352Y190494D01*
X179417Y190401D01*
X179479Y190306D01*
X179537Y190209D01*
X179592Y190110D01*
X179643Y190009D01*
X179691Y189906D01*
X179736Y189802D01*
X179776Y189696D01*
X179813Y189589D01*
X179846Y189481D01*
X179876Y189371D01*
X179901Y189261D01*
X179923Y189150D01*
X179940Y189038D01*
X179954Y188925D01*
X179964Y188812D01*
X179970Y188699D01*
X179972Y188586D01*
X179970Y188473D01*
X179964Y188360D01*
X179954Y188247D01*
X179940Y188134D01*
X179923Y188022D01*
X179901Y187911D01*
X179876Y187801D01*
X179846Y187691D01*
X179813Y187583D01*
X179776Y187476D01*
X179736Y187370D01*
X179691Y187266D01*
X179643Y187163D01*
X179592Y187062D01*
X179537Y186963D01*
X179479Y186866D01*
X179417Y186771D01*
X179352Y186678D01*
X179284Y186588D01*
X179213Y186500D01*
X179138Y186414D01*
X179061Y186331D01*
X178981Y186251D01*
X178898Y186174D01*
X178812Y186099D01*
X178724Y186028D01*
X178634Y185960D01*
X178541Y185895D01*
X178446Y185833D01*
X178349Y185775D01*
X178250Y185720D01*
X178149Y185669D01*
X178046Y185621D01*
X177942Y185576D01*
X177836Y185536D01*
X177729Y185499D01*
X177621Y185466D01*
X177511Y185436D01*
X177401Y185411D01*
X177290Y185389D01*
X177178Y185372D01*
X177065Y185358D01*
X176952Y185348D01*
X176839Y185342D01*
X176726Y185340D01*
X176726Y185341D02*
X173480Y185341D01*
X184360Y183394D02*
X184360Y188586D01*
X184359Y188586D02*
X184361Y188699D01*
X184367Y188812D01*
X184377Y188925D01*
X184391Y189038D01*
X184408Y189150D01*
X184430Y189261D01*
X184455Y189371D01*
X184485Y189481D01*
X184518Y189589D01*
X184555Y189696D01*
X184595Y189802D01*
X184640Y189906D01*
X184688Y190009D01*
X184739Y190110D01*
X184794Y190209D01*
X184852Y190306D01*
X184914Y190401D01*
X184979Y190494D01*
X185047Y190584D01*
X185118Y190672D01*
X185193Y190758D01*
X185270Y190841D01*
X185350Y190921D01*
X185433Y190998D01*
X185519Y191073D01*
X185607Y191144D01*
X185697Y191212D01*
X185790Y191277D01*
X185885Y191339D01*
X185982Y191397D01*
X186081Y191452D01*
X186182Y191503D01*
X186285Y191551D01*
X186389Y191596D01*
X186495Y191636D01*
X186602Y191673D01*
X186710Y191706D01*
X186820Y191736D01*
X186930Y191761D01*
X187041Y191783D01*
X187153Y191800D01*
X187266Y191814D01*
X187379Y191824D01*
X187492Y191830D01*
X187605Y191832D01*
X187718Y191830D01*
X187831Y191824D01*
X187944Y191814D01*
X188057Y191800D01*
X188169Y191783D01*
X188280Y191761D01*
X188390Y191736D01*
X188500Y191706D01*
X188608Y191673D01*
X188715Y191636D01*
X188821Y191596D01*
X188925Y191551D01*
X189028Y191503D01*
X189129Y191452D01*
X189228Y191397D01*
X189325Y191339D01*
X189420Y191277D01*
X189513Y191212D01*
X189603Y191144D01*
X189691Y191073D01*
X189777Y190998D01*
X189860Y190921D01*
X189940Y190841D01*
X190017Y190758D01*
X190092Y190672D01*
X190163Y190584D01*
X190231Y190494D01*
X190296Y190401D01*
X190358Y190306D01*
X190416Y190209D01*
X190471Y190110D01*
X190522Y190009D01*
X190570Y189906D01*
X190615Y189802D01*
X190655Y189696D01*
X190692Y189589D01*
X190725Y189481D01*
X190755Y189371D01*
X190780Y189261D01*
X190802Y189150D01*
X190819Y189038D01*
X190833Y188925D01*
X190843Y188812D01*
X190849Y188699D01*
X190851Y188586D01*
X190851Y183394D01*
X190849Y183281D01*
X190843Y183168D01*
X190833Y183055D01*
X190819Y182942D01*
X190802Y182830D01*
X190780Y182719D01*
X190755Y182609D01*
X190725Y182499D01*
X190692Y182391D01*
X190655Y182284D01*
X190615Y182178D01*
X190570Y182074D01*
X190522Y181971D01*
X190471Y181870D01*
X190416Y181771D01*
X190358Y181674D01*
X190296Y181579D01*
X190231Y181486D01*
X190163Y181396D01*
X190092Y181308D01*
X190017Y181222D01*
X189940Y181139D01*
X189860Y181059D01*
X189777Y180982D01*
X189691Y180907D01*
X189603Y180836D01*
X189513Y180768D01*
X189420Y180703D01*
X189325Y180641D01*
X189228Y180583D01*
X189129Y180528D01*
X189028Y180477D01*
X188925Y180429D01*
X188821Y180384D01*
X188715Y180344D01*
X188608Y180307D01*
X188500Y180274D01*
X188390Y180244D01*
X188280Y180219D01*
X188169Y180197D01*
X188057Y180180D01*
X187944Y180166D01*
X187831Y180156D01*
X187718Y180150D01*
X187605Y180148D01*
X187492Y180150D01*
X187379Y180156D01*
X187266Y180166D01*
X187153Y180180D01*
X187041Y180197D01*
X186930Y180219D01*
X186820Y180244D01*
X186710Y180274D01*
X186602Y180307D01*
X186495Y180344D01*
X186389Y180384D01*
X186285Y180429D01*
X186182Y180477D01*
X186081Y180528D01*
X185982Y180583D01*
X185885Y180641D01*
X185790Y180703D01*
X185697Y180768D01*
X185607Y180836D01*
X185519Y180907D01*
X185433Y180982D01*
X185350Y181059D01*
X185270Y181139D01*
X185193Y181222D01*
X185118Y181308D01*
X185047Y181396D01*
X184979Y181486D01*
X184914Y181579D01*
X184852Y181674D01*
X184794Y181771D01*
X184739Y181870D01*
X184688Y181971D01*
X184640Y182074D01*
X184595Y182178D01*
X184555Y182284D01*
X184518Y182391D01*
X184485Y182499D01*
X184455Y182609D01*
X184430Y182719D01*
X184408Y182830D01*
X184391Y182942D01*
X184377Y183055D01*
X184367Y183168D01*
X184361Y183281D01*
X184359Y183394D01*
X198273Y180148D02*
X198273Y191832D01*
X195028Y191832D02*
X201519Y191832D01*
D13*
X330000Y116880D02*
X340160Y116880D01*
X340160Y104180D01*
X180140Y116880D02*
X167440Y116880D01*
X167440Y101640D01*
X340160Y33060D02*
X340160Y20360D01*
X327460Y20360D01*
X167440Y20360D02*
X167440Y33060D01*
X167440Y20360D02*
X180140Y20360D01*
X284280Y20360D02*
X294440Y20360D01*
X284280Y20360D02*
X284280Y10200D01*
X223320Y20360D02*
X213160Y20360D01*
X223320Y20360D02*
X223320Y10200D01*
X182680Y61000D02*
X182682Y61100D01*
X182688Y61201D01*
X182698Y61300D01*
X182712Y61400D01*
X182729Y61499D01*
X182751Y61597D01*
X182777Y61694D01*
X182806Y61790D01*
X182839Y61884D01*
X182876Y61978D01*
X182916Y62070D01*
X182960Y62160D01*
X183008Y62248D01*
X183059Y62335D01*
X183113Y62419D01*
X183171Y62501D01*
X183232Y62581D01*
X183296Y62658D01*
X183363Y62733D01*
X183433Y62805D01*
X183506Y62874D01*
X183581Y62940D01*
X183659Y63004D01*
X183739Y63064D01*
X183822Y63121D01*
X183907Y63174D01*
X183994Y63224D01*
X184083Y63271D01*
X184173Y63314D01*
X184265Y63354D01*
X184359Y63390D01*
X184454Y63422D01*
X184550Y63450D01*
X184648Y63475D01*
X184746Y63495D01*
X184845Y63512D01*
X184945Y63525D01*
X185044Y63534D01*
X185145Y63539D01*
X185245Y63540D01*
X185345Y63537D01*
X185446Y63530D01*
X185545Y63519D01*
X185645Y63504D01*
X185743Y63486D01*
X185841Y63463D01*
X185938Y63436D01*
X186033Y63406D01*
X186128Y63372D01*
X186221Y63334D01*
X186312Y63293D01*
X186402Y63248D01*
X186490Y63200D01*
X186576Y63148D01*
X186660Y63093D01*
X186741Y63034D01*
X186820Y62972D01*
X186897Y62908D01*
X186971Y62840D01*
X187042Y62769D01*
X187111Y62696D01*
X187176Y62620D01*
X187239Y62541D01*
X187298Y62460D01*
X187354Y62377D01*
X187407Y62292D01*
X187456Y62204D01*
X187502Y62115D01*
X187544Y62024D01*
X187583Y61931D01*
X187618Y61837D01*
X187649Y61742D01*
X187677Y61645D01*
X187700Y61548D01*
X187720Y61449D01*
X187736Y61350D01*
X187748Y61251D01*
X187756Y61150D01*
X187760Y61050D01*
X187760Y60950D01*
X187756Y60850D01*
X187748Y60749D01*
X187736Y60650D01*
X187720Y60551D01*
X187700Y60452D01*
X187677Y60355D01*
X187649Y60258D01*
X187618Y60163D01*
X187583Y60069D01*
X187544Y59976D01*
X187502Y59885D01*
X187456Y59796D01*
X187407Y59708D01*
X187354Y59623D01*
X187298Y59540D01*
X187239Y59459D01*
X187176Y59380D01*
X187111Y59304D01*
X187042Y59231D01*
X186971Y59160D01*
X186897Y59092D01*
X186820Y59028D01*
X186741Y58966D01*
X186660Y58907D01*
X186576Y58852D01*
X186490Y58800D01*
X186402Y58752D01*
X186312Y58707D01*
X186221Y58666D01*
X186128Y58628D01*
X186033Y58594D01*
X185938Y58564D01*
X185841Y58537D01*
X185743Y58514D01*
X185645Y58496D01*
X185545Y58481D01*
X185446Y58470D01*
X185345Y58463D01*
X185245Y58460D01*
X185145Y58461D01*
X185044Y58466D01*
X184945Y58475D01*
X184845Y58488D01*
X184746Y58505D01*
X184648Y58525D01*
X184550Y58550D01*
X184454Y58578D01*
X184359Y58610D01*
X184265Y58646D01*
X184173Y58686D01*
X184083Y58729D01*
X183994Y58776D01*
X183907Y58826D01*
X183822Y58879D01*
X183739Y58936D01*
X183659Y58996D01*
X183581Y59060D01*
X183506Y59126D01*
X183433Y59195D01*
X183363Y59267D01*
X183296Y59342D01*
X183232Y59419D01*
X183171Y59499D01*
X183113Y59581D01*
X183059Y59665D01*
X183008Y59752D01*
X182960Y59840D01*
X182916Y59930D01*
X182876Y60022D01*
X182839Y60116D01*
X182806Y60210D01*
X182777Y60306D01*
X182751Y60403D01*
X182729Y60501D01*
X182712Y60600D01*
X182698Y60700D01*
X182688Y60799D01*
X182682Y60900D01*
X182680Y61000D01*
D11*
X362608Y100092D02*
X374292Y100092D01*
X374292Y96846D01*
X374290Y96733D01*
X374284Y96620D01*
X374274Y96507D01*
X374260Y96394D01*
X374243Y96282D01*
X374221Y96171D01*
X374196Y96061D01*
X374166Y95951D01*
X374133Y95843D01*
X374096Y95736D01*
X374056Y95630D01*
X374011Y95526D01*
X373963Y95423D01*
X373912Y95322D01*
X373857Y95223D01*
X373799Y95126D01*
X373737Y95031D01*
X373672Y94938D01*
X373604Y94848D01*
X373533Y94760D01*
X373458Y94674D01*
X373381Y94591D01*
X373301Y94511D01*
X373218Y94434D01*
X373132Y94359D01*
X373044Y94288D01*
X372954Y94220D01*
X372861Y94155D01*
X372766Y94093D01*
X372669Y94035D01*
X372570Y93980D01*
X372469Y93929D01*
X372366Y93881D01*
X372262Y93836D01*
X372156Y93796D01*
X372049Y93759D01*
X371941Y93726D01*
X371831Y93696D01*
X371721Y93671D01*
X371610Y93649D01*
X371498Y93632D01*
X371385Y93618D01*
X371272Y93608D01*
X371159Y93602D01*
X371046Y93600D01*
X370933Y93602D01*
X370820Y93608D01*
X370707Y93618D01*
X370594Y93632D01*
X370482Y93649D01*
X370371Y93671D01*
X370261Y93696D01*
X370151Y93726D01*
X370043Y93759D01*
X369936Y93796D01*
X369830Y93836D01*
X369726Y93881D01*
X369623Y93929D01*
X369522Y93980D01*
X369423Y94035D01*
X369326Y94093D01*
X369231Y94155D01*
X369138Y94220D01*
X369048Y94288D01*
X368960Y94359D01*
X368874Y94434D01*
X368791Y94511D01*
X368711Y94591D01*
X368634Y94674D01*
X368559Y94760D01*
X368488Y94848D01*
X368420Y94938D01*
X368355Y95031D01*
X368293Y95126D01*
X368235Y95223D01*
X368180Y95322D01*
X368129Y95423D01*
X368081Y95526D01*
X368036Y95630D01*
X367996Y95736D01*
X367959Y95843D01*
X367926Y95951D01*
X367896Y96061D01*
X367871Y96171D01*
X367849Y96282D01*
X367832Y96394D01*
X367818Y96507D01*
X367808Y96620D01*
X367802Y96733D01*
X367800Y96846D01*
X367801Y96846D02*
X367801Y100092D01*
X365854Y89212D02*
X371046Y89212D01*
X371046Y89213D02*
X371159Y89211D01*
X371272Y89205D01*
X371385Y89195D01*
X371498Y89181D01*
X371610Y89164D01*
X371721Y89142D01*
X371831Y89117D01*
X371941Y89087D01*
X372049Y89054D01*
X372156Y89017D01*
X372262Y88977D01*
X372366Y88932D01*
X372469Y88884D01*
X372570Y88833D01*
X372669Y88778D01*
X372766Y88720D01*
X372861Y88658D01*
X372954Y88593D01*
X373044Y88525D01*
X373132Y88454D01*
X373218Y88379D01*
X373301Y88302D01*
X373381Y88222D01*
X373458Y88139D01*
X373533Y88053D01*
X373604Y87965D01*
X373672Y87875D01*
X373737Y87782D01*
X373799Y87687D01*
X373857Y87590D01*
X373912Y87491D01*
X373963Y87390D01*
X374011Y87287D01*
X374056Y87183D01*
X374096Y87077D01*
X374133Y86970D01*
X374166Y86862D01*
X374196Y86752D01*
X374221Y86642D01*
X374243Y86531D01*
X374260Y86419D01*
X374274Y86306D01*
X374284Y86193D01*
X374290Y86080D01*
X374292Y85967D01*
X374290Y85854D01*
X374284Y85741D01*
X374274Y85628D01*
X374260Y85515D01*
X374243Y85403D01*
X374221Y85292D01*
X374196Y85182D01*
X374166Y85072D01*
X374133Y84964D01*
X374096Y84857D01*
X374056Y84751D01*
X374011Y84647D01*
X373963Y84544D01*
X373912Y84443D01*
X373857Y84344D01*
X373799Y84247D01*
X373737Y84152D01*
X373672Y84059D01*
X373604Y83969D01*
X373533Y83881D01*
X373458Y83795D01*
X373381Y83712D01*
X373301Y83632D01*
X373218Y83555D01*
X373132Y83480D01*
X373044Y83409D01*
X372954Y83341D01*
X372861Y83276D01*
X372766Y83214D01*
X372669Y83156D01*
X372570Y83101D01*
X372469Y83050D01*
X372366Y83002D01*
X372262Y82957D01*
X372156Y82917D01*
X372049Y82880D01*
X371941Y82847D01*
X371831Y82817D01*
X371721Y82792D01*
X371610Y82770D01*
X371498Y82753D01*
X371385Y82739D01*
X371272Y82729D01*
X371159Y82723D01*
X371046Y82721D01*
X365854Y82721D01*
X365741Y82723D01*
X365628Y82729D01*
X365515Y82739D01*
X365402Y82753D01*
X365290Y82770D01*
X365179Y82792D01*
X365069Y82817D01*
X364959Y82847D01*
X364851Y82880D01*
X364744Y82917D01*
X364638Y82957D01*
X364534Y83002D01*
X364431Y83050D01*
X364330Y83101D01*
X364231Y83156D01*
X364134Y83214D01*
X364039Y83276D01*
X363946Y83341D01*
X363856Y83409D01*
X363768Y83480D01*
X363682Y83555D01*
X363599Y83632D01*
X363519Y83712D01*
X363442Y83795D01*
X363367Y83881D01*
X363296Y83969D01*
X363228Y84059D01*
X363163Y84152D01*
X363101Y84247D01*
X363043Y84344D01*
X362988Y84443D01*
X362937Y84544D01*
X362889Y84647D01*
X362844Y84751D01*
X362804Y84857D01*
X362767Y84964D01*
X362734Y85072D01*
X362704Y85182D01*
X362679Y85292D01*
X362657Y85403D01*
X362640Y85515D01*
X362626Y85628D01*
X362616Y85741D01*
X362610Y85854D01*
X362608Y85967D01*
X362610Y86080D01*
X362616Y86193D01*
X362626Y86306D01*
X362640Y86419D01*
X362657Y86531D01*
X362679Y86642D01*
X362704Y86752D01*
X362734Y86862D01*
X362767Y86970D01*
X362804Y87077D01*
X362844Y87183D01*
X362889Y87287D01*
X362937Y87390D01*
X362988Y87491D01*
X363043Y87590D01*
X363101Y87687D01*
X363163Y87782D01*
X363228Y87875D01*
X363296Y87965D01*
X363367Y88053D01*
X363442Y88139D01*
X363519Y88222D01*
X363599Y88302D01*
X363682Y88379D01*
X363768Y88454D01*
X363856Y88525D01*
X363946Y88593D01*
X364039Y88658D01*
X364134Y88720D01*
X364231Y88778D01*
X364330Y88833D01*
X364431Y88884D01*
X364534Y88932D01*
X364638Y88977D01*
X364744Y89017D01*
X364851Y89054D01*
X364959Y89087D01*
X365069Y89117D01*
X365179Y89142D01*
X365290Y89164D01*
X365402Y89181D01*
X365515Y89195D01*
X365628Y89205D01*
X365741Y89211D01*
X365854Y89213D01*
X362608Y75299D02*
X374292Y75299D01*
X374292Y78544D02*
X374292Y72053D01*
X371696Y67876D02*
X374292Y64631D01*
X362608Y64631D01*
X362608Y67876D02*
X362608Y61385D01*
M02*
