M48
;GenerationSoftware,Autodesk,EAGLE,9.6.2*%
;CreationDate,2022-11-17T00:18:06Z*%
FMAT,2
ICI,OFF
METRIC,TZ,000.000
T5C0.300
T4C1.000
T3C1.016
T2C1.100
T1C3.175
%
G90
M71
T1
X44144Y2786
X11124Y54856
X59384Y53586
T2
X59384Y15486
X59384Y18026
X59384Y20566
X59384Y23106
X59384Y5326
X59384Y7866
X64464Y51021
X67004Y51021
X64464Y48481
X67004Y48481
X64464Y45941
X67004Y45941
X64464Y43401
X67004Y43401
X64464Y40861
X67004Y40861
X64464Y38321
X67004Y38321
X3504Y28186
X64464Y35781
X67004Y35781
X64464Y33241
X67004Y33241
X64464Y30701
X67004Y30701
X64464Y28161
X67004Y28161
X64464Y25621
X64464Y23081
X67004Y23081
X64464Y20541
X67004Y20541
X64464Y18001
X67004Y18001
X64464Y15461
X67004Y15461
X64464Y12921
X67004Y12921
X64464Y10381
X67004Y10381
X64464Y7841
X67004Y7841
X64464Y5301
X67004Y5301
X11124Y18026
X11124Y15486
X11124Y12946
X11124Y10406
X11124Y7866
X11124Y5326
X11124Y40886
X11124Y38346
X11124Y35806
X11124Y33266
X11124Y30726
X11124Y28186
X11124Y25646
X11124Y23106
X3504Y51046
X6044Y51046
X3504Y48506
X6044Y48506
X3504Y45966
X6044Y45966
X3504Y43426
X6044Y43426
X3504Y40886
X6044Y40886
X3504Y38346
X6044Y38346
X3504Y35806
X6044Y35806
X3504Y33266
X6044Y33266
X3504Y30726
X6044Y30726
X67004Y25621
X6044Y28186
X3504Y25646
X6044Y25646
X3504Y23106
X6044Y23106
X3504Y20566
X6044Y20566
X3504Y18026
X6044Y18026
X3504Y15486
X6044Y15486
X3504Y12946
X6044Y12946
X3504Y10406
X6044Y10406
X3504Y7866
X6044Y7866
X3504Y5326
X6044Y5326
X59384Y27170
X59384Y29710
X59384Y32250
X59384Y34790
X59384Y37330
X59384Y39870
X59384Y42410
X59384Y44950
X59384Y47490
X59384Y50030
X59384Y10406
X59384Y12946
T3
X50546Y5334
X50546Y12954
X53086Y12954
X50546Y10414
X53086Y10414
X50546Y7874
X53086Y7874
X53086Y5334
T4
X30460Y6100
X20300Y6100
X25380Y6100
T5
X54356Y31496
X45974Y31496
X46736Y34798
X55626Y32766
X49530Y34036
X54864Y34544
X62992Y42672
X49784Y24638
X61976Y26162
X49530Y21590
X57912Y21590
X61722Y21844
X28702Y28448
X19304Y13208
X27178Y13208
X31242Y14478
X33528Y16764
X21844Y15240
X21844Y17780
X20828Y22860
X19050Y24638
X26670Y7874
X24130Y7874
X63246Y44704
X44704Y48006
X33528Y37592
X33528Y43688
X30734Y40640
X36576Y40640
X15240Y38354
X63500Y21844
X17018Y46736
X23876Y48006
X17018Y50038
X45212Y14478
X28956Y15494
M30