G04 EAGLE Gerber RS-274X export*
G75*
%MOMM*%
%FSLAX34Y34*%
%LPD*%
%INSolderpaste Top*%
%IPPOS*%
%AMOC8*
5,1,8,0,0,1.08239X$1,22.5*%
G01*
%ADD10R,1.300000X1.500000*%
%ADD11C,0.406400*%
%ADD12R,1.500000X1.300000*%
%ADD13C,0.450000*%
%ADD14C,0.525000*%
%ADD15C,1.000000*%


D10*
X207620Y467360D03*
X188620Y467360D03*
X207620Y500380D03*
X188620Y500380D03*
X192380Y383540D03*
X173380Y383540D03*
X254660Y162560D03*
X273660Y162560D03*
D11*
X424942Y221615D02*
X424942Y235585D01*
X429006Y235585D01*
X429006Y221615D01*
X424942Y221615D01*
X424942Y225476D02*
X429006Y225476D01*
X429006Y229337D02*
X424942Y229337D01*
X424942Y233198D02*
X429006Y233198D01*
X399034Y235585D02*
X399034Y221615D01*
X399034Y235585D02*
X403098Y235585D01*
X403098Y221615D01*
X399034Y221615D01*
X399034Y225476D02*
X403098Y225476D01*
X403098Y229337D02*
X399034Y229337D01*
X399034Y233198D02*
X403098Y233198D01*
D12*
X452120Y165760D03*
X452120Y184760D03*
X218440Y384200D03*
X218440Y403200D03*
D13*
X250150Y481570D02*
X260650Y481570D01*
X260650Y477070D01*
X250150Y477070D01*
X250150Y481570D01*
X250150Y481345D02*
X260650Y481345D01*
X260650Y468870D02*
X250150Y468870D01*
X260650Y468870D02*
X260650Y464370D01*
X250150Y464370D01*
X250150Y468870D01*
X250150Y468645D02*
X260650Y468645D01*
X260650Y456170D02*
X250150Y456170D01*
X260650Y456170D02*
X260650Y451670D01*
X250150Y451670D01*
X250150Y456170D01*
X250150Y455945D02*
X260650Y455945D01*
X260650Y443470D02*
X250150Y443470D01*
X260650Y443470D02*
X260650Y438970D01*
X250150Y438970D01*
X250150Y443470D01*
X250150Y443245D02*
X260650Y443245D01*
X260650Y430770D02*
X250150Y430770D01*
X260650Y430770D02*
X260650Y426270D01*
X250150Y426270D01*
X250150Y430770D01*
X250150Y430545D02*
X260650Y430545D01*
X260650Y418070D02*
X250150Y418070D01*
X260650Y418070D02*
X260650Y413570D01*
X250150Y413570D01*
X250150Y418070D01*
X250150Y417845D02*
X260650Y417845D01*
X260650Y405370D02*
X250150Y405370D01*
X260650Y405370D02*
X260650Y400870D01*
X250150Y400870D01*
X250150Y405370D01*
X250150Y405145D02*
X260650Y405145D01*
X260650Y392670D02*
X250150Y392670D01*
X260650Y392670D02*
X260650Y388170D01*
X250150Y388170D01*
X250150Y392670D01*
X250150Y392445D02*
X260650Y392445D01*
X260650Y379970D02*
X250150Y379970D01*
X260650Y379970D02*
X260650Y375470D01*
X250150Y375470D01*
X250150Y379970D01*
X250150Y379745D02*
X260650Y379745D01*
X260650Y367270D02*
X250150Y367270D01*
X260650Y367270D02*
X260650Y362770D01*
X250150Y362770D01*
X250150Y367270D01*
X250150Y367045D02*
X260650Y367045D01*
X260650Y354570D02*
X250150Y354570D01*
X260650Y354570D02*
X260650Y350070D01*
X250150Y350070D01*
X250150Y354570D01*
X250150Y354345D02*
X260650Y354345D01*
X260650Y341870D02*
X250150Y341870D01*
X260650Y341870D02*
X260650Y337370D01*
X250150Y337370D01*
X250150Y341870D01*
X250150Y341645D02*
X260650Y341645D01*
X260650Y329170D02*
X250150Y329170D01*
X260650Y329170D02*
X260650Y324670D01*
X250150Y324670D01*
X250150Y329170D01*
X250150Y328945D02*
X260650Y328945D01*
X260650Y316470D02*
X250150Y316470D01*
X260650Y316470D02*
X260650Y311970D01*
X250150Y311970D01*
X250150Y316470D01*
X250150Y316245D02*
X260650Y316245D01*
X425150Y481570D02*
X435650Y481570D01*
X435650Y477070D01*
X425150Y477070D01*
X425150Y481570D01*
X425150Y481345D02*
X435650Y481345D01*
X435650Y468870D02*
X425150Y468870D01*
X435650Y468870D02*
X435650Y464370D01*
X425150Y464370D01*
X425150Y468870D01*
X425150Y468645D02*
X435650Y468645D01*
X435650Y456170D02*
X425150Y456170D01*
X435650Y456170D02*
X435650Y451670D01*
X425150Y451670D01*
X425150Y456170D01*
X425150Y455945D02*
X435650Y455945D01*
X435650Y443470D02*
X425150Y443470D01*
X435650Y443470D02*
X435650Y438970D01*
X425150Y438970D01*
X425150Y443470D01*
X425150Y443245D02*
X435650Y443245D01*
X435650Y430770D02*
X425150Y430770D01*
X435650Y430770D02*
X435650Y426270D01*
X425150Y426270D01*
X425150Y430770D01*
X425150Y430545D02*
X435650Y430545D01*
X435650Y418070D02*
X425150Y418070D01*
X435650Y418070D02*
X435650Y413570D01*
X425150Y413570D01*
X425150Y418070D01*
X425150Y417845D02*
X435650Y417845D01*
X435650Y405370D02*
X425150Y405370D01*
X435650Y405370D02*
X435650Y400870D01*
X425150Y400870D01*
X425150Y405370D01*
X425150Y405145D02*
X435650Y405145D01*
X435650Y392670D02*
X425150Y392670D01*
X435650Y392670D02*
X435650Y388170D01*
X425150Y388170D01*
X425150Y392670D01*
X425150Y392445D02*
X435650Y392445D01*
X435650Y379970D02*
X425150Y379970D01*
X435650Y379970D02*
X435650Y375470D01*
X425150Y375470D01*
X425150Y379970D01*
X425150Y379745D02*
X435650Y379745D01*
X435650Y367270D02*
X425150Y367270D01*
X435650Y367270D02*
X435650Y362770D01*
X425150Y362770D01*
X425150Y367270D01*
X425150Y367045D02*
X435650Y367045D01*
X435650Y354570D02*
X425150Y354570D01*
X435650Y354570D02*
X435650Y350070D01*
X425150Y350070D01*
X425150Y354570D01*
X425150Y354345D02*
X435650Y354345D01*
X435650Y341870D02*
X425150Y341870D01*
X435650Y341870D02*
X435650Y337370D01*
X425150Y337370D01*
X425150Y341870D01*
X425150Y341645D02*
X435650Y341645D01*
X435650Y329170D02*
X425150Y329170D01*
X435650Y329170D02*
X435650Y324670D01*
X425150Y324670D01*
X425150Y329170D01*
X425150Y328945D02*
X435650Y328945D01*
X435650Y316470D02*
X425150Y316470D01*
X435650Y316470D02*
X435650Y311970D01*
X425150Y311970D01*
X425150Y316470D01*
X425150Y316245D02*
X435650Y316245D01*
D14*
X338725Y403295D02*
X333475Y403295D01*
X333475Y408545D01*
X338725Y408545D01*
X338725Y403295D01*
X338725Y408282D02*
X333475Y408282D01*
D13*
X283550Y306970D02*
X283550Y296470D01*
X283550Y306970D02*
X288050Y306970D01*
X288050Y296470D01*
X283550Y296470D01*
X283550Y300745D02*
X288050Y300745D01*
X288050Y305020D02*
X283550Y305020D01*
X296250Y306970D02*
X296250Y296470D01*
X296250Y306970D02*
X300750Y306970D01*
X300750Y296470D01*
X296250Y296470D01*
X296250Y300745D02*
X300750Y300745D01*
X300750Y305020D02*
X296250Y305020D01*
X308950Y306970D02*
X308950Y296470D01*
X308950Y306970D02*
X313450Y306970D01*
X313450Y296470D01*
X308950Y296470D01*
X308950Y300745D02*
X313450Y300745D01*
X313450Y305020D02*
X308950Y305020D01*
X321650Y306970D02*
X321650Y296470D01*
X321650Y306970D02*
X326150Y306970D01*
X326150Y296470D01*
X321650Y296470D01*
X321650Y300745D02*
X326150Y300745D01*
X326150Y305020D02*
X321650Y305020D01*
X334350Y306970D02*
X334350Y296470D01*
X334350Y306970D02*
X338850Y306970D01*
X338850Y296470D01*
X334350Y296470D01*
X334350Y300745D02*
X338850Y300745D01*
X338850Y305020D02*
X334350Y305020D01*
X347050Y306970D02*
X347050Y296470D01*
X347050Y306970D02*
X351550Y306970D01*
X351550Y296470D01*
X347050Y296470D01*
X347050Y300745D02*
X351550Y300745D01*
X351550Y305020D02*
X347050Y305020D01*
X359750Y306970D02*
X359750Y296470D01*
X359750Y306970D02*
X364250Y306970D01*
X364250Y296470D01*
X359750Y296470D01*
X359750Y300745D02*
X364250Y300745D01*
X364250Y305020D02*
X359750Y305020D01*
X372450Y306970D02*
X372450Y296470D01*
X372450Y306970D02*
X376950Y306970D01*
X376950Y296470D01*
X372450Y296470D01*
X372450Y300745D02*
X376950Y300745D01*
X376950Y305020D02*
X372450Y305020D01*
X385150Y306970D02*
X385150Y296470D01*
X385150Y306970D02*
X389650Y306970D01*
X389650Y296470D01*
X385150Y296470D01*
X385150Y300745D02*
X389650Y300745D01*
X389650Y305020D02*
X385150Y305020D01*
X397850Y306970D02*
X397850Y296470D01*
X397850Y306970D02*
X402350Y306970D01*
X402350Y296470D01*
X397850Y296470D01*
X397850Y300745D02*
X402350Y300745D01*
X402350Y305020D02*
X397850Y305020D01*
D14*
X323475Y403295D02*
X318225Y403295D01*
X318225Y408545D01*
X323475Y408545D01*
X323475Y403295D01*
X323475Y408282D02*
X318225Y408282D01*
X348725Y403295D02*
X353975Y403295D01*
X348725Y403295D02*
X348725Y408545D01*
X353975Y408545D01*
X353975Y403295D01*
X353975Y408282D02*
X348725Y408282D01*
X338725Y418545D02*
X333475Y418545D01*
X333475Y423795D01*
X338725Y423795D01*
X338725Y418545D01*
X338725Y423532D02*
X333475Y423532D01*
X323475Y418545D02*
X318225Y418545D01*
X318225Y423795D01*
X323475Y423795D01*
X323475Y418545D01*
X323475Y423532D02*
X318225Y423532D01*
X348725Y418545D02*
X353975Y418545D01*
X348725Y418545D02*
X348725Y423795D01*
X353975Y423795D01*
X353975Y418545D01*
X353975Y423532D02*
X348725Y423532D01*
X338725Y388045D02*
X333475Y388045D01*
X333475Y393295D01*
X338725Y393295D01*
X338725Y388045D01*
X338725Y393032D02*
X333475Y393032D01*
X323475Y388045D02*
X318225Y388045D01*
X318225Y393295D01*
X323475Y393295D01*
X323475Y388045D01*
X323475Y393032D02*
X318225Y393032D01*
X348725Y388045D02*
X353975Y388045D01*
X348725Y388045D02*
X348725Y393295D01*
X353975Y393295D01*
X353975Y388045D01*
X353975Y393032D02*
X348725Y393032D01*
D15*
X396320Y160100D02*
X406320Y160100D01*
X396320Y160100D02*
X396320Y170100D01*
X406320Y170100D01*
X406320Y160100D01*
X406320Y169600D02*
X396320Y169600D01*
X175180Y157560D02*
X165180Y157560D01*
X165180Y167560D01*
X175180Y167560D01*
X175180Y157560D01*
X175180Y167060D02*
X165180Y167060D01*
M02*
