G04 EAGLE Gerber RS-274X export*
G75*
%MOMM*%
%FSLAX34Y34*%
%LPD*%
%INBottom Copper*%
%IPPOS*%
%AMOC8*
5,1,8,0,0,1.08239X$1,22.5*%
G01*
%ADD10P,1.649562X8X292.500000*%
%ADD11R,1.850000X1.850000*%
%ADD12C,1.850000*%
%ADD13C,1.508000*%
%ADD14C,0.452400*%
%ADD15C,0.254000*%

G36*
X701060Y2004D02*
X701060Y2004D01*
X701079Y2002D01*
X701181Y2024D01*
X701283Y2040D01*
X701300Y2050D01*
X701320Y2054D01*
X701409Y2107D01*
X701500Y2156D01*
X701514Y2170D01*
X701531Y2180D01*
X701598Y2259D01*
X701670Y2334D01*
X701678Y2352D01*
X701691Y2367D01*
X701730Y2463D01*
X701773Y2557D01*
X701775Y2577D01*
X701783Y2595D01*
X701801Y2762D01*
X701801Y591498D01*
X701798Y591518D01*
X701800Y591537D01*
X701778Y591639D01*
X701762Y591741D01*
X701752Y591758D01*
X701748Y591778D01*
X701695Y591867D01*
X701646Y591958D01*
X701632Y591972D01*
X701622Y591989D01*
X701543Y592056D01*
X701468Y592128D01*
X701450Y592136D01*
X701435Y592149D01*
X701339Y592188D01*
X701245Y592231D01*
X701225Y592233D01*
X701207Y592241D01*
X701040Y592259D01*
X2762Y592259D01*
X2742Y592256D01*
X2723Y592258D01*
X2621Y592236D01*
X2519Y592220D01*
X2502Y592210D01*
X2482Y592206D01*
X2393Y592153D01*
X2302Y592104D01*
X2288Y592090D01*
X2271Y592080D01*
X2204Y592001D01*
X2132Y591926D01*
X2124Y591908D01*
X2111Y591893D01*
X2072Y591797D01*
X2029Y591703D01*
X2027Y591683D01*
X2019Y591665D01*
X2001Y591498D01*
X2001Y2762D01*
X2004Y2742D01*
X2002Y2723D01*
X2024Y2621D01*
X2040Y2519D01*
X2050Y2502D01*
X2054Y2482D01*
X2107Y2393D01*
X2156Y2302D01*
X2170Y2288D01*
X2180Y2271D01*
X2259Y2204D01*
X2334Y2132D01*
X2352Y2124D01*
X2367Y2111D01*
X2463Y2072D01*
X2557Y2029D01*
X2577Y2027D01*
X2595Y2019D01*
X2762Y2001D01*
X701040Y2001D01*
X701060Y2004D01*
G37*
%LPC*%
G36*
X107684Y530684D02*
X107684Y530684D01*
X101114Y533406D01*
X96086Y538434D01*
X93364Y545004D01*
X93364Y552116D01*
X96086Y558686D01*
X101114Y563714D01*
X107684Y566436D01*
X114796Y566436D01*
X121366Y563714D01*
X126394Y558686D01*
X129116Y552116D01*
X129116Y545004D01*
X126394Y538434D01*
X121366Y533406D01*
X114796Y530684D01*
X107684Y530684D01*
G37*
%LPD*%
%LPC*%
G36*
X590284Y517984D02*
X590284Y517984D01*
X583714Y520706D01*
X578686Y525734D01*
X575964Y532304D01*
X575964Y539416D01*
X578686Y545986D01*
X583714Y551014D01*
X590284Y553736D01*
X597396Y553736D01*
X603966Y551014D01*
X608994Y545986D01*
X611716Y539416D01*
X611716Y532304D01*
X608994Y525734D01*
X603966Y520706D01*
X597396Y517984D01*
X590284Y517984D01*
G37*
%LPD*%
%LPC*%
G36*
X437884Y9984D02*
X437884Y9984D01*
X431314Y12706D01*
X426286Y17734D01*
X423564Y24304D01*
X423564Y31416D01*
X426286Y37986D01*
X431314Y43014D01*
X437884Y45736D01*
X444996Y45736D01*
X451566Y43014D01*
X456594Y37986D01*
X459316Y31416D01*
X459316Y24304D01*
X456594Y17734D01*
X451566Y12706D01*
X444996Y9984D01*
X437884Y9984D01*
G37*
%LPD*%
%LPC*%
G36*
X496377Y242847D02*
X496377Y242847D01*
X494307Y244917D01*
X494307Y247843D01*
X496377Y249913D01*
X499303Y249913D01*
X500072Y249144D01*
X500146Y249091D01*
X500216Y249031D01*
X500246Y249019D01*
X500272Y249000D01*
X500359Y248973D01*
X500444Y248939D01*
X500485Y248935D01*
X500507Y248928D01*
X500539Y248929D01*
X500611Y248921D01*
X603152Y248921D01*
X603242Y248935D01*
X603333Y248943D01*
X603363Y248955D01*
X603395Y248960D01*
X603476Y249003D01*
X603560Y249039D01*
X603592Y249065D01*
X603612Y249076D01*
X603635Y249099D01*
X603691Y249144D01*
X616004Y261457D01*
X616057Y261531D01*
X616117Y261601D01*
X616129Y261631D01*
X616148Y261657D01*
X616175Y261744D01*
X616209Y261829D01*
X616213Y261870D01*
X616220Y261892D01*
X616219Y261924D01*
X616227Y261996D01*
X616227Y263083D01*
X618297Y265153D01*
X621223Y265153D01*
X623293Y263083D01*
X623293Y260157D01*
X621223Y258087D01*
X620136Y258087D01*
X620046Y258073D01*
X619955Y258065D01*
X619925Y258053D01*
X619893Y258048D01*
X619812Y258005D01*
X619728Y257969D01*
X619696Y257943D01*
X619676Y257932D01*
X619653Y257909D01*
X619597Y257864D01*
X605572Y243839D01*
X500611Y243839D01*
X500521Y243825D01*
X500430Y243817D01*
X500400Y243805D01*
X500368Y243800D01*
X500287Y243757D01*
X500203Y243721D01*
X500171Y243695D01*
X500151Y243684D01*
X500128Y243661D01*
X500072Y243616D01*
X499303Y242847D01*
X496377Y242847D01*
G37*
%LPD*%
%LPC*%
G36*
X554797Y324127D02*
X554797Y324127D01*
X554028Y324896D01*
X553954Y324949D01*
X553884Y325009D01*
X553854Y325021D01*
X553828Y325040D01*
X553741Y325067D01*
X553656Y325101D01*
X553615Y325105D01*
X553593Y325112D01*
X553561Y325111D01*
X553489Y325119D01*
X486628Y325119D01*
X467523Y344224D01*
X467449Y344277D01*
X467379Y344337D01*
X467349Y344349D01*
X467323Y344368D01*
X467236Y344395D01*
X467151Y344429D01*
X467110Y344433D01*
X467088Y344440D01*
X467056Y344439D01*
X466984Y344447D01*
X465897Y344447D01*
X463827Y346517D01*
X463827Y349443D01*
X465897Y351513D01*
X468823Y351513D01*
X470893Y349443D01*
X470893Y348356D01*
X470895Y348342D01*
X470894Y348330D01*
X470907Y348271D01*
X470907Y348266D01*
X470915Y348175D01*
X470927Y348145D01*
X470932Y348113D01*
X470975Y348032D01*
X471011Y347948D01*
X471037Y347916D01*
X471048Y347896D01*
X471071Y347873D01*
X471116Y347817D01*
X488509Y330424D01*
X488583Y330371D01*
X488653Y330311D01*
X488683Y330299D01*
X488709Y330280D01*
X488796Y330253D01*
X488881Y330219D01*
X488922Y330215D01*
X488944Y330208D01*
X488976Y330209D01*
X489048Y330201D01*
X553489Y330201D01*
X553579Y330215D01*
X553670Y330223D01*
X553700Y330235D01*
X553732Y330240D01*
X553813Y330283D01*
X553897Y330319D01*
X553929Y330345D01*
X553949Y330356D01*
X553972Y330379D01*
X554028Y330424D01*
X554797Y331193D01*
X557723Y331193D01*
X559793Y329123D01*
X559793Y326197D01*
X557723Y324127D01*
X554797Y324127D01*
G37*
%LPD*%
%LPC*%
G36*
X615757Y214907D02*
X615757Y214907D01*
X613687Y216977D01*
X613687Y219903D01*
X615757Y221973D01*
X618683Y221973D01*
X619452Y221204D01*
X619526Y221151D01*
X619596Y221091D01*
X619626Y221079D01*
X619652Y221060D01*
X619739Y221033D01*
X619824Y220999D01*
X619865Y220995D01*
X619887Y220988D01*
X619919Y220989D01*
X619991Y220981D01*
X632229Y220981D01*
X632319Y220995D01*
X632410Y221003D01*
X632440Y221015D01*
X632472Y221020D01*
X632553Y221063D01*
X632637Y221099D01*
X632669Y221125D01*
X632689Y221136D01*
X632712Y221159D01*
X632768Y221204D01*
X633537Y221973D01*
X636761Y221973D01*
X636832Y221984D01*
X636903Y221986D01*
X636952Y222004D01*
X637004Y222012D01*
X637067Y222046D01*
X637134Y222071D01*
X637175Y222103D01*
X637221Y222128D01*
X637270Y222180D01*
X637326Y222224D01*
X637355Y222268D01*
X637390Y222306D01*
X637421Y222371D01*
X637459Y222431D01*
X637472Y222482D01*
X637494Y222529D01*
X637502Y222600D01*
X637519Y222670D01*
X637515Y222722D01*
X637521Y222773D01*
X637506Y222844D01*
X637500Y222915D01*
X637480Y222963D01*
X637469Y223014D01*
X637432Y223075D01*
X637404Y223141D01*
X637359Y223197D01*
X637343Y223225D01*
X637325Y223240D01*
X637299Y223272D01*
X635721Y224851D01*
X634119Y228717D01*
X634119Y232903D01*
X635721Y236770D01*
X638680Y239729D01*
X642547Y241331D01*
X646733Y241331D01*
X650600Y239729D01*
X653559Y236770D01*
X655161Y232903D01*
X655161Y228717D01*
X653559Y224851D01*
X650600Y221891D01*
X646733Y220289D01*
X642547Y220289D01*
X638571Y221936D01*
X638476Y221959D01*
X638383Y221987D01*
X638357Y221987D01*
X638331Y221993D01*
X638234Y221984D01*
X638137Y221981D01*
X638112Y221972D01*
X638086Y221970D01*
X637998Y221930D01*
X637906Y221897D01*
X637886Y221880D01*
X637862Y221870D01*
X637790Y221804D01*
X637714Y221743D01*
X637700Y221721D01*
X637681Y221703D01*
X637634Y221618D01*
X637581Y221536D01*
X637575Y221511D01*
X637562Y221488D01*
X637545Y221392D01*
X637521Y221297D01*
X637523Y221271D01*
X637518Y221246D01*
X637532Y221149D01*
X637540Y221052D01*
X637550Y221028D01*
X637554Y221002D01*
X637598Y220915D01*
X637636Y220826D01*
X637657Y220800D01*
X637666Y220783D01*
X637689Y220760D01*
X637741Y220695D01*
X638533Y219903D01*
X638533Y216977D01*
X636463Y214907D01*
X633537Y214907D01*
X632768Y215676D01*
X632694Y215729D01*
X632624Y215789D01*
X632594Y215801D01*
X632568Y215820D01*
X632481Y215847D01*
X632396Y215881D01*
X632355Y215885D01*
X632333Y215892D01*
X632301Y215891D01*
X632229Y215899D01*
X619991Y215899D01*
X619901Y215885D01*
X619810Y215877D01*
X619780Y215865D01*
X619748Y215860D01*
X619667Y215817D01*
X619583Y215781D01*
X619551Y215755D01*
X619531Y215744D01*
X619508Y215721D01*
X619452Y215676D01*
X618683Y214907D01*
X615757Y214907D01*
G37*
%LPD*%
%LPC*%
G36*
X493837Y212367D02*
X493837Y212367D01*
X491767Y214437D01*
X491767Y217363D01*
X493837Y219433D01*
X496763Y219433D01*
X497532Y218664D01*
X497606Y218611D01*
X497676Y218551D01*
X497706Y218539D01*
X497732Y218520D01*
X497819Y218493D01*
X497904Y218459D01*
X497945Y218455D01*
X497967Y218448D01*
X497999Y218449D01*
X498071Y218441D01*
X576349Y218441D01*
X576439Y218455D01*
X576530Y218463D01*
X576560Y218475D01*
X576592Y218480D01*
X576673Y218523D01*
X576757Y218559D01*
X576789Y218585D01*
X576809Y218596D01*
X576832Y218619D01*
X576888Y218664D01*
X577657Y219433D01*
X580583Y219433D01*
X582653Y217363D01*
X582653Y214437D01*
X580583Y212367D01*
X577657Y212367D01*
X576888Y213136D01*
X576814Y213189D01*
X576744Y213249D01*
X576714Y213261D01*
X576688Y213280D01*
X576601Y213307D01*
X576516Y213341D01*
X576475Y213345D01*
X576453Y213352D01*
X576421Y213351D01*
X576349Y213359D01*
X498071Y213359D01*
X497981Y213345D01*
X497890Y213337D01*
X497860Y213325D01*
X497828Y213320D01*
X497747Y213277D01*
X497663Y213241D01*
X497631Y213215D01*
X497611Y213204D01*
X497588Y213181D01*
X497532Y213136D01*
X496763Y212367D01*
X493837Y212367D01*
G37*
%LPD*%
%LPC*%
G36*
X458277Y311427D02*
X458277Y311427D01*
X456207Y313497D01*
X456207Y316423D01*
X458277Y318493D01*
X461203Y318493D01*
X461972Y317724D01*
X462046Y317671D01*
X462116Y317611D01*
X462146Y317599D01*
X462172Y317580D01*
X462259Y317553D01*
X462344Y317519D01*
X462385Y317515D01*
X462407Y317508D01*
X462439Y317509D01*
X462511Y317501D01*
X540789Y317501D01*
X540879Y317515D01*
X540970Y317523D01*
X541000Y317535D01*
X541032Y317540D01*
X541113Y317583D01*
X541197Y317619D01*
X541229Y317645D01*
X541250Y317656D01*
X541272Y317679D01*
X541328Y317724D01*
X542097Y318493D01*
X545023Y318493D01*
X547093Y316423D01*
X547093Y313497D01*
X545023Y311427D01*
X542097Y311427D01*
X541328Y312196D01*
X541254Y312249D01*
X541184Y312309D01*
X541154Y312321D01*
X541128Y312340D01*
X541041Y312367D01*
X540956Y312401D01*
X540915Y312405D01*
X540893Y312412D01*
X540861Y312411D01*
X540789Y312419D01*
X462511Y312419D01*
X462421Y312405D01*
X462330Y312397D01*
X462300Y312385D01*
X462268Y312380D01*
X462187Y312337D01*
X462103Y312301D01*
X462071Y312275D01*
X462051Y312264D01*
X462028Y312241D01*
X461972Y312196D01*
X461203Y311427D01*
X458277Y311427D01*
G37*
%LPD*%
%LPC*%
G36*
X191577Y128547D02*
X191577Y128547D01*
X189507Y130617D01*
X189507Y133543D01*
X191577Y135613D01*
X194503Y135613D01*
X195272Y134844D01*
X195346Y134791D01*
X195416Y134731D01*
X195446Y134719D01*
X195472Y134700D01*
X195559Y134673D01*
X195644Y134639D01*
X195685Y134635D01*
X195707Y134628D01*
X195739Y134629D01*
X195811Y134621D01*
X269009Y134621D01*
X269099Y134635D01*
X269190Y134643D01*
X269220Y134655D01*
X269252Y134660D01*
X269333Y134703D01*
X269417Y134739D01*
X269449Y134765D01*
X269469Y134776D01*
X269492Y134799D01*
X269548Y134844D01*
X270317Y135613D01*
X273243Y135613D01*
X275313Y133543D01*
X275313Y130617D01*
X273243Y128547D01*
X270317Y128547D01*
X269548Y129316D01*
X269474Y129369D01*
X269404Y129429D01*
X269374Y129441D01*
X269348Y129460D01*
X269261Y129487D01*
X269176Y129521D01*
X269135Y129525D01*
X269113Y129532D01*
X269081Y129531D01*
X269009Y129539D01*
X195811Y129539D01*
X195721Y129525D01*
X195630Y129517D01*
X195600Y129505D01*
X195568Y129500D01*
X195487Y129457D01*
X195403Y129421D01*
X195371Y129395D01*
X195351Y129384D01*
X195328Y129361D01*
X195272Y129316D01*
X194503Y128547D01*
X191577Y128547D01*
G37*
%LPD*%
%LPC*%
G36*
X101464Y398339D02*
X101464Y398339D01*
X100719Y399084D01*
X100719Y418636D01*
X101464Y419381D01*
X121016Y419381D01*
X121761Y418636D01*
X121761Y399084D01*
X121016Y398339D01*
X101464Y398339D01*
G37*
%LPD*%
%LPC*%
G36*
X25264Y499939D02*
X25264Y499939D01*
X24519Y500684D01*
X24519Y520236D01*
X25264Y520981D01*
X44816Y520981D01*
X45561Y520236D01*
X45561Y500684D01*
X44816Y499939D01*
X25264Y499939D01*
G37*
%LPD*%
%LPC*%
G36*
X584064Y261179D02*
X584064Y261179D01*
X583319Y261924D01*
X583319Y281476D01*
X584064Y282221D01*
X603616Y282221D01*
X604361Y281476D01*
X604361Y261924D01*
X603616Y261179D01*
X584064Y261179D01*
G37*
%LPD*%
%LPC*%
G36*
X634864Y499689D02*
X634864Y499689D01*
X634119Y500434D01*
X634119Y519986D01*
X634864Y520731D01*
X654416Y520731D01*
X655161Y519986D01*
X655161Y500434D01*
X654416Y499689D01*
X634864Y499689D01*
G37*
%LPD*%
%LPC*%
G36*
X584064Y42739D02*
X584064Y42739D01*
X583319Y43484D01*
X583319Y63036D01*
X584064Y63781D01*
X603616Y63781D01*
X604361Y63036D01*
X604361Y43484D01*
X603616Y42739D01*
X584064Y42739D01*
G37*
%LPD*%
%LPC*%
G36*
X101464Y169739D02*
X101464Y169739D01*
X100719Y170484D01*
X100719Y190036D01*
X101464Y190781D01*
X121016Y190781D01*
X121761Y190036D01*
X121761Y170484D01*
X121016Y169739D01*
X101464Y169739D01*
G37*
%LPD*%
%LPC*%
G36*
X58347Y499939D02*
X58347Y499939D01*
X54480Y501541D01*
X51521Y504500D01*
X49919Y508367D01*
X49919Y512553D01*
X51521Y516420D01*
X54480Y519379D01*
X58347Y520981D01*
X62533Y520981D01*
X66400Y519379D01*
X69359Y516420D01*
X70961Y512553D01*
X70961Y508367D01*
X69359Y504500D01*
X66400Y501541D01*
X62533Y499939D01*
X58347Y499939D01*
G37*
%LPD*%
%LPC*%
G36*
X667947Y499689D02*
X667947Y499689D01*
X664080Y501291D01*
X661121Y504251D01*
X659519Y508117D01*
X659519Y512303D01*
X661121Y516170D01*
X664080Y519129D01*
X667947Y520731D01*
X672133Y520731D01*
X676000Y519129D01*
X678959Y516170D01*
X680561Y512303D01*
X680561Y508117D01*
X678959Y504251D01*
X676000Y501291D01*
X672133Y499689D01*
X667947Y499689D01*
G37*
%LPD*%
%LPC*%
G36*
X591747Y489779D02*
X591747Y489779D01*
X587880Y491381D01*
X584921Y494340D01*
X583319Y498207D01*
X583319Y502393D01*
X584921Y506260D01*
X587880Y509219D01*
X591747Y510821D01*
X595933Y510821D01*
X599800Y509219D01*
X602759Y506260D01*
X604361Y502393D01*
X604361Y498207D01*
X602759Y494340D01*
X599800Y491381D01*
X595933Y489779D01*
X591747Y489779D01*
G37*
%LPD*%
%LPC*%
G36*
X58347Y474539D02*
X58347Y474539D01*
X54480Y476141D01*
X51521Y479100D01*
X49919Y482967D01*
X49919Y487153D01*
X51521Y491020D01*
X54480Y493979D01*
X58347Y495581D01*
X62533Y495581D01*
X66400Y493979D01*
X69359Y491020D01*
X70961Y487153D01*
X70961Y482967D01*
X69359Y479100D01*
X66400Y476141D01*
X62533Y474539D01*
X58347Y474539D01*
G37*
%LPD*%
%LPC*%
G36*
X32947Y474539D02*
X32947Y474539D01*
X29080Y476141D01*
X26121Y479100D01*
X24519Y482967D01*
X24519Y487153D01*
X26121Y491020D01*
X29080Y493979D01*
X32947Y495581D01*
X37133Y495581D01*
X41000Y493979D01*
X43959Y491020D01*
X45561Y487153D01*
X45561Y482967D01*
X43959Y479100D01*
X41000Y476141D01*
X37133Y474539D01*
X32947Y474539D01*
G37*
%LPD*%
%LPC*%
G36*
X667947Y474289D02*
X667947Y474289D01*
X664080Y475891D01*
X661121Y478851D01*
X659519Y482717D01*
X659519Y486903D01*
X661121Y490770D01*
X664080Y493729D01*
X667947Y495331D01*
X672133Y495331D01*
X676000Y493729D01*
X678959Y490770D01*
X680561Y486903D01*
X680561Y482717D01*
X678959Y478851D01*
X676000Y475891D01*
X672133Y474289D01*
X667947Y474289D01*
G37*
%LPD*%
%LPC*%
G36*
X642547Y474289D02*
X642547Y474289D01*
X638680Y475891D01*
X635721Y478851D01*
X634119Y482717D01*
X634119Y486903D01*
X635721Y490770D01*
X638680Y493729D01*
X642547Y495331D01*
X646733Y495331D01*
X650600Y493729D01*
X653559Y490770D01*
X655161Y486903D01*
X655161Y482717D01*
X653559Y478851D01*
X650600Y475891D01*
X646733Y474289D01*
X642547Y474289D01*
G37*
%LPD*%
%LPC*%
G36*
X591747Y464379D02*
X591747Y464379D01*
X587880Y465981D01*
X584921Y468940D01*
X583319Y472807D01*
X583319Y476993D01*
X584921Y480860D01*
X587880Y483819D01*
X591747Y485421D01*
X595933Y485421D01*
X599800Y483819D01*
X602759Y480860D01*
X604361Y476993D01*
X604361Y472807D01*
X602759Y468940D01*
X599800Y465981D01*
X595933Y464379D01*
X591747Y464379D01*
G37*
%LPD*%
%LPC*%
G36*
X58347Y449139D02*
X58347Y449139D01*
X54480Y450741D01*
X51521Y453700D01*
X49919Y457567D01*
X49919Y461753D01*
X51521Y465620D01*
X54480Y468579D01*
X58347Y470181D01*
X62533Y470181D01*
X66400Y468579D01*
X69359Y465620D01*
X70961Y461753D01*
X70961Y457567D01*
X69359Y453700D01*
X66400Y450741D01*
X62533Y449139D01*
X58347Y449139D01*
G37*
%LPD*%
%LPC*%
G36*
X32947Y449139D02*
X32947Y449139D01*
X29080Y450741D01*
X26121Y453700D01*
X24519Y457567D01*
X24519Y461753D01*
X26121Y465620D01*
X29080Y468579D01*
X32947Y470181D01*
X37133Y470181D01*
X41000Y468579D01*
X43959Y465620D01*
X45561Y461753D01*
X45561Y457567D01*
X43959Y453700D01*
X41000Y450741D01*
X37133Y449139D01*
X32947Y449139D01*
G37*
%LPD*%
%LPC*%
G36*
X667947Y448889D02*
X667947Y448889D01*
X664080Y450491D01*
X661121Y453451D01*
X659519Y457317D01*
X659519Y461503D01*
X661121Y465370D01*
X664080Y468329D01*
X667947Y469931D01*
X672133Y469931D01*
X676000Y468329D01*
X678959Y465370D01*
X680561Y461503D01*
X680561Y457317D01*
X678959Y453451D01*
X676000Y450491D01*
X672133Y448889D01*
X667947Y448889D01*
G37*
%LPD*%
%LPC*%
G36*
X642547Y448889D02*
X642547Y448889D01*
X638680Y450491D01*
X635721Y453451D01*
X634119Y457317D01*
X634119Y461503D01*
X635721Y465370D01*
X638680Y468329D01*
X642547Y469931D01*
X646733Y469931D01*
X650600Y468329D01*
X653559Y465370D01*
X655161Y461503D01*
X655161Y457317D01*
X653559Y453451D01*
X650600Y450491D01*
X646733Y448889D01*
X642547Y448889D01*
G37*
%LPD*%
%LPC*%
G36*
X591747Y438979D02*
X591747Y438979D01*
X587880Y440581D01*
X584921Y443540D01*
X583319Y447407D01*
X583319Y451593D01*
X584921Y455460D01*
X587880Y458419D01*
X591747Y460021D01*
X595933Y460021D01*
X599800Y458419D01*
X602759Y455460D01*
X604361Y451593D01*
X604361Y447407D01*
X602759Y443540D01*
X599800Y440581D01*
X595933Y438979D01*
X591747Y438979D01*
G37*
%LPD*%
%LPC*%
G36*
X32947Y195139D02*
X32947Y195139D01*
X29080Y196741D01*
X26121Y199700D01*
X24519Y203567D01*
X24519Y207753D01*
X26121Y211620D01*
X29080Y214579D01*
X32947Y216181D01*
X37133Y216181D01*
X41000Y214579D01*
X43959Y211620D01*
X45561Y207753D01*
X45561Y203567D01*
X43959Y199700D01*
X41000Y196741D01*
X37133Y195139D01*
X32947Y195139D01*
G37*
%LPD*%
%LPC*%
G36*
X667947Y194889D02*
X667947Y194889D01*
X664080Y196491D01*
X661121Y199451D01*
X659519Y203317D01*
X659519Y207503D01*
X661121Y211370D01*
X664080Y214329D01*
X667947Y215931D01*
X672133Y215931D01*
X676000Y214329D01*
X678959Y211370D01*
X680561Y207503D01*
X680561Y203317D01*
X678959Y199451D01*
X676000Y196491D01*
X672133Y194889D01*
X667947Y194889D01*
G37*
%LPD*%
%LPC*%
G36*
X642547Y194889D02*
X642547Y194889D01*
X638680Y196491D01*
X635721Y199451D01*
X634119Y203317D01*
X634119Y207503D01*
X635721Y211370D01*
X638680Y214329D01*
X642547Y215931D01*
X646733Y215931D01*
X650600Y214329D01*
X653559Y211370D01*
X655161Y207503D01*
X655161Y203317D01*
X653559Y199451D01*
X650600Y196491D01*
X646733Y194889D01*
X642547Y194889D01*
G37*
%LPD*%
%LPC*%
G36*
X591747Y169739D02*
X591747Y169739D01*
X587880Y171341D01*
X584921Y174300D01*
X583319Y178167D01*
X583319Y182353D01*
X584921Y186220D01*
X587880Y189179D01*
X591747Y190781D01*
X595933Y190781D01*
X599800Y189179D01*
X602759Y186220D01*
X604361Y182353D01*
X604361Y178167D01*
X602759Y174300D01*
X599800Y171341D01*
X595933Y169739D01*
X591747Y169739D01*
G37*
%LPD*%
%LPC*%
G36*
X58347Y169739D02*
X58347Y169739D01*
X54480Y171341D01*
X51521Y174300D01*
X49919Y178167D01*
X49919Y182353D01*
X51521Y186220D01*
X54480Y189179D01*
X58347Y190781D01*
X62533Y190781D01*
X66400Y189179D01*
X69359Y186220D01*
X70961Y182353D01*
X70961Y178167D01*
X69359Y174300D01*
X66400Y171341D01*
X62533Y169739D01*
X58347Y169739D01*
G37*
%LPD*%
%LPC*%
G36*
X667947Y423489D02*
X667947Y423489D01*
X664080Y425091D01*
X661121Y428051D01*
X659519Y431917D01*
X659519Y436103D01*
X661121Y439970D01*
X664080Y442929D01*
X667947Y444531D01*
X672133Y444531D01*
X676000Y442929D01*
X678959Y439970D01*
X680561Y436103D01*
X680561Y431917D01*
X678959Y428051D01*
X676000Y425091D01*
X672133Y423489D01*
X667947Y423489D01*
G37*
%LPD*%
%LPC*%
G36*
X642547Y423489D02*
X642547Y423489D01*
X638680Y425091D01*
X635721Y428051D01*
X634119Y431917D01*
X634119Y436103D01*
X635721Y439970D01*
X638680Y442929D01*
X642547Y444531D01*
X646733Y444531D01*
X650600Y442929D01*
X653559Y439970D01*
X655161Y436103D01*
X655161Y431917D01*
X653559Y428051D01*
X650600Y425091D01*
X646733Y423489D01*
X642547Y423489D01*
G37*
%LPD*%
%LPC*%
G36*
X32947Y169739D02*
X32947Y169739D01*
X29080Y171341D01*
X26121Y174300D01*
X24519Y178167D01*
X24519Y182353D01*
X26121Y186220D01*
X29080Y189179D01*
X32947Y190781D01*
X37133Y190781D01*
X41000Y189179D01*
X43959Y186220D01*
X45561Y182353D01*
X45561Y178167D01*
X43959Y174300D01*
X41000Y171341D01*
X37133Y169739D01*
X32947Y169739D01*
G37*
%LPD*%
%LPC*%
G36*
X667947Y169489D02*
X667947Y169489D01*
X664080Y171091D01*
X661121Y174051D01*
X659519Y177917D01*
X659519Y182103D01*
X661121Y185970D01*
X664080Y188929D01*
X667947Y190531D01*
X672133Y190531D01*
X676000Y188929D01*
X678959Y185970D01*
X680561Y182103D01*
X680561Y177917D01*
X678959Y174051D01*
X676000Y171091D01*
X672133Y169489D01*
X667947Y169489D01*
G37*
%LPD*%
%LPC*%
G36*
X642547Y169489D02*
X642547Y169489D01*
X638680Y171091D01*
X635721Y174051D01*
X634119Y177917D01*
X634119Y182103D01*
X635721Y185970D01*
X638680Y188929D01*
X642547Y190531D01*
X646733Y190531D01*
X650600Y188929D01*
X653559Y185970D01*
X655161Y182103D01*
X655161Y177917D01*
X653559Y174051D01*
X650600Y171091D01*
X646733Y169489D01*
X642547Y169489D01*
G37*
%LPD*%
%LPC*%
G36*
X591747Y144339D02*
X591747Y144339D01*
X587880Y145941D01*
X584921Y148900D01*
X583319Y152767D01*
X583319Y156953D01*
X584921Y160820D01*
X587880Y163779D01*
X591747Y165381D01*
X595933Y165381D01*
X599800Y163779D01*
X602759Y160820D01*
X604361Y156953D01*
X604361Y152767D01*
X602759Y148900D01*
X599800Y145941D01*
X595933Y144339D01*
X591747Y144339D01*
G37*
%LPD*%
%LPC*%
G36*
X109147Y144339D02*
X109147Y144339D01*
X105280Y145941D01*
X102321Y148900D01*
X100719Y152767D01*
X100719Y156953D01*
X102321Y160820D01*
X105280Y163779D01*
X109147Y165381D01*
X113333Y165381D01*
X117200Y163779D01*
X120159Y160820D01*
X121761Y156953D01*
X121761Y152767D01*
X120159Y148900D01*
X117200Y145941D01*
X113333Y144339D01*
X109147Y144339D01*
G37*
%LPD*%
%LPC*%
G36*
X58347Y144339D02*
X58347Y144339D01*
X54480Y145941D01*
X51521Y148900D01*
X49919Y152767D01*
X49919Y156953D01*
X51521Y160820D01*
X54480Y163779D01*
X58347Y165381D01*
X62533Y165381D01*
X66400Y163779D01*
X69359Y160820D01*
X70961Y156953D01*
X70961Y152767D01*
X69359Y148900D01*
X66400Y145941D01*
X62533Y144339D01*
X58347Y144339D01*
G37*
%LPD*%
%LPC*%
G36*
X32947Y144339D02*
X32947Y144339D01*
X29080Y145941D01*
X26121Y148900D01*
X24519Y152767D01*
X24519Y156953D01*
X26121Y160820D01*
X29080Y163779D01*
X32947Y165381D01*
X37133Y165381D01*
X41000Y163779D01*
X43959Y160820D01*
X45561Y156953D01*
X45561Y152767D01*
X43959Y148900D01*
X41000Y145941D01*
X37133Y144339D01*
X32947Y144339D01*
G37*
%LPD*%
%LPC*%
G36*
X667947Y144089D02*
X667947Y144089D01*
X664080Y145691D01*
X661121Y148651D01*
X659519Y152517D01*
X659519Y156703D01*
X661121Y160570D01*
X664080Y163529D01*
X667947Y165131D01*
X672133Y165131D01*
X676000Y163529D01*
X678959Y160570D01*
X680561Y156703D01*
X680561Y152517D01*
X678959Y148651D01*
X676000Y145691D01*
X672133Y144089D01*
X667947Y144089D01*
G37*
%LPD*%
%LPC*%
G36*
X642547Y144089D02*
X642547Y144089D01*
X638680Y145691D01*
X635721Y148651D01*
X634119Y152517D01*
X634119Y156703D01*
X635721Y160570D01*
X638680Y163529D01*
X642547Y165131D01*
X646733Y165131D01*
X650600Y163529D01*
X653559Y160570D01*
X655161Y156703D01*
X655161Y152517D01*
X653559Y148651D01*
X650600Y145691D01*
X646733Y144089D01*
X642547Y144089D01*
G37*
%LPD*%
%LPC*%
G36*
X58347Y118939D02*
X58347Y118939D01*
X54480Y120541D01*
X51521Y123500D01*
X49919Y127367D01*
X49919Y131553D01*
X51521Y135420D01*
X54480Y138379D01*
X58347Y139981D01*
X62533Y139981D01*
X66400Y138379D01*
X69359Y135420D01*
X70961Y131553D01*
X70961Y127367D01*
X69359Y123500D01*
X66400Y120541D01*
X62533Y118939D01*
X58347Y118939D01*
G37*
%LPD*%
%LPC*%
G36*
X591747Y118939D02*
X591747Y118939D01*
X587880Y120541D01*
X584921Y123500D01*
X583319Y127367D01*
X583319Y131553D01*
X584921Y135420D01*
X587880Y138379D01*
X591747Y139981D01*
X595933Y139981D01*
X599800Y138379D01*
X602759Y135420D01*
X604361Y131553D01*
X604361Y127367D01*
X602759Y123500D01*
X599800Y120541D01*
X595933Y118939D01*
X591747Y118939D01*
G37*
%LPD*%
%LPC*%
G36*
X109147Y118939D02*
X109147Y118939D01*
X105280Y120541D01*
X102321Y123500D01*
X100719Y127367D01*
X100719Y131553D01*
X102321Y135420D01*
X105280Y138379D01*
X109147Y139981D01*
X113333Y139981D01*
X117200Y138379D01*
X120159Y135420D01*
X121761Y131553D01*
X121761Y127367D01*
X120159Y123500D01*
X117200Y120541D01*
X113333Y118939D01*
X109147Y118939D01*
G37*
%LPD*%
%LPC*%
G36*
X642547Y118689D02*
X642547Y118689D01*
X638680Y120291D01*
X635721Y123251D01*
X634119Y127117D01*
X634119Y131303D01*
X635721Y135170D01*
X638680Y138129D01*
X642547Y139731D01*
X646733Y139731D01*
X650600Y138129D01*
X653559Y135170D01*
X655161Y131303D01*
X655161Y127117D01*
X653559Y123251D01*
X650600Y120291D01*
X646733Y118689D01*
X642547Y118689D01*
G37*
%LPD*%
%LPC*%
G36*
X58347Y398339D02*
X58347Y398339D01*
X54480Y399941D01*
X51521Y402900D01*
X49919Y406767D01*
X49919Y410953D01*
X51521Y414820D01*
X54480Y417779D01*
X58347Y419381D01*
X62533Y419381D01*
X66400Y417779D01*
X69359Y414820D01*
X70961Y410953D01*
X70961Y406767D01*
X69359Y402900D01*
X66400Y399941D01*
X62533Y398339D01*
X58347Y398339D01*
G37*
%LPD*%
%LPC*%
G36*
X32947Y398339D02*
X32947Y398339D01*
X29080Y399941D01*
X26121Y402900D01*
X24519Y406767D01*
X24519Y410953D01*
X26121Y414820D01*
X29080Y417779D01*
X32947Y419381D01*
X37133Y419381D01*
X41000Y417779D01*
X43959Y414820D01*
X45561Y410953D01*
X45561Y406767D01*
X43959Y402900D01*
X41000Y399941D01*
X37133Y398339D01*
X32947Y398339D01*
G37*
%LPD*%
%LPC*%
G36*
X667947Y398089D02*
X667947Y398089D01*
X664080Y399691D01*
X661121Y402651D01*
X659519Y406517D01*
X659519Y410703D01*
X661121Y414570D01*
X664080Y417529D01*
X667947Y419131D01*
X672133Y419131D01*
X676000Y417529D01*
X678959Y414570D01*
X680561Y410703D01*
X680561Y406517D01*
X678959Y402651D01*
X676000Y399691D01*
X672133Y398089D01*
X667947Y398089D01*
G37*
%LPD*%
%LPC*%
G36*
X591747Y388179D02*
X591747Y388179D01*
X587880Y389781D01*
X584921Y392740D01*
X583319Y396607D01*
X583319Y400793D01*
X584921Y404660D01*
X587880Y407619D01*
X591747Y409221D01*
X595933Y409221D01*
X599800Y407619D01*
X602759Y404660D01*
X604361Y400793D01*
X604361Y396607D01*
X602759Y392740D01*
X599800Y389781D01*
X595933Y388179D01*
X591747Y388179D01*
G37*
%LPD*%
%LPC*%
G36*
X591747Y93539D02*
X591747Y93539D01*
X587880Y95141D01*
X584921Y98100D01*
X583319Y101967D01*
X583319Y106153D01*
X584921Y110020D01*
X587880Y112979D01*
X591747Y114581D01*
X595933Y114581D01*
X599800Y112979D01*
X602759Y110020D01*
X604361Y106153D01*
X604361Y101967D01*
X602759Y98100D01*
X599800Y95141D01*
X595933Y93539D01*
X591747Y93539D01*
G37*
%LPD*%
%LPC*%
G36*
X109147Y93539D02*
X109147Y93539D01*
X105280Y95141D01*
X102321Y98100D01*
X100719Y101967D01*
X100719Y106153D01*
X102321Y110020D01*
X105280Y112979D01*
X109147Y114581D01*
X113333Y114581D01*
X117200Y112979D01*
X120159Y110020D01*
X121761Y106153D01*
X121761Y101967D01*
X120159Y98100D01*
X117200Y95141D01*
X113333Y93539D01*
X109147Y93539D01*
G37*
%LPD*%
%LPC*%
G36*
X58347Y93539D02*
X58347Y93539D01*
X54480Y95141D01*
X51521Y98100D01*
X49919Y101967D01*
X49919Y106153D01*
X51521Y110020D01*
X54480Y112979D01*
X58347Y114581D01*
X62533Y114581D01*
X66400Y112979D01*
X69359Y110020D01*
X70961Y106153D01*
X70961Y101967D01*
X69359Y98100D01*
X66400Y95141D01*
X62533Y93539D01*
X58347Y93539D01*
G37*
%LPD*%
%LPC*%
G36*
X109147Y372939D02*
X109147Y372939D01*
X105280Y374541D01*
X102321Y377500D01*
X100719Y381367D01*
X100719Y385553D01*
X102321Y389420D01*
X105280Y392379D01*
X109147Y393981D01*
X113333Y393981D01*
X117200Y392379D01*
X120159Y389420D01*
X121761Y385553D01*
X121761Y381367D01*
X120159Y377500D01*
X117200Y374541D01*
X113333Y372939D01*
X109147Y372939D01*
G37*
%LPD*%
%LPC*%
G36*
X58347Y372939D02*
X58347Y372939D01*
X54480Y374541D01*
X51521Y377500D01*
X49919Y381367D01*
X49919Y385553D01*
X51521Y389420D01*
X54480Y392379D01*
X58347Y393981D01*
X62533Y393981D01*
X66400Y392379D01*
X69359Y389420D01*
X70961Y385553D01*
X70961Y381367D01*
X69359Y377500D01*
X66400Y374541D01*
X62533Y372939D01*
X58347Y372939D01*
G37*
%LPD*%
%LPC*%
G36*
X32947Y372939D02*
X32947Y372939D01*
X29080Y374541D01*
X26121Y377500D01*
X24519Y381367D01*
X24519Y385553D01*
X26121Y389420D01*
X29080Y392379D01*
X32947Y393981D01*
X37133Y393981D01*
X41000Y392379D01*
X43959Y389420D01*
X45561Y385553D01*
X45561Y381367D01*
X43959Y377500D01*
X41000Y374541D01*
X37133Y372939D01*
X32947Y372939D01*
G37*
%LPD*%
%LPC*%
G36*
X667947Y372689D02*
X667947Y372689D01*
X664080Y374291D01*
X661121Y377251D01*
X659519Y381117D01*
X659519Y385303D01*
X661121Y389170D01*
X664080Y392129D01*
X667947Y393731D01*
X672133Y393731D01*
X676000Y392129D01*
X678959Y389170D01*
X680561Y385303D01*
X680561Y381117D01*
X678959Y377251D01*
X676000Y374291D01*
X672133Y372689D01*
X667947Y372689D01*
G37*
%LPD*%
%LPC*%
G36*
X642547Y372689D02*
X642547Y372689D01*
X638680Y374291D01*
X635721Y377251D01*
X634119Y381117D01*
X634119Y385303D01*
X635721Y389170D01*
X638680Y392129D01*
X642547Y393731D01*
X646733Y393731D01*
X650600Y392129D01*
X653559Y389170D01*
X655161Y385303D01*
X655161Y381117D01*
X653559Y377251D01*
X650600Y374291D01*
X646733Y372689D01*
X642547Y372689D01*
G37*
%LPD*%
%LPC*%
G36*
X591747Y362779D02*
X591747Y362779D01*
X587880Y364381D01*
X584921Y367340D01*
X583319Y371207D01*
X583319Y375393D01*
X584921Y379260D01*
X587880Y382219D01*
X591747Y383821D01*
X595933Y383821D01*
X599800Y382219D01*
X602759Y379260D01*
X604361Y375393D01*
X604361Y371207D01*
X602759Y367340D01*
X599800Y364381D01*
X595933Y362779D01*
X591747Y362779D01*
G37*
%LPD*%
%LPC*%
G36*
X32947Y93539D02*
X32947Y93539D01*
X29080Y95141D01*
X26121Y98100D01*
X24519Y101967D01*
X24519Y106153D01*
X26121Y110020D01*
X29080Y112979D01*
X32947Y114581D01*
X37133Y114581D01*
X41000Y112979D01*
X43959Y110020D01*
X45561Y106153D01*
X45561Y101967D01*
X43959Y98100D01*
X41000Y95141D01*
X37133Y93539D01*
X32947Y93539D01*
G37*
%LPD*%
%LPC*%
G36*
X667947Y93289D02*
X667947Y93289D01*
X664080Y94891D01*
X661121Y97851D01*
X659519Y101717D01*
X659519Y105903D01*
X661121Y109770D01*
X664080Y112729D01*
X667947Y114331D01*
X672133Y114331D01*
X676000Y112729D01*
X678959Y109770D01*
X680561Y105903D01*
X680561Y101717D01*
X678959Y97851D01*
X676000Y94891D01*
X672133Y93289D01*
X667947Y93289D01*
G37*
%LPD*%
%LPC*%
G36*
X109147Y347539D02*
X109147Y347539D01*
X105280Y349141D01*
X102321Y352100D01*
X100719Y355967D01*
X100719Y360153D01*
X102321Y364020D01*
X105280Y366979D01*
X109147Y368581D01*
X113333Y368581D01*
X117200Y366979D01*
X120159Y364020D01*
X121761Y360153D01*
X121761Y355967D01*
X120159Y352100D01*
X117200Y349141D01*
X113333Y347539D01*
X109147Y347539D01*
G37*
%LPD*%
%LPC*%
G36*
X32947Y347539D02*
X32947Y347539D01*
X29080Y349141D01*
X26121Y352100D01*
X24519Y355967D01*
X24519Y360153D01*
X26121Y364020D01*
X29080Y366979D01*
X32947Y368581D01*
X37133Y368581D01*
X41000Y366979D01*
X43959Y364020D01*
X45561Y360153D01*
X45561Y355967D01*
X43959Y352100D01*
X41000Y349141D01*
X37133Y347539D01*
X32947Y347539D01*
G37*
%LPD*%
%LPC*%
G36*
X667947Y347289D02*
X667947Y347289D01*
X664080Y348891D01*
X661121Y351851D01*
X659519Y355717D01*
X659519Y359903D01*
X661121Y363770D01*
X664080Y366729D01*
X667947Y368331D01*
X672133Y368331D01*
X676000Y366729D01*
X678959Y363770D01*
X680561Y359903D01*
X680561Y355717D01*
X678959Y351851D01*
X676000Y348891D01*
X672133Y347289D01*
X667947Y347289D01*
G37*
%LPD*%
%LPC*%
G36*
X642547Y347289D02*
X642547Y347289D01*
X638680Y348891D01*
X635721Y351851D01*
X634119Y355717D01*
X634119Y359903D01*
X635721Y363770D01*
X638680Y366729D01*
X642547Y368331D01*
X646733Y368331D01*
X650600Y366729D01*
X653559Y363770D01*
X655161Y359903D01*
X655161Y355717D01*
X653559Y351851D01*
X650600Y348891D01*
X646733Y347289D01*
X642547Y347289D01*
G37*
%LPD*%
%LPC*%
G36*
X591747Y337379D02*
X591747Y337379D01*
X587880Y338981D01*
X584921Y341940D01*
X583319Y345807D01*
X583319Y349993D01*
X584921Y353860D01*
X587880Y356819D01*
X591747Y358421D01*
X595933Y358421D01*
X599800Y356819D01*
X602759Y353860D01*
X604361Y349993D01*
X604361Y345807D01*
X602759Y341940D01*
X599800Y338981D01*
X595933Y337379D01*
X591747Y337379D01*
G37*
%LPD*%
%LPC*%
G36*
X642547Y93289D02*
X642547Y93289D01*
X638680Y94891D01*
X635721Y97851D01*
X634119Y101717D01*
X634119Y105903D01*
X635721Y109770D01*
X638680Y112729D01*
X642547Y114331D01*
X646733Y114331D01*
X650600Y112729D01*
X653559Y109770D01*
X655161Y105903D01*
X655161Y101717D01*
X653559Y97851D01*
X650600Y94891D01*
X646733Y93289D01*
X642547Y93289D01*
G37*
%LPD*%
%LPC*%
G36*
X591747Y68139D02*
X591747Y68139D01*
X587880Y69741D01*
X584921Y72700D01*
X583319Y76567D01*
X583319Y80753D01*
X584921Y84620D01*
X587880Y87579D01*
X591747Y89181D01*
X595933Y89181D01*
X599800Y87579D01*
X602759Y84620D01*
X604361Y80753D01*
X604361Y76567D01*
X602759Y72700D01*
X599800Y69741D01*
X595933Y68139D01*
X591747Y68139D01*
G37*
%LPD*%
%LPC*%
G36*
X109147Y68139D02*
X109147Y68139D01*
X105280Y69741D01*
X102321Y72700D01*
X100719Y76567D01*
X100719Y80753D01*
X102321Y84620D01*
X105280Y87579D01*
X109147Y89181D01*
X113333Y89181D01*
X117200Y87579D01*
X120159Y84620D01*
X121761Y80753D01*
X121761Y76567D01*
X120159Y72700D01*
X117200Y69741D01*
X113333Y68139D01*
X109147Y68139D01*
G37*
%LPD*%
%LPC*%
G36*
X58347Y68139D02*
X58347Y68139D01*
X54480Y69741D01*
X51521Y72700D01*
X49919Y76567D01*
X49919Y80753D01*
X51521Y84620D01*
X54480Y87579D01*
X58347Y89181D01*
X62533Y89181D01*
X66400Y87579D01*
X69359Y84620D01*
X70961Y80753D01*
X70961Y76567D01*
X69359Y72700D01*
X66400Y69741D01*
X62533Y68139D01*
X58347Y68139D01*
G37*
%LPD*%
%LPC*%
G36*
X109147Y322139D02*
X109147Y322139D01*
X105280Y323741D01*
X102321Y326700D01*
X100719Y330567D01*
X100719Y334753D01*
X102321Y338620D01*
X105280Y341579D01*
X109147Y343181D01*
X113333Y343181D01*
X117200Y341579D01*
X120159Y338620D01*
X121761Y334753D01*
X121761Y330567D01*
X120159Y326700D01*
X117200Y323741D01*
X113333Y322139D01*
X109147Y322139D01*
G37*
%LPD*%
%LPC*%
G36*
X58347Y322139D02*
X58347Y322139D01*
X54480Y323741D01*
X51521Y326700D01*
X49919Y330567D01*
X49919Y334753D01*
X51521Y338620D01*
X54480Y341579D01*
X58347Y343181D01*
X62533Y343181D01*
X66400Y341579D01*
X69359Y338620D01*
X70961Y334753D01*
X70961Y330567D01*
X69359Y326700D01*
X66400Y323741D01*
X62533Y322139D01*
X58347Y322139D01*
G37*
%LPD*%
%LPC*%
G36*
X32947Y322139D02*
X32947Y322139D01*
X29080Y323741D01*
X26121Y326700D01*
X24519Y330567D01*
X24519Y334753D01*
X26121Y338620D01*
X29080Y341579D01*
X32947Y343181D01*
X37133Y343181D01*
X41000Y341579D01*
X43959Y338620D01*
X45561Y334753D01*
X45561Y330567D01*
X43959Y326700D01*
X41000Y323741D01*
X37133Y322139D01*
X32947Y322139D01*
G37*
%LPD*%
%LPC*%
G36*
X667947Y321889D02*
X667947Y321889D01*
X664080Y323491D01*
X661121Y326451D01*
X659519Y330317D01*
X659519Y334503D01*
X661121Y338370D01*
X664080Y341329D01*
X667947Y342931D01*
X672133Y342931D01*
X676000Y341329D01*
X678959Y338370D01*
X680561Y334503D01*
X680561Y330317D01*
X678959Y326451D01*
X676000Y323491D01*
X672133Y321889D01*
X667947Y321889D01*
G37*
%LPD*%
%LPC*%
G36*
X642547Y321889D02*
X642547Y321889D01*
X638680Y323491D01*
X635721Y326451D01*
X634119Y330317D01*
X634119Y334503D01*
X635721Y338370D01*
X638680Y341329D01*
X642547Y342931D01*
X646733Y342931D01*
X650600Y341329D01*
X653559Y338370D01*
X655161Y334503D01*
X655161Y330317D01*
X653559Y326451D01*
X650600Y323491D01*
X646733Y321889D01*
X642547Y321889D01*
G37*
%LPD*%
%LPC*%
G36*
X591747Y311979D02*
X591747Y311979D01*
X587880Y313581D01*
X584921Y316540D01*
X583319Y320407D01*
X583319Y324593D01*
X584921Y328460D01*
X587880Y331419D01*
X591747Y333021D01*
X595933Y333021D01*
X599800Y331419D01*
X602759Y328460D01*
X604361Y324593D01*
X604361Y320407D01*
X602759Y316540D01*
X599800Y313581D01*
X595933Y311979D01*
X591747Y311979D01*
G37*
%LPD*%
%LPC*%
G36*
X109147Y296739D02*
X109147Y296739D01*
X105280Y298341D01*
X102321Y301300D01*
X100719Y305167D01*
X100719Y309353D01*
X102321Y313220D01*
X105280Y316179D01*
X109147Y317781D01*
X113333Y317781D01*
X117200Y316179D01*
X120159Y313220D01*
X121761Y309353D01*
X121761Y305167D01*
X120159Y301300D01*
X117200Y298341D01*
X113333Y296739D01*
X109147Y296739D01*
G37*
%LPD*%
%LPC*%
G36*
X58347Y296739D02*
X58347Y296739D01*
X54480Y298341D01*
X51521Y301300D01*
X49919Y305167D01*
X49919Y309353D01*
X51521Y313220D01*
X54480Y316179D01*
X58347Y317781D01*
X62533Y317781D01*
X66400Y316179D01*
X69359Y313220D01*
X70961Y309353D01*
X70961Y305167D01*
X69359Y301300D01*
X66400Y298341D01*
X62533Y296739D01*
X58347Y296739D01*
G37*
%LPD*%
%LPC*%
G36*
X32947Y296739D02*
X32947Y296739D01*
X29080Y298341D01*
X26121Y301300D01*
X24519Y305167D01*
X24519Y309353D01*
X26121Y313220D01*
X29080Y316179D01*
X32947Y317781D01*
X37133Y317781D01*
X41000Y316179D01*
X43959Y313220D01*
X45561Y309353D01*
X45561Y305167D01*
X43959Y301300D01*
X41000Y298341D01*
X37133Y296739D01*
X32947Y296739D01*
G37*
%LPD*%
%LPC*%
G36*
X667947Y296489D02*
X667947Y296489D01*
X664080Y298091D01*
X661121Y301051D01*
X659519Y304917D01*
X659519Y309103D01*
X661121Y312970D01*
X664080Y315929D01*
X667947Y317531D01*
X672133Y317531D01*
X676000Y315929D01*
X678959Y312970D01*
X680561Y309103D01*
X680561Y304917D01*
X678959Y301051D01*
X676000Y298091D01*
X672133Y296489D01*
X667947Y296489D01*
G37*
%LPD*%
%LPC*%
G36*
X642547Y296489D02*
X642547Y296489D01*
X638680Y298091D01*
X635721Y301051D01*
X634119Y304917D01*
X634119Y309103D01*
X635721Y312970D01*
X638680Y315929D01*
X642547Y317531D01*
X646733Y317531D01*
X650600Y315929D01*
X653559Y312970D01*
X655161Y309103D01*
X655161Y304917D01*
X653559Y301051D01*
X650600Y298091D01*
X646733Y296489D01*
X642547Y296489D01*
G37*
%LPD*%
%LPC*%
G36*
X591747Y286579D02*
X591747Y286579D01*
X587880Y288181D01*
X584921Y291140D01*
X583319Y295007D01*
X583319Y299193D01*
X584921Y303060D01*
X587880Y306019D01*
X591747Y307621D01*
X595933Y307621D01*
X599800Y306019D01*
X602759Y303060D01*
X604361Y299193D01*
X604361Y295007D01*
X602759Y291140D01*
X599800Y288181D01*
X595933Y286579D01*
X591747Y286579D01*
G37*
%LPD*%
%LPC*%
G36*
X32947Y68139D02*
X32947Y68139D01*
X29080Y69741D01*
X26121Y72700D01*
X24519Y76567D01*
X24519Y80753D01*
X26121Y84620D01*
X29080Y87579D01*
X32947Y89181D01*
X37133Y89181D01*
X41000Y87579D01*
X43959Y84620D01*
X45561Y80753D01*
X45561Y76567D01*
X43959Y72700D01*
X41000Y69741D01*
X37133Y68139D01*
X32947Y68139D01*
G37*
%LPD*%
%LPC*%
G36*
X667947Y67889D02*
X667947Y67889D01*
X664080Y69491D01*
X661121Y72451D01*
X659519Y76317D01*
X659519Y80503D01*
X661121Y84370D01*
X664080Y87329D01*
X667947Y88931D01*
X672133Y88931D01*
X676000Y87329D01*
X678959Y84370D01*
X680561Y80503D01*
X680561Y76317D01*
X678959Y72451D01*
X676000Y69491D01*
X672133Y67889D01*
X667947Y67889D01*
G37*
%LPD*%
%LPC*%
G36*
X32947Y118939D02*
X32947Y118939D01*
X29080Y120541D01*
X26121Y123500D01*
X24519Y127367D01*
X24519Y131553D01*
X26121Y135420D01*
X29080Y138379D01*
X32947Y139981D01*
X37133Y139981D01*
X41000Y138379D01*
X43959Y135420D01*
X45561Y131553D01*
X45561Y127367D01*
X43959Y123500D01*
X41000Y120541D01*
X37133Y118939D01*
X32947Y118939D01*
G37*
%LPD*%
%LPC*%
G36*
X109147Y42739D02*
X109147Y42739D01*
X105280Y44341D01*
X102321Y47300D01*
X100719Y51167D01*
X100719Y55353D01*
X102321Y59220D01*
X105280Y62179D01*
X109147Y63781D01*
X113333Y63781D01*
X117200Y62179D01*
X120159Y59220D01*
X121761Y55353D01*
X121761Y51167D01*
X120159Y47300D01*
X117200Y44341D01*
X113333Y42739D01*
X109147Y42739D01*
G37*
%LPD*%
%LPC*%
G36*
X58347Y42739D02*
X58347Y42739D01*
X54480Y44341D01*
X51521Y47300D01*
X49919Y51167D01*
X49919Y55353D01*
X51521Y59220D01*
X54480Y62179D01*
X58347Y63781D01*
X62533Y63781D01*
X66400Y62179D01*
X69359Y59220D01*
X70961Y55353D01*
X70961Y51167D01*
X69359Y47300D01*
X66400Y44341D01*
X62533Y42739D01*
X58347Y42739D01*
G37*
%LPD*%
%LPC*%
G36*
X32947Y42739D02*
X32947Y42739D01*
X29080Y44341D01*
X26121Y47300D01*
X24519Y51167D01*
X24519Y55353D01*
X26121Y59220D01*
X29080Y62179D01*
X32947Y63781D01*
X37133Y63781D01*
X41000Y62179D01*
X43959Y59220D01*
X45561Y55353D01*
X45561Y51167D01*
X43959Y47300D01*
X41000Y44341D01*
X37133Y42739D01*
X32947Y42739D01*
G37*
%LPD*%
%LPC*%
G36*
X667947Y42489D02*
X667947Y42489D01*
X664080Y44091D01*
X661121Y47051D01*
X659519Y50917D01*
X659519Y55103D01*
X661121Y58970D01*
X664080Y61929D01*
X667947Y63531D01*
X672133Y63531D01*
X676000Y61929D01*
X678959Y58970D01*
X680561Y55103D01*
X680561Y50917D01*
X678959Y47051D01*
X676000Y44091D01*
X672133Y42489D01*
X667947Y42489D01*
G37*
%LPD*%
%LPC*%
G36*
X642547Y42489D02*
X642547Y42489D01*
X638680Y44091D01*
X635721Y47051D01*
X634119Y50917D01*
X634119Y55103D01*
X635721Y58970D01*
X638680Y61929D01*
X642547Y63531D01*
X646733Y63531D01*
X650600Y61929D01*
X653559Y58970D01*
X655161Y55103D01*
X655161Y50917D01*
X653559Y47051D01*
X650600Y44091D01*
X646733Y42489D01*
X642547Y42489D01*
G37*
%LPD*%
%LPC*%
G36*
X642547Y271089D02*
X642547Y271089D01*
X638680Y272691D01*
X635721Y275651D01*
X634119Y279517D01*
X634119Y283703D01*
X635721Y287570D01*
X638680Y290529D01*
X642547Y292131D01*
X646733Y292131D01*
X650600Y290529D01*
X653559Y287570D01*
X655161Y283703D01*
X655161Y279517D01*
X653559Y275651D01*
X650600Y272691D01*
X646733Y271089D01*
X642547Y271089D01*
G37*
%LPD*%
%LPC*%
G36*
X642547Y67889D02*
X642547Y67889D01*
X638680Y69491D01*
X635721Y72451D01*
X634119Y76317D01*
X634119Y80503D01*
X635721Y84370D01*
X638680Y87329D01*
X642547Y88931D01*
X646733Y88931D01*
X650600Y87329D01*
X653559Y84370D01*
X655161Y80503D01*
X655161Y76317D01*
X653559Y72451D01*
X650600Y69491D01*
X646733Y67889D01*
X642547Y67889D01*
G37*
%LPD*%
%LPC*%
G36*
X667947Y220289D02*
X667947Y220289D01*
X664080Y221891D01*
X661121Y224851D01*
X659519Y228717D01*
X659519Y232903D01*
X661121Y236770D01*
X664080Y239729D01*
X667947Y241331D01*
X672133Y241331D01*
X676000Y239729D01*
X678959Y236770D01*
X680561Y232903D01*
X680561Y228717D01*
X678959Y224851D01*
X676000Y221891D01*
X672133Y220289D01*
X667947Y220289D01*
G37*
%LPD*%
%LPC*%
G36*
X32947Y245939D02*
X32947Y245939D01*
X29080Y247541D01*
X26121Y250500D01*
X24519Y254367D01*
X24519Y258553D01*
X26121Y262420D01*
X29080Y265379D01*
X32947Y266981D01*
X37133Y266981D01*
X41000Y265379D01*
X43959Y262420D01*
X45561Y258553D01*
X45561Y254367D01*
X43959Y250500D01*
X41000Y247541D01*
X37133Y245939D01*
X32947Y245939D01*
G37*
%LPD*%
%LPC*%
G36*
X667947Y245689D02*
X667947Y245689D01*
X664080Y247291D01*
X661121Y250251D01*
X659519Y254117D01*
X659519Y258303D01*
X661121Y262170D01*
X664080Y265129D01*
X667947Y266731D01*
X672133Y266731D01*
X676000Y265129D01*
X678959Y262170D01*
X680561Y258303D01*
X680561Y254117D01*
X678959Y250251D01*
X676000Y247291D01*
X672133Y245689D01*
X667947Y245689D01*
G37*
%LPD*%
%LPC*%
G36*
X642547Y245689D02*
X642547Y245689D01*
X638680Y247291D01*
X635721Y250251D01*
X634119Y254117D01*
X634119Y258303D01*
X635721Y262170D01*
X638680Y265129D01*
X642547Y266731D01*
X646733Y266731D01*
X650600Y265129D01*
X653559Y262170D01*
X655161Y258303D01*
X655161Y254117D01*
X653559Y250251D01*
X650600Y247291D01*
X646733Y245689D01*
X642547Y245689D01*
G37*
%LPD*%
%LPC*%
G36*
X591747Y220539D02*
X591747Y220539D01*
X587880Y222141D01*
X584921Y225100D01*
X583319Y228967D01*
X583319Y233153D01*
X584921Y237020D01*
X587880Y239979D01*
X591747Y241581D01*
X595933Y241581D01*
X599800Y239979D01*
X602759Y237020D01*
X604361Y233153D01*
X604361Y228967D01*
X602759Y225100D01*
X599800Y222141D01*
X595933Y220539D01*
X591747Y220539D01*
G37*
%LPD*%
%LPC*%
G36*
X109147Y220539D02*
X109147Y220539D01*
X105280Y222141D01*
X102321Y225100D01*
X100719Y228967D01*
X100719Y233153D01*
X102321Y237020D01*
X105280Y239979D01*
X109147Y241581D01*
X113333Y241581D01*
X117200Y239979D01*
X120159Y237020D01*
X121761Y233153D01*
X121761Y228967D01*
X120159Y225100D01*
X117200Y222141D01*
X113333Y220539D01*
X109147Y220539D01*
G37*
%LPD*%
%LPC*%
G36*
X58347Y220539D02*
X58347Y220539D01*
X54480Y222141D01*
X51521Y225100D01*
X49919Y228967D01*
X49919Y233153D01*
X51521Y237020D01*
X54480Y239979D01*
X58347Y241581D01*
X62533Y241581D01*
X66400Y239979D01*
X69359Y237020D01*
X70961Y233153D01*
X70961Y228967D01*
X69359Y225100D01*
X66400Y222141D01*
X62533Y220539D01*
X58347Y220539D01*
G37*
%LPD*%
%LPC*%
G36*
X32947Y220539D02*
X32947Y220539D01*
X29080Y222141D01*
X26121Y225100D01*
X24519Y228967D01*
X24519Y233153D01*
X26121Y237020D01*
X29080Y239979D01*
X32947Y241581D01*
X37133Y241581D01*
X41000Y239979D01*
X43959Y237020D01*
X45561Y233153D01*
X45561Y228967D01*
X43959Y225100D01*
X41000Y222141D01*
X37133Y220539D01*
X32947Y220539D01*
G37*
%LPD*%
%LPC*%
G36*
X591747Y195139D02*
X591747Y195139D01*
X587880Y196741D01*
X584921Y199700D01*
X583319Y203567D01*
X583319Y207753D01*
X584921Y211620D01*
X587880Y214579D01*
X591747Y216181D01*
X595933Y216181D01*
X599800Y214579D01*
X602759Y211620D01*
X604361Y207753D01*
X604361Y203567D01*
X602759Y199700D01*
X599800Y196741D01*
X595933Y195139D01*
X591747Y195139D01*
G37*
%LPD*%
%LPC*%
G36*
X58347Y195139D02*
X58347Y195139D01*
X54480Y196741D01*
X51521Y199700D01*
X49919Y203567D01*
X49919Y207753D01*
X51521Y211620D01*
X54480Y214579D01*
X58347Y216181D01*
X62533Y216181D01*
X66400Y214579D01*
X69359Y211620D01*
X70961Y207753D01*
X70961Y203567D01*
X69359Y199700D01*
X66400Y196741D01*
X62533Y195139D01*
X58347Y195139D01*
G37*
%LPD*%
%LPC*%
G36*
X493837Y336827D02*
X493837Y336827D01*
X491767Y338897D01*
X491767Y341823D01*
X493837Y343893D01*
X496763Y343893D01*
X497532Y343124D01*
X497606Y343071D01*
X497676Y343011D01*
X497706Y342999D01*
X497732Y342980D01*
X497819Y342953D01*
X497904Y342919D01*
X497945Y342915D01*
X497967Y342908D01*
X497999Y342909D01*
X498071Y342901D01*
X542192Y342901D01*
X542282Y342915D01*
X542373Y342923D01*
X542403Y342935D01*
X542435Y342940D01*
X542516Y342983D01*
X542600Y343019D01*
X542632Y343045D01*
X542652Y343056D01*
X542675Y343079D01*
X542731Y343124D01*
X544884Y345277D01*
X544937Y345351D01*
X544997Y345421D01*
X545009Y345451D01*
X545028Y345477D01*
X545055Y345564D01*
X545089Y345649D01*
X545093Y345690D01*
X545100Y345712D01*
X545099Y345744D01*
X545107Y345816D01*
X545107Y346903D01*
X547177Y348973D01*
X550103Y348973D01*
X552173Y346903D01*
X552173Y343977D01*
X550103Y341907D01*
X549016Y341907D01*
X548926Y341893D01*
X548835Y341885D01*
X548805Y341873D01*
X548773Y341868D01*
X548692Y341825D01*
X548608Y341789D01*
X548576Y341763D01*
X548556Y341752D01*
X548533Y341729D01*
X548477Y341684D01*
X544612Y337819D01*
X498071Y337819D01*
X497981Y337805D01*
X497890Y337797D01*
X497860Y337785D01*
X497828Y337780D01*
X497747Y337737D01*
X497663Y337701D01*
X497631Y337675D01*
X497611Y337664D01*
X497588Y337641D01*
X497532Y337596D01*
X496763Y336827D01*
X493837Y336827D01*
G37*
%LPD*%
%LPC*%
G36*
X501777Y44449D02*
X501777Y44449D01*
X496569Y49657D01*
X496569Y57023D01*
X501777Y62231D01*
X509143Y62231D01*
X514351Y57023D01*
X514351Y49657D01*
X509143Y44449D01*
X501777Y44449D01*
G37*
%LPD*%
%LPC*%
G36*
X527177Y44449D02*
X527177Y44449D01*
X521969Y49657D01*
X521969Y57023D01*
X527177Y62231D01*
X534543Y62231D01*
X539751Y57023D01*
X539751Y49657D01*
X534543Y44449D01*
X527177Y44449D01*
G37*
%LPD*%
%LPC*%
G36*
X501777Y120649D02*
X501777Y120649D01*
X496569Y125857D01*
X496569Y133223D01*
X501777Y138431D01*
X509143Y138431D01*
X514351Y133223D01*
X514351Y125857D01*
X509143Y120649D01*
X501777Y120649D01*
G37*
%LPD*%
%LPC*%
G36*
X501777Y95249D02*
X501777Y95249D01*
X496569Y100457D01*
X496569Y107823D01*
X501777Y113031D01*
X509143Y113031D01*
X514351Y107823D01*
X514351Y100457D01*
X509143Y95249D01*
X501777Y95249D01*
G37*
%LPD*%
%LPC*%
G36*
X527177Y120649D02*
X527177Y120649D01*
X521969Y125857D01*
X521969Y133223D01*
X527177Y138431D01*
X534543Y138431D01*
X539751Y133223D01*
X539751Y125857D01*
X534543Y120649D01*
X527177Y120649D01*
G37*
%LPD*%
%LPC*%
G36*
X527177Y95249D02*
X527177Y95249D01*
X521969Y100457D01*
X521969Y107823D01*
X527177Y113031D01*
X534543Y113031D01*
X539751Y107823D01*
X539751Y100457D01*
X534543Y95249D01*
X527177Y95249D01*
G37*
%LPD*%
%LPC*%
G36*
X501777Y69849D02*
X501777Y69849D01*
X496569Y75057D01*
X496569Y82423D01*
X501777Y87631D01*
X509143Y87631D01*
X514351Y82423D01*
X514351Y75057D01*
X509143Y69849D01*
X501777Y69849D01*
G37*
%LPD*%
%LPC*%
G36*
X201247Y52189D02*
X201247Y52189D01*
X198009Y53531D01*
X195531Y56009D01*
X194189Y59247D01*
X194189Y62753D01*
X195531Y65991D01*
X198009Y68469D01*
X201247Y69811D01*
X204753Y69811D01*
X207991Y68469D01*
X210469Y65991D01*
X211811Y62753D01*
X211811Y59247D01*
X210469Y56009D01*
X207991Y53531D01*
X204753Y52189D01*
X201247Y52189D01*
G37*
%LPD*%
%LPC*%
G36*
X252047Y52189D02*
X252047Y52189D01*
X248809Y53531D01*
X246331Y56009D01*
X244989Y59247D01*
X244989Y62753D01*
X246331Y65991D01*
X248809Y68469D01*
X252047Y69811D01*
X255553Y69811D01*
X258791Y68469D01*
X261269Y65991D01*
X262611Y62753D01*
X262611Y59247D01*
X261269Y56009D01*
X258791Y53531D01*
X255553Y52189D01*
X252047Y52189D01*
G37*
%LPD*%
%LPC*%
G36*
X310957Y141247D02*
X310957Y141247D01*
X308887Y143317D01*
X308887Y146243D01*
X310957Y148313D01*
X312044Y148313D01*
X312134Y148327D01*
X312225Y148335D01*
X312255Y148347D01*
X312287Y148352D01*
X312368Y148395D01*
X312452Y148431D01*
X312484Y148457D01*
X312504Y148468D01*
X312527Y148491D01*
X312583Y148536D01*
X331524Y167477D01*
X331577Y167551D01*
X331637Y167621D01*
X331649Y167651D01*
X331668Y167677D01*
X331695Y167764D01*
X331729Y167849D01*
X331733Y167890D01*
X331740Y167912D01*
X331739Y167944D01*
X331747Y168016D01*
X331747Y169103D01*
X333817Y171173D01*
X336743Y171173D01*
X338813Y169103D01*
X338813Y166177D01*
X336743Y164107D01*
X335656Y164107D01*
X335566Y164093D01*
X335475Y164085D01*
X335445Y164073D01*
X335413Y164068D01*
X335332Y164025D01*
X335248Y163989D01*
X335216Y163963D01*
X335196Y163952D01*
X335173Y163929D01*
X335117Y163884D01*
X316176Y144943D01*
X316123Y144869D01*
X316063Y144799D01*
X316051Y144769D01*
X316032Y144743D01*
X316005Y144656D01*
X315971Y144571D01*
X315967Y144530D01*
X315960Y144508D01*
X315961Y144476D01*
X315953Y144404D01*
X315953Y143317D01*
X313883Y141247D01*
X310957Y141247D01*
G37*
%LPD*%
%LPC*%
G36*
X216977Y148867D02*
X216977Y148867D01*
X214907Y150937D01*
X214907Y153863D01*
X215676Y154632D01*
X215729Y154706D01*
X215789Y154776D01*
X215801Y154806D01*
X215820Y154832D01*
X215847Y154919D01*
X215881Y155004D01*
X215885Y155045D01*
X215892Y155067D01*
X215891Y155099D01*
X215899Y155171D01*
X215899Y175029D01*
X215885Y175119D01*
X215877Y175210D01*
X215865Y175240D01*
X215860Y175272D01*
X215817Y175353D01*
X215781Y175437D01*
X215755Y175469D01*
X215744Y175489D01*
X215721Y175512D01*
X215676Y175568D01*
X214907Y176337D01*
X214907Y179263D01*
X216977Y181333D01*
X219903Y181333D01*
X221973Y179263D01*
X221973Y176337D01*
X221204Y175568D01*
X221151Y175494D01*
X221091Y175424D01*
X221079Y175394D01*
X221060Y175368D01*
X221033Y175281D01*
X220999Y175196D01*
X220995Y175155D01*
X220988Y175133D01*
X220989Y175101D01*
X220981Y175029D01*
X220981Y155171D01*
X220995Y155081D01*
X221003Y154990D01*
X221015Y154960D01*
X221020Y154928D01*
X221063Y154847D01*
X221099Y154763D01*
X221125Y154731D01*
X221136Y154711D01*
X221159Y154688D01*
X221204Y154632D01*
X221973Y153863D01*
X221973Y150937D01*
X219903Y148867D01*
X216977Y148867D01*
G37*
%LPD*%
%LPC*%
G36*
X239837Y75207D02*
X239837Y75207D01*
X237767Y77277D01*
X237767Y80203D01*
X239837Y82273D01*
X242763Y82273D01*
X243532Y81504D01*
X243606Y81451D01*
X243676Y81391D01*
X243706Y81379D01*
X243732Y81360D01*
X243819Y81333D01*
X243904Y81299D01*
X243945Y81295D01*
X243967Y81288D01*
X243999Y81289D01*
X244071Y81281D01*
X263929Y81281D01*
X264019Y81295D01*
X264110Y81303D01*
X264140Y81315D01*
X264172Y81320D01*
X264253Y81363D01*
X264337Y81399D01*
X264369Y81425D01*
X264389Y81436D01*
X264412Y81459D01*
X264468Y81504D01*
X265237Y82273D01*
X268163Y82273D01*
X270233Y80203D01*
X270233Y77277D01*
X268163Y75207D01*
X265237Y75207D01*
X264468Y75976D01*
X264394Y76029D01*
X264324Y76089D01*
X264294Y76101D01*
X264268Y76120D01*
X264181Y76147D01*
X264096Y76181D01*
X264055Y76185D01*
X264033Y76192D01*
X264001Y76191D01*
X263929Y76199D01*
X244071Y76199D01*
X243981Y76185D01*
X243890Y76177D01*
X243860Y76165D01*
X243828Y76160D01*
X243747Y76117D01*
X243663Y76081D01*
X243631Y76055D01*
X243611Y76044D01*
X243588Y76021D01*
X243532Y75976D01*
X242763Y75207D01*
X239837Y75207D01*
G37*
%LPD*%
%LPC*%
G36*
X206817Y225067D02*
X206817Y225067D01*
X204747Y227137D01*
X204747Y228224D01*
X204733Y228314D01*
X204725Y228405D01*
X204713Y228435D01*
X204708Y228467D01*
X204665Y228548D01*
X204629Y228632D01*
X204603Y228664D01*
X204592Y228684D01*
X204569Y228707D01*
X204524Y228763D01*
X190663Y242624D01*
X190589Y242677D01*
X190519Y242737D01*
X190489Y242749D01*
X190463Y242768D01*
X190376Y242795D01*
X190291Y242829D01*
X190250Y242833D01*
X190228Y242840D01*
X190196Y242839D01*
X190124Y242847D01*
X189037Y242847D01*
X186967Y244917D01*
X186967Y247843D01*
X189037Y249913D01*
X191963Y249913D01*
X194033Y247843D01*
X194033Y246756D01*
X194047Y246666D01*
X194055Y246575D01*
X194067Y246545D01*
X194072Y246513D01*
X194115Y246432D01*
X194151Y246348D01*
X194177Y246316D01*
X194188Y246296D01*
X194211Y246273D01*
X194256Y246217D01*
X208117Y232356D01*
X208191Y232303D01*
X208261Y232243D01*
X208291Y232231D01*
X208317Y232212D01*
X208404Y232185D01*
X208489Y232151D01*
X208530Y232147D01*
X208552Y232140D01*
X208584Y232141D01*
X208656Y232133D01*
X209743Y232133D01*
X211813Y230063D01*
X211813Y227137D01*
X209743Y225067D01*
X206817Y225067D01*
G37*
%LPD*%
%LPC*%
G36*
X628457Y423187D02*
X628457Y423187D01*
X626387Y425257D01*
X626387Y428183D01*
X627156Y428952D01*
X627209Y429026D01*
X627269Y429096D01*
X627281Y429126D01*
X627300Y429152D01*
X627327Y429239D01*
X627361Y429324D01*
X627365Y429365D01*
X627372Y429387D01*
X627371Y429419D01*
X627379Y429491D01*
X627379Y445552D01*
X628704Y446877D01*
X628757Y446951D01*
X628817Y447021D01*
X628829Y447051D01*
X628848Y447077D01*
X628875Y447164D01*
X628909Y447249D01*
X628913Y447290D01*
X628920Y447312D01*
X628919Y447344D01*
X628927Y447416D01*
X628927Y448503D01*
X630997Y450573D01*
X633923Y450573D01*
X635993Y448503D01*
X635993Y445577D01*
X633923Y443507D01*
X633222Y443507D01*
X633202Y443504D01*
X633183Y443506D01*
X633081Y443484D01*
X632979Y443468D01*
X632962Y443458D01*
X632942Y443454D01*
X632853Y443401D01*
X632762Y443352D01*
X632748Y443338D01*
X632731Y443328D01*
X632664Y443249D01*
X632592Y443174D01*
X632584Y443156D01*
X632571Y443141D01*
X632532Y443044D01*
X632489Y442951D01*
X632487Y442931D01*
X632479Y442913D01*
X632461Y442746D01*
X632461Y429491D01*
X632475Y429401D01*
X632483Y429310D01*
X632495Y429280D01*
X632500Y429248D01*
X632543Y429167D01*
X632579Y429083D01*
X632605Y429051D01*
X632616Y429031D01*
X632639Y429008D01*
X632684Y428952D01*
X633453Y428183D01*
X633453Y425257D01*
X631383Y423187D01*
X628457Y423187D01*
G37*
%LPD*%
%LPC*%
G36*
X61963Y283383D02*
X61963Y283383D01*
X61963Y293556D01*
X63201Y293360D01*
X64966Y292787D01*
X66620Y291944D01*
X68121Y290853D01*
X69433Y289541D01*
X70524Y288040D01*
X71367Y286386D01*
X71940Y284621D01*
X72136Y283383D01*
X61963Y283383D01*
G37*
%LPD*%
%LPC*%
G36*
X36563Y435783D02*
X36563Y435783D01*
X36563Y445956D01*
X37801Y445760D01*
X39566Y445187D01*
X41220Y444344D01*
X42721Y443253D01*
X44033Y441941D01*
X45124Y440440D01*
X45967Y438786D01*
X46540Y437021D01*
X46736Y435783D01*
X36563Y435783D01*
G37*
%LPD*%
%LPC*%
G36*
X36563Y283383D02*
X36563Y283383D01*
X36563Y293556D01*
X37801Y293360D01*
X39566Y292787D01*
X41220Y291944D01*
X42721Y290853D01*
X44033Y289541D01*
X45124Y288040D01*
X45967Y286386D01*
X46540Y284621D01*
X46736Y283383D01*
X36563Y283383D01*
G37*
%LPD*%
%LPC*%
G36*
X61963Y435783D02*
X61963Y435783D01*
X61963Y445956D01*
X63201Y445760D01*
X64966Y445187D01*
X66620Y444344D01*
X68121Y443253D01*
X69433Y441941D01*
X70524Y440440D01*
X71367Y438786D01*
X71940Y437021D01*
X72136Y435783D01*
X61963Y435783D01*
G37*
%LPD*%
%LPC*%
G36*
X595363Y425623D02*
X595363Y425623D01*
X595363Y435796D01*
X596601Y435600D01*
X598366Y435027D01*
X600020Y434184D01*
X601521Y433093D01*
X602833Y431781D01*
X603924Y430280D01*
X604767Y428626D01*
X605340Y426861D01*
X605536Y425623D01*
X595363Y425623D01*
G37*
%LPD*%
%LPC*%
G36*
X112763Y283383D02*
X112763Y283383D01*
X112763Y293556D01*
X114001Y293360D01*
X115766Y292787D01*
X117420Y291944D01*
X118921Y290853D01*
X120233Y289541D01*
X121324Y288040D01*
X122167Y286386D01*
X122740Y284621D01*
X122936Y283383D01*
X112763Y283383D01*
G37*
%LPD*%
%LPC*%
G36*
X61963Y257983D02*
X61963Y257983D01*
X61963Y268156D01*
X63201Y267960D01*
X64966Y267387D01*
X66620Y266544D01*
X68121Y265453D01*
X69433Y264141D01*
X70524Y262640D01*
X71367Y260986D01*
X71940Y259221D01*
X72136Y257983D01*
X61963Y257983D01*
G37*
%LPD*%
%LPC*%
G36*
X112763Y257983D02*
X112763Y257983D01*
X112763Y268156D01*
X114001Y267960D01*
X115766Y267387D01*
X117420Y266544D01*
X118921Y265453D01*
X120233Y264141D01*
X121324Y262640D01*
X122167Y260986D01*
X122740Y259221D01*
X122936Y257983D01*
X112763Y257983D01*
G37*
%LPD*%
%LPC*%
G36*
X671563Y283133D02*
X671563Y283133D01*
X671563Y293307D01*
X672801Y293110D01*
X674566Y292537D01*
X676220Y291694D01*
X677721Y290604D01*
X679033Y289291D01*
X680124Y287790D01*
X680967Y286136D01*
X681540Y284371D01*
X681736Y283133D01*
X671563Y283133D01*
G37*
%LPD*%
%LPC*%
G36*
X61963Y359583D02*
X61963Y359583D01*
X61963Y369756D01*
X63201Y369560D01*
X64966Y368987D01*
X66620Y368144D01*
X68121Y367053D01*
X69433Y365741D01*
X70524Y364240D01*
X71367Y362586D01*
X71940Y360821D01*
X72136Y359583D01*
X61963Y359583D01*
G37*
%LPD*%
%LPC*%
G36*
X671563Y130733D02*
X671563Y130733D01*
X671563Y140907D01*
X672801Y140710D01*
X674566Y140137D01*
X676220Y139294D01*
X677721Y138204D01*
X679033Y136891D01*
X680124Y135390D01*
X680967Y133736D01*
X681540Y131971D01*
X681736Y130733D01*
X671563Y130733D01*
G37*
%LPD*%
%LPC*%
G36*
X646163Y410133D02*
X646163Y410133D01*
X646163Y420307D01*
X647401Y420110D01*
X649166Y419537D01*
X650820Y418694D01*
X652321Y417603D01*
X653633Y416291D01*
X654724Y414790D01*
X655567Y413136D01*
X656140Y411371D01*
X656336Y410133D01*
X646163Y410133D01*
G37*
%LPD*%
%LPC*%
G36*
X23344Y435783D02*
X23344Y435783D01*
X23540Y437021D01*
X24113Y438786D01*
X24956Y440440D01*
X26047Y441941D01*
X27359Y443253D01*
X28860Y444344D01*
X30514Y445187D01*
X32279Y445760D01*
X33517Y445956D01*
X33517Y435783D01*
X23344Y435783D01*
G37*
%LPD*%
%LPC*%
G36*
X48744Y435783D02*
X48744Y435783D01*
X48940Y437021D01*
X49513Y438786D01*
X50356Y440440D01*
X51447Y441941D01*
X52759Y443253D01*
X54260Y444344D01*
X55914Y445187D01*
X57679Y445760D01*
X58917Y445956D01*
X58917Y435783D01*
X48744Y435783D01*
G37*
%LPD*%
%LPC*%
G36*
X582144Y425623D02*
X582144Y425623D01*
X582340Y426861D01*
X582913Y428626D01*
X583756Y430280D01*
X584847Y431781D01*
X586159Y433093D01*
X587660Y434184D01*
X589314Y435027D01*
X591079Y435600D01*
X592317Y435796D01*
X592317Y425623D01*
X582144Y425623D01*
G37*
%LPD*%
%LPC*%
G36*
X61963Y432737D02*
X61963Y432737D01*
X72136Y432737D01*
X71940Y431499D01*
X71367Y429734D01*
X70524Y428080D01*
X69433Y426579D01*
X68121Y425267D01*
X66620Y424176D01*
X64966Y423333D01*
X63201Y422760D01*
X61963Y422564D01*
X61963Y432737D01*
G37*
%LPD*%
%LPC*%
G36*
X99544Y283383D02*
X99544Y283383D01*
X99740Y284621D01*
X100313Y286386D01*
X101156Y288040D01*
X102247Y289541D01*
X103559Y290853D01*
X105060Y291944D01*
X106714Y292787D01*
X108479Y293360D01*
X109717Y293556D01*
X109717Y283383D01*
X99544Y283383D01*
G37*
%LPD*%
%LPC*%
G36*
X36563Y432737D02*
X36563Y432737D01*
X46736Y432737D01*
X46540Y431499D01*
X45967Y429734D01*
X45124Y428080D01*
X44033Y426579D01*
X42721Y425267D01*
X41220Y424176D01*
X39566Y423333D01*
X37801Y422760D01*
X36563Y422564D01*
X36563Y432737D01*
G37*
%LPD*%
%LPC*%
G36*
X595363Y422577D02*
X595363Y422577D01*
X605536Y422577D01*
X605340Y421339D01*
X604767Y419574D01*
X603924Y417920D01*
X602833Y416419D01*
X601521Y415107D01*
X600020Y414016D01*
X598366Y413173D01*
X596601Y412600D01*
X595363Y412404D01*
X595363Y422577D01*
G37*
%LPD*%
%LPC*%
G36*
X646163Y407087D02*
X646163Y407087D01*
X656336Y407087D01*
X656140Y405849D01*
X655567Y404084D01*
X654724Y402430D01*
X653633Y400929D01*
X652321Y399617D01*
X650820Y398526D01*
X649166Y397683D01*
X647401Y397110D01*
X646163Y396914D01*
X646163Y407087D01*
G37*
%LPD*%
%LPC*%
G36*
X48744Y359583D02*
X48744Y359583D01*
X48940Y360821D01*
X49513Y362586D01*
X50356Y364240D01*
X51447Y365741D01*
X52759Y367053D01*
X54260Y368144D01*
X55914Y368987D01*
X57679Y369560D01*
X58917Y369756D01*
X58917Y359583D01*
X48744Y359583D01*
G37*
%LPD*%
%LPC*%
G36*
X61963Y356537D02*
X61963Y356537D01*
X72136Y356537D01*
X71940Y355299D01*
X71367Y353534D01*
X70524Y351880D01*
X69433Y350379D01*
X68121Y349067D01*
X66620Y347976D01*
X64966Y347133D01*
X63201Y346560D01*
X61963Y346364D01*
X61963Y356537D01*
G37*
%LPD*%
%LPC*%
G36*
X23344Y283383D02*
X23344Y283383D01*
X23540Y284621D01*
X24113Y286386D01*
X24956Y288040D01*
X26047Y289541D01*
X27359Y290853D01*
X28860Y291944D01*
X30514Y292787D01*
X32279Y293360D01*
X33517Y293556D01*
X33517Y283383D01*
X23344Y283383D01*
G37*
%LPD*%
%LPC*%
G36*
X48744Y283383D02*
X48744Y283383D01*
X48940Y284621D01*
X49513Y286386D01*
X50356Y288040D01*
X51447Y289541D01*
X52759Y290853D01*
X54260Y291944D01*
X55914Y292787D01*
X57679Y293360D01*
X58917Y293556D01*
X58917Y283383D01*
X48744Y283383D01*
G37*
%LPD*%
%LPC*%
G36*
X658344Y283133D02*
X658344Y283133D01*
X658540Y284371D01*
X659113Y286136D01*
X659956Y287790D01*
X661047Y289291D01*
X662359Y290604D01*
X663860Y291694D01*
X665514Y292537D01*
X667279Y293110D01*
X668517Y293307D01*
X668517Y283133D01*
X658344Y283133D01*
G37*
%LPD*%
%LPC*%
G36*
X61963Y280337D02*
X61963Y280337D01*
X72136Y280337D01*
X71940Y279099D01*
X71367Y277334D01*
X70524Y275680D01*
X69433Y274179D01*
X68121Y272867D01*
X66620Y271776D01*
X64966Y270933D01*
X63201Y270360D01*
X61963Y270164D01*
X61963Y280337D01*
G37*
%LPD*%
%LPC*%
G36*
X671563Y280087D02*
X671563Y280087D01*
X681736Y280087D01*
X681540Y278849D01*
X680967Y277084D01*
X680124Y275430D01*
X679033Y273929D01*
X677721Y272617D01*
X676220Y271526D01*
X674566Y270683D01*
X672801Y270110D01*
X671563Y269914D01*
X671563Y280087D01*
G37*
%LPD*%
%LPC*%
G36*
X99544Y257983D02*
X99544Y257983D01*
X99740Y259221D01*
X100313Y260986D01*
X101156Y262640D01*
X102247Y264141D01*
X103559Y265453D01*
X105060Y266544D01*
X106714Y267387D01*
X108479Y267960D01*
X109717Y268156D01*
X109717Y257983D01*
X99544Y257983D01*
G37*
%LPD*%
%LPC*%
G36*
X671563Y127687D02*
X671563Y127687D01*
X681736Y127687D01*
X681540Y126449D01*
X680967Y124684D01*
X680124Y123030D01*
X679033Y121529D01*
X677721Y120217D01*
X676220Y119126D01*
X674566Y118283D01*
X672801Y117710D01*
X671563Y117514D01*
X671563Y127687D01*
G37*
%LPD*%
%LPC*%
G36*
X112763Y280337D02*
X112763Y280337D01*
X122936Y280337D01*
X122740Y279099D01*
X122167Y277334D01*
X121324Y275680D01*
X120233Y274179D01*
X118921Y272867D01*
X117420Y271776D01*
X115766Y270933D01*
X114001Y270360D01*
X112763Y270164D01*
X112763Y280337D01*
G37*
%LPD*%
%LPC*%
G36*
X61963Y254937D02*
X61963Y254937D01*
X72136Y254937D01*
X71940Y253699D01*
X71367Y251934D01*
X70524Y250280D01*
X69433Y248779D01*
X68121Y247467D01*
X66620Y246376D01*
X64966Y245533D01*
X63201Y244960D01*
X61963Y244764D01*
X61963Y254937D01*
G37*
%LPD*%
%LPC*%
G36*
X112763Y254937D02*
X112763Y254937D01*
X122936Y254937D01*
X122740Y253699D01*
X122167Y251934D01*
X121324Y250280D01*
X120233Y248779D01*
X118921Y247467D01*
X117420Y246376D01*
X115766Y245533D01*
X114001Y244960D01*
X112763Y244764D01*
X112763Y254937D01*
G37*
%LPD*%
%LPC*%
G36*
X48744Y257983D02*
X48744Y257983D01*
X48940Y259221D01*
X49513Y260986D01*
X50356Y262640D01*
X51447Y264141D01*
X52759Y265453D01*
X54260Y266544D01*
X55914Y267387D01*
X57679Y267960D01*
X58917Y268156D01*
X58917Y257983D01*
X48744Y257983D01*
G37*
%LPD*%
%LPC*%
G36*
X36563Y280337D02*
X36563Y280337D01*
X46736Y280337D01*
X46540Y279099D01*
X45967Y277334D01*
X45124Y275680D01*
X44033Y274179D01*
X42721Y272867D01*
X41220Y271776D01*
X39566Y270933D01*
X37801Y270360D01*
X36563Y270164D01*
X36563Y280337D01*
G37*
%LPD*%
%LPC*%
G36*
X658344Y130733D02*
X658344Y130733D01*
X658540Y131971D01*
X659113Y133736D01*
X659956Y135390D01*
X661047Y136891D01*
X662359Y138204D01*
X663860Y139294D01*
X665514Y140137D01*
X667279Y140710D01*
X668517Y140907D01*
X668517Y130733D01*
X658344Y130733D01*
G37*
%LPD*%
%LPC*%
G36*
X632944Y410133D02*
X632944Y410133D01*
X633140Y411371D01*
X633713Y413136D01*
X634556Y414790D01*
X635647Y416291D01*
X636959Y417603D01*
X638460Y418694D01*
X640114Y419537D01*
X641879Y420110D01*
X643117Y420307D01*
X643117Y410133D01*
X632944Y410133D01*
G37*
%LPD*%
%LPC*%
G36*
X57679Y270360D02*
X57679Y270360D01*
X55914Y270933D01*
X54260Y271776D01*
X52759Y272867D01*
X51447Y274179D01*
X50356Y275680D01*
X49513Y277334D01*
X48940Y279099D01*
X48744Y280337D01*
X58917Y280337D01*
X58917Y270164D01*
X57679Y270360D01*
G37*
%LPD*%
%LPC*%
G36*
X641879Y397110D02*
X641879Y397110D01*
X640114Y397683D01*
X638460Y398526D01*
X636959Y399617D01*
X635647Y400929D01*
X634556Y402430D01*
X633713Y404084D01*
X633140Y405849D01*
X632944Y407087D01*
X643117Y407087D01*
X643117Y396914D01*
X641879Y397110D01*
G37*
%LPD*%
%LPC*%
G36*
X591079Y412600D02*
X591079Y412600D01*
X589314Y413173D01*
X587660Y414016D01*
X586159Y415107D01*
X584847Y416419D01*
X583756Y417920D01*
X582913Y419574D01*
X582340Y421339D01*
X582144Y422577D01*
X592317Y422577D01*
X592317Y412404D01*
X591079Y412600D01*
G37*
%LPD*%
%LPC*%
G36*
X108479Y270360D02*
X108479Y270360D01*
X106714Y270933D01*
X105060Y271776D01*
X103559Y272867D01*
X102247Y274179D01*
X101156Y275680D01*
X100313Y277334D01*
X99740Y279099D01*
X99544Y280337D01*
X109717Y280337D01*
X109717Y270164D01*
X108479Y270360D01*
G37*
%LPD*%
%LPC*%
G36*
X667279Y270110D02*
X667279Y270110D01*
X665514Y270683D01*
X663860Y271526D01*
X662359Y272617D01*
X661047Y273929D01*
X659956Y275430D01*
X659113Y277084D01*
X658540Y278849D01*
X658344Y280087D01*
X668517Y280087D01*
X668517Y269914D01*
X667279Y270110D01*
G37*
%LPD*%
%LPC*%
G36*
X57679Y244960D02*
X57679Y244960D01*
X55914Y245533D01*
X54260Y246376D01*
X52759Y247467D01*
X51447Y248779D01*
X50356Y250280D01*
X49513Y251934D01*
X48940Y253699D01*
X48744Y254937D01*
X58917Y254937D01*
X58917Y244764D01*
X57679Y244960D01*
G37*
%LPD*%
%LPC*%
G36*
X32279Y270360D02*
X32279Y270360D01*
X30514Y270933D01*
X28860Y271776D01*
X27359Y272867D01*
X26047Y274179D01*
X24956Y275680D01*
X24113Y277334D01*
X23540Y279099D01*
X23344Y280337D01*
X33517Y280337D01*
X33517Y270164D01*
X32279Y270360D01*
G37*
%LPD*%
%LPC*%
G36*
X108479Y244960D02*
X108479Y244960D01*
X106714Y245533D01*
X105060Y246376D01*
X103559Y247467D01*
X102247Y248779D01*
X101156Y250280D01*
X100313Y251934D01*
X99740Y253699D01*
X99544Y254937D01*
X109717Y254937D01*
X109717Y244764D01*
X108479Y244960D01*
G37*
%LPD*%
%LPC*%
G36*
X32279Y422760D02*
X32279Y422760D01*
X30514Y423333D01*
X28860Y424176D01*
X27359Y425267D01*
X26047Y426579D01*
X24956Y428080D01*
X24113Y429734D01*
X23540Y431499D01*
X23344Y432737D01*
X33517Y432737D01*
X33517Y422564D01*
X32279Y422760D01*
G37*
%LPD*%
%LPC*%
G36*
X57679Y346560D02*
X57679Y346560D01*
X55914Y347133D01*
X54260Y347976D01*
X52759Y349067D01*
X51447Y350379D01*
X50356Y351880D01*
X49513Y353534D01*
X48940Y355299D01*
X48744Y356537D01*
X58917Y356537D01*
X58917Y346364D01*
X57679Y346560D01*
G37*
%LPD*%
%LPC*%
G36*
X667279Y117710D02*
X667279Y117710D01*
X665514Y118283D01*
X663860Y119126D01*
X662359Y120217D01*
X661047Y121529D01*
X659956Y123030D01*
X659113Y124684D01*
X658540Y126449D01*
X658344Y127687D01*
X668517Y127687D01*
X668517Y117514D01*
X667279Y117710D01*
G37*
%LPD*%
%LPC*%
G36*
X57679Y422760D02*
X57679Y422760D01*
X55914Y423333D01*
X54260Y424176D01*
X52759Y425267D01*
X51447Y426579D01*
X50356Y428080D01*
X49513Y429734D01*
X48940Y431499D01*
X48744Y432737D01*
X58917Y432737D01*
X58917Y422564D01*
X57679Y422760D01*
G37*
%LPD*%
%LPC*%
G36*
X532383Y80263D02*
X532383Y80263D01*
X532383Y88901D01*
X535069Y88901D01*
X541021Y82949D01*
X541021Y80263D01*
X532383Y80263D01*
G37*
%LPD*%
%LPC*%
G36*
X532383Y77217D02*
X532383Y77217D01*
X541021Y77217D01*
X541021Y74531D01*
X535069Y68579D01*
X532383Y68579D01*
X532383Y77217D01*
G37*
%LPD*%
%LPC*%
G36*
X520699Y80263D02*
X520699Y80263D01*
X520699Y82949D01*
X526651Y88901D01*
X529337Y88901D01*
X529337Y80263D01*
X520699Y80263D01*
G37*
%LPD*%
%LPC*%
G36*
X526651Y68579D02*
X526651Y68579D01*
X520699Y74531D01*
X520699Y77217D01*
X529337Y77217D01*
X529337Y68579D01*
X526651Y68579D01*
G37*
%LPD*%
%LPC*%
G36*
X306123Y62523D02*
X306123Y62523D01*
X306123Y70965D01*
X306961Y70833D01*
X308470Y70342D01*
X309883Y69622D01*
X311167Y68689D01*
X312289Y67567D01*
X313222Y66283D01*
X313942Y64870D01*
X314433Y63361D01*
X314565Y62523D01*
X306123Y62523D01*
G37*
%LPD*%
%LPC*%
G36*
X294635Y62523D02*
X294635Y62523D01*
X294767Y63361D01*
X295258Y64870D01*
X295978Y66283D01*
X296911Y67567D01*
X298033Y68689D01*
X299317Y69622D01*
X300730Y70342D01*
X302239Y70833D01*
X303077Y70965D01*
X303077Y62523D01*
X294635Y62523D01*
G37*
%LPD*%
%LPC*%
G36*
X306123Y59477D02*
X306123Y59477D01*
X314565Y59477D01*
X314433Y58639D01*
X313942Y57130D01*
X313222Y55717D01*
X312289Y54433D01*
X311167Y53311D01*
X309883Y52378D01*
X308470Y51658D01*
X306961Y51167D01*
X306123Y51035D01*
X306123Y59477D01*
G37*
%LPD*%
%LPC*%
G36*
X302239Y51167D02*
X302239Y51167D01*
X300730Y51658D01*
X299317Y52378D01*
X298033Y53311D01*
X296911Y54433D01*
X295978Y55717D01*
X295258Y57130D01*
X294767Y58639D01*
X294635Y59477D01*
X303077Y59477D01*
X303077Y51035D01*
X302239Y51167D01*
G37*
%LPD*%
%LPC*%
G36*
X60439Y256459D02*
X60439Y256459D01*
X60439Y256461D01*
X60441Y256461D01*
X60441Y256459D01*
X60439Y256459D01*
G37*
%LPD*%
%LPC*%
G36*
X35039Y281859D02*
X35039Y281859D01*
X35039Y281861D01*
X35041Y281861D01*
X35041Y281859D01*
X35039Y281859D01*
G37*
%LPD*%
%LPC*%
G36*
X670039Y129209D02*
X670039Y129209D01*
X670039Y129211D01*
X670041Y129211D01*
X670041Y129209D01*
X670039Y129209D01*
G37*
%LPD*%
%LPC*%
G36*
X530859Y78739D02*
X530859Y78739D01*
X530859Y78741D01*
X530861Y78741D01*
X530861Y78739D01*
X530859Y78739D01*
G37*
%LPD*%
%LPC*%
G36*
X644639Y408609D02*
X644639Y408609D01*
X644639Y408611D01*
X644641Y408611D01*
X644641Y408609D01*
X644639Y408609D01*
G37*
%LPD*%
%LPC*%
G36*
X60439Y281859D02*
X60439Y281859D01*
X60439Y281861D01*
X60441Y281861D01*
X60441Y281859D01*
X60439Y281859D01*
G37*
%LPD*%
%LPC*%
G36*
X593839Y424099D02*
X593839Y424099D01*
X593839Y424101D01*
X593841Y424101D01*
X593841Y424099D01*
X593839Y424099D01*
G37*
%LPD*%
%LPC*%
G36*
X60439Y358059D02*
X60439Y358059D01*
X60439Y358061D01*
X60441Y358061D01*
X60441Y358059D01*
X60439Y358059D01*
G37*
%LPD*%
%LPC*%
G36*
X111239Y281859D02*
X111239Y281859D01*
X111239Y281861D01*
X111241Y281861D01*
X111241Y281859D01*
X111239Y281859D01*
G37*
%LPD*%
%LPC*%
G36*
X670039Y281609D02*
X670039Y281609D01*
X670039Y281611D01*
X670041Y281611D01*
X670041Y281609D01*
X670039Y281609D01*
G37*
%LPD*%
%LPC*%
G36*
X35039Y434259D02*
X35039Y434259D01*
X35039Y434261D01*
X35041Y434261D01*
X35041Y434259D01*
X35039Y434259D01*
G37*
%LPD*%
%LPC*%
G36*
X60439Y434259D02*
X60439Y434259D01*
X60439Y434261D01*
X60441Y434261D01*
X60441Y434259D01*
X60439Y434259D01*
G37*
%LPD*%
%LPC*%
G36*
X304599Y60999D02*
X304599Y60999D01*
X304599Y61001D01*
X304601Y61001D01*
X304601Y60999D01*
X304599Y60999D01*
G37*
%LPD*%
%LPC*%
G36*
X111239Y256459D02*
X111239Y256459D01*
X111239Y256461D01*
X111241Y256461D01*
X111241Y256459D01*
X111239Y256459D01*
G37*
%LPD*%
D10*
X505460Y129540D03*
X530860Y129540D03*
X505460Y104140D03*
X530860Y104140D03*
X505460Y78740D03*
X530860Y78740D03*
X505460Y53340D03*
X530860Y53340D03*
D11*
X111240Y180260D03*
D12*
X111240Y154860D03*
X111240Y129460D03*
X111240Y104060D03*
X111240Y78660D03*
X111240Y53260D03*
D11*
X111240Y408860D03*
D12*
X111240Y383460D03*
X111240Y358060D03*
X111240Y332660D03*
X111240Y307260D03*
X111240Y281860D03*
X111240Y256460D03*
X111240Y231060D03*
D11*
X35040Y510460D03*
D12*
X60440Y510460D03*
X35040Y485060D03*
X60440Y485060D03*
X35040Y459660D03*
X60440Y459660D03*
X35040Y434260D03*
X60440Y434260D03*
X35040Y408860D03*
X60440Y408860D03*
X35040Y383460D03*
X60440Y383460D03*
X35040Y358060D03*
X60440Y358060D03*
X35040Y332660D03*
X60440Y332660D03*
X35040Y307260D03*
X60440Y307260D03*
X35040Y281860D03*
X60440Y281860D03*
X35040Y256460D03*
X60440Y256460D03*
X35040Y231060D03*
X60440Y231060D03*
X35040Y205660D03*
X60440Y205660D03*
X35040Y180260D03*
X60440Y180260D03*
X35040Y154860D03*
X60440Y154860D03*
X35040Y129460D03*
X60440Y129460D03*
X35040Y104060D03*
X60440Y104060D03*
X35040Y78660D03*
X60440Y78660D03*
X35040Y53260D03*
X60440Y53260D03*
D11*
X593840Y271700D03*
D12*
X593840Y297100D03*
X593840Y322500D03*
X593840Y347900D03*
X593840Y373300D03*
X593840Y398700D03*
X593840Y424100D03*
X593840Y449500D03*
X593840Y474900D03*
X593840Y500300D03*
X593840Y104060D03*
X593840Y129460D03*
X593840Y154860D03*
X593840Y180260D03*
X593840Y205660D03*
X593840Y231060D03*
D11*
X593840Y53260D03*
D12*
X593840Y78660D03*
D11*
X644640Y510210D03*
D12*
X670040Y510210D03*
X644640Y484810D03*
X670040Y484810D03*
X644640Y459410D03*
X670040Y459410D03*
X644640Y434010D03*
X670040Y434010D03*
X644640Y408610D03*
X670040Y408610D03*
X644640Y383210D03*
X670040Y383210D03*
X644640Y357810D03*
X670040Y357810D03*
X644640Y332410D03*
X670040Y332410D03*
X644640Y307010D03*
X670040Y307010D03*
X644640Y281610D03*
X670040Y281610D03*
X644640Y256210D03*
X670040Y256210D03*
X644640Y230810D03*
X670040Y230810D03*
X644640Y205410D03*
X670040Y205410D03*
X644640Y180010D03*
X670040Y180010D03*
X644640Y154610D03*
X670040Y154610D03*
X644640Y129210D03*
X670040Y129210D03*
X644640Y103810D03*
X670040Y103810D03*
X644640Y78410D03*
X670040Y78410D03*
X644640Y53010D03*
X670040Y53010D03*
D13*
X304600Y61000D03*
X203000Y61000D03*
X253800Y61000D03*
D14*
X238760Y480060D03*
X447040Y480060D03*
X335280Y375920D03*
X335280Y436880D03*
X307340Y406400D03*
X365760Y406400D03*
X287020Y284480D03*
X152400Y383540D03*
X170180Y467360D03*
X170180Y500380D03*
X452120Y144780D03*
X289560Y154940D03*
X543560Y314960D03*
D15*
X459740Y314960D01*
D14*
X459740Y314960D03*
X467360Y347980D03*
D15*
X487680Y327660D01*
X556260Y327660D01*
D14*
X556260Y327660D03*
X495300Y340360D03*
D15*
X543560Y340360D01*
X548640Y345440D01*
D14*
X548640Y345440D03*
X629920Y426720D03*
D15*
X629920Y444500D01*
X632460Y447040D01*
D14*
X632460Y447040D03*
X497840Y246380D03*
D15*
X604520Y246380D01*
X619760Y261620D01*
D14*
X619760Y261620D03*
X495300Y215900D03*
D15*
X579120Y215900D01*
D14*
X579120Y215900D03*
X617220Y218440D03*
D15*
X635000Y218440D01*
D14*
X635000Y218440D03*
X193040Y132080D03*
D15*
X271780Y132080D01*
D14*
X271780Y132080D03*
X312420Y144780D03*
D15*
X335280Y167640D01*
D14*
X335280Y167640D03*
X218440Y152400D03*
D15*
X218440Y177800D01*
D14*
X218440Y177800D03*
X208280Y228600D03*
D15*
X190500Y246380D01*
D14*
X190500Y246380D03*
X266700Y78740D03*
D15*
X241300Y78740D01*
D14*
X241300Y78740D03*
M02*
