G04 EAGLE Gerber RS-274X export*
G75*
%MOMM*%
%FSLAX34Y34*%
%LPD*%
%INTop Copper*%
%IPPOS*%
%AMOC8*
5,1,8,0,0,1.08239X$1,22.5*%
G01*
%ADD10R,1.300000X1.500000*%
%ADD11P,1.649562X8X292.500000*%
%ADD12C,0.406400*%
%ADD13R,1.850000X1.850000*%
%ADD14C,1.850000*%
%ADD15R,1.500000X1.300000*%
%ADD16C,0.450000*%
%ADD17C,0.525000*%
%ADD18C,1.000000*%
%ADD19C,1.508000*%
%ADD20C,0.254000*%
%ADD21C,0.452400*%


D10*
X207620Y467360D03*
X188620Y467360D03*
X207620Y500380D03*
X188620Y500380D03*
X192380Y383540D03*
X173380Y383540D03*
X254660Y162560D03*
X273660Y162560D03*
D11*
X505460Y129540D03*
X530860Y129540D03*
X505460Y104140D03*
X530860Y104140D03*
X505460Y78740D03*
X530860Y78740D03*
X505460Y53340D03*
X530860Y53340D03*
D12*
X424942Y221615D02*
X424942Y235585D01*
X429006Y235585D01*
X429006Y221615D01*
X424942Y221615D01*
X424942Y225476D02*
X429006Y225476D01*
X429006Y229337D02*
X424942Y229337D01*
X424942Y233198D02*
X429006Y233198D01*
X399034Y235585D02*
X399034Y221615D01*
X399034Y235585D02*
X403098Y235585D01*
X403098Y221615D01*
X399034Y221615D01*
X399034Y225476D02*
X403098Y225476D01*
X403098Y229337D02*
X399034Y229337D01*
X399034Y233198D02*
X403098Y233198D01*
D13*
X111240Y180260D03*
D14*
X111240Y154860D03*
X111240Y129460D03*
X111240Y104060D03*
X111240Y78660D03*
X111240Y53260D03*
D13*
X111240Y408860D03*
D14*
X111240Y383460D03*
X111240Y358060D03*
X111240Y332660D03*
X111240Y307260D03*
X111240Y281860D03*
X111240Y256460D03*
X111240Y231060D03*
D13*
X35040Y510460D03*
D14*
X60440Y510460D03*
X35040Y485060D03*
X60440Y485060D03*
X35040Y459660D03*
X60440Y459660D03*
X35040Y434260D03*
X60440Y434260D03*
X35040Y408860D03*
X60440Y408860D03*
X35040Y383460D03*
X60440Y383460D03*
X35040Y358060D03*
X60440Y358060D03*
X35040Y332660D03*
X60440Y332660D03*
X35040Y307260D03*
X60440Y307260D03*
X35040Y281860D03*
X60440Y281860D03*
X35040Y256460D03*
X60440Y256460D03*
X35040Y231060D03*
X60440Y231060D03*
X35040Y205660D03*
X60440Y205660D03*
X35040Y180260D03*
X60440Y180260D03*
X35040Y154860D03*
X60440Y154860D03*
X35040Y129460D03*
X60440Y129460D03*
X35040Y104060D03*
X60440Y104060D03*
X35040Y78660D03*
X60440Y78660D03*
X35040Y53260D03*
X60440Y53260D03*
D13*
X593840Y271700D03*
D14*
X593840Y297100D03*
X593840Y322500D03*
X593840Y347900D03*
X593840Y373300D03*
X593840Y398700D03*
X593840Y424100D03*
X593840Y449500D03*
X593840Y474900D03*
X593840Y500300D03*
X593840Y104060D03*
X593840Y129460D03*
X593840Y154860D03*
X593840Y180260D03*
X593840Y205660D03*
X593840Y231060D03*
D13*
X593840Y53260D03*
D14*
X593840Y78660D03*
D13*
X644640Y510210D03*
D14*
X670040Y510210D03*
X644640Y484810D03*
X670040Y484810D03*
X644640Y459410D03*
X670040Y459410D03*
X644640Y434010D03*
X670040Y434010D03*
X644640Y408610D03*
X670040Y408610D03*
X644640Y383210D03*
X670040Y383210D03*
X644640Y357810D03*
X670040Y357810D03*
X644640Y332410D03*
X670040Y332410D03*
X644640Y307010D03*
X670040Y307010D03*
X644640Y281610D03*
X670040Y281610D03*
X644640Y256210D03*
X670040Y256210D03*
X644640Y230810D03*
X670040Y230810D03*
X644640Y205410D03*
X670040Y205410D03*
X644640Y180010D03*
X670040Y180010D03*
X644640Y154610D03*
X670040Y154610D03*
X644640Y129210D03*
X670040Y129210D03*
X644640Y103810D03*
X670040Y103810D03*
X644640Y78410D03*
X670040Y78410D03*
X644640Y53010D03*
X670040Y53010D03*
D15*
X452120Y165760D03*
X452120Y184760D03*
X218440Y384200D03*
X218440Y403200D03*
D16*
X250150Y481570D02*
X260650Y481570D01*
X260650Y477070D01*
X250150Y477070D01*
X250150Y481570D01*
X250150Y481345D02*
X260650Y481345D01*
X260650Y468870D02*
X250150Y468870D01*
X260650Y468870D02*
X260650Y464370D01*
X250150Y464370D01*
X250150Y468870D01*
X250150Y468645D02*
X260650Y468645D01*
X260650Y456170D02*
X250150Y456170D01*
X260650Y456170D02*
X260650Y451670D01*
X250150Y451670D01*
X250150Y456170D01*
X250150Y455945D02*
X260650Y455945D01*
X260650Y443470D02*
X250150Y443470D01*
X260650Y443470D02*
X260650Y438970D01*
X250150Y438970D01*
X250150Y443470D01*
X250150Y443245D02*
X260650Y443245D01*
X260650Y430770D02*
X250150Y430770D01*
X260650Y430770D02*
X260650Y426270D01*
X250150Y426270D01*
X250150Y430770D01*
X250150Y430545D02*
X260650Y430545D01*
X260650Y418070D02*
X250150Y418070D01*
X260650Y418070D02*
X260650Y413570D01*
X250150Y413570D01*
X250150Y418070D01*
X250150Y417845D02*
X260650Y417845D01*
X260650Y405370D02*
X250150Y405370D01*
X260650Y405370D02*
X260650Y400870D01*
X250150Y400870D01*
X250150Y405370D01*
X250150Y405145D02*
X260650Y405145D01*
X260650Y392670D02*
X250150Y392670D01*
X260650Y392670D02*
X260650Y388170D01*
X250150Y388170D01*
X250150Y392670D01*
X250150Y392445D02*
X260650Y392445D01*
X260650Y379970D02*
X250150Y379970D01*
X260650Y379970D02*
X260650Y375470D01*
X250150Y375470D01*
X250150Y379970D01*
X250150Y379745D02*
X260650Y379745D01*
X260650Y367270D02*
X250150Y367270D01*
X260650Y367270D02*
X260650Y362770D01*
X250150Y362770D01*
X250150Y367270D01*
X250150Y367045D02*
X260650Y367045D01*
X260650Y354570D02*
X250150Y354570D01*
X260650Y354570D02*
X260650Y350070D01*
X250150Y350070D01*
X250150Y354570D01*
X250150Y354345D02*
X260650Y354345D01*
X260650Y341870D02*
X250150Y341870D01*
X260650Y341870D02*
X260650Y337370D01*
X250150Y337370D01*
X250150Y341870D01*
X250150Y341645D02*
X260650Y341645D01*
X260650Y329170D02*
X250150Y329170D01*
X260650Y329170D02*
X260650Y324670D01*
X250150Y324670D01*
X250150Y329170D01*
X250150Y328945D02*
X260650Y328945D01*
X260650Y316470D02*
X250150Y316470D01*
X260650Y316470D02*
X260650Y311970D01*
X250150Y311970D01*
X250150Y316470D01*
X250150Y316245D02*
X260650Y316245D01*
X425150Y481570D02*
X435650Y481570D01*
X435650Y477070D01*
X425150Y477070D01*
X425150Y481570D01*
X425150Y481345D02*
X435650Y481345D01*
X435650Y468870D02*
X425150Y468870D01*
X435650Y468870D02*
X435650Y464370D01*
X425150Y464370D01*
X425150Y468870D01*
X425150Y468645D02*
X435650Y468645D01*
X435650Y456170D02*
X425150Y456170D01*
X435650Y456170D02*
X435650Y451670D01*
X425150Y451670D01*
X425150Y456170D01*
X425150Y455945D02*
X435650Y455945D01*
X435650Y443470D02*
X425150Y443470D01*
X435650Y443470D02*
X435650Y438970D01*
X425150Y438970D01*
X425150Y443470D01*
X425150Y443245D02*
X435650Y443245D01*
X435650Y430770D02*
X425150Y430770D01*
X435650Y430770D02*
X435650Y426270D01*
X425150Y426270D01*
X425150Y430770D01*
X425150Y430545D02*
X435650Y430545D01*
X435650Y418070D02*
X425150Y418070D01*
X435650Y418070D02*
X435650Y413570D01*
X425150Y413570D01*
X425150Y418070D01*
X425150Y417845D02*
X435650Y417845D01*
X435650Y405370D02*
X425150Y405370D01*
X435650Y405370D02*
X435650Y400870D01*
X425150Y400870D01*
X425150Y405370D01*
X425150Y405145D02*
X435650Y405145D01*
X435650Y392670D02*
X425150Y392670D01*
X435650Y392670D02*
X435650Y388170D01*
X425150Y388170D01*
X425150Y392670D01*
X425150Y392445D02*
X435650Y392445D01*
X435650Y379970D02*
X425150Y379970D01*
X435650Y379970D02*
X435650Y375470D01*
X425150Y375470D01*
X425150Y379970D01*
X425150Y379745D02*
X435650Y379745D01*
X435650Y367270D02*
X425150Y367270D01*
X435650Y367270D02*
X435650Y362770D01*
X425150Y362770D01*
X425150Y367270D01*
X425150Y367045D02*
X435650Y367045D01*
X435650Y354570D02*
X425150Y354570D01*
X435650Y354570D02*
X435650Y350070D01*
X425150Y350070D01*
X425150Y354570D01*
X425150Y354345D02*
X435650Y354345D01*
X435650Y341870D02*
X425150Y341870D01*
X435650Y341870D02*
X435650Y337370D01*
X425150Y337370D01*
X425150Y341870D01*
X425150Y341645D02*
X435650Y341645D01*
X435650Y329170D02*
X425150Y329170D01*
X435650Y329170D02*
X435650Y324670D01*
X425150Y324670D01*
X425150Y329170D01*
X425150Y328945D02*
X435650Y328945D01*
X435650Y316470D02*
X425150Y316470D01*
X435650Y316470D02*
X435650Y311970D01*
X425150Y311970D01*
X425150Y316470D01*
X425150Y316245D02*
X435650Y316245D01*
D17*
X338725Y403295D02*
X333475Y403295D01*
X333475Y408545D01*
X338725Y408545D01*
X338725Y403295D01*
X338725Y408282D02*
X333475Y408282D01*
D16*
X283550Y306970D02*
X283550Y296470D01*
X283550Y306970D02*
X288050Y306970D01*
X288050Y296470D01*
X283550Y296470D01*
X283550Y300745D02*
X288050Y300745D01*
X288050Y305020D02*
X283550Y305020D01*
X296250Y306970D02*
X296250Y296470D01*
X296250Y306970D02*
X300750Y306970D01*
X300750Y296470D01*
X296250Y296470D01*
X296250Y300745D02*
X300750Y300745D01*
X300750Y305020D02*
X296250Y305020D01*
X308950Y306970D02*
X308950Y296470D01*
X308950Y306970D02*
X313450Y306970D01*
X313450Y296470D01*
X308950Y296470D01*
X308950Y300745D02*
X313450Y300745D01*
X313450Y305020D02*
X308950Y305020D01*
X321650Y306970D02*
X321650Y296470D01*
X321650Y306970D02*
X326150Y306970D01*
X326150Y296470D01*
X321650Y296470D01*
X321650Y300745D02*
X326150Y300745D01*
X326150Y305020D02*
X321650Y305020D01*
X334350Y306970D02*
X334350Y296470D01*
X334350Y306970D02*
X338850Y306970D01*
X338850Y296470D01*
X334350Y296470D01*
X334350Y300745D02*
X338850Y300745D01*
X338850Y305020D02*
X334350Y305020D01*
X347050Y306970D02*
X347050Y296470D01*
X347050Y306970D02*
X351550Y306970D01*
X351550Y296470D01*
X347050Y296470D01*
X347050Y300745D02*
X351550Y300745D01*
X351550Y305020D02*
X347050Y305020D01*
X359750Y306970D02*
X359750Y296470D01*
X359750Y306970D02*
X364250Y306970D01*
X364250Y296470D01*
X359750Y296470D01*
X359750Y300745D02*
X364250Y300745D01*
X364250Y305020D02*
X359750Y305020D01*
X372450Y306970D02*
X372450Y296470D01*
X372450Y306970D02*
X376950Y306970D01*
X376950Y296470D01*
X372450Y296470D01*
X372450Y300745D02*
X376950Y300745D01*
X376950Y305020D02*
X372450Y305020D01*
X385150Y306970D02*
X385150Y296470D01*
X385150Y306970D02*
X389650Y306970D01*
X389650Y296470D01*
X385150Y296470D01*
X385150Y300745D02*
X389650Y300745D01*
X389650Y305020D02*
X385150Y305020D01*
X397850Y306970D02*
X397850Y296470D01*
X397850Y306970D02*
X402350Y306970D01*
X402350Y296470D01*
X397850Y296470D01*
X397850Y300745D02*
X402350Y300745D01*
X402350Y305020D02*
X397850Y305020D01*
D17*
X323475Y403295D02*
X318225Y403295D01*
X318225Y408545D01*
X323475Y408545D01*
X323475Y403295D01*
X323475Y408282D02*
X318225Y408282D01*
X348725Y403295D02*
X353975Y403295D01*
X348725Y403295D02*
X348725Y408545D01*
X353975Y408545D01*
X353975Y403295D01*
X353975Y408282D02*
X348725Y408282D01*
X338725Y418545D02*
X333475Y418545D01*
X333475Y423795D01*
X338725Y423795D01*
X338725Y418545D01*
X338725Y423532D02*
X333475Y423532D01*
X323475Y418545D02*
X318225Y418545D01*
X318225Y423795D01*
X323475Y423795D01*
X323475Y418545D01*
X323475Y423532D02*
X318225Y423532D01*
X348725Y418545D02*
X353975Y418545D01*
X348725Y418545D02*
X348725Y423795D01*
X353975Y423795D01*
X353975Y418545D01*
X353975Y423532D02*
X348725Y423532D01*
X338725Y388045D02*
X333475Y388045D01*
X333475Y393295D01*
X338725Y393295D01*
X338725Y388045D01*
X338725Y393032D02*
X333475Y393032D01*
X323475Y388045D02*
X318225Y388045D01*
X318225Y393295D01*
X323475Y393295D01*
X323475Y388045D01*
X323475Y393032D02*
X318225Y393032D01*
X348725Y388045D02*
X353975Y388045D01*
X348725Y388045D02*
X348725Y393295D01*
X353975Y393295D01*
X353975Y388045D01*
X353975Y393032D02*
X348725Y393032D01*
D18*
X396320Y160100D02*
X406320Y160100D01*
X396320Y160100D02*
X396320Y170100D01*
X406320Y170100D01*
X406320Y160100D01*
X406320Y169600D02*
X396320Y169600D01*
X175180Y157560D02*
X165180Y157560D01*
X165180Y167560D01*
X175180Y167560D01*
X175180Y157560D01*
X175180Y167060D02*
X165180Y167060D01*
D19*
X304600Y61000D03*
X203000Y61000D03*
X253800Y61000D03*
D20*
X111240Y307260D02*
X60440Y307260D01*
X60440Y231060D02*
X111240Y231060D01*
X593840Y449500D02*
X609680Y449500D01*
X625170Y434010D02*
X644640Y434010D01*
X625170Y434010D02*
X609680Y449500D01*
X255400Y479320D02*
X239500Y479320D01*
X238760Y480060D01*
D21*
X238760Y480060D03*
D20*
X430400Y479320D02*
X431140Y480060D01*
X447040Y480060D01*
D21*
X447040Y480060D03*
D20*
X336100Y390670D02*
X336100Y376740D01*
X335280Y375920D01*
D21*
X335280Y375920D03*
D20*
X336100Y421170D02*
X335280Y421990D01*
X335280Y436880D01*
D21*
X335280Y436880D03*
D20*
X320850Y405920D02*
X307820Y405920D01*
X307340Y406400D01*
D21*
X307340Y406400D03*
D20*
X351350Y405920D02*
X351830Y406400D01*
X365760Y406400D01*
D21*
X365760Y406400D03*
D20*
X336100Y405920D02*
X320850Y405920D01*
X320850Y421170D02*
X336100Y421170D01*
X351350Y421170D01*
X351350Y390670D02*
X336100Y390670D01*
X320850Y390670D01*
X285800Y301720D02*
X285800Y285700D01*
X287020Y284480D01*
D21*
X287020Y284480D03*
D20*
X173380Y383540D02*
X152400Y383540D01*
D21*
X152400Y383540D03*
D20*
X170180Y467360D02*
X188620Y467360D01*
D21*
X170180Y467360D03*
D20*
X170180Y500380D02*
X188620Y500380D01*
D21*
X170180Y500380D03*
D20*
X452120Y165760D02*
X452120Y144780D01*
D21*
X452120Y144780D03*
D20*
X281940Y162560D02*
X273660Y162560D01*
X281940Y162560D02*
X289560Y154940D01*
D21*
X289560Y154940D03*
D20*
X217780Y383540D02*
X218440Y384200D01*
X217780Y383540D02*
X192380Y383540D01*
X243100Y453920D02*
X255400Y453920D01*
X236220Y447040D02*
X236220Y391160D01*
X229260Y384200D01*
X218440Y384200D01*
X236220Y447040D02*
X243100Y453920D01*
X218440Y384200D02*
X218440Y254000D01*
X146050Y181610D01*
X218440Y254000D02*
X368300Y104140D01*
X505460Y104140D01*
X146050Y181610D02*
X144700Y180260D01*
X111240Y180260D01*
X530860Y129540D02*
X530860Y373380D01*
X462280Y441960D01*
X431140Y441960D01*
X430400Y441220D01*
X505460Y373380D02*
X505460Y129540D01*
X505460Y373380D02*
X449580Y429260D01*
X431140Y429260D01*
X430400Y428520D01*
X556260Y129540D02*
X530860Y104140D01*
X556260Y302260D02*
X543560Y314960D01*
D21*
X543560Y314960D03*
X459740Y314960D03*
D20*
X459000Y314220D01*
X430400Y314220D01*
X556260Y302260D02*
X556260Y129540D01*
X452120Y184760D02*
X452120Y203454D01*
X426974Y228600D01*
X430400Y352320D02*
X463020Y352320D01*
X467360Y347980D01*
D21*
X467360Y347980D03*
X556260Y327660D03*
D20*
X574040Y309880D01*
X574040Y261620D01*
X581660Y254000D01*
X617220Y254000D01*
X624840Y246380D01*
X624840Y127000D01*
X635400Y116440D01*
X658260Y116440D01*
X670040Y104660D01*
X670040Y103810D01*
X494560Y339620D02*
X430400Y339620D01*
X494560Y339620D02*
X495300Y340360D01*
D21*
X495300Y340360D03*
X548640Y345440D03*
D20*
X548640Y346140D02*
X588580Y386080D01*
X548640Y346140D02*
X548640Y345440D01*
X588580Y386080D02*
X622300Y386080D01*
X629920Y393700D01*
X629920Y426720D01*
D21*
X629920Y426720D03*
X632460Y447040D03*
D20*
X632760Y446740D02*
X657370Y446740D01*
X632760Y446740D02*
X632460Y447040D01*
X657370Y446740D02*
X670040Y459410D01*
X387400Y301720D02*
X387400Y267920D01*
X408940Y246380D02*
X497840Y246380D01*
D21*
X497840Y246380D03*
X619760Y261620D03*
D20*
X619760Y332930D01*
X644640Y357810D01*
X408940Y246380D02*
X387400Y267920D01*
X255400Y326920D02*
X245640Y326920D01*
X241300Y322580D01*
X241300Y307340D01*
X307340Y241300D01*
X464820Y241300D01*
X490220Y215900D01*
X495300Y215900D01*
D21*
X495300Y215900D03*
X579120Y215900D03*
X617220Y218440D03*
D20*
X584507Y215900D02*
X579120Y215900D01*
X584507Y215900D02*
X587011Y218404D01*
X617184Y218404D02*
X617220Y218440D01*
X617184Y218404D02*
X587011Y218404D01*
D21*
X635000Y218440D03*
D20*
X635300Y218140D02*
X657370Y218140D01*
X635300Y218140D02*
X635000Y218440D01*
X657370Y218140D02*
X670040Y230810D01*
X401320Y228346D02*
X401066Y228600D01*
X401320Y228346D02*
X401320Y226060D01*
X164660Y132080D02*
X111240Y78660D01*
X164660Y132080D02*
X193040Y132080D01*
D21*
X193040Y132080D03*
X271780Y132080D03*
D20*
X299720Y132080D01*
X312420Y144780D01*
D21*
X312420Y144780D03*
X335280Y167640D03*
D20*
X393700Y226060D01*
X401320Y226060D01*
X401320Y165100D01*
X134540Y53260D02*
X111240Y53260D01*
X134540Y53260D02*
X203200Y121920D01*
X191400Y162560D02*
X170180Y162560D01*
X203200Y150760D02*
X203200Y121920D01*
X203200Y150760D02*
X191400Y162560D01*
X254660Y162560D01*
X253800Y161700D02*
X253800Y61000D01*
X253800Y161700D02*
X254660Y162560D01*
X255400Y466620D02*
X231880Y466620D01*
X223520Y497840D02*
X220980Y500380D01*
X207620Y500380D01*
X223520Y474980D02*
X231880Y466620D01*
X223520Y474980D02*
X223520Y497840D01*
X207620Y500380D02*
X207620Y467360D01*
X207620Y414020D01*
X218440Y403200D01*
X149200Y403200D01*
X142240Y396240D01*
X142240Y340360D01*
X134540Y332660D01*
X127000Y332660D01*
X111240Y332660D01*
D21*
X218440Y152400D03*
D20*
X218440Y84400D02*
X218440Y76200D01*
X218440Y84400D02*
X218440Y152400D01*
D21*
X218440Y177800D03*
D20*
X218440Y218440D02*
X208280Y228600D01*
D21*
X208280Y228600D03*
X190500Y246380D03*
D20*
X127000Y309880D01*
X127000Y332660D01*
X218440Y218440D02*
X218440Y177800D01*
X266700Y78740D02*
X505460Y78740D01*
D21*
X266700Y78740D03*
X241300Y78740D03*
D20*
X224100Y78740D01*
X218440Y84400D01*
X218200Y76200D02*
X203000Y61000D01*
X218200Y76200D02*
X218440Y76200D01*
M02*
