G04 EAGLE Gerber RS-274X export*
G75*
%MOMM*%
%FSLAX34Y34*%
%LPD*%
%INSoldermask Bottom*%
%IPPOS*%
%AMOC8*
5,1,8,0,0,1.08239X$1,22.5*%
G01*
%ADD10P,2.199416X8X22.500000*%
%ADD11P,1.803519X8X22.500000*%
%ADD12R,2.183200X2.183200*%
%ADD13C,2.183200*%
%ADD14C,3.378200*%
%ADD15C,2.543200*%


D10*
X609600Y114300D03*
D11*
X261620Y665480D03*
X287020Y665480D03*
X345440Y662940D03*
X370840Y662940D03*
D12*
X223000Y347900D03*
D13*
X223000Y322500D03*
X223000Y297100D03*
X223000Y271700D03*
X223000Y246300D03*
X223000Y220900D03*
D12*
X223000Y576500D03*
D13*
X223000Y551100D03*
X223000Y525700D03*
X223000Y500300D03*
X223000Y474900D03*
X223000Y449500D03*
X223000Y424100D03*
X223000Y398700D03*
D12*
X146800Y678100D03*
D13*
X172200Y678100D03*
X146800Y652700D03*
X172200Y652700D03*
X146800Y627300D03*
X172200Y627300D03*
X146800Y601900D03*
X172200Y601900D03*
X146800Y576500D03*
X172200Y576500D03*
X146800Y551100D03*
X172200Y551100D03*
X146800Y525700D03*
X172200Y525700D03*
X146800Y500300D03*
X172200Y500300D03*
X146800Y474900D03*
X172200Y474900D03*
X146800Y449500D03*
X172200Y449500D03*
X146800Y424100D03*
X172200Y424100D03*
X146800Y398700D03*
X172200Y398700D03*
X146800Y373300D03*
X172200Y373300D03*
X146800Y347900D03*
X172200Y347900D03*
X146800Y322500D03*
X172200Y322500D03*
X146800Y297100D03*
X172200Y297100D03*
X146800Y271700D03*
X172200Y271700D03*
X146800Y246300D03*
X172200Y246300D03*
X146800Y220900D03*
X172200Y220900D03*
D12*
X705600Y439340D03*
D13*
X705600Y464740D03*
X705600Y490140D03*
X705600Y515540D03*
X705600Y540940D03*
X705600Y566340D03*
X705600Y591740D03*
X705600Y617140D03*
X705600Y642540D03*
X705600Y667940D03*
X705600Y271700D03*
X705600Y297100D03*
X705600Y322500D03*
X705600Y347900D03*
X705600Y373300D03*
X705600Y398700D03*
D12*
X705600Y220900D03*
D13*
X705600Y246300D03*
D12*
X756400Y677850D03*
D13*
X781800Y677850D03*
X756400Y652450D03*
X781800Y652450D03*
X756400Y627050D03*
X781800Y627050D03*
X756400Y601650D03*
X781800Y601650D03*
X756400Y576250D03*
X781800Y576250D03*
X756400Y550850D03*
X781800Y550850D03*
X756400Y525450D03*
X781800Y525450D03*
X756400Y500050D03*
X781800Y500050D03*
X756400Y474650D03*
X781800Y474650D03*
X756400Y449250D03*
X781800Y449250D03*
X756400Y423850D03*
X781800Y423850D03*
X756400Y398450D03*
X781800Y398450D03*
X756400Y373050D03*
X781800Y373050D03*
X756400Y347650D03*
X781800Y347650D03*
X756400Y322250D03*
X781800Y322250D03*
X756400Y296850D03*
X781800Y296850D03*
X756400Y271450D03*
X781800Y271450D03*
X756400Y246050D03*
X781800Y246050D03*
X756400Y220650D03*
X781800Y220650D03*
D14*
X705600Y703500D03*
X223000Y716200D03*
X553200Y195500D03*
D15*
X304589Y114550D03*
X355389Y114550D03*
M02*
