G04 EAGLE Gerber RS-274X export*
G75*
%MOMM*%
%FSLAX34Y34*%
%LPD*%
%INSilkscreen Top*%
%IPPOS*%
%AMOC8*
5,1,8,0,0,1.08239X$1,22.5*%
G01*
%ADD10C,0.101600*%
%ADD11C,0.152400*%
%ADD12C,0.127000*%
%ADD13C,0.254000*%
%ADD14R,0.549100X0.757000*%
%ADD15R,0.534300X0.771800*%
%ADD16R,0.534300X0.757000*%
%ADD17R,0.133600X0.756900*%
%ADD18R,0.549100X0.756900*%
%ADD19C,0.254000*%
%ADD20C,0.050800*%
%ADD21C,0.203200*%


D10*
X255214Y107188D02*
X255214Y118872D01*
X258459Y118872D02*
X251968Y118872D01*
X262749Y111732D02*
X270538Y111732D01*
X399994Y107188D02*
X399994Y118872D01*
X403239Y118872D02*
X396748Y118872D01*
X407529Y111732D02*
X415318Y111732D01*
X411424Y115626D02*
X411424Y107837D01*
X643834Y109728D02*
X643834Y121412D01*
X647079Y121412D02*
X640588Y121412D01*
X651591Y117517D02*
X651591Y109728D01*
X651591Y117517D02*
X655485Y117517D01*
X655485Y116219D01*
X659074Y117517D02*
X659074Y109728D01*
X658749Y120763D02*
X658749Y121412D01*
X659398Y121412D01*
X659398Y120763D01*
X658749Y120763D01*
X665929Y114272D02*
X668850Y114272D01*
X665929Y114272D02*
X665835Y114270D01*
X665741Y114264D01*
X665648Y114255D01*
X665555Y114241D01*
X665463Y114224D01*
X665371Y114202D01*
X665281Y114178D01*
X665191Y114149D01*
X665103Y114117D01*
X665016Y114081D01*
X664931Y114041D01*
X664848Y113998D01*
X664766Y113952D01*
X664686Y113902D01*
X664609Y113849D01*
X664534Y113793D01*
X664461Y113734D01*
X664390Y113672D01*
X664322Y113607D01*
X664257Y113539D01*
X664195Y113468D01*
X664136Y113395D01*
X664080Y113320D01*
X664027Y113243D01*
X663977Y113163D01*
X663931Y113081D01*
X663888Y112998D01*
X663848Y112913D01*
X663812Y112826D01*
X663780Y112738D01*
X663751Y112648D01*
X663727Y112558D01*
X663705Y112466D01*
X663688Y112374D01*
X663674Y112281D01*
X663665Y112188D01*
X663659Y112094D01*
X663657Y112000D01*
X663659Y111906D01*
X663665Y111812D01*
X663674Y111719D01*
X663688Y111626D01*
X663705Y111534D01*
X663727Y111442D01*
X663751Y111352D01*
X663780Y111262D01*
X663812Y111174D01*
X663848Y111087D01*
X663888Y111002D01*
X663931Y110919D01*
X663977Y110837D01*
X664027Y110757D01*
X664080Y110680D01*
X664136Y110605D01*
X664195Y110532D01*
X664257Y110461D01*
X664322Y110393D01*
X664390Y110328D01*
X664461Y110266D01*
X664534Y110207D01*
X664609Y110151D01*
X664686Y110098D01*
X664766Y110048D01*
X664848Y110002D01*
X664931Y109959D01*
X665016Y109919D01*
X665103Y109883D01*
X665191Y109851D01*
X665281Y109822D01*
X665371Y109798D01*
X665463Y109776D01*
X665555Y109759D01*
X665648Y109745D01*
X665741Y109736D01*
X665835Y109730D01*
X665929Y109728D01*
X668850Y109728D01*
X668850Y115570D01*
X668848Y115657D01*
X668842Y115745D01*
X668832Y115831D01*
X668819Y115918D01*
X668801Y116003D01*
X668780Y116088D01*
X668755Y116172D01*
X668726Y116254D01*
X668693Y116335D01*
X668657Y116415D01*
X668618Y116493D01*
X668574Y116569D01*
X668528Y116643D01*
X668478Y116714D01*
X668425Y116784D01*
X668369Y116851D01*
X668310Y116915D01*
X668248Y116977D01*
X668184Y117036D01*
X668117Y117092D01*
X668047Y117145D01*
X667976Y117195D01*
X667902Y117241D01*
X667826Y117285D01*
X667748Y117324D01*
X667668Y117360D01*
X667587Y117393D01*
X667505Y117422D01*
X667421Y117447D01*
X667336Y117468D01*
X667251Y117486D01*
X667164Y117499D01*
X667078Y117509D01*
X666990Y117515D01*
X666903Y117517D01*
X664306Y117517D01*
X675964Y109728D02*
X678560Y109728D01*
X675964Y109728D02*
X675877Y109730D01*
X675789Y109736D01*
X675703Y109746D01*
X675616Y109759D01*
X675531Y109777D01*
X675446Y109798D01*
X675362Y109823D01*
X675280Y109852D01*
X675199Y109885D01*
X675119Y109921D01*
X675041Y109960D01*
X674965Y110004D01*
X674891Y110050D01*
X674820Y110100D01*
X674750Y110153D01*
X674683Y110209D01*
X674619Y110268D01*
X674557Y110330D01*
X674498Y110394D01*
X674442Y110461D01*
X674389Y110531D01*
X674339Y110602D01*
X674293Y110676D01*
X674249Y110752D01*
X674210Y110830D01*
X674174Y110910D01*
X674141Y110991D01*
X674112Y111073D01*
X674087Y111157D01*
X674066Y111242D01*
X674048Y111327D01*
X674035Y111414D01*
X674025Y111500D01*
X674019Y111588D01*
X674017Y111675D01*
X674016Y111675D02*
X674016Y115570D01*
X674017Y115570D02*
X674019Y115657D01*
X674025Y115745D01*
X674035Y115831D01*
X674048Y115918D01*
X674066Y116003D01*
X674087Y116088D01*
X674112Y116172D01*
X674141Y116254D01*
X674174Y116335D01*
X674210Y116415D01*
X674249Y116493D01*
X674293Y116569D01*
X674339Y116643D01*
X674389Y116714D01*
X674442Y116784D01*
X674498Y116851D01*
X674557Y116915D01*
X674619Y116977D01*
X674683Y117036D01*
X674750Y117092D01*
X674820Y117145D01*
X674891Y117195D01*
X674965Y117241D01*
X675041Y117285D01*
X675119Y117324D01*
X675199Y117360D01*
X675280Y117393D01*
X675362Y117422D01*
X675446Y117447D01*
X675531Y117468D01*
X675616Y117486D01*
X675703Y117499D01*
X675789Y117509D01*
X675877Y117515D01*
X675964Y117517D01*
X678560Y117517D01*
X287641Y312928D02*
X285044Y312928D01*
X284945Y312930D01*
X284845Y312936D01*
X284746Y312945D01*
X284648Y312958D01*
X284550Y312975D01*
X284452Y312996D01*
X284356Y313021D01*
X284261Y313049D01*
X284167Y313081D01*
X284074Y313116D01*
X283982Y313155D01*
X283892Y313198D01*
X283804Y313243D01*
X283717Y313293D01*
X283633Y313345D01*
X283550Y313401D01*
X283470Y313459D01*
X283392Y313521D01*
X283317Y313586D01*
X283244Y313654D01*
X283174Y313724D01*
X283106Y313797D01*
X283041Y313872D01*
X282979Y313950D01*
X282921Y314030D01*
X282865Y314113D01*
X282813Y314197D01*
X282763Y314284D01*
X282718Y314372D01*
X282675Y314462D01*
X282636Y314554D01*
X282601Y314647D01*
X282569Y314741D01*
X282541Y314836D01*
X282516Y314932D01*
X282495Y315030D01*
X282478Y315128D01*
X282465Y315226D01*
X282456Y315325D01*
X282450Y315425D01*
X282448Y315524D01*
X282448Y322016D01*
X282450Y322115D01*
X282456Y322215D01*
X282465Y322314D01*
X282478Y322412D01*
X282495Y322510D01*
X282516Y322608D01*
X282541Y322704D01*
X282569Y322799D01*
X282601Y322893D01*
X282636Y322986D01*
X282675Y323078D01*
X282718Y323168D01*
X282763Y323256D01*
X282813Y323343D01*
X282865Y323427D01*
X282921Y323510D01*
X282979Y323590D01*
X283041Y323668D01*
X283106Y323743D01*
X283174Y323816D01*
X283244Y323886D01*
X283317Y323954D01*
X283392Y324019D01*
X283470Y324081D01*
X283550Y324139D01*
X283633Y324195D01*
X283717Y324247D01*
X283804Y324297D01*
X283892Y324342D01*
X283982Y324385D01*
X284074Y324424D01*
X284166Y324459D01*
X284261Y324491D01*
X284356Y324519D01*
X284452Y324544D01*
X284550Y324565D01*
X284648Y324582D01*
X284746Y324595D01*
X284845Y324604D01*
X284945Y324610D01*
X285044Y324612D01*
X287641Y324612D01*
X292006Y322016D02*
X295252Y324612D01*
X295252Y312928D01*
X298497Y312928D02*
X292006Y312928D01*
D11*
X603250Y127000D02*
X615950Y127000D01*
X622300Y120650D01*
X622300Y107950D01*
X615950Y101600D01*
X596900Y107950D02*
X596900Y120650D01*
X603250Y127000D01*
X596900Y107950D02*
X603250Y101600D01*
X615950Y101600D01*
D12*
X600583Y140843D02*
X600583Y149733D01*
X600583Y140843D02*
X600581Y140743D01*
X600575Y140644D01*
X600565Y140544D01*
X600552Y140446D01*
X600534Y140347D01*
X600513Y140250D01*
X600488Y140154D01*
X600459Y140058D01*
X600426Y139964D01*
X600390Y139871D01*
X600350Y139780D01*
X600306Y139690D01*
X600259Y139602D01*
X600209Y139516D01*
X600155Y139432D01*
X600098Y139350D01*
X600038Y139271D01*
X599974Y139193D01*
X599908Y139119D01*
X599839Y139047D01*
X599767Y138978D01*
X599693Y138912D01*
X599615Y138848D01*
X599536Y138788D01*
X599454Y138731D01*
X599370Y138677D01*
X599284Y138627D01*
X599196Y138580D01*
X599106Y138536D01*
X599015Y138496D01*
X598922Y138460D01*
X598828Y138427D01*
X598732Y138398D01*
X598636Y138373D01*
X598539Y138352D01*
X598440Y138334D01*
X598342Y138321D01*
X598242Y138311D01*
X598143Y138305D01*
X598043Y138303D01*
X596773Y138303D01*
X606563Y138303D02*
X606563Y149733D01*
X609738Y149733D01*
X609849Y149731D01*
X609959Y149725D01*
X610070Y149716D01*
X610180Y149702D01*
X610289Y149685D01*
X610398Y149664D01*
X610506Y149639D01*
X610613Y149610D01*
X610719Y149578D01*
X610824Y149542D01*
X610927Y149502D01*
X611029Y149459D01*
X611130Y149412D01*
X611229Y149361D01*
X611326Y149308D01*
X611420Y149251D01*
X611513Y149190D01*
X611604Y149127D01*
X611693Y149060D01*
X611779Y148990D01*
X611862Y148917D01*
X611944Y148842D01*
X612022Y148764D01*
X612097Y148682D01*
X612170Y148599D01*
X612240Y148513D01*
X612307Y148424D01*
X612370Y148333D01*
X612431Y148240D01*
X612488Y148145D01*
X612541Y148049D01*
X612592Y147950D01*
X612639Y147849D01*
X612682Y147747D01*
X612722Y147644D01*
X612758Y147539D01*
X612790Y147433D01*
X612819Y147326D01*
X612844Y147218D01*
X612865Y147109D01*
X612882Y147000D01*
X612896Y146890D01*
X612905Y146779D01*
X612911Y146669D01*
X612913Y146558D01*
X612911Y146447D01*
X612905Y146337D01*
X612896Y146226D01*
X612882Y146116D01*
X612865Y146007D01*
X612844Y145898D01*
X612819Y145790D01*
X612790Y145683D01*
X612758Y145577D01*
X612722Y145472D01*
X612682Y145369D01*
X612639Y145267D01*
X612592Y145166D01*
X612541Y145067D01*
X612488Y144970D01*
X612431Y144876D01*
X612370Y144783D01*
X612307Y144692D01*
X612240Y144603D01*
X612170Y144517D01*
X612097Y144434D01*
X612022Y144352D01*
X611944Y144274D01*
X611862Y144199D01*
X611779Y144126D01*
X611693Y144056D01*
X611604Y143989D01*
X611513Y143926D01*
X611420Y143865D01*
X611326Y143808D01*
X611229Y143755D01*
X611130Y143704D01*
X611029Y143657D01*
X610927Y143614D01*
X610824Y143574D01*
X610719Y143538D01*
X610613Y143506D01*
X610506Y143477D01*
X610398Y143452D01*
X610289Y143431D01*
X610180Y143414D01*
X610070Y143400D01*
X609959Y143391D01*
X609849Y143385D01*
X609738Y143383D01*
X606563Y143383D01*
X617422Y147193D02*
X620597Y149733D01*
X620597Y138303D01*
X617422Y138303D02*
X623772Y138303D01*
D11*
X286721Y674338D02*
X286502Y674638D01*
X286275Y674932D01*
X286041Y675220D01*
X285800Y675503D01*
X285553Y675780D01*
X285298Y676051D01*
X285037Y676315D01*
X284770Y676573D01*
X284497Y676824D01*
X284217Y677069D01*
X283932Y677307D01*
X283641Y677537D01*
X283344Y677761D01*
X283042Y677977D01*
X282735Y678186D01*
X282423Y678387D01*
X282106Y678581D01*
X281784Y678767D01*
X281458Y678945D01*
X281128Y679115D01*
X280794Y679277D01*
X280456Y679430D01*
X280114Y679576D01*
X279769Y679713D01*
X279420Y679841D01*
X279069Y679961D01*
X278714Y680073D01*
X278357Y680175D01*
X277998Y680270D01*
X277637Y680355D01*
X277273Y680431D01*
X276908Y680499D01*
X276541Y680557D01*
X276173Y680607D01*
X275804Y680648D01*
X275434Y680679D01*
X275063Y680702D01*
X274692Y680715D01*
X274320Y680720D01*
X273948Y680715D01*
X273577Y680702D01*
X273205Y680679D01*
X272835Y680647D01*
X272465Y680607D01*
X272097Y680557D01*
X271729Y680498D01*
X271364Y680431D01*
X271000Y680354D01*
X270638Y680268D01*
X270278Y680174D01*
X269921Y680071D01*
X269566Y679960D01*
X269214Y679839D01*
X268865Y679710D01*
X268520Y679573D01*
X268178Y679427D01*
X267839Y679273D01*
X267504Y679111D01*
X267174Y678941D01*
X266848Y678762D01*
X266526Y678576D01*
X266208Y678382D01*
X265896Y678180D01*
X265589Y677971D01*
X265287Y677754D01*
X264990Y677530D01*
X264698Y677299D01*
X264413Y677061D01*
X264133Y676815D01*
X263860Y676563D01*
X263592Y676305D01*
X263332Y676040D01*
X263077Y675769D01*
X262829Y675491D01*
X262589Y675208D01*
X262355Y674919D01*
X262128Y674624D01*
X274320Y650240D02*
X274685Y650244D01*
X275050Y650257D01*
X275414Y650279D01*
X275777Y650310D01*
X276140Y650349D01*
X276502Y650397D01*
X276862Y650454D01*
X277221Y650519D01*
X277579Y650592D01*
X277934Y650675D01*
X278287Y650765D01*
X278639Y650865D01*
X278987Y650972D01*
X279333Y651088D01*
X279676Y651212D01*
X280016Y651345D01*
X280353Y651485D01*
X280686Y651633D01*
X281016Y651790D01*
X281342Y651954D01*
X281664Y652126D01*
X281981Y652306D01*
X282294Y652493D01*
X282603Y652687D01*
X282907Y652889D01*
X283206Y653099D01*
X283500Y653315D01*
X283788Y653538D01*
X284071Y653768D01*
X284349Y654005D01*
X284621Y654248D01*
X284887Y654498D01*
X285147Y654754D01*
X285400Y655017D01*
X285648Y655285D01*
X285888Y655559D01*
X286123Y655839D01*
X286350Y656124D01*
X274320Y650240D02*
X273955Y650244D01*
X273590Y650257D01*
X273226Y650279D01*
X272863Y650310D01*
X272500Y650349D01*
X272138Y650397D01*
X271778Y650454D01*
X271419Y650519D01*
X271061Y650592D01*
X270706Y650675D01*
X270353Y650765D01*
X270001Y650865D01*
X269653Y650972D01*
X269307Y651088D01*
X268964Y651212D01*
X268624Y651345D01*
X268287Y651485D01*
X267954Y651633D01*
X267624Y651790D01*
X267298Y651954D01*
X266976Y652126D01*
X266659Y652306D01*
X266346Y652493D01*
X266037Y652687D01*
X265733Y652889D01*
X265434Y653099D01*
X265140Y653315D01*
X264852Y653538D01*
X264569Y653768D01*
X264291Y654005D01*
X264019Y654248D01*
X263753Y654498D01*
X263493Y654754D01*
X263240Y655017D01*
X262992Y655285D01*
X262752Y655559D01*
X262517Y655839D01*
X262290Y656124D01*
D13*
X274320Y685800D02*
X274814Y685794D01*
X275308Y685776D01*
X275802Y685746D01*
X276295Y685704D01*
X276786Y685650D01*
X277276Y685584D01*
X277764Y685506D01*
X278251Y685416D01*
X278735Y685315D01*
X279216Y685201D01*
X279694Y685076D01*
X280170Y684940D01*
X280641Y684792D01*
X281109Y684632D01*
X281573Y684461D01*
X282033Y684279D01*
X282488Y684086D01*
X282939Y683882D01*
X283384Y683667D01*
X283824Y683441D01*
X284258Y683204D01*
X284686Y682957D01*
X285108Y682700D01*
X285524Y682432D01*
X285933Y682154D01*
X286335Y681867D01*
X286731Y681570D01*
X287118Y681263D01*
X287499Y680947D01*
X287871Y680622D01*
X288236Y680287D01*
X288592Y679944D01*
X288939Y679593D01*
X289279Y679233D01*
X289609Y678865D01*
X289930Y678489D01*
X274320Y685800D02*
X273832Y685794D01*
X273345Y685777D01*
X272858Y685747D01*
X272371Y685706D01*
X271886Y685654D01*
X271402Y685589D01*
X270920Y685513D01*
X270440Y685426D01*
X269962Y685327D01*
X269487Y685217D01*
X269014Y685095D01*
X268545Y684962D01*
X268078Y684817D01*
X267616Y684662D01*
X267157Y684495D01*
X266702Y684318D01*
X266252Y684129D01*
X265807Y683930D01*
X265366Y683720D01*
X264930Y683500D01*
X264500Y683269D01*
X264076Y683028D01*
X263658Y682777D01*
X263245Y682516D01*
X262839Y682245D01*
X262440Y681965D01*
X262047Y681675D01*
X261662Y681375D01*
X261284Y681066D01*
X260913Y680749D01*
X260551Y680422D01*
X260196Y680087D01*
X259849Y679744D01*
X259511Y679392D01*
X259181Y679033D01*
X258860Y678665D01*
X258547Y678290D01*
X258244Y677907D01*
X257950Y677518D01*
X257666Y677121D01*
X257391Y676718D01*
X257126Y676308D01*
X256871Y675892D01*
X256626Y675470D01*
X256391Y675042D01*
X274320Y645160D02*
X274810Y645166D01*
X275300Y645184D01*
X275789Y645213D01*
X276278Y645255D01*
X276765Y645308D01*
X277251Y645372D01*
X277735Y645449D01*
X278217Y645537D01*
X278697Y645637D01*
X279175Y645748D01*
X279649Y645871D01*
X280121Y646006D01*
X280589Y646151D01*
X281053Y646308D01*
X281514Y646476D01*
X281970Y646655D01*
X282422Y646845D01*
X282869Y647046D01*
X283311Y647258D01*
X283748Y647480D01*
X284180Y647712D01*
X284606Y647955D01*
X285025Y648209D01*
X285439Y648472D01*
X285846Y648745D01*
X286246Y649028D01*
X286640Y649321D01*
X287026Y649622D01*
X287405Y649934D01*
X287776Y650254D01*
X288139Y650583D01*
X288495Y650920D01*
X288842Y651267D01*
X289180Y651621D01*
X289510Y651984D01*
X289832Y652354D01*
X274320Y645160D02*
X273823Y645166D01*
X273326Y645184D01*
X272830Y645215D01*
X272335Y645257D01*
X271841Y645312D01*
X271348Y645378D01*
X270858Y645457D01*
X270369Y645548D01*
X269883Y645650D01*
X269399Y645765D01*
X268919Y645891D01*
X268441Y646029D01*
X267967Y646178D01*
X267497Y646339D01*
X267031Y646512D01*
X266569Y646696D01*
X266112Y646891D01*
X265660Y647097D01*
X265213Y647314D01*
X264772Y647543D01*
X264336Y647781D01*
X263906Y648031D01*
X263483Y648291D01*
X263065Y648561D01*
X262655Y648841D01*
X262252Y649131D01*
X261855Y649431D01*
X261467Y649741D01*
X261086Y650060D01*
X260713Y650388D01*
X260348Y650725D01*
X259991Y651071D01*
X259643Y651426D01*
X259304Y651789D01*
X258973Y652160D01*
X258652Y652540D01*
X258340Y652927D01*
X258038Y653321D01*
X257746Y653723D01*
X257463Y654132D01*
X257191Y654547D01*
X256928Y654970D01*
X256677Y655398D01*
D12*
X253365Y702945D02*
X253365Y714375D01*
X253365Y702945D02*
X258445Y702945D01*
X263271Y702945D02*
X268351Y702945D01*
X263271Y702945D02*
X263271Y714375D01*
X268351Y714375D01*
X267081Y709295D02*
X263271Y709295D01*
X273152Y714375D02*
X273152Y702945D01*
X273152Y714375D02*
X276327Y714375D01*
X276438Y714373D01*
X276548Y714367D01*
X276659Y714358D01*
X276769Y714344D01*
X276878Y714327D01*
X276987Y714306D01*
X277095Y714281D01*
X277202Y714252D01*
X277308Y714220D01*
X277413Y714184D01*
X277516Y714144D01*
X277618Y714101D01*
X277719Y714054D01*
X277818Y714003D01*
X277915Y713950D01*
X278009Y713893D01*
X278102Y713832D01*
X278193Y713769D01*
X278282Y713702D01*
X278368Y713632D01*
X278451Y713559D01*
X278533Y713484D01*
X278611Y713406D01*
X278686Y713324D01*
X278759Y713241D01*
X278829Y713155D01*
X278896Y713066D01*
X278959Y712975D01*
X279020Y712882D01*
X279077Y712788D01*
X279130Y712691D01*
X279181Y712592D01*
X279228Y712491D01*
X279271Y712389D01*
X279311Y712286D01*
X279347Y712181D01*
X279379Y712075D01*
X279408Y711968D01*
X279433Y711860D01*
X279454Y711751D01*
X279471Y711642D01*
X279485Y711532D01*
X279494Y711421D01*
X279500Y711311D01*
X279502Y711200D01*
X279502Y706120D01*
X279500Y706009D01*
X279494Y705899D01*
X279485Y705788D01*
X279471Y705678D01*
X279454Y705569D01*
X279433Y705460D01*
X279408Y705352D01*
X279379Y705245D01*
X279347Y705139D01*
X279311Y705034D01*
X279271Y704931D01*
X279228Y704829D01*
X279181Y704728D01*
X279130Y704629D01*
X279077Y704533D01*
X279020Y704438D01*
X278959Y704345D01*
X278896Y704254D01*
X278829Y704165D01*
X278759Y704079D01*
X278686Y703996D01*
X278611Y703914D01*
X278533Y703836D01*
X278451Y703761D01*
X278368Y703688D01*
X278282Y703618D01*
X278193Y703551D01*
X278102Y703488D01*
X278009Y703427D01*
X277915Y703370D01*
X277818Y703317D01*
X277719Y703266D01*
X277618Y703219D01*
X277516Y703176D01*
X277413Y703136D01*
X277308Y703100D01*
X277202Y703068D01*
X277095Y703039D01*
X276987Y703014D01*
X276878Y702993D01*
X276769Y702976D01*
X276659Y702962D01*
X276548Y702953D01*
X276438Y702947D01*
X276327Y702945D01*
X273152Y702945D01*
X284963Y711835D02*
X288138Y714375D01*
X288138Y702945D01*
X284963Y702945D02*
X291313Y702945D01*
X296856Y702945D02*
X296856Y714375D01*
X300031Y714375D01*
X300142Y714373D01*
X300252Y714367D01*
X300363Y714358D01*
X300473Y714344D01*
X300582Y714327D01*
X300691Y714306D01*
X300799Y714281D01*
X300906Y714252D01*
X301012Y714220D01*
X301117Y714184D01*
X301220Y714144D01*
X301322Y714101D01*
X301423Y714054D01*
X301522Y714003D01*
X301619Y713950D01*
X301713Y713893D01*
X301806Y713832D01*
X301897Y713769D01*
X301986Y713702D01*
X302072Y713632D01*
X302155Y713559D01*
X302237Y713484D01*
X302315Y713406D01*
X302390Y713324D01*
X302463Y713241D01*
X302533Y713155D01*
X302600Y713066D01*
X302663Y712975D01*
X302724Y712882D01*
X302781Y712787D01*
X302834Y712691D01*
X302885Y712592D01*
X302932Y712491D01*
X302975Y712389D01*
X303015Y712286D01*
X303051Y712181D01*
X303083Y712075D01*
X303112Y711968D01*
X303137Y711860D01*
X303158Y711751D01*
X303175Y711642D01*
X303189Y711532D01*
X303198Y711421D01*
X303204Y711311D01*
X303206Y711200D01*
X303204Y711089D01*
X303198Y710979D01*
X303189Y710868D01*
X303175Y710758D01*
X303158Y710649D01*
X303137Y710540D01*
X303112Y710432D01*
X303083Y710325D01*
X303051Y710219D01*
X303015Y710114D01*
X302975Y710011D01*
X302932Y709909D01*
X302885Y709808D01*
X302834Y709709D01*
X302781Y709613D01*
X302724Y709518D01*
X302663Y709425D01*
X302600Y709334D01*
X302533Y709245D01*
X302463Y709159D01*
X302390Y709076D01*
X302315Y708994D01*
X302237Y708916D01*
X302155Y708841D01*
X302072Y708768D01*
X301986Y708698D01*
X301897Y708631D01*
X301806Y708568D01*
X301713Y708507D01*
X301619Y708450D01*
X301522Y708397D01*
X301423Y708346D01*
X301322Y708299D01*
X301220Y708256D01*
X301117Y708216D01*
X301012Y708180D01*
X300906Y708148D01*
X300799Y708119D01*
X300691Y708094D01*
X300582Y708073D01*
X300473Y708056D01*
X300363Y708042D01*
X300252Y708033D01*
X300142Y708027D01*
X300031Y708025D01*
X296856Y708025D01*
X300666Y708025D02*
X303206Y702945D01*
X308610Y702945D02*
X313690Y702945D01*
X308610Y702945D02*
X308610Y714375D01*
X313690Y714375D01*
X312420Y709295D02*
X308610Y709295D01*
X318491Y714375D02*
X318491Y702945D01*
X318491Y714375D02*
X321666Y714375D01*
X321777Y714373D01*
X321887Y714367D01*
X321998Y714358D01*
X322108Y714344D01*
X322217Y714327D01*
X322326Y714306D01*
X322434Y714281D01*
X322541Y714252D01*
X322647Y714220D01*
X322752Y714184D01*
X322855Y714144D01*
X322957Y714101D01*
X323058Y714054D01*
X323157Y714003D01*
X323254Y713950D01*
X323348Y713893D01*
X323441Y713832D01*
X323532Y713769D01*
X323621Y713702D01*
X323707Y713632D01*
X323790Y713559D01*
X323872Y713484D01*
X323950Y713406D01*
X324025Y713324D01*
X324098Y713241D01*
X324168Y713155D01*
X324235Y713066D01*
X324298Y712975D01*
X324359Y712882D01*
X324416Y712788D01*
X324469Y712691D01*
X324520Y712592D01*
X324567Y712491D01*
X324610Y712389D01*
X324650Y712286D01*
X324686Y712181D01*
X324718Y712075D01*
X324747Y711968D01*
X324772Y711860D01*
X324793Y711751D01*
X324810Y711642D01*
X324824Y711532D01*
X324833Y711421D01*
X324839Y711311D01*
X324841Y711200D01*
X324841Y706120D01*
X324839Y706009D01*
X324833Y705899D01*
X324824Y705788D01*
X324810Y705678D01*
X324793Y705569D01*
X324772Y705460D01*
X324747Y705352D01*
X324718Y705245D01*
X324686Y705139D01*
X324650Y705034D01*
X324610Y704931D01*
X324567Y704829D01*
X324520Y704728D01*
X324469Y704629D01*
X324416Y704533D01*
X324359Y704438D01*
X324298Y704345D01*
X324235Y704254D01*
X324168Y704165D01*
X324098Y704079D01*
X324025Y703996D01*
X323950Y703914D01*
X323872Y703836D01*
X323790Y703761D01*
X323707Y703688D01*
X323621Y703618D01*
X323532Y703551D01*
X323441Y703488D01*
X323348Y703427D01*
X323254Y703370D01*
X323157Y703317D01*
X323058Y703266D01*
X322957Y703219D01*
X322855Y703176D01*
X322752Y703136D01*
X322647Y703100D01*
X322541Y703068D01*
X322434Y703039D01*
X322326Y703014D01*
X322217Y702993D01*
X322108Y702976D01*
X321998Y702962D01*
X321887Y702953D01*
X321777Y702947D01*
X321666Y702945D01*
X318491Y702945D01*
D11*
X358140Y678180D02*
X358512Y678175D01*
X358883Y678162D01*
X359254Y678139D01*
X359624Y678108D01*
X359993Y678067D01*
X360361Y678017D01*
X360728Y677959D01*
X361093Y677891D01*
X361457Y677815D01*
X361818Y677730D01*
X362177Y677635D01*
X362534Y677533D01*
X362889Y677421D01*
X363240Y677301D01*
X363589Y677173D01*
X363934Y677036D01*
X364276Y676890D01*
X364614Y676737D01*
X364948Y676575D01*
X365278Y676405D01*
X365604Y676227D01*
X365926Y676041D01*
X366243Y675847D01*
X366555Y675646D01*
X366862Y675437D01*
X367164Y675221D01*
X367461Y674997D01*
X367752Y674767D01*
X368037Y674529D01*
X368317Y674284D01*
X368590Y674033D01*
X368857Y673775D01*
X369118Y673511D01*
X369373Y673240D01*
X369620Y672963D01*
X369861Y672680D01*
X370095Y672392D01*
X370322Y672098D01*
X370541Y671798D01*
X358140Y678180D02*
X357768Y678175D01*
X357397Y678162D01*
X357025Y678139D01*
X356655Y678107D01*
X356285Y678067D01*
X355917Y678017D01*
X355549Y677958D01*
X355184Y677891D01*
X354820Y677814D01*
X354458Y677728D01*
X354098Y677634D01*
X353741Y677531D01*
X353386Y677420D01*
X353034Y677299D01*
X352685Y677170D01*
X352340Y677033D01*
X351998Y676887D01*
X351659Y676733D01*
X351324Y676571D01*
X350994Y676401D01*
X350668Y676222D01*
X350346Y676036D01*
X350028Y675842D01*
X349716Y675640D01*
X349409Y675431D01*
X349107Y675214D01*
X348810Y674990D01*
X348518Y674759D01*
X348233Y674521D01*
X347953Y674275D01*
X347680Y674023D01*
X347412Y673765D01*
X347152Y673500D01*
X346897Y673229D01*
X346649Y672951D01*
X346409Y672668D01*
X346175Y672379D01*
X345948Y672084D01*
X358140Y647700D02*
X358505Y647704D01*
X358870Y647717D01*
X359234Y647739D01*
X359597Y647770D01*
X359960Y647809D01*
X360322Y647857D01*
X360682Y647914D01*
X361041Y647979D01*
X361399Y648052D01*
X361754Y648135D01*
X362107Y648225D01*
X362459Y648325D01*
X362807Y648432D01*
X363153Y648548D01*
X363496Y648672D01*
X363836Y648805D01*
X364173Y648945D01*
X364506Y649093D01*
X364836Y649250D01*
X365162Y649414D01*
X365484Y649586D01*
X365801Y649766D01*
X366114Y649953D01*
X366423Y650147D01*
X366727Y650349D01*
X367026Y650559D01*
X367320Y650775D01*
X367608Y650998D01*
X367891Y651228D01*
X368169Y651465D01*
X368441Y651708D01*
X368707Y651958D01*
X368967Y652214D01*
X369220Y652477D01*
X369468Y652745D01*
X369708Y653019D01*
X369943Y653299D01*
X370170Y653584D01*
X358140Y647700D02*
X357775Y647704D01*
X357410Y647717D01*
X357046Y647739D01*
X356683Y647770D01*
X356320Y647809D01*
X355958Y647857D01*
X355598Y647914D01*
X355239Y647979D01*
X354881Y648052D01*
X354526Y648135D01*
X354173Y648225D01*
X353821Y648325D01*
X353473Y648432D01*
X353127Y648548D01*
X352784Y648672D01*
X352444Y648805D01*
X352107Y648945D01*
X351774Y649093D01*
X351444Y649250D01*
X351118Y649414D01*
X350796Y649586D01*
X350479Y649766D01*
X350166Y649953D01*
X349857Y650147D01*
X349553Y650349D01*
X349254Y650559D01*
X348960Y650775D01*
X348672Y650998D01*
X348389Y651228D01*
X348111Y651465D01*
X347839Y651708D01*
X347573Y651958D01*
X347313Y652214D01*
X347060Y652477D01*
X346812Y652745D01*
X346572Y653019D01*
X346337Y653299D01*
X346110Y653584D01*
D13*
X358140Y683260D02*
X358634Y683254D01*
X359128Y683236D01*
X359622Y683206D01*
X360115Y683164D01*
X360606Y683110D01*
X361096Y683044D01*
X361584Y682966D01*
X362071Y682876D01*
X362555Y682775D01*
X363036Y682661D01*
X363514Y682536D01*
X363990Y682400D01*
X364461Y682252D01*
X364929Y682092D01*
X365393Y681921D01*
X365853Y681739D01*
X366308Y681546D01*
X366759Y681342D01*
X367204Y681127D01*
X367644Y680901D01*
X368078Y680664D01*
X368506Y680417D01*
X368928Y680160D01*
X369344Y679892D01*
X369753Y679614D01*
X370155Y679327D01*
X370551Y679030D01*
X370938Y678723D01*
X371319Y678407D01*
X371691Y678082D01*
X372056Y677747D01*
X372412Y677404D01*
X372759Y677053D01*
X373099Y676693D01*
X373429Y676325D01*
X373750Y675949D01*
X358140Y683260D02*
X357652Y683254D01*
X357165Y683237D01*
X356678Y683207D01*
X356191Y683166D01*
X355706Y683114D01*
X355222Y683049D01*
X354740Y682973D01*
X354260Y682886D01*
X353782Y682787D01*
X353307Y682677D01*
X352834Y682555D01*
X352365Y682422D01*
X351898Y682277D01*
X351436Y682122D01*
X350977Y681955D01*
X350522Y681778D01*
X350072Y681589D01*
X349627Y681390D01*
X349186Y681180D01*
X348750Y680960D01*
X348320Y680729D01*
X347896Y680488D01*
X347478Y680237D01*
X347065Y679976D01*
X346659Y679705D01*
X346260Y679425D01*
X345867Y679135D01*
X345482Y678835D01*
X345104Y678526D01*
X344733Y678209D01*
X344371Y677882D01*
X344016Y677547D01*
X343669Y677204D01*
X343331Y676852D01*
X343001Y676493D01*
X342680Y676125D01*
X342367Y675750D01*
X342064Y675367D01*
X341770Y674978D01*
X341486Y674581D01*
X341211Y674178D01*
X340946Y673768D01*
X340691Y673352D01*
X340446Y672930D01*
X340211Y672502D01*
X358140Y642620D02*
X358630Y642626D01*
X359120Y642644D01*
X359609Y642673D01*
X360098Y642715D01*
X360585Y642768D01*
X361071Y642832D01*
X361555Y642909D01*
X362037Y642997D01*
X362517Y643097D01*
X362995Y643208D01*
X363469Y643331D01*
X363941Y643466D01*
X364409Y643611D01*
X364873Y643768D01*
X365334Y643936D01*
X365790Y644115D01*
X366242Y644305D01*
X366689Y644506D01*
X367131Y644718D01*
X367568Y644940D01*
X368000Y645172D01*
X368426Y645415D01*
X368845Y645669D01*
X369259Y645932D01*
X369666Y646205D01*
X370066Y646488D01*
X370460Y646781D01*
X370846Y647082D01*
X371225Y647394D01*
X371596Y647714D01*
X371959Y648043D01*
X372315Y648380D01*
X372662Y648727D01*
X373000Y649081D01*
X373330Y649444D01*
X373652Y649814D01*
X358140Y642620D02*
X357643Y642626D01*
X357146Y642644D01*
X356650Y642675D01*
X356155Y642717D01*
X355661Y642772D01*
X355168Y642838D01*
X354678Y642917D01*
X354189Y643008D01*
X353703Y643110D01*
X353219Y643225D01*
X352739Y643351D01*
X352261Y643489D01*
X351787Y643638D01*
X351317Y643799D01*
X350851Y643972D01*
X350389Y644156D01*
X349932Y644351D01*
X349480Y644557D01*
X349033Y644774D01*
X348592Y645003D01*
X348156Y645241D01*
X347726Y645491D01*
X347303Y645751D01*
X346885Y646021D01*
X346475Y646301D01*
X346072Y646591D01*
X345675Y646891D01*
X345287Y647201D01*
X344906Y647520D01*
X344533Y647848D01*
X344168Y648185D01*
X343811Y648531D01*
X343463Y648886D01*
X343124Y649249D01*
X342793Y649620D01*
X342472Y650000D01*
X342160Y650387D01*
X341858Y650781D01*
X341566Y651183D01*
X341283Y651592D01*
X341011Y652007D01*
X340748Y652430D01*
X340497Y652858D01*
D12*
X354965Y702945D02*
X354965Y714375D01*
X354965Y702945D02*
X360045Y702945D01*
X364871Y702945D02*
X369951Y702945D01*
X364871Y702945D02*
X364871Y714375D01*
X369951Y714375D01*
X368681Y709295D02*
X364871Y709295D01*
X374752Y714375D02*
X374752Y702945D01*
X374752Y714375D02*
X377927Y714375D01*
X378038Y714373D01*
X378148Y714367D01*
X378259Y714358D01*
X378369Y714344D01*
X378478Y714327D01*
X378587Y714306D01*
X378695Y714281D01*
X378802Y714252D01*
X378908Y714220D01*
X379013Y714184D01*
X379116Y714144D01*
X379218Y714101D01*
X379319Y714054D01*
X379418Y714003D01*
X379515Y713950D01*
X379609Y713893D01*
X379702Y713832D01*
X379793Y713769D01*
X379882Y713702D01*
X379968Y713632D01*
X380051Y713559D01*
X380133Y713484D01*
X380211Y713406D01*
X380286Y713324D01*
X380359Y713241D01*
X380429Y713155D01*
X380496Y713066D01*
X380559Y712975D01*
X380620Y712882D01*
X380677Y712788D01*
X380730Y712691D01*
X380781Y712592D01*
X380828Y712491D01*
X380871Y712389D01*
X380911Y712286D01*
X380947Y712181D01*
X380979Y712075D01*
X381008Y711968D01*
X381033Y711860D01*
X381054Y711751D01*
X381071Y711642D01*
X381085Y711532D01*
X381094Y711421D01*
X381100Y711311D01*
X381102Y711200D01*
X381102Y706120D01*
X381100Y706009D01*
X381094Y705899D01*
X381085Y705788D01*
X381071Y705678D01*
X381054Y705569D01*
X381033Y705460D01*
X381008Y705352D01*
X380979Y705245D01*
X380947Y705139D01*
X380911Y705034D01*
X380871Y704931D01*
X380828Y704829D01*
X380781Y704728D01*
X380730Y704629D01*
X380677Y704533D01*
X380620Y704438D01*
X380559Y704345D01*
X380496Y704254D01*
X380429Y704165D01*
X380359Y704079D01*
X380286Y703996D01*
X380211Y703914D01*
X380133Y703836D01*
X380051Y703761D01*
X379968Y703688D01*
X379882Y703618D01*
X379793Y703551D01*
X379702Y703488D01*
X379609Y703427D01*
X379515Y703370D01*
X379418Y703317D01*
X379319Y703266D01*
X379218Y703219D01*
X379116Y703176D01*
X379013Y703136D01*
X378908Y703100D01*
X378802Y703068D01*
X378695Y703039D01*
X378587Y703014D01*
X378478Y702993D01*
X378369Y702976D01*
X378259Y702962D01*
X378148Y702953D01*
X378038Y702947D01*
X377927Y702945D01*
X374752Y702945D01*
X390055Y714376D02*
X390159Y714374D01*
X390264Y714368D01*
X390368Y714359D01*
X390471Y714346D01*
X390574Y714328D01*
X390676Y714308D01*
X390778Y714283D01*
X390878Y714255D01*
X390978Y714223D01*
X391076Y714187D01*
X391173Y714148D01*
X391268Y714106D01*
X391362Y714060D01*
X391454Y714010D01*
X391544Y713958D01*
X391632Y713902D01*
X391718Y713842D01*
X391802Y713780D01*
X391883Y713715D01*
X391962Y713647D01*
X392039Y713575D01*
X392112Y713502D01*
X392184Y713425D01*
X392252Y713346D01*
X392317Y713265D01*
X392379Y713181D01*
X392439Y713095D01*
X392495Y713007D01*
X392547Y712917D01*
X392597Y712825D01*
X392643Y712731D01*
X392685Y712636D01*
X392724Y712539D01*
X392760Y712441D01*
X392792Y712341D01*
X392820Y712241D01*
X392845Y712139D01*
X392865Y712037D01*
X392883Y711934D01*
X392896Y711831D01*
X392905Y711727D01*
X392911Y711622D01*
X392913Y711518D01*
X390055Y714375D02*
X389937Y714373D01*
X389818Y714367D01*
X389700Y714358D01*
X389583Y714345D01*
X389466Y714327D01*
X389349Y714307D01*
X389233Y714282D01*
X389118Y714254D01*
X389005Y714221D01*
X388892Y714186D01*
X388780Y714146D01*
X388670Y714104D01*
X388561Y714057D01*
X388453Y714007D01*
X388348Y713954D01*
X388244Y713897D01*
X388142Y713837D01*
X388042Y713774D01*
X387944Y713707D01*
X387848Y713638D01*
X387755Y713565D01*
X387664Y713489D01*
X387575Y713411D01*
X387489Y713329D01*
X387406Y713245D01*
X387325Y713159D01*
X387248Y713069D01*
X387173Y712978D01*
X387101Y712884D01*
X387032Y712787D01*
X386967Y712689D01*
X386904Y712588D01*
X386845Y712485D01*
X386789Y712381D01*
X386737Y712275D01*
X386688Y712167D01*
X386643Y712058D01*
X386601Y711947D01*
X386563Y711835D01*
X391960Y709296D02*
X392036Y709371D01*
X392111Y709450D01*
X392182Y709531D01*
X392251Y709615D01*
X392316Y709701D01*
X392378Y709789D01*
X392438Y709879D01*
X392494Y709971D01*
X392547Y710066D01*
X392596Y710162D01*
X392642Y710260D01*
X392685Y710359D01*
X392724Y710460D01*
X392759Y710562D01*
X392791Y710665D01*
X392819Y710769D01*
X392844Y710874D01*
X392865Y710981D01*
X392882Y711087D01*
X392895Y711194D01*
X392904Y711302D01*
X392910Y711410D01*
X392912Y711518D01*
X391960Y709295D02*
X386563Y702945D01*
X392913Y702945D01*
X402819Y709295D02*
X404724Y709295D01*
X404724Y702945D01*
X400914Y702945D01*
X400814Y702947D01*
X400715Y702953D01*
X400615Y702963D01*
X400517Y702976D01*
X400418Y702994D01*
X400321Y703015D01*
X400225Y703040D01*
X400129Y703069D01*
X400035Y703102D01*
X399942Y703138D01*
X399851Y703178D01*
X399761Y703222D01*
X399673Y703269D01*
X399587Y703319D01*
X399503Y703373D01*
X399421Y703430D01*
X399342Y703490D01*
X399264Y703554D01*
X399190Y703620D01*
X399118Y703689D01*
X399049Y703761D01*
X398983Y703835D01*
X398919Y703913D01*
X398859Y703992D01*
X398802Y704074D01*
X398748Y704158D01*
X398698Y704244D01*
X398651Y704332D01*
X398607Y704422D01*
X398567Y704513D01*
X398531Y704606D01*
X398498Y704700D01*
X398469Y704796D01*
X398444Y704892D01*
X398423Y704989D01*
X398405Y705088D01*
X398392Y705186D01*
X398382Y705286D01*
X398376Y705385D01*
X398374Y705485D01*
X398374Y711835D01*
X398376Y711935D01*
X398382Y712034D01*
X398392Y712134D01*
X398405Y712232D01*
X398423Y712331D01*
X398444Y712428D01*
X398469Y712524D01*
X398498Y712620D01*
X398531Y712714D01*
X398567Y712807D01*
X398607Y712898D01*
X398651Y712988D01*
X398698Y713076D01*
X398748Y713162D01*
X398802Y713246D01*
X398859Y713328D01*
X398919Y713407D01*
X398983Y713485D01*
X399049Y713559D01*
X399118Y713631D01*
X399190Y713700D01*
X399264Y713766D01*
X399342Y713830D01*
X399421Y713890D01*
X399503Y713947D01*
X399587Y714001D01*
X399673Y714051D01*
X399761Y714098D01*
X399851Y714142D01*
X399942Y714182D01*
X400035Y714218D01*
X400129Y714251D01*
X400225Y714280D01*
X400321Y714305D01*
X400418Y714326D01*
X400517Y714344D01*
X400615Y714357D01*
X400715Y714367D01*
X400814Y714373D01*
X400914Y714375D01*
X404724Y714375D01*
X410648Y714375D02*
X410648Y702945D01*
X410648Y714375D02*
X413823Y714375D01*
X413934Y714373D01*
X414044Y714367D01*
X414155Y714358D01*
X414265Y714344D01*
X414374Y714327D01*
X414483Y714306D01*
X414591Y714281D01*
X414698Y714252D01*
X414804Y714220D01*
X414909Y714184D01*
X415012Y714144D01*
X415114Y714101D01*
X415215Y714054D01*
X415314Y714003D01*
X415411Y713950D01*
X415505Y713893D01*
X415598Y713832D01*
X415689Y713769D01*
X415778Y713702D01*
X415864Y713632D01*
X415947Y713559D01*
X416029Y713484D01*
X416107Y713406D01*
X416182Y713324D01*
X416255Y713241D01*
X416325Y713155D01*
X416392Y713066D01*
X416455Y712975D01*
X416516Y712882D01*
X416573Y712787D01*
X416626Y712691D01*
X416677Y712592D01*
X416724Y712491D01*
X416767Y712389D01*
X416807Y712286D01*
X416843Y712181D01*
X416875Y712075D01*
X416904Y711968D01*
X416929Y711860D01*
X416950Y711751D01*
X416967Y711642D01*
X416981Y711532D01*
X416990Y711421D01*
X416996Y711311D01*
X416998Y711200D01*
X416996Y711089D01*
X416990Y710979D01*
X416981Y710868D01*
X416967Y710758D01*
X416950Y710649D01*
X416929Y710540D01*
X416904Y710432D01*
X416875Y710325D01*
X416843Y710219D01*
X416807Y710114D01*
X416767Y710011D01*
X416724Y709909D01*
X416677Y709808D01*
X416626Y709709D01*
X416573Y709613D01*
X416516Y709518D01*
X416455Y709425D01*
X416392Y709334D01*
X416325Y709245D01*
X416255Y709159D01*
X416182Y709076D01*
X416107Y708994D01*
X416029Y708916D01*
X415947Y708841D01*
X415864Y708768D01*
X415778Y708698D01*
X415689Y708631D01*
X415598Y708568D01*
X415505Y708507D01*
X415411Y708450D01*
X415314Y708397D01*
X415215Y708346D01*
X415114Y708299D01*
X415012Y708256D01*
X414909Y708216D01*
X414804Y708180D01*
X414698Y708148D01*
X414591Y708119D01*
X414483Y708094D01*
X414374Y708073D01*
X414265Y708056D01*
X414155Y708042D01*
X414044Y708033D01*
X413934Y708027D01*
X413823Y708025D01*
X410648Y708025D01*
X414458Y708025D02*
X416998Y702945D01*
X422402Y702945D02*
X427482Y702945D01*
X422402Y702945D02*
X422402Y714375D01*
X427482Y714375D01*
X426212Y709295D02*
X422402Y709295D01*
X432308Y702945D02*
X437388Y702945D01*
X432308Y702945D02*
X432308Y714375D01*
X437388Y714375D01*
X436118Y709295D02*
X432308Y709295D01*
X442188Y714375D02*
X442188Y702945D01*
X448538Y702945D02*
X442188Y714375D01*
X448538Y714375D02*
X448538Y702945D01*
D10*
X268732Y597662D02*
X257048Y597662D01*
X268732Y597662D02*
X268732Y594416D01*
X268730Y594303D01*
X268724Y594190D01*
X268714Y594077D01*
X268700Y593964D01*
X268683Y593852D01*
X268661Y593741D01*
X268636Y593631D01*
X268606Y593521D01*
X268573Y593413D01*
X268536Y593306D01*
X268496Y593200D01*
X268451Y593096D01*
X268403Y592993D01*
X268352Y592892D01*
X268297Y592793D01*
X268239Y592696D01*
X268177Y592601D01*
X268112Y592508D01*
X268044Y592418D01*
X267973Y592330D01*
X267898Y592244D01*
X267821Y592161D01*
X267741Y592081D01*
X267658Y592004D01*
X267572Y591929D01*
X267484Y591858D01*
X267394Y591790D01*
X267301Y591725D01*
X267206Y591663D01*
X267109Y591605D01*
X267010Y591550D01*
X266909Y591499D01*
X266806Y591451D01*
X266702Y591406D01*
X266596Y591366D01*
X266489Y591329D01*
X266381Y591296D01*
X266271Y591266D01*
X266161Y591241D01*
X266050Y591219D01*
X265938Y591202D01*
X265825Y591188D01*
X265712Y591178D01*
X265599Y591172D01*
X265486Y591170D01*
X265373Y591172D01*
X265260Y591178D01*
X265147Y591188D01*
X265034Y591202D01*
X264922Y591219D01*
X264811Y591241D01*
X264701Y591266D01*
X264591Y591296D01*
X264483Y591329D01*
X264376Y591366D01*
X264270Y591406D01*
X264166Y591451D01*
X264063Y591499D01*
X263962Y591550D01*
X263863Y591605D01*
X263766Y591663D01*
X263671Y591725D01*
X263578Y591790D01*
X263488Y591858D01*
X263400Y591929D01*
X263314Y592004D01*
X263231Y592081D01*
X263151Y592161D01*
X263074Y592244D01*
X262999Y592330D01*
X262928Y592418D01*
X262860Y592508D01*
X262795Y592601D01*
X262733Y592696D01*
X262675Y592793D01*
X262620Y592892D01*
X262569Y592993D01*
X262521Y593096D01*
X262476Y593200D01*
X262436Y593306D01*
X262399Y593413D01*
X262366Y593521D01*
X262336Y593631D01*
X262311Y593741D01*
X262289Y593852D01*
X262272Y593964D01*
X262258Y594077D01*
X262248Y594190D01*
X262242Y594303D01*
X262240Y594416D01*
X262241Y594416D02*
X262241Y597662D01*
X262241Y593767D02*
X257048Y591171D01*
X266136Y586306D02*
X268732Y583060D01*
X257048Y583060D01*
X257048Y579815D02*
X257048Y586306D01*
X340868Y584962D02*
X352552Y584962D01*
X352552Y581716D01*
X352550Y581603D01*
X352544Y581490D01*
X352534Y581377D01*
X352520Y581264D01*
X352503Y581152D01*
X352481Y581041D01*
X352456Y580931D01*
X352426Y580821D01*
X352393Y580713D01*
X352356Y580606D01*
X352316Y580500D01*
X352271Y580396D01*
X352223Y580293D01*
X352172Y580192D01*
X352117Y580093D01*
X352059Y579996D01*
X351997Y579901D01*
X351932Y579808D01*
X351864Y579718D01*
X351793Y579630D01*
X351718Y579544D01*
X351641Y579461D01*
X351561Y579381D01*
X351478Y579304D01*
X351392Y579229D01*
X351304Y579158D01*
X351214Y579090D01*
X351121Y579025D01*
X351026Y578963D01*
X350929Y578905D01*
X350830Y578850D01*
X350729Y578799D01*
X350626Y578751D01*
X350522Y578706D01*
X350416Y578666D01*
X350309Y578629D01*
X350201Y578596D01*
X350091Y578566D01*
X349981Y578541D01*
X349870Y578519D01*
X349758Y578502D01*
X349645Y578488D01*
X349532Y578478D01*
X349419Y578472D01*
X349306Y578470D01*
X349193Y578472D01*
X349080Y578478D01*
X348967Y578488D01*
X348854Y578502D01*
X348742Y578519D01*
X348631Y578541D01*
X348521Y578566D01*
X348411Y578596D01*
X348303Y578629D01*
X348196Y578666D01*
X348090Y578706D01*
X347986Y578751D01*
X347883Y578799D01*
X347782Y578850D01*
X347683Y578905D01*
X347586Y578963D01*
X347491Y579025D01*
X347398Y579090D01*
X347308Y579158D01*
X347220Y579229D01*
X347134Y579304D01*
X347051Y579381D01*
X346971Y579461D01*
X346894Y579544D01*
X346819Y579630D01*
X346748Y579718D01*
X346680Y579808D01*
X346615Y579901D01*
X346553Y579996D01*
X346495Y580093D01*
X346440Y580192D01*
X346389Y580293D01*
X346341Y580396D01*
X346296Y580500D01*
X346256Y580606D01*
X346219Y580713D01*
X346186Y580821D01*
X346156Y580931D01*
X346131Y581041D01*
X346109Y581152D01*
X346092Y581264D01*
X346078Y581377D01*
X346068Y581490D01*
X346062Y581603D01*
X346060Y581716D01*
X346061Y581716D02*
X346061Y584962D01*
X346061Y581067D02*
X340868Y578471D01*
X349631Y567115D02*
X349738Y567117D01*
X349844Y567123D01*
X349950Y567133D01*
X350056Y567146D01*
X350162Y567164D01*
X350266Y567185D01*
X350370Y567210D01*
X350473Y567239D01*
X350574Y567271D01*
X350674Y567308D01*
X350773Y567348D01*
X350871Y567391D01*
X350967Y567438D01*
X351061Y567489D01*
X351153Y567543D01*
X351243Y567600D01*
X351331Y567660D01*
X351416Y567724D01*
X351499Y567791D01*
X351580Y567861D01*
X351658Y567933D01*
X351734Y568009D01*
X351806Y568087D01*
X351876Y568168D01*
X351943Y568251D01*
X352007Y568336D01*
X352067Y568424D01*
X352124Y568514D01*
X352178Y568606D01*
X352229Y568700D01*
X352276Y568796D01*
X352319Y568894D01*
X352359Y568993D01*
X352396Y569093D01*
X352428Y569194D01*
X352457Y569297D01*
X352482Y569401D01*
X352503Y569505D01*
X352521Y569611D01*
X352534Y569717D01*
X352544Y569823D01*
X352550Y569929D01*
X352552Y570036D01*
X352550Y570157D01*
X352544Y570278D01*
X352534Y570398D01*
X352521Y570519D01*
X352503Y570638D01*
X352482Y570758D01*
X352457Y570876D01*
X352428Y570993D01*
X352395Y571110D01*
X352359Y571225D01*
X352318Y571339D01*
X352275Y571452D01*
X352227Y571564D01*
X352176Y571673D01*
X352121Y571781D01*
X352063Y571888D01*
X352002Y571992D01*
X351937Y572094D01*
X351869Y572194D01*
X351798Y572292D01*
X351724Y572388D01*
X351647Y572481D01*
X351566Y572571D01*
X351483Y572659D01*
X351397Y572744D01*
X351308Y572827D01*
X351217Y572906D01*
X351123Y572983D01*
X351027Y573056D01*
X350929Y573126D01*
X350828Y573193D01*
X350725Y573257D01*
X350620Y573318D01*
X350513Y573375D01*
X350405Y573428D01*
X350295Y573478D01*
X350183Y573524D01*
X350070Y573567D01*
X349955Y573606D01*
X347359Y568089D02*
X347437Y568010D01*
X347517Y567934D01*
X347600Y567861D01*
X347686Y567791D01*
X347773Y567724D01*
X347864Y567660D01*
X347956Y567600D01*
X348050Y567542D01*
X348147Y567488D01*
X348245Y567438D01*
X348345Y567391D01*
X348446Y567347D01*
X348549Y567307D01*
X348654Y567271D01*
X348759Y567239D01*
X348866Y567210D01*
X348973Y567185D01*
X349082Y567163D01*
X349191Y567146D01*
X349300Y567132D01*
X349410Y567123D01*
X349521Y567117D01*
X349631Y567115D01*
X347359Y568088D02*
X340868Y573606D01*
X340868Y567115D01*
X339852Y366522D02*
X328168Y366522D01*
X339852Y366522D02*
X339852Y363276D01*
X339850Y363163D01*
X339844Y363050D01*
X339834Y362937D01*
X339820Y362824D01*
X339803Y362712D01*
X339781Y362601D01*
X339756Y362491D01*
X339726Y362381D01*
X339693Y362273D01*
X339656Y362166D01*
X339616Y362060D01*
X339571Y361956D01*
X339523Y361853D01*
X339472Y361752D01*
X339417Y361653D01*
X339359Y361556D01*
X339297Y361461D01*
X339232Y361368D01*
X339164Y361278D01*
X339093Y361190D01*
X339018Y361104D01*
X338941Y361021D01*
X338861Y360941D01*
X338778Y360864D01*
X338692Y360789D01*
X338604Y360718D01*
X338514Y360650D01*
X338421Y360585D01*
X338326Y360523D01*
X338229Y360465D01*
X338130Y360410D01*
X338029Y360359D01*
X337926Y360311D01*
X337822Y360266D01*
X337716Y360226D01*
X337609Y360189D01*
X337501Y360156D01*
X337391Y360126D01*
X337281Y360101D01*
X337170Y360079D01*
X337058Y360062D01*
X336945Y360048D01*
X336832Y360038D01*
X336719Y360032D01*
X336606Y360030D01*
X336493Y360032D01*
X336380Y360038D01*
X336267Y360048D01*
X336154Y360062D01*
X336042Y360079D01*
X335931Y360101D01*
X335821Y360126D01*
X335711Y360156D01*
X335603Y360189D01*
X335496Y360226D01*
X335390Y360266D01*
X335286Y360311D01*
X335183Y360359D01*
X335082Y360410D01*
X334983Y360465D01*
X334886Y360523D01*
X334791Y360585D01*
X334698Y360650D01*
X334608Y360718D01*
X334520Y360789D01*
X334434Y360864D01*
X334351Y360941D01*
X334271Y361021D01*
X334194Y361104D01*
X334119Y361190D01*
X334048Y361278D01*
X333980Y361368D01*
X333915Y361461D01*
X333853Y361556D01*
X333795Y361653D01*
X333740Y361752D01*
X333689Y361853D01*
X333641Y361956D01*
X333596Y362060D01*
X333556Y362166D01*
X333519Y362273D01*
X333486Y362381D01*
X333456Y362491D01*
X333431Y362601D01*
X333409Y362712D01*
X333392Y362824D01*
X333378Y362937D01*
X333368Y363050D01*
X333362Y363163D01*
X333360Y363276D01*
X333361Y363276D02*
X333361Y366522D01*
X333361Y362627D02*
X328168Y360031D01*
X328168Y355166D02*
X328168Y351920D01*
X328170Y351807D01*
X328176Y351694D01*
X328186Y351581D01*
X328200Y351468D01*
X328217Y351356D01*
X328239Y351245D01*
X328264Y351135D01*
X328294Y351025D01*
X328327Y350917D01*
X328364Y350810D01*
X328404Y350704D01*
X328449Y350600D01*
X328497Y350497D01*
X328548Y350396D01*
X328603Y350297D01*
X328661Y350200D01*
X328723Y350105D01*
X328788Y350012D01*
X328856Y349922D01*
X328927Y349834D01*
X329002Y349748D01*
X329079Y349665D01*
X329159Y349585D01*
X329242Y349508D01*
X329328Y349433D01*
X329416Y349362D01*
X329506Y349294D01*
X329599Y349229D01*
X329694Y349167D01*
X329791Y349109D01*
X329890Y349054D01*
X329991Y349003D01*
X330094Y348955D01*
X330198Y348910D01*
X330304Y348870D01*
X330411Y348833D01*
X330519Y348800D01*
X330629Y348770D01*
X330739Y348745D01*
X330850Y348723D01*
X330962Y348706D01*
X331075Y348692D01*
X331188Y348682D01*
X331301Y348676D01*
X331414Y348674D01*
X331527Y348676D01*
X331640Y348682D01*
X331753Y348692D01*
X331866Y348706D01*
X331978Y348723D01*
X332089Y348745D01*
X332199Y348770D01*
X332309Y348800D01*
X332417Y348833D01*
X332524Y348870D01*
X332630Y348910D01*
X332734Y348955D01*
X332837Y349003D01*
X332938Y349054D01*
X333037Y349109D01*
X333134Y349167D01*
X333229Y349229D01*
X333322Y349294D01*
X333412Y349362D01*
X333500Y349433D01*
X333586Y349508D01*
X333669Y349585D01*
X333749Y349665D01*
X333826Y349748D01*
X333901Y349834D01*
X333972Y349922D01*
X334040Y350012D01*
X334105Y350105D01*
X334167Y350200D01*
X334225Y350297D01*
X334280Y350396D01*
X334331Y350497D01*
X334379Y350600D01*
X334424Y350704D01*
X334464Y350810D01*
X334501Y350917D01*
X334534Y351025D01*
X334564Y351135D01*
X334589Y351245D01*
X334611Y351356D01*
X334628Y351468D01*
X334642Y351581D01*
X334652Y351694D01*
X334658Y351807D01*
X334660Y351920D01*
X339852Y351271D02*
X339852Y355166D01*
X339852Y351271D02*
X339850Y351170D01*
X339844Y351070D01*
X339834Y350970D01*
X339821Y350870D01*
X339803Y350771D01*
X339782Y350672D01*
X339757Y350575D01*
X339728Y350478D01*
X339695Y350383D01*
X339659Y350289D01*
X339619Y350197D01*
X339576Y350106D01*
X339529Y350017D01*
X339479Y349930D01*
X339425Y349844D01*
X339368Y349761D01*
X339308Y349681D01*
X339245Y349602D01*
X339178Y349526D01*
X339109Y349453D01*
X339037Y349383D01*
X338963Y349315D01*
X338886Y349250D01*
X338806Y349189D01*
X338724Y349130D01*
X338640Y349075D01*
X338554Y349023D01*
X338466Y348974D01*
X338376Y348929D01*
X338284Y348887D01*
X338191Y348849D01*
X338096Y348815D01*
X338001Y348784D01*
X337904Y348757D01*
X337806Y348734D01*
X337707Y348714D01*
X337607Y348699D01*
X337507Y348687D01*
X337407Y348679D01*
X337306Y348675D01*
X337206Y348675D01*
X337105Y348679D01*
X337005Y348687D01*
X336905Y348699D01*
X336805Y348714D01*
X336706Y348734D01*
X336608Y348757D01*
X336511Y348784D01*
X336416Y348815D01*
X336321Y348849D01*
X336228Y348887D01*
X336136Y348929D01*
X336046Y348974D01*
X335958Y349023D01*
X335872Y349075D01*
X335788Y349130D01*
X335706Y349189D01*
X335626Y349250D01*
X335549Y349315D01*
X335475Y349383D01*
X335403Y349453D01*
X335334Y349526D01*
X335267Y349602D01*
X335204Y349681D01*
X335144Y349761D01*
X335087Y349844D01*
X335033Y349930D01*
X334983Y350017D01*
X334936Y350106D01*
X334893Y350197D01*
X334853Y350289D01*
X334817Y350383D01*
X334784Y350478D01*
X334755Y350575D01*
X334730Y350672D01*
X334709Y350771D01*
X334691Y350870D01*
X334678Y350970D01*
X334668Y351070D01*
X334662Y351170D01*
X334660Y351271D01*
X334659Y351271D02*
X334659Y353867D01*
X339852Y513842D02*
X328168Y513842D01*
X339852Y513842D02*
X339852Y510596D01*
X339850Y510483D01*
X339844Y510370D01*
X339834Y510257D01*
X339820Y510144D01*
X339803Y510032D01*
X339781Y509921D01*
X339756Y509811D01*
X339726Y509701D01*
X339693Y509593D01*
X339656Y509486D01*
X339616Y509380D01*
X339571Y509276D01*
X339523Y509173D01*
X339472Y509072D01*
X339417Y508973D01*
X339359Y508876D01*
X339297Y508781D01*
X339232Y508688D01*
X339164Y508598D01*
X339093Y508510D01*
X339018Y508424D01*
X338941Y508341D01*
X338861Y508261D01*
X338778Y508184D01*
X338692Y508109D01*
X338604Y508038D01*
X338514Y507970D01*
X338421Y507905D01*
X338326Y507843D01*
X338229Y507785D01*
X338130Y507730D01*
X338029Y507679D01*
X337926Y507631D01*
X337822Y507586D01*
X337716Y507546D01*
X337609Y507509D01*
X337501Y507476D01*
X337391Y507446D01*
X337281Y507421D01*
X337170Y507399D01*
X337058Y507382D01*
X336945Y507368D01*
X336832Y507358D01*
X336719Y507352D01*
X336606Y507350D01*
X336493Y507352D01*
X336380Y507358D01*
X336267Y507368D01*
X336154Y507382D01*
X336042Y507399D01*
X335931Y507421D01*
X335821Y507446D01*
X335711Y507476D01*
X335603Y507509D01*
X335496Y507546D01*
X335390Y507586D01*
X335286Y507631D01*
X335183Y507679D01*
X335082Y507730D01*
X334983Y507785D01*
X334886Y507843D01*
X334791Y507905D01*
X334698Y507970D01*
X334608Y508038D01*
X334520Y508109D01*
X334434Y508184D01*
X334351Y508261D01*
X334271Y508341D01*
X334194Y508424D01*
X334119Y508510D01*
X334048Y508598D01*
X333980Y508688D01*
X333915Y508781D01*
X333853Y508876D01*
X333795Y508973D01*
X333740Y509072D01*
X333689Y509173D01*
X333641Y509276D01*
X333596Y509380D01*
X333556Y509486D01*
X333519Y509593D01*
X333486Y509701D01*
X333456Y509811D01*
X333431Y509921D01*
X333409Y510032D01*
X333392Y510144D01*
X333378Y510257D01*
X333368Y510370D01*
X333362Y510483D01*
X333360Y510596D01*
X333361Y510596D02*
X333361Y513842D01*
X333361Y509947D02*
X328168Y507351D01*
X330764Y502486D02*
X339852Y499889D01*
X330764Y502486D02*
X330764Y495995D01*
X333361Y497942D02*
X328168Y497942D01*
X597234Y537981D02*
X652446Y537981D01*
X652446Y517944D01*
X656602Y517944D01*
X656602Y498204D01*
X652446Y498204D01*
X652446Y478019D01*
X597234Y478019D01*
X597234Y494642D01*
X596046Y495830D01*
X596046Y520022D01*
X597234Y521210D01*
X597234Y537981D01*
X635526Y480394D02*
X652001Y480394D01*
X635526Y480394D02*
X635526Y481433D01*
X614005Y481433D01*
X614005Y478613D01*
X613560Y480394D02*
X597828Y480394D01*
X635526Y480394D02*
X635526Y478465D01*
X635526Y535606D02*
X652001Y535606D01*
X635526Y535606D02*
X635526Y534567D01*
X614005Y534567D01*
X614005Y537387D01*
X613560Y535606D02*
X597828Y535606D01*
X635526Y535606D02*
X635526Y537536D01*
X612076Y508000D02*
X612080Y508313D01*
X612091Y508626D01*
X612111Y508939D01*
X612137Y509251D01*
X612172Y509562D01*
X612214Y509873D01*
X612264Y510182D01*
X612321Y510490D01*
X612386Y510797D01*
X612459Y511101D01*
X612538Y511404D01*
X612626Y511705D01*
X612720Y512004D01*
X612822Y512300D01*
X612931Y512594D01*
X613048Y512885D01*
X613171Y513173D01*
X613301Y513457D01*
X613439Y513739D01*
X613583Y514017D01*
X613734Y514291D01*
X613892Y514562D01*
X614056Y514829D01*
X614227Y515091D01*
X614404Y515350D01*
X614588Y515604D01*
X614778Y515853D01*
X614973Y516097D01*
X615175Y516337D01*
X615382Y516572D01*
X615596Y516801D01*
X615814Y517026D01*
X616039Y517244D01*
X616268Y517458D01*
X616503Y517665D01*
X616743Y517867D01*
X616987Y518062D01*
X617236Y518252D01*
X617490Y518436D01*
X617749Y518613D01*
X618011Y518784D01*
X618278Y518948D01*
X618549Y519106D01*
X618823Y519257D01*
X619101Y519401D01*
X619383Y519539D01*
X619667Y519669D01*
X619955Y519792D01*
X620246Y519909D01*
X620540Y520018D01*
X620836Y520120D01*
X621135Y520214D01*
X621436Y520302D01*
X621739Y520381D01*
X622043Y520454D01*
X622350Y520519D01*
X622658Y520576D01*
X622967Y520626D01*
X623278Y520668D01*
X623589Y520703D01*
X623901Y520729D01*
X624214Y520749D01*
X624527Y520760D01*
X624840Y520764D01*
X625153Y520760D01*
X625466Y520749D01*
X625779Y520729D01*
X626091Y520703D01*
X626402Y520668D01*
X626713Y520626D01*
X627022Y520576D01*
X627330Y520519D01*
X627637Y520454D01*
X627941Y520381D01*
X628244Y520302D01*
X628545Y520214D01*
X628844Y520120D01*
X629140Y520018D01*
X629434Y519909D01*
X629725Y519792D01*
X630013Y519669D01*
X630297Y519539D01*
X630579Y519401D01*
X630857Y519257D01*
X631131Y519106D01*
X631402Y518948D01*
X631669Y518784D01*
X631931Y518613D01*
X632190Y518436D01*
X632444Y518252D01*
X632693Y518062D01*
X632937Y517867D01*
X633177Y517665D01*
X633412Y517458D01*
X633641Y517244D01*
X633866Y517026D01*
X634084Y516801D01*
X634298Y516572D01*
X634505Y516337D01*
X634707Y516097D01*
X634902Y515853D01*
X635092Y515604D01*
X635276Y515350D01*
X635453Y515091D01*
X635624Y514829D01*
X635788Y514562D01*
X635946Y514291D01*
X636097Y514017D01*
X636241Y513739D01*
X636379Y513457D01*
X636509Y513173D01*
X636632Y512885D01*
X636749Y512594D01*
X636858Y512300D01*
X636960Y512004D01*
X637054Y511705D01*
X637142Y511404D01*
X637221Y511101D01*
X637294Y510797D01*
X637359Y510490D01*
X637416Y510182D01*
X637466Y509873D01*
X637508Y509562D01*
X637543Y509251D01*
X637569Y508939D01*
X637589Y508626D01*
X637600Y508313D01*
X637604Y508000D01*
X637600Y507687D01*
X637589Y507374D01*
X637569Y507061D01*
X637543Y506749D01*
X637508Y506438D01*
X637466Y506127D01*
X637416Y505818D01*
X637359Y505510D01*
X637294Y505203D01*
X637221Y504899D01*
X637142Y504596D01*
X637054Y504295D01*
X636960Y503996D01*
X636858Y503700D01*
X636749Y503406D01*
X636632Y503115D01*
X636509Y502827D01*
X636379Y502543D01*
X636241Y502261D01*
X636097Y501983D01*
X635946Y501709D01*
X635788Y501438D01*
X635624Y501171D01*
X635453Y500909D01*
X635276Y500650D01*
X635092Y500396D01*
X634902Y500147D01*
X634707Y499903D01*
X634505Y499663D01*
X634298Y499428D01*
X634084Y499199D01*
X633866Y498974D01*
X633641Y498756D01*
X633412Y498542D01*
X633177Y498335D01*
X632937Y498133D01*
X632693Y497938D01*
X632444Y497748D01*
X632190Y497564D01*
X631931Y497387D01*
X631669Y497216D01*
X631402Y497052D01*
X631131Y496894D01*
X630857Y496743D01*
X630579Y496599D01*
X630297Y496461D01*
X630013Y496331D01*
X629725Y496208D01*
X629434Y496091D01*
X629140Y495982D01*
X628844Y495880D01*
X628545Y495786D01*
X628244Y495698D01*
X627941Y495619D01*
X627637Y495546D01*
X627330Y495481D01*
X627022Y495424D01*
X626713Y495374D01*
X626402Y495332D01*
X626091Y495297D01*
X625779Y495271D01*
X625466Y495251D01*
X625153Y495240D01*
X624840Y495236D01*
X624527Y495240D01*
X624214Y495251D01*
X623901Y495271D01*
X623589Y495297D01*
X623278Y495332D01*
X622967Y495374D01*
X622658Y495424D01*
X622350Y495481D01*
X622043Y495546D01*
X621739Y495619D01*
X621436Y495698D01*
X621135Y495786D01*
X620836Y495880D01*
X620540Y495982D01*
X620246Y496091D01*
X619955Y496208D01*
X619667Y496331D01*
X619383Y496461D01*
X619101Y496599D01*
X618823Y496743D01*
X618549Y496894D01*
X618278Y497052D01*
X618011Y497216D01*
X617749Y497387D01*
X617490Y497564D01*
X617236Y497748D01*
X616987Y497938D01*
X616743Y498133D01*
X616503Y498335D01*
X616268Y498542D01*
X616039Y498756D01*
X615814Y498974D01*
X615596Y499199D01*
X615382Y499428D01*
X615175Y499663D01*
X614973Y499903D01*
X614778Y500147D01*
X614588Y500396D01*
X614404Y500650D01*
X614227Y500909D01*
X614056Y501171D01*
X613892Y501438D01*
X613734Y501709D01*
X613583Y501983D01*
X613439Y502261D01*
X613301Y502543D01*
X613171Y502827D01*
X613048Y503115D01*
X612931Y503406D01*
X612822Y503700D01*
X612720Y503996D01*
X612626Y504295D01*
X612538Y504596D01*
X612459Y504899D01*
X612386Y505203D01*
X612321Y505510D01*
X612264Y505818D01*
X612214Y506127D01*
X612172Y506438D01*
X612137Y506749D01*
X612111Y507061D01*
X612091Y507374D01*
X612080Y507687D01*
X612076Y508000D01*
X608365Y508000D02*
X608370Y508404D01*
X608385Y508808D01*
X608410Y509212D01*
X608444Y509615D01*
X608489Y510017D01*
X608543Y510417D01*
X608608Y510817D01*
X608682Y511214D01*
X608765Y511610D01*
X608859Y512003D01*
X608962Y512394D01*
X609074Y512782D01*
X609197Y513168D01*
X609328Y513550D01*
X609469Y513929D01*
X609619Y514305D01*
X609778Y514676D01*
X609947Y515044D01*
X610124Y515407D01*
X610310Y515766D01*
X610505Y516120D01*
X610709Y516470D01*
X610921Y516814D01*
X611142Y517153D01*
X611370Y517486D01*
X611607Y517814D01*
X611852Y518136D01*
X612105Y518452D01*
X612365Y518761D01*
X612633Y519064D01*
X612908Y519360D01*
X613190Y519650D01*
X613480Y519932D01*
X613776Y520207D01*
X614079Y520475D01*
X614388Y520735D01*
X614704Y520988D01*
X615026Y521233D01*
X615354Y521470D01*
X615687Y521698D01*
X616026Y521919D01*
X616370Y522131D01*
X616720Y522335D01*
X617074Y522530D01*
X617433Y522716D01*
X617796Y522893D01*
X618164Y523062D01*
X618535Y523221D01*
X618911Y523371D01*
X619290Y523512D01*
X619672Y523643D01*
X620058Y523766D01*
X620446Y523878D01*
X620837Y523981D01*
X621230Y524075D01*
X621626Y524158D01*
X622023Y524232D01*
X622423Y524297D01*
X622823Y524351D01*
X623225Y524396D01*
X623628Y524430D01*
X624032Y524455D01*
X624436Y524470D01*
X624840Y524475D01*
X625244Y524470D01*
X625648Y524455D01*
X626052Y524430D01*
X626455Y524396D01*
X626857Y524351D01*
X627257Y524297D01*
X627657Y524232D01*
X628054Y524158D01*
X628450Y524075D01*
X628843Y523981D01*
X629234Y523878D01*
X629622Y523766D01*
X630008Y523643D01*
X630390Y523512D01*
X630769Y523371D01*
X631145Y523221D01*
X631516Y523062D01*
X631884Y522893D01*
X632247Y522716D01*
X632606Y522530D01*
X632960Y522335D01*
X633310Y522131D01*
X633654Y521919D01*
X633993Y521698D01*
X634326Y521470D01*
X634654Y521233D01*
X634976Y520988D01*
X635292Y520735D01*
X635601Y520475D01*
X635904Y520207D01*
X636200Y519932D01*
X636490Y519650D01*
X636772Y519360D01*
X637047Y519064D01*
X637315Y518761D01*
X637575Y518452D01*
X637828Y518136D01*
X638073Y517814D01*
X638310Y517486D01*
X638538Y517153D01*
X638759Y516814D01*
X638971Y516470D01*
X639175Y516120D01*
X639370Y515766D01*
X639556Y515407D01*
X639733Y515044D01*
X639902Y514676D01*
X640061Y514305D01*
X640211Y513929D01*
X640352Y513550D01*
X640483Y513168D01*
X640606Y512782D01*
X640718Y512394D01*
X640821Y512003D01*
X640915Y511610D01*
X640998Y511214D01*
X641072Y510817D01*
X641137Y510417D01*
X641191Y510017D01*
X641236Y509615D01*
X641270Y509212D01*
X641295Y508808D01*
X641310Y508404D01*
X641315Y508000D01*
X641310Y507596D01*
X641295Y507192D01*
X641270Y506788D01*
X641236Y506385D01*
X641191Y505983D01*
X641137Y505583D01*
X641072Y505183D01*
X640998Y504786D01*
X640915Y504390D01*
X640821Y503997D01*
X640718Y503606D01*
X640606Y503218D01*
X640483Y502832D01*
X640352Y502450D01*
X640211Y502071D01*
X640061Y501695D01*
X639902Y501324D01*
X639733Y500956D01*
X639556Y500593D01*
X639370Y500234D01*
X639175Y499880D01*
X638971Y499530D01*
X638759Y499186D01*
X638538Y498847D01*
X638310Y498514D01*
X638073Y498186D01*
X637828Y497864D01*
X637575Y497548D01*
X637315Y497239D01*
X637047Y496936D01*
X636772Y496640D01*
X636490Y496350D01*
X636200Y496068D01*
X635904Y495793D01*
X635601Y495525D01*
X635292Y495265D01*
X634976Y495012D01*
X634654Y494767D01*
X634326Y494530D01*
X633993Y494302D01*
X633654Y494081D01*
X633310Y493869D01*
X632960Y493665D01*
X632606Y493470D01*
X632247Y493284D01*
X631884Y493107D01*
X631516Y492938D01*
X631145Y492779D01*
X630769Y492629D01*
X630390Y492488D01*
X630008Y492357D01*
X629622Y492234D01*
X629234Y492122D01*
X628843Y492019D01*
X628450Y491925D01*
X628054Y491842D01*
X627657Y491768D01*
X627257Y491703D01*
X626857Y491649D01*
X626455Y491604D01*
X626052Y491570D01*
X625648Y491545D01*
X625244Y491530D01*
X624840Y491525D01*
X624436Y491530D01*
X624032Y491545D01*
X623628Y491570D01*
X623225Y491604D01*
X622823Y491649D01*
X622423Y491703D01*
X622023Y491768D01*
X621626Y491842D01*
X621230Y491925D01*
X620837Y492019D01*
X620446Y492122D01*
X620058Y492234D01*
X619672Y492357D01*
X619290Y492488D01*
X618911Y492629D01*
X618535Y492779D01*
X618164Y492938D01*
X617796Y493107D01*
X617433Y493284D01*
X617074Y493470D01*
X616720Y493665D01*
X616370Y493869D01*
X616026Y494081D01*
X615687Y494302D01*
X615354Y494530D01*
X615026Y494767D01*
X614704Y495012D01*
X614388Y495265D01*
X614079Y495525D01*
X613776Y495793D01*
X613480Y496068D01*
X613190Y496350D01*
X612908Y496640D01*
X612633Y496936D01*
X612365Y497239D01*
X612105Y497548D01*
X611852Y497864D01*
X611607Y498186D01*
X611370Y498514D01*
X611142Y498847D01*
X610921Y499186D01*
X610709Y499530D01*
X610505Y499880D01*
X610310Y500234D01*
X610124Y500593D01*
X609947Y500956D01*
X609778Y501324D01*
X609619Y501695D01*
X609469Y502071D01*
X609328Y502450D01*
X609197Y502832D01*
X609074Y503218D01*
X608962Y503606D01*
X608859Y503997D01*
X608765Y504390D01*
X608682Y504786D01*
X608608Y505183D01*
X608543Y505583D01*
X608489Y505983D01*
X608444Y506385D01*
X608410Y506788D01*
X608385Y507192D01*
X608370Y507596D01*
X608365Y508000D01*
D14*
X594340Y528556D03*
D15*
X594266Y487518D03*
D16*
X655415Y528556D03*
D17*
X657418Y508075D03*
D18*
X655341Y487593D03*
D10*
X621623Y552958D02*
X621722Y552960D01*
X621822Y552966D01*
X621921Y552975D01*
X622019Y552988D01*
X622117Y553005D01*
X622215Y553026D01*
X622311Y553051D01*
X622406Y553079D01*
X622500Y553111D01*
X622593Y553146D01*
X622685Y553185D01*
X622775Y553228D01*
X622863Y553273D01*
X622950Y553323D01*
X623034Y553375D01*
X623117Y553431D01*
X623197Y553489D01*
X623275Y553551D01*
X623350Y553616D01*
X623423Y553684D01*
X623493Y553754D01*
X623561Y553827D01*
X623626Y553902D01*
X623688Y553980D01*
X623746Y554060D01*
X623802Y554143D01*
X623854Y554227D01*
X623904Y554314D01*
X623949Y554402D01*
X623992Y554492D01*
X624031Y554584D01*
X624066Y554677D01*
X624098Y554771D01*
X624126Y554866D01*
X624151Y554962D01*
X624172Y555060D01*
X624189Y555158D01*
X624202Y555256D01*
X624211Y555355D01*
X624217Y555455D01*
X624219Y555554D01*
X621623Y552958D02*
X621479Y552960D01*
X621334Y552966D01*
X621190Y552975D01*
X621047Y552988D01*
X620903Y553005D01*
X620760Y553026D01*
X620618Y553051D01*
X620477Y553079D01*
X620336Y553111D01*
X620196Y553147D01*
X620057Y553186D01*
X619919Y553229D01*
X619783Y553276D01*
X619647Y553326D01*
X619513Y553380D01*
X619381Y553437D01*
X619250Y553498D01*
X619121Y553562D01*
X618993Y553630D01*
X618867Y553700D01*
X618743Y553775D01*
X618622Y553852D01*
X618502Y553933D01*
X618384Y554016D01*
X618269Y554103D01*
X618156Y554193D01*
X618045Y554286D01*
X617937Y554381D01*
X617831Y554480D01*
X617728Y554581D01*
X618053Y562046D02*
X618055Y562145D01*
X618061Y562245D01*
X618070Y562344D01*
X618083Y562442D01*
X618100Y562540D01*
X618121Y562638D01*
X618146Y562734D01*
X618174Y562829D01*
X618206Y562923D01*
X618241Y563016D01*
X618280Y563108D01*
X618323Y563198D01*
X618368Y563286D01*
X618418Y563373D01*
X618470Y563457D01*
X618526Y563540D01*
X618584Y563620D01*
X618646Y563698D01*
X618711Y563773D01*
X618779Y563846D01*
X618849Y563916D01*
X618922Y563984D01*
X618997Y564049D01*
X619075Y564111D01*
X619155Y564169D01*
X619238Y564225D01*
X619322Y564277D01*
X619409Y564327D01*
X619497Y564372D01*
X619587Y564415D01*
X619679Y564454D01*
X619772Y564489D01*
X619866Y564521D01*
X619961Y564549D01*
X620058Y564574D01*
X620155Y564595D01*
X620253Y564612D01*
X620351Y564625D01*
X620450Y564634D01*
X620550Y564640D01*
X620649Y564642D01*
X620785Y564640D01*
X620921Y564634D01*
X621057Y564625D01*
X621193Y564612D01*
X621328Y564594D01*
X621462Y564574D01*
X621596Y564549D01*
X621730Y564521D01*
X621862Y564488D01*
X621993Y564453D01*
X622124Y564413D01*
X622253Y564370D01*
X622381Y564324D01*
X622507Y564273D01*
X622633Y564220D01*
X622756Y564162D01*
X622878Y564102D01*
X622998Y564038D01*
X623117Y563970D01*
X623233Y563900D01*
X623347Y563826D01*
X623460Y563749D01*
X623570Y563668D01*
X619351Y559774D02*
X619265Y559827D01*
X619181Y559884D01*
X619099Y559943D01*
X619019Y560006D01*
X618942Y560072D01*
X618867Y560140D01*
X618795Y560212D01*
X618726Y560286D01*
X618660Y560363D01*
X618597Y560442D01*
X618537Y560524D01*
X618480Y560608D01*
X618426Y560694D01*
X618376Y560782D01*
X618329Y560872D01*
X618285Y560963D01*
X618246Y561057D01*
X618209Y561151D01*
X618177Y561247D01*
X618148Y561345D01*
X618123Y561443D01*
X618102Y561542D01*
X618084Y561642D01*
X618071Y561742D01*
X618061Y561843D01*
X618055Y561945D01*
X618053Y562046D01*
X622921Y557826D02*
X623007Y557773D01*
X623091Y557716D01*
X623173Y557657D01*
X623253Y557594D01*
X623330Y557528D01*
X623405Y557460D01*
X623477Y557388D01*
X623546Y557314D01*
X623612Y557237D01*
X623675Y557158D01*
X623735Y557076D01*
X623792Y556992D01*
X623846Y556906D01*
X623896Y556818D01*
X623943Y556728D01*
X623987Y556637D01*
X624026Y556543D01*
X624063Y556449D01*
X624095Y556353D01*
X624124Y556255D01*
X624149Y556157D01*
X624170Y556058D01*
X624188Y555958D01*
X624201Y555858D01*
X624211Y555757D01*
X624217Y555655D01*
X624219Y555554D01*
X622921Y557826D02*
X619351Y559774D01*
X628777Y562046D02*
X632023Y564642D01*
X632023Y552958D01*
X635268Y552958D02*
X628777Y552958D01*
X642286Y652281D02*
X587074Y652281D01*
X642286Y652281D02*
X642286Y632244D01*
X646442Y632244D01*
X646442Y612504D01*
X642286Y612504D01*
X642286Y592319D01*
X587074Y592319D01*
X587074Y608942D01*
X585886Y610130D01*
X585886Y634322D01*
X587074Y635510D01*
X587074Y652281D01*
X625366Y594694D02*
X641841Y594694D01*
X625366Y594694D02*
X625366Y595733D01*
X603845Y595733D01*
X603845Y592913D01*
X603400Y594694D02*
X587668Y594694D01*
X625366Y594694D02*
X625366Y592765D01*
X625366Y649906D02*
X641841Y649906D01*
X625366Y649906D02*
X625366Y648867D01*
X603845Y648867D01*
X603845Y651687D01*
X603400Y649906D02*
X587668Y649906D01*
X625366Y649906D02*
X625366Y651836D01*
X601916Y622300D02*
X601920Y622613D01*
X601931Y622926D01*
X601951Y623239D01*
X601977Y623551D01*
X602012Y623862D01*
X602054Y624173D01*
X602104Y624482D01*
X602161Y624790D01*
X602226Y625097D01*
X602299Y625401D01*
X602378Y625704D01*
X602466Y626005D01*
X602560Y626304D01*
X602662Y626600D01*
X602771Y626894D01*
X602888Y627185D01*
X603011Y627473D01*
X603141Y627757D01*
X603279Y628039D01*
X603423Y628317D01*
X603574Y628591D01*
X603732Y628862D01*
X603896Y629129D01*
X604067Y629391D01*
X604244Y629650D01*
X604428Y629904D01*
X604618Y630153D01*
X604813Y630397D01*
X605015Y630637D01*
X605222Y630872D01*
X605436Y631101D01*
X605654Y631326D01*
X605879Y631544D01*
X606108Y631758D01*
X606343Y631965D01*
X606583Y632167D01*
X606827Y632362D01*
X607076Y632552D01*
X607330Y632736D01*
X607589Y632913D01*
X607851Y633084D01*
X608118Y633248D01*
X608389Y633406D01*
X608663Y633557D01*
X608941Y633701D01*
X609223Y633839D01*
X609507Y633969D01*
X609795Y634092D01*
X610086Y634209D01*
X610380Y634318D01*
X610676Y634420D01*
X610975Y634514D01*
X611276Y634602D01*
X611579Y634681D01*
X611883Y634754D01*
X612190Y634819D01*
X612498Y634876D01*
X612807Y634926D01*
X613118Y634968D01*
X613429Y635003D01*
X613741Y635029D01*
X614054Y635049D01*
X614367Y635060D01*
X614680Y635064D01*
X614993Y635060D01*
X615306Y635049D01*
X615619Y635029D01*
X615931Y635003D01*
X616242Y634968D01*
X616553Y634926D01*
X616862Y634876D01*
X617170Y634819D01*
X617477Y634754D01*
X617781Y634681D01*
X618084Y634602D01*
X618385Y634514D01*
X618684Y634420D01*
X618980Y634318D01*
X619274Y634209D01*
X619565Y634092D01*
X619853Y633969D01*
X620137Y633839D01*
X620419Y633701D01*
X620697Y633557D01*
X620971Y633406D01*
X621242Y633248D01*
X621509Y633084D01*
X621771Y632913D01*
X622030Y632736D01*
X622284Y632552D01*
X622533Y632362D01*
X622777Y632167D01*
X623017Y631965D01*
X623252Y631758D01*
X623481Y631544D01*
X623706Y631326D01*
X623924Y631101D01*
X624138Y630872D01*
X624345Y630637D01*
X624547Y630397D01*
X624742Y630153D01*
X624932Y629904D01*
X625116Y629650D01*
X625293Y629391D01*
X625464Y629129D01*
X625628Y628862D01*
X625786Y628591D01*
X625937Y628317D01*
X626081Y628039D01*
X626219Y627757D01*
X626349Y627473D01*
X626472Y627185D01*
X626589Y626894D01*
X626698Y626600D01*
X626800Y626304D01*
X626894Y626005D01*
X626982Y625704D01*
X627061Y625401D01*
X627134Y625097D01*
X627199Y624790D01*
X627256Y624482D01*
X627306Y624173D01*
X627348Y623862D01*
X627383Y623551D01*
X627409Y623239D01*
X627429Y622926D01*
X627440Y622613D01*
X627444Y622300D01*
X627440Y621987D01*
X627429Y621674D01*
X627409Y621361D01*
X627383Y621049D01*
X627348Y620738D01*
X627306Y620427D01*
X627256Y620118D01*
X627199Y619810D01*
X627134Y619503D01*
X627061Y619199D01*
X626982Y618896D01*
X626894Y618595D01*
X626800Y618296D01*
X626698Y618000D01*
X626589Y617706D01*
X626472Y617415D01*
X626349Y617127D01*
X626219Y616843D01*
X626081Y616561D01*
X625937Y616283D01*
X625786Y616009D01*
X625628Y615738D01*
X625464Y615471D01*
X625293Y615209D01*
X625116Y614950D01*
X624932Y614696D01*
X624742Y614447D01*
X624547Y614203D01*
X624345Y613963D01*
X624138Y613728D01*
X623924Y613499D01*
X623706Y613274D01*
X623481Y613056D01*
X623252Y612842D01*
X623017Y612635D01*
X622777Y612433D01*
X622533Y612238D01*
X622284Y612048D01*
X622030Y611864D01*
X621771Y611687D01*
X621509Y611516D01*
X621242Y611352D01*
X620971Y611194D01*
X620697Y611043D01*
X620419Y610899D01*
X620137Y610761D01*
X619853Y610631D01*
X619565Y610508D01*
X619274Y610391D01*
X618980Y610282D01*
X618684Y610180D01*
X618385Y610086D01*
X618084Y609998D01*
X617781Y609919D01*
X617477Y609846D01*
X617170Y609781D01*
X616862Y609724D01*
X616553Y609674D01*
X616242Y609632D01*
X615931Y609597D01*
X615619Y609571D01*
X615306Y609551D01*
X614993Y609540D01*
X614680Y609536D01*
X614367Y609540D01*
X614054Y609551D01*
X613741Y609571D01*
X613429Y609597D01*
X613118Y609632D01*
X612807Y609674D01*
X612498Y609724D01*
X612190Y609781D01*
X611883Y609846D01*
X611579Y609919D01*
X611276Y609998D01*
X610975Y610086D01*
X610676Y610180D01*
X610380Y610282D01*
X610086Y610391D01*
X609795Y610508D01*
X609507Y610631D01*
X609223Y610761D01*
X608941Y610899D01*
X608663Y611043D01*
X608389Y611194D01*
X608118Y611352D01*
X607851Y611516D01*
X607589Y611687D01*
X607330Y611864D01*
X607076Y612048D01*
X606827Y612238D01*
X606583Y612433D01*
X606343Y612635D01*
X606108Y612842D01*
X605879Y613056D01*
X605654Y613274D01*
X605436Y613499D01*
X605222Y613728D01*
X605015Y613963D01*
X604813Y614203D01*
X604618Y614447D01*
X604428Y614696D01*
X604244Y614950D01*
X604067Y615209D01*
X603896Y615471D01*
X603732Y615738D01*
X603574Y616009D01*
X603423Y616283D01*
X603279Y616561D01*
X603141Y616843D01*
X603011Y617127D01*
X602888Y617415D01*
X602771Y617706D01*
X602662Y618000D01*
X602560Y618296D01*
X602466Y618595D01*
X602378Y618896D01*
X602299Y619199D01*
X602226Y619503D01*
X602161Y619810D01*
X602104Y620118D01*
X602054Y620427D01*
X602012Y620738D01*
X601977Y621049D01*
X601951Y621361D01*
X601931Y621674D01*
X601920Y621987D01*
X601916Y622300D01*
X598205Y622300D02*
X598210Y622704D01*
X598225Y623108D01*
X598250Y623512D01*
X598284Y623915D01*
X598329Y624317D01*
X598383Y624717D01*
X598448Y625117D01*
X598522Y625514D01*
X598605Y625910D01*
X598699Y626303D01*
X598802Y626694D01*
X598914Y627082D01*
X599037Y627468D01*
X599168Y627850D01*
X599309Y628229D01*
X599459Y628605D01*
X599618Y628976D01*
X599787Y629344D01*
X599964Y629707D01*
X600150Y630066D01*
X600345Y630420D01*
X600549Y630770D01*
X600761Y631114D01*
X600982Y631453D01*
X601210Y631786D01*
X601447Y632114D01*
X601692Y632436D01*
X601945Y632752D01*
X602205Y633061D01*
X602473Y633364D01*
X602748Y633660D01*
X603030Y633950D01*
X603320Y634232D01*
X603616Y634507D01*
X603919Y634775D01*
X604228Y635035D01*
X604544Y635288D01*
X604866Y635533D01*
X605194Y635770D01*
X605527Y635998D01*
X605866Y636219D01*
X606210Y636431D01*
X606560Y636635D01*
X606914Y636830D01*
X607273Y637016D01*
X607636Y637193D01*
X608004Y637362D01*
X608375Y637521D01*
X608751Y637671D01*
X609130Y637812D01*
X609512Y637943D01*
X609898Y638066D01*
X610286Y638178D01*
X610677Y638281D01*
X611070Y638375D01*
X611466Y638458D01*
X611863Y638532D01*
X612263Y638597D01*
X612663Y638651D01*
X613065Y638696D01*
X613468Y638730D01*
X613872Y638755D01*
X614276Y638770D01*
X614680Y638775D01*
X615084Y638770D01*
X615488Y638755D01*
X615892Y638730D01*
X616295Y638696D01*
X616697Y638651D01*
X617097Y638597D01*
X617497Y638532D01*
X617894Y638458D01*
X618290Y638375D01*
X618683Y638281D01*
X619074Y638178D01*
X619462Y638066D01*
X619848Y637943D01*
X620230Y637812D01*
X620609Y637671D01*
X620985Y637521D01*
X621356Y637362D01*
X621724Y637193D01*
X622087Y637016D01*
X622446Y636830D01*
X622800Y636635D01*
X623150Y636431D01*
X623494Y636219D01*
X623833Y635998D01*
X624166Y635770D01*
X624494Y635533D01*
X624816Y635288D01*
X625132Y635035D01*
X625441Y634775D01*
X625744Y634507D01*
X626040Y634232D01*
X626330Y633950D01*
X626612Y633660D01*
X626887Y633364D01*
X627155Y633061D01*
X627415Y632752D01*
X627668Y632436D01*
X627913Y632114D01*
X628150Y631786D01*
X628378Y631453D01*
X628599Y631114D01*
X628811Y630770D01*
X629015Y630420D01*
X629210Y630066D01*
X629396Y629707D01*
X629573Y629344D01*
X629742Y628976D01*
X629901Y628605D01*
X630051Y628229D01*
X630192Y627850D01*
X630323Y627468D01*
X630446Y627082D01*
X630558Y626694D01*
X630661Y626303D01*
X630755Y625910D01*
X630838Y625514D01*
X630912Y625117D01*
X630977Y624717D01*
X631031Y624317D01*
X631076Y623915D01*
X631110Y623512D01*
X631135Y623108D01*
X631150Y622704D01*
X631155Y622300D01*
X631150Y621896D01*
X631135Y621492D01*
X631110Y621088D01*
X631076Y620685D01*
X631031Y620283D01*
X630977Y619883D01*
X630912Y619483D01*
X630838Y619086D01*
X630755Y618690D01*
X630661Y618297D01*
X630558Y617906D01*
X630446Y617518D01*
X630323Y617132D01*
X630192Y616750D01*
X630051Y616371D01*
X629901Y615995D01*
X629742Y615624D01*
X629573Y615256D01*
X629396Y614893D01*
X629210Y614534D01*
X629015Y614180D01*
X628811Y613830D01*
X628599Y613486D01*
X628378Y613147D01*
X628150Y612814D01*
X627913Y612486D01*
X627668Y612164D01*
X627415Y611848D01*
X627155Y611539D01*
X626887Y611236D01*
X626612Y610940D01*
X626330Y610650D01*
X626040Y610368D01*
X625744Y610093D01*
X625441Y609825D01*
X625132Y609565D01*
X624816Y609312D01*
X624494Y609067D01*
X624166Y608830D01*
X623833Y608602D01*
X623494Y608381D01*
X623150Y608169D01*
X622800Y607965D01*
X622446Y607770D01*
X622087Y607584D01*
X621724Y607407D01*
X621356Y607238D01*
X620985Y607079D01*
X620609Y606929D01*
X620230Y606788D01*
X619848Y606657D01*
X619462Y606534D01*
X619074Y606422D01*
X618683Y606319D01*
X618290Y606225D01*
X617894Y606142D01*
X617497Y606068D01*
X617097Y606003D01*
X616697Y605949D01*
X616295Y605904D01*
X615892Y605870D01*
X615488Y605845D01*
X615084Y605830D01*
X614680Y605825D01*
X614276Y605830D01*
X613872Y605845D01*
X613468Y605870D01*
X613065Y605904D01*
X612663Y605949D01*
X612263Y606003D01*
X611863Y606068D01*
X611466Y606142D01*
X611070Y606225D01*
X610677Y606319D01*
X610286Y606422D01*
X609898Y606534D01*
X609512Y606657D01*
X609130Y606788D01*
X608751Y606929D01*
X608375Y607079D01*
X608004Y607238D01*
X607636Y607407D01*
X607273Y607584D01*
X606914Y607770D01*
X606560Y607965D01*
X606210Y608169D01*
X605866Y608381D01*
X605527Y608602D01*
X605194Y608830D01*
X604866Y609067D01*
X604544Y609312D01*
X604228Y609565D01*
X603919Y609825D01*
X603616Y610093D01*
X603320Y610368D01*
X603030Y610650D01*
X602748Y610940D01*
X602473Y611236D01*
X602205Y611539D01*
X601945Y611848D01*
X601692Y612164D01*
X601447Y612486D01*
X601210Y612814D01*
X600982Y613147D01*
X600761Y613486D01*
X600549Y613830D01*
X600345Y614180D01*
X600150Y614534D01*
X599964Y614893D01*
X599787Y615256D01*
X599618Y615624D01*
X599459Y615995D01*
X599309Y616371D01*
X599168Y616750D01*
X599037Y617132D01*
X598914Y617518D01*
X598802Y617906D01*
X598699Y618297D01*
X598605Y618690D01*
X598522Y619086D01*
X598448Y619483D01*
X598383Y619883D01*
X598329Y620283D01*
X598284Y620685D01*
X598250Y621088D01*
X598225Y621492D01*
X598210Y621896D01*
X598205Y622300D01*
D14*
X584180Y642856D03*
D15*
X584106Y601818D03*
D16*
X645255Y642856D03*
D17*
X647258Y622375D03*
D18*
X645181Y601893D03*
D10*
X608923Y664718D02*
X609022Y664720D01*
X609122Y664726D01*
X609221Y664735D01*
X609319Y664748D01*
X609417Y664765D01*
X609515Y664786D01*
X609611Y664811D01*
X609706Y664839D01*
X609800Y664871D01*
X609893Y664906D01*
X609985Y664945D01*
X610075Y664988D01*
X610163Y665033D01*
X610250Y665083D01*
X610334Y665135D01*
X610417Y665191D01*
X610497Y665249D01*
X610575Y665311D01*
X610650Y665376D01*
X610723Y665444D01*
X610793Y665514D01*
X610861Y665587D01*
X610926Y665662D01*
X610988Y665740D01*
X611046Y665820D01*
X611102Y665903D01*
X611154Y665987D01*
X611204Y666074D01*
X611249Y666162D01*
X611292Y666252D01*
X611331Y666344D01*
X611366Y666437D01*
X611398Y666531D01*
X611426Y666626D01*
X611451Y666722D01*
X611472Y666820D01*
X611489Y666918D01*
X611502Y667016D01*
X611511Y667115D01*
X611517Y667215D01*
X611519Y667314D01*
X608923Y664718D02*
X608779Y664720D01*
X608634Y664726D01*
X608490Y664735D01*
X608347Y664748D01*
X608203Y664765D01*
X608060Y664786D01*
X607918Y664811D01*
X607777Y664839D01*
X607636Y664871D01*
X607496Y664907D01*
X607357Y664946D01*
X607219Y664989D01*
X607083Y665036D01*
X606947Y665086D01*
X606813Y665140D01*
X606681Y665197D01*
X606550Y665258D01*
X606421Y665322D01*
X606293Y665390D01*
X606167Y665460D01*
X606043Y665535D01*
X605922Y665612D01*
X605802Y665693D01*
X605684Y665776D01*
X605569Y665863D01*
X605456Y665953D01*
X605345Y666046D01*
X605237Y666141D01*
X605131Y666240D01*
X605028Y666341D01*
X605353Y673806D02*
X605355Y673905D01*
X605361Y674005D01*
X605370Y674104D01*
X605383Y674202D01*
X605400Y674300D01*
X605421Y674398D01*
X605446Y674494D01*
X605474Y674589D01*
X605506Y674683D01*
X605541Y674776D01*
X605580Y674868D01*
X605623Y674958D01*
X605668Y675046D01*
X605718Y675133D01*
X605770Y675217D01*
X605826Y675300D01*
X605884Y675380D01*
X605946Y675458D01*
X606011Y675533D01*
X606079Y675606D01*
X606149Y675676D01*
X606222Y675744D01*
X606297Y675809D01*
X606375Y675871D01*
X606455Y675929D01*
X606538Y675985D01*
X606622Y676037D01*
X606709Y676087D01*
X606797Y676132D01*
X606887Y676175D01*
X606979Y676214D01*
X607072Y676249D01*
X607166Y676281D01*
X607261Y676309D01*
X607358Y676334D01*
X607455Y676355D01*
X607553Y676372D01*
X607651Y676385D01*
X607750Y676394D01*
X607850Y676400D01*
X607949Y676402D01*
X608085Y676400D01*
X608221Y676394D01*
X608357Y676385D01*
X608493Y676372D01*
X608628Y676354D01*
X608762Y676334D01*
X608896Y676309D01*
X609030Y676281D01*
X609162Y676248D01*
X609293Y676213D01*
X609424Y676173D01*
X609553Y676130D01*
X609681Y676084D01*
X609807Y676033D01*
X609933Y675980D01*
X610056Y675922D01*
X610178Y675862D01*
X610298Y675798D01*
X610417Y675730D01*
X610533Y675660D01*
X610647Y675586D01*
X610760Y675509D01*
X610870Y675428D01*
X606651Y671534D02*
X606565Y671587D01*
X606481Y671644D01*
X606399Y671703D01*
X606319Y671766D01*
X606242Y671832D01*
X606167Y671900D01*
X606095Y671972D01*
X606026Y672046D01*
X605960Y672123D01*
X605897Y672202D01*
X605837Y672284D01*
X605780Y672368D01*
X605726Y672454D01*
X605676Y672542D01*
X605629Y672632D01*
X605585Y672723D01*
X605546Y672817D01*
X605509Y672911D01*
X605477Y673007D01*
X605448Y673105D01*
X605423Y673203D01*
X605402Y673302D01*
X605384Y673402D01*
X605371Y673502D01*
X605361Y673603D01*
X605355Y673705D01*
X605353Y673806D01*
X610221Y669586D02*
X610307Y669533D01*
X610391Y669476D01*
X610473Y669417D01*
X610553Y669354D01*
X610630Y669288D01*
X610705Y669220D01*
X610777Y669148D01*
X610846Y669074D01*
X610912Y668997D01*
X610975Y668918D01*
X611035Y668836D01*
X611092Y668752D01*
X611146Y668666D01*
X611196Y668578D01*
X611243Y668488D01*
X611287Y668397D01*
X611326Y668303D01*
X611363Y668209D01*
X611395Y668113D01*
X611424Y668015D01*
X611449Y667917D01*
X611470Y667818D01*
X611488Y667718D01*
X611501Y667618D01*
X611511Y667517D01*
X611517Y667415D01*
X611519Y667314D01*
X610221Y669586D02*
X606651Y671534D01*
X619647Y676402D02*
X619754Y676400D01*
X619860Y676394D01*
X619966Y676384D01*
X620072Y676371D01*
X620178Y676353D01*
X620282Y676332D01*
X620386Y676307D01*
X620489Y676278D01*
X620590Y676246D01*
X620690Y676209D01*
X620789Y676169D01*
X620887Y676126D01*
X620983Y676079D01*
X621077Y676028D01*
X621169Y675974D01*
X621259Y675917D01*
X621347Y675857D01*
X621432Y675793D01*
X621515Y675726D01*
X621596Y675656D01*
X621674Y675584D01*
X621750Y675508D01*
X621822Y675430D01*
X621892Y675349D01*
X621959Y675266D01*
X622023Y675181D01*
X622083Y675093D01*
X622140Y675003D01*
X622194Y674911D01*
X622245Y674817D01*
X622292Y674721D01*
X622335Y674623D01*
X622375Y674524D01*
X622412Y674424D01*
X622444Y674323D01*
X622473Y674220D01*
X622498Y674116D01*
X622519Y674012D01*
X622537Y673906D01*
X622550Y673800D01*
X622560Y673694D01*
X622566Y673588D01*
X622568Y673481D01*
X619647Y676402D02*
X619526Y676400D01*
X619405Y676394D01*
X619285Y676384D01*
X619164Y676371D01*
X619045Y676353D01*
X618925Y676332D01*
X618807Y676307D01*
X618690Y676278D01*
X618573Y676245D01*
X618458Y676209D01*
X618344Y676168D01*
X618231Y676125D01*
X618119Y676077D01*
X618010Y676026D01*
X617902Y675971D01*
X617795Y675913D01*
X617691Y675852D01*
X617589Y675787D01*
X617489Y675719D01*
X617391Y675648D01*
X617295Y675574D01*
X617202Y675497D01*
X617112Y675416D01*
X617024Y675333D01*
X616939Y675247D01*
X616856Y675158D01*
X616777Y675067D01*
X616700Y674973D01*
X616627Y674877D01*
X616557Y674779D01*
X616490Y674678D01*
X616426Y674575D01*
X616366Y674470D01*
X616309Y674363D01*
X616255Y674255D01*
X616205Y674145D01*
X616159Y674033D01*
X616116Y673920D01*
X616077Y673805D01*
X621595Y671209D02*
X621674Y671286D01*
X621750Y671367D01*
X621823Y671450D01*
X621893Y671535D01*
X621960Y671623D01*
X622024Y671713D01*
X622084Y671805D01*
X622141Y671900D01*
X622195Y671996D01*
X622246Y672094D01*
X622293Y672194D01*
X622337Y672296D01*
X622377Y672399D01*
X622413Y672503D01*
X622445Y672609D01*
X622474Y672715D01*
X622499Y672823D01*
X622521Y672931D01*
X622538Y673041D01*
X622552Y673150D01*
X622561Y673260D01*
X622567Y673371D01*
X622569Y673481D01*
X621594Y671209D02*
X616077Y664718D01*
X622568Y664718D01*
D19*
X358140Y278130D03*
D10*
X370840Y288290D02*
X410210Y288290D01*
X410210Y232410D02*
X370840Y232410D01*
D20*
X383794Y296446D02*
X383794Y300482D01*
X383794Y296446D02*
X383796Y296369D01*
X383802Y296291D01*
X383811Y296215D01*
X383825Y296138D01*
X383842Y296063D01*
X383863Y295989D01*
X383888Y295915D01*
X383916Y295843D01*
X383948Y295773D01*
X383983Y295704D01*
X384022Y295637D01*
X384064Y295572D01*
X384109Y295509D01*
X384157Y295448D01*
X384208Y295390D01*
X384262Y295335D01*
X384319Y295282D01*
X384378Y295233D01*
X384440Y295186D01*
X384504Y295142D01*
X384570Y295102D01*
X384638Y295065D01*
X384708Y295031D01*
X384779Y295001D01*
X384852Y294975D01*
X384926Y294952D01*
X385001Y294933D01*
X385076Y294918D01*
X385153Y294906D01*
X385230Y294898D01*
X385307Y294894D01*
X385385Y294894D01*
X385462Y294898D01*
X385539Y294906D01*
X385616Y294918D01*
X385691Y294933D01*
X385766Y294952D01*
X385840Y294975D01*
X385913Y295001D01*
X385984Y295031D01*
X386054Y295065D01*
X386122Y295102D01*
X386188Y295142D01*
X386252Y295186D01*
X386314Y295233D01*
X386373Y295282D01*
X386430Y295335D01*
X386484Y295390D01*
X386535Y295448D01*
X386583Y295509D01*
X386628Y295572D01*
X386670Y295637D01*
X386709Y295704D01*
X386744Y295773D01*
X386776Y295843D01*
X386804Y295915D01*
X386829Y295989D01*
X386850Y296063D01*
X386867Y296138D01*
X386881Y296215D01*
X386890Y296291D01*
X386896Y296369D01*
X386898Y296446D01*
X386898Y300482D01*
X389463Y299240D02*
X391015Y300482D01*
X391015Y294894D01*
X389463Y294894D02*
X392568Y294894D01*
X358394Y221742D02*
X358394Y216154D01*
X360257Y218638D02*
X358394Y221742D01*
X360257Y218638D02*
X362119Y221742D01*
X362119Y216154D01*
X364429Y216154D02*
X366292Y221742D01*
X368154Y216154D01*
X367689Y217551D02*
X364895Y217551D01*
X369915Y216154D02*
X373641Y221742D01*
X369915Y221742D02*
X373641Y216154D01*
X375712Y216154D02*
X377264Y216154D01*
X377341Y216156D01*
X377419Y216162D01*
X377495Y216171D01*
X377572Y216185D01*
X377647Y216202D01*
X377721Y216223D01*
X377795Y216248D01*
X377867Y216276D01*
X377937Y216308D01*
X378006Y216343D01*
X378073Y216382D01*
X378138Y216424D01*
X378201Y216469D01*
X378262Y216517D01*
X378320Y216568D01*
X378375Y216622D01*
X378428Y216679D01*
X378477Y216738D01*
X378524Y216800D01*
X378568Y216864D01*
X378608Y216930D01*
X378645Y216998D01*
X378679Y217068D01*
X378709Y217139D01*
X378735Y217212D01*
X378758Y217286D01*
X378777Y217361D01*
X378792Y217436D01*
X378804Y217513D01*
X378812Y217590D01*
X378816Y217667D01*
X378816Y217745D01*
X378812Y217822D01*
X378804Y217899D01*
X378792Y217976D01*
X378777Y218051D01*
X378758Y218126D01*
X378735Y218200D01*
X378709Y218273D01*
X378679Y218344D01*
X378645Y218414D01*
X378608Y218482D01*
X378568Y218548D01*
X378524Y218612D01*
X378477Y218674D01*
X378428Y218733D01*
X378375Y218790D01*
X378320Y218844D01*
X378262Y218895D01*
X378201Y218943D01*
X378138Y218988D01*
X378073Y219030D01*
X378006Y219069D01*
X377937Y219104D01*
X377867Y219136D01*
X377795Y219164D01*
X377721Y219189D01*
X377647Y219210D01*
X377572Y219227D01*
X377495Y219241D01*
X377419Y219250D01*
X377341Y219256D01*
X377264Y219258D01*
X377575Y221742D02*
X375712Y221742D01*
X377575Y221742D02*
X377645Y221740D01*
X377714Y221734D01*
X377783Y221724D01*
X377851Y221711D01*
X377919Y221693D01*
X377985Y221672D01*
X378050Y221647D01*
X378114Y221619D01*
X378176Y221587D01*
X378236Y221552D01*
X378294Y221513D01*
X378349Y221471D01*
X378403Y221426D01*
X378453Y221378D01*
X378501Y221328D01*
X378546Y221274D01*
X378588Y221219D01*
X378627Y221161D01*
X378662Y221101D01*
X378694Y221039D01*
X378722Y220975D01*
X378747Y220910D01*
X378768Y220844D01*
X378786Y220776D01*
X378799Y220708D01*
X378809Y220639D01*
X378815Y220570D01*
X378817Y220500D01*
X378815Y220430D01*
X378809Y220361D01*
X378799Y220292D01*
X378786Y220224D01*
X378768Y220156D01*
X378747Y220090D01*
X378722Y220025D01*
X378694Y219961D01*
X378662Y219899D01*
X378627Y219839D01*
X378588Y219781D01*
X378546Y219726D01*
X378501Y219672D01*
X378453Y219622D01*
X378403Y219574D01*
X378349Y219529D01*
X378294Y219487D01*
X378236Y219448D01*
X378176Y219413D01*
X378114Y219381D01*
X378050Y219353D01*
X377985Y219328D01*
X377919Y219307D01*
X377851Y219289D01*
X377783Y219276D01*
X377714Y219266D01*
X377645Y219260D01*
X377575Y219258D01*
X376333Y219258D01*
X381199Y220500D02*
X382751Y221742D01*
X382751Y216154D01*
X381199Y216154D02*
X384303Y216154D01*
X386685Y217706D02*
X386687Y217783D01*
X386693Y217861D01*
X386702Y217937D01*
X386716Y218014D01*
X386733Y218089D01*
X386754Y218163D01*
X386779Y218237D01*
X386807Y218309D01*
X386839Y218379D01*
X386874Y218448D01*
X386913Y218515D01*
X386955Y218580D01*
X387000Y218643D01*
X387048Y218704D01*
X387099Y218762D01*
X387153Y218817D01*
X387210Y218870D01*
X387269Y218919D01*
X387331Y218966D01*
X387395Y219010D01*
X387461Y219050D01*
X387529Y219087D01*
X387599Y219121D01*
X387670Y219151D01*
X387743Y219177D01*
X387817Y219200D01*
X387892Y219219D01*
X387967Y219234D01*
X388044Y219246D01*
X388121Y219254D01*
X388198Y219258D01*
X388276Y219258D01*
X388353Y219254D01*
X388430Y219246D01*
X388507Y219234D01*
X388582Y219219D01*
X388657Y219200D01*
X388731Y219177D01*
X388804Y219151D01*
X388875Y219121D01*
X388945Y219087D01*
X389013Y219050D01*
X389079Y219010D01*
X389143Y218966D01*
X389205Y218919D01*
X389264Y218870D01*
X389321Y218817D01*
X389375Y218762D01*
X389426Y218704D01*
X389474Y218643D01*
X389519Y218580D01*
X389561Y218515D01*
X389600Y218448D01*
X389635Y218379D01*
X389667Y218309D01*
X389695Y218237D01*
X389720Y218163D01*
X389741Y218089D01*
X389758Y218014D01*
X389772Y217937D01*
X389781Y217861D01*
X389787Y217783D01*
X389789Y217706D01*
X389787Y217629D01*
X389781Y217551D01*
X389772Y217475D01*
X389758Y217398D01*
X389741Y217323D01*
X389720Y217249D01*
X389695Y217175D01*
X389667Y217103D01*
X389635Y217033D01*
X389600Y216964D01*
X389561Y216897D01*
X389519Y216832D01*
X389474Y216769D01*
X389426Y216708D01*
X389375Y216650D01*
X389321Y216595D01*
X389264Y216542D01*
X389205Y216493D01*
X389143Y216446D01*
X389079Y216402D01*
X389013Y216362D01*
X388945Y216325D01*
X388875Y216291D01*
X388804Y216261D01*
X388731Y216235D01*
X388657Y216212D01*
X388582Y216193D01*
X388507Y216178D01*
X388430Y216166D01*
X388353Y216158D01*
X388276Y216154D01*
X388198Y216154D01*
X388121Y216158D01*
X388044Y216166D01*
X387967Y216178D01*
X387892Y216193D01*
X387817Y216212D01*
X387743Y216235D01*
X387670Y216261D01*
X387599Y216291D01*
X387529Y216325D01*
X387461Y216362D01*
X387395Y216402D01*
X387331Y216446D01*
X387269Y216493D01*
X387210Y216542D01*
X387153Y216595D01*
X387099Y216650D01*
X387048Y216708D01*
X387000Y216769D01*
X386955Y216832D01*
X386913Y216897D01*
X386874Y216964D01*
X386839Y217033D01*
X386807Y217103D01*
X386779Y217175D01*
X386754Y217249D01*
X386733Y217323D01*
X386716Y217398D01*
X386702Y217475D01*
X386693Y217551D01*
X386687Y217629D01*
X386685Y217706D01*
X386995Y220500D02*
X386997Y220570D01*
X387003Y220639D01*
X387013Y220708D01*
X387026Y220776D01*
X387044Y220844D01*
X387065Y220910D01*
X387090Y220975D01*
X387118Y221039D01*
X387150Y221101D01*
X387185Y221161D01*
X387224Y221219D01*
X387266Y221274D01*
X387311Y221328D01*
X387359Y221378D01*
X387409Y221426D01*
X387463Y221471D01*
X387518Y221513D01*
X387576Y221552D01*
X387636Y221587D01*
X387698Y221619D01*
X387762Y221647D01*
X387827Y221672D01*
X387893Y221693D01*
X387961Y221711D01*
X388029Y221724D01*
X388098Y221734D01*
X388167Y221740D01*
X388237Y221742D01*
X388307Y221740D01*
X388376Y221734D01*
X388445Y221724D01*
X388513Y221711D01*
X388581Y221693D01*
X388647Y221672D01*
X388712Y221647D01*
X388776Y221619D01*
X388838Y221587D01*
X388898Y221552D01*
X388956Y221513D01*
X389011Y221471D01*
X389065Y221426D01*
X389115Y221378D01*
X389163Y221328D01*
X389208Y221274D01*
X389250Y221219D01*
X389289Y221161D01*
X389324Y221101D01*
X389356Y221039D01*
X389384Y220975D01*
X389409Y220910D01*
X389430Y220844D01*
X389448Y220776D01*
X389461Y220708D01*
X389471Y220639D01*
X389477Y220570D01*
X389479Y220500D01*
X389477Y220430D01*
X389471Y220361D01*
X389461Y220292D01*
X389448Y220224D01*
X389430Y220156D01*
X389409Y220090D01*
X389384Y220025D01*
X389356Y219961D01*
X389324Y219899D01*
X389289Y219839D01*
X389250Y219781D01*
X389208Y219726D01*
X389163Y219672D01*
X389115Y219622D01*
X389065Y219574D01*
X389011Y219529D01*
X388956Y219487D01*
X388898Y219448D01*
X388838Y219413D01*
X388776Y219381D01*
X388712Y219353D01*
X388647Y219328D01*
X388581Y219307D01*
X388513Y219289D01*
X388445Y219276D01*
X388376Y219266D01*
X388307Y219260D01*
X388237Y219258D01*
X388167Y219260D01*
X388098Y219266D01*
X388029Y219276D01*
X387961Y219289D01*
X387893Y219307D01*
X387827Y219328D01*
X387762Y219353D01*
X387698Y219381D01*
X387636Y219413D01*
X387576Y219448D01*
X387518Y219487D01*
X387463Y219529D01*
X387409Y219574D01*
X387359Y219622D01*
X387311Y219672D01*
X387266Y219726D01*
X387224Y219781D01*
X387185Y219839D01*
X387150Y219899D01*
X387118Y219961D01*
X387090Y220025D01*
X387065Y220090D01*
X387044Y220156D01*
X387026Y220224D01*
X387013Y220292D01*
X387003Y220361D01*
X386997Y220430D01*
X386995Y220500D01*
X392171Y216154D02*
X394034Y216154D01*
X394104Y216156D01*
X394173Y216162D01*
X394242Y216172D01*
X394310Y216185D01*
X394378Y216203D01*
X394444Y216224D01*
X394509Y216249D01*
X394573Y216277D01*
X394635Y216309D01*
X394695Y216344D01*
X394753Y216383D01*
X394808Y216425D01*
X394862Y216470D01*
X394912Y216518D01*
X394960Y216568D01*
X395005Y216622D01*
X395047Y216677D01*
X395086Y216735D01*
X395121Y216795D01*
X395153Y216857D01*
X395181Y216921D01*
X395206Y216986D01*
X395227Y217052D01*
X395245Y217120D01*
X395258Y217188D01*
X395268Y217257D01*
X395274Y217326D01*
X395276Y217396D01*
X395276Y218017D01*
X395274Y218087D01*
X395268Y218156D01*
X395258Y218225D01*
X395245Y218293D01*
X395227Y218361D01*
X395206Y218427D01*
X395181Y218492D01*
X395153Y218556D01*
X395121Y218618D01*
X395086Y218678D01*
X395047Y218736D01*
X395005Y218791D01*
X394960Y218845D01*
X394912Y218895D01*
X394862Y218943D01*
X394808Y218988D01*
X394753Y219030D01*
X394695Y219069D01*
X394635Y219104D01*
X394573Y219136D01*
X394509Y219164D01*
X394444Y219189D01*
X394378Y219210D01*
X394310Y219228D01*
X394242Y219241D01*
X394173Y219251D01*
X394104Y219257D01*
X394034Y219259D01*
X394034Y219258D02*
X392171Y219258D01*
X392171Y221742D01*
X395276Y221742D01*
X397658Y216154D02*
X399520Y216154D01*
X399590Y216156D01*
X399659Y216162D01*
X399728Y216172D01*
X399796Y216185D01*
X399864Y216203D01*
X399930Y216224D01*
X399995Y216249D01*
X400059Y216277D01*
X400121Y216309D01*
X400181Y216344D01*
X400239Y216383D01*
X400294Y216425D01*
X400348Y216470D01*
X400398Y216518D01*
X400446Y216568D01*
X400491Y216622D01*
X400533Y216677D01*
X400572Y216735D01*
X400607Y216795D01*
X400639Y216857D01*
X400667Y216921D01*
X400692Y216986D01*
X400713Y217052D01*
X400731Y217120D01*
X400744Y217188D01*
X400754Y217257D01*
X400760Y217326D01*
X400762Y217396D01*
X400762Y218017D01*
X400760Y218087D01*
X400754Y218156D01*
X400744Y218225D01*
X400731Y218293D01*
X400713Y218361D01*
X400692Y218427D01*
X400667Y218492D01*
X400639Y218556D01*
X400607Y218618D01*
X400572Y218678D01*
X400533Y218736D01*
X400491Y218791D01*
X400446Y218845D01*
X400398Y218895D01*
X400348Y218943D01*
X400294Y218988D01*
X400239Y219030D01*
X400181Y219069D01*
X400121Y219104D01*
X400059Y219136D01*
X399995Y219164D01*
X399930Y219189D01*
X399864Y219210D01*
X399796Y219228D01*
X399728Y219241D01*
X399659Y219251D01*
X399590Y219257D01*
X399520Y219259D01*
X399520Y219258D02*
X397658Y219258D01*
X397658Y221742D01*
X400762Y221742D01*
X403410Y221742D02*
X403410Y216154D01*
X403410Y218327D02*
X406514Y221742D01*
X404652Y219569D02*
X406514Y216154D01*
X408320Y216154D02*
X410183Y221742D01*
X412045Y216154D01*
X411580Y217551D02*
X408786Y217551D01*
X415797Y216154D02*
X415867Y216156D01*
X415936Y216162D01*
X416005Y216172D01*
X416073Y216185D01*
X416141Y216203D01*
X416207Y216224D01*
X416272Y216249D01*
X416336Y216277D01*
X416398Y216309D01*
X416458Y216344D01*
X416516Y216383D01*
X416571Y216425D01*
X416625Y216470D01*
X416675Y216518D01*
X416723Y216568D01*
X416768Y216622D01*
X416810Y216677D01*
X416849Y216735D01*
X416884Y216795D01*
X416916Y216857D01*
X416944Y216921D01*
X416969Y216986D01*
X416990Y217052D01*
X417008Y217120D01*
X417021Y217188D01*
X417031Y217257D01*
X417037Y217326D01*
X417039Y217396D01*
X415797Y216154D02*
X415698Y216156D01*
X415600Y216161D01*
X415502Y216171D01*
X415404Y216184D01*
X415307Y216200D01*
X415210Y216220D01*
X415115Y216244D01*
X415020Y216272D01*
X414926Y216303D01*
X414834Y216337D01*
X414743Y216375D01*
X414653Y216416D01*
X414565Y216461D01*
X414479Y216509D01*
X414395Y216560D01*
X414313Y216614D01*
X414232Y216672D01*
X414154Y216732D01*
X414079Y216795D01*
X414005Y216861D01*
X413935Y216930D01*
X414089Y220500D02*
X414091Y220570D01*
X414097Y220639D01*
X414107Y220708D01*
X414120Y220776D01*
X414138Y220844D01*
X414159Y220910D01*
X414184Y220975D01*
X414212Y221039D01*
X414244Y221101D01*
X414279Y221161D01*
X414318Y221219D01*
X414360Y221274D01*
X414405Y221328D01*
X414453Y221378D01*
X414503Y221426D01*
X414557Y221471D01*
X414612Y221513D01*
X414670Y221552D01*
X414730Y221587D01*
X414792Y221619D01*
X414856Y221647D01*
X414921Y221672D01*
X414987Y221693D01*
X415055Y221711D01*
X415123Y221724D01*
X415192Y221734D01*
X415261Y221740D01*
X415331Y221742D01*
X415425Y221740D01*
X415518Y221734D01*
X415611Y221725D01*
X415704Y221712D01*
X415796Y221695D01*
X415887Y221675D01*
X415978Y221650D01*
X416067Y221623D01*
X416155Y221591D01*
X416242Y221556D01*
X416328Y221518D01*
X416411Y221476D01*
X416493Y221431D01*
X416574Y221383D01*
X416652Y221331D01*
X416728Y221276D01*
X414710Y219414D02*
X414651Y219450D01*
X414595Y219490D01*
X414541Y219533D01*
X414489Y219578D01*
X414440Y219627D01*
X414394Y219678D01*
X414351Y219731D01*
X414310Y219787D01*
X414273Y219845D01*
X414238Y219905D01*
X414208Y219966D01*
X414180Y220029D01*
X414156Y220094D01*
X414136Y220160D01*
X414119Y220227D01*
X414106Y220294D01*
X414097Y220362D01*
X414091Y220431D01*
X414089Y220500D01*
X416417Y218482D02*
X416476Y218446D01*
X416532Y218406D01*
X416586Y218363D01*
X416638Y218318D01*
X416687Y218269D01*
X416733Y218218D01*
X416776Y218165D01*
X416817Y218109D01*
X416854Y218051D01*
X416889Y217991D01*
X416919Y217930D01*
X416947Y217867D01*
X416971Y217802D01*
X416991Y217736D01*
X417008Y217669D01*
X417021Y217602D01*
X417030Y217534D01*
X417036Y217465D01*
X417038Y217396D01*
X416417Y218482D02*
X414710Y219414D01*
X418927Y216154D02*
X420790Y221742D01*
X422652Y216154D01*
X422187Y217551D02*
X419393Y217551D01*
X424779Y218327D02*
X428504Y218327D01*
X426642Y216464D02*
X426642Y220190D01*
X432128Y221742D02*
X432128Y216154D01*
X430576Y221742D02*
X433680Y221742D01*
D21*
X380789Y73800D02*
X279189Y73800D01*
X279189Y89821D02*
X279189Y94745D01*
X279189Y85170D02*
X279189Y83021D01*
X279189Y81030D01*
X279189Y85170D02*
X279189Y89821D01*
X279189Y134713D02*
X279189Y139543D01*
X279189Y134713D02*
X279189Y94745D01*
X380789Y94745D02*
X380789Y89821D01*
X380789Y83021D01*
X380789Y94745D02*
X380789Y134713D01*
X380789Y139543D01*
X380789Y154800D01*
X279189Y81030D02*
X279189Y76800D01*
X380789Y76800D02*
X380789Y83021D01*
X380789Y154800D02*
X279189Y154800D01*
X279189Y139543D01*
X279189Y76800D02*
X279189Y73800D01*
X380789Y73800D02*
X380789Y76800D01*
D10*
X316217Y164338D02*
X324006Y176022D01*
X316217Y176022D02*
X324006Y164338D01*
X328296Y173426D02*
X331542Y176022D01*
X331542Y164338D01*
X334787Y164338D02*
X328296Y164338D01*
M02*
