G04 EAGLE Gerber RS-274X export*
G75*
%MOMM*%
%FSLAX34Y34*%
%LPD*%
%INSolderpaste Top*%
%IPPOS*%
%AMOC8*
5,1,8,0,0,1.08239X$1,22.5*%
G01*
%ADD10R,1.300000X1.500000*%
%ADD11R,1.500000X1.300000*%
%ADD12R,1.600000X1.400000*%
%ADD13C,0.304800*%


D10*
X323240Y317500D03*
X342240Y317500D03*
D11*
X261620Y634340D03*
X261620Y615340D03*
X345440Y621640D03*
X345440Y602640D03*
X332740Y405740D03*
X332740Y386740D03*
X332740Y476860D03*
X332740Y457860D03*
D12*
X582840Y485500D03*
X666840Y485500D03*
X666840Y508000D03*
X666840Y530500D03*
X582840Y530500D03*
X572680Y599800D03*
X656680Y599800D03*
X656680Y622300D03*
X656680Y644800D03*
X572680Y644800D03*
D13*
X369443Y277876D02*
X356997Y277876D01*
X356997Y280924D01*
X369443Y280924D01*
X369443Y277876D01*
X369443Y280772D02*
X356997Y280772D01*
X356997Y265176D02*
X369443Y265176D01*
X356997Y265176D02*
X356997Y268224D01*
X369443Y268224D01*
X369443Y265176D01*
X369443Y268072D02*
X356997Y268072D01*
X356997Y252476D02*
X369443Y252476D01*
X356997Y252476D02*
X356997Y255524D01*
X369443Y255524D01*
X369443Y252476D01*
X369443Y255372D02*
X356997Y255372D01*
X356997Y239776D02*
X369443Y239776D01*
X356997Y239776D02*
X356997Y242824D01*
X369443Y242824D01*
X369443Y239776D01*
X369443Y242672D02*
X356997Y242672D01*
X410845Y239776D02*
X423291Y239776D01*
X410845Y239776D02*
X410845Y242824D01*
X423291Y242824D01*
X423291Y239776D01*
X423291Y242672D02*
X410845Y242672D01*
X410845Y252476D02*
X423291Y252476D01*
X410845Y252476D02*
X410845Y255524D01*
X423291Y255524D01*
X423291Y252476D01*
X423291Y255372D02*
X410845Y255372D01*
X410845Y265176D02*
X423291Y265176D01*
X410845Y265176D02*
X410845Y268224D01*
X423291Y268224D01*
X423291Y265176D01*
X423291Y268072D02*
X410845Y268072D01*
X410845Y280924D02*
X423291Y280924D01*
X423291Y277876D01*
X410845Y277876D01*
X410845Y280924D01*
X410845Y280772D02*
X423291Y280772D01*
M02*
