M48
;GenerationSoftware,Autodesk,EAGLE,9.6.2*%
;CreationDate,2022-11-17T03:38:27Z*%
FMAT,2
ICI,OFF
METRIC,TZ,000.000
T6C0.350
T5C0.813
T4C1.016
T3C1.100
T2C1.300
T1C3.175
%
G90
M71
T1
X70560Y70350
X22300Y71620
X55320Y19550
T2
X35539Y11455
X30459Y11455
T3
X22300Y32250
X75640Y29685
X78180Y29685
X75640Y27145
X78180Y27145
X75640Y24605
X78180Y24605
X75640Y22065
X78180Y22065
X75640Y37305
X22300Y34790
X14680Y65270
X22300Y29710
X22300Y27170
X22300Y24630
X22300Y22090
X22300Y57650
X22300Y55110
X22300Y52570
X22300Y50030
X22300Y47490
X22300Y44950
X22300Y42410
X22300Y39870
X14680Y67810
X17220Y67810
X17220Y65270
X14680Y62730
X17220Y62730
X14680Y60190
X17220Y60190
X14680Y57650
X17220Y57650
X14680Y55110
X17220Y55110
X14680Y52570
X17220Y52570
X14680Y50030
X17220Y50030
X14680Y47490
X17220Y47490
X14680Y44950
X17220Y44950
X14680Y42410
X17220Y42410
X14680Y39870
X17220Y39870
X14680Y37330
X17220Y37330
X14680Y34790
X17220Y34790
X14680Y32250
X17220Y32250
X14680Y29710
X17220Y29710
X14680Y27170
X17220Y27170
X14680Y24630
X17220Y24630
X14680Y22090
X17220Y22090
X70560Y43934
X70560Y46474
X70560Y49014
X70560Y51554
X70560Y54094
X70560Y56634
X70560Y59174
X70560Y61714
X70560Y64254
X70560Y66794
X70560Y27170
X70560Y29710
X70560Y32250
X70560Y34790
X70560Y37330
X70560Y39870
X70560Y22090
X70560Y24630
X75640Y67785
X78180Y67785
X75640Y65245
X78180Y65245
X75640Y62705
X78180Y62705
X75640Y60165
X78180Y60165
X75640Y57625
X75640Y55085
X78180Y55085
X75640Y52545
X78180Y52545
X75640Y50005
X78180Y50005
X75640Y47465
X78180Y47465
X75640Y44925
X78180Y44925
X75640Y42385
X78180Y42385
X75640Y39845
X78180Y39845
X78180Y57625
X78180Y37305
X75640Y34765
X78180Y34765
X75640Y32225
X78180Y32225
T4
X60960Y11430
T5
X26162Y66548
X28702Y66548
X34544Y66294
X37084Y66294
T6
X68072Y50800
X55626Y64516
X67056Y62230
X34544Y27940
X36068Y31750
X58166Y54610
M30