G04 EAGLE Gerber RS-274X export*
G75*
%MOMM*%
%FSLAX34Y34*%
%LPD*%
%INBottom Copper*%
%IPPOS*%
%AMOC8*
5,1,8,0,0,1.08239X$1,22.5*%
G01*
%ADD10C,2.000000*%
%ADD11R,1.850000X1.850000*%
%ADD12C,1.850000*%
%ADD13C,1.606000*%
%ADD14C,2.802500*%
%ADD15C,0.452400*%
%ADD16C,0.254000*%

G36*
X837798Y121384D02*
X837798Y121384D01*
X837817Y121382D01*
X837919Y121404D01*
X838021Y121420D01*
X838038Y121430D01*
X838058Y121434D01*
X838147Y121487D01*
X838238Y121536D01*
X838252Y121550D01*
X838269Y121560D01*
X838336Y121639D01*
X838408Y121714D01*
X838416Y121732D01*
X838429Y121747D01*
X838468Y121843D01*
X838511Y121937D01*
X838513Y121957D01*
X838521Y121975D01*
X838539Y122142D01*
X838539Y707678D01*
X838536Y707698D01*
X838538Y707717D01*
X838516Y707819D01*
X838500Y707921D01*
X838490Y707938D01*
X838486Y707958D01*
X838433Y708047D01*
X838384Y708138D01*
X838370Y708152D01*
X838360Y708169D01*
X838281Y708236D01*
X838206Y708308D01*
X838188Y708316D01*
X838173Y708329D01*
X838077Y708368D01*
X837983Y708411D01*
X837963Y708413D01*
X837945Y708421D01*
X837778Y708439D01*
X142462Y708439D01*
X142442Y708436D01*
X142423Y708438D01*
X142321Y708416D01*
X142219Y708400D01*
X142202Y708390D01*
X142182Y708386D01*
X142093Y708333D01*
X142002Y708284D01*
X141988Y708270D01*
X141971Y708260D01*
X141904Y708181D01*
X141832Y708106D01*
X141824Y708088D01*
X141811Y708073D01*
X141772Y707977D01*
X141729Y707883D01*
X141727Y707863D01*
X141719Y707845D01*
X141701Y707678D01*
X141701Y122142D01*
X141704Y122122D01*
X141702Y122103D01*
X141724Y122001D01*
X141740Y121899D01*
X141750Y121882D01*
X141754Y121862D01*
X141807Y121773D01*
X141856Y121682D01*
X141870Y121668D01*
X141880Y121651D01*
X141959Y121584D01*
X142034Y121512D01*
X142052Y121504D01*
X142067Y121491D01*
X142163Y121452D01*
X142257Y121409D01*
X142277Y121407D01*
X142295Y121399D01*
X142462Y121381D01*
X837778Y121381D01*
X837798Y121384D01*
G37*
%LPC*%
G36*
X695437Y251967D02*
X695437Y251967D01*
X693367Y254037D01*
X693367Y256963D01*
X694136Y257732D01*
X694189Y257806D01*
X694249Y257876D01*
X694261Y257906D01*
X694280Y257932D01*
X694307Y258019D01*
X694341Y258104D01*
X694345Y258145D01*
X694352Y258167D01*
X694351Y258199D01*
X694359Y258271D01*
X694359Y317822D01*
X694345Y317912D01*
X694337Y318003D01*
X694325Y318033D01*
X694320Y318065D01*
X694277Y318146D01*
X694241Y318230D01*
X694215Y318262D01*
X694204Y318282D01*
X694181Y318305D01*
X694136Y318361D01*
X609871Y402626D01*
X609797Y402679D01*
X609727Y402739D01*
X609697Y402751D01*
X609671Y402770D01*
X609584Y402797D01*
X609499Y402831D01*
X609458Y402835D01*
X609436Y402842D01*
X609404Y402841D01*
X609332Y402849D01*
X379161Y402849D01*
X379071Y402835D01*
X378980Y402827D01*
X378950Y402815D01*
X378918Y402810D01*
X378837Y402767D01*
X378753Y402731D01*
X378721Y402705D01*
X378701Y402694D01*
X378678Y402671D01*
X378622Y402626D01*
X377853Y401857D01*
X374927Y401857D01*
X372857Y403927D01*
X372857Y406853D01*
X374927Y408923D01*
X377853Y408923D01*
X378622Y408154D01*
X378696Y408101D01*
X378766Y408041D01*
X378796Y408029D01*
X378822Y408010D01*
X378909Y407983D01*
X378994Y407949D01*
X379035Y407945D01*
X379057Y407938D01*
X379089Y407939D01*
X379161Y407931D01*
X611752Y407931D01*
X699441Y320242D01*
X699441Y258271D01*
X699455Y258181D01*
X699463Y258090D01*
X699475Y258060D01*
X699480Y258028D01*
X699523Y257947D01*
X699559Y257863D01*
X699585Y257831D01*
X699596Y257811D01*
X699619Y257788D01*
X699664Y257732D01*
X700433Y256963D01*
X700433Y254037D01*
X698363Y251967D01*
X695437Y251967D01*
G37*
%LPD*%
%LPC*%
G36*
X676717Y179347D02*
X676717Y179347D01*
X675948Y180116D01*
X675874Y180169D01*
X675804Y180229D01*
X675774Y180241D01*
X675748Y180260D01*
X675661Y180287D01*
X675576Y180321D01*
X675535Y180325D01*
X675513Y180332D01*
X675481Y180331D01*
X675409Y180339D01*
X517108Y180339D01*
X513079Y184368D01*
X513079Y316132D01*
X513065Y316222D01*
X513057Y316313D01*
X513045Y316343D01*
X513040Y316375D01*
X512997Y316456D01*
X512961Y316540D01*
X512935Y316572D01*
X512924Y316592D01*
X512901Y316615D01*
X512856Y316671D01*
X449743Y379784D01*
X449669Y379837D01*
X449599Y379897D01*
X449569Y379909D01*
X449543Y379928D01*
X449456Y379955D01*
X449371Y379989D01*
X449330Y379993D01*
X449308Y380000D01*
X449276Y379999D01*
X449204Y380007D01*
X448117Y380007D01*
X446047Y382077D01*
X446047Y385003D01*
X448117Y387073D01*
X451043Y387073D01*
X453113Y385003D01*
X453113Y383916D01*
X453127Y383826D01*
X453135Y383735D01*
X453147Y383705D01*
X453152Y383673D01*
X453195Y383592D01*
X453231Y383508D01*
X453257Y383476D01*
X453268Y383456D01*
X453291Y383433D01*
X453336Y383377D01*
X518161Y318552D01*
X518161Y186788D01*
X518175Y186698D01*
X518183Y186607D01*
X518195Y186577D01*
X518200Y186545D01*
X518243Y186464D01*
X518279Y186380D01*
X518305Y186348D01*
X518316Y186328D01*
X518339Y186305D01*
X518384Y186249D01*
X518989Y185644D01*
X519063Y185591D01*
X519133Y185531D01*
X519163Y185519D01*
X519189Y185500D01*
X519276Y185473D01*
X519361Y185439D01*
X519402Y185435D01*
X519424Y185428D01*
X519456Y185429D01*
X519528Y185421D01*
X675409Y185421D01*
X675499Y185435D01*
X675590Y185443D01*
X675620Y185455D01*
X675652Y185460D01*
X675733Y185503D01*
X675817Y185539D01*
X675849Y185565D01*
X675869Y185576D01*
X675892Y185599D01*
X675948Y185644D01*
X676717Y186413D01*
X679643Y186413D01*
X681713Y184343D01*
X681713Y181417D01*
X679643Y179347D01*
X676717Y179347D01*
G37*
%LPD*%
%LPC*%
G36*
X244844Y647524D02*
X244844Y647524D01*
X238274Y650246D01*
X233246Y655274D01*
X230524Y661844D01*
X230524Y668956D01*
X233246Y675526D01*
X238274Y680554D01*
X244844Y683276D01*
X251956Y683276D01*
X258526Y680554D01*
X263554Y675526D01*
X266276Y668956D01*
X266276Y661844D01*
X263554Y655274D01*
X258526Y650246D01*
X251956Y647524D01*
X244844Y647524D01*
G37*
%LPD*%
%LPC*%
G36*
X727444Y634824D02*
X727444Y634824D01*
X720874Y637546D01*
X715846Y642574D01*
X713124Y649144D01*
X713124Y656256D01*
X715846Y662826D01*
X720874Y667854D01*
X727444Y670576D01*
X734556Y670576D01*
X741126Y667854D01*
X746154Y662826D01*
X748876Y656256D01*
X748876Y649144D01*
X746154Y642574D01*
X741126Y637546D01*
X734556Y634824D01*
X727444Y634824D01*
G37*
%LPD*%
%LPC*%
G36*
X575044Y126824D02*
X575044Y126824D01*
X568474Y129546D01*
X563446Y134574D01*
X560724Y141144D01*
X560724Y148256D01*
X563446Y154826D01*
X568474Y159854D01*
X575044Y162576D01*
X582156Y162576D01*
X588726Y159854D01*
X593754Y154826D01*
X596476Y148256D01*
X596476Y141144D01*
X593754Y134574D01*
X588726Y129546D01*
X582156Y126824D01*
X575044Y126824D01*
G37*
%LPD*%
%LPC*%
G36*
X693417Y371027D02*
X693417Y371027D01*
X691347Y373097D01*
X691347Y373284D01*
X691333Y373374D01*
X691325Y373465D01*
X691313Y373495D01*
X691308Y373527D01*
X691265Y373608D01*
X691229Y373692D01*
X691203Y373724D01*
X691192Y373744D01*
X691169Y373767D01*
X691124Y373823D01*
X689649Y375298D01*
X689649Y533919D01*
X689635Y534009D01*
X689627Y534100D01*
X689615Y534130D01*
X689610Y534162D01*
X689567Y534243D01*
X689531Y534327D01*
X689505Y534359D01*
X689494Y534379D01*
X689471Y534402D01*
X689426Y534458D01*
X688657Y535227D01*
X688657Y538153D01*
X690727Y540223D01*
X693653Y540223D01*
X695723Y538153D01*
X695723Y535227D01*
X694954Y534458D01*
X694901Y534384D01*
X694841Y534314D01*
X694829Y534284D01*
X694810Y534258D01*
X694783Y534171D01*
X694749Y534086D01*
X694745Y534045D01*
X694738Y534023D01*
X694739Y533991D01*
X694731Y533919D01*
X694731Y378854D01*
X694734Y378834D01*
X694732Y378815D01*
X694754Y378713D01*
X694770Y378611D01*
X694780Y378594D01*
X694784Y378574D01*
X694837Y378485D01*
X694886Y378394D01*
X694900Y378380D01*
X694910Y378363D01*
X694989Y378296D01*
X695064Y378224D01*
X695082Y378216D01*
X695097Y378203D01*
X695193Y378164D01*
X695287Y378121D01*
X695307Y378119D01*
X695325Y378111D01*
X695492Y378093D01*
X696343Y378093D01*
X698413Y376023D01*
X698413Y373097D01*
X696343Y371027D01*
X693417Y371027D01*
G37*
%LPD*%
%LPC*%
G36*
X283017Y321587D02*
X283017Y321587D01*
X280947Y323657D01*
X280947Y326583D01*
X281716Y327352D01*
X281769Y327426D01*
X281829Y327496D01*
X281841Y327526D01*
X281860Y327552D01*
X281887Y327639D01*
X281921Y327724D01*
X281925Y327765D01*
X281932Y327787D01*
X281931Y327819D01*
X281939Y327891D01*
X281939Y374432D01*
X329148Y421641D01*
X375689Y421641D01*
X375779Y421655D01*
X375870Y421663D01*
X375900Y421675D01*
X375932Y421680D01*
X376013Y421723D01*
X376097Y421759D01*
X376129Y421785D01*
X376149Y421796D01*
X376172Y421819D01*
X376228Y421864D01*
X376997Y422633D01*
X379923Y422633D01*
X381993Y420563D01*
X381993Y417637D01*
X379923Y415567D01*
X376997Y415567D01*
X376228Y416336D01*
X376154Y416389D01*
X376084Y416449D01*
X376054Y416461D01*
X376028Y416480D01*
X375941Y416507D01*
X375856Y416541D01*
X375815Y416545D01*
X375793Y416552D01*
X375761Y416551D01*
X375689Y416559D01*
X331568Y416559D01*
X331478Y416545D01*
X331387Y416537D01*
X331357Y416525D01*
X331325Y416520D01*
X331244Y416477D01*
X331160Y416441D01*
X331128Y416415D01*
X331108Y416404D01*
X331085Y416381D01*
X331029Y416336D01*
X287244Y372551D01*
X287191Y372477D01*
X287131Y372407D01*
X287119Y372377D01*
X287100Y372351D01*
X287073Y372264D01*
X287039Y372179D01*
X287035Y372138D01*
X287028Y372116D01*
X287029Y372084D01*
X287021Y372012D01*
X287021Y327891D01*
X287035Y327801D01*
X287043Y327710D01*
X287055Y327680D01*
X287060Y327648D01*
X287103Y327567D01*
X287139Y327483D01*
X287165Y327451D01*
X287176Y327431D01*
X287199Y327408D01*
X287244Y327352D01*
X288013Y326583D01*
X288013Y323657D01*
X285943Y321587D01*
X283017Y321587D01*
G37*
%LPD*%
%LPC*%
G36*
X619260Y210617D02*
X619260Y210617D01*
X613643Y212944D01*
X609344Y217243D01*
X607017Y222860D01*
X607017Y228940D01*
X609344Y234557D01*
X613643Y238856D01*
X619260Y241183D01*
X625340Y241183D01*
X630957Y238856D01*
X635256Y234557D01*
X637583Y228940D01*
X637583Y222860D01*
X635256Y217243D01*
X630957Y212944D01*
X625340Y210617D01*
X619260Y210617D01*
G37*
%LPD*%
%LPC*%
G36*
X619260Y317617D02*
X619260Y317617D01*
X613643Y319944D01*
X609344Y324243D01*
X607017Y329860D01*
X607017Y335940D01*
X609344Y341557D01*
X613643Y345856D01*
X619260Y348183D01*
X625340Y348183D01*
X630957Y345856D01*
X635256Y341557D01*
X637583Y335940D01*
X637583Y329860D01*
X635256Y324243D01*
X630957Y319944D01*
X625340Y317617D01*
X619260Y317617D01*
G37*
%LPD*%
%LPC*%
G36*
X329984Y211217D02*
X329984Y211217D01*
X327914Y213287D01*
X327914Y216213D01*
X329984Y218283D01*
X332910Y218283D01*
X333679Y217514D01*
X333753Y217461D01*
X333823Y217401D01*
X333853Y217389D01*
X333879Y217370D01*
X333966Y217343D01*
X334051Y217309D01*
X334092Y217305D01*
X334114Y217298D01*
X334146Y217299D01*
X334218Y217291D01*
X456724Y217291D01*
X456814Y217305D01*
X456905Y217313D01*
X456935Y217325D01*
X456967Y217330D01*
X457048Y217373D01*
X457132Y217409D01*
X457164Y217435D01*
X457184Y217446D01*
X457191Y217453D01*
X457192Y217453D01*
X457208Y217470D01*
X457263Y217514D01*
X457777Y218028D01*
X457830Y218102D01*
X457890Y218172D01*
X457902Y218202D01*
X457921Y218228D01*
X457948Y218315D01*
X457982Y218400D01*
X457986Y218441D01*
X457993Y218463D01*
X457992Y218495D01*
X458000Y218567D01*
X458000Y219654D01*
X460070Y221724D01*
X462996Y221724D01*
X465066Y219654D01*
X465066Y216728D01*
X462996Y214658D01*
X461909Y214658D01*
X461819Y214644D01*
X461728Y214636D01*
X461698Y214624D01*
X461666Y214619D01*
X461585Y214576D01*
X461501Y214540D01*
X461469Y214514D01*
X461449Y214503D01*
X461426Y214480D01*
X461370Y214435D01*
X459144Y212209D01*
X334218Y212209D01*
X334128Y212195D01*
X334037Y212187D01*
X334007Y212175D01*
X333975Y212170D01*
X333894Y212127D01*
X333810Y212091D01*
X333778Y212065D01*
X333758Y212054D01*
X333735Y212031D01*
X333679Y211986D01*
X332910Y211217D01*
X329984Y211217D01*
G37*
%LPD*%
%LPC*%
G36*
X432877Y354607D02*
X432877Y354607D01*
X432108Y355376D01*
X432034Y355429D01*
X431964Y355489D01*
X431934Y355501D01*
X431908Y355520D01*
X431821Y355547D01*
X431736Y355581D01*
X431695Y355585D01*
X431673Y355592D01*
X431641Y355591D01*
X431569Y355599D01*
X359628Y355599D01*
X357916Y357310D01*
X357916Y357311D01*
X353223Y362004D01*
X353149Y362057D01*
X353079Y362117D01*
X353049Y362129D01*
X353023Y362148D01*
X352936Y362175D01*
X352851Y362209D01*
X352810Y362213D01*
X352788Y362220D01*
X352756Y362219D01*
X352684Y362227D01*
X351597Y362227D01*
X349527Y364297D01*
X349527Y367223D01*
X351597Y369293D01*
X354523Y369293D01*
X356593Y367223D01*
X356593Y366136D01*
X356608Y366045D01*
X356615Y365955D01*
X356627Y365925D01*
X356632Y365893D01*
X356675Y365812D01*
X356711Y365728D01*
X356737Y365696D01*
X356748Y365676D01*
X356771Y365653D01*
X356816Y365597D01*
X361509Y360904D01*
X361583Y360851D01*
X361653Y360791D01*
X361683Y360779D01*
X361709Y360760D01*
X361796Y360733D01*
X361881Y360699D01*
X361922Y360695D01*
X361944Y360688D01*
X361976Y360689D01*
X362048Y360681D01*
X431569Y360681D01*
X431659Y360695D01*
X431750Y360703D01*
X431780Y360715D01*
X431812Y360720D01*
X431893Y360763D01*
X431977Y360799D01*
X432009Y360825D01*
X432029Y360836D01*
X432052Y360859D01*
X432108Y360904D01*
X432877Y361673D01*
X435803Y361673D01*
X437873Y359603D01*
X437873Y356677D01*
X435803Y354607D01*
X432877Y354607D01*
G37*
%LPD*%
%LPC*%
G36*
X162424Y616779D02*
X162424Y616779D01*
X161679Y617524D01*
X161679Y637076D01*
X162424Y637821D01*
X181976Y637821D01*
X182721Y637076D01*
X182721Y617524D01*
X181976Y616779D01*
X162424Y616779D01*
G37*
%LPD*%
%LPC*%
G36*
X772024Y616529D02*
X772024Y616529D01*
X771279Y617274D01*
X771279Y636826D01*
X772024Y637571D01*
X791576Y637571D01*
X792321Y636826D01*
X792321Y617274D01*
X791576Y616529D01*
X772024Y616529D01*
G37*
%LPD*%
%LPC*%
G36*
X721224Y378019D02*
X721224Y378019D01*
X720479Y378764D01*
X720479Y398316D01*
X721224Y399061D01*
X740776Y399061D01*
X741521Y398316D01*
X741521Y378764D01*
X740776Y378019D01*
X721224Y378019D01*
G37*
%LPD*%
%LPC*%
G36*
X238624Y286579D02*
X238624Y286579D01*
X237879Y287324D01*
X237879Y306876D01*
X238624Y307621D01*
X258176Y307621D01*
X258921Y306876D01*
X258921Y287324D01*
X258176Y286579D01*
X238624Y286579D01*
G37*
%LPD*%
%LPC*%
G36*
X721224Y159579D02*
X721224Y159579D01*
X720479Y160324D01*
X720479Y179876D01*
X721224Y180621D01*
X740776Y180621D01*
X741521Y179876D01*
X741521Y160324D01*
X740776Y159579D01*
X721224Y159579D01*
G37*
%LPD*%
%LPC*%
G36*
X238624Y515179D02*
X238624Y515179D01*
X237879Y515924D01*
X237879Y535476D01*
X238624Y536221D01*
X258176Y536221D01*
X258921Y535476D01*
X258921Y515924D01*
X258176Y515179D01*
X238624Y515179D01*
G37*
%LPD*%
%LPC*%
G36*
X365847Y178151D02*
X365847Y178151D01*
X361705Y179867D01*
X358534Y183038D01*
X356818Y187180D01*
X356818Y191664D01*
X358534Y195806D01*
X361705Y198977D01*
X365847Y200693D01*
X370331Y200693D01*
X374473Y198977D01*
X377644Y195806D01*
X379360Y191664D01*
X379360Y187180D01*
X377644Y183038D01*
X374473Y179867D01*
X370331Y178151D01*
X365847Y178151D01*
G37*
%LPD*%
%LPC*%
G36*
X416647Y178151D02*
X416647Y178151D01*
X412505Y179867D01*
X409334Y183038D01*
X407618Y187180D01*
X407618Y191664D01*
X409334Y195806D01*
X412505Y198977D01*
X416647Y200693D01*
X421131Y200693D01*
X425273Y198977D01*
X428444Y195806D01*
X430160Y191664D01*
X430160Y187180D01*
X428444Y183038D01*
X425273Y179867D01*
X421131Y178151D01*
X416647Y178151D01*
G37*
%LPD*%
%LPC*%
G36*
X195507Y616779D02*
X195507Y616779D01*
X191640Y618381D01*
X188681Y621340D01*
X187079Y625207D01*
X187079Y629393D01*
X188681Y633260D01*
X191640Y636219D01*
X195507Y637821D01*
X199693Y637821D01*
X203560Y636219D01*
X206519Y633260D01*
X208121Y629393D01*
X208121Y625207D01*
X206519Y621340D01*
X203560Y618381D01*
X199693Y616779D01*
X195507Y616779D01*
G37*
%LPD*%
%LPC*%
G36*
X805107Y616529D02*
X805107Y616529D01*
X801240Y618131D01*
X798281Y621091D01*
X796679Y624957D01*
X796679Y629143D01*
X798281Y633010D01*
X801240Y635969D01*
X805107Y637571D01*
X809293Y637571D01*
X813160Y635969D01*
X816119Y633010D01*
X817721Y629143D01*
X817721Y624957D01*
X816119Y621091D01*
X813160Y618131D01*
X809293Y616529D01*
X805107Y616529D01*
G37*
%LPD*%
%LPC*%
G36*
X728907Y606619D02*
X728907Y606619D01*
X725040Y608221D01*
X722081Y611180D01*
X720479Y615047D01*
X720479Y619233D01*
X722081Y623100D01*
X725040Y626059D01*
X728907Y627661D01*
X733093Y627661D01*
X736960Y626059D01*
X739919Y623100D01*
X741521Y619233D01*
X741521Y615047D01*
X739919Y611180D01*
X736960Y608221D01*
X733093Y606619D01*
X728907Y606619D01*
G37*
%LPD*%
%LPC*%
G36*
X195507Y591379D02*
X195507Y591379D01*
X191640Y592981D01*
X188681Y595940D01*
X187079Y599807D01*
X187079Y603993D01*
X188681Y607860D01*
X191640Y610819D01*
X195507Y612421D01*
X199693Y612421D01*
X203560Y610819D01*
X206519Y607860D01*
X208121Y603993D01*
X208121Y599807D01*
X206519Y595940D01*
X203560Y592981D01*
X199693Y591379D01*
X195507Y591379D01*
G37*
%LPD*%
%LPC*%
G36*
X170107Y591379D02*
X170107Y591379D01*
X166240Y592981D01*
X163281Y595940D01*
X161679Y599807D01*
X161679Y603993D01*
X163281Y607860D01*
X166240Y610819D01*
X170107Y612421D01*
X174293Y612421D01*
X178160Y610819D01*
X181119Y607860D01*
X182721Y603993D01*
X182721Y599807D01*
X181119Y595940D01*
X178160Y592981D01*
X174293Y591379D01*
X170107Y591379D01*
G37*
%LPD*%
%LPC*%
G36*
X805107Y591129D02*
X805107Y591129D01*
X801240Y592731D01*
X798281Y595691D01*
X796679Y599557D01*
X796679Y603743D01*
X798281Y607610D01*
X801240Y610569D01*
X805107Y612171D01*
X809293Y612171D01*
X813160Y610569D01*
X816119Y607610D01*
X817721Y603743D01*
X817721Y599557D01*
X816119Y595691D01*
X813160Y592731D01*
X809293Y591129D01*
X805107Y591129D01*
G37*
%LPD*%
%LPC*%
G36*
X779707Y591129D02*
X779707Y591129D01*
X775840Y592731D01*
X772881Y595691D01*
X771279Y599557D01*
X771279Y603743D01*
X772881Y607610D01*
X775840Y610569D01*
X779707Y612171D01*
X783893Y612171D01*
X787760Y610569D01*
X790719Y607610D01*
X792321Y603743D01*
X792321Y599557D01*
X790719Y595691D01*
X787760Y592731D01*
X783893Y591129D01*
X779707Y591129D01*
G37*
%LPD*%
%LPC*%
G36*
X728907Y581219D02*
X728907Y581219D01*
X725040Y582821D01*
X722081Y585780D01*
X720479Y589647D01*
X720479Y593833D01*
X722081Y597700D01*
X725040Y600659D01*
X728907Y602261D01*
X733093Y602261D01*
X736960Y600659D01*
X739919Y597700D01*
X741521Y593833D01*
X741521Y589647D01*
X739919Y585780D01*
X736960Y582821D01*
X733093Y581219D01*
X728907Y581219D01*
G37*
%LPD*%
%LPC*%
G36*
X195507Y565979D02*
X195507Y565979D01*
X191640Y567581D01*
X188681Y570540D01*
X187079Y574407D01*
X187079Y578593D01*
X188681Y582460D01*
X191640Y585419D01*
X195507Y587021D01*
X199693Y587021D01*
X203560Y585419D01*
X206519Y582460D01*
X208121Y578593D01*
X208121Y574407D01*
X206519Y570540D01*
X203560Y567581D01*
X199693Y565979D01*
X195507Y565979D01*
G37*
%LPD*%
%LPC*%
G36*
X170107Y565979D02*
X170107Y565979D01*
X166240Y567581D01*
X163281Y570540D01*
X161679Y574407D01*
X161679Y578593D01*
X163281Y582460D01*
X166240Y585419D01*
X170107Y587021D01*
X174293Y587021D01*
X178160Y585419D01*
X181119Y582460D01*
X182721Y578593D01*
X182721Y574407D01*
X181119Y570540D01*
X178160Y567581D01*
X174293Y565979D01*
X170107Y565979D01*
G37*
%LPD*%
%LPC*%
G36*
X805107Y565729D02*
X805107Y565729D01*
X801240Y567331D01*
X798281Y570291D01*
X796679Y574157D01*
X796679Y578343D01*
X798281Y582210D01*
X801240Y585169D01*
X805107Y586771D01*
X809293Y586771D01*
X813160Y585169D01*
X816119Y582210D01*
X817721Y578343D01*
X817721Y574157D01*
X816119Y570291D01*
X813160Y567331D01*
X809293Y565729D01*
X805107Y565729D01*
G37*
%LPD*%
%LPC*%
G36*
X779707Y565729D02*
X779707Y565729D01*
X775840Y567331D01*
X772881Y570291D01*
X771279Y574157D01*
X771279Y578343D01*
X772881Y582210D01*
X775840Y585169D01*
X779707Y586771D01*
X783893Y586771D01*
X787760Y585169D01*
X790719Y582210D01*
X792321Y578343D01*
X792321Y574157D01*
X790719Y570291D01*
X787760Y567331D01*
X783893Y565729D01*
X779707Y565729D01*
G37*
%LPD*%
%LPC*%
G36*
X728907Y555819D02*
X728907Y555819D01*
X725040Y557421D01*
X722081Y560380D01*
X720479Y564247D01*
X720479Y568433D01*
X722081Y572300D01*
X725040Y575259D01*
X728907Y576861D01*
X733093Y576861D01*
X736960Y575259D01*
X739919Y572300D01*
X741521Y568433D01*
X741521Y564247D01*
X739919Y560380D01*
X736960Y557421D01*
X733093Y555819D01*
X728907Y555819D01*
G37*
%LPD*%
%LPC*%
G36*
X779707Y235529D02*
X779707Y235529D01*
X775840Y237131D01*
X772881Y240091D01*
X771279Y243957D01*
X771279Y248143D01*
X772881Y252010D01*
X775840Y254969D01*
X779707Y256571D01*
X783893Y256571D01*
X787760Y254969D01*
X790719Y252010D01*
X792321Y248143D01*
X792321Y243957D01*
X790719Y240091D01*
X787760Y237131D01*
X783893Y235529D01*
X779707Y235529D01*
G37*
%LPD*%
%LPC*%
G36*
X728907Y210379D02*
X728907Y210379D01*
X725040Y211981D01*
X722081Y214940D01*
X720479Y218807D01*
X720479Y222993D01*
X722081Y226860D01*
X725040Y229819D01*
X728907Y231421D01*
X733093Y231421D01*
X736960Y229819D01*
X739919Y226860D01*
X741521Y222993D01*
X741521Y218807D01*
X739919Y214940D01*
X736960Y211981D01*
X733093Y210379D01*
X728907Y210379D01*
G37*
%LPD*%
%LPC*%
G36*
X170107Y540579D02*
X170107Y540579D01*
X166240Y542181D01*
X163281Y545140D01*
X161679Y549007D01*
X161679Y553193D01*
X163281Y557060D01*
X166240Y560019D01*
X170107Y561621D01*
X174293Y561621D01*
X178160Y560019D01*
X181119Y557060D01*
X182721Y553193D01*
X182721Y549007D01*
X181119Y545140D01*
X178160Y542181D01*
X174293Y540579D01*
X170107Y540579D01*
G37*
%LPD*%
%LPC*%
G36*
X805107Y540329D02*
X805107Y540329D01*
X801240Y541931D01*
X798281Y544891D01*
X796679Y548757D01*
X796679Y552943D01*
X798281Y556810D01*
X801240Y559769D01*
X805107Y561371D01*
X809293Y561371D01*
X813160Y559769D01*
X816119Y556810D01*
X817721Y552943D01*
X817721Y548757D01*
X816119Y544891D01*
X813160Y541931D01*
X809293Y540329D01*
X805107Y540329D01*
G37*
%LPD*%
%LPC*%
G36*
X779707Y540329D02*
X779707Y540329D01*
X775840Y541931D01*
X772881Y544891D01*
X771279Y548757D01*
X771279Y552943D01*
X772881Y556810D01*
X775840Y559769D01*
X779707Y561371D01*
X783893Y561371D01*
X787760Y559769D01*
X790719Y556810D01*
X792321Y552943D01*
X792321Y548757D01*
X790719Y544891D01*
X787760Y541931D01*
X783893Y540329D01*
X779707Y540329D01*
G37*
%LPD*%
%LPC*%
G36*
X195507Y210379D02*
X195507Y210379D01*
X191640Y211981D01*
X188681Y214940D01*
X187079Y218807D01*
X187079Y222993D01*
X188681Y226860D01*
X191640Y229819D01*
X195507Y231421D01*
X199693Y231421D01*
X203560Y229819D01*
X206519Y226860D01*
X208121Y222993D01*
X208121Y218807D01*
X206519Y214940D01*
X203560Y211981D01*
X199693Y210379D01*
X195507Y210379D01*
G37*
%LPD*%
%LPC*%
G36*
X170107Y210379D02*
X170107Y210379D01*
X166240Y211981D01*
X163281Y214940D01*
X161679Y218807D01*
X161679Y222993D01*
X163281Y226860D01*
X166240Y229819D01*
X170107Y231421D01*
X174293Y231421D01*
X178160Y229819D01*
X181119Y226860D01*
X182721Y222993D01*
X182721Y218807D01*
X181119Y214940D01*
X178160Y211981D01*
X174293Y210379D01*
X170107Y210379D01*
G37*
%LPD*%
%LPC*%
G36*
X805107Y210129D02*
X805107Y210129D01*
X801240Y211731D01*
X798281Y214691D01*
X796679Y218557D01*
X796679Y222743D01*
X798281Y226610D01*
X801240Y229569D01*
X805107Y231171D01*
X809293Y231171D01*
X813160Y229569D01*
X816119Y226610D01*
X817721Y222743D01*
X817721Y218557D01*
X816119Y214691D01*
X813160Y211731D01*
X809293Y210129D01*
X805107Y210129D01*
G37*
%LPD*%
%LPC*%
G36*
X779707Y210129D02*
X779707Y210129D01*
X775840Y211731D01*
X772881Y214691D01*
X771279Y218557D01*
X771279Y222743D01*
X772881Y226610D01*
X775840Y229569D01*
X779707Y231171D01*
X783893Y231171D01*
X787760Y229569D01*
X790719Y226610D01*
X792321Y222743D01*
X792321Y218557D01*
X790719Y214691D01*
X787760Y211731D01*
X783893Y210129D01*
X779707Y210129D01*
G37*
%LPD*%
%LPC*%
G36*
X728907Y184979D02*
X728907Y184979D01*
X725040Y186581D01*
X722081Y189540D01*
X720479Y193407D01*
X720479Y197593D01*
X722081Y201460D01*
X725040Y204419D01*
X728907Y206021D01*
X733093Y206021D01*
X736960Y204419D01*
X739919Y201460D01*
X741521Y197593D01*
X741521Y193407D01*
X739919Y189540D01*
X736960Y186581D01*
X733093Y184979D01*
X728907Y184979D01*
G37*
%LPD*%
%LPC*%
G36*
X246307Y184979D02*
X246307Y184979D01*
X242440Y186581D01*
X239481Y189540D01*
X237879Y193407D01*
X237879Y197593D01*
X239481Y201460D01*
X242440Y204419D01*
X246307Y206021D01*
X250493Y206021D01*
X254360Y204419D01*
X257319Y201460D01*
X258921Y197593D01*
X258921Y193407D01*
X257319Y189540D01*
X254360Y186581D01*
X250493Y184979D01*
X246307Y184979D01*
G37*
%LPD*%
%LPC*%
G36*
X195507Y184979D02*
X195507Y184979D01*
X191640Y186581D01*
X188681Y189540D01*
X187079Y193407D01*
X187079Y197593D01*
X188681Y201460D01*
X191640Y204419D01*
X195507Y206021D01*
X199693Y206021D01*
X203560Y204419D01*
X206519Y201460D01*
X208121Y197593D01*
X208121Y193407D01*
X206519Y189540D01*
X203560Y186581D01*
X199693Y184979D01*
X195507Y184979D01*
G37*
%LPD*%
%LPC*%
G36*
X170107Y184979D02*
X170107Y184979D01*
X166240Y186581D01*
X163281Y189540D01*
X161679Y193407D01*
X161679Y197593D01*
X163281Y201460D01*
X166240Y204419D01*
X170107Y206021D01*
X174293Y206021D01*
X178160Y204419D01*
X181119Y201460D01*
X182721Y197593D01*
X182721Y193407D01*
X181119Y189540D01*
X178160Y186581D01*
X174293Y184979D01*
X170107Y184979D01*
G37*
%LPD*%
%LPC*%
G36*
X805107Y184729D02*
X805107Y184729D01*
X801240Y186331D01*
X798281Y189291D01*
X796679Y193157D01*
X796679Y197343D01*
X798281Y201210D01*
X801240Y204169D01*
X805107Y205771D01*
X809293Y205771D01*
X813160Y204169D01*
X816119Y201210D01*
X817721Y197343D01*
X817721Y193157D01*
X816119Y189291D01*
X813160Y186331D01*
X809293Y184729D01*
X805107Y184729D01*
G37*
%LPD*%
%LPC*%
G36*
X779707Y184729D02*
X779707Y184729D01*
X775840Y186331D01*
X772881Y189291D01*
X771279Y193157D01*
X771279Y197343D01*
X772881Y201210D01*
X775840Y204169D01*
X779707Y205771D01*
X783893Y205771D01*
X787760Y204169D01*
X790719Y201210D01*
X792321Y197343D01*
X792321Y193157D01*
X790719Y189291D01*
X787760Y186331D01*
X783893Y184729D01*
X779707Y184729D01*
G37*
%LPD*%
%LPC*%
G36*
X195507Y515179D02*
X195507Y515179D01*
X191640Y516781D01*
X188681Y519740D01*
X187079Y523607D01*
X187079Y527793D01*
X188681Y531660D01*
X191640Y534619D01*
X195507Y536221D01*
X199693Y536221D01*
X203560Y534619D01*
X206519Y531660D01*
X208121Y527793D01*
X208121Y523607D01*
X206519Y519740D01*
X203560Y516781D01*
X199693Y515179D01*
X195507Y515179D01*
G37*
%LPD*%
%LPC*%
G36*
X170107Y515179D02*
X170107Y515179D01*
X166240Y516781D01*
X163281Y519740D01*
X161679Y523607D01*
X161679Y527793D01*
X163281Y531660D01*
X166240Y534619D01*
X170107Y536221D01*
X174293Y536221D01*
X178160Y534619D01*
X181119Y531660D01*
X182721Y527793D01*
X182721Y523607D01*
X181119Y519740D01*
X178160Y516781D01*
X174293Y515179D01*
X170107Y515179D01*
G37*
%LPD*%
%LPC*%
G36*
X805107Y514929D02*
X805107Y514929D01*
X801240Y516531D01*
X798281Y519491D01*
X796679Y523357D01*
X796679Y527543D01*
X798281Y531410D01*
X801240Y534369D01*
X805107Y535971D01*
X809293Y535971D01*
X813160Y534369D01*
X816119Y531410D01*
X817721Y527543D01*
X817721Y523357D01*
X816119Y519491D01*
X813160Y516531D01*
X809293Y514929D01*
X805107Y514929D01*
G37*
%LPD*%
%LPC*%
G36*
X728907Y505019D02*
X728907Y505019D01*
X725040Y506621D01*
X722081Y509580D01*
X720479Y513447D01*
X720479Y517633D01*
X722081Y521500D01*
X725040Y524459D01*
X728907Y526061D01*
X733093Y526061D01*
X736960Y524459D01*
X739919Y521500D01*
X741521Y517633D01*
X741521Y513447D01*
X739919Y509580D01*
X736960Y506621D01*
X733093Y505019D01*
X728907Y505019D01*
G37*
%LPD*%
%LPC*%
G36*
X246307Y159579D02*
X246307Y159579D01*
X242440Y161181D01*
X239481Y164140D01*
X237879Y168007D01*
X237879Y172193D01*
X239481Y176060D01*
X242440Y179019D01*
X246307Y180621D01*
X250493Y180621D01*
X254360Y179019D01*
X257319Y176060D01*
X258921Y172193D01*
X258921Y168007D01*
X257319Y164140D01*
X254360Y161181D01*
X250493Y159579D01*
X246307Y159579D01*
G37*
%LPD*%
%LPC*%
G36*
X195507Y159579D02*
X195507Y159579D01*
X191640Y161181D01*
X188681Y164140D01*
X187079Y168007D01*
X187079Y172193D01*
X188681Y176060D01*
X191640Y179019D01*
X195507Y180621D01*
X199693Y180621D01*
X203560Y179019D01*
X206519Y176060D01*
X208121Y172193D01*
X208121Y168007D01*
X206519Y164140D01*
X203560Y161181D01*
X199693Y159579D01*
X195507Y159579D01*
G37*
%LPD*%
%LPC*%
G36*
X170107Y159579D02*
X170107Y159579D01*
X166240Y161181D01*
X163281Y164140D01*
X161679Y168007D01*
X161679Y172193D01*
X163281Y176060D01*
X166240Y179019D01*
X170107Y180621D01*
X174293Y180621D01*
X178160Y179019D01*
X181119Y176060D01*
X182721Y172193D01*
X182721Y168007D01*
X181119Y164140D01*
X178160Y161181D01*
X174293Y159579D01*
X170107Y159579D01*
G37*
%LPD*%
%LPC*%
G36*
X246307Y489779D02*
X246307Y489779D01*
X242440Y491381D01*
X239481Y494340D01*
X237879Y498207D01*
X237879Y502393D01*
X239481Y506260D01*
X242440Y509219D01*
X246307Y510821D01*
X250493Y510821D01*
X254360Y509219D01*
X257319Y506260D01*
X258921Y502393D01*
X258921Y498207D01*
X257319Y494340D01*
X254360Y491381D01*
X250493Y489779D01*
X246307Y489779D01*
G37*
%LPD*%
%LPC*%
G36*
X195507Y489779D02*
X195507Y489779D01*
X191640Y491381D01*
X188681Y494340D01*
X187079Y498207D01*
X187079Y502393D01*
X188681Y506260D01*
X191640Y509219D01*
X195507Y510821D01*
X199693Y510821D01*
X203560Y509219D01*
X206519Y506260D01*
X208121Y502393D01*
X208121Y498207D01*
X206519Y494340D01*
X203560Y491381D01*
X199693Y489779D01*
X195507Y489779D01*
G37*
%LPD*%
%LPC*%
G36*
X170107Y489779D02*
X170107Y489779D01*
X166240Y491381D01*
X163281Y494340D01*
X161679Y498207D01*
X161679Y502393D01*
X163281Y506260D01*
X166240Y509219D01*
X170107Y510821D01*
X174293Y510821D01*
X178160Y509219D01*
X181119Y506260D01*
X182721Y502393D01*
X182721Y498207D01*
X181119Y494340D01*
X178160Y491381D01*
X174293Y489779D01*
X170107Y489779D01*
G37*
%LPD*%
%LPC*%
G36*
X805107Y489529D02*
X805107Y489529D01*
X801240Y491131D01*
X798281Y494091D01*
X796679Y497957D01*
X796679Y502143D01*
X798281Y506010D01*
X801240Y508969D01*
X805107Y510571D01*
X809293Y510571D01*
X813160Y508969D01*
X816119Y506010D01*
X817721Y502143D01*
X817721Y497957D01*
X816119Y494091D01*
X813160Y491131D01*
X809293Y489529D01*
X805107Y489529D01*
G37*
%LPD*%
%LPC*%
G36*
X779707Y489529D02*
X779707Y489529D01*
X775840Y491131D01*
X772881Y494091D01*
X771279Y497957D01*
X771279Y502143D01*
X772881Y506010D01*
X775840Y508969D01*
X779707Y510571D01*
X783893Y510571D01*
X787760Y508969D01*
X790719Y506010D01*
X792321Y502143D01*
X792321Y497957D01*
X790719Y494091D01*
X787760Y491131D01*
X783893Y489529D01*
X779707Y489529D01*
G37*
%LPD*%
%LPC*%
G36*
X728907Y479619D02*
X728907Y479619D01*
X725040Y481221D01*
X722081Y484180D01*
X720479Y488047D01*
X720479Y492233D01*
X722081Y496100D01*
X725040Y499059D01*
X728907Y500661D01*
X733093Y500661D01*
X736960Y499059D01*
X739919Y496100D01*
X741521Y492233D01*
X741521Y488047D01*
X739919Y484180D01*
X736960Y481221D01*
X733093Y479619D01*
X728907Y479619D01*
G37*
%LPD*%
%LPC*%
G36*
X246307Y464379D02*
X246307Y464379D01*
X242440Y465981D01*
X239481Y468940D01*
X237879Y472807D01*
X237879Y476993D01*
X239481Y480860D01*
X242440Y483819D01*
X246307Y485421D01*
X250493Y485421D01*
X254360Y483819D01*
X257319Y480860D01*
X258921Y476993D01*
X258921Y472807D01*
X257319Y468940D01*
X254360Y465981D01*
X250493Y464379D01*
X246307Y464379D01*
G37*
%LPD*%
%LPC*%
G36*
X195507Y464379D02*
X195507Y464379D01*
X191640Y465981D01*
X188681Y468940D01*
X187079Y472807D01*
X187079Y476993D01*
X188681Y480860D01*
X191640Y483819D01*
X195507Y485421D01*
X199693Y485421D01*
X203560Y483819D01*
X206519Y480860D01*
X208121Y476993D01*
X208121Y472807D01*
X206519Y468940D01*
X203560Y465981D01*
X199693Y464379D01*
X195507Y464379D01*
G37*
%LPD*%
%LPC*%
G36*
X170107Y464379D02*
X170107Y464379D01*
X166240Y465981D01*
X163281Y468940D01*
X161679Y472807D01*
X161679Y476993D01*
X163281Y480860D01*
X166240Y483819D01*
X170107Y485421D01*
X174293Y485421D01*
X178160Y483819D01*
X181119Y480860D01*
X182721Y476993D01*
X182721Y472807D01*
X181119Y468940D01*
X178160Y465981D01*
X174293Y464379D01*
X170107Y464379D01*
G37*
%LPD*%
%LPC*%
G36*
X805107Y464129D02*
X805107Y464129D01*
X801240Y465731D01*
X798281Y468691D01*
X796679Y472557D01*
X796679Y476743D01*
X798281Y480610D01*
X801240Y483569D01*
X805107Y485171D01*
X809293Y485171D01*
X813160Y483569D01*
X816119Y480610D01*
X817721Y476743D01*
X817721Y472557D01*
X816119Y468691D01*
X813160Y465731D01*
X809293Y464129D01*
X805107Y464129D01*
G37*
%LPD*%
%LPC*%
G36*
X779707Y464129D02*
X779707Y464129D01*
X775840Y465731D01*
X772881Y468691D01*
X771279Y472557D01*
X771279Y476743D01*
X772881Y480610D01*
X775840Y483569D01*
X779707Y485171D01*
X783893Y485171D01*
X787760Y483569D01*
X790719Y480610D01*
X792321Y476743D01*
X792321Y472557D01*
X790719Y468691D01*
X787760Y465731D01*
X783893Y464129D01*
X779707Y464129D01*
G37*
%LPD*%
%LPC*%
G36*
X728907Y454219D02*
X728907Y454219D01*
X725040Y455821D01*
X722081Y458780D01*
X720479Y462647D01*
X720479Y466833D01*
X722081Y470700D01*
X725040Y473659D01*
X728907Y475261D01*
X733093Y475261D01*
X736960Y473659D01*
X739919Y470700D01*
X741521Y466833D01*
X741521Y462647D01*
X739919Y458780D01*
X736960Y455821D01*
X733093Y454219D01*
X728907Y454219D01*
G37*
%LPD*%
%LPC*%
G36*
X246307Y438979D02*
X246307Y438979D01*
X242440Y440581D01*
X239481Y443540D01*
X237879Y447407D01*
X237879Y451593D01*
X239481Y455460D01*
X242440Y458419D01*
X246307Y460021D01*
X250493Y460021D01*
X254360Y458419D01*
X257319Y455460D01*
X258921Y451593D01*
X258921Y447407D01*
X257319Y443540D01*
X254360Y440581D01*
X250493Y438979D01*
X246307Y438979D01*
G37*
%LPD*%
%LPC*%
G36*
X195507Y438979D02*
X195507Y438979D01*
X191640Y440581D01*
X188681Y443540D01*
X187079Y447407D01*
X187079Y451593D01*
X188681Y455460D01*
X191640Y458419D01*
X195507Y460021D01*
X199693Y460021D01*
X203560Y458419D01*
X206519Y455460D01*
X208121Y451593D01*
X208121Y447407D01*
X206519Y443540D01*
X203560Y440581D01*
X199693Y438979D01*
X195507Y438979D01*
G37*
%LPD*%
%LPC*%
G36*
X170107Y438979D02*
X170107Y438979D01*
X166240Y440581D01*
X163281Y443540D01*
X161679Y447407D01*
X161679Y451593D01*
X163281Y455460D01*
X166240Y458419D01*
X170107Y460021D01*
X174293Y460021D01*
X178160Y458419D01*
X181119Y455460D01*
X182721Y451593D01*
X182721Y447407D01*
X181119Y443540D01*
X178160Y440581D01*
X174293Y438979D01*
X170107Y438979D01*
G37*
%LPD*%
%LPC*%
G36*
X805107Y438729D02*
X805107Y438729D01*
X801240Y440331D01*
X798281Y443291D01*
X796679Y447157D01*
X796679Y451343D01*
X798281Y455210D01*
X801240Y458169D01*
X805107Y459771D01*
X809293Y459771D01*
X813160Y458169D01*
X816119Y455210D01*
X817721Y451343D01*
X817721Y447157D01*
X816119Y443291D01*
X813160Y440331D01*
X809293Y438729D01*
X805107Y438729D01*
G37*
%LPD*%
%LPC*%
G36*
X779707Y438729D02*
X779707Y438729D01*
X775840Y440331D01*
X772881Y443291D01*
X771279Y447157D01*
X771279Y451343D01*
X772881Y455210D01*
X775840Y458169D01*
X779707Y459771D01*
X783893Y459771D01*
X787760Y458169D01*
X790719Y455210D01*
X792321Y451343D01*
X792321Y447157D01*
X790719Y443291D01*
X787760Y440331D01*
X783893Y438729D01*
X779707Y438729D01*
G37*
%LPD*%
%LPC*%
G36*
X728907Y428819D02*
X728907Y428819D01*
X725040Y430421D01*
X722081Y433380D01*
X720479Y437247D01*
X720479Y441433D01*
X722081Y445300D01*
X725040Y448259D01*
X728907Y449861D01*
X733093Y449861D01*
X736960Y448259D01*
X739919Y445300D01*
X741521Y441433D01*
X741521Y437247D01*
X739919Y433380D01*
X736960Y430421D01*
X733093Y428819D01*
X728907Y428819D01*
G37*
%LPD*%
%LPC*%
G36*
X805107Y159329D02*
X805107Y159329D01*
X801240Y160931D01*
X798281Y163891D01*
X796679Y167757D01*
X796679Y171943D01*
X798281Y175810D01*
X801240Y178769D01*
X805107Y180371D01*
X809293Y180371D01*
X813160Y178769D01*
X816119Y175810D01*
X817721Y171943D01*
X817721Y167757D01*
X816119Y163891D01*
X813160Y160931D01*
X809293Y159329D01*
X805107Y159329D01*
G37*
%LPD*%
%LPC*%
G36*
X246307Y413579D02*
X246307Y413579D01*
X242440Y415181D01*
X239481Y418140D01*
X237879Y422007D01*
X237879Y426193D01*
X239481Y430060D01*
X242440Y433019D01*
X246307Y434621D01*
X250493Y434621D01*
X254360Y433019D01*
X257319Y430060D01*
X258921Y426193D01*
X258921Y422007D01*
X257319Y418140D01*
X254360Y415181D01*
X250493Y413579D01*
X246307Y413579D01*
G37*
%LPD*%
%LPC*%
G36*
X195507Y413579D02*
X195507Y413579D01*
X191640Y415181D01*
X188681Y418140D01*
X187079Y422007D01*
X187079Y426193D01*
X188681Y430060D01*
X191640Y433019D01*
X195507Y434621D01*
X199693Y434621D01*
X203560Y433019D01*
X206519Y430060D01*
X208121Y426193D01*
X208121Y422007D01*
X206519Y418140D01*
X203560Y415181D01*
X199693Y413579D01*
X195507Y413579D01*
G37*
%LPD*%
%LPC*%
G36*
X170107Y413579D02*
X170107Y413579D01*
X166240Y415181D01*
X163281Y418140D01*
X161679Y422007D01*
X161679Y426193D01*
X163281Y430060D01*
X166240Y433019D01*
X170107Y434621D01*
X174293Y434621D01*
X178160Y433019D01*
X181119Y430060D01*
X182721Y426193D01*
X182721Y422007D01*
X181119Y418140D01*
X178160Y415181D01*
X174293Y413579D01*
X170107Y413579D01*
G37*
%LPD*%
%LPC*%
G36*
X805107Y413329D02*
X805107Y413329D01*
X801240Y414931D01*
X798281Y417891D01*
X796679Y421757D01*
X796679Y425943D01*
X798281Y429810D01*
X801240Y432769D01*
X805107Y434371D01*
X809293Y434371D01*
X813160Y432769D01*
X816119Y429810D01*
X817721Y425943D01*
X817721Y421757D01*
X816119Y417891D01*
X813160Y414931D01*
X809293Y413329D01*
X805107Y413329D01*
G37*
%LPD*%
%LPC*%
G36*
X779707Y413329D02*
X779707Y413329D01*
X775840Y414931D01*
X772881Y417891D01*
X771279Y421757D01*
X771279Y425943D01*
X772881Y429810D01*
X775840Y432769D01*
X779707Y434371D01*
X783893Y434371D01*
X787760Y432769D01*
X790719Y429810D01*
X792321Y425943D01*
X792321Y421757D01*
X790719Y417891D01*
X787760Y414931D01*
X783893Y413329D01*
X779707Y413329D01*
G37*
%LPD*%
%LPC*%
G36*
X728907Y403419D02*
X728907Y403419D01*
X725040Y405021D01*
X722081Y407980D01*
X720479Y411847D01*
X720479Y416033D01*
X722081Y419900D01*
X725040Y422859D01*
X728907Y424461D01*
X733093Y424461D01*
X736960Y422859D01*
X739919Y419900D01*
X741521Y416033D01*
X741521Y411847D01*
X739919Y407980D01*
X736960Y405021D01*
X733093Y403419D01*
X728907Y403419D01*
G37*
%LPD*%
%LPC*%
G36*
X779707Y159329D02*
X779707Y159329D01*
X775840Y160931D01*
X772881Y163891D01*
X771279Y167757D01*
X771279Y171943D01*
X772881Y175810D01*
X775840Y178769D01*
X779707Y180371D01*
X783893Y180371D01*
X787760Y178769D01*
X790719Y175810D01*
X792321Y171943D01*
X792321Y167757D01*
X790719Y163891D01*
X787760Y160931D01*
X783893Y159329D01*
X779707Y159329D01*
G37*
%LPD*%
%LPC*%
G36*
X246307Y210379D02*
X246307Y210379D01*
X242440Y211981D01*
X239481Y214940D01*
X237879Y218807D01*
X237879Y222993D01*
X239481Y226860D01*
X242440Y229819D01*
X246307Y231421D01*
X250493Y231421D01*
X254360Y229819D01*
X257319Y226860D01*
X258921Y222993D01*
X258921Y218807D01*
X257319Y214940D01*
X254360Y211981D01*
X250493Y210379D01*
X246307Y210379D01*
G37*
%LPD*%
%LPC*%
G36*
X779707Y387929D02*
X779707Y387929D01*
X775840Y389531D01*
X772881Y392491D01*
X771279Y396357D01*
X771279Y400543D01*
X772881Y404410D01*
X775840Y407369D01*
X779707Y408971D01*
X783893Y408971D01*
X787760Y407369D01*
X790719Y404410D01*
X792321Y400543D01*
X792321Y396357D01*
X790719Y392491D01*
X787760Y389531D01*
X783893Y387929D01*
X779707Y387929D01*
G37*
%LPD*%
%LPC*%
G36*
X779707Y286329D02*
X779707Y286329D01*
X775840Y287931D01*
X772881Y290891D01*
X771279Y294757D01*
X771279Y298943D01*
X772881Y302810D01*
X775840Y305769D01*
X779707Y307371D01*
X783893Y307371D01*
X787760Y305769D01*
X790719Y302810D01*
X792321Y298943D01*
X792321Y294757D01*
X790719Y290891D01*
X787760Y287931D01*
X783893Y286329D01*
X779707Y286329D01*
G37*
%LPD*%
%LPC*%
G36*
X170107Y362779D02*
X170107Y362779D01*
X166240Y364381D01*
X163281Y367340D01*
X161679Y371207D01*
X161679Y375393D01*
X163281Y379260D01*
X166240Y382219D01*
X170107Y383821D01*
X174293Y383821D01*
X178160Y382219D01*
X181119Y379260D01*
X182721Y375393D01*
X182721Y371207D01*
X181119Y367340D01*
X178160Y364381D01*
X174293Y362779D01*
X170107Y362779D01*
G37*
%LPD*%
%LPC*%
G36*
X805107Y362529D02*
X805107Y362529D01*
X801240Y364131D01*
X798281Y367091D01*
X796679Y370957D01*
X796679Y375143D01*
X798281Y379010D01*
X801240Y381969D01*
X805107Y383571D01*
X809293Y383571D01*
X813160Y381969D01*
X816119Y379010D01*
X817721Y375143D01*
X817721Y370957D01*
X816119Y367091D01*
X813160Y364131D01*
X809293Y362529D01*
X805107Y362529D01*
G37*
%LPD*%
%LPC*%
G36*
X779707Y362529D02*
X779707Y362529D01*
X775840Y364131D01*
X772881Y367091D01*
X771279Y370957D01*
X771279Y375143D01*
X772881Y379010D01*
X775840Y381969D01*
X779707Y383571D01*
X783893Y383571D01*
X787760Y381969D01*
X790719Y379010D01*
X792321Y375143D01*
X792321Y370957D01*
X790719Y367091D01*
X787760Y364131D01*
X783893Y362529D01*
X779707Y362529D01*
G37*
%LPD*%
%LPC*%
G36*
X728907Y337379D02*
X728907Y337379D01*
X725040Y338981D01*
X722081Y341940D01*
X720479Y345807D01*
X720479Y349993D01*
X722081Y353860D01*
X725040Y356819D01*
X728907Y358421D01*
X733093Y358421D01*
X736960Y356819D01*
X739919Y353860D01*
X741521Y349993D01*
X741521Y345807D01*
X739919Y341940D01*
X736960Y338981D01*
X733093Y337379D01*
X728907Y337379D01*
G37*
%LPD*%
%LPC*%
G36*
X246307Y337379D02*
X246307Y337379D01*
X242440Y338981D01*
X239481Y341940D01*
X237879Y345807D01*
X237879Y349993D01*
X239481Y353860D01*
X242440Y356819D01*
X246307Y358421D01*
X250493Y358421D01*
X254360Y356819D01*
X257319Y353860D01*
X258921Y349993D01*
X258921Y345807D01*
X257319Y341940D01*
X254360Y338981D01*
X250493Y337379D01*
X246307Y337379D01*
G37*
%LPD*%
%LPC*%
G36*
X195507Y337379D02*
X195507Y337379D01*
X191640Y338981D01*
X188681Y341940D01*
X187079Y345807D01*
X187079Y349993D01*
X188681Y353860D01*
X191640Y356819D01*
X195507Y358421D01*
X199693Y358421D01*
X203560Y356819D01*
X206519Y353860D01*
X208121Y349993D01*
X208121Y345807D01*
X206519Y341940D01*
X203560Y338981D01*
X199693Y337379D01*
X195507Y337379D01*
G37*
%LPD*%
%LPC*%
G36*
X170107Y337379D02*
X170107Y337379D01*
X166240Y338981D01*
X163281Y341940D01*
X161679Y345807D01*
X161679Y349993D01*
X163281Y353860D01*
X166240Y356819D01*
X170107Y358421D01*
X174293Y358421D01*
X178160Y356819D01*
X181119Y353860D01*
X182721Y349993D01*
X182721Y345807D01*
X181119Y341940D01*
X178160Y338981D01*
X174293Y337379D01*
X170107Y337379D01*
G37*
%LPD*%
%LPC*%
G36*
X805107Y337129D02*
X805107Y337129D01*
X801240Y338731D01*
X798281Y341691D01*
X796679Y345557D01*
X796679Y349743D01*
X798281Y353610D01*
X801240Y356569D01*
X805107Y358171D01*
X809293Y358171D01*
X813160Y356569D01*
X816119Y353610D01*
X817721Y349743D01*
X817721Y345557D01*
X816119Y341691D01*
X813160Y338731D01*
X809293Y337129D01*
X805107Y337129D01*
G37*
%LPD*%
%LPC*%
G36*
X779707Y337129D02*
X779707Y337129D01*
X775840Y338731D01*
X772881Y341691D01*
X771279Y345557D01*
X771279Y349743D01*
X772881Y353610D01*
X775840Y356569D01*
X779707Y358171D01*
X783893Y358171D01*
X787760Y356569D01*
X790719Y353610D01*
X792321Y349743D01*
X792321Y345557D01*
X790719Y341691D01*
X787760Y338731D01*
X783893Y337129D01*
X779707Y337129D01*
G37*
%LPD*%
%LPC*%
G36*
X728907Y311979D02*
X728907Y311979D01*
X725040Y313581D01*
X722081Y316540D01*
X720479Y320407D01*
X720479Y324593D01*
X722081Y328460D01*
X725040Y331419D01*
X728907Y333021D01*
X733093Y333021D01*
X736960Y331419D01*
X739919Y328460D01*
X741521Y324593D01*
X741521Y320407D01*
X739919Y316540D01*
X736960Y313581D01*
X733093Y311979D01*
X728907Y311979D01*
G37*
%LPD*%
%LPC*%
G36*
X195507Y311979D02*
X195507Y311979D01*
X191640Y313581D01*
X188681Y316540D01*
X187079Y320407D01*
X187079Y324593D01*
X188681Y328460D01*
X191640Y331419D01*
X195507Y333021D01*
X199693Y333021D01*
X203560Y331419D01*
X206519Y328460D01*
X208121Y324593D01*
X208121Y320407D01*
X206519Y316540D01*
X203560Y313581D01*
X199693Y311979D01*
X195507Y311979D01*
G37*
%LPD*%
%LPC*%
G36*
X170107Y311979D02*
X170107Y311979D01*
X166240Y313581D01*
X163281Y316540D01*
X161679Y320407D01*
X161679Y324593D01*
X163281Y328460D01*
X166240Y331419D01*
X170107Y333021D01*
X174293Y333021D01*
X178160Y331419D01*
X181119Y328460D01*
X182721Y324593D01*
X182721Y320407D01*
X181119Y316540D01*
X178160Y313581D01*
X174293Y311979D01*
X170107Y311979D01*
G37*
%LPD*%
%LPC*%
G36*
X805107Y311729D02*
X805107Y311729D01*
X801240Y313331D01*
X798281Y316291D01*
X796679Y320157D01*
X796679Y324343D01*
X798281Y328210D01*
X801240Y331169D01*
X805107Y332771D01*
X809293Y332771D01*
X813160Y331169D01*
X816119Y328210D01*
X817721Y324343D01*
X817721Y320157D01*
X816119Y316291D01*
X813160Y313331D01*
X809293Y311729D01*
X805107Y311729D01*
G37*
%LPD*%
%LPC*%
G36*
X779707Y311729D02*
X779707Y311729D01*
X775840Y313331D01*
X772881Y316291D01*
X771279Y320157D01*
X771279Y324343D01*
X772881Y328210D01*
X775840Y331169D01*
X779707Y332771D01*
X783893Y332771D01*
X787760Y331169D01*
X790719Y328210D01*
X792321Y324343D01*
X792321Y320157D01*
X790719Y316291D01*
X787760Y313331D01*
X783893Y311729D01*
X779707Y311729D01*
G37*
%LPD*%
%LPC*%
G36*
X728907Y286579D02*
X728907Y286579D01*
X725040Y288181D01*
X722081Y291140D01*
X720479Y295007D01*
X720479Y299193D01*
X722081Y303060D01*
X725040Y306019D01*
X728907Y307621D01*
X733093Y307621D01*
X736960Y306019D01*
X739919Y303060D01*
X741521Y299193D01*
X741521Y295007D01*
X739919Y291140D01*
X736960Y288181D01*
X733093Y286579D01*
X728907Y286579D01*
G37*
%LPD*%
%LPC*%
G36*
X195507Y286579D02*
X195507Y286579D01*
X191640Y288181D01*
X188681Y291140D01*
X187079Y295007D01*
X187079Y299193D01*
X188681Y303060D01*
X191640Y306019D01*
X195507Y307621D01*
X199693Y307621D01*
X203560Y306019D01*
X206519Y303060D01*
X208121Y299193D01*
X208121Y295007D01*
X206519Y291140D01*
X203560Y288181D01*
X199693Y286579D01*
X195507Y286579D01*
G37*
%LPD*%
%LPC*%
G36*
X170107Y286579D02*
X170107Y286579D01*
X166240Y288181D01*
X163281Y291140D01*
X161679Y295007D01*
X161679Y299193D01*
X163281Y303060D01*
X166240Y306019D01*
X170107Y307621D01*
X174293Y307621D01*
X178160Y306019D01*
X181119Y303060D01*
X182721Y299193D01*
X182721Y295007D01*
X181119Y291140D01*
X178160Y288181D01*
X174293Y286579D01*
X170107Y286579D01*
G37*
%LPD*%
%LPC*%
G36*
X805107Y286329D02*
X805107Y286329D01*
X801240Y287931D01*
X798281Y290891D01*
X796679Y294757D01*
X796679Y298943D01*
X798281Y302810D01*
X801240Y305769D01*
X805107Y307371D01*
X809293Y307371D01*
X813160Y305769D01*
X816119Y302810D01*
X817721Y298943D01*
X817721Y294757D01*
X816119Y290891D01*
X813160Y287931D01*
X809293Y286329D01*
X805107Y286329D01*
G37*
%LPD*%
%LPC*%
G36*
X246307Y261179D02*
X246307Y261179D01*
X242440Y262781D01*
X239481Y265740D01*
X237879Y269607D01*
X237879Y273793D01*
X239481Y277660D01*
X242440Y280619D01*
X246307Y282221D01*
X250493Y282221D01*
X254360Y280619D01*
X257319Y277660D01*
X258921Y273793D01*
X258921Y269607D01*
X257319Y265740D01*
X254360Y262781D01*
X250493Y261179D01*
X246307Y261179D01*
G37*
%LPD*%
%LPC*%
G36*
X195507Y261179D02*
X195507Y261179D01*
X191640Y262781D01*
X188681Y265740D01*
X187079Y269607D01*
X187079Y273793D01*
X188681Y277660D01*
X191640Y280619D01*
X195507Y282221D01*
X199693Y282221D01*
X203560Y280619D01*
X206519Y277660D01*
X208121Y273793D01*
X208121Y269607D01*
X206519Y265740D01*
X203560Y262781D01*
X199693Y261179D01*
X195507Y261179D01*
G37*
%LPD*%
%LPC*%
G36*
X728907Y261179D02*
X728907Y261179D01*
X725040Y262781D01*
X722081Y265740D01*
X720479Y269607D01*
X720479Y273793D01*
X722081Y277660D01*
X725040Y280619D01*
X728907Y282221D01*
X733093Y282221D01*
X736960Y280619D01*
X739919Y277660D01*
X741521Y273793D01*
X741521Y269607D01*
X739919Y265740D01*
X736960Y262781D01*
X733093Y261179D01*
X728907Y261179D01*
G37*
%LPD*%
%LPC*%
G36*
X170107Y261179D02*
X170107Y261179D01*
X166240Y262781D01*
X163281Y265740D01*
X161679Y269607D01*
X161679Y273793D01*
X163281Y277660D01*
X166240Y280619D01*
X170107Y282221D01*
X174293Y282221D01*
X178160Y280619D01*
X181119Y277660D01*
X182721Y273793D01*
X182721Y269607D01*
X181119Y265740D01*
X178160Y262781D01*
X174293Y261179D01*
X170107Y261179D01*
G37*
%LPD*%
%LPC*%
G36*
X805107Y260929D02*
X805107Y260929D01*
X801240Y262531D01*
X798281Y265491D01*
X796679Y269357D01*
X796679Y273543D01*
X798281Y277410D01*
X801240Y280369D01*
X805107Y281971D01*
X809293Y281971D01*
X813160Y280369D01*
X816119Y277410D01*
X817721Y273543D01*
X817721Y269357D01*
X816119Y265491D01*
X813160Y262531D01*
X809293Y260929D01*
X805107Y260929D01*
G37*
%LPD*%
%LPC*%
G36*
X779707Y260929D02*
X779707Y260929D01*
X775840Y262531D01*
X772881Y265491D01*
X771279Y269357D01*
X771279Y273543D01*
X772881Y277410D01*
X775840Y280369D01*
X779707Y281971D01*
X783893Y281971D01*
X787760Y280369D01*
X790719Y277410D01*
X792321Y273543D01*
X792321Y269357D01*
X790719Y265491D01*
X787760Y262531D01*
X783893Y260929D01*
X779707Y260929D01*
G37*
%LPD*%
%LPC*%
G36*
X195507Y235779D02*
X195507Y235779D01*
X191640Y237381D01*
X188681Y240340D01*
X187079Y244207D01*
X187079Y248393D01*
X188681Y252260D01*
X191640Y255219D01*
X195507Y256821D01*
X199693Y256821D01*
X203560Y255219D01*
X206519Y252260D01*
X208121Y248393D01*
X208121Y244207D01*
X206519Y240340D01*
X203560Y237381D01*
X199693Y235779D01*
X195507Y235779D01*
G37*
%LPD*%
%LPC*%
G36*
X170107Y235779D02*
X170107Y235779D01*
X166240Y237381D01*
X163281Y240340D01*
X161679Y244207D01*
X161679Y248393D01*
X163281Y252260D01*
X166240Y255219D01*
X170107Y256821D01*
X174293Y256821D01*
X178160Y255219D01*
X181119Y252260D01*
X182721Y248393D01*
X182721Y244207D01*
X181119Y240340D01*
X178160Y237381D01*
X174293Y235779D01*
X170107Y235779D01*
G37*
%LPD*%
%LPC*%
G36*
X728907Y235779D02*
X728907Y235779D01*
X725040Y237381D01*
X722081Y240340D01*
X720479Y244207D01*
X720479Y248393D01*
X722081Y252260D01*
X725040Y255219D01*
X728907Y256821D01*
X733093Y256821D01*
X736960Y255219D01*
X739919Y252260D01*
X741521Y248393D01*
X741521Y244207D01*
X739919Y240340D01*
X736960Y237381D01*
X733093Y235779D01*
X728907Y235779D01*
G37*
%LPD*%
%LPC*%
G36*
X246307Y235779D02*
X246307Y235779D01*
X242440Y237381D01*
X239481Y240340D01*
X237879Y244207D01*
X237879Y248393D01*
X239481Y252260D01*
X242440Y255219D01*
X246307Y256821D01*
X250493Y256821D01*
X254360Y255219D01*
X257319Y252260D01*
X258921Y248393D01*
X258921Y244207D01*
X257319Y240340D01*
X254360Y237381D01*
X250493Y235779D01*
X246307Y235779D01*
G37*
%LPD*%
%LPC*%
G36*
X805107Y235529D02*
X805107Y235529D01*
X801240Y237131D01*
X798281Y240091D01*
X796679Y243957D01*
X796679Y248143D01*
X798281Y252010D01*
X801240Y254969D01*
X805107Y256571D01*
X809293Y256571D01*
X813160Y254969D01*
X816119Y252010D01*
X817721Y248143D01*
X817721Y243957D01*
X816119Y240091D01*
X813160Y237131D01*
X809293Y235529D01*
X805107Y235529D01*
G37*
%LPD*%
%LPC*%
G36*
X550450Y245099D02*
X550450Y245099D01*
X547032Y246515D01*
X544415Y249132D01*
X542999Y252550D01*
X542999Y256250D01*
X544415Y259668D01*
X547032Y262285D01*
X550450Y263701D01*
X554150Y263701D01*
X557568Y262285D01*
X560185Y259668D01*
X561601Y256250D01*
X561601Y252550D01*
X560185Y249132D01*
X557568Y246515D01*
X554150Y245099D01*
X550450Y245099D01*
G37*
%LPD*%
%LPC*%
G36*
X550450Y270099D02*
X550450Y270099D01*
X547032Y271515D01*
X544415Y274132D01*
X542999Y277550D01*
X542999Y281250D01*
X544415Y284668D01*
X547032Y287285D01*
X550450Y288701D01*
X554150Y288701D01*
X557568Y287285D01*
X560185Y284668D01*
X561601Y281250D01*
X561601Y277550D01*
X560185Y274132D01*
X557568Y271515D01*
X554150Y270099D01*
X550450Y270099D01*
G37*
%LPD*%
%LPC*%
G36*
X267777Y395247D02*
X267777Y395247D01*
X265707Y397317D01*
X265707Y400243D01*
X266476Y401012D01*
X266523Y401077D01*
X266538Y401093D01*
X266541Y401100D01*
X266589Y401156D01*
X266601Y401186D01*
X266620Y401212D01*
X266647Y401299D01*
X266681Y401384D01*
X266685Y401425D01*
X266692Y401447D01*
X266691Y401479D01*
X266699Y401551D01*
X266699Y439189D01*
X266685Y439279D01*
X266677Y439370D01*
X266665Y439400D01*
X266660Y439432D01*
X266617Y439513D01*
X266581Y439597D01*
X266555Y439629D01*
X266544Y439649D01*
X266521Y439672D01*
X266476Y439728D01*
X265707Y440497D01*
X265707Y443423D01*
X267777Y445493D01*
X270703Y445493D01*
X272773Y443423D01*
X272773Y440497D01*
X272004Y439728D01*
X271951Y439654D01*
X271891Y439584D01*
X271879Y439554D01*
X271860Y439528D01*
X271833Y439441D01*
X271799Y439356D01*
X271795Y439315D01*
X271788Y439293D01*
X271789Y439261D01*
X271781Y439189D01*
X271781Y401551D01*
X271796Y401460D01*
X271803Y401370D01*
X271815Y401340D01*
X271820Y401308D01*
X271863Y401227D01*
X271899Y401143D01*
X271925Y401111D01*
X271936Y401091D01*
X271959Y401068D01*
X272004Y401012D01*
X272773Y400243D01*
X272773Y397317D01*
X270703Y395247D01*
X267777Y395247D01*
G37*
%LPD*%
%LPC*%
G36*
X199123Y552623D02*
X199123Y552623D01*
X199123Y562796D01*
X200361Y562600D01*
X202126Y562027D01*
X203780Y561184D01*
X205281Y560093D01*
X206593Y558781D01*
X207684Y557280D01*
X208527Y555626D01*
X209100Y553861D01*
X209296Y552623D01*
X199123Y552623D01*
G37*
%LPD*%
%LPC*%
G36*
X732523Y542463D02*
X732523Y542463D01*
X732523Y552636D01*
X733761Y552440D01*
X735526Y551867D01*
X737180Y551024D01*
X738681Y549933D01*
X739993Y548621D01*
X741084Y547120D01*
X741927Y545466D01*
X742500Y543701D01*
X742696Y542463D01*
X732523Y542463D01*
G37*
%LPD*%
%LPC*%
G36*
X783323Y526973D02*
X783323Y526973D01*
X783323Y537147D01*
X784561Y536950D01*
X786326Y536377D01*
X787980Y535534D01*
X789481Y534444D01*
X790793Y533131D01*
X791884Y531630D01*
X792727Y529976D01*
X793300Y528211D01*
X793496Y526973D01*
X783323Y526973D01*
G37*
%LPD*%
%LPC*%
G36*
X199123Y400223D02*
X199123Y400223D01*
X199123Y410396D01*
X200361Y410200D01*
X202126Y409627D01*
X203780Y408784D01*
X205281Y407693D01*
X206593Y406381D01*
X207684Y404880D01*
X208527Y403226D01*
X209100Y401461D01*
X209296Y400223D01*
X199123Y400223D01*
G37*
%LPD*%
%LPC*%
G36*
X173723Y400223D02*
X173723Y400223D01*
X173723Y410396D01*
X174961Y410200D01*
X176726Y409627D01*
X178380Y408784D01*
X179881Y407693D01*
X181193Y406381D01*
X182284Y404880D01*
X183127Y403226D01*
X183700Y401461D01*
X183896Y400223D01*
X173723Y400223D01*
G37*
%LPD*%
%LPC*%
G36*
X249923Y374823D02*
X249923Y374823D01*
X249923Y384996D01*
X251161Y384800D01*
X252926Y384227D01*
X254580Y383384D01*
X256081Y382293D01*
X257393Y380981D01*
X258484Y379480D01*
X259327Y377826D01*
X259900Y376061D01*
X260096Y374823D01*
X249923Y374823D01*
G37*
%LPD*%
%LPC*%
G36*
X199123Y374823D02*
X199123Y374823D01*
X199123Y384996D01*
X200361Y384800D01*
X202126Y384227D01*
X203780Y383384D01*
X205281Y382293D01*
X206593Y380981D01*
X207684Y379480D01*
X208527Y377826D01*
X209100Y376061D01*
X209296Y374823D01*
X199123Y374823D01*
G37*
%LPD*%
%LPC*%
G36*
X249923Y400223D02*
X249923Y400223D01*
X249923Y410396D01*
X251161Y410200D01*
X252926Y409627D01*
X254580Y408784D01*
X256081Y407693D01*
X257393Y406381D01*
X258484Y404880D01*
X259327Y403226D01*
X259900Y401461D01*
X260096Y400223D01*
X249923Y400223D01*
G37*
%LPD*%
%LPC*%
G36*
X808723Y399973D02*
X808723Y399973D01*
X808723Y410147D01*
X809961Y409950D01*
X811726Y409377D01*
X813380Y408534D01*
X814881Y407444D01*
X816193Y406131D01*
X817284Y404630D01*
X818127Y402976D01*
X818700Y401211D01*
X818896Y399973D01*
X808723Y399973D01*
G37*
%LPD*%
%LPC*%
G36*
X185904Y552623D02*
X185904Y552623D01*
X186100Y553861D01*
X186673Y555626D01*
X187516Y557280D01*
X188607Y558781D01*
X189919Y560093D01*
X191420Y561184D01*
X193074Y562027D01*
X194839Y562600D01*
X196077Y562796D01*
X196077Y552623D01*
X185904Y552623D01*
G37*
%LPD*%
%LPC*%
G36*
X719304Y542463D02*
X719304Y542463D01*
X719500Y543701D01*
X720073Y545466D01*
X720916Y547120D01*
X722007Y548621D01*
X723319Y549933D01*
X724820Y551024D01*
X726474Y551867D01*
X728239Y552440D01*
X729477Y552636D01*
X729477Y542463D01*
X719304Y542463D01*
G37*
%LPD*%
%LPC*%
G36*
X795504Y399973D02*
X795504Y399973D01*
X795700Y401211D01*
X796273Y402976D01*
X797116Y404630D01*
X798207Y406131D01*
X799519Y407444D01*
X801020Y408534D01*
X802674Y409377D01*
X804439Y409950D01*
X805677Y410147D01*
X805677Y399973D01*
X795504Y399973D01*
G37*
%LPD*%
%LPC*%
G36*
X199123Y549577D02*
X199123Y549577D01*
X209296Y549577D01*
X209100Y548339D01*
X208527Y546574D01*
X207684Y544920D01*
X206593Y543419D01*
X205281Y542107D01*
X203780Y541016D01*
X202126Y540173D01*
X200361Y539600D01*
X199123Y539404D01*
X199123Y549577D01*
G37*
%LPD*%
%LPC*%
G36*
X173723Y397177D02*
X173723Y397177D01*
X183896Y397177D01*
X183700Y395939D01*
X183127Y394174D01*
X182284Y392520D01*
X181193Y391019D01*
X179881Y389707D01*
X178380Y388616D01*
X176726Y387773D01*
X174961Y387200D01*
X173723Y387004D01*
X173723Y397177D01*
G37*
%LPD*%
%LPC*%
G36*
X236704Y374823D02*
X236704Y374823D01*
X236900Y376061D01*
X237473Y377826D01*
X238316Y379480D01*
X239407Y380981D01*
X240719Y382293D01*
X242220Y383384D01*
X243874Y384227D01*
X245639Y384800D01*
X246877Y384996D01*
X246877Y374823D01*
X236704Y374823D01*
G37*
%LPD*%
%LPC*%
G36*
X732523Y539417D02*
X732523Y539417D01*
X742696Y539417D01*
X742500Y538179D01*
X741927Y536414D01*
X741084Y534760D01*
X739993Y533259D01*
X738681Y531947D01*
X737180Y530856D01*
X735526Y530013D01*
X733761Y529440D01*
X732523Y529244D01*
X732523Y539417D01*
G37*
%LPD*%
%LPC*%
G36*
X199123Y397177D02*
X199123Y397177D01*
X209296Y397177D01*
X209100Y395939D01*
X208527Y394174D01*
X207684Y392520D01*
X206593Y391019D01*
X205281Y389707D01*
X203780Y388616D01*
X202126Y387773D01*
X200361Y387200D01*
X199123Y387004D01*
X199123Y397177D01*
G37*
%LPD*%
%LPC*%
G36*
X770104Y526973D02*
X770104Y526973D01*
X770300Y528211D01*
X770873Y529976D01*
X771716Y531630D01*
X772807Y533131D01*
X774119Y534444D01*
X775620Y535534D01*
X777274Y536377D01*
X779039Y536950D01*
X780277Y537147D01*
X780277Y526973D01*
X770104Y526973D01*
G37*
%LPD*%
%LPC*%
G36*
X185904Y374823D02*
X185904Y374823D01*
X186100Y376061D01*
X186673Y377826D01*
X187516Y379480D01*
X188607Y380981D01*
X189919Y382293D01*
X191420Y383384D01*
X193074Y384227D01*
X194839Y384800D01*
X196077Y384996D01*
X196077Y374823D01*
X185904Y374823D01*
G37*
%LPD*%
%LPC*%
G36*
X783323Y523927D02*
X783323Y523927D01*
X793496Y523927D01*
X793300Y522689D01*
X792727Y520924D01*
X791884Y519270D01*
X790793Y517769D01*
X789481Y516457D01*
X787980Y515366D01*
X786326Y514523D01*
X784561Y513950D01*
X783323Y513754D01*
X783323Y523927D01*
G37*
%LPD*%
%LPC*%
G36*
X808723Y396927D02*
X808723Y396927D01*
X818896Y396927D01*
X818700Y395689D01*
X818127Y393924D01*
X817284Y392270D01*
X816193Y390769D01*
X814881Y389457D01*
X813380Y388366D01*
X811726Y387523D01*
X809961Y386950D01*
X808723Y386754D01*
X808723Y396927D01*
G37*
%LPD*%
%LPC*%
G36*
X199123Y371777D02*
X199123Y371777D01*
X209296Y371777D01*
X209100Y370539D01*
X208527Y368774D01*
X207684Y367120D01*
X206593Y365619D01*
X205281Y364307D01*
X203780Y363216D01*
X202126Y362373D01*
X200361Y361800D01*
X199123Y361604D01*
X199123Y371777D01*
G37*
%LPD*%
%LPC*%
G36*
X249923Y397177D02*
X249923Y397177D01*
X260096Y397177D01*
X259900Y395939D01*
X259327Y394174D01*
X258484Y392520D01*
X257393Y391019D01*
X256081Y389707D01*
X254580Y388616D01*
X252926Y387773D01*
X251161Y387200D01*
X249923Y387004D01*
X249923Y397177D01*
G37*
%LPD*%
%LPC*%
G36*
X236704Y400223D02*
X236704Y400223D01*
X236900Y401461D01*
X237473Y403226D01*
X238316Y404880D01*
X239407Y406381D01*
X240719Y407693D01*
X242220Y408784D01*
X243874Y409627D01*
X245639Y410200D01*
X246877Y410396D01*
X246877Y400223D01*
X236704Y400223D01*
G37*
%LPD*%
%LPC*%
G36*
X249923Y371777D02*
X249923Y371777D01*
X260096Y371777D01*
X259900Y370539D01*
X259327Y368774D01*
X258484Y367120D01*
X257393Y365619D01*
X256081Y364307D01*
X254580Y363216D01*
X252926Y362373D01*
X251161Y361800D01*
X249923Y361604D01*
X249923Y371777D01*
G37*
%LPD*%
%LPC*%
G36*
X185904Y400223D02*
X185904Y400223D01*
X186100Y401461D01*
X186673Y403226D01*
X187516Y404880D01*
X188607Y406381D01*
X189919Y407693D01*
X191420Y408784D01*
X193074Y409627D01*
X194839Y410200D01*
X196077Y410396D01*
X196077Y400223D01*
X185904Y400223D01*
G37*
%LPD*%
%LPC*%
G36*
X160504Y400223D02*
X160504Y400223D01*
X160700Y401461D01*
X161273Y403226D01*
X162116Y404880D01*
X163207Y406381D01*
X164519Y407693D01*
X166020Y408784D01*
X167674Y409627D01*
X169439Y410200D01*
X170677Y410396D01*
X170677Y400223D01*
X160504Y400223D01*
G37*
%LPD*%
%LPC*%
G36*
X779039Y513950D02*
X779039Y513950D01*
X777274Y514523D01*
X775620Y515366D01*
X774119Y516457D01*
X772807Y517769D01*
X771716Y519270D01*
X770873Y520924D01*
X770300Y522689D01*
X770104Y523927D01*
X780277Y523927D01*
X780277Y513754D01*
X779039Y513950D01*
G37*
%LPD*%
%LPC*%
G36*
X194839Y361800D02*
X194839Y361800D01*
X193074Y362373D01*
X191420Y363216D01*
X189919Y364307D01*
X188607Y365619D01*
X187516Y367120D01*
X186673Y368774D01*
X186100Y370539D01*
X185904Y371777D01*
X196077Y371777D01*
X196077Y361604D01*
X194839Y361800D01*
G37*
%LPD*%
%LPC*%
G36*
X245639Y387200D02*
X245639Y387200D01*
X243874Y387773D01*
X242220Y388616D01*
X240719Y389707D01*
X239407Y391019D01*
X238316Y392520D01*
X237473Y394174D01*
X236900Y395939D01*
X236704Y397177D01*
X246877Y397177D01*
X246877Y387004D01*
X245639Y387200D01*
G37*
%LPD*%
%LPC*%
G36*
X194839Y387200D02*
X194839Y387200D01*
X193074Y387773D01*
X191420Y388616D01*
X189919Y389707D01*
X188607Y391019D01*
X187516Y392520D01*
X186673Y394174D01*
X186100Y395939D01*
X185904Y397177D01*
X196077Y397177D01*
X196077Y387004D01*
X194839Y387200D01*
G37*
%LPD*%
%LPC*%
G36*
X804439Y386950D02*
X804439Y386950D01*
X802674Y387523D01*
X801020Y388366D01*
X799519Y389457D01*
X798207Y390769D01*
X797116Y392270D01*
X796273Y393924D01*
X795700Y395689D01*
X795504Y396927D01*
X805677Y396927D01*
X805677Y386754D01*
X804439Y386950D01*
G37*
%LPD*%
%LPC*%
G36*
X245639Y361800D02*
X245639Y361800D01*
X243874Y362373D01*
X242220Y363216D01*
X240719Y364307D01*
X239407Y365619D01*
X238316Y367120D01*
X237473Y368774D01*
X236900Y370539D01*
X236704Y371777D01*
X246877Y371777D01*
X246877Y361604D01*
X245639Y361800D01*
G37*
%LPD*%
%LPC*%
G36*
X194839Y539600D02*
X194839Y539600D01*
X193074Y540173D01*
X191420Y541016D01*
X189919Y542107D01*
X188607Y543419D01*
X187516Y544920D01*
X186673Y546574D01*
X186100Y548339D01*
X185904Y549577D01*
X196077Y549577D01*
X196077Y539404D01*
X194839Y539600D01*
G37*
%LPD*%
%LPC*%
G36*
X728239Y529440D02*
X728239Y529440D01*
X726474Y530013D01*
X724820Y530856D01*
X723319Y531947D01*
X722007Y533259D01*
X720916Y534760D01*
X720073Y536414D01*
X719500Y538179D01*
X719304Y539417D01*
X729477Y539417D01*
X729477Y529244D01*
X728239Y529440D01*
G37*
%LPD*%
%LPC*%
G36*
X169439Y387200D02*
X169439Y387200D01*
X167674Y387773D01*
X166020Y388616D01*
X164519Y389707D01*
X163207Y391019D01*
X162116Y392520D01*
X161273Y394174D01*
X160700Y395939D01*
X160504Y397177D01*
X170677Y397177D01*
X170677Y387004D01*
X169439Y387200D01*
G37*
%LPD*%
%LPC*%
G36*
X553823Y305923D02*
X553823Y305923D01*
X553823Y314861D01*
X554775Y314710D01*
X556358Y314196D01*
X557840Y313441D01*
X559186Y312463D01*
X560363Y311286D01*
X561341Y309940D01*
X562096Y308458D01*
X562610Y306875D01*
X562761Y305923D01*
X553823Y305923D01*
G37*
%LPD*%
%LPC*%
G36*
X553823Y302877D02*
X553823Y302877D01*
X562761Y302877D01*
X562610Y301925D01*
X562096Y300342D01*
X561341Y298860D01*
X560363Y297514D01*
X559186Y296337D01*
X557840Y295359D01*
X556358Y294604D01*
X554775Y294090D01*
X553823Y293939D01*
X553823Y302877D01*
G37*
%LPD*%
%LPC*%
G36*
X541839Y305923D02*
X541839Y305923D01*
X541990Y306875D01*
X542504Y308458D01*
X543259Y309940D01*
X544237Y311286D01*
X545414Y312463D01*
X546760Y313441D01*
X548242Y314196D01*
X549825Y314710D01*
X550777Y314861D01*
X550777Y305923D01*
X541839Y305923D01*
G37*
%LPD*%
%LPC*%
G36*
X549825Y294090D02*
X549825Y294090D01*
X548242Y294604D01*
X546760Y295359D01*
X545414Y296337D01*
X544237Y297514D01*
X543259Y298860D01*
X542504Y300342D01*
X541990Y301925D01*
X541839Y302877D01*
X550777Y302877D01*
X550777Y293939D01*
X549825Y294090D01*
G37*
%LPD*%
%LPC*%
G36*
X807199Y398449D02*
X807199Y398449D01*
X807199Y398451D01*
X807201Y398451D01*
X807201Y398449D01*
X807199Y398449D01*
G37*
%LPD*%
%LPC*%
G36*
X172199Y398699D02*
X172199Y398699D01*
X172199Y398701D01*
X172201Y398701D01*
X172201Y398699D01*
X172199Y398699D01*
G37*
%LPD*%
%LPC*%
G36*
X248399Y373299D02*
X248399Y373299D01*
X248399Y373301D01*
X248401Y373301D01*
X248401Y373299D01*
X248399Y373299D01*
G37*
%LPD*%
%LPC*%
G36*
X197599Y373299D02*
X197599Y373299D01*
X197599Y373301D01*
X197601Y373301D01*
X197601Y373299D01*
X197599Y373299D01*
G37*
%LPD*%
%LPC*%
G36*
X730999Y540939D02*
X730999Y540939D01*
X730999Y540941D01*
X731001Y540941D01*
X731001Y540939D01*
X730999Y540939D01*
G37*
%LPD*%
%LPC*%
G36*
X197599Y551099D02*
X197599Y551099D01*
X197599Y551101D01*
X197601Y551101D01*
X197601Y551099D01*
X197599Y551099D01*
G37*
%LPD*%
%LPC*%
G36*
X248399Y398699D02*
X248399Y398699D01*
X248399Y398701D01*
X248401Y398701D01*
X248401Y398699D01*
X248399Y398699D01*
G37*
%LPD*%
%LPC*%
G36*
X781799Y525449D02*
X781799Y525449D01*
X781799Y525451D01*
X781801Y525451D01*
X781801Y525449D01*
X781799Y525449D01*
G37*
%LPD*%
%LPC*%
G36*
X552299Y304399D02*
X552299Y304399D01*
X552299Y304401D01*
X552301Y304401D01*
X552301Y304399D01*
X552299Y304399D01*
G37*
%LPD*%
%LPC*%
G36*
X197599Y398699D02*
X197599Y398699D01*
X197599Y398701D01*
X197601Y398701D01*
X197601Y398699D01*
X197599Y398699D01*
G37*
%LPD*%
D10*
X368089Y189422D03*
X418889Y189422D03*
D11*
X248400Y297100D03*
D12*
X248400Y271700D03*
X248400Y246300D03*
X248400Y220900D03*
X248400Y195500D03*
X248400Y170100D03*
D11*
X248400Y525700D03*
D12*
X248400Y500300D03*
X248400Y474900D03*
X248400Y449500D03*
X248400Y424100D03*
X248400Y398700D03*
X248400Y373300D03*
X248400Y347900D03*
D11*
X172200Y627300D03*
D12*
X197600Y627300D03*
X172200Y601900D03*
X197600Y601900D03*
X172200Y576500D03*
X197600Y576500D03*
X172200Y551100D03*
X197600Y551100D03*
X172200Y525700D03*
X197600Y525700D03*
X172200Y500300D03*
X197600Y500300D03*
X172200Y474900D03*
X197600Y474900D03*
X172200Y449500D03*
X197600Y449500D03*
X172200Y424100D03*
X197600Y424100D03*
X172200Y398700D03*
X197600Y398700D03*
X172200Y373300D03*
X197600Y373300D03*
X172200Y347900D03*
X197600Y347900D03*
X172200Y322500D03*
X197600Y322500D03*
X172200Y297100D03*
X197600Y297100D03*
X172200Y271700D03*
X197600Y271700D03*
X172200Y246300D03*
X197600Y246300D03*
X172200Y220900D03*
X197600Y220900D03*
X172200Y195500D03*
X197600Y195500D03*
X172200Y170100D03*
X197600Y170100D03*
D11*
X731000Y388540D03*
D12*
X731000Y413940D03*
X731000Y439340D03*
X731000Y464740D03*
X731000Y490140D03*
X731000Y515540D03*
X731000Y540940D03*
X731000Y566340D03*
X731000Y591740D03*
X731000Y617140D03*
X731000Y220900D03*
X731000Y246300D03*
X731000Y271700D03*
X731000Y297100D03*
X731000Y322500D03*
X731000Y347900D03*
D11*
X731000Y170100D03*
D12*
X731000Y195500D03*
D11*
X781800Y627050D03*
D12*
X807200Y627050D03*
X781800Y601650D03*
X807200Y601650D03*
X781800Y576250D03*
X807200Y576250D03*
X781800Y550850D03*
X807200Y550850D03*
X781800Y525450D03*
X807200Y525450D03*
X781800Y500050D03*
X807200Y500050D03*
X781800Y474650D03*
X807200Y474650D03*
X781800Y449250D03*
X807200Y449250D03*
X781800Y423850D03*
X807200Y423850D03*
X781800Y398450D03*
X807200Y398450D03*
X781800Y373050D03*
X807200Y373050D03*
X781800Y347650D03*
X807200Y347650D03*
X781800Y322250D03*
X807200Y322250D03*
X781800Y296850D03*
X807200Y296850D03*
X781800Y271450D03*
X807200Y271450D03*
X781800Y246050D03*
X807200Y246050D03*
X781800Y220650D03*
X807200Y220650D03*
X781800Y195250D03*
X807200Y195250D03*
X781800Y169850D03*
X807200Y169850D03*
D13*
X552300Y279400D03*
X552300Y254400D03*
X552300Y304400D03*
D14*
X622300Y332900D03*
X622300Y225900D03*
D15*
X647700Y579120D03*
X386080Y474980D03*
X332740Y332740D03*
X360680Y330200D03*
X431800Y279400D03*
X269240Y398780D03*
D16*
X269240Y441960D01*
D15*
X269240Y441960D03*
X331447Y214750D03*
D16*
X458092Y214750D01*
X461533Y218191D01*
D15*
X461533Y218191D03*
X376390Y405390D03*
D16*
X610700Y405390D01*
X696900Y319190D01*
X696900Y255500D01*
D15*
X696900Y255500D03*
X449580Y383540D03*
D16*
X515620Y317500D01*
X515620Y185420D01*
X518160Y182880D01*
X678180Y182880D01*
D15*
X678180Y182880D03*
X353060Y365760D03*
D16*
X360680Y358140D01*
X434340Y358140D01*
D15*
X434340Y358140D03*
X692190Y536690D03*
D16*
X692190Y376350D01*
X694430Y374110D01*
X694880Y374560D01*
D15*
X694880Y374560D03*
X378460Y419100D03*
D16*
X330200Y419100D01*
X284480Y373380D02*
X284480Y325120D01*
D15*
X284480Y325120D03*
D16*
X284480Y373380D02*
X330200Y419100D01*
M02*
