M48
;GenerationSoftware,Autodesk,EAGLE,9.6.2*%
;CreationDate,2022-11-16T20:07:12Z*%
FMAT,2
ICI,OFF
METRIC,TZ,000.000
T6C0.300
T5C1.006
T4C1.100
T3C1.300
T2C2.203
T1C3.175
%
G90
M71
T1
X57860Y14470
X73100Y65270
X24840Y66540
T2
X62230Y22590
X62230Y33290
T3
X36809Y18942
X41889Y18942
T4
X24840Y42410
X78180Y34765
X80720Y34765
X78180Y32225
X78180Y29685
X80720Y29685
X78180Y27145
X80720Y27145
X78180Y24605
X80720Y24605
X78180Y22065
X80720Y22065
X78180Y19525
X80720Y19525
X78180Y16985
X80720Y16985
X80720Y32225
X17220Y24630
X24840Y29710
X24840Y27170
X24840Y24630
X24840Y22090
X24840Y19550
X24840Y17010
X24840Y52570
X24840Y50030
X24840Y47490
X24840Y44950
X24840Y39870
X24840Y37330
X24840Y34790
X17220Y62730
X19760Y62730
X17220Y60190
X19760Y60190
X17220Y57650
X19760Y57650
X17220Y55110
X19760Y55110
X17220Y52570
X19760Y52570
X17220Y50030
X19760Y50030
X17220Y47490
X19760Y47490
X17220Y44950
X19760Y44950
X17220Y42410
X19760Y42410
X17220Y39870
X19760Y39870
X17220Y37330
X19760Y37330
X17220Y34790
X19760Y34790
X17220Y32250
X19760Y32250
X17220Y29710
X19760Y29710
X17220Y27170
X19760Y27170
X78180Y52545
X19760Y24630
X17220Y22090
X19760Y22090
X17220Y19550
X19760Y19550
X17220Y17010
X19760Y17010
X73100Y38854
X73100Y41394
X73100Y43934
X73100Y46474
X73100Y49014
X73100Y51554
X73100Y54094
X73100Y56634
X73100Y59174
X73100Y61714
X73100Y22090
X73100Y24630
X73100Y27170
X73100Y29710
X73100Y32250
X73100Y34790
X73100Y17010
X73100Y19550
X78180Y62705
X80720Y62705
X78180Y60165
X80720Y60165
X78180Y57625
X80720Y57625
X78180Y55085
X80720Y55085
X80720Y52545
X78180Y50005
X80720Y50005
X78180Y47465
X80720Y47465
X78180Y44925
X80720Y44925
X78180Y42385
X80720Y42385
X78180Y39845
X80720Y39845
X78180Y37305
X80720Y37305
T5
X55230Y27940
X55230Y25440
X55230Y30440
T6
X38608Y47498
X33274Y33274
X36068Y33020
X43180Y27940
X26924Y39878
X26924Y44196
X33145Y21475
X46153Y21819
X37639Y40539
X69690Y25550
X44958Y38354
X67818Y18288
X35306Y36576
X43434Y35814
X69219Y53669
X69488Y37456
X64770Y57912
X28448Y32512
X37846Y41910
M30