G04 EAGLE Gerber RS-274X export*
G75*
%MOMM*%
%FSLAX34Y34*%
%LPD*%
%INBoard Outline*%
%IPPOS*%
%AMOC8*
5,1,8,0,0,1.08239X$1,22.5*%
G01*
%ADD10C,0.000000*%
%ADD11C,0.254000*%


D10*
X139700Y119380D02*
X840540Y119380D01*
X840540Y710440D01*
X139700Y710440D01*
X139700Y119380D01*
X715125Y652700D02*
X715130Y653090D01*
X715144Y653479D01*
X715168Y653868D01*
X715201Y654256D01*
X715244Y654643D01*
X715297Y655029D01*
X715359Y655414D01*
X715430Y655797D01*
X715511Y656178D01*
X715601Y656557D01*
X715700Y656934D01*
X715809Y657308D01*
X715926Y657680D01*
X716053Y658048D01*
X716189Y658413D01*
X716333Y658775D01*
X716487Y659133D01*
X716649Y659487D01*
X716820Y659838D01*
X716999Y660183D01*
X717187Y660525D01*
X717384Y660861D01*
X717588Y661193D01*
X717800Y661520D01*
X718021Y661841D01*
X718249Y662157D01*
X718485Y662467D01*
X718728Y662771D01*
X718979Y663069D01*
X719237Y663361D01*
X719503Y663646D01*
X719775Y663925D01*
X720054Y664197D01*
X720339Y664463D01*
X720631Y664721D01*
X720929Y664972D01*
X721233Y665215D01*
X721543Y665451D01*
X721859Y665679D01*
X722180Y665900D01*
X722507Y666112D01*
X722839Y666316D01*
X723175Y666513D01*
X723517Y666701D01*
X723862Y666880D01*
X724213Y667051D01*
X724567Y667213D01*
X724925Y667367D01*
X725287Y667511D01*
X725652Y667647D01*
X726020Y667774D01*
X726392Y667891D01*
X726766Y668000D01*
X727143Y668099D01*
X727522Y668189D01*
X727903Y668270D01*
X728286Y668341D01*
X728671Y668403D01*
X729057Y668456D01*
X729444Y668499D01*
X729832Y668532D01*
X730221Y668556D01*
X730610Y668570D01*
X731000Y668575D01*
X731390Y668570D01*
X731779Y668556D01*
X732168Y668532D01*
X732556Y668499D01*
X732943Y668456D01*
X733329Y668403D01*
X733714Y668341D01*
X734097Y668270D01*
X734478Y668189D01*
X734857Y668099D01*
X735234Y668000D01*
X735608Y667891D01*
X735980Y667774D01*
X736348Y667647D01*
X736713Y667511D01*
X737075Y667367D01*
X737433Y667213D01*
X737787Y667051D01*
X738138Y666880D01*
X738483Y666701D01*
X738825Y666513D01*
X739161Y666316D01*
X739493Y666112D01*
X739820Y665900D01*
X740141Y665679D01*
X740457Y665451D01*
X740767Y665215D01*
X741071Y664972D01*
X741369Y664721D01*
X741661Y664463D01*
X741946Y664197D01*
X742225Y663925D01*
X742497Y663646D01*
X742763Y663361D01*
X743021Y663069D01*
X743272Y662771D01*
X743515Y662467D01*
X743751Y662157D01*
X743979Y661841D01*
X744200Y661520D01*
X744412Y661193D01*
X744616Y660861D01*
X744813Y660525D01*
X745001Y660183D01*
X745180Y659838D01*
X745351Y659487D01*
X745513Y659133D01*
X745667Y658775D01*
X745811Y658413D01*
X745947Y658048D01*
X746074Y657680D01*
X746191Y657308D01*
X746300Y656934D01*
X746399Y656557D01*
X746489Y656178D01*
X746570Y655797D01*
X746641Y655414D01*
X746703Y655029D01*
X746756Y654643D01*
X746799Y654256D01*
X746832Y653868D01*
X746856Y653479D01*
X746870Y653090D01*
X746875Y652700D01*
X746870Y652310D01*
X746856Y651921D01*
X746832Y651532D01*
X746799Y651144D01*
X746756Y650757D01*
X746703Y650371D01*
X746641Y649986D01*
X746570Y649603D01*
X746489Y649222D01*
X746399Y648843D01*
X746300Y648466D01*
X746191Y648092D01*
X746074Y647720D01*
X745947Y647352D01*
X745811Y646987D01*
X745667Y646625D01*
X745513Y646267D01*
X745351Y645913D01*
X745180Y645562D01*
X745001Y645217D01*
X744813Y644875D01*
X744616Y644539D01*
X744412Y644207D01*
X744200Y643880D01*
X743979Y643559D01*
X743751Y643243D01*
X743515Y642933D01*
X743272Y642629D01*
X743021Y642331D01*
X742763Y642039D01*
X742497Y641754D01*
X742225Y641475D01*
X741946Y641203D01*
X741661Y640937D01*
X741369Y640679D01*
X741071Y640428D01*
X740767Y640185D01*
X740457Y639949D01*
X740141Y639721D01*
X739820Y639500D01*
X739493Y639288D01*
X739161Y639084D01*
X738825Y638887D01*
X738483Y638699D01*
X738138Y638520D01*
X737787Y638349D01*
X737433Y638187D01*
X737075Y638033D01*
X736713Y637889D01*
X736348Y637753D01*
X735980Y637626D01*
X735608Y637509D01*
X735234Y637400D01*
X734857Y637301D01*
X734478Y637211D01*
X734097Y637130D01*
X733714Y637059D01*
X733329Y636997D01*
X732943Y636944D01*
X732556Y636901D01*
X732168Y636868D01*
X731779Y636844D01*
X731390Y636830D01*
X731000Y636825D01*
X730610Y636830D01*
X730221Y636844D01*
X729832Y636868D01*
X729444Y636901D01*
X729057Y636944D01*
X728671Y636997D01*
X728286Y637059D01*
X727903Y637130D01*
X727522Y637211D01*
X727143Y637301D01*
X726766Y637400D01*
X726392Y637509D01*
X726020Y637626D01*
X725652Y637753D01*
X725287Y637889D01*
X724925Y638033D01*
X724567Y638187D01*
X724213Y638349D01*
X723862Y638520D01*
X723517Y638699D01*
X723175Y638887D01*
X722839Y639084D01*
X722507Y639288D01*
X722180Y639500D01*
X721859Y639721D01*
X721543Y639949D01*
X721233Y640185D01*
X720929Y640428D01*
X720631Y640679D01*
X720339Y640937D01*
X720054Y641203D01*
X719775Y641475D01*
X719503Y641754D01*
X719237Y642039D01*
X718979Y642331D01*
X718728Y642629D01*
X718485Y642933D01*
X718249Y643243D01*
X718021Y643559D01*
X717800Y643880D01*
X717588Y644207D01*
X717384Y644539D01*
X717187Y644875D01*
X716999Y645217D01*
X716820Y645562D01*
X716649Y645913D01*
X716487Y646267D01*
X716333Y646625D01*
X716189Y646987D01*
X716053Y647352D01*
X715926Y647720D01*
X715809Y648092D01*
X715700Y648466D01*
X715601Y648843D01*
X715511Y649222D01*
X715430Y649603D01*
X715359Y649986D01*
X715297Y650371D01*
X715244Y650757D01*
X715201Y651144D01*
X715168Y651532D01*
X715144Y651921D01*
X715130Y652310D01*
X715125Y652700D01*
X232525Y665400D02*
X232530Y665790D01*
X232544Y666179D01*
X232568Y666568D01*
X232601Y666956D01*
X232644Y667343D01*
X232697Y667729D01*
X232759Y668114D01*
X232830Y668497D01*
X232911Y668878D01*
X233001Y669257D01*
X233100Y669634D01*
X233209Y670008D01*
X233326Y670380D01*
X233453Y670748D01*
X233589Y671113D01*
X233733Y671475D01*
X233887Y671833D01*
X234049Y672187D01*
X234220Y672538D01*
X234399Y672883D01*
X234587Y673225D01*
X234784Y673561D01*
X234988Y673893D01*
X235200Y674220D01*
X235421Y674541D01*
X235649Y674857D01*
X235885Y675167D01*
X236128Y675471D01*
X236379Y675769D01*
X236637Y676061D01*
X236903Y676346D01*
X237175Y676625D01*
X237454Y676897D01*
X237739Y677163D01*
X238031Y677421D01*
X238329Y677672D01*
X238633Y677915D01*
X238943Y678151D01*
X239259Y678379D01*
X239580Y678600D01*
X239907Y678812D01*
X240239Y679016D01*
X240575Y679213D01*
X240917Y679401D01*
X241262Y679580D01*
X241613Y679751D01*
X241967Y679913D01*
X242325Y680067D01*
X242687Y680211D01*
X243052Y680347D01*
X243420Y680474D01*
X243792Y680591D01*
X244166Y680700D01*
X244543Y680799D01*
X244922Y680889D01*
X245303Y680970D01*
X245686Y681041D01*
X246071Y681103D01*
X246457Y681156D01*
X246844Y681199D01*
X247232Y681232D01*
X247621Y681256D01*
X248010Y681270D01*
X248400Y681275D01*
X248790Y681270D01*
X249179Y681256D01*
X249568Y681232D01*
X249956Y681199D01*
X250343Y681156D01*
X250729Y681103D01*
X251114Y681041D01*
X251497Y680970D01*
X251878Y680889D01*
X252257Y680799D01*
X252634Y680700D01*
X253008Y680591D01*
X253380Y680474D01*
X253748Y680347D01*
X254113Y680211D01*
X254475Y680067D01*
X254833Y679913D01*
X255187Y679751D01*
X255538Y679580D01*
X255883Y679401D01*
X256225Y679213D01*
X256561Y679016D01*
X256893Y678812D01*
X257220Y678600D01*
X257541Y678379D01*
X257857Y678151D01*
X258167Y677915D01*
X258471Y677672D01*
X258769Y677421D01*
X259061Y677163D01*
X259346Y676897D01*
X259625Y676625D01*
X259897Y676346D01*
X260163Y676061D01*
X260421Y675769D01*
X260672Y675471D01*
X260915Y675167D01*
X261151Y674857D01*
X261379Y674541D01*
X261600Y674220D01*
X261812Y673893D01*
X262016Y673561D01*
X262213Y673225D01*
X262401Y672883D01*
X262580Y672538D01*
X262751Y672187D01*
X262913Y671833D01*
X263067Y671475D01*
X263211Y671113D01*
X263347Y670748D01*
X263474Y670380D01*
X263591Y670008D01*
X263700Y669634D01*
X263799Y669257D01*
X263889Y668878D01*
X263970Y668497D01*
X264041Y668114D01*
X264103Y667729D01*
X264156Y667343D01*
X264199Y666956D01*
X264232Y666568D01*
X264256Y666179D01*
X264270Y665790D01*
X264275Y665400D01*
X264270Y665010D01*
X264256Y664621D01*
X264232Y664232D01*
X264199Y663844D01*
X264156Y663457D01*
X264103Y663071D01*
X264041Y662686D01*
X263970Y662303D01*
X263889Y661922D01*
X263799Y661543D01*
X263700Y661166D01*
X263591Y660792D01*
X263474Y660420D01*
X263347Y660052D01*
X263211Y659687D01*
X263067Y659325D01*
X262913Y658967D01*
X262751Y658613D01*
X262580Y658262D01*
X262401Y657917D01*
X262213Y657575D01*
X262016Y657239D01*
X261812Y656907D01*
X261600Y656580D01*
X261379Y656259D01*
X261151Y655943D01*
X260915Y655633D01*
X260672Y655329D01*
X260421Y655031D01*
X260163Y654739D01*
X259897Y654454D01*
X259625Y654175D01*
X259346Y653903D01*
X259061Y653637D01*
X258769Y653379D01*
X258471Y653128D01*
X258167Y652885D01*
X257857Y652649D01*
X257541Y652421D01*
X257220Y652200D01*
X256893Y651988D01*
X256561Y651784D01*
X256225Y651587D01*
X255883Y651399D01*
X255538Y651220D01*
X255187Y651049D01*
X254833Y650887D01*
X254475Y650733D01*
X254113Y650589D01*
X253748Y650453D01*
X253380Y650326D01*
X253008Y650209D01*
X252634Y650100D01*
X252257Y650001D01*
X251878Y649911D01*
X251497Y649830D01*
X251114Y649759D01*
X250729Y649697D01*
X250343Y649644D01*
X249956Y649601D01*
X249568Y649568D01*
X249179Y649544D01*
X248790Y649530D01*
X248400Y649525D01*
X248010Y649530D01*
X247621Y649544D01*
X247232Y649568D01*
X246844Y649601D01*
X246457Y649644D01*
X246071Y649697D01*
X245686Y649759D01*
X245303Y649830D01*
X244922Y649911D01*
X244543Y650001D01*
X244166Y650100D01*
X243792Y650209D01*
X243420Y650326D01*
X243052Y650453D01*
X242687Y650589D01*
X242325Y650733D01*
X241967Y650887D01*
X241613Y651049D01*
X241262Y651220D01*
X240917Y651399D01*
X240575Y651587D01*
X240239Y651784D01*
X239907Y651988D01*
X239580Y652200D01*
X239259Y652421D01*
X238943Y652649D01*
X238633Y652885D01*
X238329Y653128D01*
X238031Y653379D01*
X237739Y653637D01*
X237454Y653903D01*
X237175Y654175D01*
X236903Y654454D01*
X236637Y654739D01*
X236379Y655031D01*
X236128Y655329D01*
X235885Y655633D01*
X235649Y655943D01*
X235421Y656259D01*
X235200Y656580D01*
X234988Y656907D01*
X234784Y657239D01*
X234587Y657575D01*
X234399Y657917D01*
X234220Y658262D01*
X234049Y658613D01*
X233887Y658967D01*
X233733Y659325D01*
X233589Y659687D01*
X233453Y660052D01*
X233326Y660420D01*
X233209Y660792D01*
X233100Y661166D01*
X233001Y661543D01*
X232911Y661922D01*
X232830Y662303D01*
X232759Y662686D01*
X232697Y663071D01*
X232644Y663457D01*
X232601Y663844D01*
X232568Y664232D01*
X232544Y664621D01*
X232530Y665010D01*
X232525Y665400D01*
X562725Y144700D02*
X562730Y145090D01*
X562744Y145479D01*
X562768Y145868D01*
X562801Y146256D01*
X562844Y146643D01*
X562897Y147029D01*
X562959Y147414D01*
X563030Y147797D01*
X563111Y148178D01*
X563201Y148557D01*
X563300Y148934D01*
X563409Y149308D01*
X563526Y149680D01*
X563653Y150048D01*
X563789Y150413D01*
X563933Y150775D01*
X564087Y151133D01*
X564249Y151487D01*
X564420Y151838D01*
X564599Y152183D01*
X564787Y152525D01*
X564984Y152861D01*
X565188Y153193D01*
X565400Y153520D01*
X565621Y153841D01*
X565849Y154157D01*
X566085Y154467D01*
X566328Y154771D01*
X566579Y155069D01*
X566837Y155361D01*
X567103Y155646D01*
X567375Y155925D01*
X567654Y156197D01*
X567939Y156463D01*
X568231Y156721D01*
X568529Y156972D01*
X568833Y157215D01*
X569143Y157451D01*
X569459Y157679D01*
X569780Y157900D01*
X570107Y158112D01*
X570439Y158316D01*
X570775Y158513D01*
X571117Y158701D01*
X571462Y158880D01*
X571813Y159051D01*
X572167Y159213D01*
X572525Y159367D01*
X572887Y159511D01*
X573252Y159647D01*
X573620Y159774D01*
X573992Y159891D01*
X574366Y160000D01*
X574743Y160099D01*
X575122Y160189D01*
X575503Y160270D01*
X575886Y160341D01*
X576271Y160403D01*
X576657Y160456D01*
X577044Y160499D01*
X577432Y160532D01*
X577821Y160556D01*
X578210Y160570D01*
X578600Y160575D01*
X578990Y160570D01*
X579379Y160556D01*
X579768Y160532D01*
X580156Y160499D01*
X580543Y160456D01*
X580929Y160403D01*
X581314Y160341D01*
X581697Y160270D01*
X582078Y160189D01*
X582457Y160099D01*
X582834Y160000D01*
X583208Y159891D01*
X583580Y159774D01*
X583948Y159647D01*
X584313Y159511D01*
X584675Y159367D01*
X585033Y159213D01*
X585387Y159051D01*
X585738Y158880D01*
X586083Y158701D01*
X586425Y158513D01*
X586761Y158316D01*
X587093Y158112D01*
X587420Y157900D01*
X587741Y157679D01*
X588057Y157451D01*
X588367Y157215D01*
X588671Y156972D01*
X588969Y156721D01*
X589261Y156463D01*
X589546Y156197D01*
X589825Y155925D01*
X590097Y155646D01*
X590363Y155361D01*
X590621Y155069D01*
X590872Y154771D01*
X591115Y154467D01*
X591351Y154157D01*
X591579Y153841D01*
X591800Y153520D01*
X592012Y153193D01*
X592216Y152861D01*
X592413Y152525D01*
X592601Y152183D01*
X592780Y151838D01*
X592951Y151487D01*
X593113Y151133D01*
X593267Y150775D01*
X593411Y150413D01*
X593547Y150048D01*
X593674Y149680D01*
X593791Y149308D01*
X593900Y148934D01*
X593999Y148557D01*
X594089Y148178D01*
X594170Y147797D01*
X594241Y147414D01*
X594303Y147029D01*
X594356Y146643D01*
X594399Y146256D01*
X594432Y145868D01*
X594456Y145479D01*
X594470Y145090D01*
X594475Y144700D01*
X594470Y144310D01*
X594456Y143921D01*
X594432Y143532D01*
X594399Y143144D01*
X594356Y142757D01*
X594303Y142371D01*
X594241Y141986D01*
X594170Y141603D01*
X594089Y141222D01*
X593999Y140843D01*
X593900Y140466D01*
X593791Y140092D01*
X593674Y139720D01*
X593547Y139352D01*
X593411Y138987D01*
X593267Y138625D01*
X593113Y138267D01*
X592951Y137913D01*
X592780Y137562D01*
X592601Y137217D01*
X592413Y136875D01*
X592216Y136539D01*
X592012Y136207D01*
X591800Y135880D01*
X591579Y135559D01*
X591351Y135243D01*
X591115Y134933D01*
X590872Y134629D01*
X590621Y134331D01*
X590363Y134039D01*
X590097Y133754D01*
X589825Y133475D01*
X589546Y133203D01*
X589261Y132937D01*
X588969Y132679D01*
X588671Y132428D01*
X588367Y132185D01*
X588057Y131949D01*
X587741Y131721D01*
X587420Y131500D01*
X587093Y131288D01*
X586761Y131084D01*
X586425Y130887D01*
X586083Y130699D01*
X585738Y130520D01*
X585387Y130349D01*
X585033Y130187D01*
X584675Y130033D01*
X584313Y129889D01*
X583948Y129753D01*
X583580Y129626D01*
X583208Y129509D01*
X582834Y129400D01*
X582457Y129301D01*
X582078Y129211D01*
X581697Y129130D01*
X581314Y129059D01*
X580929Y128997D01*
X580543Y128944D01*
X580156Y128901D01*
X579768Y128868D01*
X579379Y128844D01*
X578990Y128830D01*
X578600Y128825D01*
X578210Y128830D01*
X577821Y128844D01*
X577432Y128868D01*
X577044Y128901D01*
X576657Y128944D01*
X576271Y128997D01*
X575886Y129059D01*
X575503Y129130D01*
X575122Y129211D01*
X574743Y129301D01*
X574366Y129400D01*
X573992Y129509D01*
X573620Y129626D01*
X573252Y129753D01*
X572887Y129889D01*
X572525Y130033D01*
X572167Y130187D01*
X571813Y130349D01*
X571462Y130520D01*
X571117Y130699D01*
X570775Y130887D01*
X570439Y131084D01*
X570107Y131288D01*
X569780Y131500D01*
X569459Y131721D01*
X569143Y131949D01*
X568833Y132185D01*
X568529Y132428D01*
X568231Y132679D01*
X567939Y132937D01*
X567654Y133203D01*
X567375Y133475D01*
X567103Y133754D01*
X566837Y134039D01*
X566579Y134331D01*
X566328Y134629D01*
X566085Y134933D01*
X565849Y135243D01*
X565621Y135559D01*
X565400Y135880D01*
X565188Y136207D01*
X564984Y136539D01*
X564787Y136875D01*
X564599Y137217D01*
X564420Y137562D01*
X564249Y137913D01*
X564087Y138267D01*
X563933Y138625D01*
X563789Y138987D01*
X563653Y139352D01*
X563526Y139720D01*
X563409Y140092D01*
X563300Y140466D01*
X563201Y140843D01*
X563111Y141222D01*
X563030Y141603D01*
X562959Y141986D01*
X562897Y142371D01*
X562844Y142757D01*
X562801Y143144D01*
X562768Y143532D01*
X562744Y143921D01*
X562730Y144310D01*
X562725Y144700D01*
D11*
X139700Y119380D02*
X840540Y119380D01*
X840540Y710440D01*
X139700Y710440D01*
X139700Y119380D01*
X746875Y652180D02*
X746807Y651143D01*
X746671Y650113D01*
X746469Y649093D01*
X746200Y648089D01*
X745865Y647105D01*
X745468Y646145D01*
X745008Y645213D01*
X744488Y644312D01*
X743911Y643448D01*
X743278Y642624D01*
X742593Y641842D01*
X741858Y641107D01*
X741076Y640422D01*
X740252Y639789D01*
X739388Y639212D01*
X738487Y638692D01*
X737555Y638232D01*
X736595Y637835D01*
X735611Y637500D01*
X734607Y637231D01*
X733587Y637029D01*
X732557Y636893D01*
X731520Y636825D01*
X730480Y636825D01*
X729443Y636893D01*
X728413Y637029D01*
X727393Y637231D01*
X726389Y637500D01*
X725405Y637835D01*
X724445Y638232D01*
X723513Y638692D01*
X722612Y639212D01*
X721748Y639789D01*
X720924Y640422D01*
X720142Y641107D01*
X719407Y641842D01*
X718722Y642624D01*
X718089Y643448D01*
X717512Y644312D01*
X716992Y645213D01*
X716532Y646145D01*
X716135Y647105D01*
X715800Y648089D01*
X715531Y649093D01*
X715329Y650113D01*
X715193Y651143D01*
X715125Y652180D01*
X715125Y653220D01*
X715193Y654257D01*
X715329Y655287D01*
X715531Y656307D01*
X715800Y657311D01*
X716135Y658295D01*
X716532Y659255D01*
X716992Y660187D01*
X717512Y661088D01*
X718089Y661952D01*
X718722Y662776D01*
X719407Y663558D01*
X720142Y664293D01*
X720924Y664978D01*
X721748Y665611D01*
X722612Y666188D01*
X723513Y666708D01*
X724445Y667168D01*
X725405Y667565D01*
X726389Y667900D01*
X727393Y668169D01*
X728413Y668371D01*
X729443Y668507D01*
X730480Y668575D01*
X731520Y668575D01*
X732557Y668507D01*
X733587Y668371D01*
X734607Y668169D01*
X735611Y667900D01*
X736595Y667565D01*
X737555Y667168D01*
X738487Y666708D01*
X739388Y666188D01*
X740252Y665611D01*
X741076Y664978D01*
X741858Y664293D01*
X742593Y663558D01*
X743278Y662776D01*
X743911Y661952D01*
X744488Y661088D01*
X745008Y660187D01*
X745468Y659255D01*
X745865Y658295D01*
X746200Y657311D01*
X746469Y656307D01*
X746671Y655287D01*
X746807Y654257D01*
X746875Y653220D01*
X746875Y652180D01*
X264275Y664880D02*
X264207Y663843D01*
X264071Y662813D01*
X263869Y661793D01*
X263600Y660789D01*
X263265Y659805D01*
X262868Y658845D01*
X262408Y657913D01*
X261888Y657012D01*
X261311Y656148D01*
X260678Y655324D01*
X259993Y654542D01*
X259258Y653807D01*
X258476Y653122D01*
X257652Y652489D01*
X256788Y651912D01*
X255887Y651392D01*
X254955Y650932D01*
X253995Y650535D01*
X253011Y650200D01*
X252007Y649931D01*
X250987Y649729D01*
X249957Y649593D01*
X248920Y649525D01*
X247880Y649525D01*
X246843Y649593D01*
X245813Y649729D01*
X244793Y649931D01*
X243789Y650200D01*
X242805Y650535D01*
X241845Y650932D01*
X240913Y651392D01*
X240012Y651912D01*
X239148Y652489D01*
X238324Y653122D01*
X237542Y653807D01*
X236807Y654542D01*
X236122Y655324D01*
X235489Y656148D01*
X234912Y657012D01*
X234392Y657913D01*
X233932Y658845D01*
X233535Y659805D01*
X233200Y660789D01*
X232931Y661793D01*
X232729Y662813D01*
X232593Y663843D01*
X232525Y664880D01*
X232525Y665920D01*
X232593Y666957D01*
X232729Y667987D01*
X232931Y669007D01*
X233200Y670011D01*
X233535Y670995D01*
X233932Y671955D01*
X234392Y672887D01*
X234912Y673788D01*
X235489Y674652D01*
X236122Y675476D01*
X236807Y676258D01*
X237542Y676993D01*
X238324Y677678D01*
X239148Y678311D01*
X240012Y678888D01*
X240913Y679408D01*
X241845Y679868D01*
X242805Y680265D01*
X243789Y680600D01*
X244793Y680869D01*
X245813Y681071D01*
X246843Y681207D01*
X247880Y681275D01*
X248920Y681275D01*
X249957Y681207D01*
X250987Y681071D01*
X252007Y680869D01*
X253011Y680600D01*
X253995Y680265D01*
X254955Y679868D01*
X255887Y679408D01*
X256788Y678888D01*
X257652Y678311D01*
X258476Y677678D01*
X259258Y676993D01*
X259993Y676258D01*
X260678Y675476D01*
X261311Y674652D01*
X261888Y673788D01*
X262408Y672887D01*
X262868Y671955D01*
X263265Y670995D01*
X263600Y670011D01*
X263869Y669007D01*
X264071Y667987D01*
X264207Y666957D01*
X264275Y665920D01*
X264275Y664880D01*
X594475Y144180D02*
X594407Y143143D01*
X594271Y142113D01*
X594069Y141093D01*
X593800Y140089D01*
X593465Y139105D01*
X593068Y138145D01*
X592608Y137213D01*
X592088Y136312D01*
X591511Y135448D01*
X590878Y134624D01*
X590193Y133842D01*
X589458Y133107D01*
X588676Y132422D01*
X587852Y131789D01*
X586988Y131212D01*
X586087Y130692D01*
X585155Y130232D01*
X584195Y129835D01*
X583211Y129500D01*
X582207Y129231D01*
X581187Y129029D01*
X580157Y128893D01*
X579120Y128825D01*
X578080Y128825D01*
X577043Y128893D01*
X576013Y129029D01*
X574993Y129231D01*
X573989Y129500D01*
X573005Y129835D01*
X572045Y130232D01*
X571113Y130692D01*
X570212Y131212D01*
X569348Y131789D01*
X568524Y132422D01*
X567742Y133107D01*
X567007Y133842D01*
X566322Y134624D01*
X565689Y135448D01*
X565112Y136312D01*
X564592Y137213D01*
X564132Y138145D01*
X563735Y139105D01*
X563400Y140089D01*
X563131Y141093D01*
X562929Y142113D01*
X562793Y143143D01*
X562725Y144180D01*
X562725Y145220D01*
X562793Y146257D01*
X562929Y147287D01*
X563131Y148307D01*
X563400Y149311D01*
X563735Y150295D01*
X564132Y151255D01*
X564592Y152187D01*
X565112Y153088D01*
X565689Y153952D01*
X566322Y154776D01*
X567007Y155558D01*
X567742Y156293D01*
X568524Y156978D01*
X569348Y157611D01*
X570212Y158188D01*
X571113Y158708D01*
X572045Y159168D01*
X573005Y159565D01*
X573989Y159900D01*
X574993Y160169D01*
X576013Y160371D01*
X577043Y160507D01*
X578080Y160575D01*
X579120Y160575D01*
X580157Y160507D01*
X581187Y160371D01*
X582207Y160169D01*
X583211Y159900D01*
X584195Y159565D01*
X585155Y159168D01*
X586087Y158708D01*
X586988Y158188D01*
X587852Y157611D01*
X588676Y156978D01*
X589458Y156293D01*
X590193Y155558D01*
X590878Y154776D01*
X591511Y153952D01*
X592088Y153088D01*
X592608Y152187D01*
X593068Y151255D01*
X593465Y150295D01*
X593800Y149311D01*
X594069Y148307D01*
X594271Y147287D01*
X594407Y146257D01*
X594475Y145220D01*
X594475Y144180D01*
M02*
