G04 EAGLE Gerber RS-274X export*
G75*
%MOMM*%
%FSLAX34Y34*%
%LPD*%
%INSoldermask Bottom*%
%IPPOS*%
%AMOC8*
5,1,8,0,0,1.08239X$1,22.5*%
G01*
%ADD10C,2.203200*%
%ADD11R,2.053200X2.053200*%
%ADD12C,2.053200*%
%ADD13C,3.378200*%
%ADD14C,1.809200*%
%ADD15C,3.005700*%


D10*
X368089Y189422D03*
X418889Y189422D03*
D11*
X248400Y297100D03*
D12*
X248400Y271700D03*
X248400Y246300D03*
X248400Y220900D03*
X248400Y195500D03*
X248400Y170100D03*
D11*
X248400Y525700D03*
D12*
X248400Y500300D03*
X248400Y474900D03*
X248400Y449500D03*
X248400Y424100D03*
X248400Y398700D03*
X248400Y373300D03*
X248400Y347900D03*
D11*
X172200Y627300D03*
D12*
X197600Y627300D03*
X172200Y601900D03*
X197600Y601900D03*
X172200Y576500D03*
X197600Y576500D03*
X172200Y551100D03*
X197600Y551100D03*
X172200Y525700D03*
X197600Y525700D03*
X172200Y500300D03*
X197600Y500300D03*
X172200Y474900D03*
X197600Y474900D03*
X172200Y449500D03*
X197600Y449500D03*
X172200Y424100D03*
X197600Y424100D03*
X172200Y398700D03*
X197600Y398700D03*
X172200Y373300D03*
X197600Y373300D03*
X172200Y347900D03*
X197600Y347900D03*
X172200Y322500D03*
X197600Y322500D03*
X172200Y297100D03*
X197600Y297100D03*
X172200Y271700D03*
X197600Y271700D03*
X172200Y246300D03*
X197600Y246300D03*
X172200Y220900D03*
X197600Y220900D03*
X172200Y195500D03*
X197600Y195500D03*
X172200Y170100D03*
X197600Y170100D03*
D11*
X731000Y388540D03*
D12*
X731000Y413940D03*
X731000Y439340D03*
X731000Y464740D03*
X731000Y490140D03*
X731000Y515540D03*
X731000Y540940D03*
X731000Y566340D03*
X731000Y591740D03*
X731000Y617140D03*
X731000Y220900D03*
X731000Y246300D03*
X731000Y271700D03*
X731000Y297100D03*
X731000Y322500D03*
X731000Y347900D03*
D11*
X731000Y170100D03*
D12*
X731000Y195500D03*
D11*
X781800Y627050D03*
D12*
X807200Y627050D03*
X781800Y601650D03*
X807200Y601650D03*
X781800Y576250D03*
X807200Y576250D03*
X781800Y550850D03*
X807200Y550850D03*
X781800Y525450D03*
X807200Y525450D03*
X781800Y500050D03*
X807200Y500050D03*
X781800Y474650D03*
X807200Y474650D03*
X781800Y449250D03*
X807200Y449250D03*
X781800Y423850D03*
X807200Y423850D03*
X781800Y398450D03*
X807200Y398450D03*
X781800Y373050D03*
X807200Y373050D03*
X781800Y347650D03*
X807200Y347650D03*
X781800Y322250D03*
X807200Y322250D03*
X781800Y296850D03*
X807200Y296850D03*
X781800Y271450D03*
X807200Y271450D03*
X781800Y246050D03*
X807200Y246050D03*
X781800Y220650D03*
X807200Y220650D03*
X781800Y195250D03*
X807200Y195250D03*
X781800Y169850D03*
X807200Y169850D03*
D13*
X731000Y652700D03*
X248400Y665400D03*
X578600Y144700D03*
D14*
X552300Y279400D03*
X552300Y254400D03*
X552300Y304400D03*
D15*
X622300Y332900D03*
X622300Y225900D03*
M02*
