G04 EAGLE Gerber RS-274X export*
G75*
%MOMM*%
%FSLAX34Y34*%
%LPD*%
%INSolderpaste Top*%
%IPPOS*%
%AMOC8*
5,1,8,0,0,1.08239X$1,22.5*%
G01*
%ADD10R,1.500000X1.300000*%
%ADD11R,1.500000X1.500000*%
%ADD12R,1.300000X1.500000*%
%ADD13C,0.546100*%
%ADD14C,0.304800*%


D10*
X332740Y367640D03*
X332740Y348640D03*
D11*
X627100Y579120D03*
X592100Y579120D03*
D10*
X375920Y299060D03*
X375920Y280060D03*
X412750Y280060D03*
X412750Y299060D03*
D12*
X404470Y248934D03*
X385470Y248934D03*
D10*
X411480Y437540D03*
X411480Y456540D03*
X386080Y456540D03*
X386080Y437540D03*
D12*
X600100Y622300D03*
X619100Y622300D03*
D13*
X658813Y434531D02*
X658813Y429069D01*
X649287Y429069D01*
X649287Y434531D01*
X658813Y434531D01*
X658813Y434257D02*
X649287Y434257D01*
X658813Y454469D02*
X658813Y459931D01*
X658813Y454469D02*
X649287Y454469D01*
X649287Y459931D01*
X658813Y459931D01*
X658813Y459657D02*
X649287Y459657D01*
X658813Y479869D02*
X658813Y485331D01*
X658813Y479869D02*
X649287Y479869D01*
X649287Y485331D01*
X658813Y485331D01*
X658813Y485057D02*
X649287Y485057D01*
X658813Y505269D02*
X658813Y510731D01*
X658813Y505269D02*
X649287Y505269D01*
X649287Y510731D01*
X658813Y510731D01*
X658813Y510457D02*
X649287Y510457D01*
X569913Y434531D02*
X569913Y429069D01*
X560387Y429069D01*
X560387Y434531D01*
X569913Y434531D01*
X569913Y434257D02*
X560387Y434257D01*
X569913Y454469D02*
X569913Y459931D01*
X569913Y454469D02*
X560387Y454469D01*
X560387Y459931D01*
X569913Y459931D01*
X569913Y459657D02*
X560387Y459657D01*
X569913Y479869D02*
X569913Y485331D01*
X569913Y479869D02*
X560387Y479869D01*
X560387Y485331D01*
X569913Y485331D01*
X569913Y485057D02*
X560387Y485057D01*
X569913Y505269D02*
X569913Y510731D01*
X569913Y505269D02*
X560387Y505269D01*
X560387Y510731D01*
X569913Y510731D01*
X569913Y510457D02*
X560387Y510457D01*
D14*
X413766Y391414D02*
X413766Y378968D01*
X413766Y391414D02*
X416814Y391414D01*
X416814Y378968D01*
X413766Y378968D01*
X413766Y381864D02*
X416814Y381864D01*
X416814Y384760D02*
X413766Y384760D01*
X413766Y387656D02*
X416814Y387656D01*
X416814Y390552D02*
X413766Y390552D01*
X401066Y391414D02*
X401066Y378968D01*
X401066Y391414D02*
X404114Y391414D01*
X404114Y378968D01*
X401066Y378968D01*
X401066Y381864D02*
X404114Y381864D01*
X404114Y384760D02*
X401066Y384760D01*
X401066Y387656D02*
X404114Y387656D01*
X404114Y390552D02*
X401066Y390552D01*
X388366Y391414D02*
X388366Y378968D01*
X388366Y391414D02*
X391414Y391414D01*
X391414Y378968D01*
X388366Y378968D01*
X388366Y381864D02*
X391414Y381864D01*
X391414Y384760D02*
X388366Y384760D01*
X388366Y387656D02*
X391414Y387656D01*
X391414Y390552D02*
X388366Y390552D01*
X375666Y391414D02*
X375666Y378968D01*
X375666Y391414D02*
X378714Y391414D01*
X378714Y378968D01*
X375666Y378968D01*
X375666Y381864D02*
X378714Y381864D01*
X378714Y384760D02*
X375666Y384760D01*
X375666Y387656D02*
X378714Y387656D01*
X378714Y390552D02*
X375666Y390552D01*
X413766Y337312D02*
X413766Y324866D01*
X413766Y337312D02*
X416814Y337312D01*
X416814Y324866D01*
X413766Y324866D01*
X413766Y327762D02*
X416814Y327762D01*
X416814Y330658D02*
X413766Y330658D01*
X413766Y333554D02*
X416814Y333554D01*
X416814Y336450D02*
X413766Y336450D01*
X401066Y337312D02*
X401066Y324866D01*
X401066Y337312D02*
X404114Y337312D01*
X404114Y324866D01*
X401066Y324866D01*
X401066Y327762D02*
X404114Y327762D01*
X404114Y330658D02*
X401066Y330658D01*
X401066Y333554D02*
X404114Y333554D01*
X404114Y336450D02*
X401066Y336450D01*
X388366Y337312D02*
X388366Y324866D01*
X388366Y337312D02*
X391414Y337312D01*
X391414Y324866D01*
X388366Y324866D01*
X388366Y327762D02*
X391414Y327762D01*
X391414Y330658D02*
X388366Y330658D01*
X388366Y333554D02*
X391414Y333554D01*
X391414Y336450D02*
X388366Y336450D01*
X375666Y337312D02*
X375666Y324866D01*
X375666Y337312D02*
X378714Y337312D01*
X378714Y324866D01*
X375666Y324866D01*
X375666Y327762D02*
X378714Y327762D01*
X378714Y330658D02*
X375666Y330658D01*
X375666Y333554D02*
X378714Y333554D01*
X378714Y336450D02*
X375666Y336450D01*
D10*
X515620Y280060D03*
X515620Y299060D03*
M02*
