G04 EAGLE Gerber RS-274X export*
G75*
%MOMM*%
%FSLAX34Y34*%
%LPD*%
%INTop Copper*%
%IPPOS*%
%AMOC8*
5,1,8,0,0,1.08239X$1,22.5*%
G01*
%ADD10R,1.100000X1.000000*%
%ADD11R,1.500000X1.300000*%
%ADD12R,0.350000X0.250000*%
%ADD13R,1.300000X1.500000*%
%ADD14C,1.108000*%
%ADD15C,2.340000*%
%ADD16C,0.265000*%
%ADD17R,6.000000X9.600000*%
%ADD18C,0.127000*%
%ADD19C,0.452400*%


D10*
X448700Y372800D03*
X465700Y372800D03*
D11*
X423800Y287100D03*
X423800Y306100D03*
D12*
X397200Y140400D03*
X397200Y145400D03*
X347200Y139600D03*
X347200Y144600D03*
D10*
X515200Y372800D03*
X532200Y372800D03*
D13*
X264500Y371200D03*
X283500Y371200D03*
X358700Y371200D03*
X377700Y371200D03*
X142900Y371200D03*
X161900Y371200D03*
D14*
X42600Y492600D03*
X42600Y467200D03*
X42600Y441800D03*
X42600Y416400D03*
X42600Y391000D03*
X42600Y365600D03*
X42600Y340200D03*
X42600Y314800D03*
X42600Y289400D03*
X42600Y264000D03*
X42600Y238600D03*
X42600Y213200D03*
X42600Y187800D03*
X42600Y162400D03*
X42600Y137000D03*
X42600Y111600D03*
X42600Y86200D03*
X42600Y60800D03*
X42600Y35400D03*
X68000Y35400D03*
X68000Y60800D03*
X68000Y86200D03*
X68000Y111600D03*
X68000Y137000D03*
X68000Y162400D03*
X68000Y187800D03*
X68000Y213200D03*
X68000Y238600D03*
X68000Y264000D03*
X68000Y289400D03*
X68000Y314800D03*
X68000Y340200D03*
X68000Y365600D03*
X68000Y391000D03*
X68000Y416400D03*
X68000Y441800D03*
X68000Y467200D03*
X68000Y492600D03*
X651200Y492600D03*
X651200Y467200D03*
X651200Y441800D03*
X651200Y416400D03*
X651200Y391000D03*
X651200Y365600D03*
X651200Y340200D03*
X651200Y314800D03*
X651200Y289400D03*
X651200Y264000D03*
X651200Y238600D03*
X651200Y213200D03*
X651200Y187800D03*
X651200Y162400D03*
X651200Y137000D03*
X651200Y111600D03*
X651200Y86200D03*
X651200Y60800D03*
X651200Y35400D03*
X676600Y35400D03*
X676600Y60800D03*
X676600Y86200D03*
X676600Y111600D03*
X676600Y137000D03*
X676600Y162400D03*
X676600Y187800D03*
X676600Y213200D03*
X676600Y238600D03*
X676600Y264000D03*
X676600Y289400D03*
X676600Y314800D03*
X676600Y340200D03*
X676600Y365600D03*
X676600Y391000D03*
X676600Y416400D03*
X676600Y441800D03*
X676600Y467200D03*
X676600Y492600D03*
D15*
X239089Y56050D03*
X289889Y56050D03*
X392711Y465850D03*
X341911Y465850D03*
X291111Y465850D03*
X351189Y54050D03*
X401989Y54050D03*
X126489Y54050D03*
X177289Y54050D03*
D16*
X219350Y301375D02*
X229700Y301375D01*
X219350Y301375D02*
X219350Y304025D01*
X229700Y304025D01*
X229700Y301375D01*
X229700Y303892D02*
X219350Y303892D01*
X219350Y288675D02*
X229700Y288675D01*
X219350Y288675D02*
X219350Y291325D01*
X229700Y291325D01*
X229700Y288675D01*
X229700Y291192D02*
X219350Y291192D01*
X219350Y275975D02*
X229700Y275975D01*
X219350Y275975D02*
X219350Y278625D01*
X229700Y278625D01*
X229700Y275975D01*
X229700Y278492D02*
X219350Y278492D01*
X219350Y263275D02*
X229700Y263275D01*
X219350Y263275D02*
X219350Y265925D01*
X229700Y265925D01*
X229700Y263275D01*
X229700Y265792D02*
X219350Y265792D01*
X219350Y250575D02*
X229700Y250575D01*
X219350Y250575D02*
X219350Y253225D01*
X229700Y253225D01*
X229700Y250575D01*
X229700Y253092D02*
X219350Y253092D01*
X219350Y237875D02*
X229700Y237875D01*
X219350Y237875D02*
X219350Y240525D01*
X229700Y240525D01*
X229700Y237875D01*
X229700Y240392D02*
X219350Y240392D01*
X219350Y225175D02*
X229700Y225175D01*
X219350Y225175D02*
X219350Y227825D01*
X229700Y227825D01*
X229700Y225175D01*
X229700Y227692D02*
X219350Y227692D01*
X219350Y212475D02*
X229700Y212475D01*
X219350Y212475D02*
X219350Y215125D01*
X229700Y215125D01*
X229700Y212475D01*
X229700Y214992D02*
X219350Y214992D01*
X219350Y199775D02*
X229700Y199775D01*
X219350Y199775D02*
X219350Y202425D01*
X229700Y202425D01*
X229700Y199775D01*
X229700Y202292D02*
X219350Y202292D01*
X219350Y187075D02*
X229700Y187075D01*
X219350Y187075D02*
X219350Y189725D01*
X229700Y189725D01*
X229700Y187075D01*
X229700Y189592D02*
X219350Y189592D01*
X349775Y288675D02*
X360125Y288675D01*
X349775Y288675D02*
X349775Y291325D01*
X360125Y291325D01*
X360125Y288675D01*
X360125Y291192D02*
X349775Y291192D01*
X349775Y275975D02*
X360125Y275975D01*
X349775Y275975D02*
X349775Y278625D01*
X360125Y278625D01*
X360125Y275975D01*
X360125Y278492D02*
X349775Y278492D01*
X349775Y263275D02*
X360125Y263275D01*
X349775Y263275D02*
X349775Y265925D01*
X360125Y265925D01*
X360125Y263275D01*
X360125Y265792D02*
X349775Y265792D01*
X349775Y250575D02*
X360125Y250575D01*
X349775Y250575D02*
X349775Y253225D01*
X360125Y253225D01*
X360125Y250575D01*
X360125Y253092D02*
X349775Y253092D01*
X349775Y237875D02*
X360125Y237875D01*
X349775Y237875D02*
X349775Y240525D01*
X360125Y240525D01*
X360125Y237875D01*
X360125Y240392D02*
X349775Y240392D01*
X349775Y225175D02*
X360125Y225175D01*
X349775Y225175D02*
X349775Y227825D01*
X360125Y227825D01*
X360125Y225175D01*
X360125Y227692D02*
X349775Y227692D01*
X349775Y212475D02*
X360125Y212475D01*
X349775Y212475D02*
X349775Y215125D01*
X360125Y215125D01*
X360125Y212475D01*
X360125Y214992D02*
X349775Y214992D01*
X349775Y199775D02*
X360125Y199775D01*
X349775Y199775D02*
X349775Y202425D01*
X360125Y202425D01*
X360125Y199775D01*
X360125Y202292D02*
X349775Y202292D01*
X349775Y187075D02*
X360125Y187075D01*
X349775Y187075D02*
X349775Y189725D01*
X360125Y189725D01*
X360125Y187075D01*
X360125Y189592D02*
X349775Y189592D01*
X349775Y301375D02*
X360125Y301375D01*
X349775Y301375D02*
X349775Y304025D01*
X360125Y304025D01*
X360125Y301375D01*
X360125Y303892D02*
X349775Y303892D01*
D17*
X290000Y245000D03*
D18*
X392430Y289560D02*
X421640Y289560D01*
X392430Y289560D02*
X355600Y289560D01*
X421640Y289560D02*
X422910Y288290D01*
X355600Y289560D02*
X354950Y290000D01*
X422910Y288290D02*
X423800Y287100D01*
X414020Y373380D02*
X448310Y373380D01*
X414020Y373380D02*
X327660Y459740D01*
X327660Y471170D01*
X336550Y480060D01*
X378460Y480060D01*
X392430Y466090D01*
X448310Y373380D02*
X448700Y372800D01*
X392711Y465850D02*
X392430Y466090D01*
X392430Y300990D02*
X392430Y289560D01*
D19*
X392430Y300990D03*
D18*
X397510Y139700D02*
X397510Y58420D01*
X401320Y54610D01*
X397510Y139700D02*
X397200Y140400D01*
X401320Y54610D02*
X401989Y54050D01*
X227330Y226060D02*
X224790Y226060D01*
X227330Y226060D02*
X336550Y116840D01*
X336550Y48260D01*
X345440Y39370D01*
X378460Y39370D01*
X397510Y58420D01*
X224790Y226060D02*
X224525Y226500D01*
X397510Y58420D02*
X401989Y54050D01*
X347980Y57150D02*
X347980Y138430D01*
X347980Y57150D02*
X350520Y54610D01*
X347980Y138430D02*
X347200Y139600D01*
X350520Y54610D02*
X351189Y54050D01*
X351790Y226060D02*
X354330Y226060D01*
X351790Y226060D02*
X342900Y217170D01*
X342900Y142240D01*
X346710Y138430D01*
X354330Y226060D02*
X354950Y226500D01*
X347200Y139600D02*
X346710Y138430D01*
X351790Y252730D02*
X354330Y252730D01*
X351790Y252730D02*
X325120Y279400D01*
X325120Y330200D01*
X284480Y370840D01*
X354330Y252730D02*
X354950Y251900D01*
X284480Y370840D02*
X283500Y371200D01*
X355600Y214630D02*
X358140Y214630D01*
X367030Y223520D01*
X367030Y229870D01*
X363220Y233680D01*
X349250Y233680D01*
X322580Y260350D01*
X322580Y314960D01*
X274320Y363220D01*
X274320Y379730D01*
X275590Y381000D01*
X368300Y381000D01*
X377190Y372110D01*
X355600Y214630D02*
X354950Y213800D01*
X377700Y371200D02*
X377190Y372110D01*
X457200Y289560D02*
X650240Y289560D01*
X457200Y289560D02*
X392430Y354330D01*
X381000Y354330D01*
X377190Y358140D01*
X377190Y370840D01*
X650240Y289560D02*
X651200Y289400D01*
X377700Y371200D02*
X377190Y370840D01*
X552450Y365760D02*
X650240Y365760D01*
X552450Y365760D02*
X466090Y452120D01*
X355600Y452120D01*
X342900Y464820D01*
X650240Y365760D02*
X651200Y365600D01*
X342900Y464820D02*
X341911Y465850D01*
X223520Y290830D02*
X162560Y351790D01*
X162560Y359410D02*
X162560Y370840D01*
X162560Y359410D02*
X162560Y351790D01*
X223520Y290830D02*
X224525Y290000D01*
X162560Y370840D02*
X161900Y371200D01*
X499110Y372110D02*
X514350Y372110D01*
X499110Y372110D02*
X486410Y359410D01*
X382270Y359410D01*
X514350Y372110D02*
X515200Y372800D01*
D19*
X382270Y359410D03*
X162560Y359410D03*
D18*
X220980Y214630D02*
X223520Y214630D01*
X220980Y214630D02*
X143510Y292100D01*
X143510Y370840D01*
X223520Y214630D02*
X224525Y213800D01*
X143510Y370840D02*
X142900Y371200D01*
X54610Y466090D02*
X43180Y466090D01*
X54610Y466090D02*
X142240Y378460D01*
X142240Y372110D01*
X43180Y466090D02*
X42600Y467200D01*
X142240Y372110D02*
X142900Y371200D01*
X224790Y200660D02*
X224790Y189230D01*
X224525Y188400D01*
X224790Y200660D02*
X224525Y201100D01*
X233680Y293370D02*
X224790Y302260D01*
X233680Y293370D02*
X233680Y261620D01*
X228600Y256540D01*
X217170Y256540D01*
X215900Y255270D01*
X215900Y233680D02*
X215900Y223520D01*
X215900Y233680D02*
X215900Y255270D01*
X215900Y223520D02*
X220980Y218440D01*
X231140Y218440D01*
X233680Y215900D01*
X233680Y210820D01*
X224790Y201930D01*
X224790Y302260D02*
X224525Y302700D01*
X224790Y201930D02*
X224525Y201100D01*
X289560Y123190D02*
X289560Y57150D01*
X289560Y123190D02*
X224790Y187960D01*
X289560Y57150D02*
X289889Y56050D01*
X224790Y187960D02*
X224525Y188400D01*
X355600Y306070D02*
X355600Y368300D01*
X355600Y306070D02*
X355600Y303530D01*
X355600Y368300D02*
X358140Y370840D01*
X355600Y303530D02*
X354950Y302700D01*
X358140Y370840D02*
X358700Y371200D01*
X355600Y306070D02*
X422910Y306070D01*
X423800Y306100D01*
X347980Y181610D02*
X347980Y146050D01*
X347980Y144780D01*
X347980Y181610D02*
X354330Y187960D01*
X347980Y144780D02*
X347200Y144600D01*
X354330Y187960D02*
X354950Y188400D01*
X347980Y146050D02*
X396240Y146050D01*
X397200Y145400D01*
X355600Y189230D02*
X355600Y200660D01*
X354950Y201100D01*
X355600Y189230D02*
X354950Y188400D01*
X354330Y201930D02*
X345440Y210820D01*
X345440Y215900D01*
X350520Y220980D01*
X360680Y220980D01*
X364490Y224790D01*
X364490Y228600D01*
X361950Y231140D01*
X303530Y231140D01*
X290830Y243840D01*
X354330Y201930D02*
X354950Y201100D01*
X290830Y243840D02*
X290000Y245000D01*
X345440Y293370D02*
X354330Y302260D01*
X345440Y293370D02*
X345440Y262890D01*
X351790Y256540D01*
X361950Y256540D01*
X375920Y242570D01*
X375920Y222250D01*
X355600Y201930D01*
X354330Y302260D02*
X354950Y302700D01*
X355600Y201930D02*
X354950Y201100D01*
X279400Y233680D02*
X264160Y233680D01*
X215900Y233680D01*
X279400Y233680D02*
X289560Y243840D01*
X290000Y245000D01*
X466090Y373380D02*
X496570Y373380D01*
X502920Y379730D01*
X525780Y379730D01*
X532130Y373380D01*
X466090Y373380D02*
X465700Y372800D01*
X532130Y373380D02*
X532200Y372800D01*
X265430Y383540D02*
X265430Y439420D01*
X265430Y383540D02*
X265430Y372110D01*
X265430Y439420D02*
X290830Y464820D01*
X265430Y372110D02*
X264500Y371200D01*
X290830Y464820D02*
X291111Y465850D01*
X58420Y491490D02*
X43180Y491490D01*
X58420Y491490D02*
X110490Y439420D01*
X265430Y439420D01*
X43180Y491490D02*
X42600Y492600D01*
X462280Y372110D02*
X464820Y372110D01*
X462280Y372110D02*
X455930Y365760D01*
X400050Y365760D01*
X382270Y383540D01*
X265430Y383540D01*
X464820Y372110D02*
X465700Y372800D01*
X264160Y370840D02*
X264160Y233680D01*
X290000Y245000D01*
X264160Y370840D02*
X264500Y371200D01*
X236220Y251460D02*
X224790Y240030D01*
X236220Y251460D02*
X236220Y313690D01*
X113030Y436880D01*
X97790Y436880D01*
X68580Y466090D01*
X224790Y240030D02*
X224525Y239200D01*
X68580Y466090D02*
X68000Y467200D01*
X355600Y276860D02*
X637540Y276860D01*
X650240Y264160D01*
X355600Y276860D02*
X354950Y277300D01*
X650240Y264160D02*
X651200Y264000D01*
X640080Y264160D02*
X355600Y264160D01*
X640080Y264160D02*
X647700Y256540D01*
X655320Y256540D01*
X659130Y260350D01*
X659130Y306070D01*
X651510Y313690D01*
X355600Y264160D02*
X354950Y264600D01*
X651200Y314800D02*
X651510Y313690D01*
X223520Y278130D02*
X152400Y349250D01*
X152400Y378460D01*
X71120Y459740D01*
X64770Y459740D01*
X34290Y490220D01*
X34290Y495300D01*
X39370Y500380D01*
X59690Y500380D01*
X67310Y492760D01*
X223520Y278130D02*
X224525Y277300D01*
X68000Y492600D02*
X67310Y492760D01*
X355600Y240030D02*
X370840Y240030D01*
X355600Y240030D02*
X354950Y239200D01*
D19*
X370840Y240030D03*
D18*
X95250Y135890D02*
X68580Y135890D01*
X95250Y135890D02*
X176530Y54610D01*
X68580Y135890D02*
X68000Y137000D01*
X176530Y54610D02*
X177289Y54050D01*
M02*
