G04 EAGLE Gerber RS-274X export*
G75*
%MOMM*%
%FSLAX34Y34*%
%LPD*%
%INSoldermask Top*%
%IPPOS*%
%AMOC8*
5,1,8,0,0,1.08239X$1,22.5*%
G01*
%ADD10C,3.903200*%
%ADD11C,3.203200*%
%ADD12R,1.303200X1.203200*%
%ADD13R,1.703200X1.503200*%
%ADD14R,0.553200X0.453200*%
%ADD15R,1.503200X1.703200*%
%ADD16C,1.311200*%
%ADD17C,2.543200*%
%ADD18C,0.469247*%
%ADD19R,6.203200X9.803200*%
%ADD20C,0.655600*%


D10*
X110000Y555000D03*
X610000Y525000D03*
D11*
X450000Y10000D03*
D12*
X448700Y372800D03*
X465700Y372800D03*
D13*
X423800Y287100D03*
X423800Y306100D03*
D14*
X397200Y140400D03*
X397200Y145400D03*
X347200Y139600D03*
X347200Y144600D03*
D12*
X515200Y372800D03*
X532200Y372800D03*
D15*
X264500Y371200D03*
X283500Y371200D03*
X358700Y371200D03*
X377700Y371200D03*
X142900Y371200D03*
X161900Y371200D03*
D16*
X42600Y492600D03*
X42600Y467200D03*
X42600Y441800D03*
X42600Y416400D03*
X42600Y391000D03*
X42600Y365600D03*
X42600Y340200D03*
X42600Y314800D03*
X42600Y289400D03*
X42600Y264000D03*
X42600Y238600D03*
X42600Y213200D03*
X42600Y187800D03*
X42600Y162400D03*
X42600Y137000D03*
X42600Y111600D03*
X42600Y86200D03*
X42600Y60800D03*
X42600Y35400D03*
X68000Y35400D03*
X68000Y60800D03*
X68000Y86200D03*
X68000Y111600D03*
X68000Y137000D03*
X68000Y162400D03*
X68000Y187800D03*
X68000Y213200D03*
X68000Y238600D03*
X68000Y264000D03*
X68000Y289400D03*
X68000Y314800D03*
X68000Y340200D03*
X68000Y365600D03*
X68000Y391000D03*
X68000Y416400D03*
X68000Y441800D03*
X68000Y467200D03*
X68000Y492600D03*
X651200Y492600D03*
X651200Y467200D03*
X651200Y441800D03*
X651200Y416400D03*
X651200Y391000D03*
X651200Y365600D03*
X651200Y340200D03*
X651200Y314800D03*
X651200Y289400D03*
X651200Y264000D03*
X651200Y238600D03*
X651200Y213200D03*
X651200Y187800D03*
X651200Y162400D03*
X651200Y137000D03*
X651200Y111600D03*
X651200Y86200D03*
X651200Y60800D03*
X651200Y35400D03*
X676600Y35400D03*
X676600Y60800D03*
X676600Y86200D03*
X676600Y111600D03*
X676600Y137000D03*
X676600Y162400D03*
X676600Y187800D03*
X676600Y213200D03*
X676600Y238600D03*
X676600Y264000D03*
X676600Y289400D03*
X676600Y314800D03*
X676600Y340200D03*
X676600Y365600D03*
X676600Y391000D03*
X676600Y416400D03*
X676600Y441800D03*
X676600Y467200D03*
X676600Y492600D03*
D17*
X239089Y56050D03*
X289889Y56050D03*
X392711Y465850D03*
X341911Y465850D03*
X291111Y465850D03*
X351189Y54050D03*
X401989Y54050D03*
X126489Y54050D03*
X177289Y54050D03*
D18*
X219355Y301380D02*
X229695Y301380D01*
X219355Y301380D02*
X219355Y304020D01*
X229695Y304020D01*
X229695Y301380D01*
X229695Y288680D02*
X219355Y288680D01*
X219355Y291320D01*
X229695Y291320D01*
X229695Y288680D01*
X229695Y275980D02*
X219355Y275980D01*
X219355Y278620D01*
X229695Y278620D01*
X229695Y275980D01*
X229695Y263280D02*
X219355Y263280D01*
X219355Y265920D01*
X229695Y265920D01*
X229695Y263280D01*
X229695Y250580D02*
X219355Y250580D01*
X219355Y253220D01*
X229695Y253220D01*
X229695Y250580D01*
X229695Y237880D02*
X219355Y237880D01*
X219355Y240520D01*
X229695Y240520D01*
X229695Y237880D01*
X229695Y225180D02*
X219355Y225180D01*
X219355Y227820D01*
X229695Y227820D01*
X229695Y225180D01*
X229695Y212480D02*
X219355Y212480D01*
X219355Y215120D01*
X229695Y215120D01*
X229695Y212480D01*
X229695Y199780D02*
X219355Y199780D01*
X219355Y202420D01*
X229695Y202420D01*
X229695Y199780D01*
X229695Y187080D02*
X219355Y187080D01*
X219355Y189720D01*
X229695Y189720D01*
X229695Y187080D01*
X349780Y288680D02*
X360120Y288680D01*
X349780Y288680D02*
X349780Y291320D01*
X360120Y291320D01*
X360120Y288680D01*
X360120Y275980D02*
X349780Y275980D01*
X349780Y278620D01*
X360120Y278620D01*
X360120Y275980D01*
X360120Y263280D02*
X349780Y263280D01*
X349780Y265920D01*
X360120Y265920D01*
X360120Y263280D01*
X360120Y250580D02*
X349780Y250580D01*
X349780Y253220D01*
X360120Y253220D01*
X360120Y250580D01*
X360120Y237880D02*
X349780Y237880D01*
X349780Y240520D01*
X360120Y240520D01*
X360120Y237880D01*
X360120Y225180D02*
X349780Y225180D01*
X349780Y227820D01*
X360120Y227820D01*
X360120Y225180D01*
X360120Y212480D02*
X349780Y212480D01*
X349780Y215120D01*
X360120Y215120D01*
X360120Y212480D01*
X360120Y199780D02*
X349780Y199780D01*
X349780Y202420D01*
X360120Y202420D01*
X360120Y199780D01*
X360120Y187080D02*
X349780Y187080D01*
X349780Y189720D01*
X360120Y189720D01*
X360120Y187080D01*
X360120Y301380D02*
X349780Y301380D01*
X349780Y304020D01*
X360120Y304020D01*
X360120Y301380D01*
D19*
X290000Y245000D03*
D20*
X392430Y300990D03*
X382270Y359410D03*
X162560Y359410D03*
X370840Y240030D03*
M02*
