G04 EAGLE Gerber RS-274X export*
G75*
%MOMM*%
%FSLAX34Y34*%
%LPD*%
%INSoldermask Bottom*%
%IPPOS*%
%AMOC8*
5,1,8,0,0,1.08239X$1,22.5*%
G01*
%ADD10C,3.903200*%
%ADD11C,3.203200*%
%ADD12C,1.311200*%
%ADD13C,2.543200*%
%ADD14C,0.655600*%


D10*
X110000Y555000D03*
X610000Y525000D03*
D11*
X450000Y10000D03*
D12*
X42600Y492600D03*
X42600Y467200D03*
X42600Y441800D03*
X42600Y416400D03*
X42600Y391000D03*
X42600Y365600D03*
X42600Y340200D03*
X42600Y314800D03*
X42600Y289400D03*
X42600Y264000D03*
X42600Y238600D03*
X42600Y213200D03*
X42600Y187800D03*
X42600Y162400D03*
X42600Y137000D03*
X42600Y111600D03*
X42600Y86200D03*
X42600Y60800D03*
X42600Y35400D03*
X68000Y35400D03*
X68000Y60800D03*
X68000Y86200D03*
X68000Y111600D03*
X68000Y137000D03*
X68000Y162400D03*
X68000Y187800D03*
X68000Y213200D03*
X68000Y238600D03*
X68000Y264000D03*
X68000Y289400D03*
X68000Y314800D03*
X68000Y340200D03*
X68000Y365600D03*
X68000Y391000D03*
X68000Y416400D03*
X68000Y441800D03*
X68000Y467200D03*
X68000Y492600D03*
X651200Y492600D03*
X651200Y467200D03*
X651200Y441800D03*
X651200Y416400D03*
X651200Y391000D03*
X651200Y365600D03*
X651200Y340200D03*
X651200Y314800D03*
X651200Y289400D03*
X651200Y264000D03*
X651200Y238600D03*
X651200Y213200D03*
X651200Y187800D03*
X651200Y162400D03*
X651200Y137000D03*
X651200Y111600D03*
X651200Y86200D03*
X651200Y60800D03*
X651200Y35400D03*
X676600Y35400D03*
X676600Y60800D03*
X676600Y86200D03*
X676600Y111600D03*
X676600Y137000D03*
X676600Y162400D03*
X676600Y187800D03*
X676600Y213200D03*
X676600Y238600D03*
X676600Y264000D03*
X676600Y289400D03*
X676600Y314800D03*
X676600Y340200D03*
X676600Y365600D03*
X676600Y391000D03*
X676600Y416400D03*
X676600Y441800D03*
X676600Y467200D03*
X676600Y492600D03*
D13*
X239089Y56050D03*
X289889Y56050D03*
X392711Y465850D03*
X341911Y465850D03*
X291111Y465850D03*
X351189Y54050D03*
X401989Y54050D03*
X126489Y54050D03*
X177289Y54050D03*
D14*
X392430Y300990D03*
X382270Y359410D03*
X162560Y359410D03*
X370840Y240030D03*
M02*
