G04 EAGLE Gerber RS-274X export*
G75*
%MOMM*%
%FSLAX34Y34*%
%LPD*%
%INSolderpaste Top*%
%IPPOS*%
%AMOC8*
5,1,8,0,0,1.08239X$1,22.5*%
G01*
%ADD10R,1.100000X1.000000*%
%ADD11R,1.500000X1.300000*%
%ADD12R,0.350000X0.250000*%
%ADD13R,1.300000X1.500000*%
%ADD14C,0.265000*%
%ADD15R,6.000000X9.600000*%


D10*
X448700Y372800D03*
X465700Y372800D03*
D11*
X423800Y287100D03*
X423800Y306100D03*
D12*
X397200Y140400D03*
X397200Y145400D03*
X347200Y139600D03*
X347200Y144600D03*
D10*
X515200Y372800D03*
X532200Y372800D03*
D13*
X264500Y371200D03*
X283500Y371200D03*
X358700Y371200D03*
X377700Y371200D03*
X142900Y371200D03*
X161900Y371200D03*
D14*
X219350Y301375D02*
X229700Y301375D01*
X219350Y301375D02*
X219350Y304025D01*
X229700Y304025D01*
X229700Y301375D01*
X229700Y303892D02*
X219350Y303892D01*
X219350Y288675D02*
X229700Y288675D01*
X219350Y288675D02*
X219350Y291325D01*
X229700Y291325D01*
X229700Y288675D01*
X229700Y291192D02*
X219350Y291192D01*
X219350Y275975D02*
X229700Y275975D01*
X219350Y275975D02*
X219350Y278625D01*
X229700Y278625D01*
X229700Y275975D01*
X229700Y278492D02*
X219350Y278492D01*
X219350Y263275D02*
X229700Y263275D01*
X219350Y263275D02*
X219350Y265925D01*
X229700Y265925D01*
X229700Y263275D01*
X229700Y265792D02*
X219350Y265792D01*
X219350Y250575D02*
X229700Y250575D01*
X219350Y250575D02*
X219350Y253225D01*
X229700Y253225D01*
X229700Y250575D01*
X229700Y253092D02*
X219350Y253092D01*
X219350Y237875D02*
X229700Y237875D01*
X219350Y237875D02*
X219350Y240525D01*
X229700Y240525D01*
X229700Y237875D01*
X229700Y240392D02*
X219350Y240392D01*
X219350Y225175D02*
X229700Y225175D01*
X219350Y225175D02*
X219350Y227825D01*
X229700Y227825D01*
X229700Y225175D01*
X229700Y227692D02*
X219350Y227692D01*
X219350Y212475D02*
X229700Y212475D01*
X219350Y212475D02*
X219350Y215125D01*
X229700Y215125D01*
X229700Y212475D01*
X229700Y214992D02*
X219350Y214992D01*
X219350Y199775D02*
X229700Y199775D01*
X219350Y199775D02*
X219350Y202425D01*
X229700Y202425D01*
X229700Y199775D01*
X229700Y202292D02*
X219350Y202292D01*
X219350Y187075D02*
X229700Y187075D01*
X219350Y187075D02*
X219350Y189725D01*
X229700Y189725D01*
X229700Y187075D01*
X229700Y189592D02*
X219350Y189592D01*
X349775Y288675D02*
X360125Y288675D01*
X349775Y288675D02*
X349775Y291325D01*
X360125Y291325D01*
X360125Y288675D01*
X360125Y291192D02*
X349775Y291192D01*
X349775Y275975D02*
X360125Y275975D01*
X349775Y275975D02*
X349775Y278625D01*
X360125Y278625D01*
X360125Y275975D01*
X360125Y278492D02*
X349775Y278492D01*
X349775Y263275D02*
X360125Y263275D01*
X349775Y263275D02*
X349775Y265925D01*
X360125Y265925D01*
X360125Y263275D01*
X360125Y265792D02*
X349775Y265792D01*
X349775Y250575D02*
X360125Y250575D01*
X349775Y250575D02*
X349775Y253225D01*
X360125Y253225D01*
X360125Y250575D01*
X360125Y253092D02*
X349775Y253092D01*
X349775Y237875D02*
X360125Y237875D01*
X349775Y237875D02*
X349775Y240525D01*
X360125Y240525D01*
X360125Y237875D01*
X360125Y240392D02*
X349775Y240392D01*
X349775Y225175D02*
X360125Y225175D01*
X349775Y225175D02*
X349775Y227825D01*
X360125Y227825D01*
X360125Y225175D01*
X360125Y227692D02*
X349775Y227692D01*
X349775Y212475D02*
X360125Y212475D01*
X349775Y212475D02*
X349775Y215125D01*
X360125Y215125D01*
X360125Y212475D01*
X360125Y214992D02*
X349775Y214992D01*
X349775Y199775D02*
X360125Y199775D01*
X349775Y199775D02*
X349775Y202425D01*
X360125Y202425D01*
X360125Y199775D01*
X360125Y202292D02*
X349775Y202292D01*
X349775Y187075D02*
X360125Y187075D01*
X349775Y187075D02*
X349775Y189725D01*
X360125Y189725D01*
X360125Y187075D01*
X360125Y189592D02*
X349775Y189592D01*
X349775Y301375D02*
X360125Y301375D01*
X349775Y301375D02*
X349775Y304025D01*
X360125Y304025D01*
X360125Y301375D01*
X360125Y303892D02*
X349775Y303892D01*
D15*
X290000Y245000D03*
M02*
