M48
;GenerationSoftware,Autodesk,EAGLE,9.6.2*%
;CreationDate,2022-11-17T02:06:14Z*%
FMAT,2
ICI,OFF
METRIC,TZ,000.000
T8C0.300
T7C0.350
T6C0.900
T5C1.100
T4C1.300
T3C1.500
T2C3.100
T1C3.175
%
G90
M71
T1
X68130Y79158
X19870Y80428
X52890Y28358
T2
X15895Y7100
X40885Y7100
T3
X10300Y15200
X10300Y22300
X22000Y17800
X51500Y66700
X44200Y33900
X65300Y47300
X45800Y7000
X10200Y11900
X45600Y15000
X64200Y27600
X48900Y35300
X48300Y40700
X48200Y45400
X61300Y70000
X70600Y60900
X58800Y60100
X55500Y17600
X60800Y26900
X71800Y28000
X22100Y29300
T4
X30591Y80475
X4325Y77481
X4325Y82561
X4425Y66371
X4325Y33111
X4387Y55301
X4387Y60381
X4425Y44181
X4425Y49261
X4487Y10791
X83875Y49649
X83875Y44569
X4325Y21981
X4325Y27061
X83775Y38519
X83775Y33439
X4325Y38191
X83913Y27459
X83913Y22379
X84013Y71829
X84013Y66749
X85399Y3587
X80319Y3587
X83775Y16369
X83775Y11289
X8439Y3787
X4425Y71451
X3359Y3787
X4487Y15871
X84075Y82949
X84075Y77869
X83875Y60627
X83875Y55547
X25511Y80475
T5
X68130Y41058
X68130Y43598
X68130Y46138
X68130Y48678
X68130Y30898
X68130Y33438
X73210Y76593
X75750Y76593
X73210Y74053
X75750Y74053
X73210Y71513
X75750Y71513
X73210Y68973
X75750Y68973
X73210Y66433
X75750Y66433
X73210Y63893
X75750Y63893
X73210Y61353
X75750Y61353
X73210Y58813
X75750Y58813
X73210Y56273
X75750Y56273
X73210Y53733
X75750Y53733
X73210Y51193
X75750Y51193
X73210Y48653
X75750Y48653
X73210Y46113
X75750Y46113
X73210Y43573
X75750Y43573
X73210Y41033
X75750Y41033
X73210Y38493
X75750Y38493
X73210Y35953
X75750Y35953
X75750Y33413
X73210Y30873
X75750Y30873
X73210Y33413
X19870Y43598
X19870Y41058
X19870Y38518
X19870Y35978
X19870Y33438
X19870Y30898
X19870Y66458
X19870Y63918
X19870Y61378
X19870Y58838
X19870Y56298
X19870Y53758
X19870Y51218
X19870Y48678
X12250Y76618
X14790Y76618
X12250Y74078
X14790Y74078
X12250Y71538
X14790Y71538
X12250Y68998
X14790Y68998
X12250Y66458
X14790Y66458
X12250Y63918
X14790Y63918
X12250Y61378
X14790Y61378
X12250Y58838
X14790Y58838
X12250Y56298
X14790Y56298
X12250Y53758
X14790Y53758
X12250Y51218
X14790Y51218
X12250Y48678
X14790Y48678
X12250Y46138
X14790Y46138
X12250Y43598
X14790Y43598
X12250Y41058
X14790Y41058
X12250Y38518
X14790Y38518
X12250Y35978
X14790Y35978
X12250Y33438
X14790Y33438
X12250Y30898
X14790Y30898
X68130Y52742
X68130Y55282
X68130Y57822
X68130Y60362
X68130Y62902
X68130Y65442
X68130Y67982
X68130Y70522
X68130Y73062
X68130Y75602
X68130Y35978
X68130Y38518
T6
X28390Y8520
X33870Y8520
X31130Y8520
X24280Y5680
X27020Y5680
X29760Y5680
X32500Y5680
X22910Y8520
X25650Y8520
T7
X24112Y18113
X60400Y18400
X52400Y17900
X34200Y14800
X19000Y15100
X53300Y41800
X24100Y16800
X55500Y10500
X56200Y3500
X59900Y56800
X58200Y51300
X60293Y44700
X55800Y35100
X57300Y39800
X66000Y19300
X46400Y17000
X48200Y15700
X62600Y29400
X51800Y35900
X53500Y35900
X50100Y40900
X49900Y47100
X53117Y47367
T8
X37300Y14900
X37800Y21300
X25900Y33200
X51200Y15200
X29610Y44940
X51500Y8500
X42900Y64900
X45500Y61900
X19600Y22500
X21000Y23900
X30807Y38000
X67900Y25400
X67900Y27000
X74300Y22400
X74300Y27100
X26393Y59100
X28300Y59100
X39093Y59100
X40600Y59100
X51903Y51300
X53600Y51400
X27600Y14900
X21700Y72816
X28050Y60250
X18400Y35500
X18329Y32171
X62600Y30800
X59600Y30300
X51100Y74300
X40100Y64600
X61400Y29300
X58800Y29300
X28100Y51800
X26493Y51800
X60000Y51800
X62000Y51800
X43000Y61900
X41500Y64300
X38800Y64500
X60000Y31300
X62800Y32100
X32400Y25600
X27600Y36800
X28900Y25600
X25900Y27700
X23600Y27700
X19200Y27700
X16700Y27700
X11600Y27700
X9800Y29500
X33400Y64700
X37200Y72600
X62900Y35300
X60293Y35900
X53300Y40300
X51600Y40300
X40400Y43000
X38900Y43000
X28100Y46200
X26493Y46200
X20900Y46200
X18800Y46200
X37700Y46100
X26500Y60000
X60000Y41300
X62600Y41300
X53500Y46500
X51800Y46500
X40600Y57400
X38900Y57400
X28300Y58191
X26200Y57200
X28400Y57000
X38200Y35900
X59200Y46509
X62507Y46600
X29300Y16600
M30