G04 EAGLE Gerber RS-274X export*
G75*
%MOMM*%
%FSLAX34Y34*%
%LPD*%
%INTop Copper*%
%IPPOS*%
%AMOC8*
5,1,8,0,0,1.08239X$1,22.5*%
G01*
%ADD10R,1.500000X1.300000*%
%ADD11R,1.000000X1.100000*%
%ADD12R,1.300000X1.500000*%
%ADD13R,1.980000X1.980000*%
%ADD14C,1.980000*%
%ADD15C,0.200000*%
%ADD16C,0.250000*%
%ADD17C,1.620000*%
%ADD18R,5.580000X5.580000*%
%ADD19C,0.850000*%
%ADD20C,0.889000*%
%ADD21C,0.500000*%
%ADD22C,2.775000*%
%ADD23C,2.340000*%
%ADD24C,0.350000*%
%ADD25C,2.700000*%
%ADD26C,0.150000*%
%ADD27C,0.825000*%
%ADD28C,0.210000*%
%ADD29C,0.400000*%
%ADD30C,0.455000*%
%ADD31C,0.452400*%
%ADD32C,0.152400*%
%ADD33C,0.502400*%


D10*
X521400Y121400D03*
X521400Y140400D03*
X372100Y669700D03*
X372100Y650700D03*
D11*
X393600Y673400D03*
X393600Y656400D03*
D10*
X349600Y670100D03*
X349600Y651100D03*
D12*
X481000Y731700D03*
X500000Y731700D03*
D10*
X522400Y51400D03*
X522400Y70400D03*
X661100Y138500D03*
X661100Y119500D03*
D12*
X348500Y200700D03*
X367500Y200700D03*
D10*
X660100Y66300D03*
X660100Y47300D03*
X394300Y150000D03*
X394300Y169000D03*
D12*
X408600Y200400D03*
X389600Y200400D03*
X349900Y161600D03*
X368900Y161600D03*
D13*
X198700Y435980D03*
D14*
X198700Y410580D03*
X198700Y385180D03*
X198700Y359780D03*
X198700Y334380D03*
X198700Y308980D03*
D13*
X198700Y664580D03*
D14*
X198700Y639180D03*
X198700Y613780D03*
X198700Y588380D03*
X198700Y562980D03*
X198700Y537580D03*
X198700Y512180D03*
X198700Y486780D03*
D13*
X122500Y766180D03*
D14*
X147900Y766180D03*
X122500Y740780D03*
X147900Y740780D03*
X122500Y715380D03*
X147900Y715380D03*
X122500Y689980D03*
X147900Y689980D03*
X122500Y664580D03*
X147900Y664580D03*
X122500Y639180D03*
X147900Y639180D03*
X122500Y613780D03*
X147900Y613780D03*
X122500Y588380D03*
X147900Y588380D03*
X122500Y562980D03*
X147900Y562980D03*
X122500Y537580D03*
X147900Y537580D03*
X122500Y512180D03*
X147900Y512180D03*
X122500Y486780D03*
X147900Y486780D03*
X122500Y461380D03*
X147900Y461380D03*
X122500Y435980D03*
X147900Y435980D03*
X122500Y410580D03*
X147900Y410580D03*
X122500Y385180D03*
X147900Y385180D03*
X122500Y359780D03*
X147900Y359780D03*
X122500Y334380D03*
X147900Y334380D03*
X122500Y308980D03*
X147900Y308980D03*
D13*
X681300Y527420D03*
D14*
X681300Y552820D03*
X681300Y578220D03*
X681300Y603620D03*
X681300Y629020D03*
X681300Y654420D03*
X681300Y679820D03*
X681300Y705220D03*
X681300Y730620D03*
X681300Y756020D03*
X681300Y359780D03*
X681300Y385180D03*
X681300Y410580D03*
X681300Y435980D03*
X681300Y461380D03*
X681300Y486780D03*
D13*
X681300Y308980D03*
D14*
X681300Y334380D03*
D13*
X732100Y765930D03*
D14*
X757500Y765930D03*
X732100Y740530D03*
X757500Y740530D03*
X732100Y715130D03*
X757500Y715130D03*
X732100Y689730D03*
X757500Y689730D03*
X732100Y664330D03*
X757500Y664330D03*
X732100Y638930D03*
X757500Y638930D03*
X732100Y613530D03*
X757500Y613530D03*
X732100Y588130D03*
X757500Y588130D03*
X732100Y562730D03*
X757500Y562730D03*
X732100Y537330D03*
X757500Y537330D03*
X732100Y511930D03*
X757500Y511930D03*
X732100Y486530D03*
X757500Y486530D03*
X732100Y461130D03*
X757500Y461130D03*
X732100Y435730D03*
X757500Y435730D03*
X732100Y410330D03*
X757500Y410330D03*
X732100Y384930D03*
X757500Y384930D03*
X732100Y359530D03*
X757500Y359530D03*
X732100Y334130D03*
X757500Y334130D03*
X732100Y308730D03*
X757500Y308730D03*
D12*
X368900Y347900D03*
X349900Y347900D03*
D10*
X343700Y434500D03*
X343700Y415500D03*
D12*
X272500Y318900D03*
X253500Y318900D03*
X319100Y435400D03*
X300100Y435400D03*
D10*
X492600Y70100D03*
X492600Y51100D03*
X565400Y222400D03*
X565400Y241400D03*
D12*
X644600Y601400D03*
X625600Y601400D03*
X646100Y648400D03*
X627100Y648400D03*
X645600Y625400D03*
X626600Y625400D03*
X362600Y474900D03*
X343600Y474900D03*
X319600Y539900D03*
X300600Y539900D03*
X544100Y487900D03*
X525100Y487900D03*
X543600Y437900D03*
X524600Y437900D03*
X545100Y376900D03*
X526100Y376900D03*
X546600Y331900D03*
X527600Y331900D03*
X544100Y542900D03*
X525100Y542900D03*
D10*
X549400Y49900D03*
X549400Y68900D03*
D12*
X319600Y560400D03*
X300600Y560400D03*
D10*
X343700Y557300D03*
X343700Y538300D03*
X547000Y119500D03*
X547000Y138500D03*
D11*
X253700Y297600D03*
X270700Y297600D03*
D10*
X624100Y242700D03*
X624100Y223700D03*
X495100Y140300D03*
X495100Y121300D03*
D12*
X319500Y414000D03*
X300500Y414000D03*
D15*
X340500Y385400D02*
X340500Y383400D01*
X340500Y385400D02*
X344500Y385400D01*
X344500Y383400D01*
X340500Y383400D01*
X340500Y385300D02*
X344500Y385300D01*
X340500Y393400D02*
X340500Y395400D01*
X344500Y395400D01*
X344500Y393400D01*
X340500Y393400D01*
X340500Y395300D02*
X344500Y395300D01*
D16*
X328350Y390650D02*
X328350Y388150D01*
X328350Y390650D02*
X331850Y390650D01*
X331850Y388150D01*
X328350Y388150D01*
X328350Y390525D02*
X331850Y390525D01*
D15*
X342500Y509300D02*
X342500Y511300D01*
X346500Y511300D01*
X346500Y509300D01*
X342500Y509300D01*
X342500Y511200D02*
X346500Y511200D01*
X342500Y519300D02*
X342500Y521300D01*
X346500Y521300D01*
X346500Y519300D01*
X342500Y519300D01*
X342500Y521200D02*
X346500Y521200D01*
D16*
X330350Y516550D02*
X330350Y514050D01*
X330350Y516550D02*
X333850Y516550D01*
X333850Y514050D01*
X330350Y514050D01*
X330350Y516425D02*
X333850Y516425D01*
D17*
X229100Y85200D03*
X256500Y85200D03*
X283900Y85200D03*
X338700Y85200D03*
X311300Y85200D03*
X242800Y56800D03*
X270200Y56800D03*
X297600Y56800D03*
X325000Y56800D03*
D18*
X408850Y71000D03*
X158950Y71000D03*
D19*
X309150Y734250D02*
X309150Y750750D01*
X317650Y750750D01*
X317650Y734250D01*
X309150Y734250D01*
X309150Y742325D02*
X317650Y742325D01*
X317650Y750400D02*
X309150Y750400D01*
X309150Y710750D02*
X309150Y694250D01*
X309150Y710750D02*
X317650Y710750D01*
X317650Y694250D01*
X309150Y694250D01*
X309150Y702325D02*
X317650Y702325D01*
X317650Y710400D02*
X309150Y710400D01*
D20*
X282129Y745045D02*
X270191Y745045D01*
X282129Y745045D02*
X282129Y736155D01*
X270191Y736155D01*
X270191Y745045D01*
X270191Y744600D02*
X282129Y744600D01*
X236409Y745045D02*
X224471Y745045D01*
X236409Y745045D02*
X236409Y736155D01*
X224471Y736155D01*
X224471Y745045D01*
X224471Y744600D02*
X236409Y744600D01*
D21*
X349950Y689300D02*
X372450Y689300D01*
X349950Y689300D02*
X349950Y694300D01*
X372450Y694300D01*
X372450Y689300D01*
X372450Y694050D02*
X349950Y694050D01*
X349950Y735100D02*
X372450Y735100D01*
X349950Y735100D02*
X349950Y740100D01*
X372450Y740100D01*
X372450Y735100D01*
X372450Y739850D02*
X349950Y739850D01*
D22*
X411325Y700825D02*
X445075Y700825D01*
X411325Y700825D02*
X411325Y728575D01*
X445075Y728575D01*
X445075Y700825D01*
X445075Y727187D02*
X411325Y727187D01*
D23*
X43250Y270611D03*
X43250Y219811D03*
X838750Y445689D03*
X838750Y496489D03*
X44250Y492611D03*
X44250Y441811D03*
X43870Y603811D03*
X43870Y553011D03*
X44250Y714511D03*
X44250Y663711D03*
X43250Y825611D03*
X43250Y774811D03*
X305911Y804750D03*
X255111Y804750D03*
X838750Y555469D03*
X838750Y606269D03*
X840750Y778689D03*
X840750Y829489D03*
X44870Y158711D03*
X44870Y107911D03*
X33589Y37870D03*
X84389Y37870D03*
X837750Y112889D03*
X837750Y163689D03*
X803189Y35870D03*
X853989Y35870D03*
X840130Y667489D03*
X840130Y718289D03*
X839130Y223789D03*
X839130Y274589D03*
X43250Y381911D03*
X43250Y331111D03*
X837750Y334389D03*
X837750Y385189D03*
D24*
X334750Y345750D02*
X334750Y342250D01*
X329250Y342250D01*
X329250Y345750D01*
X334750Y345750D01*
X334750Y345575D02*
X329250Y345575D01*
X334750Y361250D02*
X334750Y364750D01*
X334750Y361250D02*
X329250Y361250D01*
X329250Y364750D01*
X334750Y364750D01*
X334750Y364575D02*
X329250Y364575D01*
X314750Y355750D02*
X314750Y352250D01*
X309250Y352250D01*
X309250Y355750D01*
X314750Y355750D01*
X314750Y355575D02*
X309250Y355575D01*
X327750Y470250D02*
X327750Y473750D01*
X327750Y470250D02*
X322250Y470250D01*
X322250Y473750D01*
X327750Y473750D01*
X327750Y473575D02*
X322250Y473575D01*
X327750Y489250D02*
X327750Y492750D01*
X327750Y489250D02*
X322250Y489250D01*
X322250Y492750D01*
X327750Y492750D01*
X327750Y492575D02*
X322250Y492575D01*
X307750Y483750D02*
X307750Y480250D01*
X302250Y480250D01*
X302250Y483750D01*
X307750Y483750D01*
X307750Y483575D02*
X302250Y483575D01*
D25*
X442000Y339000D03*
X515000Y667000D03*
X220000Y178000D03*
X103000Y223000D03*
X103000Y152000D03*
X221000Y293000D03*
X718000Y280000D03*
X608000Y269000D03*
X555000Y176000D03*
X588000Y601000D03*
X706000Y609000D03*
X613000Y700000D03*
X653000Y473000D03*
X482000Y454000D03*
X483000Y407000D03*
X489000Y353000D03*
X642000Y276000D03*
X456000Y150000D03*
X102000Y119000D03*
D26*
X562750Y134000D02*
X567250Y134000D01*
X562750Y134000D02*
X562750Y135500D01*
X567250Y135500D01*
X567250Y134000D01*
X567250Y135425D02*
X562750Y135425D01*
X562750Y127500D02*
X567250Y127500D01*
X562750Y127500D02*
X562750Y129000D01*
X567250Y129000D01*
X567250Y127500D01*
X567250Y128925D02*
X562750Y128925D01*
X562750Y121000D02*
X567250Y121000D01*
X562750Y121000D02*
X562750Y122500D01*
X567250Y122500D01*
X567250Y121000D01*
X567250Y122425D02*
X562750Y122425D01*
X562750Y114500D02*
X567250Y114500D01*
X562750Y114500D02*
X562750Y116000D01*
X567250Y116000D01*
X567250Y114500D01*
X567250Y115925D02*
X562750Y115925D01*
X590750Y134000D02*
X595250Y134000D01*
X590750Y134000D02*
X590750Y135500D01*
X595250Y135500D01*
X595250Y134000D01*
X595250Y135425D02*
X590750Y135425D01*
X590750Y127500D02*
X595250Y127500D01*
X590750Y127500D02*
X590750Y129000D01*
X595250Y129000D01*
X595250Y127500D01*
X595250Y128925D02*
X590750Y128925D01*
X590750Y121000D02*
X595250Y121000D01*
X590750Y121000D02*
X590750Y122500D01*
X595250Y122500D01*
X595250Y121000D01*
X595250Y122425D02*
X590750Y122425D01*
X590750Y114500D02*
X595250Y114500D01*
X590750Y114500D02*
X590750Y116000D01*
X595250Y116000D01*
X595250Y114500D01*
X595250Y115925D02*
X590750Y115925D01*
D27*
X583125Y117125D02*
X574875Y117125D01*
X574875Y132875D01*
X583125Y132875D01*
X583125Y117125D01*
X583125Y124962D02*
X574875Y124962D01*
X574875Y132799D02*
X583125Y132799D01*
D26*
X571250Y68000D02*
X566750Y68000D01*
X566750Y69500D01*
X571250Y69500D01*
X571250Y68000D01*
X571250Y69425D02*
X566750Y69425D01*
X566750Y61500D02*
X571250Y61500D01*
X566750Y61500D02*
X566750Y63000D01*
X571250Y63000D01*
X571250Y61500D01*
X571250Y62925D02*
X566750Y62925D01*
X566750Y55000D02*
X571250Y55000D01*
X566750Y55000D02*
X566750Y56500D01*
X571250Y56500D01*
X571250Y55000D01*
X571250Y56425D02*
X566750Y56425D01*
X566750Y48500D02*
X571250Y48500D01*
X566750Y48500D02*
X566750Y50000D01*
X571250Y50000D01*
X571250Y48500D01*
X571250Y49925D02*
X566750Y49925D01*
X594750Y68000D02*
X599250Y68000D01*
X594750Y68000D02*
X594750Y69500D01*
X599250Y69500D01*
X599250Y68000D01*
X599250Y69425D02*
X594750Y69425D01*
X594750Y61500D02*
X599250Y61500D01*
X594750Y61500D02*
X594750Y63000D01*
X599250Y63000D01*
X599250Y61500D01*
X599250Y62925D02*
X594750Y62925D01*
X594750Y55000D02*
X599250Y55000D01*
X594750Y55000D02*
X594750Y56500D01*
X599250Y56500D01*
X599250Y55000D01*
X599250Y56425D02*
X594750Y56425D01*
X594750Y48500D02*
X599250Y48500D01*
X594750Y48500D02*
X594750Y50000D01*
X599250Y50000D01*
X599250Y48500D01*
X599250Y49925D02*
X594750Y49925D01*
D27*
X587125Y51125D02*
X578875Y51125D01*
X578875Y66875D01*
X587125Y66875D01*
X587125Y51125D01*
X587125Y58962D02*
X578875Y58962D01*
X578875Y66799D02*
X587125Y66799D01*
D28*
X333350Y157175D02*
X319150Y157175D01*
X333350Y157175D02*
X333350Y155075D01*
X319150Y155075D01*
X319150Y157175D01*
X319150Y157070D02*
X333350Y157070D01*
X333350Y163425D02*
X319150Y163425D01*
X333350Y163425D02*
X333350Y161325D01*
X319150Y161325D01*
X319150Y163425D01*
X319150Y163320D02*
X333350Y163320D01*
X333350Y169675D02*
X319150Y169675D01*
X333350Y169675D02*
X333350Y167575D01*
X319150Y167575D01*
X319150Y169675D01*
X319150Y169570D02*
X333350Y169570D01*
X333350Y175925D02*
X319150Y175925D01*
X333350Y175925D02*
X333350Y173825D01*
X319150Y173825D01*
X319150Y175925D01*
X319150Y175820D02*
X333350Y175820D01*
X333350Y182175D02*
X319150Y182175D01*
X333350Y182175D02*
X333350Y180075D01*
X319150Y180075D01*
X319150Y182175D01*
X319150Y182070D02*
X333350Y182070D01*
X333350Y188425D02*
X319150Y188425D01*
X333350Y188425D02*
X333350Y186325D01*
X319150Y186325D01*
X319150Y188425D01*
X319150Y188320D02*
X333350Y188320D01*
X333350Y194675D02*
X319150Y194675D01*
X333350Y194675D02*
X333350Y192575D01*
X319150Y192575D01*
X319150Y194675D01*
X319150Y194570D02*
X333350Y194570D01*
X333350Y200925D02*
X319150Y200925D01*
X333350Y200925D02*
X333350Y198825D01*
X319150Y198825D01*
X319150Y200925D01*
X319150Y200820D02*
X333350Y200820D01*
X264850Y157175D02*
X250650Y157175D01*
X264850Y157175D02*
X264850Y155075D01*
X250650Y155075D01*
X250650Y157175D01*
X250650Y157070D02*
X264850Y157070D01*
X264850Y163425D02*
X250650Y163425D01*
X264850Y163425D02*
X264850Y161325D01*
X250650Y161325D01*
X250650Y163425D01*
X250650Y163320D02*
X264850Y163320D01*
X264850Y169675D02*
X250650Y169675D01*
X264850Y169675D02*
X264850Y167575D01*
X250650Y167575D01*
X250650Y169675D01*
X250650Y169570D02*
X264850Y169570D01*
X264850Y175925D02*
X250650Y175925D01*
X264850Y175925D02*
X264850Y173825D01*
X250650Y173825D01*
X250650Y175925D01*
X250650Y175820D02*
X264850Y175820D01*
X264850Y182175D02*
X250650Y182175D01*
X264850Y182175D02*
X264850Y180075D01*
X250650Y180075D01*
X250650Y182175D01*
X250650Y182070D02*
X264850Y182070D01*
X264850Y188425D02*
X250650Y188425D01*
X264850Y188425D02*
X264850Y186325D01*
X250650Y186325D01*
X250650Y188425D01*
X250650Y188320D02*
X264850Y188320D01*
X264850Y194675D02*
X250650Y194675D01*
X264850Y194675D02*
X264850Y192575D01*
X250650Y192575D01*
X250650Y194675D01*
X250650Y194570D02*
X264850Y194570D01*
X264850Y200925D02*
X250650Y200925D01*
X264850Y200925D02*
X264850Y198825D01*
X250650Y198825D01*
X250650Y200925D01*
X250650Y200820D02*
X264850Y200820D01*
D29*
X598500Y530500D02*
X598500Y534500D01*
X598500Y530500D02*
X593500Y530500D01*
X593500Y534500D01*
X598500Y534500D01*
X598500Y534300D02*
X593500Y534300D01*
X598500Y549500D02*
X598500Y553500D01*
X598500Y549500D02*
X593500Y549500D01*
X593500Y553500D01*
X598500Y553500D01*
X598500Y553300D02*
X593500Y553300D01*
X578500Y544000D02*
X578500Y540000D01*
X573500Y540000D01*
X573500Y544000D01*
X578500Y544000D01*
X578500Y543800D02*
X573500Y543800D01*
X594500Y479500D02*
X594500Y475500D01*
X589500Y475500D01*
X589500Y479500D01*
X594500Y479500D01*
X594500Y479300D02*
X589500Y479300D01*
X594500Y494500D02*
X594500Y498500D01*
X594500Y494500D02*
X589500Y494500D01*
X589500Y498500D01*
X594500Y498500D01*
X594500Y498300D02*
X589500Y498300D01*
X574500Y489000D02*
X574500Y485000D01*
X569500Y485000D01*
X569500Y489000D01*
X574500Y489000D01*
X574500Y488800D02*
X569500Y488800D01*
X592500Y429500D02*
X592500Y425500D01*
X587500Y425500D01*
X587500Y429500D01*
X592500Y429500D01*
X592500Y429300D02*
X587500Y429300D01*
X592500Y444500D02*
X592500Y448500D01*
X592500Y444500D02*
X587500Y444500D01*
X587500Y448500D01*
X592500Y448500D01*
X592500Y448300D02*
X587500Y448300D01*
X572500Y439000D02*
X572500Y435000D01*
X567500Y435000D01*
X567500Y439000D01*
X572500Y439000D01*
X572500Y438800D02*
X567500Y438800D01*
X591500Y374500D02*
X591500Y370500D01*
X586500Y370500D01*
X586500Y374500D01*
X591500Y374500D01*
X591500Y374300D02*
X586500Y374300D01*
X591500Y389500D02*
X591500Y393500D01*
X591500Y389500D02*
X586500Y389500D01*
X586500Y393500D01*
X591500Y393500D01*
X591500Y393300D02*
X586500Y393300D01*
X571500Y384000D02*
X571500Y380000D01*
X566500Y380000D01*
X566500Y384000D01*
X571500Y384000D01*
X571500Y383800D02*
X566500Y383800D01*
X595500Y321500D02*
X595500Y317500D01*
X590500Y317500D01*
X590500Y321500D01*
X595500Y321500D01*
X595500Y321300D02*
X590500Y321300D01*
X595500Y336500D02*
X595500Y340500D01*
X595500Y336500D02*
X590500Y336500D01*
X590500Y340500D01*
X595500Y340500D01*
X595500Y340300D02*
X590500Y340300D01*
X575500Y331000D02*
X575500Y327000D01*
X570500Y327000D01*
X570500Y331000D01*
X575500Y331000D01*
X575500Y330800D02*
X570500Y330800D01*
D21*
X622500Y66500D02*
X627500Y66500D01*
X622500Y66500D02*
X622500Y75500D01*
X627500Y75500D01*
X627500Y66500D01*
X627500Y71250D02*
X622500Y71250D01*
X632000Y44500D02*
X637000Y44500D01*
X632000Y44500D02*
X632000Y53500D01*
X637000Y53500D01*
X637000Y44500D01*
X637000Y49250D02*
X632000Y49250D01*
X618000Y44500D02*
X613000Y44500D01*
X613000Y53500D01*
X618000Y53500D01*
X618000Y44500D01*
X618000Y49250D02*
X613000Y49250D01*
X616500Y134500D02*
X621500Y134500D01*
X616500Y134500D02*
X616500Y143500D01*
X621500Y143500D01*
X621500Y134500D01*
X621500Y139250D02*
X616500Y139250D01*
X626000Y112500D02*
X631000Y112500D01*
X626000Y112500D02*
X626000Y121500D01*
X631000Y121500D01*
X631000Y112500D01*
X631000Y117250D02*
X626000Y117250D01*
X612000Y112500D02*
X607000Y112500D01*
X607000Y121500D01*
X612000Y121500D01*
X612000Y112500D01*
X612000Y117250D02*
X607000Y117250D01*
D30*
X658825Y205375D02*
X658825Y209925D01*
X658825Y205375D02*
X651175Y205375D01*
X651175Y209925D01*
X658825Y209925D01*
X658825Y209697D02*
X651175Y209697D01*
X658825Y238075D02*
X658825Y242625D01*
X658825Y238075D02*
X651175Y238075D01*
X651175Y242625D01*
X658825Y242625D01*
X658825Y242397D02*
X651175Y242397D01*
X596825Y207925D02*
X596825Y203375D01*
X589175Y203375D01*
X589175Y207925D01*
X596825Y207925D01*
X596825Y207697D02*
X589175Y207697D01*
X596825Y236075D02*
X596825Y240625D01*
X596825Y236075D02*
X589175Y236075D01*
X589175Y240625D01*
X596825Y240625D01*
X596825Y240397D02*
X589175Y240397D01*
X527825Y202925D02*
X527825Y198375D01*
X520175Y198375D01*
X520175Y202925D01*
X527825Y202925D01*
X527825Y202697D02*
X520175Y202697D01*
X527825Y231075D02*
X527825Y235625D01*
X527825Y231075D02*
X520175Y231075D01*
X520175Y235625D01*
X527825Y235625D01*
X527825Y235397D02*
X520175Y235397D01*
D25*
X458000Y70000D03*
D11*
X684000Y134500D03*
X684000Y117500D03*
X683000Y63500D03*
X683000Y46500D03*
D12*
X224500Y151000D03*
X205500Y151000D03*
D10*
X694000Y233500D03*
X694000Y214500D03*
D31*
X217000Y728160D03*
D32*
X500000Y731700D02*
X500000Y732000D01*
X511000Y743000D01*
D31*
X511000Y743000D03*
D32*
X401000Y649000D02*
X393600Y656400D01*
X401000Y649000D02*
X401000Y646000D01*
D31*
X401000Y646000D03*
D32*
X388000Y645000D02*
X377800Y645000D01*
X372100Y650700D01*
D31*
X388000Y645000D03*
D32*
X349600Y651100D02*
X345500Y647000D01*
X334000Y647000D01*
D31*
X334000Y647000D03*
D32*
X372000Y726800D02*
X361200Y737600D01*
X372000Y726800D02*
X372000Y726000D01*
D31*
X372000Y726000D03*
D32*
X300100Y445400D02*
X300100Y435400D01*
X300100Y445400D02*
X296100Y449400D01*
X376500Y461000D02*
X377000Y461000D01*
X376500Y461000D02*
X362600Y474900D01*
D31*
X377000Y461000D03*
D32*
X300600Y560400D02*
X291000Y570000D01*
X284000Y570000D01*
D31*
X284000Y570000D03*
D32*
X380000Y359000D02*
X368900Y347900D01*
X380000Y359000D02*
X382000Y359000D01*
D31*
X382000Y359000D03*
D32*
X368900Y161600D02*
X373000Y157500D01*
X373000Y149000D01*
D31*
X373000Y149000D03*
D32*
X367500Y200700D02*
X378000Y211200D01*
X378000Y213000D01*
D31*
X378000Y213000D03*
D32*
X253500Y318900D02*
X253500Y326500D01*
X259000Y332000D01*
D31*
X259000Y332000D03*
D32*
X512000Y149800D02*
X521400Y140400D01*
X512000Y149800D02*
X512000Y152000D01*
D31*
X512000Y152000D03*
D32*
X515000Y77800D02*
X522400Y70400D01*
X515000Y77800D02*
X515000Y85000D01*
D31*
X515000Y85000D03*
X296100Y449400D03*
D32*
X102000Y106281D02*
X33589Y37870D01*
X102000Y106281D02*
X102000Y119000D01*
X241625Y168625D02*
X257750Y168625D01*
X241625Y168625D02*
X241000Y168000D01*
D33*
X241000Y168000D03*
D32*
X555000Y105000D02*
X559714Y109714D01*
X559714Y117258D01*
D33*
X555000Y105000D03*
D32*
X564206Y121750D02*
X565000Y121750D01*
X564206Y121750D02*
X559714Y117258D01*
X562000Y49544D02*
X562000Y35000D01*
D33*
X562000Y35000D03*
D32*
X568206Y55750D02*
X569000Y55750D01*
X568206Y55750D02*
X562000Y49544D01*
X596000Y551500D02*
X596000Y565000D01*
X599000Y568000D01*
D33*
X599000Y568000D03*
D32*
X582000Y506500D02*
X592000Y496500D01*
X582000Y506500D02*
X582000Y513000D01*
D33*
X582000Y513000D03*
X602932Y447000D03*
D32*
X590500Y447000D02*
X590000Y446500D01*
X590500Y447000D02*
X602932Y447000D01*
X593000Y338500D02*
X570500Y338500D01*
X558000Y351000D01*
D33*
X558000Y351000D03*
D32*
X579500Y391500D02*
X589000Y391500D01*
X579500Y391500D02*
X573000Y398000D01*
D33*
X573000Y398000D03*
D32*
X655000Y207650D02*
X660000Y202650D01*
X660000Y193000D01*
D33*
X660000Y193000D03*
D32*
X604000Y194650D02*
X593000Y205650D01*
X604000Y194650D02*
X604000Y184000D01*
D33*
X604000Y184000D03*
D32*
X524000Y179000D02*
X524000Y200650D01*
D33*
X524000Y179000D03*
X241125Y181125D03*
D32*
X257750Y181125D01*
X217000Y728160D02*
X229440Y740600D01*
X230440Y740600D01*
X326250Y156125D02*
X333875Y156125D01*
X342000Y148000D01*
D33*
X342000Y148000D03*
D32*
X205500Y151000D02*
X190000Y151000D01*
D33*
X190000Y151000D03*
D32*
X198700Y562980D02*
X147900Y562980D01*
X147900Y486780D02*
X198700Y486780D01*
X681300Y705220D02*
X716610Y705220D01*
X732100Y689730D01*
X343600Y474900D02*
X340700Y472000D01*
X325000Y472000D01*
X343600Y474900D02*
X344300Y475600D01*
X344300Y510100D02*
X344500Y510300D01*
X344300Y510100D02*
X344300Y475600D01*
X319600Y539900D02*
X319600Y540400D01*
X319600Y560400D01*
X322700Y557300D01*
X343700Y557300D01*
X343700Y538300D02*
X343700Y521100D01*
X344500Y520300D01*
X272500Y318900D02*
X272500Y299400D01*
X270700Y297600D01*
X234720Y345000D02*
X198700Y308980D01*
X234720Y345000D02*
X270000Y345000D01*
X272500Y342500D01*
X272500Y318900D01*
X221000Y293000D02*
X205020Y308980D01*
X198700Y308980D01*
X523300Y119500D02*
X547000Y119500D01*
X523300Y119500D02*
X521400Y121400D01*
X495200Y121400D01*
X495100Y121300D01*
X547000Y138500D02*
X556750Y128750D01*
X557250Y128250D02*
X565000Y128250D01*
X557250Y128250D02*
X556750Y128750D01*
X837750Y163689D02*
X866000Y135439D01*
X866000Y105000D01*
X856000Y95000D01*
X712200Y95000D01*
X661100Y119500D02*
X636600Y95000D01*
X583000Y95000D01*
X565000Y113000D02*
X565000Y115250D01*
X565000Y113000D02*
X583000Y95000D01*
X661100Y119500D02*
X682000Y119500D01*
X684000Y117500D01*
X689700Y117500D01*
X712200Y95000D01*
X609500Y117000D02*
X604750Y121750D01*
X593000Y121750D01*
X608250Y100000D02*
X620000Y100000D01*
X608250Y100000D02*
X593000Y115250D01*
X620000Y100000D02*
X628500Y108500D01*
X628500Y117000D01*
X525100Y487900D02*
X525100Y542900D01*
X525100Y487900D02*
X525100Y438400D01*
X524600Y437900D01*
X526100Y436400D01*
X526100Y376900D01*
X526100Y333400D01*
X527600Y331900D01*
X404600Y673400D02*
X393600Y673400D01*
D31*
X429000Y649000D03*
X455000Y619000D03*
D32*
X525100Y548900D01*
X525100Y542900D01*
X429000Y649000D02*
X404600Y673400D01*
X449100Y331900D02*
X527600Y331900D01*
X449100Y331900D02*
X442000Y339000D01*
X375200Y691800D02*
X361200Y691800D01*
X375200Y691800D02*
X393600Y673400D01*
X349600Y670100D02*
X345800Y670100D01*
X313400Y702500D01*
X349600Y670100D02*
X371700Y670100D01*
X372100Y669700D01*
X375800Y673400D02*
X393600Y673400D01*
X375800Y673400D02*
X372100Y669700D01*
X120000Y73481D02*
X84389Y37870D01*
X120000Y149000D02*
X196000Y225000D01*
D31*
X196000Y225000D03*
X210000Y239000D03*
D32*
X253700Y282700D01*
X253700Y297600D01*
X120000Y149000D02*
X120000Y73481D01*
X349900Y347900D02*
X349900Y377000D01*
X342500Y384400D01*
X349900Y347900D02*
X346000Y344000D01*
X332000Y344000D01*
X319500Y435000D02*
X319100Y435400D01*
X319500Y435000D02*
X319500Y414000D01*
X320000Y434500D02*
X343700Y434500D01*
X320000Y434500D02*
X319100Y435400D01*
X343700Y415500D02*
X343700Y395600D01*
X342500Y394400D01*
X330100Y389400D02*
X320700Y380000D01*
D31*
X308068Y380000D03*
X276000Y368000D03*
D32*
X246000Y368000D01*
X212380Y334380D01*
X198700Y334380D01*
X175000Y238041D02*
X44870Y107911D01*
X175000Y238041D02*
X175000Y322000D01*
X187380Y334380D01*
X198700Y334380D01*
X88959Y152000D02*
X44870Y107911D01*
X88959Y152000D02*
X103000Y152000D01*
X308068Y380000D02*
X320700Y380000D01*
X713311Y112889D02*
X837750Y112889D01*
X608250Y128250D02*
X593000Y128250D01*
X608250Y128250D02*
X619000Y139000D01*
X619500Y138500D01*
X661100Y138500D01*
X665100Y134500D02*
X684000Y134500D01*
X665100Y134500D02*
X661100Y138500D01*
X691700Y134500D02*
X713311Y112889D01*
X691700Y134500D02*
X684000Y134500D01*
X549400Y49900D02*
X523900Y49900D01*
X522400Y51400D01*
X522100Y51100D01*
X492600Y51100D01*
X549400Y68900D02*
X554100Y68900D01*
X561000Y62000D01*
X568750Y62000D01*
X569000Y62250D01*
X827119Y9000D02*
X853989Y35870D01*
X827119Y9000D02*
X721800Y9000D01*
X682200Y47300D02*
X660100Y47300D01*
X682200Y47300D02*
X683000Y46500D01*
X684300Y46500D02*
X721800Y9000D01*
X684300Y46500D02*
X683000Y46500D01*
X660100Y47300D02*
X644800Y32000D01*
X586250Y32000D01*
X569000Y49250D01*
X597000Y55750D02*
X597250Y56000D01*
X610200Y56000D01*
X615500Y50700D01*
X615500Y49000D01*
X611000Y35000D02*
X597000Y49000D01*
X597000Y49250D01*
X634500Y49000D02*
X634500Y48000D01*
X621500Y35000D02*
X611000Y35000D01*
X621500Y35000D02*
X634500Y48000D01*
X757130Y35870D02*
X803189Y35870D01*
X757130Y35870D02*
X727500Y65500D01*
X606500Y62500D02*
X597250Y62500D01*
X597000Y62250D01*
X615000Y71000D02*
X625000Y71000D01*
X615000Y71000D02*
X606500Y62500D01*
X660100Y66300D02*
X680200Y66300D01*
X683000Y63500D01*
X685000Y65500D02*
X727500Y65500D01*
X685000Y65500D02*
X683000Y63500D01*
X655400Y71000D02*
X625000Y71000D01*
X655400Y71000D02*
X660100Y66300D01*
X797641Y233100D02*
X839130Y274589D01*
X694400Y233100D02*
X694000Y233500D01*
X694400Y233100D02*
X797641Y233100D01*
D31*
X679000Y254000D03*
X679000Y270000D03*
D32*
X689000Y280000D01*
X707000Y298000D01*
X707000Y516000D02*
X695580Y527420D01*
X681300Y527420D01*
X707000Y516000D02*
X707000Y298000D01*
X718000Y280000D02*
X689000Y280000D01*
X668650Y254000D02*
X655000Y240350D01*
X668650Y254000D02*
X679000Y254000D01*
X655000Y240350D02*
X680850Y214500D01*
X694000Y214500D01*
X644600Y601400D02*
X646820Y603620D01*
X681300Y603620D01*
X644600Y601400D02*
X644600Y587600D01*
X641000Y584000D02*
X599000Y584000D01*
X588000Y595000D01*
X588000Y601000D01*
X641000Y584000D02*
X644600Y587600D01*
X681300Y603620D02*
X683380Y603620D01*
X712000Y575000D01*
X786000Y575000D01*
X817269Y606269D02*
X838750Y606269D01*
X817269Y606269D02*
X786000Y575000D01*
X627400Y259000D02*
X624100Y255700D01*
X624100Y242700D01*
X828000Y308000D02*
X854000Y308000D01*
X872000Y326000D01*
X872000Y350939D02*
X837750Y385189D01*
X779000Y259000D02*
X627400Y259000D01*
X779000Y259000D02*
X828000Y308000D01*
X872000Y326000D02*
X872000Y350939D01*
X681300Y552820D02*
X681120Y553000D01*
X621000Y553000D02*
X613000Y545000D01*
X621000Y553000D02*
X681120Y553000D01*
X593000Y238350D02*
X607650Y223700D01*
X624100Y223700D01*
X607500Y295500D02*
X613000Y301000D01*
X613000Y545000D01*
X591000Y240350D02*
X593000Y238350D01*
X591000Y240350D02*
X591000Y279000D01*
X607500Y295500D01*
X607500Y269500D01*
X608000Y269000D01*
X565400Y222400D02*
X565400Y187600D01*
X587000Y166000D02*
X729000Y166000D01*
X743000Y180000D01*
X743000Y224000D01*
D31*
X743000Y224000D03*
X743000Y271000D03*
D32*
X787000Y315000D01*
X802489Y496489D02*
X838750Y496489D01*
X565400Y187600D02*
X587000Y166000D01*
X787000Y315000D02*
X787000Y481000D01*
X802489Y496489D01*
X542050Y241400D02*
X541750Y241400D01*
X532050Y241400D01*
X542050Y241400D02*
X565400Y241400D01*
X565400Y260400D01*
X629220Y578220D02*
X681300Y578220D01*
X609000Y304000D02*
X565400Y260400D01*
X609000Y304000D02*
X609000Y558000D01*
X629220Y578220D01*
X547000Y184000D02*
X555000Y176000D01*
X547000Y184000D02*
X547000Y210000D01*
X524000Y233350D02*
X532050Y241400D01*
X524000Y233000D02*
X547000Y210000D01*
X524000Y233000D02*
X524000Y233350D01*
X788000Y666159D02*
X840130Y718289D01*
X788000Y666159D02*
X788000Y641000D01*
X773000Y626000D01*
X684320Y626000D02*
X681660Y628660D01*
X681300Y629020D01*
X706000Y626000D02*
X773000Y626000D01*
X706000Y626000D02*
X684320Y626000D01*
X648860Y628660D02*
X645600Y625400D01*
X648860Y628660D02*
X681660Y628660D01*
X706000Y626000D02*
X706000Y609000D01*
X840261Y829000D02*
X840750Y829489D01*
X840261Y829000D02*
X649000Y829000D01*
X633000Y813000D01*
X633000Y702720D01*
X681300Y654420D01*
X675280Y648400D01*
X646100Y648400D01*
X613000Y681500D01*
X613000Y700000D01*
D31*
X263932Y591000D03*
X283000Y591000D03*
X390932Y591000D03*
X406000Y591000D03*
D32*
X484000Y513000D01*
X519032Y513000D01*
D31*
X519032Y513000D03*
X536000Y514000D03*
D32*
X544100Y505900D01*
X544100Y487900D01*
X390932Y591000D02*
X283000Y591000D01*
X95000Y581000D02*
X95000Y612961D01*
X95000Y581000D02*
X101000Y575000D01*
X95000Y612961D02*
X44250Y663711D01*
X101000Y575000D02*
X247932Y575000D01*
X545000Y487000D02*
X572000Y487000D01*
X545000Y487000D02*
X544100Y487900D01*
X263932Y591000D02*
X247932Y575000D01*
D31*
X625068Y466000D03*
X592000Y465088D03*
D32*
X554912Y465088D02*
X547000Y473000D01*
X531000Y473000D01*
X531000Y473499D01*
X531168Y473667D01*
D33*
X531168Y473667D03*
X499000Y471000D03*
D32*
X482000Y454000D01*
X592000Y465088D02*
X592000Y477500D01*
X579588Y465088D02*
X554912Y465088D01*
X579588Y465088D02*
X592000Y477500D01*
X625068Y466000D02*
X645000Y446068D01*
X645000Y423000D01*
X657420Y410580D01*
X681300Y410580D01*
X46437Y550444D02*
X43870Y553011D01*
X46437Y550444D02*
X240444Y550444D01*
X262000Y572000D01*
D31*
X262000Y572000D03*
X283000Y581912D03*
D32*
X381088Y581912D01*
X389000Y574000D01*
D31*
X389000Y574000D03*
X406000Y574000D03*
D32*
X515000Y465000D01*
X518000Y465000D01*
D31*
X518000Y465000D03*
X535000Y465000D03*
D32*
X543600Y456400D01*
X543600Y437900D01*
X569100Y437900D01*
X570000Y437000D01*
X657820Y385180D02*
X681300Y385180D01*
X657820Y385180D02*
X630000Y413000D01*
X626000Y413000D01*
D31*
X626000Y413000D03*
X600000Y413000D03*
D32*
X593800Y418000D02*
X593000Y418000D01*
D33*
X533000Y418000D03*
D32*
X593000Y418000D01*
D33*
X501000Y409000D03*
D32*
X499000Y407000D01*
X483000Y407000D01*
X590000Y423000D02*
X590000Y427500D01*
X590000Y423000D02*
X595000Y418000D01*
X600000Y413000D01*
X595000Y418000D02*
X593800Y418000D01*
X174516Y448516D02*
X50955Y448516D01*
X44250Y441811D01*
X174516Y448516D02*
X188000Y462000D01*
D31*
X188000Y462000D03*
X209000Y462000D03*
D32*
X264932Y462000D01*
D31*
X264932Y462000D03*
X281000Y462000D03*
D32*
X357000Y462000D01*
X389000Y430000D01*
D31*
X389000Y430000D03*
X404000Y430000D03*
D32*
X489000Y430000D01*
X516000Y403000D01*
D31*
X516000Y403000D03*
X533000Y403000D03*
D32*
X545100Y390900D01*
X545100Y376900D01*
X550200Y382000D01*
X569000Y382000D01*
D31*
X602932Y359000D03*
X629000Y353000D03*
D32*
X662680Y353000D01*
X681300Y334380D01*
X602932Y359000D02*
X535000Y359000D01*
D33*
X535000Y359000D03*
X518000Y359000D03*
D32*
X495000Y359000D01*
X489000Y353000D01*
X589432Y372500D02*
X602932Y359000D01*
X589432Y372500D02*
X589000Y372500D01*
X61889Y331111D02*
X43250Y331111D01*
X61889Y331111D02*
X98000Y295000D01*
D31*
X98000Y295000D03*
X116000Y277000D03*
D32*
X167000Y277000D01*
D31*
X167000Y277000D03*
X192000Y277000D03*
D32*
X236000Y277000D01*
D31*
X236000Y277000D03*
X259000Y277000D03*
D32*
X268000Y277000D01*
X289000Y256000D01*
D31*
X289000Y256000D03*
X324000Y256000D03*
D32*
X387000Y319000D01*
X533700Y319000D02*
X546600Y331900D01*
X533700Y319000D02*
X387000Y319000D01*
X546600Y331900D02*
X570100Y331900D01*
X573000Y329000D01*
X669280Y321000D02*
X681300Y308980D01*
X669280Y321000D02*
X628000Y321000D01*
D31*
X628000Y321000D03*
X600000Y313000D03*
D32*
X626000Y292000D02*
X642000Y276000D01*
X626000Y292000D02*
X626000Y294000D01*
D33*
X626000Y294000D03*
D32*
X593500Y319500D02*
X593000Y319500D01*
X593500Y319500D02*
X600000Y313000D01*
X88811Y774811D02*
X43250Y774811D01*
X88811Y774811D02*
X104000Y790000D01*
X144000Y790000D01*
X298000Y636000D01*
X408000Y636000D02*
X415000Y643000D01*
X408000Y636000D02*
X298000Y636000D01*
D31*
X415000Y643000D03*
X430000Y619000D03*
D32*
X443000Y619000D01*
X452000Y628000D01*
X466000Y628000D01*
X544100Y549900D01*
X544100Y543000D01*
X544100Y542900D01*
X545100Y542000D02*
X576000Y542000D01*
X545100Y542000D02*
X544100Y543000D01*
X681300Y435980D02*
X699000Y453680D01*
X699000Y506000D01*
X693000Y512000D01*
X626000Y512000D02*
X620000Y518000D01*
D31*
X620000Y518000D03*
X600000Y518000D03*
D32*
X594400Y523600D01*
X626000Y512000D02*
X693000Y512000D01*
X653000Y464280D02*
X681300Y435980D01*
X653000Y464280D02*
X653000Y473000D01*
X594400Y523600D02*
X594400Y530900D01*
X596000Y532500D01*
X110439Y287000D02*
X43250Y219811D01*
X110439Y287000D02*
X154000Y287000D01*
X168000Y301000D01*
X168000Y330000D01*
X197780Y359780D01*
X198700Y359780D01*
X168000Y330000D02*
X168000Y430000D01*
D31*
X264932Y518000D03*
X281000Y518000D03*
D32*
X329400Y518000D01*
X332100Y515300D01*
X256000Y518000D02*
X168000Y430000D01*
X99811Y219811D02*
X43250Y219811D01*
X99811Y219811D02*
X103000Y223000D01*
X256000Y518000D02*
X264932Y518000D01*
D31*
X588000Y293000D03*
X614000Y293000D03*
D32*
X619000Y298000D01*
X619000Y471000D02*
X638000Y490000D01*
X678080Y490000D01*
X681300Y486780D01*
X619000Y471000D02*
X619000Y298000D01*
X508000Y248000D02*
X495100Y235100D01*
X543000Y248000D02*
X588000Y293000D01*
X543000Y248000D02*
X508000Y248000D01*
X482000Y157000D02*
X482000Y153400D01*
D33*
X482000Y157000D03*
X464000Y170000D03*
D32*
X464000Y158000D01*
X456000Y150000D01*
X482000Y153400D02*
X495100Y140300D01*
X495100Y235100D01*
X472000Y90700D02*
X492600Y70100D01*
X472000Y90700D02*
X472000Y297000D01*
X488000Y313000D01*
X559000Y313000D01*
X569000Y303000D02*
X596000Y303000D01*
X569000Y303000D02*
X559000Y313000D01*
D31*
X596000Y303000D03*
X626000Y308000D03*
D32*
X639000Y295000D01*
X693000Y295000D02*
X701000Y303000D01*
X701000Y351000D01*
X692220Y359780D02*
X681300Y359780D01*
X693000Y295000D02*
X639000Y295000D01*
X701000Y351000D02*
X692220Y359780D01*
X492600Y70100D02*
X458100Y70100D01*
X458000Y70000D01*
X340025Y192225D02*
X348500Y200700D01*
X340025Y192225D02*
X327650Y192225D01*
X326250Y193625D01*
X326625Y169000D02*
X326250Y168625D01*
X342500Y169000D02*
X349900Y161600D01*
X342500Y169000D02*
X326625Y169000D01*
X309000Y159000D02*
X309000Y141000D01*
X322000Y128000D01*
X372300Y128000D01*
X394300Y150000D01*
X326250Y162375D02*
X312375Y162375D01*
X309000Y159000D01*
X385000Y169000D02*
X394300Y169000D01*
X381500Y172500D02*
X380525Y173475D01*
X381500Y172500D02*
X385000Y169000D01*
X379125Y174875D02*
X326250Y174875D01*
X379125Y174875D02*
X380525Y173475D01*
X376725Y179725D02*
X379000Y182000D01*
X399000Y182000D01*
X408600Y191600D01*
X408600Y200400D01*
X376725Y179725D02*
X327650Y179725D01*
X326250Y181125D01*
X389600Y191600D02*
X389600Y200400D01*
X389600Y191600D02*
X383975Y185975D01*
X327650Y185975D01*
X326250Y187375D01*
X286000Y114700D02*
X256500Y85200D01*
X286000Y114700D02*
X286000Y166000D01*
X277125Y174875D02*
X257750Y174875D01*
X277125Y174875D02*
X286000Y166000D01*
X301000Y102300D02*
X283900Y85200D01*
X301000Y102300D02*
X301000Y188000D01*
X312875Y199875D02*
X326250Y199875D01*
X312875Y199875D02*
X301000Y188000D01*
X276160Y740600D02*
X276160Y783701D01*
X255111Y804750D01*
X276160Y740600D02*
X311500Y740600D01*
X313400Y742500D01*
X183000Y322000D02*
X183291Y321709D01*
D31*
X183291Y321709D03*
X184000Y355000D03*
D32*
X184000Y421280D01*
X198700Y435980D01*
X183000Y322000D02*
X183000Y251107D01*
X246732Y187375D02*
X257750Y187375D01*
X246732Y187375D02*
X183000Y251107D01*
X304000Y255725D02*
X304000Y354000D01*
X304000Y255725D02*
X254750Y206475D01*
X247420Y410580D02*
X198700Y410580D01*
X247420Y410580D02*
X304000Y354000D01*
X254750Y202875D02*
X257750Y199875D01*
X254750Y202875D02*
X254750Y206475D01*
X428200Y714700D02*
X445200Y731700D01*
X481000Y731700D01*
X481000Y700000D01*
X481000Y678000D01*
X193620Y715380D02*
X147900Y715380D01*
X434932Y631932D02*
X481000Y678000D01*
X434932Y631932D02*
X279932Y631932D01*
X278932Y630932D02*
X277932Y630932D01*
X278000Y631000D02*
X193620Y715380D01*
X278000Y631000D02*
X277932Y630932D01*
X278932Y630932D02*
X279932Y631932D01*
X278932Y630932D02*
X271000Y623000D01*
X271000Y554000D01*
X281100Y543900D01*
X296600Y543900D02*
X300600Y539900D01*
X296600Y543900D02*
X281100Y543900D01*
X292000Y482000D02*
X305000Y482000D01*
X292000Y482000D02*
X271000Y503000D01*
X300500Y414000D02*
X300500Y365500D01*
X300500Y414000D02*
X286000Y414000D01*
X271000Y503000D02*
X271000Y554000D01*
X271000Y503000D02*
X271000Y429000D01*
X286000Y414000D01*
X515000Y667000D02*
X482000Y700000D01*
X481000Y700000D01*
X300500Y365500D02*
X312000Y354000D01*
X626600Y647900D02*
X627100Y648400D01*
X626600Y647900D02*
X626600Y625400D01*
X626600Y602400D01*
X625600Y601400D01*
X590000Y637000D01*
X449311Y637000D02*
X440195Y627884D01*
X305884Y627884D02*
X280500Y602500D01*
X381116Y627884D02*
X440195Y627884D01*
D31*
X280500Y602500D03*
D32*
X305884Y627884D02*
X381116Y627884D01*
D31*
X265000Y600000D03*
D32*
X210320Y600000D01*
X198700Y588380D01*
X449311Y637000D02*
X590000Y637000D01*
D31*
X276000Y149000D03*
X293000Y166000D03*
D32*
X293000Y238000D01*
X397000Y342000D01*
X397000Y612000D01*
X381116Y627884D01*
X257750Y162375D02*
X257750Y156125D01*
X257750Y162375D02*
X235875Y162375D01*
X224500Y151000D01*
X235625Y162375D02*
X235875Y162375D01*
X235625Y162375D02*
X220000Y178000D01*
X226500Y149000D02*
X276000Y149000D01*
X226500Y149000D02*
X224500Y151000D01*
X236000Y204357D02*
X236000Y217000D01*
X242000Y223000D01*
X265000Y223000D01*
X300952Y258952D01*
X300952Y352000D01*
X264952Y388000D01*
X201520Y388000D02*
X198700Y385180D01*
X201520Y388000D02*
X264952Y388000D01*
X257750Y193625D02*
X246732Y193625D01*
X236000Y204357D01*
M02*
