G04 EAGLE Gerber RS-274X export*
G75*
%MOMM*%
%FSLAX34Y34*%
%LPD*%
%INSolderpaste Top*%
%IPPOS*%
%AMOC8*
5,1,8,0,0,1.08239X$1,22.5*%
G01*
%ADD10R,1.500000X1.300000*%
%ADD11R,1.000000X1.100000*%
%ADD12R,1.300000X1.500000*%
%ADD13C,0.200000*%
%ADD14C,0.250000*%
%ADD15C,0.850000*%
%ADD16C,0.889000*%
%ADD17C,0.500000*%
%ADD18C,2.775000*%
%ADD19C,0.350000*%
%ADD20C,0.150000*%
%ADD21C,0.825000*%
%ADD22C,0.210000*%
%ADD23C,0.400000*%
%ADD24C,0.455000*%


D10*
X521400Y121400D03*
X521400Y140400D03*
X372100Y669700D03*
X372100Y650700D03*
D11*
X393600Y673400D03*
X393600Y656400D03*
D10*
X349600Y670100D03*
X349600Y651100D03*
D12*
X481000Y731700D03*
X500000Y731700D03*
D10*
X522400Y51400D03*
X522400Y70400D03*
X661100Y138500D03*
X661100Y119500D03*
D12*
X348500Y200700D03*
X367500Y200700D03*
D10*
X660100Y66300D03*
X660100Y47300D03*
X394300Y150000D03*
X394300Y169000D03*
D12*
X408600Y200400D03*
X389600Y200400D03*
X349900Y161600D03*
X368900Y161600D03*
X368900Y347900D03*
X349900Y347900D03*
D10*
X343700Y434500D03*
X343700Y415500D03*
D12*
X272500Y318900D03*
X253500Y318900D03*
X319100Y435400D03*
X300100Y435400D03*
D10*
X492600Y70100D03*
X492600Y51100D03*
X565400Y222400D03*
X565400Y241400D03*
D12*
X644600Y601400D03*
X625600Y601400D03*
X646100Y648400D03*
X627100Y648400D03*
X645600Y625400D03*
X626600Y625400D03*
X362600Y474900D03*
X343600Y474900D03*
X319600Y539900D03*
X300600Y539900D03*
X544100Y487900D03*
X525100Y487900D03*
X543600Y437900D03*
X524600Y437900D03*
X545100Y376900D03*
X526100Y376900D03*
X546600Y331900D03*
X527600Y331900D03*
X544100Y542900D03*
X525100Y542900D03*
D10*
X549400Y49900D03*
X549400Y68900D03*
D12*
X319600Y560400D03*
X300600Y560400D03*
D10*
X343700Y557300D03*
X343700Y538300D03*
X547000Y119500D03*
X547000Y138500D03*
D11*
X253700Y297600D03*
X270700Y297600D03*
D10*
X624100Y242700D03*
X624100Y223700D03*
X495100Y140300D03*
X495100Y121300D03*
D12*
X319500Y414000D03*
X300500Y414000D03*
D13*
X340500Y385400D02*
X340500Y383400D01*
X340500Y385400D02*
X344500Y385400D01*
X344500Y383400D01*
X340500Y383400D01*
X340500Y385300D02*
X344500Y385300D01*
X340500Y393400D02*
X340500Y395400D01*
X344500Y395400D01*
X344500Y393400D01*
X340500Y393400D01*
X340500Y395300D02*
X344500Y395300D01*
D14*
X328350Y390650D02*
X328350Y388150D01*
X328350Y390650D02*
X331850Y390650D01*
X331850Y388150D01*
X328350Y388150D01*
X328350Y390525D02*
X331850Y390525D01*
D13*
X342500Y509300D02*
X342500Y511300D01*
X346500Y511300D01*
X346500Y509300D01*
X342500Y509300D01*
X342500Y511200D02*
X346500Y511200D01*
X342500Y519300D02*
X342500Y521300D01*
X346500Y521300D01*
X346500Y519300D01*
X342500Y519300D01*
X342500Y521200D02*
X346500Y521200D01*
D14*
X330350Y516550D02*
X330350Y514050D01*
X330350Y516550D02*
X333850Y516550D01*
X333850Y514050D01*
X330350Y514050D01*
X330350Y516425D02*
X333850Y516425D01*
D15*
X309150Y734250D02*
X309150Y750750D01*
X317650Y750750D01*
X317650Y734250D01*
X309150Y734250D01*
X309150Y742325D02*
X317650Y742325D01*
X317650Y750400D02*
X309150Y750400D01*
X309150Y710750D02*
X309150Y694250D01*
X309150Y710750D02*
X317650Y710750D01*
X317650Y694250D01*
X309150Y694250D01*
X309150Y702325D02*
X317650Y702325D01*
X317650Y710400D02*
X309150Y710400D01*
D16*
X282129Y745045D02*
X270191Y745045D01*
X282129Y745045D02*
X282129Y736155D01*
X270191Y736155D01*
X270191Y745045D01*
X270191Y744600D02*
X282129Y744600D01*
X236409Y745045D02*
X224471Y745045D01*
X236409Y745045D02*
X236409Y736155D01*
X224471Y736155D01*
X224471Y745045D01*
X224471Y744600D02*
X236409Y744600D01*
D17*
X349950Y689300D02*
X372450Y689300D01*
X349950Y689300D02*
X349950Y694300D01*
X372450Y694300D01*
X372450Y689300D01*
X372450Y694050D02*
X349950Y694050D01*
X349950Y735100D02*
X372450Y735100D01*
X349950Y735100D02*
X349950Y740100D01*
X372450Y740100D01*
X372450Y735100D01*
X372450Y739850D02*
X349950Y739850D01*
D18*
X411325Y700825D02*
X445075Y700825D01*
X411325Y700825D02*
X411325Y728575D01*
X445075Y728575D01*
X445075Y700825D01*
X445075Y727187D02*
X411325Y727187D01*
D19*
X334750Y345750D02*
X334750Y342250D01*
X329250Y342250D01*
X329250Y345750D01*
X334750Y345750D01*
X334750Y345575D02*
X329250Y345575D01*
X334750Y361250D02*
X334750Y364750D01*
X334750Y361250D02*
X329250Y361250D01*
X329250Y364750D01*
X334750Y364750D01*
X334750Y364575D02*
X329250Y364575D01*
X314750Y355750D02*
X314750Y352250D01*
X309250Y352250D01*
X309250Y355750D01*
X314750Y355750D01*
X314750Y355575D02*
X309250Y355575D01*
X327750Y470250D02*
X327750Y473750D01*
X327750Y470250D02*
X322250Y470250D01*
X322250Y473750D01*
X327750Y473750D01*
X327750Y473575D02*
X322250Y473575D01*
X327750Y489250D02*
X327750Y492750D01*
X327750Y489250D02*
X322250Y489250D01*
X322250Y492750D01*
X327750Y492750D01*
X327750Y492575D02*
X322250Y492575D01*
X307750Y483750D02*
X307750Y480250D01*
X302250Y480250D01*
X302250Y483750D01*
X307750Y483750D01*
X307750Y483575D02*
X302250Y483575D01*
D20*
X562750Y134000D02*
X567250Y134000D01*
X562750Y134000D02*
X562750Y135500D01*
X567250Y135500D01*
X567250Y134000D01*
X567250Y135425D02*
X562750Y135425D01*
X562750Y127500D02*
X567250Y127500D01*
X562750Y127500D02*
X562750Y129000D01*
X567250Y129000D01*
X567250Y127500D01*
X567250Y128925D02*
X562750Y128925D01*
X562750Y121000D02*
X567250Y121000D01*
X562750Y121000D02*
X562750Y122500D01*
X567250Y122500D01*
X567250Y121000D01*
X567250Y122425D02*
X562750Y122425D01*
X562750Y114500D02*
X567250Y114500D01*
X562750Y114500D02*
X562750Y116000D01*
X567250Y116000D01*
X567250Y114500D01*
X567250Y115925D02*
X562750Y115925D01*
X590750Y134000D02*
X595250Y134000D01*
X590750Y134000D02*
X590750Y135500D01*
X595250Y135500D01*
X595250Y134000D01*
X595250Y135425D02*
X590750Y135425D01*
X590750Y127500D02*
X595250Y127500D01*
X590750Y127500D02*
X590750Y129000D01*
X595250Y129000D01*
X595250Y127500D01*
X595250Y128925D02*
X590750Y128925D01*
X590750Y121000D02*
X595250Y121000D01*
X590750Y121000D02*
X590750Y122500D01*
X595250Y122500D01*
X595250Y121000D01*
X595250Y122425D02*
X590750Y122425D01*
X590750Y114500D02*
X595250Y114500D01*
X590750Y114500D02*
X590750Y116000D01*
X595250Y116000D01*
X595250Y114500D01*
X595250Y115925D02*
X590750Y115925D01*
D21*
X583125Y117125D02*
X574875Y117125D01*
X574875Y132875D01*
X583125Y132875D01*
X583125Y117125D01*
X583125Y124962D02*
X574875Y124962D01*
X574875Y132799D02*
X583125Y132799D01*
D20*
X571250Y68000D02*
X566750Y68000D01*
X566750Y69500D01*
X571250Y69500D01*
X571250Y68000D01*
X571250Y69425D02*
X566750Y69425D01*
X566750Y61500D02*
X571250Y61500D01*
X566750Y61500D02*
X566750Y63000D01*
X571250Y63000D01*
X571250Y61500D01*
X571250Y62925D02*
X566750Y62925D01*
X566750Y55000D02*
X571250Y55000D01*
X566750Y55000D02*
X566750Y56500D01*
X571250Y56500D01*
X571250Y55000D01*
X571250Y56425D02*
X566750Y56425D01*
X566750Y48500D02*
X571250Y48500D01*
X566750Y48500D02*
X566750Y50000D01*
X571250Y50000D01*
X571250Y48500D01*
X571250Y49925D02*
X566750Y49925D01*
X594750Y68000D02*
X599250Y68000D01*
X594750Y68000D02*
X594750Y69500D01*
X599250Y69500D01*
X599250Y68000D01*
X599250Y69425D02*
X594750Y69425D01*
X594750Y61500D02*
X599250Y61500D01*
X594750Y61500D02*
X594750Y63000D01*
X599250Y63000D01*
X599250Y61500D01*
X599250Y62925D02*
X594750Y62925D01*
X594750Y55000D02*
X599250Y55000D01*
X594750Y55000D02*
X594750Y56500D01*
X599250Y56500D01*
X599250Y55000D01*
X599250Y56425D02*
X594750Y56425D01*
X594750Y48500D02*
X599250Y48500D01*
X594750Y48500D02*
X594750Y50000D01*
X599250Y50000D01*
X599250Y48500D01*
X599250Y49925D02*
X594750Y49925D01*
D21*
X587125Y51125D02*
X578875Y51125D01*
X578875Y66875D01*
X587125Y66875D01*
X587125Y51125D01*
X587125Y58962D02*
X578875Y58962D01*
X578875Y66799D02*
X587125Y66799D01*
D22*
X333350Y157175D02*
X319150Y157175D01*
X333350Y157175D02*
X333350Y155075D01*
X319150Y155075D01*
X319150Y157175D01*
X319150Y157070D02*
X333350Y157070D01*
X333350Y163425D02*
X319150Y163425D01*
X333350Y163425D02*
X333350Y161325D01*
X319150Y161325D01*
X319150Y163425D01*
X319150Y163320D02*
X333350Y163320D01*
X333350Y169675D02*
X319150Y169675D01*
X333350Y169675D02*
X333350Y167575D01*
X319150Y167575D01*
X319150Y169675D01*
X319150Y169570D02*
X333350Y169570D01*
X333350Y175925D02*
X319150Y175925D01*
X333350Y175925D02*
X333350Y173825D01*
X319150Y173825D01*
X319150Y175925D01*
X319150Y175820D02*
X333350Y175820D01*
X333350Y182175D02*
X319150Y182175D01*
X333350Y182175D02*
X333350Y180075D01*
X319150Y180075D01*
X319150Y182175D01*
X319150Y182070D02*
X333350Y182070D01*
X333350Y188425D02*
X319150Y188425D01*
X333350Y188425D02*
X333350Y186325D01*
X319150Y186325D01*
X319150Y188425D01*
X319150Y188320D02*
X333350Y188320D01*
X333350Y194675D02*
X319150Y194675D01*
X333350Y194675D02*
X333350Y192575D01*
X319150Y192575D01*
X319150Y194675D01*
X319150Y194570D02*
X333350Y194570D01*
X333350Y200925D02*
X319150Y200925D01*
X333350Y200925D02*
X333350Y198825D01*
X319150Y198825D01*
X319150Y200925D01*
X319150Y200820D02*
X333350Y200820D01*
X264850Y157175D02*
X250650Y157175D01*
X264850Y157175D02*
X264850Y155075D01*
X250650Y155075D01*
X250650Y157175D01*
X250650Y157070D02*
X264850Y157070D01*
X264850Y163425D02*
X250650Y163425D01*
X264850Y163425D02*
X264850Y161325D01*
X250650Y161325D01*
X250650Y163425D01*
X250650Y163320D02*
X264850Y163320D01*
X264850Y169675D02*
X250650Y169675D01*
X264850Y169675D02*
X264850Y167575D01*
X250650Y167575D01*
X250650Y169675D01*
X250650Y169570D02*
X264850Y169570D01*
X264850Y175925D02*
X250650Y175925D01*
X264850Y175925D02*
X264850Y173825D01*
X250650Y173825D01*
X250650Y175925D01*
X250650Y175820D02*
X264850Y175820D01*
X264850Y182175D02*
X250650Y182175D01*
X264850Y182175D02*
X264850Y180075D01*
X250650Y180075D01*
X250650Y182175D01*
X250650Y182070D02*
X264850Y182070D01*
X264850Y188425D02*
X250650Y188425D01*
X264850Y188425D02*
X264850Y186325D01*
X250650Y186325D01*
X250650Y188425D01*
X250650Y188320D02*
X264850Y188320D01*
X264850Y194675D02*
X250650Y194675D01*
X264850Y194675D02*
X264850Y192575D01*
X250650Y192575D01*
X250650Y194675D01*
X250650Y194570D02*
X264850Y194570D01*
X264850Y200925D02*
X250650Y200925D01*
X264850Y200925D02*
X264850Y198825D01*
X250650Y198825D01*
X250650Y200925D01*
X250650Y200820D02*
X264850Y200820D01*
D23*
X598500Y530500D02*
X598500Y534500D01*
X598500Y530500D02*
X593500Y530500D01*
X593500Y534500D01*
X598500Y534500D01*
X598500Y534300D02*
X593500Y534300D01*
X598500Y549500D02*
X598500Y553500D01*
X598500Y549500D02*
X593500Y549500D01*
X593500Y553500D01*
X598500Y553500D01*
X598500Y553300D02*
X593500Y553300D01*
X578500Y544000D02*
X578500Y540000D01*
X573500Y540000D01*
X573500Y544000D01*
X578500Y544000D01*
X578500Y543800D02*
X573500Y543800D01*
X594500Y479500D02*
X594500Y475500D01*
X589500Y475500D01*
X589500Y479500D01*
X594500Y479500D01*
X594500Y479300D02*
X589500Y479300D01*
X594500Y494500D02*
X594500Y498500D01*
X594500Y494500D02*
X589500Y494500D01*
X589500Y498500D01*
X594500Y498500D01*
X594500Y498300D02*
X589500Y498300D01*
X574500Y489000D02*
X574500Y485000D01*
X569500Y485000D01*
X569500Y489000D01*
X574500Y489000D01*
X574500Y488800D02*
X569500Y488800D01*
X592500Y429500D02*
X592500Y425500D01*
X587500Y425500D01*
X587500Y429500D01*
X592500Y429500D01*
X592500Y429300D02*
X587500Y429300D01*
X592500Y444500D02*
X592500Y448500D01*
X592500Y444500D02*
X587500Y444500D01*
X587500Y448500D01*
X592500Y448500D01*
X592500Y448300D02*
X587500Y448300D01*
X572500Y439000D02*
X572500Y435000D01*
X567500Y435000D01*
X567500Y439000D01*
X572500Y439000D01*
X572500Y438800D02*
X567500Y438800D01*
X591500Y374500D02*
X591500Y370500D01*
X586500Y370500D01*
X586500Y374500D01*
X591500Y374500D01*
X591500Y374300D02*
X586500Y374300D01*
X591500Y389500D02*
X591500Y393500D01*
X591500Y389500D02*
X586500Y389500D01*
X586500Y393500D01*
X591500Y393500D01*
X591500Y393300D02*
X586500Y393300D01*
X571500Y384000D02*
X571500Y380000D01*
X566500Y380000D01*
X566500Y384000D01*
X571500Y384000D01*
X571500Y383800D02*
X566500Y383800D01*
X595500Y321500D02*
X595500Y317500D01*
X590500Y317500D01*
X590500Y321500D01*
X595500Y321500D01*
X595500Y321300D02*
X590500Y321300D01*
X595500Y336500D02*
X595500Y340500D01*
X595500Y336500D02*
X590500Y336500D01*
X590500Y340500D01*
X595500Y340500D01*
X595500Y340300D02*
X590500Y340300D01*
X575500Y331000D02*
X575500Y327000D01*
X570500Y327000D01*
X570500Y331000D01*
X575500Y331000D01*
X575500Y330800D02*
X570500Y330800D01*
D17*
X622500Y66500D02*
X627500Y66500D01*
X622500Y66500D02*
X622500Y75500D01*
X627500Y75500D01*
X627500Y66500D01*
X627500Y71250D02*
X622500Y71250D01*
X632000Y44500D02*
X637000Y44500D01*
X632000Y44500D02*
X632000Y53500D01*
X637000Y53500D01*
X637000Y44500D01*
X637000Y49250D02*
X632000Y49250D01*
X618000Y44500D02*
X613000Y44500D01*
X613000Y53500D01*
X618000Y53500D01*
X618000Y44500D01*
X618000Y49250D02*
X613000Y49250D01*
X616500Y134500D02*
X621500Y134500D01*
X616500Y134500D02*
X616500Y143500D01*
X621500Y143500D01*
X621500Y134500D01*
X621500Y139250D02*
X616500Y139250D01*
X626000Y112500D02*
X631000Y112500D01*
X626000Y112500D02*
X626000Y121500D01*
X631000Y121500D01*
X631000Y112500D01*
X631000Y117250D02*
X626000Y117250D01*
X612000Y112500D02*
X607000Y112500D01*
X607000Y121500D01*
X612000Y121500D01*
X612000Y112500D01*
X612000Y117250D02*
X607000Y117250D01*
D24*
X658825Y205375D02*
X658825Y209925D01*
X658825Y205375D02*
X651175Y205375D01*
X651175Y209925D01*
X658825Y209925D01*
X658825Y209697D02*
X651175Y209697D01*
X658825Y238075D02*
X658825Y242625D01*
X658825Y238075D02*
X651175Y238075D01*
X651175Y242625D01*
X658825Y242625D01*
X658825Y242397D02*
X651175Y242397D01*
X596825Y207925D02*
X596825Y203375D01*
X589175Y203375D01*
X589175Y207925D01*
X596825Y207925D01*
X596825Y207697D02*
X589175Y207697D01*
X596825Y236075D02*
X596825Y240625D01*
X596825Y236075D02*
X589175Y236075D01*
X589175Y240625D01*
X596825Y240625D01*
X596825Y240397D02*
X589175Y240397D01*
X527825Y202925D02*
X527825Y198375D01*
X520175Y198375D01*
X520175Y202925D01*
X527825Y202925D01*
X527825Y202697D02*
X520175Y202697D01*
X527825Y231075D02*
X527825Y235625D01*
X527825Y231075D02*
X520175Y231075D01*
X520175Y235625D01*
X527825Y235625D01*
X527825Y235397D02*
X520175Y235397D01*
D11*
X684000Y134500D03*
X684000Y117500D03*
X683000Y63500D03*
X683000Y46500D03*
D12*
X224500Y151000D03*
X205500Y151000D03*
D10*
X694000Y233500D03*
X694000Y214500D03*
M02*
