M48
;GenerationSoftware,Autodesk,EAGLE,9.6.2*%
;CreationDate,2022-11-16T04:34:54Z*%
FMAT,2
ICI,OFF
METRIC,TZ,000.000
T5C0.300
T4C0.600
T3C1.300
T2C3.000
T1C3.700
%
G90
M71
T1
X11000Y55500
X61000Y52500
T2
X45000Y1000
T3
X17729Y5405
X39271Y46585
X28989Y5605
X23909Y5605
X34191Y46585
X29111Y46585
X35119Y5405
X40199Y5405
X12649Y5405
T4
X4260Y11160
X4260Y36560
X4260Y34020
X4260Y31480
X4260Y28940
X4260Y26400
X4260Y23860
X4260Y21320
X4260Y18780
X4260Y16240
X4260Y13700
X4260Y8620
X4260Y6080
X4260Y3540
X6800Y3540
X6800Y6080
X6800Y8620
X6800Y11160
X6800Y13700
X6800Y16240
X6800Y18780
X6800Y21320
X6800Y23860
X6800Y26400
X6800Y28940
X6800Y31480
X6800Y34020
X6800Y36560
X6800Y39100
X6800Y41640
X6800Y44180
X6800Y46720
X6800Y49260
X65120Y49260
X65120Y46720
X65120Y44180
X65120Y41640
X65120Y39100
X65120Y36560
X65120Y34020
X65120Y31480
X65120Y28940
X65120Y26400
X65120Y23860
X65120Y21320
X65120Y18780
X65120Y16240
X65120Y13700
X65120Y11160
X65120Y8620
X65120Y6080
X65120Y3540
X67660Y3540
X67660Y6080
X67660Y8620
X67660Y11160
X67660Y13700
X67660Y18780
X67660Y21320
X67660Y23860
X67660Y26400
X67660Y28940
X67660Y31480
X67660Y34020
X67660Y36560
X67660Y39100
X67660Y41640
X67660Y16240
X67660Y46720
X67660Y49260
X4260Y39100
X4260Y49260
X4260Y46720
X4260Y44180
X4260Y41640
X67660Y44180
T5
X16256Y35941
X38227Y35941
X39243Y30099
X37084Y24003
M30