G04 EAGLE Gerber RS-274X export*
G75*
%MOMM*%
%FSLAX34Y34*%
%LPD*%
%INBoard Outline*%
%IPPOS*%
%AMOC8*
5,1,8,0,0,1.08239X$1,22.5*%
G01*
%ADD10C,0.000000*%
%ADD11C,0.254000*%


D10*
X12700Y6350D02*
X714250Y6350D01*
X714250Y596800D01*
X12700Y596800D01*
X12700Y6350D01*
X588125Y538400D02*
X588130Y538790D01*
X588144Y539179D01*
X588168Y539568D01*
X588201Y539956D01*
X588244Y540343D01*
X588297Y540729D01*
X588359Y541114D01*
X588430Y541497D01*
X588511Y541878D01*
X588601Y542257D01*
X588700Y542634D01*
X588809Y543008D01*
X588926Y543380D01*
X589053Y543748D01*
X589189Y544113D01*
X589333Y544475D01*
X589487Y544833D01*
X589649Y545187D01*
X589820Y545538D01*
X589999Y545883D01*
X590187Y546225D01*
X590384Y546561D01*
X590588Y546893D01*
X590800Y547220D01*
X591021Y547541D01*
X591249Y547857D01*
X591485Y548167D01*
X591728Y548471D01*
X591979Y548769D01*
X592237Y549061D01*
X592503Y549346D01*
X592775Y549625D01*
X593054Y549897D01*
X593339Y550163D01*
X593631Y550421D01*
X593929Y550672D01*
X594233Y550915D01*
X594543Y551151D01*
X594859Y551379D01*
X595180Y551600D01*
X595507Y551812D01*
X595839Y552016D01*
X596175Y552213D01*
X596517Y552401D01*
X596862Y552580D01*
X597213Y552751D01*
X597567Y552913D01*
X597925Y553067D01*
X598287Y553211D01*
X598652Y553347D01*
X599020Y553474D01*
X599392Y553591D01*
X599766Y553700D01*
X600143Y553799D01*
X600522Y553889D01*
X600903Y553970D01*
X601286Y554041D01*
X601671Y554103D01*
X602057Y554156D01*
X602444Y554199D01*
X602832Y554232D01*
X603221Y554256D01*
X603610Y554270D01*
X604000Y554275D01*
X604390Y554270D01*
X604779Y554256D01*
X605168Y554232D01*
X605556Y554199D01*
X605943Y554156D01*
X606329Y554103D01*
X606714Y554041D01*
X607097Y553970D01*
X607478Y553889D01*
X607857Y553799D01*
X608234Y553700D01*
X608608Y553591D01*
X608980Y553474D01*
X609348Y553347D01*
X609713Y553211D01*
X610075Y553067D01*
X610433Y552913D01*
X610787Y552751D01*
X611138Y552580D01*
X611483Y552401D01*
X611825Y552213D01*
X612161Y552016D01*
X612493Y551812D01*
X612820Y551600D01*
X613141Y551379D01*
X613457Y551151D01*
X613767Y550915D01*
X614071Y550672D01*
X614369Y550421D01*
X614661Y550163D01*
X614946Y549897D01*
X615225Y549625D01*
X615497Y549346D01*
X615763Y549061D01*
X616021Y548769D01*
X616272Y548471D01*
X616515Y548167D01*
X616751Y547857D01*
X616979Y547541D01*
X617200Y547220D01*
X617412Y546893D01*
X617616Y546561D01*
X617813Y546225D01*
X618001Y545883D01*
X618180Y545538D01*
X618351Y545187D01*
X618513Y544833D01*
X618667Y544475D01*
X618811Y544113D01*
X618947Y543748D01*
X619074Y543380D01*
X619191Y543008D01*
X619300Y542634D01*
X619399Y542257D01*
X619489Y541878D01*
X619570Y541497D01*
X619641Y541114D01*
X619703Y540729D01*
X619756Y540343D01*
X619799Y539956D01*
X619832Y539568D01*
X619856Y539179D01*
X619870Y538790D01*
X619875Y538400D01*
X619870Y538010D01*
X619856Y537621D01*
X619832Y537232D01*
X619799Y536844D01*
X619756Y536457D01*
X619703Y536071D01*
X619641Y535686D01*
X619570Y535303D01*
X619489Y534922D01*
X619399Y534543D01*
X619300Y534166D01*
X619191Y533792D01*
X619074Y533420D01*
X618947Y533052D01*
X618811Y532687D01*
X618667Y532325D01*
X618513Y531967D01*
X618351Y531613D01*
X618180Y531262D01*
X618001Y530917D01*
X617813Y530575D01*
X617616Y530239D01*
X617412Y529907D01*
X617200Y529580D01*
X616979Y529259D01*
X616751Y528943D01*
X616515Y528633D01*
X616272Y528329D01*
X616021Y528031D01*
X615763Y527739D01*
X615497Y527454D01*
X615225Y527175D01*
X614946Y526903D01*
X614661Y526637D01*
X614369Y526379D01*
X614071Y526128D01*
X613767Y525885D01*
X613457Y525649D01*
X613141Y525421D01*
X612820Y525200D01*
X612493Y524988D01*
X612161Y524784D01*
X611825Y524587D01*
X611483Y524399D01*
X611138Y524220D01*
X610787Y524049D01*
X610433Y523887D01*
X610075Y523733D01*
X609713Y523589D01*
X609348Y523453D01*
X608980Y523326D01*
X608608Y523209D01*
X608234Y523100D01*
X607857Y523001D01*
X607478Y522911D01*
X607097Y522830D01*
X606714Y522759D01*
X606329Y522697D01*
X605943Y522644D01*
X605556Y522601D01*
X605168Y522568D01*
X604779Y522544D01*
X604390Y522530D01*
X604000Y522525D01*
X603610Y522530D01*
X603221Y522544D01*
X602832Y522568D01*
X602444Y522601D01*
X602057Y522644D01*
X601671Y522697D01*
X601286Y522759D01*
X600903Y522830D01*
X600522Y522911D01*
X600143Y523001D01*
X599766Y523100D01*
X599392Y523209D01*
X599020Y523326D01*
X598652Y523453D01*
X598287Y523589D01*
X597925Y523733D01*
X597567Y523887D01*
X597213Y524049D01*
X596862Y524220D01*
X596517Y524399D01*
X596175Y524587D01*
X595839Y524784D01*
X595507Y524988D01*
X595180Y525200D01*
X594859Y525421D01*
X594543Y525649D01*
X594233Y525885D01*
X593929Y526128D01*
X593631Y526379D01*
X593339Y526637D01*
X593054Y526903D01*
X592775Y527175D01*
X592503Y527454D01*
X592237Y527739D01*
X591979Y528031D01*
X591728Y528329D01*
X591485Y528633D01*
X591249Y528943D01*
X591021Y529259D01*
X590800Y529580D01*
X590588Y529907D01*
X590384Y530239D01*
X590187Y530575D01*
X589999Y530917D01*
X589820Y531262D01*
X589649Y531613D01*
X589487Y531967D01*
X589333Y532325D01*
X589189Y532687D01*
X589053Y533052D01*
X588926Y533420D01*
X588809Y533792D01*
X588700Y534166D01*
X588601Y534543D01*
X588511Y534922D01*
X588430Y535303D01*
X588359Y535686D01*
X588297Y536071D01*
X588244Y536457D01*
X588201Y536844D01*
X588168Y537232D01*
X588144Y537621D01*
X588130Y538010D01*
X588125Y538400D01*
X105525Y551100D02*
X105530Y551490D01*
X105544Y551879D01*
X105568Y552268D01*
X105601Y552656D01*
X105644Y553043D01*
X105697Y553429D01*
X105759Y553814D01*
X105830Y554197D01*
X105911Y554578D01*
X106001Y554957D01*
X106100Y555334D01*
X106209Y555708D01*
X106326Y556080D01*
X106453Y556448D01*
X106589Y556813D01*
X106733Y557175D01*
X106887Y557533D01*
X107049Y557887D01*
X107220Y558238D01*
X107399Y558583D01*
X107587Y558925D01*
X107784Y559261D01*
X107988Y559593D01*
X108200Y559920D01*
X108421Y560241D01*
X108649Y560557D01*
X108885Y560867D01*
X109128Y561171D01*
X109379Y561469D01*
X109637Y561761D01*
X109903Y562046D01*
X110175Y562325D01*
X110454Y562597D01*
X110739Y562863D01*
X111031Y563121D01*
X111329Y563372D01*
X111633Y563615D01*
X111943Y563851D01*
X112259Y564079D01*
X112580Y564300D01*
X112907Y564512D01*
X113239Y564716D01*
X113575Y564913D01*
X113917Y565101D01*
X114262Y565280D01*
X114613Y565451D01*
X114967Y565613D01*
X115325Y565767D01*
X115687Y565911D01*
X116052Y566047D01*
X116420Y566174D01*
X116792Y566291D01*
X117166Y566400D01*
X117543Y566499D01*
X117922Y566589D01*
X118303Y566670D01*
X118686Y566741D01*
X119071Y566803D01*
X119457Y566856D01*
X119844Y566899D01*
X120232Y566932D01*
X120621Y566956D01*
X121010Y566970D01*
X121400Y566975D01*
X121790Y566970D01*
X122179Y566956D01*
X122568Y566932D01*
X122956Y566899D01*
X123343Y566856D01*
X123729Y566803D01*
X124114Y566741D01*
X124497Y566670D01*
X124878Y566589D01*
X125257Y566499D01*
X125634Y566400D01*
X126008Y566291D01*
X126380Y566174D01*
X126748Y566047D01*
X127113Y565911D01*
X127475Y565767D01*
X127833Y565613D01*
X128187Y565451D01*
X128538Y565280D01*
X128883Y565101D01*
X129225Y564913D01*
X129561Y564716D01*
X129893Y564512D01*
X130220Y564300D01*
X130541Y564079D01*
X130857Y563851D01*
X131167Y563615D01*
X131471Y563372D01*
X131769Y563121D01*
X132061Y562863D01*
X132346Y562597D01*
X132625Y562325D01*
X132897Y562046D01*
X133163Y561761D01*
X133421Y561469D01*
X133672Y561171D01*
X133915Y560867D01*
X134151Y560557D01*
X134379Y560241D01*
X134600Y559920D01*
X134812Y559593D01*
X135016Y559261D01*
X135213Y558925D01*
X135401Y558583D01*
X135580Y558238D01*
X135751Y557887D01*
X135913Y557533D01*
X136067Y557175D01*
X136211Y556813D01*
X136347Y556448D01*
X136474Y556080D01*
X136591Y555708D01*
X136700Y555334D01*
X136799Y554957D01*
X136889Y554578D01*
X136970Y554197D01*
X137041Y553814D01*
X137103Y553429D01*
X137156Y553043D01*
X137199Y552656D01*
X137232Y552268D01*
X137256Y551879D01*
X137270Y551490D01*
X137275Y551100D01*
X137270Y550710D01*
X137256Y550321D01*
X137232Y549932D01*
X137199Y549544D01*
X137156Y549157D01*
X137103Y548771D01*
X137041Y548386D01*
X136970Y548003D01*
X136889Y547622D01*
X136799Y547243D01*
X136700Y546866D01*
X136591Y546492D01*
X136474Y546120D01*
X136347Y545752D01*
X136211Y545387D01*
X136067Y545025D01*
X135913Y544667D01*
X135751Y544313D01*
X135580Y543962D01*
X135401Y543617D01*
X135213Y543275D01*
X135016Y542939D01*
X134812Y542607D01*
X134600Y542280D01*
X134379Y541959D01*
X134151Y541643D01*
X133915Y541333D01*
X133672Y541029D01*
X133421Y540731D01*
X133163Y540439D01*
X132897Y540154D01*
X132625Y539875D01*
X132346Y539603D01*
X132061Y539337D01*
X131769Y539079D01*
X131471Y538828D01*
X131167Y538585D01*
X130857Y538349D01*
X130541Y538121D01*
X130220Y537900D01*
X129893Y537688D01*
X129561Y537484D01*
X129225Y537287D01*
X128883Y537099D01*
X128538Y536920D01*
X128187Y536749D01*
X127833Y536587D01*
X127475Y536433D01*
X127113Y536289D01*
X126748Y536153D01*
X126380Y536026D01*
X126008Y535909D01*
X125634Y535800D01*
X125257Y535701D01*
X124878Y535611D01*
X124497Y535530D01*
X124114Y535459D01*
X123729Y535397D01*
X123343Y535344D01*
X122956Y535301D01*
X122568Y535268D01*
X122179Y535244D01*
X121790Y535230D01*
X121400Y535225D01*
X121010Y535230D01*
X120621Y535244D01*
X120232Y535268D01*
X119844Y535301D01*
X119457Y535344D01*
X119071Y535397D01*
X118686Y535459D01*
X118303Y535530D01*
X117922Y535611D01*
X117543Y535701D01*
X117166Y535800D01*
X116792Y535909D01*
X116420Y536026D01*
X116052Y536153D01*
X115687Y536289D01*
X115325Y536433D01*
X114967Y536587D01*
X114613Y536749D01*
X114262Y536920D01*
X113917Y537099D01*
X113575Y537287D01*
X113239Y537484D01*
X112907Y537688D01*
X112580Y537900D01*
X112259Y538121D01*
X111943Y538349D01*
X111633Y538585D01*
X111329Y538828D01*
X111031Y539079D01*
X110739Y539337D01*
X110454Y539603D01*
X110175Y539875D01*
X109903Y540154D01*
X109637Y540439D01*
X109379Y540731D01*
X109128Y541029D01*
X108885Y541333D01*
X108649Y541643D01*
X108421Y541959D01*
X108200Y542280D01*
X107988Y542607D01*
X107784Y542939D01*
X107587Y543275D01*
X107399Y543617D01*
X107220Y543962D01*
X107049Y544313D01*
X106887Y544667D01*
X106733Y545025D01*
X106589Y545387D01*
X106453Y545752D01*
X106326Y546120D01*
X106209Y546492D01*
X106100Y546866D01*
X106001Y547243D01*
X105911Y547622D01*
X105830Y548003D01*
X105759Y548386D01*
X105697Y548771D01*
X105644Y549157D01*
X105601Y549544D01*
X105568Y549932D01*
X105544Y550321D01*
X105530Y550710D01*
X105525Y551100D01*
X435725Y30400D02*
X435730Y30790D01*
X435744Y31179D01*
X435768Y31568D01*
X435801Y31956D01*
X435844Y32343D01*
X435897Y32729D01*
X435959Y33114D01*
X436030Y33497D01*
X436111Y33878D01*
X436201Y34257D01*
X436300Y34634D01*
X436409Y35008D01*
X436526Y35380D01*
X436653Y35748D01*
X436789Y36113D01*
X436933Y36475D01*
X437087Y36833D01*
X437249Y37187D01*
X437420Y37538D01*
X437599Y37883D01*
X437787Y38225D01*
X437984Y38561D01*
X438188Y38893D01*
X438400Y39220D01*
X438621Y39541D01*
X438849Y39857D01*
X439085Y40167D01*
X439328Y40471D01*
X439579Y40769D01*
X439837Y41061D01*
X440103Y41346D01*
X440375Y41625D01*
X440654Y41897D01*
X440939Y42163D01*
X441231Y42421D01*
X441529Y42672D01*
X441833Y42915D01*
X442143Y43151D01*
X442459Y43379D01*
X442780Y43600D01*
X443107Y43812D01*
X443439Y44016D01*
X443775Y44213D01*
X444117Y44401D01*
X444462Y44580D01*
X444813Y44751D01*
X445167Y44913D01*
X445525Y45067D01*
X445887Y45211D01*
X446252Y45347D01*
X446620Y45474D01*
X446992Y45591D01*
X447366Y45700D01*
X447743Y45799D01*
X448122Y45889D01*
X448503Y45970D01*
X448886Y46041D01*
X449271Y46103D01*
X449657Y46156D01*
X450044Y46199D01*
X450432Y46232D01*
X450821Y46256D01*
X451210Y46270D01*
X451600Y46275D01*
X451990Y46270D01*
X452379Y46256D01*
X452768Y46232D01*
X453156Y46199D01*
X453543Y46156D01*
X453929Y46103D01*
X454314Y46041D01*
X454697Y45970D01*
X455078Y45889D01*
X455457Y45799D01*
X455834Y45700D01*
X456208Y45591D01*
X456580Y45474D01*
X456948Y45347D01*
X457313Y45211D01*
X457675Y45067D01*
X458033Y44913D01*
X458387Y44751D01*
X458738Y44580D01*
X459083Y44401D01*
X459425Y44213D01*
X459761Y44016D01*
X460093Y43812D01*
X460420Y43600D01*
X460741Y43379D01*
X461057Y43151D01*
X461367Y42915D01*
X461671Y42672D01*
X461969Y42421D01*
X462261Y42163D01*
X462546Y41897D01*
X462825Y41625D01*
X463097Y41346D01*
X463363Y41061D01*
X463621Y40769D01*
X463872Y40471D01*
X464115Y40167D01*
X464351Y39857D01*
X464579Y39541D01*
X464800Y39220D01*
X465012Y38893D01*
X465216Y38561D01*
X465413Y38225D01*
X465601Y37883D01*
X465780Y37538D01*
X465951Y37187D01*
X466113Y36833D01*
X466267Y36475D01*
X466411Y36113D01*
X466547Y35748D01*
X466674Y35380D01*
X466791Y35008D01*
X466900Y34634D01*
X466999Y34257D01*
X467089Y33878D01*
X467170Y33497D01*
X467241Y33114D01*
X467303Y32729D01*
X467356Y32343D01*
X467399Y31956D01*
X467432Y31568D01*
X467456Y31179D01*
X467470Y30790D01*
X467475Y30400D01*
X467470Y30010D01*
X467456Y29621D01*
X467432Y29232D01*
X467399Y28844D01*
X467356Y28457D01*
X467303Y28071D01*
X467241Y27686D01*
X467170Y27303D01*
X467089Y26922D01*
X466999Y26543D01*
X466900Y26166D01*
X466791Y25792D01*
X466674Y25420D01*
X466547Y25052D01*
X466411Y24687D01*
X466267Y24325D01*
X466113Y23967D01*
X465951Y23613D01*
X465780Y23262D01*
X465601Y22917D01*
X465413Y22575D01*
X465216Y22239D01*
X465012Y21907D01*
X464800Y21580D01*
X464579Y21259D01*
X464351Y20943D01*
X464115Y20633D01*
X463872Y20329D01*
X463621Y20031D01*
X463363Y19739D01*
X463097Y19454D01*
X462825Y19175D01*
X462546Y18903D01*
X462261Y18637D01*
X461969Y18379D01*
X461671Y18128D01*
X461367Y17885D01*
X461057Y17649D01*
X460741Y17421D01*
X460420Y17200D01*
X460093Y16988D01*
X459761Y16784D01*
X459425Y16587D01*
X459083Y16399D01*
X458738Y16220D01*
X458387Y16049D01*
X458033Y15887D01*
X457675Y15733D01*
X457313Y15589D01*
X456948Y15453D01*
X456580Y15326D01*
X456208Y15209D01*
X455834Y15100D01*
X455457Y15001D01*
X455078Y14911D01*
X454697Y14830D01*
X454314Y14759D01*
X453929Y14697D01*
X453543Y14644D01*
X453156Y14601D01*
X452768Y14568D01*
X452379Y14544D01*
X451990Y14530D01*
X451600Y14525D01*
X451210Y14530D01*
X450821Y14544D01*
X450432Y14568D01*
X450044Y14601D01*
X449657Y14644D01*
X449271Y14697D01*
X448886Y14759D01*
X448503Y14830D01*
X448122Y14911D01*
X447743Y15001D01*
X447366Y15100D01*
X446992Y15209D01*
X446620Y15326D01*
X446252Y15453D01*
X445887Y15589D01*
X445525Y15733D01*
X445167Y15887D01*
X444813Y16049D01*
X444462Y16220D01*
X444117Y16399D01*
X443775Y16587D01*
X443439Y16784D01*
X443107Y16988D01*
X442780Y17200D01*
X442459Y17421D01*
X442143Y17649D01*
X441833Y17885D01*
X441529Y18128D01*
X441231Y18379D01*
X440939Y18637D01*
X440654Y18903D01*
X440375Y19175D01*
X440103Y19454D01*
X439837Y19739D01*
X439579Y20031D01*
X439328Y20329D01*
X439085Y20633D01*
X438849Y20943D01*
X438621Y21259D01*
X438400Y21580D01*
X438188Y21907D01*
X437984Y22239D01*
X437787Y22575D01*
X437599Y22917D01*
X437420Y23262D01*
X437249Y23613D01*
X437087Y23967D01*
X436933Y24325D01*
X436789Y24687D01*
X436653Y25052D01*
X436526Y25420D01*
X436409Y25792D01*
X436300Y26166D01*
X436201Y26543D01*
X436111Y26922D01*
X436030Y27303D01*
X435959Y27686D01*
X435897Y28071D01*
X435844Y28457D01*
X435801Y28844D01*
X435768Y29232D01*
X435744Y29621D01*
X435730Y30010D01*
X435725Y30400D01*
D11*
X12700Y6350D02*
X714250Y6350D01*
X714250Y596800D01*
X12700Y596800D01*
X12700Y6350D01*
X619875Y537880D02*
X619807Y536843D01*
X619671Y535813D01*
X619469Y534793D01*
X619200Y533789D01*
X618865Y532805D01*
X618468Y531845D01*
X618008Y530913D01*
X617488Y530012D01*
X616911Y529148D01*
X616278Y528324D01*
X615593Y527542D01*
X614858Y526807D01*
X614076Y526122D01*
X613252Y525489D01*
X612388Y524912D01*
X611487Y524392D01*
X610555Y523932D01*
X609595Y523535D01*
X608611Y523200D01*
X607607Y522931D01*
X606587Y522729D01*
X605557Y522593D01*
X604520Y522525D01*
X603480Y522525D01*
X602443Y522593D01*
X601413Y522729D01*
X600393Y522931D01*
X599389Y523200D01*
X598405Y523535D01*
X597445Y523932D01*
X596513Y524392D01*
X595612Y524912D01*
X594748Y525489D01*
X593924Y526122D01*
X593142Y526807D01*
X592407Y527542D01*
X591722Y528324D01*
X591089Y529148D01*
X590512Y530012D01*
X589992Y530913D01*
X589532Y531845D01*
X589135Y532805D01*
X588800Y533789D01*
X588531Y534793D01*
X588329Y535813D01*
X588193Y536843D01*
X588125Y537880D01*
X588125Y538920D01*
X588193Y539957D01*
X588329Y540987D01*
X588531Y542007D01*
X588800Y543011D01*
X589135Y543995D01*
X589532Y544955D01*
X589992Y545887D01*
X590512Y546788D01*
X591089Y547652D01*
X591722Y548476D01*
X592407Y549258D01*
X593142Y549993D01*
X593924Y550678D01*
X594748Y551311D01*
X595612Y551888D01*
X596513Y552408D01*
X597445Y552868D01*
X598405Y553265D01*
X599389Y553600D01*
X600393Y553869D01*
X601413Y554071D01*
X602443Y554207D01*
X603480Y554275D01*
X604520Y554275D01*
X605557Y554207D01*
X606587Y554071D01*
X607607Y553869D01*
X608611Y553600D01*
X609595Y553265D01*
X610555Y552868D01*
X611487Y552408D01*
X612388Y551888D01*
X613252Y551311D01*
X614076Y550678D01*
X614858Y549993D01*
X615593Y549258D01*
X616278Y548476D01*
X616911Y547652D01*
X617488Y546788D01*
X618008Y545887D01*
X618468Y544955D01*
X618865Y543995D01*
X619200Y543011D01*
X619469Y542007D01*
X619671Y540987D01*
X619807Y539957D01*
X619875Y538920D01*
X619875Y537880D01*
X137275Y550580D02*
X137207Y549543D01*
X137071Y548513D01*
X136869Y547493D01*
X136600Y546489D01*
X136265Y545505D01*
X135868Y544545D01*
X135408Y543613D01*
X134888Y542712D01*
X134311Y541848D01*
X133678Y541024D01*
X132993Y540242D01*
X132258Y539507D01*
X131476Y538822D01*
X130652Y538189D01*
X129788Y537612D01*
X128887Y537092D01*
X127955Y536632D01*
X126995Y536235D01*
X126011Y535900D01*
X125007Y535631D01*
X123987Y535429D01*
X122957Y535293D01*
X121920Y535225D01*
X120880Y535225D01*
X119843Y535293D01*
X118813Y535429D01*
X117793Y535631D01*
X116789Y535900D01*
X115805Y536235D01*
X114845Y536632D01*
X113913Y537092D01*
X113012Y537612D01*
X112148Y538189D01*
X111324Y538822D01*
X110542Y539507D01*
X109807Y540242D01*
X109122Y541024D01*
X108489Y541848D01*
X107912Y542712D01*
X107392Y543613D01*
X106932Y544545D01*
X106535Y545505D01*
X106200Y546489D01*
X105931Y547493D01*
X105729Y548513D01*
X105593Y549543D01*
X105525Y550580D01*
X105525Y551620D01*
X105593Y552657D01*
X105729Y553687D01*
X105931Y554707D01*
X106200Y555711D01*
X106535Y556695D01*
X106932Y557655D01*
X107392Y558587D01*
X107912Y559488D01*
X108489Y560352D01*
X109122Y561176D01*
X109807Y561958D01*
X110542Y562693D01*
X111324Y563378D01*
X112148Y564011D01*
X113012Y564588D01*
X113913Y565108D01*
X114845Y565568D01*
X115805Y565965D01*
X116789Y566300D01*
X117793Y566569D01*
X118813Y566771D01*
X119843Y566907D01*
X120880Y566975D01*
X121920Y566975D01*
X122957Y566907D01*
X123987Y566771D01*
X125007Y566569D01*
X126011Y566300D01*
X126995Y565965D01*
X127955Y565568D01*
X128887Y565108D01*
X129788Y564588D01*
X130652Y564011D01*
X131476Y563378D01*
X132258Y562693D01*
X132993Y561958D01*
X133678Y561176D01*
X134311Y560352D01*
X134888Y559488D01*
X135408Y558587D01*
X135868Y557655D01*
X136265Y556695D01*
X136600Y555711D01*
X136869Y554707D01*
X137071Y553687D01*
X137207Y552657D01*
X137275Y551620D01*
X137275Y550580D01*
X467475Y29880D02*
X467407Y28843D01*
X467271Y27813D01*
X467069Y26793D01*
X466800Y25789D01*
X466465Y24805D01*
X466068Y23845D01*
X465608Y22913D01*
X465088Y22012D01*
X464511Y21148D01*
X463878Y20324D01*
X463193Y19542D01*
X462458Y18807D01*
X461676Y18122D01*
X460852Y17489D01*
X459988Y16912D01*
X459087Y16392D01*
X458155Y15932D01*
X457195Y15535D01*
X456211Y15200D01*
X455207Y14931D01*
X454187Y14729D01*
X453157Y14593D01*
X452120Y14525D01*
X451080Y14525D01*
X450043Y14593D01*
X449013Y14729D01*
X447993Y14931D01*
X446989Y15200D01*
X446005Y15535D01*
X445045Y15932D01*
X444113Y16392D01*
X443212Y16912D01*
X442348Y17489D01*
X441524Y18122D01*
X440742Y18807D01*
X440007Y19542D01*
X439322Y20324D01*
X438689Y21148D01*
X438112Y22012D01*
X437592Y22913D01*
X437132Y23845D01*
X436735Y24805D01*
X436400Y25789D01*
X436131Y26793D01*
X435929Y27813D01*
X435793Y28843D01*
X435725Y29880D01*
X435725Y30920D01*
X435793Y31957D01*
X435929Y32987D01*
X436131Y34007D01*
X436400Y35011D01*
X436735Y35995D01*
X437132Y36955D01*
X437592Y37887D01*
X438112Y38788D01*
X438689Y39652D01*
X439322Y40476D01*
X440007Y41258D01*
X440742Y41993D01*
X441524Y42678D01*
X442348Y43311D01*
X443212Y43888D01*
X444113Y44408D01*
X445045Y44868D01*
X446005Y45265D01*
X446989Y45600D01*
X447993Y45869D01*
X449013Y46071D01*
X450043Y46207D01*
X451080Y46275D01*
X452120Y46275D01*
X453157Y46207D01*
X454187Y46071D01*
X455207Y45869D01*
X456211Y45600D01*
X457195Y45265D01*
X458155Y44868D01*
X459087Y44408D01*
X459988Y43888D01*
X460852Y43311D01*
X461676Y42678D01*
X462458Y41993D01*
X463193Y41258D01*
X463878Y40476D01*
X464511Y39652D01*
X465088Y38788D01*
X465608Y37887D01*
X466068Y36955D01*
X466465Y35995D01*
X466800Y35011D01*
X467069Y34007D01*
X467271Y32987D01*
X467407Y31957D01*
X467475Y30920D01*
X467475Y29880D01*
M02*
