M48
;GenerationSoftware,Autodesk,EAGLE,9.6.2*%
;CreationDate,2022-11-16T23:20:44Z*%
FMAT,2
ICI,OFF
METRIC,TZ,000.000
T4C0.300
T3C0.813
T2C1.100
T1C3.175
%
G90
M71
T1
X60400Y53840
X12140Y55110
X45160Y3040
T2
X12140Y10660
X68020Y15715
X65480Y13175
X68020Y13175
X65480Y10635
X68020Y10635
X65480Y8095
X68020Y8095
X65480Y5555
X12140Y18280
X12140Y15740
X12140Y13200
X4520Y46220
X12140Y8120
X12140Y5580
X12140Y41140
X12140Y38600
X12140Y36060
X12140Y33520
X12140Y30980
X12140Y28440
X12140Y25900
X12140Y23360
X4520Y51300
X7060Y51300
X4520Y48760
X7060Y48760
X68020Y5555
X7060Y46220
X4520Y43680
X7060Y43680
X4520Y41140
X7060Y41140
X4520Y38600
X7060Y38600
X4520Y36060
X7060Y36060
X4520Y33520
X7060Y33520
X4520Y30980
X7060Y30980
X4520Y28440
X7060Y28440
X4520Y25900
X7060Y25900
X4520Y23360
X7060Y23360
X4520Y20820
X7060Y20820
X4520Y18280
X7060Y18280
X4520Y15740
X7060Y15740
X4520Y13200
X7060Y13200
X4520Y10660
X7060Y10660
X4520Y8120
X7060Y8120
X4520Y5580
X7060Y5580
X60400Y27424
X60400Y29964
X60400Y32504
X60400Y35044
X60400Y37584
X60400Y40124
X60400Y42664
X60400Y45204
X60400Y47744
X60400Y50284
X60400Y10660
X60400Y13200
X60400Y15740
X60400Y18280
X60400Y20820
X60400Y23360
X60400Y5580
X60400Y8120
X65480Y51275
X68020Y51275
X65480Y48735
X68020Y48735
X65480Y46195
X68020Y46195
X65480Y43655
X68020Y43655
X65480Y41115
X68020Y41115
X65480Y38575
X68020Y38575
X65480Y36035
X68020Y36035
X65480Y33495
X68020Y33495
X65480Y30955
X68020Y30955
X65480Y28415
X68020Y28415
X65480Y25875
X68020Y25875
X65480Y23335
X68020Y23335
X65480Y20795
X68020Y20795
X65480Y18255
X68020Y18255
X65480Y15715
T3
X43410Y53985
X43410Y51445
X27075Y53975
X27075Y51435
T4
X39370Y39370
X39370Y36830
X53340Y17780
X49530Y11430
X36830Y33020
X41910Y12700
X28575Y51435
X45085Y51435
X39370Y41910
M30