G04 EAGLE Gerber RS-274X export*
G75*
%MOMM*%
%FSLAX34Y34*%
%LPD*%
%INSoldermask Bottom*%
%IPPOS*%
%AMOC8*
5,1,8,0,0,1.08239X$1,22.5*%
G01*
%ADD10R,2.053200X2.053200*%
%ADD11C,2.053200*%
%ADD12C,3.378200*%
%ADD13P,1.649562X8X292.500000*%


D10*
X121400Y182800D03*
D11*
X121400Y157400D03*
X121400Y132000D03*
X121400Y106600D03*
X121400Y81200D03*
X121400Y55800D03*
D10*
X121400Y411400D03*
D11*
X121400Y386000D03*
X121400Y360600D03*
X121400Y335200D03*
X121400Y309800D03*
X121400Y284400D03*
X121400Y259000D03*
X121400Y233600D03*
D10*
X45200Y513000D03*
D11*
X70600Y513000D03*
X45200Y487600D03*
X70600Y487600D03*
X45200Y462200D03*
X70600Y462200D03*
X45200Y436800D03*
X70600Y436800D03*
X45200Y411400D03*
X70600Y411400D03*
X45200Y386000D03*
X70600Y386000D03*
X45200Y360600D03*
X70600Y360600D03*
X45200Y335200D03*
X70600Y335200D03*
X45200Y309800D03*
X70600Y309800D03*
X45200Y284400D03*
X70600Y284400D03*
X45200Y259000D03*
X70600Y259000D03*
X45200Y233600D03*
X70600Y233600D03*
X45200Y208200D03*
X70600Y208200D03*
X45200Y182800D03*
X70600Y182800D03*
X45200Y157400D03*
X70600Y157400D03*
X45200Y132000D03*
X70600Y132000D03*
X45200Y106600D03*
X70600Y106600D03*
X45200Y81200D03*
X70600Y81200D03*
X45200Y55800D03*
X70600Y55800D03*
D10*
X604000Y274240D03*
D11*
X604000Y299640D03*
X604000Y325040D03*
X604000Y350440D03*
X604000Y375840D03*
X604000Y401240D03*
X604000Y426640D03*
X604000Y452040D03*
X604000Y477440D03*
X604000Y502840D03*
X604000Y106600D03*
X604000Y132000D03*
X604000Y157400D03*
X604000Y182800D03*
X604000Y208200D03*
X604000Y233600D03*
D10*
X604000Y55800D03*
D11*
X604000Y81200D03*
D10*
X654800Y512750D03*
D11*
X680200Y512750D03*
X654800Y487350D03*
X680200Y487350D03*
X654800Y461950D03*
X680200Y461950D03*
X654800Y436550D03*
X680200Y436550D03*
X654800Y411150D03*
X680200Y411150D03*
X654800Y385750D03*
X680200Y385750D03*
X654800Y360350D03*
X680200Y360350D03*
X654800Y334950D03*
X680200Y334950D03*
X654800Y309550D03*
X680200Y309550D03*
X654800Y284150D03*
X680200Y284150D03*
X654800Y258750D03*
X680200Y258750D03*
X654800Y233350D03*
X680200Y233350D03*
X654800Y207950D03*
X680200Y207950D03*
X654800Y182550D03*
X680200Y182550D03*
X654800Y157150D03*
X680200Y157150D03*
X654800Y131750D03*
X680200Y131750D03*
X654800Y106350D03*
X680200Y106350D03*
X654800Y80950D03*
X680200Y80950D03*
X654800Y55550D03*
X680200Y55550D03*
D12*
X604000Y538400D03*
X121400Y551100D03*
X451600Y30400D03*
D13*
X434100Y539850D03*
X434100Y514450D03*
X270750Y539750D03*
X270750Y514350D03*
M02*
