G04 EAGLE Gerber RS-274X export*
G75*
%MOMM*%
%FSLAX34Y34*%
%LPD*%
%INTop Copper*%
%IPPOS*%
%AMOC8*
5,1,8,0,0,1.08239X$1,22.5*%
G01*
%ADD10R,1.100000X1.000000*%
%ADD11R,1.300000X1.500000*%
%ADD12R,1.400000X1.000000*%
%ADD13C,0.500000*%
%ADD14R,1.850000X1.850000*%
%ADD15C,1.850000*%
%ADD16P,1.429621X8X292.500000*%
%ADD17C,0.254000*%
%ADD18C,0.452400*%
%ADD19C,0.152400*%


D10*
X359800Y393700D03*
X376800Y393700D03*
X359800Y368300D03*
X376800Y368300D03*
D11*
X358800Y419100D03*
X377800Y419100D03*
X498500Y177800D03*
X517500Y177800D03*
X282600Y469900D03*
X301600Y469900D03*
X422300Y469900D03*
X441300Y469900D03*
X498500Y209550D03*
X517500Y209550D03*
D12*
X519000Y139700D03*
X497000Y130200D03*
X497000Y149200D03*
D13*
X421600Y296100D02*
X421600Y316100D01*
X421600Y296100D02*
X416600Y296100D01*
X416600Y316100D01*
X421600Y316100D01*
X421600Y300850D02*
X416600Y300850D01*
X416600Y305600D02*
X421600Y305600D01*
X421600Y310350D02*
X416600Y310350D01*
X416600Y315100D02*
X421600Y315100D01*
X396200Y316100D02*
X396200Y296100D01*
X391200Y296100D01*
X391200Y316100D01*
X396200Y316100D01*
X396200Y300850D02*
X391200Y300850D01*
X391200Y305600D02*
X396200Y305600D01*
X396200Y310350D02*
X391200Y310350D01*
X391200Y315100D02*
X396200Y315100D01*
X370800Y316100D02*
X370800Y296100D01*
X365800Y296100D01*
X365800Y316100D01*
X370800Y316100D01*
X370800Y300850D02*
X365800Y300850D01*
X365800Y305600D02*
X370800Y305600D01*
X370800Y310350D02*
X365800Y310350D01*
X365800Y315100D02*
X370800Y315100D01*
X345400Y316100D02*
X345400Y296100D01*
X340400Y296100D01*
X340400Y316100D01*
X345400Y316100D01*
X345400Y300850D02*
X340400Y300850D01*
X340400Y305600D02*
X345400Y305600D01*
X345400Y310350D02*
X340400Y310350D01*
X340400Y315100D02*
X345400Y315100D01*
X320000Y316100D02*
X320000Y296100D01*
X315000Y296100D01*
X315000Y316100D01*
X320000Y316100D01*
X320000Y300850D02*
X315000Y300850D01*
X315000Y305600D02*
X320000Y305600D01*
X320000Y310350D02*
X315000Y310350D01*
X315000Y315100D02*
X320000Y315100D01*
X294600Y316100D02*
X294600Y296100D01*
X289600Y296100D01*
X289600Y316100D01*
X294600Y316100D01*
X294600Y300850D02*
X289600Y300850D01*
X289600Y305600D02*
X294600Y305600D01*
X294600Y310350D02*
X289600Y310350D01*
X289600Y315100D02*
X294600Y315100D01*
X421600Y161100D02*
X421600Y141100D01*
X416600Y141100D01*
X416600Y161100D01*
X421600Y161100D01*
X421600Y145850D02*
X416600Y145850D01*
X416600Y150600D02*
X421600Y150600D01*
X421600Y155350D02*
X416600Y155350D01*
X416600Y160100D02*
X421600Y160100D01*
X396200Y161100D02*
X396200Y141100D01*
X391200Y141100D01*
X391200Y161100D01*
X396200Y161100D01*
X396200Y145850D02*
X391200Y145850D01*
X391200Y150600D02*
X396200Y150600D01*
X396200Y155350D02*
X391200Y155350D01*
X391200Y160100D02*
X396200Y160100D01*
X370800Y161100D02*
X370800Y141100D01*
X365800Y141100D01*
X365800Y161100D01*
X370800Y161100D01*
X370800Y145850D02*
X365800Y145850D01*
X365800Y150600D02*
X370800Y150600D01*
X370800Y155350D02*
X365800Y155350D01*
X365800Y160100D02*
X370800Y160100D01*
X345400Y161100D02*
X345400Y141100D01*
X340400Y141100D01*
X340400Y161100D01*
X345400Y161100D01*
X345400Y145850D02*
X340400Y145850D01*
X340400Y150600D02*
X345400Y150600D01*
X345400Y155350D02*
X340400Y155350D01*
X340400Y160100D02*
X345400Y160100D01*
X320000Y161100D02*
X320000Y141100D01*
X315000Y141100D01*
X315000Y161100D01*
X320000Y161100D01*
X320000Y145850D02*
X315000Y145850D01*
X315000Y150600D02*
X320000Y150600D01*
X320000Y155350D02*
X315000Y155350D01*
X315000Y160100D02*
X320000Y160100D01*
X294600Y161100D02*
X294600Y141100D01*
X289600Y141100D01*
X289600Y161100D01*
X294600Y161100D01*
X294600Y145850D02*
X289600Y145850D01*
X289600Y150600D02*
X294600Y150600D01*
X294600Y155350D02*
X289600Y155350D01*
X289600Y160100D02*
X294600Y160100D01*
D14*
X121400Y182800D03*
D15*
X121400Y157400D03*
X121400Y132000D03*
X121400Y106600D03*
X121400Y81200D03*
X121400Y55800D03*
D14*
X121400Y411400D03*
D15*
X121400Y386000D03*
X121400Y360600D03*
X121400Y335200D03*
X121400Y309800D03*
X121400Y284400D03*
X121400Y259000D03*
X121400Y233600D03*
D14*
X45200Y513000D03*
D15*
X70600Y513000D03*
X45200Y487600D03*
X70600Y487600D03*
X45200Y462200D03*
X70600Y462200D03*
X45200Y436800D03*
X70600Y436800D03*
X45200Y411400D03*
X70600Y411400D03*
X45200Y386000D03*
X70600Y386000D03*
X45200Y360600D03*
X70600Y360600D03*
X45200Y335200D03*
X70600Y335200D03*
X45200Y309800D03*
X70600Y309800D03*
X45200Y284400D03*
X70600Y284400D03*
X45200Y259000D03*
X70600Y259000D03*
X45200Y233600D03*
X70600Y233600D03*
X45200Y208200D03*
X70600Y208200D03*
X45200Y182800D03*
X70600Y182800D03*
X45200Y157400D03*
X70600Y157400D03*
X45200Y132000D03*
X70600Y132000D03*
X45200Y106600D03*
X70600Y106600D03*
X45200Y81200D03*
X70600Y81200D03*
X45200Y55800D03*
X70600Y55800D03*
D14*
X604000Y274240D03*
D15*
X604000Y299640D03*
X604000Y325040D03*
X604000Y350440D03*
X604000Y375840D03*
X604000Y401240D03*
X604000Y426640D03*
X604000Y452040D03*
X604000Y477440D03*
X604000Y502840D03*
X604000Y106600D03*
X604000Y132000D03*
X604000Y157400D03*
X604000Y182800D03*
X604000Y208200D03*
X604000Y233600D03*
D14*
X604000Y55800D03*
D15*
X604000Y81200D03*
D14*
X654800Y512750D03*
D15*
X680200Y512750D03*
X654800Y487350D03*
X680200Y487350D03*
X654800Y461950D03*
X680200Y461950D03*
X654800Y436550D03*
X680200Y436550D03*
X654800Y411150D03*
X680200Y411150D03*
X654800Y385750D03*
X680200Y385750D03*
X654800Y360350D03*
X680200Y360350D03*
X654800Y334950D03*
X680200Y334950D03*
X654800Y309550D03*
X680200Y309550D03*
X654800Y284150D03*
X680200Y284150D03*
X654800Y258750D03*
X680200Y258750D03*
X654800Y233350D03*
X680200Y233350D03*
X654800Y207950D03*
X680200Y207950D03*
X654800Y182550D03*
X680200Y182550D03*
X654800Y157150D03*
X680200Y157150D03*
X654800Y131750D03*
X680200Y131750D03*
X654800Y106350D03*
X680200Y106350D03*
X654800Y80950D03*
X680200Y80950D03*
X654800Y55550D03*
X680200Y55550D03*
D16*
X434100Y539850D03*
X434100Y514450D03*
X270750Y539750D03*
X270750Y514350D03*
D17*
X377800Y419100D02*
X393700Y419100D01*
D18*
X393700Y419100D03*
D17*
X393700Y393700D02*
X376800Y393700D01*
D18*
X393700Y393700D03*
D17*
X393700Y368300D02*
X376800Y368300D01*
D18*
X393700Y368300D03*
D17*
X517500Y177800D02*
X533400Y177800D01*
D18*
X533400Y177800D03*
D17*
X497000Y130200D02*
X497000Y114300D01*
X495300Y114300D01*
D18*
X495300Y114300D03*
D17*
X368300Y306100D02*
X368300Y330200D01*
D18*
X368300Y330200D03*
D17*
X419100Y151100D02*
X419100Y127000D01*
D18*
X419100Y127000D03*
D17*
X285750Y514350D02*
X270750Y514350D01*
D18*
X285750Y514350D03*
D17*
X434100Y514450D02*
X450750Y514450D01*
D19*
X450850Y514350D01*
D18*
X450850Y514350D03*
D17*
X342900Y342900D02*
X342900Y306100D01*
X342900Y342900D02*
X355600Y342900D01*
X359800Y347100D01*
X359800Y368300D01*
X359800Y393700D01*
X359800Y418100D01*
X358800Y419100D01*
X208200Y335200D02*
X121400Y335200D01*
X317500Y342900D02*
X317500Y306100D01*
X317500Y342900D02*
X342900Y342900D01*
X358800Y419100D02*
X292100Y419100D01*
X208200Y335200D01*
X519000Y139700D02*
X519000Y112600D01*
X508000Y101600D01*
X368300Y120650D02*
X368300Y151100D01*
X368300Y120650D02*
X387350Y101600D01*
X508000Y101600D01*
X517500Y196800D02*
X517500Y209550D01*
X517500Y196800D02*
X498500Y177800D01*
X497000Y176300D02*
X497000Y149200D01*
X497000Y176300D02*
X498500Y177800D01*
X498500Y209550D02*
X495300Y212750D01*
X495300Y228600D01*
X500300Y233600D01*
X604000Y233600D01*
X282600Y469900D02*
X266700Y469900D01*
X254000Y469900D01*
X254000Y539750D01*
X270750Y539750D01*
X406400Y469900D02*
X422300Y469900D01*
X406400Y469900D02*
X406400Y539750D01*
D19*
X406500Y539850D01*
D17*
X434100Y539850D01*
X121400Y309800D02*
X70600Y309800D01*
X70600Y233600D02*
X121400Y233600D01*
X604000Y452040D02*
X619490Y436550D01*
X654800Y436550D01*
X393700Y306100D02*
X393700Y279400D01*
X398860Y274240D01*
X604000Y274240D01*
X393700Y450850D02*
X374650Y469900D01*
X393700Y450850D02*
X527050Y450850D01*
X374650Y469900D02*
X301600Y469900D01*
X527050Y450850D02*
X553640Y477440D01*
X604000Y477440D01*
X585060Y306100D02*
X419100Y306100D01*
X585060Y306100D02*
X604000Y325040D01*
X520700Y469900D02*
X441300Y469900D01*
X520700Y469900D02*
X553640Y502840D01*
X604000Y502840D01*
M02*
