G04 EAGLE Gerber RS-274X export*
G75*
%MOMM*%
%FSLAX34Y34*%
%LPD*%
%INSoldermask Bottom*%
%IPPOS*%
%AMOC8*
5,1,8,0,0,1.08239X$1,22.5*%
G01*
%ADD10C,3.821200*%
%ADD11R,1.805200X1.805200*%
%ADD12R,1.503200X1.803200*%
%ADD13R,1.803200X1.503200*%
%ADD14C,2.032000*%
%ADD15C,2.003200*%
%ADD16C,2.543200*%

G36*
X190050Y579505D02*
X190050Y579505D01*
X190100Y579503D01*
X190272Y579525D01*
X190445Y579541D01*
X190493Y579554D01*
X190543Y579560D01*
X190708Y579613D01*
X190876Y579659D01*
X190921Y579681D01*
X190968Y579696D01*
X191122Y579777D01*
X191278Y579852D01*
X191319Y579882D01*
X191363Y579905D01*
X191500Y580012D01*
X191640Y580114D01*
X191675Y580150D01*
X191714Y580181D01*
X191830Y580311D01*
X191950Y580436D01*
X191977Y580478D01*
X192011Y580516D01*
X192101Y580664D01*
X192197Y580808D01*
X192217Y580855D01*
X192243Y580897D01*
X192305Y581059D01*
X192374Y581219D01*
X192385Y581267D01*
X192403Y581314D01*
X192436Y581485D01*
X192475Y581654D01*
X192478Y581704D01*
X192487Y581753D01*
X192499Y582000D01*
X192499Y650000D01*
X192495Y650050D01*
X192497Y650100D01*
X192475Y650272D01*
X192459Y650445D01*
X192446Y650493D01*
X192440Y650543D01*
X192387Y650708D01*
X192341Y650876D01*
X192319Y650921D01*
X192304Y650968D01*
X192223Y651122D01*
X192148Y651278D01*
X192118Y651319D01*
X192095Y651363D01*
X191988Y651500D01*
X191886Y651640D01*
X191850Y651675D01*
X191819Y651714D01*
X191689Y651830D01*
X191564Y651950D01*
X191522Y651977D01*
X191484Y652011D01*
X191336Y652101D01*
X191192Y652197D01*
X191146Y652217D01*
X191103Y652243D01*
X190941Y652305D01*
X190781Y652374D01*
X190733Y652385D01*
X190686Y652403D01*
X190515Y652436D01*
X190346Y652475D01*
X190296Y652478D01*
X190247Y652487D01*
X190000Y652499D01*
X34000Y652499D01*
X33950Y652495D01*
X33900Y652497D01*
X33728Y652475D01*
X33555Y652459D01*
X33507Y652446D01*
X33457Y652440D01*
X33292Y652387D01*
X33124Y652341D01*
X33079Y652319D01*
X33032Y652304D01*
X32878Y652223D01*
X32722Y652148D01*
X32681Y652118D01*
X32637Y652095D01*
X32501Y651988D01*
X32360Y651886D01*
X32325Y651850D01*
X32286Y651819D01*
X32170Y651689D01*
X32050Y651564D01*
X32023Y651522D01*
X31989Y651484D01*
X31899Y651336D01*
X31803Y651192D01*
X31783Y651146D01*
X31757Y651103D01*
X31695Y650941D01*
X31626Y650781D01*
X31615Y650733D01*
X31597Y650686D01*
X31564Y650515D01*
X31525Y650346D01*
X31522Y650296D01*
X31513Y650247D01*
X31501Y650000D01*
X31501Y582000D01*
X31505Y581950D01*
X31503Y581900D01*
X31525Y581728D01*
X31541Y581555D01*
X31554Y581507D01*
X31560Y581457D01*
X31613Y581292D01*
X31659Y581124D01*
X31681Y581079D01*
X31696Y581032D01*
X31777Y580878D01*
X31852Y580722D01*
X31882Y580681D01*
X31905Y580637D01*
X32012Y580501D01*
X32114Y580360D01*
X32150Y580325D01*
X32181Y580286D01*
X32311Y580170D01*
X32436Y580050D01*
X32478Y580023D01*
X32516Y579989D01*
X32664Y579899D01*
X32808Y579803D01*
X32855Y579783D01*
X32897Y579757D01*
X33059Y579695D01*
X33219Y579626D01*
X33267Y579615D01*
X33314Y579597D01*
X33485Y579564D01*
X33654Y579525D01*
X33704Y579522D01*
X33753Y579513D01*
X34000Y579501D01*
X190000Y579501D01*
X190050Y579505D01*
G37*
G36*
X190050Y503505D02*
X190050Y503505D01*
X190100Y503503D01*
X190272Y503525D01*
X190445Y503541D01*
X190493Y503554D01*
X190543Y503560D01*
X190708Y503613D01*
X190876Y503659D01*
X190921Y503681D01*
X190968Y503696D01*
X191122Y503777D01*
X191278Y503852D01*
X191319Y503882D01*
X191363Y503905D01*
X191500Y504012D01*
X191640Y504114D01*
X191675Y504150D01*
X191714Y504181D01*
X191830Y504311D01*
X191950Y504436D01*
X191977Y504478D01*
X192011Y504516D01*
X192101Y504664D01*
X192197Y504808D01*
X192217Y504855D01*
X192243Y504897D01*
X192305Y505059D01*
X192374Y505219D01*
X192385Y505267D01*
X192403Y505314D01*
X192436Y505485D01*
X192475Y505654D01*
X192478Y505704D01*
X192487Y505753D01*
X192499Y506000D01*
X192499Y574000D01*
X192495Y574050D01*
X192497Y574100D01*
X192475Y574272D01*
X192459Y574445D01*
X192446Y574493D01*
X192440Y574543D01*
X192387Y574708D01*
X192341Y574876D01*
X192319Y574921D01*
X192304Y574968D01*
X192223Y575122D01*
X192148Y575278D01*
X192118Y575319D01*
X192095Y575363D01*
X191988Y575500D01*
X191886Y575640D01*
X191850Y575675D01*
X191819Y575714D01*
X191689Y575830D01*
X191564Y575950D01*
X191522Y575977D01*
X191484Y576011D01*
X191336Y576101D01*
X191192Y576197D01*
X191146Y576217D01*
X191103Y576243D01*
X190941Y576305D01*
X190781Y576374D01*
X190733Y576385D01*
X190686Y576403D01*
X190515Y576436D01*
X190346Y576475D01*
X190296Y576478D01*
X190247Y576487D01*
X190000Y576499D01*
X34000Y576499D01*
X33950Y576495D01*
X33900Y576497D01*
X33728Y576475D01*
X33555Y576459D01*
X33507Y576446D01*
X33457Y576440D01*
X33292Y576387D01*
X33124Y576341D01*
X33079Y576319D01*
X33032Y576304D01*
X32878Y576223D01*
X32722Y576148D01*
X32681Y576118D01*
X32637Y576095D01*
X32501Y575988D01*
X32360Y575886D01*
X32325Y575850D01*
X32286Y575819D01*
X32170Y575689D01*
X32050Y575564D01*
X32023Y575522D01*
X31989Y575484D01*
X31899Y575336D01*
X31803Y575192D01*
X31783Y575146D01*
X31757Y575103D01*
X31695Y574941D01*
X31626Y574781D01*
X31615Y574733D01*
X31597Y574686D01*
X31564Y574515D01*
X31525Y574346D01*
X31522Y574296D01*
X31513Y574247D01*
X31501Y574000D01*
X31501Y506000D01*
X31505Y505950D01*
X31503Y505900D01*
X31525Y505728D01*
X31541Y505555D01*
X31554Y505507D01*
X31560Y505457D01*
X31613Y505292D01*
X31659Y505124D01*
X31681Y505079D01*
X31696Y505032D01*
X31777Y504878D01*
X31852Y504722D01*
X31882Y504681D01*
X31905Y504637D01*
X32012Y504501D01*
X32114Y504360D01*
X32150Y504325D01*
X32181Y504286D01*
X32311Y504170D01*
X32436Y504050D01*
X32478Y504023D01*
X32516Y503989D01*
X32664Y503899D01*
X32808Y503803D01*
X32855Y503783D01*
X32897Y503757D01*
X33059Y503695D01*
X33219Y503626D01*
X33267Y503615D01*
X33314Y503597D01*
X33485Y503564D01*
X33654Y503525D01*
X33704Y503522D01*
X33753Y503513D01*
X34000Y503501D01*
X190000Y503501D01*
X190050Y503505D01*
G37*
D10*
X1524700Y694000D03*
X1524700Y592400D03*
D11*
X1473900Y643200D03*
X1473900Y668600D03*
D10*
X1524700Y521400D03*
X1524700Y419800D03*
D11*
X1473900Y470600D03*
X1473900Y496000D03*
D12*
X357500Y656000D03*
X338500Y656000D03*
D13*
X304000Y656500D03*
X304000Y675500D03*
D14*
X1548256Y346700D02*
X1566544Y346700D01*
X1566544Y321300D02*
X1548256Y321300D01*
X1548256Y295900D02*
X1566544Y295900D01*
X1566544Y270500D02*
X1548256Y270500D01*
X1548256Y245100D02*
X1566544Y245100D01*
X1566544Y219700D02*
X1548256Y219700D01*
D15*
X900082Y898200D03*
X900082Y872800D03*
X900082Y822000D03*
X900082Y796600D03*
X900082Y771200D03*
D16*
X64250Y857611D03*
X64250Y806811D03*
X64250Y603611D03*
X64250Y552811D03*
X64250Y301611D03*
X64250Y250811D03*
D10*
X1523400Y866800D03*
X1523400Y765200D03*
D11*
X1472600Y816000D03*
X1472600Y841400D03*
M02*
