M48
;GenerationSoftware,Autodesk,EAGLE,9.6.2*%
;CreationDate,2022-11-17T02:55:24Z*%
FMAT,2
ICI,OFF
METRIC,TZ,000.000
T6C0.350
T5C0.890
T4C1.000
T3C1.016
T2C1.300
T1C2.010
%
G90
M71
T1
X152470Y69400
X152470Y59240
X152470Y52140
X152470Y41980
X152340Y86680
X152340Y76520
T2
X6425Y85761
X6425Y80681
X6425Y60361
X6425Y55281
X6425Y30161
X6425Y25081
T3
X155740Y34670
X155740Y32130
X155740Y29590
X155740Y27050
X155740Y24510
X155740Y21970
T4
X90008Y89820
X90008Y87280
X90008Y82200
X90008Y79660
X90008Y77120
T5
X147260Y84140
X147390Y49600
X147390Y64320
X147390Y66860
X147390Y47060
X147260Y81600
T6
X52000Y36400
X55400Y40400
X52200Y20600
X56600Y15000
X62800Y24200
X70800Y24200
X64375Y21825
X81800Y19800
X65200Y35000
X72600Y43000
X83800Y46000
X65600Y42200
X44000Y63000
X105400Y41400
X44000Y58800
X104400Y40400
X30600Y61400
X80200Y37800
X99200Y35200
X78200Y22600
X86200Y22600
X53400Y56400
X53400Y54000
X71200Y66000
X78800Y67000
X79600Y44000
X83000Y44000
X101200Y41600
X103400Y39400
X15800Y58800
X11000Y63600
X12200Y63600
X13400Y63600
X14600Y63600
X15800Y63600
X15800Y62400
X14600Y62400
X13400Y62400
X12200Y62400
X11000Y62400
X13400Y61200
X14600Y61200
X15800Y61200
X12200Y61200
X11000Y61200
X11000Y60000
X12200Y60000
X13400Y60000
X14600Y60000
X15800Y60000
X14600Y58800
X13400Y58800
X12200Y58800
X11000Y58800
X6200Y63600
X70800Y86400
X8600Y63600
X9800Y63600
X6200Y62400
X7400Y62400
X8600Y62400
X9800Y62400
X9800Y61200
X9800Y60000
X9800Y58800
X5000Y63600
X5000Y62400
X11000Y56800
X12200Y56800
X13400Y56800
X14600Y56800
X15800Y56800
X11000Y55600
X12200Y55600
X13400Y55600
X14600Y55600
X15800Y55600
X11000Y54400
X12200Y54400
X13400Y54400
X14600Y54400
X15800Y54400
X11000Y53200
X12200Y53200
X13400Y53200
X14600Y53200
X15800Y53200
X11000Y52000
X12200Y52000
X13400Y52000
X14600Y52000
X15800Y52000
X9800Y54400
X9800Y55600
X9800Y56800
X5000Y53200
X6200Y53200
X63800Y38000
X8600Y53200
X9800Y53200
X5000Y52000
X6200Y52000
X7400Y52000
X8600Y52000
X9800Y52000
X77600Y69400
X77600Y72800
X72600Y29200
X64200Y48600
X63600Y47600
X71800Y34400
X64600Y25600
X44600Y67600
X53400Y64000
X53200Y50600
X35000Y54600
X32600Y51600
X33800Y62600
X7400Y63600
X51787Y72213
X74200Y57600
X83600Y49600
X51400Y32800
X51600Y16400
X148900Y24600
X148900Y27800
X70000Y75000
X42400Y73600
X42200Y35400
X42000Y18800
X45200Y83800
X46110Y91800
X74600Y69800
X77000Y67400
X41800Y66000
X41800Y51200
X39200Y66000
X39200Y51200
X28200Y54400
X7400Y53200
M30