G04 EAGLE Gerber RS-274X export*
G75*
%MOMM*%
%FSLAX34Y34*%
%LPD*%
%INSolderpaste Top*%
%IPPOS*%
%AMOC8*
5,1,8,0,0,1.08239X$1,22.5*%
G01*
%ADD10R,1.500000X1.300000*%
%ADD11R,1.300000X1.500000*%
%ADD12R,2.500000X3.000000*%
%ADD13C,0.400000*%
%ADD14R,1.803000X1.600000*%
%ADD15R,1.600000X1.803000*%
%ADD16R,1.300000X1.600000*%
%ADD17R,1.600000X1.300000*%
%ADD18C,0.300000*%
%ADD19C,0.500000*%
%ADD20C,0.495300*%
%ADD21C,0.635000*%
%ADD22C,0.508000*%
%ADD23C,0.317500*%
%ADD24C,0.304800*%


D10*
X468000Y707500D03*
X468000Y688500D03*
X934000Y897500D03*
X934000Y878500D03*
X934000Y845500D03*
X934000Y826500D03*
X934000Y789500D03*
X934000Y770500D03*
X398000Y891500D03*
X398000Y872500D03*
D11*
X531500Y760000D03*
X512500Y760000D03*
X514500Y662000D03*
X533500Y662000D03*
X816500Y514000D03*
X835500Y514000D03*
D10*
X836000Y561500D03*
X836000Y542500D03*
X308000Y535500D03*
X308000Y516500D03*
X324000Y602500D03*
X324000Y621500D03*
X332000Y565500D03*
X332000Y546500D03*
D12*
X618000Y891000D03*
X618000Y821000D03*
D11*
X745500Y764000D03*
X726500Y764000D03*
D13*
X1512500Y201500D02*
X1512500Y197500D01*
X1507500Y197500D01*
X1507500Y201500D01*
X1512500Y201500D01*
X1512500Y201300D02*
X1507500Y201300D01*
X1512500Y218500D02*
X1512500Y222500D01*
X1512500Y218500D02*
X1507500Y218500D01*
X1507500Y222500D01*
X1512500Y222500D01*
X1512500Y222300D02*
X1507500Y222300D01*
X1512500Y236500D02*
X1512500Y240500D01*
X1512500Y236500D02*
X1507500Y236500D01*
X1507500Y240500D01*
X1512500Y240500D01*
X1512500Y240300D02*
X1507500Y240300D01*
X1512500Y257500D02*
X1512500Y261500D01*
X1512500Y257500D02*
X1507500Y257500D01*
X1507500Y261500D01*
X1512500Y261500D01*
X1512500Y261300D02*
X1507500Y261300D01*
X1512500Y275500D02*
X1512500Y279500D01*
X1512500Y275500D02*
X1507500Y275500D01*
X1507500Y279500D01*
X1512500Y279500D01*
X1512500Y279300D02*
X1507500Y279300D01*
X1512500Y296500D02*
X1512500Y300500D01*
X1512500Y296500D02*
X1507500Y296500D01*
X1507500Y300500D01*
X1512500Y300500D01*
X1512500Y300300D02*
X1507500Y300300D01*
D14*
X360000Y378220D03*
X360000Y349780D03*
D15*
X183780Y238000D03*
X212220Y238000D03*
X127780Y238000D03*
X156220Y238000D03*
D14*
X360000Y191780D03*
X360000Y220220D03*
D16*
X569500Y350000D03*
X550500Y350000D03*
X569500Y380000D03*
X550500Y380000D03*
X615500Y350000D03*
X596500Y350000D03*
X596500Y380000D03*
X615500Y380000D03*
X569500Y190000D03*
X550500Y190000D03*
X569500Y220000D03*
X550500Y220000D03*
X615500Y190000D03*
X596500Y190000D03*
D15*
X309780Y400000D03*
X338220Y400000D03*
D16*
X596500Y220000D03*
X615500Y220000D03*
D17*
X470000Y612500D03*
X470000Y631500D03*
X740000Y510500D03*
X740000Y529500D03*
D16*
X469500Y656000D03*
X450500Y656000D03*
D17*
X766000Y556500D03*
X766000Y575500D03*
X496000Y612500D03*
X496000Y631500D03*
X766000Y510500D03*
X766000Y529500D03*
X376000Y610500D03*
X376000Y629500D03*
X348000Y607500D03*
X348000Y588500D03*
D15*
X253780Y400000D03*
X282220Y400000D03*
D16*
X729500Y390000D03*
X710500Y390000D03*
X729500Y366000D03*
X710500Y366000D03*
X773500Y350000D03*
X754500Y350000D03*
X788500Y318000D03*
X807500Y318000D03*
X759500Y184000D03*
X740500Y184000D03*
D17*
X796000Y211500D03*
X796000Y192500D03*
X760000Y229500D03*
X760000Y210500D03*
X796000Y242500D03*
X796000Y261500D03*
X470000Y571500D03*
X470000Y552500D03*
D15*
X197780Y400000D03*
X226220Y400000D03*
D17*
X470000Y506500D03*
X470000Y525500D03*
X510000Y589500D03*
X510000Y570500D03*
D16*
X496500Y506000D03*
X515500Y506000D03*
D14*
X172000Y428220D03*
X172000Y399780D03*
X172000Y484220D03*
X172000Y455780D03*
D15*
X289780Y162000D03*
X318220Y162000D03*
X233780Y162000D03*
X262220Y162000D03*
D14*
X212000Y212220D03*
X212000Y183780D03*
D18*
X794100Y535800D02*
X794100Y542800D01*
X794100Y535800D02*
X791100Y535800D01*
X791100Y542800D01*
X794100Y542800D01*
X794100Y538650D02*
X791100Y538650D01*
X791100Y541500D02*
X794100Y541500D01*
X794100Y559800D02*
X794100Y566800D01*
X794100Y559800D02*
X791100Y559800D01*
X791100Y566800D01*
X794100Y566800D01*
X794100Y562650D02*
X791100Y562650D01*
X791100Y565500D02*
X794100Y565500D01*
X803600Y566800D02*
X803600Y559800D01*
X800600Y559800D01*
X800600Y566800D01*
X803600Y566800D01*
X803600Y562650D02*
X800600Y562650D01*
X800600Y565500D02*
X803600Y565500D01*
X813100Y566800D02*
X813100Y559800D01*
X810100Y559800D01*
X810100Y566800D01*
X813100Y566800D01*
X813100Y562650D02*
X810100Y562650D01*
X810100Y565500D02*
X813100Y565500D01*
X813100Y542800D02*
X813100Y535800D01*
X810100Y535800D01*
X810100Y542800D01*
X813100Y542800D01*
X813100Y538650D02*
X810100Y538650D01*
X810100Y541500D02*
X813100Y541500D01*
D19*
X445200Y891600D02*
X429200Y891600D01*
X429200Y896600D01*
X445200Y896600D01*
X445200Y891600D01*
X445200Y896350D02*
X429200Y896350D01*
X429200Y866200D02*
X445200Y866200D01*
X429200Y866200D02*
X429200Y871200D01*
X445200Y871200D01*
X445200Y866200D01*
X445200Y870950D02*
X429200Y870950D01*
X429200Y815400D02*
X445200Y815400D01*
X429200Y815400D02*
X429200Y820400D01*
X445200Y820400D01*
X445200Y815400D01*
X445200Y820150D02*
X429200Y820150D01*
X530800Y891600D02*
X546800Y891600D01*
X530800Y891600D02*
X530800Y896600D01*
X546800Y896600D01*
X546800Y891600D01*
X546800Y896350D02*
X530800Y896350D01*
X530800Y815400D02*
X546800Y815400D01*
X530800Y815400D02*
X530800Y820400D01*
X546800Y820400D01*
X546800Y815400D01*
X546800Y820150D02*
X530800Y820150D01*
D18*
X496100Y688300D02*
X496100Y681300D01*
X493100Y681300D01*
X493100Y688300D01*
X496100Y688300D01*
X496100Y684150D02*
X493100Y684150D01*
X493100Y687000D02*
X496100Y687000D01*
X496100Y705300D02*
X496100Y712300D01*
X496100Y705300D02*
X493100Y705300D01*
X493100Y712300D01*
X496100Y712300D01*
X496100Y708150D02*
X493100Y708150D01*
X493100Y711000D02*
X496100Y711000D01*
X505600Y712300D02*
X505600Y705300D01*
X502600Y705300D01*
X502600Y712300D01*
X505600Y712300D01*
X505600Y708150D02*
X502600Y708150D01*
X502600Y711000D02*
X505600Y711000D01*
X515100Y712300D02*
X515100Y705300D01*
X512100Y705300D01*
X512100Y712300D01*
X515100Y712300D01*
X515100Y708150D02*
X512100Y708150D01*
X512100Y711000D02*
X515100Y711000D01*
X515100Y688300D02*
X515100Y681300D01*
X512100Y681300D01*
X512100Y688300D01*
X515100Y688300D01*
X515100Y684150D02*
X512100Y684150D01*
X512100Y687000D02*
X515100Y687000D01*
D20*
X675466Y887623D02*
X715472Y887623D01*
X675466Y887623D02*
X675466Y892577D01*
X715472Y892577D01*
X715472Y887623D01*
X715472Y892328D02*
X675466Y892328D01*
X675466Y811423D02*
X715472Y811423D01*
X675466Y811423D02*
X675466Y816377D01*
X715472Y816377D01*
X715472Y811423D01*
X715472Y816128D02*
X675466Y816128D01*
X790528Y811423D02*
X830534Y811423D01*
X790528Y811423D02*
X790528Y816377D01*
X830534Y816377D01*
X830534Y811423D01*
X830534Y816128D02*
X790528Y816128D01*
X790528Y836823D02*
X830534Y836823D01*
X790528Y836823D02*
X790528Y841777D01*
X830534Y841777D01*
X830534Y836823D01*
X830534Y841528D02*
X790528Y841528D01*
X790528Y862223D02*
X830534Y862223D01*
X790528Y862223D02*
X790528Y867177D01*
X830534Y867177D01*
X830534Y862223D01*
X830534Y866928D02*
X790528Y866928D01*
D21*
X404375Y375525D02*
X390725Y375525D01*
X390725Y381875D01*
X404375Y381875D01*
X404375Y375525D01*
X404375Y381557D02*
X390725Y381557D01*
X479625Y375525D02*
X493275Y375525D01*
X479625Y375525D02*
X479625Y381875D01*
X493275Y381875D01*
X493275Y375525D01*
X493275Y381557D02*
X479625Y381557D01*
D22*
X405010Y401560D02*
X390090Y401560D01*
X390090Y406640D01*
X405010Y406640D01*
X405010Y401560D01*
X405010Y406386D02*
X390090Y406386D01*
X478990Y401560D02*
X493910Y401560D01*
X478990Y401560D02*
X478990Y406640D01*
X493910Y406640D01*
X493910Y401560D01*
X493910Y406386D02*
X478990Y406386D01*
D21*
X479625Y350125D02*
X493275Y350125D01*
X479625Y350125D02*
X479625Y356475D01*
X493275Y356475D01*
X493275Y350125D01*
X493275Y356157D02*
X479625Y356157D01*
D22*
X478990Y325360D02*
X493910Y325360D01*
X478990Y325360D02*
X478990Y330440D01*
X493910Y330440D01*
X493910Y325360D01*
X493910Y330186D02*
X478990Y330186D01*
X405010Y325360D02*
X390090Y325360D01*
X390090Y330440D01*
X405010Y330440D01*
X405010Y325360D01*
X405010Y330186D02*
X390090Y330186D01*
D21*
X390725Y350125D02*
X404375Y350125D01*
X390725Y350125D02*
X390725Y356475D01*
X404375Y356475D01*
X404375Y350125D01*
X404375Y356157D02*
X390725Y356157D01*
X390725Y217525D02*
X404375Y217525D01*
X390725Y217525D02*
X390725Y223875D01*
X404375Y223875D01*
X404375Y217525D01*
X404375Y223557D02*
X390725Y223557D01*
X479625Y217525D02*
X493275Y217525D01*
X479625Y217525D02*
X479625Y223875D01*
X493275Y223875D01*
X493275Y217525D01*
X493275Y223557D02*
X479625Y223557D01*
D22*
X405010Y243560D02*
X390090Y243560D01*
X390090Y248640D01*
X405010Y248640D01*
X405010Y243560D01*
X405010Y248386D02*
X390090Y248386D01*
X478990Y243560D02*
X493910Y243560D01*
X478990Y243560D02*
X478990Y248640D01*
X493910Y248640D01*
X493910Y243560D01*
X493910Y248386D02*
X478990Y248386D01*
D21*
X479625Y192125D02*
X493275Y192125D01*
X479625Y192125D02*
X479625Y198475D01*
X493275Y198475D01*
X493275Y192125D01*
X493275Y198157D02*
X479625Y198157D01*
D22*
X478990Y167360D02*
X493910Y167360D01*
X478990Y167360D02*
X478990Y172440D01*
X493910Y172440D01*
X493910Y167360D01*
X493910Y172186D02*
X478990Y172186D01*
X405010Y167360D02*
X390090Y167360D01*
X390090Y172440D01*
X405010Y172440D01*
X405010Y167360D01*
X405010Y172186D02*
X390090Y172186D01*
D21*
X390725Y192125D02*
X404375Y192125D01*
X390725Y192125D02*
X390725Y198475D01*
X404375Y198475D01*
X404375Y192125D01*
X404375Y198157D02*
X390725Y198157D01*
D23*
X184313Y582762D02*
X174787Y582762D01*
X174787Y585938D01*
X184313Y585938D01*
X184313Y582762D01*
X184313Y585778D02*
X174787Y585778D01*
X174787Y570062D02*
X184313Y570062D01*
X174787Y570062D02*
X174787Y573238D01*
X184313Y573238D01*
X184313Y570062D01*
X184313Y573078D02*
X174787Y573078D01*
X174787Y595462D02*
X184313Y595462D01*
X174787Y595462D02*
X174787Y598638D01*
X184313Y598638D01*
X184313Y595462D01*
X184313Y598478D02*
X174787Y598478D01*
X174787Y608162D02*
X184313Y608162D01*
X174787Y608162D02*
X174787Y611338D01*
X184313Y611338D01*
X184313Y608162D01*
X184313Y611178D02*
X174787Y611178D01*
X174787Y620862D02*
X184313Y620862D01*
X174787Y620862D02*
X174787Y624038D01*
X184313Y624038D01*
X184313Y620862D01*
X184313Y623878D02*
X174787Y623878D01*
X174787Y557362D02*
X184313Y557362D01*
X174787Y557362D02*
X174787Y560538D01*
X184313Y560538D01*
X184313Y557362D01*
X184313Y560378D02*
X174787Y560378D01*
X174787Y544662D02*
X184313Y544662D01*
X174787Y544662D02*
X174787Y547838D01*
X184313Y547838D01*
X184313Y544662D01*
X184313Y547678D02*
X174787Y547678D01*
X174787Y531962D02*
X184313Y531962D01*
X174787Y531962D02*
X174787Y535138D01*
X184313Y535138D01*
X184313Y531962D01*
X184313Y534978D02*
X174787Y534978D01*
X263687Y531962D02*
X273213Y531962D01*
X263687Y531962D02*
X263687Y535138D01*
X273213Y535138D01*
X273213Y531962D01*
X273213Y534978D02*
X263687Y534978D01*
X263687Y544662D02*
X273213Y544662D01*
X263687Y544662D02*
X263687Y547838D01*
X273213Y547838D01*
X273213Y544662D01*
X273213Y547678D02*
X263687Y547678D01*
X263687Y557362D02*
X273213Y557362D01*
X263687Y557362D02*
X263687Y560538D01*
X273213Y560538D01*
X273213Y557362D01*
X273213Y560378D02*
X263687Y560378D01*
X263687Y570062D02*
X273213Y570062D01*
X263687Y570062D02*
X263687Y573238D01*
X273213Y573238D01*
X273213Y570062D01*
X273213Y573078D02*
X263687Y573078D01*
X263687Y582762D02*
X273213Y582762D01*
X263687Y582762D02*
X263687Y585938D01*
X273213Y585938D01*
X273213Y582762D01*
X273213Y585778D02*
X263687Y585778D01*
X263687Y595462D02*
X273213Y595462D01*
X263687Y595462D02*
X263687Y598638D01*
X273213Y598638D01*
X273213Y595462D01*
X273213Y598478D02*
X263687Y598478D01*
X263687Y608162D02*
X273213Y608162D01*
X263687Y608162D02*
X263687Y611338D01*
X273213Y611338D01*
X273213Y608162D01*
X273213Y611178D02*
X263687Y611178D01*
X263687Y620862D02*
X273213Y620862D01*
X263687Y620862D02*
X263687Y624038D01*
X273213Y624038D01*
X273213Y620862D01*
X273213Y623878D02*
X263687Y623878D01*
D24*
X602477Y629676D02*
X614923Y629676D01*
X602477Y629676D02*
X602477Y632724D01*
X614923Y632724D01*
X614923Y629676D01*
X614923Y632572D02*
X602477Y632572D01*
X602477Y616976D02*
X614923Y616976D01*
X602477Y616976D02*
X602477Y620024D01*
X614923Y620024D01*
X614923Y616976D01*
X614923Y619872D02*
X602477Y619872D01*
X602477Y604276D02*
X614923Y604276D01*
X602477Y604276D02*
X602477Y607324D01*
X614923Y607324D01*
X614923Y604276D01*
X614923Y607172D02*
X602477Y607172D01*
X602477Y591576D02*
X614923Y591576D01*
X602477Y591576D02*
X602477Y594624D01*
X614923Y594624D01*
X614923Y591576D01*
X614923Y594472D02*
X602477Y594472D01*
X602477Y578876D02*
X614923Y578876D01*
X602477Y578876D02*
X602477Y581924D01*
X614923Y581924D01*
X614923Y578876D01*
X614923Y581772D02*
X602477Y581772D01*
X602477Y566176D02*
X614923Y566176D01*
X602477Y566176D02*
X602477Y569224D01*
X614923Y569224D01*
X614923Y566176D01*
X614923Y569072D02*
X602477Y569072D01*
X602477Y553476D02*
X614923Y553476D01*
X602477Y553476D02*
X602477Y556524D01*
X614923Y556524D01*
X614923Y553476D01*
X614923Y556372D02*
X602477Y556372D01*
X656579Y629676D02*
X669025Y629676D01*
X656579Y629676D02*
X656579Y632724D01*
X669025Y632724D01*
X669025Y629676D01*
X669025Y632572D02*
X656579Y632572D01*
X656579Y616976D02*
X669025Y616976D01*
X656579Y616976D02*
X656579Y620024D01*
X669025Y620024D01*
X669025Y616976D01*
X669025Y619872D02*
X656579Y619872D01*
X656579Y604276D02*
X669025Y604276D01*
X656579Y604276D02*
X656579Y607324D01*
X669025Y607324D01*
X669025Y604276D01*
X669025Y607172D02*
X656579Y607172D01*
X656579Y591576D02*
X669025Y591576D01*
X656579Y591576D02*
X656579Y594624D01*
X669025Y594624D01*
X669025Y591576D01*
X669025Y594472D02*
X656579Y594472D01*
X656579Y578876D02*
X669025Y578876D01*
X656579Y578876D02*
X656579Y581924D01*
X669025Y581924D01*
X669025Y578876D01*
X669025Y581772D02*
X656579Y581772D01*
X656579Y566176D02*
X669025Y566176D01*
X656579Y566176D02*
X656579Y569224D01*
X669025Y569224D01*
X669025Y566176D01*
X669025Y569072D02*
X656579Y569072D01*
X656579Y553476D02*
X669025Y553476D01*
X656579Y553476D02*
X656579Y556524D01*
X669025Y556524D01*
X669025Y553476D01*
X669025Y556372D02*
X656579Y556372D01*
X756576Y321223D02*
X756576Y308777D01*
X756576Y321223D02*
X759624Y321223D01*
X759624Y308777D01*
X756576Y308777D01*
X756576Y311673D02*
X759624Y311673D01*
X759624Y314569D02*
X756576Y314569D01*
X756576Y317465D02*
X759624Y317465D01*
X759624Y320361D02*
X756576Y320361D01*
X743876Y321223D02*
X743876Y308777D01*
X743876Y321223D02*
X746924Y321223D01*
X746924Y308777D01*
X743876Y308777D01*
X743876Y311673D02*
X746924Y311673D01*
X746924Y314569D02*
X743876Y314569D01*
X743876Y317465D02*
X746924Y317465D01*
X746924Y320361D02*
X743876Y320361D01*
X731176Y321223D02*
X731176Y308777D01*
X731176Y321223D02*
X734224Y321223D01*
X734224Y308777D01*
X731176Y308777D01*
X731176Y311673D02*
X734224Y311673D01*
X734224Y314569D02*
X731176Y314569D01*
X731176Y317465D02*
X734224Y317465D01*
X734224Y320361D02*
X731176Y320361D01*
X718476Y321223D02*
X718476Y308777D01*
X718476Y321223D02*
X721524Y321223D01*
X721524Y308777D01*
X718476Y308777D01*
X718476Y311673D02*
X721524Y311673D01*
X721524Y314569D02*
X718476Y314569D01*
X718476Y317465D02*
X721524Y317465D01*
X721524Y320361D02*
X718476Y320361D01*
X705776Y321223D02*
X705776Y308777D01*
X705776Y321223D02*
X708824Y321223D01*
X708824Y308777D01*
X705776Y308777D01*
X705776Y311673D02*
X708824Y311673D01*
X708824Y314569D02*
X705776Y314569D01*
X705776Y317465D02*
X708824Y317465D01*
X708824Y320361D02*
X705776Y320361D01*
X693076Y321223D02*
X693076Y308777D01*
X693076Y321223D02*
X696124Y321223D01*
X696124Y308777D01*
X693076Y308777D01*
X693076Y311673D02*
X696124Y311673D01*
X696124Y314569D02*
X693076Y314569D01*
X693076Y317465D02*
X696124Y317465D01*
X696124Y320361D02*
X693076Y320361D01*
X680376Y321223D02*
X680376Y308777D01*
X680376Y321223D02*
X683424Y321223D01*
X683424Y308777D01*
X680376Y308777D01*
X680376Y311673D02*
X683424Y311673D01*
X683424Y314569D02*
X680376Y314569D01*
X680376Y317465D02*
X683424Y317465D01*
X683424Y320361D02*
X680376Y320361D01*
X756576Y267121D02*
X756576Y254675D01*
X756576Y267121D02*
X759624Y267121D01*
X759624Y254675D01*
X756576Y254675D01*
X756576Y257571D02*
X759624Y257571D01*
X759624Y260467D02*
X756576Y260467D01*
X756576Y263363D02*
X759624Y263363D01*
X759624Y266259D02*
X756576Y266259D01*
X743876Y267121D02*
X743876Y254675D01*
X743876Y267121D02*
X746924Y267121D01*
X746924Y254675D01*
X743876Y254675D01*
X743876Y257571D02*
X746924Y257571D01*
X746924Y260467D02*
X743876Y260467D01*
X743876Y263363D02*
X746924Y263363D01*
X746924Y266259D02*
X743876Y266259D01*
X731176Y267121D02*
X731176Y254675D01*
X731176Y267121D02*
X734224Y267121D01*
X734224Y254675D01*
X731176Y254675D01*
X731176Y257571D02*
X734224Y257571D01*
X734224Y260467D02*
X731176Y260467D01*
X731176Y263363D02*
X734224Y263363D01*
X734224Y266259D02*
X731176Y266259D01*
X718476Y267121D02*
X718476Y254675D01*
X718476Y267121D02*
X721524Y267121D01*
X721524Y254675D01*
X718476Y254675D01*
X718476Y257571D02*
X721524Y257571D01*
X721524Y260467D02*
X718476Y260467D01*
X718476Y263363D02*
X721524Y263363D01*
X721524Y266259D02*
X718476Y266259D01*
X705776Y267121D02*
X705776Y254675D01*
X705776Y267121D02*
X708824Y267121D01*
X708824Y254675D01*
X705776Y254675D01*
X705776Y257571D02*
X708824Y257571D01*
X708824Y260467D02*
X705776Y260467D01*
X705776Y263363D02*
X708824Y263363D01*
X708824Y266259D02*
X705776Y266259D01*
X693076Y267121D02*
X693076Y254675D01*
X693076Y267121D02*
X696124Y267121D01*
X696124Y254675D01*
X693076Y254675D01*
X693076Y257571D02*
X696124Y257571D01*
X696124Y260467D02*
X693076Y260467D01*
X693076Y263363D02*
X696124Y263363D01*
X696124Y266259D02*
X693076Y266259D01*
X680376Y267121D02*
X680376Y254675D01*
X680376Y267121D02*
X683424Y267121D01*
X683424Y254675D01*
X680376Y254675D01*
X680376Y257571D02*
X683424Y257571D01*
X683424Y260467D02*
X680376Y260467D01*
X680376Y263363D02*
X683424Y263363D01*
X683424Y266259D02*
X680376Y266259D01*
M02*
