G04 EAGLE Gerber RS-274X export*
G75*
%MOMM*%
%FSLAX34Y34*%
%LPD*%
%INTop Copper*%
%IPPOS*%
%AMOC8*
5,1,8,0,0,1.08239X$1,22.5*%
G01*
%ADD10R,1.500000X1.300000*%
%ADD11R,1.300000X1.500000*%
%ADD12R,2.500000X3.000000*%
%ADD13C,0.400000*%
%ADD14C,3.618000*%
%ADD15R,1.602000X1.602000*%
%ADD16R,1.803000X1.600000*%
%ADD17R,1.600000X1.803000*%
%ADD18R,1.300000X1.600000*%
%ADD19R,1.600000X1.300000*%
%ADD20C,1.828800*%
%ADD21C,0.300000*%
%ADD22C,0.500000*%
%ADD23C,0.495300*%
%ADD24C,0.635000*%
%ADD25C,0.508000*%
%ADD26C,0.317500*%
%ADD27C,0.304800*%
%ADD28C,1.800000*%
%ADD29C,2.340000*%
%ADD30C,1.200000*%
%ADD31C,0.600000*%
%ADD32C,0.502400*%
%ADD33C,1.500000*%

G36*
X168254Y579507D02*
X168254Y579507D01*
X168325Y579505D01*
X168475Y579527D01*
X168627Y579541D01*
X168696Y579560D01*
X168767Y579570D01*
X168911Y579619D01*
X169057Y579659D01*
X169122Y579690D01*
X169191Y579713D01*
X169323Y579787D01*
X169460Y579852D01*
X169519Y579895D01*
X169581Y579929D01*
X169699Y580025D01*
X169822Y580114D01*
X169872Y580166D01*
X169928Y580212D01*
X170026Y580327D01*
X170132Y580436D01*
X170171Y580496D01*
X170218Y580551D01*
X170295Y580682D01*
X170379Y580808D01*
X170407Y580875D01*
X170444Y580937D01*
X170496Y581079D01*
X170556Y581219D01*
X170572Y581289D01*
X170597Y581356D01*
X170623Y581506D01*
X170657Y581654D01*
X170661Y581726D01*
X170673Y581796D01*
X170672Y581851D01*
X179550Y581851D01*
X179600Y581855D01*
X179649Y581853D01*
X179821Y581875D01*
X179995Y581890D01*
X180043Y581904D01*
X180092Y581910D01*
X180258Y581963D01*
X180425Y582009D01*
X180470Y582031D01*
X180518Y582046D01*
X180671Y582127D01*
X180828Y582202D01*
X180869Y582232D01*
X180913Y582255D01*
X181049Y582362D01*
X181190Y582464D01*
X181225Y582500D01*
X181264Y582531D01*
X181264Y582532D01*
X181380Y582662D01*
X181499Y582786D01*
X181500Y582787D01*
X181528Y582828D01*
X181561Y582866D01*
X181651Y583014D01*
X181747Y583159D01*
X181767Y583205D01*
X181793Y583247D01*
X181855Y583410D01*
X181924Y583569D01*
X181935Y583617D01*
X181953Y583664D01*
X181986Y583835D01*
X182025Y584004D01*
X182028Y584054D01*
X182037Y584103D01*
X182049Y584350D01*
X182049Y597050D01*
X182049Y609750D01*
X182049Y622450D01*
X182049Y628166D01*
X184719Y628166D01*
X185517Y628007D01*
X186268Y627696D01*
X186611Y627466D01*
X186712Y627411D01*
X186808Y627347D01*
X186908Y627304D01*
X187004Y627252D01*
X187113Y627216D01*
X187219Y627170D01*
X187324Y627146D01*
X187428Y627112D01*
X187542Y627095D01*
X187654Y627069D01*
X187762Y627064D01*
X187870Y627049D01*
X187985Y627053D01*
X188100Y627047D01*
X188207Y627061D01*
X188316Y627065D01*
X188429Y627090D01*
X188543Y627105D01*
X188646Y627138D01*
X188752Y627161D01*
X188859Y627205D01*
X188968Y627240D01*
X189064Y627291D01*
X189165Y627333D01*
X189261Y627396D01*
X189363Y627450D01*
X189449Y627517D01*
X189540Y627576D01*
X189624Y627654D01*
X189714Y627726D01*
X189786Y627807D01*
X189866Y627881D01*
X189934Y627974D01*
X190011Y628060D01*
X190067Y628153D01*
X190132Y628240D01*
X190183Y628343D01*
X190243Y628442D01*
X190282Y628543D01*
X190330Y628640D01*
X190362Y628751D01*
X190403Y628858D01*
X190424Y628965D01*
X190454Y629070D01*
X190465Y629184D01*
X190487Y629297D01*
X190497Y629489D01*
X190499Y629514D01*
X190498Y629524D01*
X190499Y629544D01*
X190499Y650000D01*
X190495Y650050D01*
X190497Y650100D01*
X190475Y650272D01*
X190459Y650445D01*
X190446Y650493D01*
X190440Y650543D01*
X190387Y650708D01*
X190341Y650876D01*
X190319Y650921D01*
X190304Y650968D01*
X190223Y651122D01*
X190148Y651278D01*
X190118Y651319D01*
X190095Y651363D01*
X189988Y651500D01*
X189886Y651640D01*
X189850Y651675D01*
X189819Y651714D01*
X189689Y651830D01*
X189564Y651950D01*
X189522Y651977D01*
X189484Y652011D01*
X189336Y652101D01*
X189192Y652197D01*
X189146Y652217D01*
X189103Y652243D01*
X188941Y652305D01*
X188781Y652374D01*
X188733Y652385D01*
X188686Y652403D01*
X188515Y652436D01*
X188346Y652475D01*
X188296Y652478D01*
X188247Y652487D01*
X188000Y652499D01*
X38000Y652499D01*
X37950Y652495D01*
X37900Y652497D01*
X37728Y652475D01*
X37555Y652459D01*
X37507Y652446D01*
X37457Y652440D01*
X37292Y652387D01*
X37124Y652341D01*
X37079Y652319D01*
X37032Y652304D01*
X36878Y652223D01*
X36722Y652148D01*
X36681Y652118D01*
X36637Y652095D01*
X36501Y651988D01*
X36360Y651886D01*
X36325Y651850D01*
X36286Y651819D01*
X36170Y651689D01*
X36050Y651564D01*
X36023Y651522D01*
X35989Y651484D01*
X35899Y651336D01*
X35803Y651192D01*
X35783Y651146D01*
X35757Y651103D01*
X35695Y650941D01*
X35626Y650781D01*
X35615Y650733D01*
X35597Y650686D01*
X35564Y650515D01*
X35525Y650346D01*
X35522Y650296D01*
X35513Y650247D01*
X35501Y650000D01*
X35501Y582000D01*
X35505Y581950D01*
X35503Y581900D01*
X35525Y581728D01*
X35541Y581555D01*
X35554Y581507D01*
X35560Y581457D01*
X35613Y581292D01*
X35659Y581124D01*
X35681Y581079D01*
X35696Y581032D01*
X35777Y580878D01*
X35852Y580722D01*
X35882Y580681D01*
X35905Y580637D01*
X36012Y580501D01*
X36114Y580360D01*
X36150Y580325D01*
X36181Y580286D01*
X36311Y580170D01*
X36436Y580050D01*
X36478Y580023D01*
X36516Y579989D01*
X36664Y579899D01*
X36808Y579803D01*
X36855Y579783D01*
X36897Y579757D01*
X37059Y579695D01*
X37219Y579626D01*
X37267Y579615D01*
X37314Y579597D01*
X37485Y579564D01*
X37654Y579525D01*
X37704Y579522D01*
X37753Y579513D01*
X38000Y579501D01*
X168182Y579501D01*
X168254Y579507D01*
G37*
G36*
X188050Y505505D02*
X188050Y505505D01*
X188100Y505503D01*
X188272Y505525D01*
X188445Y505541D01*
X188493Y505554D01*
X188543Y505560D01*
X188708Y505613D01*
X188876Y505659D01*
X188921Y505681D01*
X188968Y505696D01*
X189122Y505777D01*
X189278Y505852D01*
X189319Y505882D01*
X189363Y505905D01*
X189500Y506012D01*
X189640Y506114D01*
X189675Y506150D01*
X189714Y506181D01*
X189830Y506311D01*
X189950Y506436D01*
X189977Y506478D01*
X190011Y506516D01*
X190101Y506664D01*
X190197Y506808D01*
X190217Y506855D01*
X190243Y506897D01*
X190305Y507059D01*
X190374Y507219D01*
X190385Y507267D01*
X190403Y507314D01*
X190436Y507485D01*
X190475Y507654D01*
X190478Y507704D01*
X190487Y507753D01*
X190499Y508000D01*
X190499Y526456D01*
X190489Y526570D01*
X190489Y526685D01*
X190469Y526792D01*
X190459Y526901D01*
X190429Y527012D01*
X190408Y527125D01*
X190370Y527226D01*
X190341Y527331D01*
X190291Y527435D01*
X190250Y527543D01*
X190195Y527636D01*
X190148Y527734D01*
X190080Y527827D01*
X190021Y527926D01*
X189949Y528008D01*
X189886Y528096D01*
X189803Y528176D01*
X189727Y528262D01*
X189642Y528330D01*
X189564Y528405D01*
X189468Y528469D01*
X189378Y528541D01*
X189282Y528592D01*
X189192Y528653D01*
X189086Y528698D01*
X188984Y528753D01*
X188881Y528787D01*
X188781Y528830D01*
X188669Y528856D01*
X188560Y528891D01*
X188452Y528906D01*
X188346Y528931D01*
X188231Y528936D01*
X188117Y528952D01*
X188009Y528947D01*
X187900Y528953D01*
X187786Y528938D01*
X187671Y528933D01*
X187565Y528909D01*
X187457Y528895D01*
X187348Y528860D01*
X187235Y528835D01*
X187135Y528793D01*
X187032Y528760D01*
X186930Y528706D01*
X186824Y528661D01*
X186659Y528562D01*
X186637Y528550D01*
X186629Y528544D01*
X186611Y528534D01*
X186268Y528304D01*
X185517Y527993D01*
X184719Y527834D01*
X182049Y527834D01*
X182049Y533550D01*
X182049Y546250D01*
X182049Y558950D01*
X182049Y571650D01*
X182045Y571700D01*
X182047Y571749D01*
X182025Y571921D01*
X182009Y572095D01*
X181996Y572143D01*
X181990Y572192D01*
X181937Y572358D01*
X181891Y572525D01*
X181869Y572570D01*
X181854Y572618D01*
X181773Y572771D01*
X181698Y572928D01*
X181668Y572969D01*
X181645Y573013D01*
X181538Y573149D01*
X181436Y573290D01*
X181435Y573290D01*
X181400Y573325D01*
X181369Y573364D01*
X181368Y573364D01*
X181238Y573480D01*
X181113Y573600D01*
X181072Y573628D01*
X181034Y573661D01*
X180886Y573751D01*
X180741Y573847D01*
X180695Y573867D01*
X180653Y573893D01*
X180490Y573955D01*
X180331Y574024D01*
X180283Y574035D01*
X180236Y574053D01*
X180065Y574086D01*
X179896Y574125D01*
X179846Y574128D01*
X179797Y574137D01*
X179550Y574149D01*
X169423Y574149D01*
X169352Y574197D01*
X169306Y574217D01*
X169263Y574243D01*
X169101Y574305D01*
X168941Y574374D01*
X168893Y574385D01*
X168846Y574403D01*
X168675Y574436D01*
X168506Y574475D01*
X168456Y574478D01*
X168407Y574487D01*
X168160Y574499D01*
X38000Y574499D01*
X37950Y574495D01*
X37900Y574497D01*
X37728Y574475D01*
X37555Y574459D01*
X37507Y574446D01*
X37457Y574440D01*
X37292Y574387D01*
X37124Y574341D01*
X37079Y574319D01*
X37032Y574304D01*
X36878Y574223D01*
X36722Y574148D01*
X36681Y574118D01*
X36637Y574095D01*
X36501Y573988D01*
X36360Y573886D01*
X36325Y573850D01*
X36286Y573819D01*
X36170Y573689D01*
X36050Y573564D01*
X36023Y573522D01*
X35989Y573484D01*
X35899Y573336D01*
X35803Y573192D01*
X35783Y573146D01*
X35757Y573103D01*
X35695Y572941D01*
X35626Y572781D01*
X35615Y572733D01*
X35597Y572686D01*
X35564Y572515D01*
X35525Y572346D01*
X35522Y572296D01*
X35513Y572247D01*
X35501Y572000D01*
X35501Y508000D01*
X35505Y507950D01*
X35503Y507900D01*
X35525Y507728D01*
X35541Y507555D01*
X35554Y507507D01*
X35560Y507457D01*
X35613Y507292D01*
X35659Y507124D01*
X35681Y507079D01*
X35696Y507032D01*
X35777Y506878D01*
X35852Y506722D01*
X35882Y506681D01*
X35905Y506637D01*
X36012Y506501D01*
X36114Y506360D01*
X36150Y506325D01*
X36181Y506286D01*
X36311Y506170D01*
X36436Y506050D01*
X36478Y506023D01*
X36516Y505989D01*
X36664Y505899D01*
X36808Y505803D01*
X36855Y505783D01*
X36897Y505757D01*
X37059Y505695D01*
X37219Y505626D01*
X37267Y505615D01*
X37314Y505597D01*
X37485Y505564D01*
X37654Y505525D01*
X37704Y505522D01*
X37753Y505513D01*
X38000Y505501D01*
X188000Y505501D01*
X188050Y505505D01*
G37*
%LPC*%
G36*
X67499Y606860D02*
X67499Y606860D01*
X67499Y617483D01*
X68837Y617125D01*
X70562Y616411D01*
X72179Y615477D01*
X73660Y614341D01*
X74980Y613021D01*
X76116Y611540D01*
X77050Y609923D01*
X77764Y608198D01*
X78122Y606860D01*
X67499Y606860D01*
G37*
%LPD*%
%LPC*%
G36*
X67499Y556060D02*
X67499Y556060D01*
X67499Y566683D01*
X68837Y566325D01*
X70562Y565611D01*
X72179Y564677D01*
X73660Y563541D01*
X74980Y562221D01*
X76116Y560740D01*
X77050Y559123D01*
X77764Y557398D01*
X78122Y556060D01*
X67499Y556060D01*
G37*
%LPD*%
%LPC*%
G36*
X50378Y606860D02*
X50378Y606860D01*
X50736Y608198D01*
X51450Y609923D01*
X52384Y611540D01*
X53520Y613021D01*
X54840Y614341D01*
X56321Y615477D01*
X57938Y616411D01*
X59663Y617125D01*
X61001Y617483D01*
X61001Y606860D01*
X50378Y606860D01*
G37*
%LPD*%
%LPC*%
G36*
X67499Y600362D02*
X67499Y600362D01*
X78122Y600362D01*
X77764Y599024D01*
X77050Y597299D01*
X76116Y595682D01*
X74980Y594201D01*
X73660Y592881D01*
X72179Y591745D01*
X70562Y590811D01*
X68837Y590097D01*
X67499Y589739D01*
X67499Y600362D01*
G37*
%LPD*%
%LPC*%
G36*
X50378Y556060D02*
X50378Y556060D01*
X50736Y557398D01*
X51450Y559123D01*
X52384Y560740D01*
X53520Y562221D01*
X54840Y563541D01*
X56321Y564677D01*
X57938Y565611D01*
X59663Y566325D01*
X61001Y566683D01*
X61001Y556060D01*
X50378Y556060D01*
G37*
%LPD*%
%LPC*%
G36*
X67499Y549562D02*
X67499Y549562D01*
X78122Y549562D01*
X77764Y548224D01*
X77050Y546499D01*
X76116Y544882D01*
X74980Y543401D01*
X73660Y542081D01*
X72179Y540945D01*
X70562Y540011D01*
X68837Y539297D01*
X67499Y538939D01*
X67499Y549562D01*
G37*
%LPD*%
%LPC*%
G36*
X59663Y590097D02*
X59663Y590097D01*
X57938Y590811D01*
X56321Y591745D01*
X54840Y592881D01*
X53520Y594201D01*
X52384Y595682D01*
X51450Y597299D01*
X50736Y599024D01*
X50378Y600362D01*
X61001Y600362D01*
X61001Y589739D01*
X59663Y590097D01*
G37*
%LPD*%
%LPC*%
G36*
X59663Y539297D02*
X59663Y539297D01*
X57938Y540011D01*
X56321Y540945D01*
X54840Y542081D01*
X53520Y543401D01*
X52384Y544882D01*
X51450Y546499D01*
X50736Y548224D01*
X50378Y549562D01*
X61001Y549562D01*
X61001Y538939D01*
X59663Y539297D01*
G37*
%LPD*%
%LPC*%
G36*
X170760Y612249D02*
X170760Y612249D01*
X170818Y612542D01*
X171129Y613293D01*
X171581Y613969D01*
X171945Y614333D01*
X171977Y614371D01*
X172014Y614405D01*
X172120Y614543D01*
X172231Y614676D01*
X172256Y614719D01*
X172286Y614759D01*
X172366Y614913D01*
X172452Y615064D01*
X172468Y615111D01*
X172491Y615156D01*
X172542Y615322D01*
X172600Y615485D01*
X172608Y615535D01*
X172622Y615583D01*
X172643Y615755D01*
X172671Y615926D01*
X172670Y615977D01*
X172675Y616026D01*
X172665Y616200D01*
X172662Y616373D01*
X172652Y616422D01*
X172649Y616472D01*
X172608Y616641D01*
X172573Y616811D01*
X172555Y616857D01*
X172543Y616906D01*
X172473Y617065D01*
X172409Y617226D01*
X172382Y617269D01*
X172362Y617314D01*
X172264Y617458D01*
X172172Y617605D01*
X172139Y617642D01*
X172111Y617684D01*
X171945Y617867D01*
X171581Y618231D01*
X171129Y618907D01*
X170818Y619658D01*
X170760Y619951D01*
X177051Y619951D01*
X177051Y612249D01*
X170760Y612249D01*
G37*
%LPD*%
%LPC*%
G36*
X170760Y548749D02*
X170760Y548749D01*
X170818Y549042D01*
X171129Y549793D01*
X171581Y550469D01*
X171945Y550833D01*
X171977Y550871D01*
X172014Y550905D01*
X172120Y551043D01*
X172231Y551176D01*
X172256Y551219D01*
X172286Y551259D01*
X172366Y551413D01*
X172452Y551564D01*
X172468Y551611D01*
X172491Y551656D01*
X172542Y551822D01*
X172600Y551985D01*
X172608Y552035D01*
X172622Y552083D01*
X172643Y552255D01*
X172671Y552426D01*
X172670Y552477D01*
X172675Y552526D01*
X172665Y552700D01*
X172662Y552873D01*
X172652Y552922D01*
X172649Y552972D01*
X172608Y553141D01*
X172573Y553311D01*
X172555Y553357D01*
X172543Y553406D01*
X172473Y553565D01*
X172409Y553726D01*
X172382Y553769D01*
X172362Y553814D01*
X172264Y553958D01*
X172172Y554105D01*
X172139Y554142D01*
X172111Y554184D01*
X171945Y554367D01*
X171581Y554731D01*
X171129Y555407D01*
X170818Y556158D01*
X170760Y556451D01*
X177051Y556451D01*
X177051Y548749D01*
X170760Y548749D01*
G37*
%LPD*%
%LPC*%
G36*
X170760Y536049D02*
X170760Y536049D01*
X170818Y536342D01*
X171129Y537093D01*
X171581Y537769D01*
X171945Y538133D01*
X171977Y538171D01*
X172014Y538205D01*
X172120Y538343D01*
X172231Y538476D01*
X172256Y538519D01*
X172286Y538559D01*
X172366Y538713D01*
X172452Y538864D01*
X172468Y538911D01*
X172491Y538956D01*
X172542Y539122D01*
X172600Y539285D01*
X172608Y539335D01*
X172622Y539383D01*
X172643Y539555D01*
X172671Y539726D01*
X172670Y539777D01*
X172675Y539826D01*
X172665Y540000D01*
X172662Y540173D01*
X172652Y540222D01*
X172649Y540272D01*
X172608Y540441D01*
X172573Y540611D01*
X172555Y540657D01*
X172543Y540706D01*
X172473Y540865D01*
X172409Y541026D01*
X172382Y541069D01*
X172362Y541114D01*
X172264Y541258D01*
X172172Y541405D01*
X172139Y541442D01*
X172111Y541484D01*
X171945Y541667D01*
X171581Y542031D01*
X171129Y542707D01*
X170818Y543458D01*
X170760Y543751D01*
X177051Y543751D01*
X177051Y536049D01*
X170760Y536049D01*
G37*
%LPD*%
%LPC*%
G36*
X170760Y599549D02*
X170760Y599549D01*
X170818Y599842D01*
X171129Y600593D01*
X171581Y601269D01*
X171945Y601633D01*
X171977Y601671D01*
X172014Y601705D01*
X172120Y601842D01*
X172231Y601976D01*
X172256Y602019D01*
X172286Y602059D01*
X172366Y602213D01*
X172452Y602364D01*
X172468Y602411D01*
X172491Y602456D01*
X172542Y602621D01*
X172600Y602785D01*
X172608Y602835D01*
X172622Y602883D01*
X172643Y603055D01*
X172671Y603226D01*
X172670Y603276D01*
X172675Y603326D01*
X172665Y603499D01*
X172662Y603673D01*
X172652Y603722D01*
X172649Y603772D01*
X172608Y603940D01*
X172573Y604111D01*
X172555Y604157D01*
X172543Y604206D01*
X172473Y604364D01*
X172409Y604526D01*
X172382Y604569D01*
X172362Y604614D01*
X172264Y604758D01*
X172172Y604905D01*
X172139Y604942D01*
X172111Y604984D01*
X171945Y605167D01*
X171581Y605531D01*
X171129Y606207D01*
X170818Y606958D01*
X170760Y607251D01*
X177051Y607251D01*
X177051Y599549D01*
X170760Y599549D01*
G37*
%LPD*%
%LPC*%
G36*
X170760Y586849D02*
X170760Y586849D01*
X170818Y587142D01*
X171129Y587893D01*
X171581Y588569D01*
X171945Y588933D01*
X171977Y588971D01*
X172014Y589005D01*
X172120Y589142D01*
X172231Y589276D01*
X172256Y589319D01*
X172286Y589359D01*
X172366Y589513D01*
X172452Y589664D01*
X172468Y589711D01*
X172491Y589756D01*
X172542Y589921D01*
X172600Y590085D01*
X172608Y590135D01*
X172622Y590183D01*
X172643Y590355D01*
X172671Y590526D01*
X172670Y590576D01*
X172675Y590626D01*
X172665Y590799D01*
X172662Y590973D01*
X172652Y591022D01*
X172649Y591072D01*
X172608Y591240D01*
X172573Y591411D01*
X172555Y591457D01*
X172543Y591506D01*
X172473Y591664D01*
X172409Y591826D01*
X172382Y591869D01*
X172362Y591914D01*
X172264Y592058D01*
X172172Y592205D01*
X172139Y592242D01*
X172111Y592284D01*
X171945Y592467D01*
X171581Y592831D01*
X171129Y593507D01*
X170818Y594258D01*
X170760Y594551D01*
X177051Y594551D01*
X177051Y586849D01*
X170760Y586849D01*
G37*
%LPD*%
%LPC*%
G36*
X170760Y561449D02*
X170760Y561449D01*
X170818Y561742D01*
X171129Y562493D01*
X171581Y563169D01*
X171945Y563533D01*
X171977Y563571D01*
X172014Y563605D01*
X172120Y563742D01*
X172231Y563876D01*
X172256Y563919D01*
X172286Y563959D01*
X172366Y564113D01*
X172452Y564264D01*
X172468Y564311D01*
X172491Y564356D01*
X172542Y564521D01*
X172600Y564685D01*
X172608Y564735D01*
X172622Y564783D01*
X172643Y564955D01*
X172671Y565126D01*
X172670Y565176D01*
X172675Y565226D01*
X172665Y565399D01*
X172662Y565573D01*
X172652Y565622D01*
X172649Y565672D01*
X172608Y565840D01*
X172573Y566011D01*
X172555Y566057D01*
X172543Y566106D01*
X172473Y566264D01*
X172409Y566426D01*
X172382Y566469D01*
X172362Y566514D01*
X172264Y566658D01*
X172172Y566805D01*
X172139Y566842D01*
X172111Y566884D01*
X171945Y567067D01*
X171581Y567431D01*
X171129Y568107D01*
X170818Y568858D01*
X170760Y569151D01*
X177051Y569151D01*
X177051Y561449D01*
X170760Y561449D01*
G37*
%LPD*%
%LPC*%
G36*
X170760Y624949D02*
X170760Y624949D01*
X170818Y625242D01*
X171129Y625993D01*
X171581Y626669D01*
X172156Y627244D01*
X172832Y627696D01*
X173583Y628007D01*
X174381Y628166D01*
X177051Y628166D01*
X177051Y624949D01*
X170760Y624949D01*
G37*
%LPD*%
%LPC*%
G36*
X174381Y527834D02*
X174381Y527834D01*
X173583Y527993D01*
X172832Y528304D01*
X172156Y528756D01*
X171581Y529331D01*
X171129Y530007D01*
X170818Y530758D01*
X170760Y531051D01*
X177051Y531051D01*
X177051Y527834D01*
X174381Y527834D01*
G37*
%LPD*%
D10*
X468000Y707500D03*
X468000Y688500D03*
X934000Y897500D03*
X934000Y878500D03*
X934000Y845500D03*
X934000Y826500D03*
X934000Y789500D03*
X934000Y770500D03*
X398000Y891500D03*
X398000Y872500D03*
D11*
X531500Y760000D03*
X512500Y760000D03*
X514500Y662000D03*
X533500Y662000D03*
X816500Y514000D03*
X835500Y514000D03*
D10*
X836000Y561500D03*
X836000Y542500D03*
X308000Y535500D03*
X308000Y516500D03*
X324000Y602500D03*
X324000Y621500D03*
X332000Y565500D03*
X332000Y546500D03*
D12*
X618000Y891000D03*
X618000Y821000D03*
D11*
X745500Y764000D03*
X726500Y764000D03*
D13*
X1512500Y201500D02*
X1512500Y197500D01*
X1507500Y197500D01*
X1507500Y201500D01*
X1512500Y201500D01*
X1512500Y201300D02*
X1507500Y201300D01*
X1512500Y218500D02*
X1512500Y222500D01*
X1512500Y218500D02*
X1507500Y218500D01*
X1507500Y222500D01*
X1512500Y222500D01*
X1512500Y222300D02*
X1507500Y222300D01*
X1512500Y236500D02*
X1512500Y240500D01*
X1512500Y236500D02*
X1507500Y236500D01*
X1507500Y240500D01*
X1512500Y240500D01*
X1512500Y240300D02*
X1507500Y240300D01*
X1512500Y257500D02*
X1512500Y261500D01*
X1512500Y257500D02*
X1507500Y257500D01*
X1507500Y261500D01*
X1512500Y261500D01*
X1512500Y261300D02*
X1507500Y261300D01*
X1512500Y275500D02*
X1512500Y279500D01*
X1512500Y275500D02*
X1507500Y275500D01*
X1507500Y279500D01*
X1512500Y279500D01*
X1512500Y279300D02*
X1507500Y279300D01*
X1512500Y296500D02*
X1512500Y300500D01*
X1512500Y296500D02*
X1507500Y296500D01*
X1507500Y300500D01*
X1512500Y300500D01*
X1512500Y300300D02*
X1507500Y300300D01*
D14*
X1524700Y694000D03*
X1524700Y592400D03*
D15*
X1473900Y643200D03*
X1473900Y668600D03*
D14*
X1524700Y521400D03*
X1524700Y419800D03*
D15*
X1473900Y470600D03*
X1473900Y496000D03*
D16*
X360000Y378220D03*
X360000Y349780D03*
D17*
X183780Y238000D03*
X212220Y238000D03*
X127780Y238000D03*
X156220Y238000D03*
D16*
X360000Y191780D03*
X360000Y220220D03*
D18*
X569500Y350000D03*
X550500Y350000D03*
X569500Y380000D03*
X550500Y380000D03*
X615500Y350000D03*
X596500Y350000D03*
X596500Y380000D03*
X615500Y380000D03*
X569500Y190000D03*
X550500Y190000D03*
X569500Y220000D03*
X550500Y220000D03*
X615500Y190000D03*
X596500Y190000D03*
D17*
X309780Y400000D03*
X338220Y400000D03*
D18*
X596500Y220000D03*
X615500Y220000D03*
D19*
X470000Y612500D03*
X470000Y631500D03*
X740000Y510500D03*
X740000Y529500D03*
D18*
X469500Y656000D03*
X450500Y656000D03*
D19*
X766000Y556500D03*
X766000Y575500D03*
X496000Y612500D03*
X496000Y631500D03*
X766000Y510500D03*
X766000Y529500D03*
X376000Y610500D03*
X376000Y629500D03*
X348000Y607500D03*
X348000Y588500D03*
D17*
X253780Y400000D03*
X282220Y400000D03*
D18*
X729500Y390000D03*
X710500Y390000D03*
X729500Y366000D03*
X710500Y366000D03*
X773500Y350000D03*
X754500Y350000D03*
X788500Y318000D03*
X807500Y318000D03*
X759500Y184000D03*
X740500Y184000D03*
D19*
X796000Y211500D03*
X796000Y192500D03*
X760000Y229500D03*
X760000Y210500D03*
X796000Y242500D03*
X796000Y261500D03*
X470000Y571500D03*
X470000Y552500D03*
D17*
X197780Y400000D03*
X226220Y400000D03*
D19*
X470000Y506500D03*
X470000Y525500D03*
X510000Y589500D03*
X510000Y570500D03*
D18*
X496500Y506000D03*
X515500Y506000D03*
D16*
X172000Y428220D03*
X172000Y399780D03*
X172000Y484220D03*
X172000Y455780D03*
D17*
X289780Y162000D03*
X318220Y162000D03*
X233780Y162000D03*
X262220Y162000D03*
D16*
X212000Y212220D03*
X212000Y183780D03*
D20*
X1548256Y346700D02*
X1566544Y346700D01*
X1566544Y321300D02*
X1548256Y321300D01*
X1548256Y295900D02*
X1566544Y295900D01*
X1566544Y270500D02*
X1548256Y270500D01*
X1548256Y245100D02*
X1566544Y245100D01*
X1566544Y219700D02*
X1548256Y219700D01*
D21*
X794100Y535800D02*
X794100Y542800D01*
X794100Y535800D02*
X791100Y535800D01*
X791100Y542800D01*
X794100Y542800D01*
X794100Y538650D02*
X791100Y538650D01*
X791100Y541500D02*
X794100Y541500D01*
X794100Y559800D02*
X794100Y566800D01*
X794100Y559800D02*
X791100Y559800D01*
X791100Y566800D01*
X794100Y566800D01*
X794100Y562650D02*
X791100Y562650D01*
X791100Y565500D02*
X794100Y565500D01*
X803600Y566800D02*
X803600Y559800D01*
X800600Y559800D01*
X800600Y566800D01*
X803600Y566800D01*
X803600Y562650D02*
X800600Y562650D01*
X800600Y565500D02*
X803600Y565500D01*
X813100Y566800D02*
X813100Y559800D01*
X810100Y559800D01*
X810100Y566800D01*
X813100Y566800D01*
X813100Y562650D02*
X810100Y562650D01*
X810100Y565500D02*
X813100Y565500D01*
X813100Y542800D02*
X813100Y535800D01*
X810100Y535800D01*
X810100Y542800D01*
X813100Y542800D01*
X813100Y538650D02*
X810100Y538650D01*
X810100Y541500D02*
X813100Y541500D01*
D22*
X445200Y891600D02*
X429200Y891600D01*
X429200Y896600D01*
X445200Y896600D01*
X445200Y891600D01*
X445200Y896350D02*
X429200Y896350D01*
X429200Y866200D02*
X445200Y866200D01*
X429200Y866200D02*
X429200Y871200D01*
X445200Y871200D01*
X445200Y866200D01*
X445200Y870950D02*
X429200Y870950D01*
X429200Y815400D02*
X445200Y815400D01*
X429200Y815400D02*
X429200Y820400D01*
X445200Y820400D01*
X445200Y815400D01*
X445200Y820150D02*
X429200Y820150D01*
X530800Y891600D02*
X546800Y891600D01*
X530800Y891600D02*
X530800Y896600D01*
X546800Y896600D01*
X546800Y891600D01*
X546800Y896350D02*
X530800Y896350D01*
X530800Y815400D02*
X546800Y815400D01*
X530800Y815400D02*
X530800Y820400D01*
X546800Y820400D01*
X546800Y815400D01*
X546800Y820150D02*
X530800Y820150D01*
D21*
X496100Y688300D02*
X496100Y681300D01*
X493100Y681300D01*
X493100Y688300D01*
X496100Y688300D01*
X496100Y684150D02*
X493100Y684150D01*
X493100Y687000D02*
X496100Y687000D01*
X496100Y705300D02*
X496100Y712300D01*
X496100Y705300D02*
X493100Y705300D01*
X493100Y712300D01*
X496100Y712300D01*
X496100Y708150D02*
X493100Y708150D01*
X493100Y711000D02*
X496100Y711000D01*
X505600Y712300D02*
X505600Y705300D01*
X502600Y705300D01*
X502600Y712300D01*
X505600Y712300D01*
X505600Y708150D02*
X502600Y708150D01*
X502600Y711000D02*
X505600Y711000D01*
X515100Y712300D02*
X515100Y705300D01*
X512100Y705300D01*
X512100Y712300D01*
X515100Y712300D01*
X515100Y708150D02*
X512100Y708150D01*
X512100Y711000D02*
X515100Y711000D01*
X515100Y688300D02*
X515100Y681300D01*
X512100Y681300D01*
X512100Y688300D01*
X515100Y688300D01*
X515100Y684150D02*
X512100Y684150D01*
X512100Y687000D02*
X515100Y687000D01*
D23*
X675466Y887623D02*
X715472Y887623D01*
X675466Y887623D02*
X675466Y892577D01*
X715472Y892577D01*
X715472Y887623D01*
X715472Y892328D02*
X675466Y892328D01*
X675466Y811423D02*
X715472Y811423D01*
X675466Y811423D02*
X675466Y816377D01*
X715472Y816377D01*
X715472Y811423D01*
X715472Y816128D02*
X675466Y816128D01*
X790528Y811423D02*
X830534Y811423D01*
X790528Y811423D02*
X790528Y816377D01*
X830534Y816377D01*
X830534Y811423D01*
X830534Y816128D02*
X790528Y816128D01*
X790528Y836823D02*
X830534Y836823D01*
X790528Y836823D02*
X790528Y841777D01*
X830534Y841777D01*
X830534Y836823D01*
X830534Y841528D02*
X790528Y841528D01*
X790528Y862223D02*
X830534Y862223D01*
X790528Y862223D02*
X790528Y867177D01*
X830534Y867177D01*
X830534Y862223D01*
X830534Y866928D02*
X790528Y866928D01*
D24*
X404375Y375525D02*
X390725Y375525D01*
X390725Y381875D01*
X404375Y381875D01*
X404375Y375525D01*
X404375Y381557D02*
X390725Y381557D01*
X479625Y375525D02*
X493275Y375525D01*
X479625Y375525D02*
X479625Y381875D01*
X493275Y381875D01*
X493275Y375525D01*
X493275Y381557D02*
X479625Y381557D01*
D25*
X405010Y401560D02*
X390090Y401560D01*
X390090Y406640D01*
X405010Y406640D01*
X405010Y401560D01*
X405010Y406386D02*
X390090Y406386D01*
X478990Y401560D02*
X493910Y401560D01*
X478990Y401560D02*
X478990Y406640D01*
X493910Y406640D01*
X493910Y401560D01*
X493910Y406386D02*
X478990Y406386D01*
D24*
X479625Y350125D02*
X493275Y350125D01*
X479625Y350125D02*
X479625Y356475D01*
X493275Y356475D01*
X493275Y350125D01*
X493275Y356157D02*
X479625Y356157D01*
D25*
X478990Y325360D02*
X493910Y325360D01*
X478990Y325360D02*
X478990Y330440D01*
X493910Y330440D01*
X493910Y325360D01*
X493910Y330186D02*
X478990Y330186D01*
X405010Y325360D02*
X390090Y325360D01*
X390090Y330440D01*
X405010Y330440D01*
X405010Y325360D01*
X405010Y330186D02*
X390090Y330186D01*
D24*
X390725Y350125D02*
X404375Y350125D01*
X390725Y350125D02*
X390725Y356475D01*
X404375Y356475D01*
X404375Y350125D01*
X404375Y356157D02*
X390725Y356157D01*
X390725Y217525D02*
X404375Y217525D01*
X390725Y217525D02*
X390725Y223875D01*
X404375Y223875D01*
X404375Y217525D01*
X404375Y223557D02*
X390725Y223557D01*
X479625Y217525D02*
X493275Y217525D01*
X479625Y217525D02*
X479625Y223875D01*
X493275Y223875D01*
X493275Y217525D01*
X493275Y223557D02*
X479625Y223557D01*
D25*
X405010Y243560D02*
X390090Y243560D01*
X390090Y248640D01*
X405010Y248640D01*
X405010Y243560D01*
X405010Y248386D02*
X390090Y248386D01*
X478990Y243560D02*
X493910Y243560D01*
X478990Y243560D02*
X478990Y248640D01*
X493910Y248640D01*
X493910Y243560D01*
X493910Y248386D02*
X478990Y248386D01*
D24*
X479625Y192125D02*
X493275Y192125D01*
X479625Y192125D02*
X479625Y198475D01*
X493275Y198475D01*
X493275Y192125D01*
X493275Y198157D02*
X479625Y198157D01*
D25*
X478990Y167360D02*
X493910Y167360D01*
X478990Y167360D02*
X478990Y172440D01*
X493910Y172440D01*
X493910Y167360D01*
X493910Y172186D02*
X478990Y172186D01*
X405010Y167360D02*
X390090Y167360D01*
X390090Y172440D01*
X405010Y172440D01*
X405010Y167360D01*
X405010Y172186D02*
X390090Y172186D01*
D24*
X390725Y192125D02*
X404375Y192125D01*
X390725Y192125D02*
X390725Y198475D01*
X404375Y198475D01*
X404375Y192125D01*
X404375Y198157D02*
X390725Y198157D01*
D26*
X184313Y582762D02*
X174787Y582762D01*
X174787Y585938D01*
X184313Y585938D01*
X184313Y582762D01*
X184313Y585778D02*
X174787Y585778D01*
X174787Y570062D02*
X184313Y570062D01*
X174787Y570062D02*
X174787Y573238D01*
X184313Y573238D01*
X184313Y570062D01*
X184313Y573078D02*
X174787Y573078D01*
X174787Y595462D02*
X184313Y595462D01*
X174787Y595462D02*
X174787Y598638D01*
X184313Y598638D01*
X184313Y595462D01*
X184313Y598478D02*
X174787Y598478D01*
X174787Y608162D02*
X184313Y608162D01*
X174787Y608162D02*
X174787Y611338D01*
X184313Y611338D01*
X184313Y608162D01*
X184313Y611178D02*
X174787Y611178D01*
X174787Y620862D02*
X184313Y620862D01*
X174787Y620862D02*
X174787Y624038D01*
X184313Y624038D01*
X184313Y620862D01*
X184313Y623878D02*
X174787Y623878D01*
X174787Y557362D02*
X184313Y557362D01*
X174787Y557362D02*
X174787Y560538D01*
X184313Y560538D01*
X184313Y557362D01*
X184313Y560378D02*
X174787Y560378D01*
X174787Y544662D02*
X184313Y544662D01*
X174787Y544662D02*
X174787Y547838D01*
X184313Y547838D01*
X184313Y544662D01*
X184313Y547678D02*
X174787Y547678D01*
X174787Y531962D02*
X184313Y531962D01*
X174787Y531962D02*
X174787Y535138D01*
X184313Y535138D01*
X184313Y531962D01*
X184313Y534978D02*
X174787Y534978D01*
X263687Y531962D02*
X273213Y531962D01*
X263687Y531962D02*
X263687Y535138D01*
X273213Y535138D01*
X273213Y531962D01*
X273213Y534978D02*
X263687Y534978D01*
X263687Y544662D02*
X273213Y544662D01*
X263687Y544662D02*
X263687Y547838D01*
X273213Y547838D01*
X273213Y544662D01*
X273213Y547678D02*
X263687Y547678D01*
X263687Y557362D02*
X273213Y557362D01*
X263687Y557362D02*
X263687Y560538D01*
X273213Y560538D01*
X273213Y557362D01*
X273213Y560378D02*
X263687Y560378D01*
X263687Y570062D02*
X273213Y570062D01*
X263687Y570062D02*
X263687Y573238D01*
X273213Y573238D01*
X273213Y570062D01*
X273213Y573078D02*
X263687Y573078D01*
X263687Y582762D02*
X273213Y582762D01*
X263687Y582762D02*
X263687Y585938D01*
X273213Y585938D01*
X273213Y582762D01*
X273213Y585778D02*
X263687Y585778D01*
X263687Y595462D02*
X273213Y595462D01*
X263687Y595462D02*
X263687Y598638D01*
X273213Y598638D01*
X273213Y595462D01*
X273213Y598478D02*
X263687Y598478D01*
X263687Y608162D02*
X273213Y608162D01*
X263687Y608162D02*
X263687Y611338D01*
X273213Y611338D01*
X273213Y608162D01*
X273213Y611178D02*
X263687Y611178D01*
X263687Y620862D02*
X273213Y620862D01*
X263687Y620862D02*
X263687Y624038D01*
X273213Y624038D01*
X273213Y620862D01*
X273213Y623878D02*
X263687Y623878D01*
D27*
X602477Y629676D02*
X614923Y629676D01*
X602477Y629676D02*
X602477Y632724D01*
X614923Y632724D01*
X614923Y629676D01*
X614923Y632572D02*
X602477Y632572D01*
X602477Y616976D02*
X614923Y616976D01*
X602477Y616976D02*
X602477Y620024D01*
X614923Y620024D01*
X614923Y616976D01*
X614923Y619872D02*
X602477Y619872D01*
X602477Y604276D02*
X614923Y604276D01*
X602477Y604276D02*
X602477Y607324D01*
X614923Y607324D01*
X614923Y604276D01*
X614923Y607172D02*
X602477Y607172D01*
X602477Y591576D02*
X614923Y591576D01*
X602477Y591576D02*
X602477Y594624D01*
X614923Y594624D01*
X614923Y591576D01*
X614923Y594472D02*
X602477Y594472D01*
X602477Y578876D02*
X614923Y578876D01*
X602477Y578876D02*
X602477Y581924D01*
X614923Y581924D01*
X614923Y578876D01*
X614923Y581772D02*
X602477Y581772D01*
X602477Y566176D02*
X614923Y566176D01*
X602477Y566176D02*
X602477Y569224D01*
X614923Y569224D01*
X614923Y566176D01*
X614923Y569072D02*
X602477Y569072D01*
X602477Y553476D02*
X614923Y553476D01*
X602477Y553476D02*
X602477Y556524D01*
X614923Y556524D01*
X614923Y553476D01*
X614923Y556372D02*
X602477Y556372D01*
X656579Y629676D02*
X669025Y629676D01*
X656579Y629676D02*
X656579Y632724D01*
X669025Y632724D01*
X669025Y629676D01*
X669025Y632572D02*
X656579Y632572D01*
X656579Y616976D02*
X669025Y616976D01*
X656579Y616976D02*
X656579Y620024D01*
X669025Y620024D01*
X669025Y616976D01*
X669025Y619872D02*
X656579Y619872D01*
X656579Y604276D02*
X669025Y604276D01*
X656579Y604276D02*
X656579Y607324D01*
X669025Y607324D01*
X669025Y604276D01*
X669025Y607172D02*
X656579Y607172D01*
X656579Y591576D02*
X669025Y591576D01*
X656579Y591576D02*
X656579Y594624D01*
X669025Y594624D01*
X669025Y591576D01*
X669025Y594472D02*
X656579Y594472D01*
X656579Y578876D02*
X669025Y578876D01*
X656579Y578876D02*
X656579Y581924D01*
X669025Y581924D01*
X669025Y578876D01*
X669025Y581772D02*
X656579Y581772D01*
X656579Y566176D02*
X669025Y566176D01*
X656579Y566176D02*
X656579Y569224D01*
X669025Y569224D01*
X669025Y566176D01*
X669025Y569072D02*
X656579Y569072D01*
X656579Y553476D02*
X669025Y553476D01*
X656579Y553476D02*
X656579Y556524D01*
X669025Y556524D01*
X669025Y553476D01*
X669025Y556372D02*
X656579Y556372D01*
D28*
X900082Y898200D03*
X900082Y872800D03*
X900082Y822000D03*
X900082Y796600D03*
X900082Y771200D03*
D29*
X64250Y857611D03*
X64250Y806811D03*
X64250Y603611D03*
X64250Y552811D03*
X64250Y301611D03*
X64250Y250811D03*
D14*
X1523400Y866800D03*
X1523400Y765200D03*
D15*
X1472600Y816000D03*
X1472600Y841400D03*
D27*
X756576Y321223D02*
X756576Y308777D01*
X756576Y321223D02*
X759624Y321223D01*
X759624Y308777D01*
X756576Y308777D01*
X756576Y311673D02*
X759624Y311673D01*
X759624Y314569D02*
X756576Y314569D01*
X756576Y317465D02*
X759624Y317465D01*
X759624Y320361D02*
X756576Y320361D01*
X743876Y321223D02*
X743876Y308777D01*
X743876Y321223D02*
X746924Y321223D01*
X746924Y308777D01*
X743876Y308777D01*
X743876Y311673D02*
X746924Y311673D01*
X746924Y314569D02*
X743876Y314569D01*
X743876Y317465D02*
X746924Y317465D01*
X746924Y320361D02*
X743876Y320361D01*
X731176Y321223D02*
X731176Y308777D01*
X731176Y321223D02*
X734224Y321223D01*
X734224Y308777D01*
X731176Y308777D01*
X731176Y311673D02*
X734224Y311673D01*
X734224Y314569D02*
X731176Y314569D01*
X731176Y317465D02*
X734224Y317465D01*
X734224Y320361D02*
X731176Y320361D01*
X718476Y321223D02*
X718476Y308777D01*
X718476Y321223D02*
X721524Y321223D01*
X721524Y308777D01*
X718476Y308777D01*
X718476Y311673D02*
X721524Y311673D01*
X721524Y314569D02*
X718476Y314569D01*
X718476Y317465D02*
X721524Y317465D01*
X721524Y320361D02*
X718476Y320361D01*
X705776Y321223D02*
X705776Y308777D01*
X705776Y321223D02*
X708824Y321223D01*
X708824Y308777D01*
X705776Y308777D01*
X705776Y311673D02*
X708824Y311673D01*
X708824Y314569D02*
X705776Y314569D01*
X705776Y317465D02*
X708824Y317465D01*
X708824Y320361D02*
X705776Y320361D01*
X693076Y321223D02*
X693076Y308777D01*
X693076Y321223D02*
X696124Y321223D01*
X696124Y308777D01*
X693076Y308777D01*
X693076Y311673D02*
X696124Y311673D01*
X696124Y314569D02*
X693076Y314569D01*
X693076Y317465D02*
X696124Y317465D01*
X696124Y320361D02*
X693076Y320361D01*
X680376Y321223D02*
X680376Y308777D01*
X680376Y321223D02*
X683424Y321223D01*
X683424Y308777D01*
X680376Y308777D01*
X680376Y311673D02*
X683424Y311673D01*
X683424Y314569D02*
X680376Y314569D01*
X680376Y317465D02*
X683424Y317465D01*
X683424Y320361D02*
X680376Y320361D01*
X756576Y267121D02*
X756576Y254675D01*
X756576Y267121D02*
X759624Y267121D01*
X759624Y254675D01*
X756576Y254675D01*
X756576Y257571D02*
X759624Y257571D01*
X759624Y260467D02*
X756576Y260467D01*
X756576Y263363D02*
X759624Y263363D01*
X759624Y266259D02*
X756576Y266259D01*
X743876Y267121D02*
X743876Y254675D01*
X743876Y267121D02*
X746924Y267121D01*
X746924Y254675D01*
X743876Y254675D01*
X743876Y257571D02*
X746924Y257571D01*
X746924Y260467D02*
X743876Y260467D01*
X743876Y263363D02*
X746924Y263363D01*
X746924Y266259D02*
X743876Y266259D01*
X731176Y267121D02*
X731176Y254675D01*
X731176Y267121D02*
X734224Y267121D01*
X734224Y254675D01*
X731176Y254675D01*
X731176Y257571D02*
X734224Y257571D01*
X734224Y260467D02*
X731176Y260467D01*
X731176Y263363D02*
X734224Y263363D01*
X734224Y266259D02*
X731176Y266259D01*
X718476Y267121D02*
X718476Y254675D01*
X718476Y267121D02*
X721524Y267121D01*
X721524Y254675D01*
X718476Y254675D01*
X718476Y257571D02*
X721524Y257571D01*
X721524Y260467D02*
X718476Y260467D01*
X718476Y263363D02*
X721524Y263363D01*
X721524Y266259D02*
X718476Y266259D01*
X705776Y267121D02*
X705776Y254675D01*
X705776Y267121D02*
X708824Y267121D01*
X708824Y254675D01*
X705776Y254675D01*
X705776Y257571D02*
X708824Y257571D01*
X708824Y260467D02*
X705776Y260467D01*
X705776Y263363D02*
X708824Y263363D01*
X708824Y266259D02*
X705776Y266259D01*
X693076Y267121D02*
X693076Y254675D01*
X693076Y267121D02*
X696124Y267121D01*
X696124Y254675D01*
X693076Y254675D01*
X693076Y257571D02*
X696124Y257571D01*
X696124Y260467D02*
X693076Y260467D01*
X693076Y263363D02*
X696124Y263363D01*
X696124Y266259D02*
X693076Y266259D01*
X680376Y267121D02*
X680376Y254675D01*
X680376Y267121D02*
X683424Y267121D01*
X683424Y254675D01*
X680376Y254675D01*
X680376Y257571D02*
X683424Y257571D01*
X683424Y260467D02*
X680376Y260467D01*
X680376Y263363D02*
X683424Y263363D01*
X683424Y266259D02*
X680376Y266259D01*
D30*
X309780Y400000D02*
X282220Y400000D01*
X253780Y400000D02*
X226220Y400000D01*
X197780Y400000D02*
X172220Y400000D01*
X172000Y399780D01*
X172000Y428220D02*
X172000Y455780D01*
X262220Y162000D02*
X289780Y162000D01*
X233780Y162000D02*
X212000Y183780D01*
X212220Y212440D02*
X212220Y238000D01*
X212220Y212440D02*
X212000Y212220D01*
X183780Y238000D02*
X156220Y238000D01*
X318220Y162000D02*
X328000Y162000D01*
X357780Y191780D02*
X360000Y191780D01*
X357780Y191780D02*
X328000Y162000D01*
X360000Y191780D02*
X394030Y191780D01*
X397550Y195300D01*
D31*
X796000Y261500D02*
X807500Y273000D01*
X807500Y318000D01*
X766000Y510500D02*
X740000Y510500D01*
X766000Y510500D02*
X813000Y510500D01*
X816500Y514000D01*
X816500Y327000D01*
X807500Y318000D01*
X811600Y518900D02*
X811600Y539300D01*
X811600Y518900D02*
X816500Y514000D01*
X638000Y380000D02*
X615500Y380000D01*
D32*
X638000Y380000D03*
D31*
X617500Y222000D02*
X615500Y220000D01*
X617500Y222000D02*
X628000Y222000D01*
X646000Y240000D01*
X646000Y256000D01*
D32*
X646000Y256000D03*
D31*
X468000Y680000D02*
X468000Y688500D01*
X468000Y680000D02*
X464000Y676000D01*
X446000Y676000D01*
D32*
X446000Y676000D03*
D31*
X533500Y662000D02*
X533500Y640500D01*
X534000Y640000D01*
D32*
X534000Y640000D03*
D31*
X532000Y506000D02*
X515500Y506000D01*
D32*
X532000Y506000D03*
D31*
X728000Y824000D02*
X776000Y872000D01*
X803231Y872000D01*
X810531Y864700D01*
X728000Y824000D02*
X728000Y765500D01*
X726500Y764000D01*
X934000Y814000D02*
X934000Y826500D01*
X934000Y814000D02*
X934000Y789500D01*
X917482Y814000D02*
X900082Y796600D01*
X917482Y814000D02*
X934000Y814000D01*
X285500Y516500D02*
X268450Y533550D01*
X285500Y516500D02*
X308000Y516500D01*
X332500Y546000D02*
X332000Y546500D01*
X332500Y546000D02*
X350000Y546000D01*
D32*
X350000Y546000D03*
D31*
X326000Y516000D02*
X325500Y515500D01*
D32*
X326000Y516000D03*
D31*
X324000Y621500D02*
X333500Y621500D01*
X338000Y626000D01*
D32*
X338000Y626000D03*
D31*
X446000Y660500D02*
X446000Y676000D01*
X446000Y660500D02*
X450500Y656000D01*
X324500Y516500D02*
X308000Y516500D01*
X324500Y516500D02*
X325500Y515500D01*
X504100Y708800D02*
X504100Y713900D01*
X504000Y714000D01*
D32*
X517873Y722127D03*
D31*
X508476Y718476D02*
X504000Y714000D01*
X508476Y718476D02*
X513117Y718476D01*
X516767Y722127D01*
X517873Y722127D01*
X742500Y575500D02*
X766000Y575500D01*
X742500Y575500D02*
X742000Y576000D01*
D32*
X742000Y576000D03*
D31*
X766000Y575500D02*
X794500Y575500D01*
X802100Y567900D02*
X802100Y563300D01*
X802100Y567900D02*
X794500Y575500D01*
X836000Y542500D02*
X836000Y514500D01*
X835500Y514000D01*
X836000Y513500D01*
X836000Y496000D01*
D32*
X836000Y496000D03*
D31*
X513900Y327900D02*
X486450Y327900D01*
X513900Y327900D02*
X514000Y328000D01*
D32*
X514000Y328000D03*
D31*
X510100Y169900D02*
X486450Y169900D01*
X510100Y169900D02*
X516000Y164000D01*
D32*
X516000Y164000D03*
D31*
X1537200Y199500D02*
X1557400Y219700D01*
X1537200Y199500D02*
X1510000Y199500D01*
X1510000Y238500D02*
X1502500Y246000D01*
X1489000Y246000D01*
D32*
X1489000Y246000D03*
D31*
X1489500Y277500D02*
X1510000Y277500D01*
X1489500Y277500D02*
X1489000Y278000D01*
D32*
X1489000Y278000D03*
D31*
X726500Y764000D02*
X712500Y750000D01*
X700000Y750000D01*
D32*
X700000Y750000D03*
D31*
X512500Y760000D02*
X510500Y760000D01*
X452600Y817900D01*
X437200Y817900D01*
X857200Y872800D02*
X900082Y872800D01*
X857200Y872800D02*
X839900Y890100D01*
X905782Y878500D02*
X934000Y878500D01*
X905782Y878500D02*
X900082Y872800D01*
X512500Y760000D02*
X512500Y740500D01*
X508000Y736000D01*
X424000Y736000D01*
D32*
X424000Y736000D03*
X422000Y354000D03*
D31*
X397550Y329550D01*
X397550Y327900D01*
D32*
X420000Y188000D03*
D31*
X401900Y169900D01*
X397550Y169900D01*
X452600Y817900D02*
X452600Y837400D01*
X452000Y838000D01*
D32*
X452000Y838000D03*
X461100Y918000D03*
D30*
X437200Y894100D01*
X434600Y891500D01*
X398000Y891500D01*
X98139Y891500D02*
X64250Y857611D01*
X98139Y891500D02*
X398000Y891500D01*
D31*
X695469Y890100D02*
X839900Y890100D01*
D30*
X618000Y891000D02*
X591000Y918000D01*
X461100Y918000D01*
X618000Y891000D02*
X694569Y891000D01*
X695469Y890100D01*
D33*
X437200Y868700D02*
X401800Y868700D01*
X398000Y872500D01*
X129939Y872500D01*
X64250Y806811D01*
X456038Y868700D02*
X463762Y860976D01*
X456038Y868700D02*
X437200Y868700D01*
D32*
X708000Y864000D03*
D31*
X900782Y897500D02*
X934000Y897500D01*
X900782Y897500D02*
X900082Y898200D01*
X708000Y864000D02*
X695469Y851469D01*
X695469Y813900D01*
D30*
X482738Y842000D02*
X463762Y860976D01*
X597000Y842000D02*
X618000Y821000D01*
X597000Y842000D02*
X482738Y842000D01*
X618000Y821000D02*
X688369Y821000D01*
X695469Y813900D01*
D31*
X760631Y764000D02*
X810531Y813900D01*
X760631Y764000D02*
X745500Y764000D01*
X745500Y698500D01*
X746000Y698000D01*
D32*
X746000Y698000D03*
X770000Y674000D03*
D31*
X811600Y632400D01*
X811600Y563300D01*
X834200Y563300D02*
X836000Y561500D01*
X834200Y563300D02*
X811600Y563300D01*
X792600Y563300D02*
X792600Y553400D01*
X794000Y552000D01*
X804319Y552000D02*
X811600Y559281D01*
X811600Y563300D01*
X804319Y552000D02*
X794000Y552000D01*
X513600Y701600D02*
X513600Y708800D01*
X513600Y701600D02*
X510000Y698000D01*
X500000Y698000D01*
X494600Y703400D01*
X494600Y708800D01*
X513600Y708800D02*
X735200Y708800D01*
X745500Y698500D01*
X474500Y714000D02*
X468000Y707500D01*
X474500Y714000D02*
X492000Y714000D01*
X494600Y711400D01*
X494600Y708800D01*
D32*
X418000Y660000D03*
D31*
X460024Y699524D02*
X468000Y707500D01*
X418254Y660000D02*
X418000Y660000D01*
X457778Y699524D02*
X460024Y699524D01*
X457778Y699524D02*
X418254Y660000D01*
D32*
X418000Y512000D03*
D31*
X462000Y468000D01*
X462000Y410000D01*
X467900Y404100D01*
X486450Y404100D01*
X462000Y270550D02*
X486450Y246100D01*
X462000Y270550D02*
X462000Y410000D01*
X531500Y760000D02*
X531500Y810600D01*
X538800Y817900D01*
X430100Y246100D02*
X397550Y246100D01*
X430100Y246100D02*
X448000Y264000D01*
X448000Y456000D01*
X531500Y747500D02*
X531500Y760000D01*
X510000Y726000D02*
X414000Y726000D01*
X392000Y704000D01*
X392000Y660000D01*
D32*
X392000Y660000D03*
X392000Y512000D03*
D31*
X510000Y726000D02*
X531500Y747500D01*
X392000Y512000D02*
X427000Y477000D01*
X448000Y456000D01*
X427000Y433550D02*
X397550Y404100D01*
X427000Y433550D02*
X427000Y477000D01*
X325850Y571650D02*
X268450Y571650D01*
X325850Y571650D02*
X332000Y565500D01*
X385500Y552500D02*
X470000Y552500D01*
X372500Y565500D02*
X332000Y565500D01*
X372500Y565500D02*
X385500Y552500D01*
X470000Y552500D02*
X546500Y552500D01*
X574400Y580400D02*
X608700Y580400D01*
X574400Y580400D02*
X546500Y552500D01*
D22*
X279750Y546250D02*
X268450Y546250D01*
X279750Y546250D02*
X282000Y544000D01*
D32*
X282000Y544000D03*
D31*
X290500Y535500D02*
X308000Y535500D01*
X290500Y535500D02*
X282000Y544000D01*
X308000Y535500D02*
X318500Y535500D01*
X328500Y525500D02*
X470000Y525500D01*
X328500Y525500D02*
X318500Y535500D01*
X549200Y378700D02*
X550500Y380000D01*
X549200Y378700D02*
X486450Y378700D01*
X690000Y366000D02*
X710500Y366000D01*
X660000Y396000D02*
X562000Y396000D01*
X550500Y384500D01*
X550500Y380000D01*
X660000Y396000D02*
X690000Y366000D01*
X510000Y353300D02*
X486450Y353300D01*
X510000Y353300D02*
X547200Y353300D01*
X550500Y350000D01*
X520000Y363300D02*
X510000Y353300D01*
X520000Y363300D02*
X520000Y364000D01*
D32*
X520000Y364000D03*
X554000Y404000D03*
D31*
X696500Y404000D01*
X710500Y390000D01*
X508000Y220700D02*
X486450Y220700D01*
X508000Y220700D02*
X549800Y220700D01*
X550500Y220000D01*
X522000Y206700D02*
X508000Y220700D01*
X522000Y206700D02*
X522000Y206000D01*
D32*
X522000Y206000D03*
X566000Y150000D03*
D31*
X796000Y164000D02*
X796000Y192500D01*
X782000Y150000D02*
X566000Y150000D01*
X782000Y150000D02*
X796000Y164000D01*
X524000Y190000D02*
X491750Y190000D01*
X524000Y190000D02*
X550500Y190000D01*
X491750Y190000D02*
X486450Y195300D01*
X524000Y190000D02*
X554000Y160000D01*
X716500Y160000D02*
X740500Y184000D01*
X716500Y160000D02*
X554000Y160000D01*
X569500Y220000D02*
X582000Y220000D01*
X596500Y220000D01*
X582000Y220000D02*
X582000Y234000D01*
X590000Y242000D01*
X628000Y242000D01*
D32*
X628000Y242000D03*
X708000Y242000D03*
D31*
X707300Y242700D01*
X707300Y260898D01*
X596500Y190000D02*
X584000Y190000D01*
X569500Y190000D02*
X568000Y190000D01*
X569500Y190000D02*
X584000Y190000D01*
X568000Y190000D02*
X590000Y168000D01*
X620000Y168000D01*
X694600Y242600D01*
X694600Y260898D01*
X643750Y218250D02*
X615500Y190000D01*
X643750Y218250D02*
X681900Y256400D01*
X681900Y260898D01*
D32*
X643750Y218250D03*
X818000Y198000D03*
D31*
X1090600Y470600D01*
X1473900Y470600D01*
X596500Y380000D02*
X569500Y380000D01*
X596500Y380000D02*
X596500Y371500D01*
X674000Y364000D02*
X708000Y330000D01*
X708000Y315700D01*
X707300Y315000D01*
X604000Y364000D02*
X596500Y371500D01*
X604000Y364000D02*
X674000Y364000D01*
X596500Y350000D02*
X569500Y350000D01*
X596500Y348102D02*
X648602Y296000D01*
X596500Y348102D02*
X596500Y350000D01*
X648602Y296000D02*
X684000Y296000D01*
X694000Y306000D01*
X694000Y314400D02*
X694600Y315000D01*
X694000Y314400D02*
X694000Y306000D01*
X652000Y350000D02*
X615500Y350000D01*
X652000Y350000D02*
X656000Y350000D01*
X682000Y324000D01*
X682000Y315100D01*
X681900Y315000D01*
D32*
X652000Y350000D03*
X726000Y430000D03*
X838000Y460000D03*
D31*
X1021200Y643200D01*
X1473900Y643200D01*
D32*
X656000Y422000D03*
D31*
X664000Y430000D01*
X726000Y430000D01*
X470000Y655500D02*
X469500Y656000D01*
X470000Y655500D02*
X470000Y631500D01*
X494600Y632900D02*
X496000Y631500D01*
X494600Y632900D02*
X494600Y684800D01*
X496000Y631500D02*
X472000Y631500D01*
D22*
X470000Y631500D01*
D31*
X766000Y556500D02*
X766000Y538000D01*
X766000Y529500D01*
X740000Y529500D01*
X767300Y539300D02*
X792600Y539300D01*
X767300Y539300D02*
X766000Y538000D01*
X324000Y602500D02*
X318550Y597050D01*
X324000Y602500D02*
X343000Y602500D01*
X348000Y607500D01*
X351000Y610500D01*
X376000Y610500D01*
X376500Y610000D02*
X496000Y610000D01*
X376500Y610000D02*
X376000Y610500D01*
X513600Y662900D02*
X514500Y662000D01*
X513600Y662900D02*
X513600Y684800D01*
X514500Y662000D02*
X514500Y622500D01*
X504500Y612500D02*
X496000Y612500D01*
X504500Y612500D02*
X514500Y622500D01*
X496000Y612500D02*
X470000Y612500D01*
D22*
X496000Y612500D02*
X496000Y610000D01*
D31*
X318550Y597050D02*
X268450Y597050D01*
D30*
X360000Y378220D02*
X397070Y378220D01*
X397550Y378700D01*
X360000Y378220D02*
X338220Y400000D01*
D31*
X364500Y629500D02*
X376000Y629500D01*
X282000Y636000D02*
X268450Y622450D01*
X358000Y636000D02*
X364500Y629500D01*
X358000Y636000D02*
X282000Y636000D01*
D32*
X440000Y630000D03*
D31*
X439500Y629500D01*
X376000Y629500D01*
X1121300Y346700D02*
X1557400Y346700D01*
X1121300Y346700D02*
X1054000Y414000D01*
D32*
X1054000Y414000D03*
D31*
X343850Y584350D02*
X268450Y584350D01*
X343850Y584350D02*
X348000Y588500D01*
D32*
X440000Y588000D03*
D31*
X439500Y588500D01*
X348000Y588500D01*
D32*
X1044000Y404000D03*
D31*
X1126700Y321300D02*
X1557400Y321300D01*
X1126700Y321300D02*
X1044000Y404000D01*
D22*
X280000Y610000D02*
X268700Y610000D01*
X268450Y609750D01*
D31*
X280000Y610000D02*
X302000Y610000D01*
X306000Y614000D01*
D32*
X306000Y614000D03*
D31*
X729500Y366000D02*
X733500Y362000D01*
X733500Y315800D01*
X732700Y315000D01*
X732700Y303300D01*
X738000Y298000D01*
X780000Y298000D01*
X788500Y306500D02*
X788500Y318000D01*
X788500Y306500D02*
X780000Y298000D01*
X754500Y365000D02*
X729500Y390000D01*
X754500Y365000D02*
X754500Y350000D01*
X754500Y342500D01*
X745400Y333400D02*
X745400Y315000D01*
X745400Y333400D02*
X754500Y342500D01*
X758100Y322100D02*
X758100Y315000D01*
X773500Y337500D02*
X773500Y350000D01*
X773500Y337500D02*
X758100Y322100D01*
X773500Y350000D02*
X801500Y378000D01*
X802000Y378000D01*
D32*
X802000Y378000D03*
X992000Y352000D03*
D31*
X1084500Y259500D02*
X1510000Y259500D01*
X1084500Y259500D02*
X992000Y352000D01*
X1510000Y259500D02*
X1527500Y259500D01*
X1538500Y270500D02*
X1557400Y270500D01*
X1538500Y270500D02*
X1527500Y259500D01*
X796000Y242500D02*
X796000Y211500D01*
X796000Y242500D02*
X787500Y242500D01*
X774000Y256000D02*
X774000Y268000D01*
X766000Y276000D01*
X742000Y276000D02*
X732000Y266000D01*
X732000Y261598D01*
X732700Y260898D01*
X774000Y256000D02*
X787500Y242500D01*
X766000Y276000D02*
X742000Y276000D01*
X760000Y210500D02*
X760000Y184500D01*
X759500Y184000D01*
X760000Y210500D02*
X758000Y210500D01*
X745400Y223100D02*
X745400Y260898D01*
X745400Y223100D02*
X758000Y210500D01*
X760000Y229500D02*
X758000Y231500D01*
X758000Y260798D02*
X758100Y260898D01*
X758000Y260798D02*
X758000Y231500D01*
X760000Y229500D02*
X778500Y229500D01*
X782000Y226000D01*
D32*
X782000Y226000D03*
X862000Y226000D03*
D31*
X1504500Y226000D02*
X1510000Y220500D01*
X1504500Y226000D02*
X862000Y226000D01*
X1510000Y220500D02*
X1519500Y220500D01*
X1544100Y245100D02*
X1557400Y245100D01*
X1544100Y245100D02*
X1519500Y220500D01*
X496000Y506500D02*
X470000Y506500D01*
X496000Y506500D02*
X496500Y506000D01*
X575800Y605800D02*
X608700Y605800D01*
X575800Y605800D02*
X534000Y564000D01*
D32*
X534000Y564000D03*
X534000Y540000D03*
D31*
X518000Y524000D01*
X506000Y524000D01*
X496000Y514000D01*
X496000Y506500D01*
X510000Y570500D02*
X509000Y571500D01*
X470000Y571500D01*
X510000Y570500D02*
X511500Y572000D01*
X572500Y618500D02*
X608700Y618500D01*
X526000Y572000D02*
X511500Y572000D01*
X526000Y572000D02*
X572500Y618500D01*
X607900Y632000D02*
X608700Y631200D01*
X552500Y632000D02*
X510000Y589500D01*
X552500Y632000D02*
X607900Y632000D01*
X608700Y631200D02*
X637500Y660000D01*
X712000Y660000D01*
D32*
X712000Y660000D03*
X788000Y670000D03*
D31*
X834000Y716000D01*
X1288000Y716000D02*
X1388000Y816000D01*
X1472600Y816000D01*
X1288000Y716000D02*
X834000Y716000D01*
X608700Y567700D02*
X608700Y555000D01*
X608700Y473300D01*
D32*
X796000Y440000D03*
X830000Y440000D03*
D31*
X988000Y440000D01*
X1012000Y416000D01*
D32*
X1012000Y416000D03*
X1034000Y394000D03*
D31*
X642000Y440000D02*
X608700Y473300D01*
X642000Y440000D02*
X796000Y440000D01*
X1034000Y394000D02*
X1129500Y298500D01*
X1510000Y298500D01*
X1554800Y298500D01*
X1557400Y295900D01*
D32*
X158000Y588000D03*
X110000Y636000D03*
X122000Y636000D03*
X134000Y636000D03*
X146000Y636000D03*
X158000Y636000D03*
X158000Y624000D03*
X146000Y624000D03*
X134000Y624000D03*
X122000Y624000D03*
X110000Y624000D03*
X134000Y612000D03*
X146000Y612000D03*
X158000Y612000D03*
X122000Y612000D03*
X110000Y612000D03*
X110000Y600000D03*
X122000Y600000D03*
X134000Y600000D03*
X146000Y600000D03*
X158000Y600000D03*
X146000Y588000D03*
X134000Y588000D03*
X122000Y588000D03*
X110000Y588000D03*
X62000Y636000D03*
X74000Y636000D03*
X86000Y636000D03*
X98000Y636000D03*
X62000Y624000D03*
X74000Y624000D03*
X86000Y624000D03*
X98000Y624000D03*
X98000Y612000D03*
X98000Y600000D03*
X98000Y588000D03*
X50000Y636000D03*
X50000Y624000D03*
X110000Y568000D03*
X122000Y568000D03*
X134000Y568000D03*
X146000Y568000D03*
X158000Y568000D03*
X110000Y556000D03*
X122000Y556000D03*
X134000Y556000D03*
X146000Y556000D03*
X158000Y556000D03*
X110000Y544000D03*
X122000Y544000D03*
X134000Y544000D03*
X146000Y544000D03*
X158000Y544000D03*
X110000Y532000D03*
X122000Y532000D03*
X134000Y532000D03*
X146000Y532000D03*
X158000Y532000D03*
X110000Y520000D03*
X122000Y520000D03*
X134000Y520000D03*
X146000Y520000D03*
X158000Y520000D03*
X98000Y544000D03*
X98000Y556000D03*
X98000Y568000D03*
X50000Y532000D03*
X62000Y532000D03*
X74000Y532000D03*
X86000Y532000D03*
X98000Y532000D03*
X50000Y520000D03*
X62000Y520000D03*
X74000Y520000D03*
X86000Y520000D03*
X98000Y520000D03*
D30*
X144220Y512000D02*
X172000Y484220D01*
X144220Y512000D02*
X112000Y512000D01*
X397550Y220700D02*
X397070Y220220D01*
X360000Y220220D01*
X394030Y349780D02*
X397550Y353300D01*
X394030Y349780D02*
X360000Y349780D01*
X311831Y301611D02*
X64250Y301611D01*
X311831Y301611D02*
X360000Y349780D01*
X311831Y301611D02*
X360000Y253442D01*
X360000Y220220D01*
X114969Y250811D02*
X64250Y250811D01*
X114969Y250811D02*
X127780Y238000D01*
D31*
X900082Y822000D02*
X916082Y838000D01*
X926500Y838000D02*
X934000Y845500D01*
X926500Y838000D02*
X916082Y838000D01*
X675100Y593100D02*
X662802Y593100D01*
X675100Y593100D02*
X776000Y694000D01*
D32*
X776000Y694000D03*
X776000Y728000D03*
D31*
X870000Y822000D01*
X900082Y822000D01*
X726000Y292000D02*
X720000Y286000D01*
D32*
X726000Y292000D03*
X642000Y486000D03*
D31*
X642000Y584000D01*
X651100Y593100D02*
X662802Y593100D01*
X651100Y593100D02*
X642000Y584000D01*
X720000Y286000D02*
X720000Y260898D01*
X900782Y770500D02*
X934000Y770500D01*
X900782Y770500D02*
X900082Y771200D01*
X617100Y593100D02*
X608700Y593100D01*
X837200Y771200D02*
X900082Y771200D01*
X636000Y612000D02*
X617100Y593100D01*
X636000Y632000D02*
X654000Y650000D01*
X716000Y650000D01*
X636000Y632000D02*
X636000Y612000D01*
X716000Y650000D02*
X837200Y771200D01*
X620900Y593100D02*
X608700Y593100D01*
X626000Y588000D02*
X626000Y486000D01*
X636000Y476000D01*
D32*
X636000Y476000D03*
X718000Y344000D03*
D31*
X720000Y342000D01*
X720000Y315000D01*
X626000Y588000D02*
X620900Y593100D01*
M02*
